<svg width="800" height="800" viewBox="0 0 800 800" fill="none" xmlns="http://www.w3.org/2000/svg">
<g clip-path="url(#clip0_690_28)">
<path d="M492.512 398.726L391.48 297.694H313.369C301.119 297.694 291.109 287.816 291.109 275.433V231.7H247.376C235.126 231.7 225.115 221.822 225.115 209.44V144.632H160.308C148.058 144.632 138.047 134.754 138.047 122.372V44.6538L45.3144 45.3119L44.6562 138.177L398.728 492.249L492.512 398.726Z" fill="white" fill-opacity="0.13"/>
<path d="M799.295 492.116C793.105 430.602 656.903 330.756 615.411 301.645C606.586 295.454 594.599 296.508 586.958 304.147L523.862 367.243L416.375 259.756C412.292 255.673 406.628 253.301 400.568 253.301H335.497V209.568C335.497 197.318 325.619 187.307 313.237 187.307H269.504V122.502C269.504 110.252 259.626 100.241 247.243 100.241H182.436V35.1708C182.436 29.3759 180.064 23.7114 175.981 19.3632L163.073 6.45508C158.859 2.23931 153.457 0.132443 147.135 0L23.0516 0.923028C10.9341 1.05343 1.0538 10.8013 1.0538 22.9188L0.132812 147.134C0.132812 153.062 2.50457 158.726 6.58789 163.072L367.245 523.862L304.149 586.958C296.641 594.466 295.455 606.584 301.647 615.411C330.758 657.035 430.604 793.237 492.119 799.295C562.195 807.199 650.977 747.528 713.676 679.823C773.345 613.96 804.565 545.464 799.295 492.116ZM496.595 755.036C469.986 752.402 402.019 677.847 348.933 605.005L605.134 348.805C677.977 401.89 752.531 469.858 755.165 496.467C759.116 536.246 730.665 594.996 681.005 649.791C637.672 697.605 562.984 758.197 496.595 755.036ZM45.3123 45.3119L138.045 44.6538V122.634C138.045 134.884 147.923 144.895 160.306 144.895H225.113V209.57C225.113 221.82 234.991 231.831 247.374 231.831H291.107V275.563C291.107 287.813 300.985 297.824 313.367 297.824H391.478L492.51 398.856L398.724 492.512L44.6541 138.177L45.3123 45.3119Z" fill="#D7DF23"/>
<path d="M605.664 558.9L558.904 605.663C550.209 614.357 550.209 628.319 558.904 637.146C568.389 646.103 580.901 645.971 590.386 637.146L637.147 590.385C645.841 581.691 645.841 567.729 637.147 558.902C628.451 550.206 614.357 550.206 605.664 558.9Z" fill="#D7DF23"/>
</g>
<defs>
<clipPath id="clip0_690_28">
<rect width="800" height="800" fill="white"/>
</clipPath>
</defs>
</svg>
