<svg width="12" height="12" viewBox="0 0 12 12" fill="none" xmlns="http://www.w3.org/2000/svg">
<path d="M7.5 3.5C7.76522 3.5 8.01957 3.60536 8.20711 3.79289C8.39464 3.98043 8.5 4.23478 8.5 4.5M7.5 1.5C8.29565 1.5 9.05871 1.81607 9.62132 2.37868C10.1839 2.94129 10.5 3.70435 10.5 4.5M2.5 2H4.5L5.5 4.5L4.25 5.25C4.78548 6.33577 5.66423 7.21452 6.75 7.75L7.5 6.5L10 7.5V9.5C10 9.76522 9.89464 10.0196 9.70711 10.2071C9.51957 10.3946 9.26522 10.5 9 10.5C7.04963 10.3815 5.21008 9.55325 3.82841 8.17159C2.44675 6.78992 1.61852 4.95037 1.5 3C1.5 2.73478 1.60536 2.48043 1.79289 2.29289C1.98043 2.10536 2.23478 2 2.5 2Z" stroke="#A6A6A8" stroke-linecap="round" stroke-linejoin="round"/>
</svg>
