<svg width="10" height="9" viewBox="0 0 10 9" fill="none" xmlns="http://www.w3.org/2000/svg">
<path d="M1.88889 2.33333H2.33333C2.56908 2.33333 2.79517 2.23968 2.96187 2.07298C3.12857 1.90628 3.22222 1.68019 3.22222 1.44444C3.22222 1.32657 3.26905 1.21352 3.3524 1.13017C3.43575 1.04683 3.54879 1 3.66667 1H6.33333C6.45121 1 6.56425 1.04683 6.6476 1.13017C6.73095 1.21352 6.77778 1.32657 6.77778 1.44444C6.77778 1.68019 6.87143 1.90628 7.03813 2.07298C7.20483 2.23968 7.43092 2.33333 7.66667 2.33333H8.11111C8.34686 2.33333 8.57295 2.42698 8.73965 2.59368C8.90635 2.76038 9 2.98647 9 3.22222V7.22222C9 7.45797 8.90635 7.68406 8.73965 7.85076C8.57295 8.01746 8.34686 8.11111 8.11111 8.11111H1.88889C1.65314 8.11111 1.42705 8.01746 1.26035 7.85076C1.09365 7.68406 1 7.45797 1 7.22222V3.22222C1 2.98647 1.09365 2.76038 1.26035 2.59368C1.42705 2.42698 1.65314 2.33333 1.88889 2.33333Z" stroke="#A6A6A8" stroke-linecap="round" stroke-linejoin="round"/>
<path d="M3.66667 5C3.66667 5.35362 3.80714 5.69276 4.05719 5.94281C4.30724 6.19286 4.64638 6.33333 5 6.33333C5.35362 6.33333 5.69276 6.19286 5.94281 5.94281C6.19286 5.69276 6.33333 5.35362 6.33333 5C6.33333 4.64638 6.19286 4.30724 5.94281 4.05719C5.69276 3.80714 5.35362 3.66667 5 3.66667C4.64638 3.66667 4.30724 3.80714 4.05719 4.05719C3.80714 4.30724 3.66667 4.64638 3.66667 5Z" stroke="#A6A6A8" stroke-linecap="round" stroke-linejoin="round"/>
</svg>
