<svg width="12" height="12" viewBox="0 0 12 12" fill="none" xmlns="http://www.w3.org/2000/svg">
<path d="M2.77419 1L1 2.29032M9.22581 1L11 2.29032M4.70968 6.80645H7.29032M6 5.51613V8.09677M1.48387 6.80645C1.48387 7.39952 1.60068 7.98678 1.82764 8.5347C2.0546 9.08262 2.38725 9.58048 2.80661 9.99984C3.22598 10.4192 3.72383 10.7519 4.27175 10.9788C4.81967 11.2058 5.40693 11.3226 6 11.3226C6.59307 11.3226 7.18033 11.2058 7.72825 10.9788C8.27617 10.7519 8.77402 10.4192 9.19338 9.99984C9.61275 9.58048 9.9454 9.08262 10.1724 8.5347C10.3993 7.98678 10.5161 7.39952 10.5161 6.80645C10.5161 6.21338 10.3993 5.62613 10.1724 5.0782C9.9454 4.53028 9.61275 4.03243 9.19338 3.61307C8.77402 3.1937 8.27617 2.86105 7.72825 2.63409C7.18033 2.40714 6.59307 2.29032 6 2.29032C5.40693 2.29032 4.81967 2.40714 4.27175 2.63409C3.72383 2.86105 3.22598 3.1937 2.80661 3.61307C2.38725 4.03243 2.0546 4.53028 1.82764 5.0782C1.60068 5.62613 1.48387 6.21338 1.48387 6.80645Z" stroke="#A6A6A8" stroke-linecap="round" stroke-linejoin="round"/>
</svg>
