<svg width="16" height="16" viewBox="0 0 16 16" fill="none" xmlns="http://www.w3.org/2000/svg">
<path d="M2 14V12.6667C2 11.9594 2.28095 11.2811 2.78105 10.781C3.28115 10.281 3.95942 10 4.66667 10H7.33333C8.04058 10 8.71885 10.281 9.21895 10.781C9.71905 11.2811 10 11.9594 10 12.6667V14M10.6667 2.08659C11.2403 2.23346 11.7487 2.56706 12.1118 3.0348C12.4748 3.50254 12.6719 4.07781 12.6719 4.66992C12.6719 5.26204 12.4748 5.83731 12.1118 6.30505C11.7487 6.77279 11.2403 7.10639 10.6667 7.25326M14 13.9999V12.6666C13.9966 12.078 13.7986 11.5071 13.4368 11.0429C13.0751 10.5786 12.5699 10.2471 12 10.0999M3.33333 4.66667C3.33333 5.37391 3.61428 6.05219 4.11438 6.55229C4.61448 7.05238 5.29276 7.33333 6 7.33333C6.70724 7.33333 7.38552 7.05238 7.88562 6.55229C8.38572 6.05219 8.66667 5.37391 8.66667 4.66667C8.66667 3.95942 8.38572 3.28115 7.88562 2.78105C7.38552 2.28095 6.70724 2 6 2C5.29276 2 4.61448 2.28095 4.11438 2.78105C3.61428 3.28115 3.33333 3.95942 3.33333 4.66667Z" stroke="#7d8b9b" stroke-width="1.5" stroke-linecap="round" stroke-linejoin="round"/>
</svg>
