<svg width="800" height="800" viewBox="0 0 800 800" fill="none" xmlns="http://www.w3.org/2000/svg">
<g clip-path="url(#clip0_690_2)">
<path d="M400 711.2C228.458 711.2 88.8008 571.674 88.8008 400.001C88.8008 228.328 228.458 88.8018 400 88.8018C571.542 88.8018 711.067 228.459 711.067 400.001C711.067 571.543 571.54 711.2 400 711.2Z" fill="white" fill-opacity="0.13"/>
<path d="M528.721 298.419C504.611 298.419 484.979 318.049 484.979 342.161C484.979 366.271 504.609 385.904 528.721 385.904C536.627 385.904 544.532 383.664 551.119 379.712C564.558 371.676 572.331 357.71 572.331 342.031C572.464 318.051 552.701 298.419 528.721 298.419Z" fill="white" fill-opacity="0.13"/>
<path d="M618.709 477.602C594.599 477.602 574.967 497.232 574.967 521.344C574.967 545.454 594.597 565.087 618.709 565.087C642.821 565.087 662.452 545.456 662.452 521.344C662.45 497.234 642.819 477.602 618.709 477.602Z" fill="white" fill-opacity="0.13"/>
<path d="M235.705 482.346C211.595 482.346 191.963 501.977 191.963 526.089C191.963 550.199 211.593 569.962 235.705 569.962C259.818 569.962 279.448 550.331 279.448 526.219C279.578 501.844 259.816 482.346 235.705 482.346Z" fill="white" fill-opacity="0.13"/>
<path d="M400.001 0C179.315 0 0 179.315 0 400.001C0 620.687 179.315 800.002 400.001 800.002C620.687 800.002 800.002 620.687 800.002 400.001C800.002 179.315 620.685 0 400.001 0ZM400.001 44.4009C499.737 44.4009 589.988 85.6387 654.547 152.175C630.832 192.228 603.164 230.303 572.334 265.745C559.423 258.367 544.666 254.15 528.724 254.15C518.316 254.15 508.303 255.995 498.948 259.553C438.473 180.369 367.59 114.493 287.75 62.9776C322.924 50.8574 360.738 44.4009 400.001 44.4009ZM528.722 385.771C504.612 385.771 484.979 366.141 484.979 342.029C484.979 317.919 504.61 298.286 528.722 298.286C552.832 298.286 572.464 317.917 572.464 342.029C571.937 365.613 553.755 385.508 528.722 385.771ZM564.559 451.91C545.719 466.665 532.939 489.196 530.962 514.625C464.163 523.321 394.466 523.979 323.452 516.732C323.32 514.888 322.924 512.911 322.661 511.066C378.392 483.002 430.831 450.724 478.392 414.359C492.752 424.372 510.013 430.433 528.985 430.433C537.021 430.433 544.926 429.379 552.569 427.27C556.523 435.31 560.475 443.611 564.559 451.91ZM44.4009 400.001C44.4009 262.319 122.925 142.953 237.681 83.7942C323.32 134.256 398.815 201.581 462.318 284.322C448.747 299.737 440.578 319.896 440.578 342.161C440.578 355.733 443.742 368.644 449.275 380.106C404.874 413.833 356.258 444.137 304.215 470.487C288.008 450.591 263.373 437.943 235.834 437.943C201.974 437.943 172.329 457.311 157.706 485.375C104.346 470.619 65.6108 455.336 47.8248 447.693C45.7174 432.017 44.4009 416.206 44.4009 400.001ZM279.579 525.956C279.579 550.066 259.949 569.699 235.836 569.699C211.724 569.699 192.094 550.068 192.094 525.956C192.094 501.846 211.724 482.214 235.836 482.214C259.816 482.346 279.579 501.844 279.579 525.956ZM58.8934 500C80.7637 508.301 111.067 518.577 147.695 528.722C147.695 530.566 147.828 532.278 147.958 534.255C117.787 543.742 93.6767 549.539 78.9192 552.832C70.8832 535.969 64.2942 518.314 58.8934 500ZM400.001 755.599C275.099 755.599 165.218 690.91 101.713 593.281C117.259 589.46 138.208 583.926 163.109 576.153C179.05 599.342 205.665 614.361 235.704 614.361C272.067 614.361 303.424 592.095 316.863 560.605C351.646 564.426 386.297 566.271 420.288 566.271C460.604 566.271 500.13 563.373 538.865 558.365C552.832 588.404 583.399 609.486 618.838 609.486C620.945 609.486 622.79 609.353 624.634 609.223C631.617 633.598 635.966 652.57 638.336 663.504C575.23 720.818 491.701 755.599 400.001 755.599ZM618.71 565.087C594.6 565.087 574.967 545.456 574.967 521.344C574.967 497.234 594.598 477.602 618.71 477.602C642.822 477.602 662.452 497.232 662.452 521.344C662.45 545.454 642.82 565.087 618.71 565.087ZM674.968 625.034C672.728 616.207 670.093 606.194 666.799 595.125C690.91 579.314 706.984 552.174 706.984 521.212C706.984 520.158 706.851 518.972 706.851 517.918C717.918 513.966 728.854 509.75 739.658 505.27C725.823 549.671 703.69 590.12 674.968 625.034ZM694.073 475.494C678.657 450.198 650.725 433.07 618.975 433.07C614.363 433.07 609.883 433.598 605.403 434.124C600.661 424.244 595.916 414.229 590.911 404.481C607.248 388.144 616.998 365.613 616.998 341.898C616.998 325.166 612.255 309.75 604.217 296.444C634.256 262.321 661.399 225.693 685.113 187.484C729.382 246.64 755.601 320.291 755.601 399.736C755.601 417.392 754.152 434.65 751.78 451.647C732.808 460.474 713.571 468.512 694.073 475.494Z" fill="#D7DF23"/>
</g>
<defs>
<clipPath id="clip0_690_2">
<rect width="800" height="800" fill="white"/>
</clipPath>
</defs>
</svg>
