<svg width="14" height="15" viewBox="0 0 14 15" fill="none" xmlns="http://www.w3.org/2000/svg">
<path d="M10 1V4M4 1V4M1 7H13M1 4C1 3.60218 1.15804 3.22064 1.43934 2.93934C1.72064 2.65804 2.10218 2.5 2.5 2.5H11.5C11.8978 2.5 12.2794 2.65804 12.5607 2.93934C12.842 3.22064 13 3.60218 13 4V13C13 13.3978 12.842 13.7794 12.5607 14.0607C12.2794 14.342 11.8978 14.5 11.5 14.5H2.5C2.10218 14.5 1.72064 14.342 1.43934 14.0607C1.15804 13.7794 1 13.3978 1 13V4ZM6.25 10.75C6.25 10.9489 6.32902 11.1397 6.46967 11.2803C6.61032 11.421 6.80109 11.5 7 11.5C7.19891 11.5 7.38968 11.421 7.53033 11.2803C7.67098 11.1397 7.75 10.9489 7.75 10.75C7.75 10.5511 7.67098 10.3603 7.53033 10.2197C7.38968 10.079 7.19891 10 7 10C6.80109 10 6.61032 10.079 6.46967 10.2197C6.32902 10.3603 6.25 10.5511 6.25 10.75Z" stroke="#A6A6A8" stroke-linecap="round" stroke-linejoin="round"/>
</svg>
