<svg width="11" height="13" viewBox="0 0 11 13" fill="none" xmlns="http://www.w3.org/2000/svg">
<path d="M6.26756 11.5885C3.88356 11.5885 1.79657 9.97903 1.17979 7.66386C0.563013 5.34869 1.56998 2.90539 3.63526 1.70784C4.63919 1.12557 5.8079 0.892743 6.95832 1.04584C8.10874 1.19893 9.17588 1.7293 9.99259 2.55386L8.22696 4.33643C7.9714 4.08028 7.66772 3.87719 7.33339 3.73882C6.99905 3.60046 6.64067 3.52956 6.27883 3.5302C5.917 3.53084 5.55887 3.60301 5.22503 3.74255C4.89119 3.8821 4.58823 4.08626 4.33357 4.34331C3.81768 4.864 3.52825 5.56734 3.52825 6.30033C3.52825 7.03331 3.81768 7.73665 4.33357 8.25734C4.58823 8.51439 4.89119 8.71856 5.22503 8.8581C5.55887 8.99765 5.917 9.06981 6.27883 9.07045C6.64067 9.07109 6.99905 9.00019 7.33339 8.86183C7.66772 8.72347 7.9714 8.52037 8.22696 8.26423L10 10.0468C9.51095 10.5381 8.92917 10.9274 8.28844 11.1921C7.64771 11.4567 6.96079 11.5915 6.26756 11.5885Z" stroke="#A6A6A8" stroke-linecap="round" stroke-linejoin="round"/>
</svg>
