<svg width="13" height="12" viewBox="0 0 13 12" fill="none" xmlns="http://www.w3.org/2000/svg">
<path d="M7.72222 3.55528V2.33306C7.72222 2.00891 7.59345 1.69803 7.36424 1.46882C7.13503 1.23961 6.82415 1.11084 6.5 1.11084H2.22222C1.89807 1.11084 1.58719 1.23961 1.35798 1.46882C1.12877 1.69803 1 2.00891 1 2.33306V9.6664C1 9.99055 1.12877 10.3014 1.35798 10.5306C1.58719 10.7598 1.89807 10.8886 2.22222 10.8886H6.5C6.82415 10.8886 7.13503 10.7598 7.36424 10.5306C7.59345 10.3014 7.72222 9.99055 7.72222 9.6664V8.44417M4.66667 5.99973H12M12 5.99973L10.1667 4.1664M12 5.99973L10.1667 7.83306" stroke="#A6A6A8" stroke-width="1.5" stroke-linecap="round" stroke-linejoin="round"/>
</svg>
