<?xml version="1.0" standalone="no"?>
<!DOCTYPE svg PUBLIC "-//W3C//DTD SVG 20010904//EN"
 "http://www.w3.org/TR/2001/REC-SVG-20010904/DTD/svg10.dtd">
<svg version="1.0" xmlns="http://www.w3.org/2000/svg"
 width="1440.000000pt" height="780.000000pt" viewBox="0 0 1440.000000 780.000000"
 preserveAspectRatio="xMidYMid meet">

<g transform="translate(0.000000,780.000000) scale(0.100000,-0.100000)"
fill="#000000" stroke="none">
<path d="M4924 7773 c29 -58 97 -291 125 -431 63 -314 87 -586 101 -1112 6
-217 15 -453 20 -525 46 -594 333 -1089 823 -1415 248 -166 505 -275 832 -356
611 -150 1348 -107 1801 105 227 107 374 256 402 409 8 48 8 52 -10 52 -19 0
-28 -17 -47 -87 -7 -24 -33 -71 -59 -105 -144 -190 -479 -332 -932 -395 -176
-24 -603 -24 -785 1 -625 85 -1092 290 -1448 635 -284 275 -462 633 -522 1052
-12 79 -19 237 -25 519 -16 762 -68 1187 -191 1556 -40 121 -42 124 -70 124
-29 0 -29 -1 -15 -27z"/>
<path d="M8732 5640 c-12 -10 -27 -20 -33 -22 -17 -6 -31 -86 -19 -108 15 -28
67 -53 100 -48 25 4 29 0 39 -32 14 -48 66 -100 100 -100 31 0 71 25 71 44 0
8 -11 17 -24 20 -35 9 -44 45 -17 65 14 11 20 23 15 34 -3 10 5 38 20 67 15
28 24 55 21 60 -11 18 -81 11 -110 -11 -22 -18 -29 -20 -36 -8 -5 8 -9 16 -9
19 0 10 -58 40 -77 40 -10 -1 -28 -9 -41 -20z"/>
<path d="M10795 2724 c-407 -27 -793 -88 -1065 -171 -355 -107 -580 -224 -784
-409 -271 -245 -341 -303 -501 -409 -310 -205 -593 -429 -829 -656 -62 -60
-118 -109 -122 -109 -5 0 -44 -39 -86 -88 -225 -253 -467 -577 -602 -806 l-45
-76 3819 0 3820 0 0 770 0 770 -102 76 c-356 265 -782 498 -1208 660 -63 24
-118 44 -121 44 -3 0 -11 -12 -18 -26 -11 -26 -14 -26 -71 -21 -68 6 -163 46
-179 75 -8 16 -8 24 4 36 8 8 12 17 8 19 -5 3 -91 26 -193 51 -217 54 -394 87
-615 116 -88 11 -261 43 -385 71 -124 28 -254 57 -290 65 -67 14 -329 25 -435
18z m823 -180 c2 -19 -3 -36 -14 -44 -14 -12 -18 -12 -30 5 -15 20 -19 57 -7
69 4 4 16 6 28 4 14 -2 21 -12 23 -34z m-2818 -708 c13 -22 13 -28 1 -35 -7
-5 -25 -5 -40 -2 -32 9 -43 57 -14 64 28 7 37 3 53 -27z m3892 -363 c24 -21
23 -50 -2 -63 -28 -15 -90 12 -90 39 0 38 59 54 92 24z m-4352 -342 c0 -11
-24 -44 -53 -75 -43 -45 -59 -56 -85 -56 -28 0 -32 3 -32 25 0 65 64 125 133
125 30 0 37 -4 37 -19z m2765 -171 c47 -23 75 -64 75 -112 0 -38 -18 -58 -108
-122 -28 -21 -69 -58 -89 -83 -44 -53 -83 -76 -118 -67 -35 9 -82 66 -95 115
-16 57 3 154 41 213 22 36 36 47 71 56 24 6 48 13 53 15 33 12 132 3 170 -15z
m-1896 -594 c31 -33 24 -60 -16 -64 -65 -6 -97 40 -51 72 30 21 41 20 67 -8z"/>
</g>
</svg>
