<svg width="171" height="33" viewBox="0 0 171 33" fill="none" xmlns="http://www.w3.org/2000/svg">
<rect width="170.067" height="33" rx="16.5" fill="#1DC202" fill-opacity="0.1"/>
<g clip-path="url(#clip0)">
<path d="M16.5332 24.5C20.9515 24.5 24.5332 20.9183 24.5332 16.5C24.5332 12.0817 20.9515 8.5 16.5332 8.5C12.1149 8.5 8.5332 12.0817 8.5332 16.5C8.5332 20.9183 12.1149 24.5 16.5332 24.5Z" fill="#1DC202"/>
<path d="M16.5332 13.3008V19.7008" stroke="white" stroke-width="1.6" stroke-linecap="round" stroke-linejoin="round"/>
<path d="M13.333 16.5H19.733" stroke="white" stroke-width="1.6" stroke-linecap="round" stroke-linejoin="round"/>
</g>
<path d="M39.4484 22.168C38.6737 22.168 37.9224 22.0653 37.1944 21.86C36.4757 21.6453 35.8971 21.37 35.4584 21.034L36.2284 19.326C36.6484 19.634 37.1477 19.8813 37.7264 20.068C38.3051 20.2547 38.8837 20.348 39.4624 20.348C40.1064 20.348 40.5824 20.2547 40.8904 20.068C41.1984 19.872 41.3524 19.6153 41.3524 19.298C41.3524 19.0647 41.2591 18.8733 41.0724 18.724C40.8951 18.5653 40.6617 18.4393 40.3724 18.346C40.0924 18.2527 39.7097 18.15 39.2244 18.038C38.4777 17.8607 37.8664 17.6833 37.3904 17.506C36.9144 17.3287 36.5037 17.044 36.1584 16.652C35.8224 16.26 35.6544 15.7373 35.6544 15.084C35.6544 14.5147 35.8084 14.0013 36.1164 13.544C36.4244 13.0773 36.8864 12.7087 37.5024 12.438C38.1277 12.1673 38.8884 12.032 39.7844 12.032C40.4097 12.032 41.0211 12.1067 41.6184 12.256C42.2157 12.4053 42.7384 12.62 43.1864 12.9L42.4864 14.622C41.5811 14.1087 40.6757 13.852 39.7704 13.852C39.1357 13.852 38.6644 13.9547 38.3564 14.16C38.0577 14.3653 37.9084 14.636 37.9084 14.972C37.9084 15.308 38.0811 15.56 38.4264 15.728C38.7811 15.8867 39.3177 16.0453 40.0364 16.204C40.7831 16.3813 41.3944 16.5587 41.8704 16.736C42.3464 16.9133 42.7524 17.1933 43.0884 17.576C43.4337 17.9587 43.6064 18.4767 43.6064 19.13C43.6064 19.69 43.4477 20.2033 43.1304 20.67C42.8224 21.1273 42.3557 21.4913 41.7304 21.762C41.1051 22.0327 40.3444 22.168 39.4484 22.168ZM47.0494 14.048H43.9134V12.2H52.4534V14.048H49.3174V22H47.0494V14.048ZM59.6355 19.9H55.0855L54.2175 22H51.8935L56.2615 12.2H58.5015L62.8835 22H60.5035L59.6355 19.9ZM58.9215 18.178L57.3675 14.426L55.8135 18.178H58.9215ZM70.1443 22L68.2543 19.27H68.1423H66.1683V22H63.9003V12.2H68.1423C69.0103 12.2 69.7616 12.3447 70.3963 12.634C71.0403 12.9233 71.5349 13.334 71.8803 13.866C72.2256 14.398 72.3983 15.028 72.3983 15.756C72.3983 16.484 72.2209 17.114 71.8663 17.646C71.5209 18.1687 71.0263 18.57 70.3823 18.85L72.5803 22H70.1443ZM70.1023 15.756C70.1023 15.2053 69.9249 14.7853 69.5703 14.496C69.2156 14.1973 68.6976 14.048 68.0163 14.048H66.1683V17.464H68.0163C68.6976 17.464 69.2156 17.3147 69.5703 17.016C69.9249 16.7173 70.1023 16.2973 70.1023 15.756ZM76.0885 14.048H72.9525V12.2H81.4925V14.048H78.3565V22H76.0885V14.048ZM88.7076 14.048H85.5716V12.2H94.1116V14.048H90.9756V22H88.7076V14.048ZM104.32 12.2V22H102.052V17.982H97.5999V22H95.3319V12.2H97.5999V16.064H102.052V12.2H104.32ZM114.227 20.18V22H106.639V12.2H114.045V14.02H108.893V16.148H113.443V17.912H108.893V20.18H114.227ZM124.686 22.168C123.687 22.168 122.782 21.9533 121.97 21.524C121.167 21.0853 120.533 20.4833 120.066 19.718C119.609 18.9433 119.38 18.0707 119.38 17.1C119.38 16.1293 119.609 15.2613 120.066 14.496C120.533 13.7213 121.167 13.1193 121.97 12.69C122.782 12.2513 123.692 12.032 124.7 12.032C125.549 12.032 126.315 12.1813 126.996 12.48C127.687 12.7787 128.265 13.208 128.732 13.768L127.276 15.112C126.613 14.3467 125.792 13.964 124.812 13.964C124.205 13.964 123.664 14.0993 123.188 14.37C122.712 14.6313 122.339 15 122.068 15.476C121.807 15.952 121.676 16.4933 121.676 17.1C121.676 17.7067 121.807 18.248 122.068 18.724C122.339 19.2 122.712 19.5733 123.188 19.844C123.664 20.1053 124.205 20.236 124.812 20.236C125.792 20.236 126.613 19.8487 127.276 19.074L128.732 20.418C128.265 20.9873 127.687 21.4213 126.996 21.72C126.305 22.0187 125.535 22.168 124.686 22.168ZM136.526 19.9H131.976L131.108 22H128.784L133.152 12.2H135.392L139.774 22H137.394L136.526 19.9ZM135.812 18.178L134.258 14.426L132.704 18.178H135.812ZM144.011 22.168C143.236 22.168 142.485 22.0653 141.757 21.86C141.038 21.6453 140.46 21.37 140.021 21.034L140.791 19.326C141.211 19.634 141.71 19.8813 142.289 20.068C142.868 20.2547 143.446 20.348 144.025 20.348C144.669 20.348 145.145 20.2547 145.453 20.068C145.761 19.872 145.915 19.6153 145.915 19.298C145.915 19.0647 145.822 18.8733 145.635 18.724C145.458 18.5653 145.224 18.4393 144.935 18.346C144.655 18.2527 144.272 18.15 143.787 18.038C143.04 17.8607 142.429 17.6833 141.953 17.506C141.477 17.3287 141.066 17.044 140.721 16.652C140.385 16.26 140.217 15.7373 140.217 15.084C140.217 14.5147 140.371 14.0013 140.679 13.544C140.987 13.0773 141.449 12.7087 142.065 12.438C142.69 12.1673 143.451 12.032 144.347 12.032C144.972 12.032 145.584 12.1067 146.181 12.256C146.778 12.4053 147.301 12.62 147.749 12.9L147.049 14.622C146.144 14.1087 145.238 13.852 144.333 13.852C143.698 13.852 143.227 13.9547 142.919 14.16C142.62 14.3653 142.471 14.636 142.471 14.972C142.471 15.308 142.644 15.56 142.989 15.728C143.344 15.8867 143.88 16.0453 144.599 16.204C145.346 16.3813 145.957 16.5587 146.433 16.736C146.909 16.9133 147.315 17.1933 147.651 17.576C147.996 17.9587 148.169 18.4767 148.169 19.13C148.169 19.69 148.01 20.2033 147.693 20.67C147.385 21.1273 146.918 21.4913 146.293 21.762C145.668 22.0327 144.907 22.168 144.011 22.168ZM151.612 14.048H148.476V12.2H157.016V14.048H153.88V22H151.612V14.048Z" fill="#1DC202"/>
<defs>
<clipPath id="clip0">
<rect width="17.0667" height="16" fill="white" transform="translate(8 8.5)"/>
</clipPath>
</defs>
</svg>
