<svg width="163" height="33" viewBox="0 0 163 33" fill="none" xmlns="http://www.w3.org/2000/svg">
<rect width="162.067" height="33" rx="16.5" fill="#1DC202" fill-opacity="0.1"/>
<g clip-path="url(#clip0)">
<path d="M16.5332 24.5C20.9515 24.5 24.5332 20.9183 24.5332 16.5C24.5332 12.0817 20.9515 8.5 16.5332 8.5C12.1149 8.5 8.5332 12.0817 8.5332 16.5C8.5332 20.9183 12.1149 24.5 16.5332 24.5Z" fill="#1DC202"/>
<path d="M16.5332 13.3008V19.7008" stroke="white" stroke-width="1.6" stroke-linecap="round" stroke-linejoin="round"/>
<path d="M13.333 16.5H19.733" stroke="white" stroke-width="1.6" stroke-linecap="round" stroke-linejoin="round"/>
</g>
<path d="M38.0344 22.168C37.3717 22.168 36.7604 22.0467 36.2004 21.804C35.6497 21.552 35.1971 21.1973 34.8424 20.74L36.1024 19.228C36.6344 19.9467 37.2411 20.306 37.9224 20.306C38.8464 20.306 39.3084 19.7647 39.3084 18.682V14.02H35.8644V12.2H41.5624V18.556C41.5624 19.76 41.2637 20.6653 40.6664 21.272C40.0691 21.8693 39.1917 22.168 38.0344 22.168ZM48.5486 22.168C47.5313 22.168 46.612 21.9487 45.7906 21.51C44.9786 21.0713 44.3393 20.4693 43.8726 19.704C43.4153 18.9293 43.1866 18.0613 43.1866 17.1C43.1866 16.1387 43.4153 15.2753 43.8726 14.51C44.3393 13.7353 44.9786 13.1287 45.7906 12.69C46.612 12.2513 47.5313 12.032 48.5486 12.032C49.566 12.032 50.4806 12.2513 51.2926 12.69C52.1046 13.1287 52.744 13.7353 53.2106 14.51C53.6773 15.2753 53.9106 16.1387 53.9106 17.1C53.9106 18.0613 53.6773 18.9293 53.2106 19.704C52.744 20.4693 52.1046 21.0713 51.2926 21.51C50.4806 21.9487 49.566 22.168 48.5486 22.168ZM48.5486 20.236C49.1273 20.236 49.65 20.1053 50.1166 19.844C50.5833 19.5733 50.9473 19.2 51.2086 18.724C51.4793 18.248 51.6146 17.7067 51.6146 17.1C51.6146 16.4933 51.4793 15.952 51.2086 15.476C50.9473 15 50.5833 14.6313 50.1166 14.37C49.65 14.0993 49.1273 13.964 48.5486 13.964C47.97 13.964 47.4473 14.0993 46.9806 14.37C46.514 14.6313 46.1453 15 45.8746 15.476C45.6133 15.952 45.4826 16.4933 45.4826 17.1C45.4826 17.7067 45.6133 18.248 45.8746 18.724C46.1453 19.2 46.514 19.5733 46.9806 19.844C47.4473 20.1053 47.97 20.236 48.5486 20.236ZM55.6151 12.2H57.8831V22H55.6151V12.2ZM69.1969 12.2V22H67.3349L62.4489 16.05V22H60.2089V12.2H62.0849L66.9569 18.15V12.2H69.1969ZM75.4804 12.2H77.7484V20.152H82.6624V22H75.4804V12.2ZM83.9296 12.2H86.1976V22H83.9296V12.2ZM97.8906 12.2L93.6486 22H91.4086L87.1806 12.2H89.6306L92.6126 19.2L95.6366 12.2H97.8906ZM106.297 20.18V22H98.7089V12.2H106.115V14.02H100.963V16.148H105.513V17.912H100.963V20.18H106.297ZM121.054 12.2V22H119.192L114.306 16.05V22H112.066V12.2H113.942L118.814 18.15V12.2H121.054ZM128.119 22.168C127.102 22.168 126.182 21.9487 125.361 21.51C124.549 21.0713 123.91 20.4693 123.443 19.704C122.986 18.9293 122.757 18.0613 122.757 17.1C122.757 16.1387 122.986 15.2753 123.443 14.51C123.91 13.7353 124.549 13.1287 125.361 12.69C126.182 12.2513 127.102 12.032 128.119 12.032C129.136 12.032 130.051 12.2513 130.863 12.69C131.675 13.1287 132.314 13.7353 132.781 14.51C133.248 15.2753 133.481 16.1387 133.481 17.1C133.481 18.0613 133.248 18.9293 132.781 19.704C132.314 20.4693 131.675 21.0713 130.863 21.51C130.051 21.9487 129.136 22.168 128.119 22.168ZM128.119 20.236C128.698 20.236 129.22 20.1053 129.687 19.844C130.154 19.5733 130.518 19.2 130.779 18.724C131.05 18.248 131.185 17.7067 131.185 17.1C131.185 16.4933 131.05 15.952 130.779 15.476C130.518 15 130.154 14.6313 129.687 14.37C129.22 14.0993 128.698 13.964 128.119 13.964C127.54 13.964 127.018 14.0993 126.551 14.37C126.084 14.6313 125.716 15 125.445 15.476C125.184 15.952 125.053 16.4933 125.053 17.1C125.053 17.7067 125.184 18.248 125.445 18.724C125.716 19.2 126.084 19.5733 126.551 19.844C127.018 20.1053 127.54 20.236 128.119 20.236ZM149.669 12.2L146.463 22H144.027L141.871 15.364L139.645 22H137.223L134.003 12.2H136.355L138.567 19.088L140.877 12.2H142.977L145.217 19.144L147.499 12.2H149.669Z" fill="#1DC202"/>
<defs>
<clipPath id="clip0">
<rect width="17.0667" height="16" fill="white" transform="translate(8 8.5)"/>
</clipPath>
</defs>
</svg>
