<svg width="12" height="13" viewBox="0 0 12 13" fill="none" xmlns="http://www.w3.org/2000/svg">
<path d="M5.99999 8.77754V8.78309M5.99999 7.11088C6.24985 7.11163 6.49267 7.02814 6.68924 6.8739C6.88581 6.71965 7.02465 6.50366 7.08334 6.26079C7.14204 6.01792 7.11716 5.76235 7.01272 5.53536C6.90829 5.30837 6.73039 5.12321 6.50776 5.00977C6.28675 4.89656 6.03393 4.86145 5.79044 4.91017C5.54694 4.95889 5.32709 5.08857 5.16666 5.27811M10.375 3.37199C10.7639 3.5931 11.0028 4.00699 11 4.45421V8.50086C11 8.95031 10.7539 9.36475 10.3566 9.58309L6.60665 11.9553C6.42074 12.0574 6.21208 12.1109 5.99999 12.1109C5.7879 12.1109 5.57924 12.0574 5.39332 11.9553L1.64333 9.58309C1.44898 9.47688 1.28673 9.3204 1.17356 9.13002C1.06039 8.93964 1.00045 8.72234 1 8.50086V4.45365C1 4.00421 1.24611 3.59032 1.64333 3.37199L5.39332 1.16088C5.58473 1.05535 5.79975 1 6.01832 1C6.2369 1 6.45191 1.05535 6.64332 1.16088L10.3933 3.37199H10.375Z" stroke="#A6A6A8" stroke-width="1.5" stroke-linecap="round" stroke-linejoin="round"/>
</svg>
