<svg width="58" height="51" viewBox="0 0 58 51" fill="none" xmlns="http://www.w3.org/2000/svg">
<path d="M52.3472 27.2135L29.0259 49.8984L5.70466 27.2135C4.16641 25.7433 2.95475 23.9763 2.14599 22.0237C1.33722 20.071 0.948874 17.9751 1.00539 15.8678C1.06191 13.7605 1.56207 11.6875 2.47438 9.77939C3.38669 7.87127 4.69139 6.16934 6.30631 4.78078C7.92123 3.39221 9.81139 2.3471 11.8578 1.71123C13.9042 1.07537 16.0624 0.862544 18.1967 1.08615C20.3309 1.30975 22.3949 1.96495 24.2587 3.01047C26.1224 4.056 27.7456 5.4692 29.0259 7.1611C30.3118 5.48149 31.9368 4.08063 33.7993 3.0462C35.6618 2.01177 37.7216 1.36604 39.8499 1.14942C41.9781 0.932806 44.129 1.14997 46.1679 1.78731C48.2068 2.42466 50.0897 3.46847 51.699 4.85341C53.3082 6.23836 54.6091 7.93463 55.5202 9.83605C56.4312 11.7375 56.9329 13.8031 56.9937 15.9037C57.0546 18.0043 56.6733 20.0947 55.8738 22.0439C55.0742 23.9931 53.8736 25.7592 52.3472 27.2318M29.0215 7.14299L18.7819 17.1997C18.1989 17.7724 17.8715 18.5491 17.8715 19.3589C17.8715 20.1687 18.1989 20.9453 18.7819 21.518L20.4703 23.1763C22.6159 25.2836 26.0985 25.2836 28.2441 23.1763L31.3536 20.1224C33.2092 18.3 35.7258 17.2761 38.35 17.2761C40.9741 17.2761 43.4908 18.3 45.3463 20.1224L52.3427 26.9938M30.5767 36.1557L36.7957 42.2637M38.3504 28.5208L44.5694 34.6287" stroke="#647181" stroke-width="2" stroke-linecap="round" stroke-linejoin="round"/>
</svg>
