<svg width="19" height="12" viewBox="0 0 19 12" fill="none" xmlns="http://www.w3.org/2000/svg">
<path d="M4.33333 4.33333V4.34167M7.66667 4.33333V4.34167M11 4.33333V4.34167M14.3333 4.33333V4.34167M4.33333 7.66667V7.675M14.3333 7.66667V7.675M7.66667 7.66667L11 7.675M1 2.66667C1 2.22464 1.17559 1.80072 1.48816 1.48816C1.80072 1.17559 2.22464 1 2.66667 1H16C16.442 1 16.8659 1.17559 17.1785 1.48816C17.4911 1.80072 17.6667 2.22464 17.6667 2.66667V9.33333C17.6667 9.77536 17.4911 10.1993 17.1785 10.5118C16.8659 10.8244 16.442 11 16 11H2.66667C2.22464 11 1.80072 10.8244 1.48816 10.5118C1.17559 10.1993 1 9.77536 1 9.33333V2.66667Z" stroke="#A6A6A8" stroke-width="1.5" stroke-linecap="round" stroke-linejoin="round"/>
</svg>
