<svg width="239" height="635" viewBox="0 0 239 635" fill="none" xmlns="http://www.w3.org/2000/svg">
<g clip-path="url(#clip0_2931_1504)">
<g opacity="0.2">
<path d="M177.716 628.399C176.491 628.399 175.499 629.391 175.499 630.615C175.499 631.839 176.491 632.831 177.716 632.831C178.941 632.831 179.934 631.839 179.934 630.615C179.934 629.391 178.941 628.399 177.716 628.399Z" fill="#F7F7F7"/>
<path d="M171.059 609.087C169.66 609.087 168.525 610.221 168.525 611.62C168.525 613.018 169.66 614.152 171.059 614.152C172.459 614.152 173.594 613.018 173.594 611.62C173.594 610.221 172.459 609.087 171.059 609.087Z" fill="#F7F7F7"/>
<path d="M164.402 590.727C163.352 590.727 162.501 591.578 162.501 592.627C162.501 593.676 163.352 594.526 164.402 594.526C165.452 594.526 166.303 593.676 166.303 592.627C166.303 591.578 165.452 590.727 164.402 590.727Z" fill="#F7F7F7"/>
<path d="M158.709 627.766C157.135 627.766 155.858 629.041 155.858 630.615C155.858 632.188 157.135 633.464 158.709 633.464C160.284 633.464 161.561 632.188 161.561 630.615C161.561 629.041 160.284 627.766 158.709 627.766Z" fill="#F7F7F7"/>
<path d="M152.052 609.72C151.003 609.72 150.152 610.57 150.152 611.619C150.152 612.668 151.003 613.519 152.052 613.519C153.102 613.519 153.953 612.668 153.953 611.619C153.953 610.57 153.102 609.72 152.052 609.72Z" fill="#F7F7F7"/>
<path d="M145.395 591.043C144.52 591.043 143.811 591.752 143.811 592.626C143.811 593.5 144.52 594.209 145.395 594.209C146.269 594.209 146.979 593.5 146.979 592.626C146.979 591.752 146.269 591.043 145.395 591.043Z" fill="#F7F7F7"/>
<path d="M139.702 628.399C138.478 628.399 137.485 629.391 137.485 630.615C137.485 631.839 138.478 632.831 139.702 632.831C140.927 632.831 141.92 631.839 141.92 630.615C141.92 629.391 140.927 628.399 139.702 628.399Z" fill="#F7F7F7"/>
<path d="M133.044 609.403C131.82 609.403 130.827 610.395 130.827 611.619C130.827 612.843 131.82 613.835 133.044 613.835C134.269 613.835 135.262 612.843 135.262 611.619C135.262 610.395 134.269 609.403 133.044 609.403Z" fill="#F7F7F7"/>
<path d="M126.39 590.094C124.99 590.094 123.855 591.228 123.855 592.627C123.855 594.025 124.99 595.159 126.39 595.159C127.789 595.159 128.924 594.025 128.924 592.627C128.924 591.228 127.789 590.094 126.39 590.094Z" fill="#F7F7F7"/>
<path d="M120.696 627.766C119.121 627.766 117.845 629.041 117.845 630.615C117.845 632.188 119.121 633.464 120.696 633.464C122.27 633.464 123.547 632.188 123.547 630.615C123.547 629.041 122.27 627.766 120.696 627.766Z" fill="#F7F7F7"/>
<path d="M114.039 610.038C113.164 610.038 112.455 610.747 112.455 611.621C112.455 612.495 113.164 613.204 114.039 613.204C114.914 613.204 115.623 612.495 115.623 611.621C115.623 610.747 114.914 610.038 114.039 610.038Z" fill="#F7F7F7"/>
<path d="M107.382 590.094C105.982 590.094 104.847 591.228 104.847 592.627C104.847 594.025 105.982 595.159 107.382 595.159C108.781 595.159 109.916 594.025 109.916 592.627C109.916 591.228 108.781 590.094 107.382 590.094Z" fill="#F7F7F7"/>
<path d="M120.696 570.782C119.121 570.782 117.845 572.058 117.845 573.631C117.845 575.205 119.121 576.48 120.696 576.48C122.27 576.48 123.547 575.205 123.547 573.631C123.547 572.058 122.27 570.782 120.696 570.782Z" fill="#F7F7F7"/>
<path d="M114.039 552.737C112.989 552.737 112.138 553.588 112.138 554.637C112.138 555.686 112.989 556.536 114.039 556.536C115.088 556.536 115.939 555.686 115.939 554.637C115.939 553.588 115.088 552.737 114.039 552.737Z" fill="#F7F7F7"/>
<path d="M101.688 627.45C99.9381 627.45 98.5198 628.867 98.5198 630.616C98.5198 632.364 99.9381 633.781 101.688 633.781C103.437 633.781 104.855 632.364 104.855 630.616C104.855 628.867 103.437 627.45 101.688 627.45Z" fill="#F7F7F7"/>
<path d="M95.0305 609.403C93.8058 609.403 92.813 610.395 92.813 611.619C92.813 612.843 93.8058 613.835 95.0305 613.835C96.2552 613.835 97.248 612.843 97.248 611.619C97.248 610.395 96.2552 609.403 95.0305 609.403Z" fill="#F7F7F7"/>
<path d="M88.3755 589.776C86.8009 589.776 85.5244 591.052 85.5244 592.625C85.5244 594.199 86.8009 595.475 88.3755 595.475C89.9501 595.475 91.2266 594.199 91.2266 592.625C91.2266 591.052 89.9501 589.776 88.3755 589.776Z" fill="#F7F7F7"/>
<path d="M101.689 571.415C100.464 571.415 99.4712 572.407 99.4712 573.631C99.4712 574.855 100.464 575.847 101.689 575.847C102.913 575.847 103.906 574.855 103.906 573.631C103.906 572.407 102.913 571.415 101.689 571.415Z" fill="#F7F7F7"/>
<path d="M95.0302 552.104C93.6305 552.104 92.4959 553.238 92.4959 554.636C92.4959 556.035 93.6305 557.169 95.0302 557.169C96.4298 557.169 97.5645 556.035 97.5645 554.636C97.5645 553.238 96.4298 552.104 95.0302 552.104Z" fill="#F7F7F7"/>
<path d="M82.6809 628.399C81.4562 628.399 80.4634 629.391 80.4634 630.615C80.4634 631.839 81.4562 632.831 82.6809 632.831C83.9056 632.831 84.8984 631.839 84.8984 630.615C84.8984 629.391 83.9056 628.399 82.6809 628.399Z" fill="#F7F7F7"/>
<path d="M76.0247 607.822C73.9253 607.822 72.2233 609.523 72.2233 611.621C72.2233 613.719 73.9253 615.42 76.0247 615.42C78.1242 615.42 79.8262 613.719 79.8262 611.621C79.8262 609.523 78.1242 607.822 76.0247 607.822Z" fill="#F7F7F7"/>
<path d="M69.3669 590.727C68.3171 590.727 67.4662 591.578 67.4662 592.627C67.4662 593.676 68.3171 594.526 69.3669 594.526C70.4166 594.526 71.2676 593.676 71.2676 592.627C71.2676 591.578 70.4166 590.727 69.3669 590.727Z" fill="#F7F7F7"/>
<path d="M82.6817 572.048C81.8069 572.048 81.0978 572.757 81.0978 573.631C81.0978 574.505 81.8069 575.214 82.6817 575.214C83.5565 575.214 84.2656 574.505 84.2656 573.631C84.2656 572.757 83.5565 572.048 82.6817 572.048Z" fill="#F7F7F7"/>
<path d="M76.0251 551.155C74.1006 551.155 72.5405 552.714 72.5405 554.637C72.5405 556.56 74.1006 558.119 76.0251 558.119C77.9496 558.119 79.5098 556.56 79.5098 554.637C79.5098 552.714 77.9496 551.155 76.0251 551.155Z" fill="#F7F7F7"/>
<path d="M63.6739 629.032C62.7991 629.032 62.09 629.741 62.09 630.615C62.09 631.49 62.7991 632.198 63.6739 632.198C64.5487 632.198 65.2578 631.49 65.2578 630.615C65.2578 629.741 64.5487 629.032 63.6739 629.032Z" fill="#F7F7F7"/>
<path d="M57.0169 609.403C55.7922 609.403 54.7994 610.395 54.7994 611.619C54.7994 612.843 55.7922 613.835 57.0169 613.835C58.2416 613.835 59.2344 612.843 59.2344 611.619C59.2344 610.395 58.2416 609.403 57.0169 609.403Z" fill="#F7F7F7"/>
<path d="M50.3594 591.043C49.4847 591.043 48.7755 591.752 48.7755 592.626C48.7755 593.5 49.4847 594.209 50.3594 594.209C51.2342 594.209 51.9434 593.5 51.9434 592.626C51.9434 591.752 51.2342 591.043 50.3594 591.043Z" fill="#F7F7F7"/>
<path d="M63.6735 571.731C62.6238 571.731 61.7728 572.582 61.7728 573.631C61.7728 574.68 62.6238 575.53 63.6735 575.53C64.7232 575.53 65.5742 574.68 65.5742 573.631C65.5742 572.582 64.7232 571.731 63.6735 571.731Z" fill="#F7F7F7"/>
<path d="M57.0161 551.788C55.4415 551.788 54.165 553.064 54.165 554.637C54.165 556.211 55.4415 557.486 57.0161 557.486C58.5907 557.486 59.8672 556.211 59.8672 554.637C59.8672 553.064 58.5907 551.788 57.0161 551.788Z" fill="#F7F7F7"/>
<path d="M-0.00319839 556.853C1.2215 556.853 2.21431 555.861 2.21431 554.637C2.21431 553.413 1.2215 552.421 -0.00319839 552.421C-1.22789 552.421 -2.2207 553.413 -2.2207 554.637C-2.2207 555.861 -1.22789 556.853 -0.00319839 556.853Z" fill="#F7F7F7"/>
<path d="M6.65223 576.796C8.40178 576.796 9.82008 575.379 9.82008 573.631C9.82008 571.882 8.40178 570.465 6.65223 570.465C4.90267 570.465 3.48438 571.882 3.48438 573.631C3.48438 575.379 4.90267 576.796 6.65223 576.796Z" fill="#F7F7F7"/>
<path d="M-0.00439906 614.47C1.5702 614.47 2.84667 613.194 2.84667 611.621C2.84667 610.047 1.5702 608.771 -0.00439906 608.771C-1.579 608.771 -2.85547 610.047 -2.85547 611.621C-2.85547 613.194 -1.579 614.47 -0.00439906 614.47Z" fill="#F7F7F7"/>
<path d="M6.6511 632.831C7.87579 632.831 8.8686 631.839 8.8686 630.615C8.8686 629.392 7.87579 628.399 6.6511 628.399C5.4264 628.399 4.43359 629.392 4.43359 630.615C4.43359 631.839 5.4264 632.831 6.6511 632.831Z" fill="#F7F7F7"/>
<path d="M12.3464 537.859C13.5711 537.859 14.5639 536.867 14.5639 535.643C14.5639 534.419 13.5711 533.427 12.3464 533.427C11.1217 533.427 10.1289 534.419 10.1289 535.643C10.1289 536.867 11.1217 537.859 12.3464 537.859Z" fill="#F7F7F7"/>
<path d="M19.0018 557.802C20.7514 557.802 22.1697 556.385 22.1697 554.636C22.1697 552.888 20.7514 551.471 19.0018 551.471C17.2523 551.471 15.834 552.888 15.834 554.636C15.834 556.385 17.2523 557.802 19.0018 557.802Z" fill="#F7F7F7"/>
<path d="M25.6589 575.848C26.8836 575.848 27.8764 574.856 27.8764 573.632C27.8764 572.408 26.8836 571.416 25.6589 571.416C24.4342 571.416 23.4414 572.408 23.4414 573.632C23.4414 574.856 24.4342 575.848 25.6589 575.848Z" fill="#F7F7F7"/>
<path d="M12.3464 596.424C14.4458 596.424 16.1478 594.723 16.1478 592.625C16.1478 590.527 14.4458 588.826 12.3464 588.826C10.2469 588.826 8.54492 590.527 8.54492 592.625C8.54492 594.723 10.2469 596.424 12.3464 596.424Z" fill="#F7F7F7"/>
<path d="M19.0023 613.521C20.052 613.521 20.903 612.67 20.903 611.621C20.903 610.572 20.052 609.722 19.0023 609.722C17.9525 609.722 17.1016 610.572 17.1016 611.621C17.1016 612.67 17.9525 613.521 19.0023 613.521Z" fill="#F7F7F7"/>
<path d="M25.6601 632.198C26.5349 632.198 27.244 631.489 27.244 630.615C27.244 629.741 26.5349 629.032 25.6601 629.032C24.7853 629.032 24.0762 629.741 24.0762 630.615C24.0762 631.489 24.7853 632.198 25.6601 632.198Z" fill="#F7F7F7"/>
<path d="M31.3519 537.542C32.4016 537.542 33.2526 536.692 33.2526 535.643C33.2526 534.594 32.4016 533.743 31.3519 533.743C30.3021 533.743 29.4512 534.594 29.4512 535.643C29.4512 536.692 30.3021 537.542 31.3519 537.542Z" fill="#F7F7F7"/>
<path d="M38.0109 557.17C39.4105 557.17 40.5451 556.036 40.5451 554.637C40.5451 553.238 39.4105 552.104 38.0109 552.104C36.6112 552.104 35.4766 553.238 35.4766 554.637C35.4766 556.036 36.6112 557.17 38.0109 557.17Z" fill="#F7F7F7"/>
<path d="M44.666 575.214C45.5407 575.214 46.2499 574.505 46.2499 573.631C46.2499 572.757 45.5407 572.048 44.666 572.048C43.7912 572.048 43.082 572.757 43.082 573.631C43.082 574.505 43.7912 575.214 44.666 575.214Z" fill="#F7F7F7"/>
<path d="M31.3523 594.841C32.577 594.841 33.5698 593.849 33.5698 592.625C33.5698 591.401 32.577 590.409 31.3523 590.409C30.1276 590.409 29.1348 591.401 29.1348 592.625C29.1348 593.849 30.1276 594.841 31.3523 594.841Z" fill="#F7F7F7"/>
<path d="M38.0097 613.202C38.8845 613.202 39.5936 612.493 39.5936 611.619C39.5936 610.745 38.8845 610.036 38.0097 610.036C37.1349 610.036 36.4258 610.745 36.4258 611.619C36.4258 612.493 37.1349 613.202 38.0097 613.202Z" fill="#F7F7F7"/>
<path d="M44.6663 632.513C45.7161 632.513 46.567 631.662 46.567 630.613C46.567 629.564 45.7161 628.714 44.6663 628.714C43.6166 628.714 42.7656 629.564 42.7656 630.613C42.7656 631.662 43.6166 632.513 44.6663 632.513Z" fill="#F7F7F7"/>
<path d="M-0.00439906 44.6368C1.5702 44.6368 2.84667 43.3612 2.84667 41.7876C2.84667 40.2141 1.5702 38.9385 -0.00439906 38.9385C-1.579 38.9385 -2.85547 40.2141 -2.85547 41.7876C-2.85547 43.3612 -1.579 44.6368 -0.00439906 44.6368Z" fill="#F7F7F7"/>
<path d="M6.6511 62.9985C7.87579 62.9985 8.8686 62.0063 8.8686 60.7824C8.8686 59.5586 7.87579 58.5664 6.6511 58.5664C5.4264 58.5664 4.43359 59.5586 4.43359 60.7824C4.43359 62.0063 5.4264 62.9985 6.6511 62.9985Z" fill="#F7F7F7"/>
<path d="M-0.00477505 101.303C1.39487 101.303 2.52951 100.17 2.52951 98.7709C2.52951 97.3722 1.39487 96.2383 -0.00477505 96.2383C-1.40442 96.2383 -2.53906 97.3722 -2.53906 98.7709C-2.53906 100.17 -1.40442 101.303 -0.00477505 101.303Z" fill="#F7F7F7"/>
<path d="M6.65266 119.665C7.70239 119.665 8.55337 118.815 8.55337 117.766C8.55337 116.717 7.70239 115.866 6.65266 115.866C5.60293 115.866 4.75195 116.717 4.75195 117.766C4.75195 118.815 5.60293 119.665 6.65266 119.665Z" fill="#F7F7F7"/>
<path d="M19.0023 43.6866C20.052 43.6866 20.903 42.8362 20.903 41.7871C20.903 40.7381 20.052 39.8877 19.0023 39.8877C17.9525 39.8877 17.1016 40.7381 17.1016 41.7871C17.1016 42.8362 17.9525 43.6866 19.0023 43.6866Z" fill="#F7F7F7"/>
<path d="M25.6601 62.365C26.5349 62.365 27.244 61.6563 27.244 60.7821C27.244 59.9079 26.5349 59.1992 25.6601 59.1992C24.7853 59.1992 24.0762 59.9079 24.0762 60.7821C24.0762 61.6563 24.7853 62.365 25.6601 62.365Z" fill="#F7F7F7"/>
<path d="M12.346 83.2595C14.2705 83.2595 15.8306 81.7004 15.8306 79.7772C15.8306 77.854 14.2705 76.2949 12.346 76.2949C10.4215 76.2949 8.86133 77.854 8.86133 79.7772C8.86133 81.7004 10.4215 83.2595 12.346 83.2595Z" fill="#F7F7F7"/>
<path d="M19.0034 101.62C20.578 101.62 21.8545 100.345 21.8545 98.771C21.8545 97.1975 20.578 95.9219 19.0034 95.9219C17.4288 95.9219 16.1523 97.1975 16.1523 98.771C16.1523 100.345 17.4288 101.62 19.0034 101.62Z" fill="#F7F7F7"/>
<path d="M25.6597 120.614C27.2343 120.614 28.5107 119.339 28.5107 117.765C28.5107 116.192 27.2343 114.916 25.6597 114.916C24.0851 114.916 22.8086 116.192 22.8086 117.765C22.8086 119.339 24.0851 120.614 25.6597 120.614Z" fill="#F7F7F7"/>
<path d="M38.0097 43.3708C38.8845 43.3708 39.5936 42.6621 39.5936 41.7879C39.5936 40.9138 38.8845 40.2051 38.0097 40.2051C37.1349 40.2051 36.4258 40.9138 36.4258 41.7879C36.4258 42.6621 37.1349 43.3708 38.0097 43.3708Z" fill="#F7F7F7"/>
<path d="M44.6663 62.6817C45.7161 62.6817 46.567 61.8313 46.567 60.7822C46.567 59.7332 45.7161 58.8828 44.6663 58.8828C43.6166 58.8828 42.7656 59.7332 42.7656 60.7822C42.7656 61.8313 43.6166 62.6817 44.6663 62.6817Z" fill="#F7F7F7"/>
<path d="M31.353 82.6261C32.9276 82.6261 34.2041 81.3504 34.2041 79.7769C34.2041 78.2034 32.9276 76.9277 31.353 76.9277C29.7784 76.9277 28.502 78.2034 28.502 79.7769C28.502 81.3504 29.7784 82.6261 31.353 82.6261Z" fill="#F7F7F7"/>
<path d="M38.0105 100.987C39.2352 100.987 40.228 99.9946 40.228 98.7707C40.228 97.5468 39.2352 96.5547 38.0105 96.5547C36.7858 96.5547 35.793 97.5468 35.793 98.7707C35.793 99.9946 36.7858 100.987 38.0105 100.987Z" fill="#F7F7F7"/>
<path d="M44.6667 121.565C46.7661 121.565 48.4681 119.864 48.4681 117.766C48.4681 115.668 46.7661 113.967 44.6667 113.967C42.5672 113.967 40.8652 115.668 40.8652 117.766C40.8652 119.864 42.5672 121.565 44.6667 121.565Z" fill="#F7F7F7"/>
<path d="M221.425 77.2444C220.025 77.2444 218.89 78.3783 218.89 79.777C218.89 81.1757 220.025 82.3096 221.425 82.3096C222.824 82.3096 223.959 81.1757 223.959 79.777C223.959 78.3783 222.824 77.2444 221.425 77.2444Z" fill="#F7F7F7"/>
<path d="M234.737 57.9325C233.162 57.9325 231.886 59.2082 231.886 60.7817C231.886 62.3552 233.162 63.6309 234.737 63.6309C236.311 63.6309 237.588 62.3552 237.588 60.7817C237.588 59.2082 236.311 57.9325 234.737 57.9325Z" fill="#F7F7F7"/>
<path d="M209.074 97.1878C208.2 97.1878 207.49 97.8965 207.49 98.7707C207.49 99.6448 208.2 100.354 209.074 100.354C209.949 100.354 210.658 99.6448 210.658 98.7707C210.658 97.8965 209.949 97.1878 209.074 97.1878Z" fill="#F7F7F7"/>
<path d="M202.417 77.2444C201.017 77.2444 199.883 78.3783 199.883 79.777C199.883 81.1757 201.017 82.3096 202.417 82.3096C203.817 82.3096 204.951 81.1757 204.951 79.777C204.951 78.3783 203.817 77.2444 202.417 77.2444Z" fill="#F7F7F7"/>
<path d="M215.731 59.2005C214.856 59.2005 214.147 59.9092 214.147 60.7833C214.147 61.6575 214.856 62.3662 215.731 62.3662C216.605 62.3662 217.314 61.6575 217.314 60.7833C217.314 59.9092 216.605 59.2005 215.731 59.2005Z" fill="#F7F7F7"/>
<path d="M190.067 95.9228C188.492 95.9228 187.216 97.1984 187.216 98.7719C187.216 100.345 188.492 101.621 190.067 101.621C191.641 101.621 192.918 100.345 192.918 98.7719C192.918 97.1984 191.641 95.9228 190.067 95.9228Z" fill="#F7F7F7"/>
<path d="M183.41 78.1936C182.535 78.1936 181.826 78.9023 181.826 79.7765C181.826 80.6507 182.535 81.3594 183.41 81.3594C184.285 81.3594 184.994 80.6507 184.994 79.7765C184.994 78.9023 184.285 78.1936 183.41 78.1936Z" fill="#F7F7F7"/>
<path d="M196.724 58.566C195.499 58.566 194.506 59.5581 194.506 60.782C194.506 62.0059 195.499 62.998 196.724 62.998C197.949 62.998 198.941 62.0059 198.941 60.782C198.941 59.5581 197.949 58.566 196.724 58.566Z" fill="#F7F7F7"/>
<path d="M177.716 115.549C176.491 115.549 175.499 116.542 175.499 117.765C175.499 118.989 176.491 119.981 177.716 119.981C178.941 119.981 179.934 118.989 179.934 117.765C179.934 116.542 178.941 115.549 177.716 115.549Z" fill="#F7F7F7"/>
<path d="M171.06 96.5553C169.835 96.5553 168.842 97.5474 168.842 98.7713C168.842 99.9951 169.835 100.987 171.06 100.987C172.285 100.987 173.277 99.9951 173.277 98.7713C173.277 97.5474 172.285 96.5553 171.06 96.5553Z" fill="#F7F7F7"/>
<path d="M164.402 75.9774C162.302 75.9774 160.6 77.6782 160.6 79.7763C160.6 81.8744 162.302 83.5752 164.402 83.5752C166.501 83.5752 168.203 81.8744 168.203 79.7763C168.203 77.6782 166.501 75.9774 164.402 75.9774Z" fill="#F7F7F7"/>
<path d="M177.716 58.566C176.491 58.566 175.499 59.5581 175.499 60.782C175.499 62.0059 176.491 62.998 177.716 62.998C178.941 62.998 179.934 62.0059 179.934 60.782C179.934 59.5581 178.941 58.566 177.716 58.566Z" fill="#F7F7F7"/>
<path d="M158.709 116.183C157.834 116.183 157.125 116.892 157.125 117.766C157.125 118.64 157.834 119.349 158.709 119.349C159.584 119.349 160.293 118.64 160.293 117.766C160.293 116.892 159.584 116.183 158.709 116.183Z" fill="#F7F7F7"/>
<path d="M152.053 95.9228C150.479 95.9228 149.202 97.1984 149.202 98.7719C149.202 100.345 150.479 101.621 152.053 101.621C153.628 101.621 154.904 100.345 154.904 98.7719C154.904 97.1984 153.628 95.9228 152.053 95.9228Z" fill="#F7F7F7"/>
<path d="M145.395 77.2444C143.996 77.2444 142.861 78.3783 142.861 79.777C142.861 81.1757 143.996 82.3096 145.395 82.3096C146.795 82.3096 147.93 81.1757 147.93 79.777C147.93 78.3783 146.795 77.2444 145.395 77.2444Z" fill="#F7F7F7"/>
<path d="M158.709 57.9325C157.135 57.9325 155.858 59.2082 155.858 60.7817C155.858 62.3552 157.135 63.6309 158.709 63.6309C160.284 63.6309 161.561 62.3552 161.561 60.7817C161.561 59.2082 160.284 57.9325 158.709 57.9325Z" fill="#F7F7F7"/>
<path d="M139.702 115.549C138.478 115.549 137.485 116.542 137.485 117.765C137.485 118.989 138.478 119.981 139.702 119.981C140.927 119.981 141.92 118.989 141.92 117.765C141.92 116.542 140.927 115.549 139.702 115.549Z" fill="#F7F7F7"/>
<path d="M133.045 95.9228C131.471 95.9228 130.194 97.1984 130.194 98.7719C130.194 100.345 131.471 101.621 133.045 101.621C134.62 101.621 135.896 100.345 135.896 98.7719C135.896 97.1984 134.62 95.9228 133.045 95.9228Z" fill="#F7F7F7"/>
<path d="M126.389 76.6109C124.639 76.6109 123.221 78.0283 123.221 79.7767C123.221 81.525 124.639 82.9424 126.389 82.9424C128.138 82.9424 129.557 81.525 129.557 79.7767C129.557 78.0283 128.138 76.6109 126.389 76.6109Z" fill="#F7F7F7"/>
<path d="M139.702 58.566C138.478 58.566 137.485 59.5581 137.485 60.782C137.485 62.0059 138.478 62.998 139.702 62.998C140.927 62.998 141.92 62.0059 141.92 60.782C141.92 59.5581 140.927 58.566 139.702 58.566Z" fill="#F7F7F7"/>
<path d="M120.695 115.549C119.47 115.549 118.477 116.542 118.477 117.765C118.477 118.989 119.47 119.981 120.695 119.981C121.919 119.981 122.912 118.989 122.912 117.765C122.912 116.542 121.919 115.549 120.695 115.549Z" fill="#F7F7F7"/>
<path d="M114.039 96.872C112.989 96.872 112.138 97.7224 112.138 98.7715C112.138 99.8205 112.989 100.671 114.039 100.671C115.088 100.671 115.939 99.8205 115.939 98.7715C115.939 97.7224 115.088 96.872 114.039 96.872Z" fill="#F7F7F7"/>
<path d="M107.381 77.8769C106.331 77.8769 105.48 78.7273 105.48 79.7763C105.48 80.8254 106.331 81.6758 107.381 81.6758C108.43 81.6758 109.281 80.8254 109.281 79.7763C109.281 78.7273 108.43 77.8769 107.381 77.8769Z" fill="#F7F7F7"/>
<path d="M120.696 57.9325C119.121 57.9325 117.845 59.2082 117.845 60.7817C117.845 62.3552 119.121 63.6309 120.696 63.6309C122.27 63.6309 123.547 62.3552 123.547 60.7817C123.547 59.2082 122.27 57.9325 120.696 57.9325Z" fill="#F7F7F7"/>
<path d="M101.687 113.967C99.5874 113.967 97.8854 115.667 97.8854 117.766C97.8854 119.864 99.5874 121.564 101.687 121.564C103.786 121.564 105.488 119.864 105.488 117.766C105.488 115.667 103.786 113.967 101.687 113.967Z" fill="#F7F7F7"/>
<path d="M95.0305 96.5553C93.8058 96.5553 92.813 97.5474 92.813 98.7713C92.813 99.9951 93.8058 100.987 95.0305 100.987C96.2552 100.987 97.248 99.9951 97.248 98.7713C97.248 97.5474 96.2552 96.5553 95.0305 96.5553Z" fill="#F7F7F7"/>
<path d="M88.3743 77.5601C87.1496 77.5601 86.1568 78.5523 86.1568 79.7762C86.1568 81 87.1496 81.9922 88.3743 81.9922C89.599 81.9922 90.5918 81 90.5918 79.7762C90.5918 78.5523 89.599 77.5601 88.3743 77.5601Z" fill="#F7F7F7"/>
<path d="M101.688 57.6168C99.9381 57.6168 98.5198 59.0341 98.5198 60.7825C98.5198 62.5309 99.9381 63.9482 101.688 63.9482C103.437 63.9482 104.855 62.5309 104.855 60.7825C104.855 59.0341 103.437 57.6168 101.688 57.6168Z" fill="#F7F7F7"/>
<path d="M95.0305 39.5719C93.8058 39.5719 92.813 40.564 92.813 41.7879C92.813 43.0118 93.8058 44.0039 95.0305 44.0039C96.2552 44.0039 97.248 43.0118 97.248 41.7879C97.248 40.564 96.2552 39.5719 95.0305 39.5719Z" fill="#F7F7F7"/>
<path d="M82.6802 114.917C81.1056 114.917 79.8291 116.193 79.8291 117.766C79.8291 119.34 81.1056 120.615 82.6802 120.615C84.2548 120.615 85.5312 119.34 85.5312 117.766C85.5312 116.193 84.2548 114.917 82.6802 114.917Z" fill="#F7F7F7"/>
<path d="M76.0247 96.5553C74.8 96.5553 73.8072 97.5474 73.8072 98.7713C73.8072 99.9951 74.8 100.987 76.0247 100.987C77.2494 100.987 78.2422 99.9951 78.2422 98.7713C78.2422 97.5474 77.2494 96.5553 76.0247 96.5553Z" fill="#F7F7F7"/>
<path d="M69.3673 76.6109C67.6177 76.6109 66.1995 78.0283 66.1995 79.7767C66.1995 81.525 67.6177 82.9424 69.3673 82.9424C71.1169 82.9424 72.5352 81.525 72.5352 79.7767C72.5352 78.0283 71.1169 76.6109 69.3673 76.6109Z" fill="#F7F7F7"/>
<path d="M82.6809 58.566C81.4562 58.566 80.4634 59.5581 80.4634 60.782C80.4634 62.0059 81.4562 62.998 82.6809 62.998C83.9056 62.998 84.8984 62.0059 84.8984 60.782C84.8984 59.5581 83.9056 58.566 82.6809 58.566Z" fill="#F7F7F7"/>
<path d="M76.0247 37.9891C73.9253 37.9891 72.2233 39.69 72.2233 41.788C72.2233 43.8861 73.9253 45.5869 76.0247 45.5869C78.1242 45.5869 79.8262 43.8861 79.8262 41.788C79.8262 39.69 78.1242 37.9891 76.0247 37.9891Z" fill="#F7F7F7"/>
<path d="M63.6739 116.183C62.7991 116.183 62.09 116.892 62.09 117.766C62.09 118.64 62.7991 119.349 63.6739 119.349C64.5487 119.349 65.2578 118.64 65.2578 117.766C65.2578 116.892 64.5487 116.183 63.6739 116.183Z" fill="#F7F7F7"/>
<path d="M57.0173 96.872C55.9675 96.872 55.1166 97.7224 55.1166 98.7715C55.1166 99.8205 55.9675 100.671 57.0173 100.671C58.067 100.671 58.918 99.8205 58.918 98.7715C58.918 97.7224 58.067 96.872 57.0173 96.872Z" fill="#F7F7F7"/>
<path d="M50.3602 77.2444C48.9606 77.2444 47.826 78.3783 47.826 79.777C47.826 81.1757 48.9606 82.3096 50.3602 82.3096C51.7599 82.3096 52.8945 81.1757 52.8945 79.777C52.8945 78.3783 51.7599 77.2444 50.3602 77.2444Z" fill="#F7F7F7"/>
<path d="M63.6739 59.2005C62.7991 59.2005 62.09 59.9092 62.09 60.7833C62.09 61.6575 62.7991 62.3662 63.6739 62.3662C64.5487 62.3662 65.2578 61.6575 65.2578 60.7833C65.2578 59.9092 64.5487 59.2005 63.6739 59.2005Z" fill="#F7F7F7"/>
<path d="M57.0169 39.5719C55.7922 39.5719 54.7994 40.564 54.7994 41.7879C54.7994 43.0118 55.7922 44.0039 57.0169 44.0039C58.2416 44.0039 59.2344 43.0118 59.2344 41.7879C59.2344 40.564 58.2416 39.5719 57.0169 39.5719Z" fill="#F7F7F7"/>
<path d="M221.424 247.879C219.85 247.879 218.573 249.154 218.573 250.728C218.573 252.302 219.85 253.577 221.424 253.577C222.999 253.577 224.275 252.302 224.275 250.728C224.275 249.154 222.999 247.879 221.424 247.879Z" fill="#F7F7F7"/>
<path d="M234.736 228.566C232.987 228.566 231.569 229.983 231.569 231.732C231.569 233.48 232.987 234.897 234.736 234.897C236.486 234.897 237.904 233.48 237.904 231.732C237.904 229.983 236.486 228.566 234.736 228.566Z" fill="#F7F7F7"/>
<path d="M202.418 249.144C201.543 249.144 200.834 249.853 200.834 250.727C200.834 251.601 201.543 252.31 202.418 252.31C203.293 252.31 204.002 251.601 204.002 250.727C204.002 249.853 203.293 249.144 202.418 249.144Z" fill="#F7F7F7"/>
<path d="M215.73 229.833C214.68 229.833 213.829 230.683 213.829 231.732C213.829 232.781 214.68 233.632 215.73 233.632C216.78 233.632 217.631 232.781 217.631 231.732C217.631 230.683 216.78 229.833 215.73 229.833Z" fill="#F7F7F7"/>
<path d="M202.417 191.211C201.017 191.211 199.883 192.345 199.883 193.744C199.883 195.142 201.017 196.276 202.417 196.276C203.817 196.276 204.951 195.142 204.951 193.744C204.951 192.345 203.817 191.211 202.417 191.211Z" fill="#F7F7F7"/>
<path d="M183.411 248.51C182.187 248.51 181.194 249.502 181.194 250.726C181.194 251.95 182.187 252.942 183.411 252.942C184.636 252.942 185.629 251.95 185.629 250.726C185.629 249.502 184.636 248.51 183.411 248.51Z" fill="#F7F7F7"/>
<path d="M196.723 228.566C194.973 228.566 193.555 229.983 193.555 231.732C193.555 233.48 194.973 234.897 196.723 234.897C198.472 234.897 199.891 233.48 199.891 231.732C199.891 229.983 198.472 228.566 196.723 228.566Z" fill="#F7F7F7"/>
<path d="M190.068 210.522C188.843 210.522 187.85 211.514 187.85 212.738C187.85 213.962 188.843 214.954 190.068 214.954C191.292 214.954 192.285 213.962 192.285 212.738C192.285 211.514 191.292 210.522 190.068 210.522Z" fill="#F7F7F7"/>
<path d="M183.41 189.945C181.31 189.945 179.608 191.646 179.608 193.744C179.608 195.842 181.31 197.543 183.41 197.543C185.509 197.543 187.211 195.842 187.211 193.744C187.211 191.646 185.509 189.945 183.41 189.945Z" fill="#F7F7F7"/>
<path d="M196.724 172.217C195.324 172.217 194.189 173.351 194.189 174.75C194.189 176.148 195.324 177.282 196.724 177.282C198.123 177.282 199.258 176.148 199.258 174.75C199.258 173.351 198.123 172.217 196.724 172.217Z" fill="#F7F7F7"/>
<path d="M164.402 248.51C163.177 248.51 162.184 249.502 162.184 250.726C162.184 251.95 163.177 252.942 164.402 252.942C165.626 252.942 166.619 251.95 166.619 250.726C166.619 249.502 165.626 248.51 164.402 248.51Z" fill="#F7F7F7"/>
<path d="M177.716 229.199C176.316 229.199 175.181 230.333 175.181 231.732C175.181 233.131 176.316 234.265 177.716 234.265C179.115 234.265 180.25 233.131 180.25 231.732C180.25 230.333 179.115 229.199 177.716 229.199Z" fill="#F7F7F7"/>
<path d="M171.058 210.839C170.009 210.839 169.158 211.689 169.158 212.738C169.158 213.787 170.009 214.638 171.058 214.638C172.108 214.638 172.959 213.787 172.959 212.738C172.959 211.689 172.108 210.839 171.058 210.839Z" fill="#F7F7F7"/>
<path d="M164.403 190.894C162.828 190.894 161.552 192.17 161.552 193.744C161.552 195.317 162.828 196.593 164.403 196.593C165.977 196.593 167.254 195.317 167.254 193.744C167.254 192.17 165.977 190.894 164.403 190.894Z" fill="#F7F7F7"/>
<path d="M177.716 172.217C176.316 172.217 175.181 173.351 175.181 174.75C175.181 176.148 176.316 177.282 177.716 177.282C179.115 177.282 180.25 176.148 180.25 174.75C180.25 173.351 179.115 172.217 177.716 172.217Z" fill="#F7F7F7"/>
<path d="M164.403 134.228C163.004 134.228 161.869 135.362 161.869 136.76C161.869 138.159 163.004 139.293 164.403 139.293C165.803 139.293 166.938 138.159 166.938 136.76C166.938 135.362 165.803 134.228 164.403 134.228Z" fill="#F7F7F7"/>
<path d="M145.395 247.879C143.82 247.879 142.544 249.154 142.544 250.728C142.544 252.302 143.82 253.577 145.395 253.577C146.97 253.577 148.246 252.302 148.246 250.728C148.246 249.154 146.97 247.879 145.395 247.879Z" fill="#F7F7F7"/>
<path d="M158.709 229.833C157.659 229.833 156.808 230.683 156.808 231.732C156.808 232.781 157.659 233.632 158.709 233.632C159.758 233.632 160.609 232.781 160.609 231.732C160.609 230.683 159.758 229.833 158.709 229.833Z" fill="#F7F7F7"/>
<path d="M152.051 211.155C151.176 211.155 150.467 211.863 150.467 212.737C150.467 213.612 151.176 214.32 152.051 214.32C152.926 214.32 153.635 213.612 153.635 212.737C153.635 211.863 152.926 211.155 152.051 211.155Z" fill="#F7F7F7"/>
<path d="M145.396 191.526C144.171 191.526 143.178 192.518 143.178 193.742C143.178 194.966 144.171 195.958 145.396 195.958C146.62 195.958 147.613 194.966 147.613 193.742C147.613 192.518 146.62 191.526 145.396 191.526Z" fill="#F7F7F7"/>
<path d="M158.709 172.85C157.659 172.85 156.808 173.7 156.808 174.749C156.808 175.798 157.659 176.648 158.709 176.648C159.758 176.648 160.609 175.798 160.609 174.749C160.609 173.7 159.758 172.85 158.709 172.85Z" fill="#F7F7F7"/>
<path d="M152.053 152.904C150.479 152.904 149.202 154.18 149.202 155.753C149.202 157.327 150.479 158.603 152.053 158.603C153.628 158.603 154.904 157.327 154.904 155.753C154.904 154.18 153.628 152.904 152.053 152.904Z" fill="#F7F7F7"/>
<path d="M145.396 133.278C143.472 133.278 141.912 134.837 141.912 136.76C141.912 138.683 143.472 140.242 145.396 140.242C147.321 140.242 148.881 138.683 148.881 136.76C148.881 134.837 147.321 133.278 145.396 133.278Z" fill="#F7F7F7"/>
<path d="M126.39 248.51C125.165 248.51 124.172 249.502 124.172 250.726C124.172 251.95 125.165 252.942 126.39 252.942C127.615 252.942 128.607 251.95 128.607 250.726C128.607 249.502 127.615 248.51 126.39 248.51Z" fill="#F7F7F7"/>
<path d="M139.702 229.516C138.478 229.516 137.485 230.508 137.485 231.732C137.485 232.956 138.478 233.948 139.702 233.948C140.927 233.948 141.92 232.956 141.92 231.732C141.92 230.508 140.927 229.516 139.702 229.516Z" fill="#F7F7F7"/>
<path d="M133.046 210.205C131.646 210.205 130.512 211.339 130.512 212.738C130.512 214.137 131.646 215.271 133.046 215.271C134.445 215.271 135.58 214.137 135.58 212.738C135.58 211.339 134.445 210.205 133.046 210.205Z" fill="#F7F7F7"/>
<path d="M126.39 191.211C124.99 191.211 123.855 192.345 123.855 193.744C123.855 195.142 124.99 196.276 126.39 196.276C127.789 196.276 128.924 195.142 128.924 193.744C128.924 192.345 127.789 191.211 126.39 191.211Z" fill="#F7F7F7"/>
<path d="M139.702 172.217C138.302 172.217 137.168 173.351 137.168 174.75C137.168 176.148 138.302 177.282 139.702 177.282C141.102 177.282 142.236 176.148 142.236 174.75C142.236 173.351 141.102 172.217 139.702 172.217Z" fill="#F7F7F7"/>
<path d="M133.045 153.855C131.995 153.855 131.144 154.706 131.144 155.755C131.144 156.804 131.995 157.654 133.045 157.654C134.094 157.654 134.945 156.804 134.945 155.755C134.945 154.706 134.094 153.855 133.045 153.855Z" fill="#F7F7F7"/>
<path d="M126.388 134.86C125.339 134.86 124.488 135.711 124.488 136.76C124.488 137.809 125.339 138.659 126.388 138.659C127.438 138.659 128.289 137.809 128.289 136.76C128.289 135.711 127.438 134.86 126.388 134.86Z" fill="#F7F7F7"/>
<path d="M114.039 267.821C112.989 267.821 112.138 268.672 112.138 269.721C112.138 270.77 112.989 271.62 114.039 271.62C115.088 271.62 115.939 270.77 115.939 269.721C115.939 268.672 115.088 267.821 114.039 267.821Z" fill="#F7F7F7"/>
<path d="M107.381 247.879C105.807 247.879 104.53 249.154 104.53 250.728C104.53 252.302 105.807 253.577 107.381 253.577C108.956 253.577 110.232 252.302 110.232 250.728C110.232 249.154 108.956 247.879 107.381 247.879Z" fill="#F7F7F7"/>
<path d="M120.695 230.149C119.821 230.149 119.111 230.857 119.111 231.732C119.111 232.606 119.821 233.314 120.695 233.314C121.57 233.314 122.279 232.606 122.279 231.732C122.279 230.857 121.57 230.149 120.695 230.149Z" fill="#F7F7F7"/>
<path d="M114.038 210.205C112.638 210.205 111.504 211.339 111.504 212.738C111.504 214.137 112.638 215.271 114.038 215.271C115.438 215.271 116.572 214.137 116.572 212.738C116.572 211.339 115.438 210.205 114.038 210.205Z" fill="#F7F7F7"/>
<path d="M107.381 190.894C105.807 190.894 104.53 192.17 104.53 193.744C104.53 195.317 105.807 196.593 107.381 196.593C108.956 196.593 110.232 195.317 110.232 193.744C110.232 192.17 108.956 190.894 107.381 190.894Z" fill="#F7F7F7"/>
<path d="M120.695 172.85C119.645 172.85 118.794 173.7 118.794 174.749C118.794 175.798 119.645 176.648 120.695 176.648C121.745 176.648 122.596 175.798 122.596 174.749C122.596 173.7 121.745 172.85 120.695 172.85Z" fill="#F7F7F7"/>
<path d="M114.038 153.54C112.814 153.54 111.821 154.532 111.821 155.756C111.821 156.98 112.814 157.972 114.038 157.972C115.263 157.972 116.256 156.98 116.256 155.756C116.256 154.532 115.263 153.54 114.038 153.54Z" fill="#F7F7F7"/>
<path d="M107.382 134.545C106.157 134.545 105.165 135.537 105.165 136.761C105.165 137.984 106.157 138.977 107.382 138.977C108.607 138.977 109.6 137.984 109.6 136.761C109.6 135.537 108.607 134.545 107.382 134.545Z" fill="#F7F7F7"/>
<path d="M95.0305 267.504C93.8058 267.504 92.813 268.497 92.813 269.721C92.813 270.944 93.8058 271.937 95.0305 271.937C96.2552 271.937 97.248 270.944 97.248 269.721C97.248 268.497 96.2552 267.504 95.0305 267.504Z" fill="#F7F7F7"/>
<path d="M88.3751 247.56C86.6256 247.56 85.2073 248.977 85.2073 250.726C85.2073 252.474 86.6256 253.892 88.3751 253.892C90.1247 253.892 91.543 252.474 91.543 250.726C91.543 248.977 90.1247 247.56 88.3751 247.56Z" fill="#F7F7F7"/>
<path d="M101.689 229.516C100.464 229.516 99.4712 230.508 99.4712 231.732C99.4712 232.956 100.464 233.948 101.689 233.948C102.913 233.948 103.906 232.956 103.906 231.732C103.906 230.508 102.913 229.516 101.689 229.516Z" fill="#F7F7F7"/>
<path d="M95.0318 209.889C93.4571 209.889 92.1807 211.164 92.1807 212.738C92.1807 214.311 93.4571 215.587 95.0318 215.587C96.6064 215.587 97.8828 214.311 97.8828 212.738C97.8828 211.164 96.6064 209.889 95.0318 209.889Z" fill="#F7F7F7"/>
<path d="M88.3743 191.526C87.1496 191.526 86.1568 192.518 86.1568 193.742C86.1568 194.966 87.1496 195.958 88.3743 195.958C89.599 195.958 90.5918 194.966 90.5918 193.742C90.5918 192.518 89.599 191.526 88.3743 191.526Z" fill="#F7F7F7"/>
<path d="M101.688 172.217C100.289 172.217 99.1541 173.351 99.1541 174.75C99.1541 176.148 100.289 177.282 101.688 177.282C103.088 177.282 104.223 176.148 104.223 174.75C104.223 173.351 103.088 172.217 101.688 172.217Z" fill="#F7F7F7"/>
<path d="M95.0302 153.221C93.6305 153.221 92.4959 154.355 92.4959 155.754C92.4959 157.152 93.6305 158.286 95.0302 158.286C96.4298 158.286 97.5645 157.152 97.5645 155.754C97.5645 154.355 96.4298 153.221 95.0302 153.221Z" fill="#F7F7F7"/>
<path d="M88.3747 134.86C87.325 134.86 86.474 135.711 86.474 136.76C86.474 137.809 87.325 138.659 88.3747 138.659C89.4244 138.659 90.2754 137.809 90.2754 136.76C90.2754 135.711 89.4244 134.86 88.3747 134.86Z" fill="#F7F7F7"/>
<path d="M69.3665 248.51C68.1418 248.51 67.149 249.502 67.149 250.726C67.149 251.95 68.1418 252.942 69.3665 252.942C70.5912 252.942 71.584 251.95 71.584 250.726C71.584 249.502 70.5912 248.51 69.3665 248.51Z" fill="#F7F7F7"/>
<path d="M82.681 227.933C80.5815 227.933 78.8796 229.634 78.8796 231.732C78.8796 233.83 80.5815 235.531 82.681 235.531C84.7805 235.531 86.4824 233.83 86.4824 231.732C86.4824 229.634 84.7805 227.933 82.681 227.933Z" fill="#F7F7F7"/>
<path d="M76.0251 210.839C74.9753 210.839 74.1244 211.689 74.1244 212.738C74.1244 213.787 74.9753 214.638 76.0251 214.638C77.0748 214.638 77.9258 213.787 77.9258 212.738C77.9258 211.689 77.0748 210.839 76.0251 210.839Z" fill="#F7F7F7"/>
<path d="M69.3672 192.16C68.4925 192.16 67.7833 192.869 67.7833 193.743C67.7833 194.617 68.4925 195.326 69.3672 195.326C70.242 195.326 70.9512 194.617 70.9512 193.743C70.9512 192.869 70.242 192.16 69.3672 192.16Z" fill="#F7F7F7"/>
<path d="M82.6794 171.267C80.7549 171.267 79.1948 172.826 79.1948 174.749C79.1948 176.672 80.7549 178.231 82.6794 178.231C84.6039 178.231 86.1641 176.672 86.1641 174.749C86.1641 172.826 84.6039 171.267 82.6794 171.267Z" fill="#F7F7F7"/>
<path d="M76.0239 152.904C74.4493 152.904 73.1729 154.18 73.1729 155.753C73.1729 157.327 74.4493 158.603 76.0239 158.603C77.5985 158.603 78.875 157.327 78.875 155.753C78.875 154.18 77.5985 152.904 76.0239 152.904Z" fill="#F7F7F7"/>
<path d="M69.3677 133.911C67.7931 133.911 66.5166 135.187 66.5166 136.76C66.5166 138.334 67.7931 139.609 69.3677 139.609C70.9423 139.609 72.2188 138.334 72.2188 136.76C72.2188 135.187 70.9423 133.911 69.3677 133.911Z" fill="#F7F7F7"/>
<path d="M57.0165 267.188C55.6168 267.188 54.4822 268.322 54.4822 269.72C54.4822 271.119 55.6168 272.253 57.0165 272.253C58.4161 272.253 59.5508 271.119 59.5508 269.72C59.5508 268.322 58.4161 267.188 57.0165 267.188Z" fill="#F7F7F7"/>
<path d="M50.3594 249.144C49.4847 249.144 48.7755 249.853 48.7755 250.727C48.7755 251.601 49.4847 252.31 50.3594 252.31C51.2342 252.31 51.9434 251.601 51.9434 250.727C51.9434 249.853 51.2342 249.144 50.3594 249.144Z" fill="#F7F7F7"/>
<path d="M63.6731 229.516C62.4484 229.516 61.4556 230.508 61.4556 231.732C61.4556 232.956 62.4484 233.948 63.6731 233.948C64.8978 233.948 65.8906 232.956 65.8906 231.732C65.8906 230.508 64.8978 229.516 63.6731 229.516Z" fill="#F7F7F7"/>
<path d="M57.0176 211.155C56.1429 211.155 55.4337 211.863 55.4337 212.737C55.4337 213.612 56.1429 214.32 57.0176 214.32C57.8924 214.32 58.6016 213.612 58.6016 212.737C58.6016 211.863 57.8924 211.155 57.0176 211.155Z" fill="#F7F7F7"/>
<path d="M50.361 191.845C49.3113 191.845 48.4603 192.695 48.4603 193.744C48.4603 194.793 49.3113 195.644 50.361 195.644C51.4107 195.644 52.2617 194.793 52.2617 193.744C52.2617 192.695 51.4107 191.845 50.361 191.845Z" fill="#F7F7F7"/>
<path d="M63.6743 171.898C62.0997 171.898 60.8233 173.174 60.8233 174.748C60.8233 176.321 62.0997 177.597 63.6743 177.597C65.2489 177.597 66.5254 176.321 66.5254 174.748C66.5254 173.174 65.2489 171.898 63.6743 171.898Z" fill="#F7F7F7"/>
<path d="M57.0169 153.54C55.7922 153.54 54.7994 154.532 54.7994 155.756C54.7994 156.98 55.7922 157.972 57.0169 157.972C58.2416 157.972 59.2344 156.98 59.2344 155.756C59.2344 154.532 58.2416 153.54 57.0169 153.54Z" fill="#F7F7F7"/>
<path d="M50.3607 132.961C48.2612 132.961 46.5593 134.662 46.5593 136.76C46.5593 138.858 48.2612 140.559 50.3607 140.559C52.4602 140.559 54.1621 138.858 54.1621 136.76C54.1621 134.662 52.4602 132.961 50.3607 132.961Z" fill="#F7F7F7"/>
<path d="M-0.00319839 157.971C1.2215 157.971 2.21431 156.979 2.21431 155.755C2.21431 154.531 1.2215 153.539 -0.00319839 153.539C-1.22789 153.539 -2.2207 154.531 -2.2207 155.755C-2.2207 156.979 -1.22789 157.971 -0.00319839 157.971Z" fill="#F7F7F7"/>
<path d="M6.6511 176.965C7.87579 176.965 8.8686 175.973 8.8686 174.749C8.8686 173.525 7.87579 172.533 6.6511 172.533C5.4264 172.533 4.43359 173.525 4.43359 174.749C4.43359 175.973 5.4264 176.965 6.6511 176.965Z" fill="#F7F7F7"/>
<path d="M-0.00319839 214.954C1.2215 214.954 2.21431 213.961 2.21431 212.738C2.21431 211.514 1.2215 210.521 -0.00319839 210.521C-1.22789 210.521 -2.2207 211.514 -2.2207 212.738C-2.2207 213.961 -1.22789 214.954 -0.00319839 214.954Z" fill="#F7F7F7"/>
<path d="M6.65185 234.581C8.22645 234.581 9.50292 233.306 9.50292 231.732C9.50292 230.158 8.22645 228.883 6.65185 228.883C5.07725 228.883 3.80078 230.158 3.80078 231.732C3.80078 233.306 5.07725 234.581 6.65185 234.581Z" fill="#F7F7F7"/>
<path d="M-0.00477505 272.253C1.39487 272.253 2.52951 271.119 2.52951 269.72C2.52951 268.321 1.39487 267.188 -0.00477505 267.188C-1.40442 267.188 -2.53906 268.321 -2.53906 269.72C-2.53906 271.119 -1.40442 272.253 -0.00477505 272.253Z" fill="#F7F7F7"/>
<path d="M6.65147 291.248C8.05112 291.248 9.18576 290.114 9.18576 288.715C9.18576 287.317 8.05112 286.183 6.65147 286.183C5.25183 286.183 4.11719 287.317 4.11719 288.715C4.11719 290.114 5.25183 291.248 6.65147 291.248Z" fill="#F7F7F7"/>
<path d="M12.3452 139.609C13.9198 139.609 15.1963 138.334 15.1963 136.76C15.1963 135.187 13.9198 133.911 12.3452 133.911C10.7706 133.911 9.49414 135.187 9.49414 136.76C9.49414 138.334 10.7706 139.609 12.3452 139.609Z" fill="#F7F7F7"/>
<path d="M19.0027 157.971C20.2274 157.971 21.2202 156.979 21.2202 155.755C21.2202 154.531 20.2274 153.539 19.0027 153.539C17.778 153.539 16.7852 154.531 16.7852 155.755C16.7852 156.979 17.778 157.971 19.0027 157.971Z" fill="#F7F7F7"/>
<path d="M25.66 177.915C27.4096 177.915 28.8279 176.498 28.8279 174.75C28.8279 173.001 27.4096 171.584 25.66 171.584C23.9105 171.584 22.4922 173.001 22.4922 174.75C22.4922 176.498 23.9105 177.915 25.66 177.915Z" fill="#F7F7F7"/>
<path d="M12.3464 195.958C13.5711 195.958 14.5639 194.966 14.5639 193.742C14.5639 192.519 13.5711 191.526 12.3464 191.526C11.1217 191.526 10.1289 192.519 10.1289 193.742C10.1289 194.966 11.1217 195.958 12.3464 195.958Z" fill="#F7F7F7"/>
<path d="M19.0026 216.537C21.1021 216.537 22.804 214.836 22.804 212.738C22.804 210.64 21.1021 208.939 19.0026 208.939C16.9031 208.939 15.2012 210.64 15.2012 212.738C15.2012 214.836 16.9031 216.537 19.0026 216.537Z" fill="#F7F7F7"/>
<path d="M25.6605 233.632C26.7102 233.632 27.5612 232.781 27.5612 231.732C27.5612 230.683 26.7102 229.833 25.6605 229.833C24.6107 229.833 23.7598 230.683 23.7598 231.732C23.7598 232.781 24.6107 233.632 25.6605 233.632Z" fill="#F7F7F7"/>
<path d="M12.3456 252.309C13.2204 252.309 13.9296 251.601 13.9296 250.726C13.9296 249.852 13.2204 249.144 12.3456 249.144C11.4709 249.144 10.7617 249.852 10.7617 250.726C10.7617 251.601 11.4709 252.309 12.3456 252.309Z" fill="#F7F7F7"/>
<path d="M19.0022 273.204C20.9267 273.204 22.4868 271.645 22.4868 269.722C22.4868 267.798 20.9267 266.239 19.0022 266.239C17.0777 266.239 15.5176 267.798 15.5176 269.722C15.5176 271.645 17.0777 273.204 19.0022 273.204Z" fill="#F7F7F7"/>
<path d="M25.6597 291.564C27.2343 291.564 28.5107 290.288 28.5107 288.714C28.5107 287.141 27.2343 285.865 25.6597 285.865C24.0851 285.865 22.8086 287.141 22.8086 288.714C22.8086 290.288 24.0851 291.564 25.6597 291.564Z" fill="#F7F7F7"/>
<path d="M12.3452 310.558C13.9198 310.558 15.1963 309.282 15.1963 307.709C15.1963 306.135 13.9198 304.859 12.3452 304.859C10.7706 304.859 9.49414 306.135 9.49414 307.709C9.49414 309.282 10.7706 310.558 12.3452 310.558Z" fill="#F7F7F7"/>
<path d="M31.3535 138.343C32.2282 138.343 32.9374 137.635 32.9374 136.761C32.9374 135.886 32.2282 135.178 31.3535 135.178C30.4787 135.178 29.7695 135.886 29.7695 136.761C29.7695 137.635 30.4787 138.343 31.3535 138.343Z" fill="#F7F7F7"/>
<path d="M38.0101 157.654C39.0598 157.654 39.9108 156.804 39.9108 155.755C39.9108 154.706 39.0598 153.855 38.0101 153.855C36.9604 153.855 36.1094 154.706 36.1094 155.755C36.1094 156.804 36.9604 157.654 38.0101 157.654Z" fill="#F7F7F7"/>
<path d="M44.6671 177.282C46.0667 177.282 47.2014 176.148 47.2014 174.749C47.2014 173.351 46.0667 172.217 44.6671 172.217C43.2675 172.217 42.1328 173.351 42.1328 174.749C42.1328 176.148 43.2675 177.282 44.6671 177.282Z" fill="#F7F7F7"/>
<path d="M31.3535 195.325C32.2282 195.325 32.9374 194.616 32.9374 193.742C32.9374 192.868 32.2282 192.159 31.3535 192.159C30.4787 192.159 29.7695 192.868 29.7695 193.742C29.7695 194.616 30.4787 195.325 31.3535 195.325Z" fill="#F7F7F7"/>
<path d="M38.0105 214.954C39.2352 214.954 40.228 213.961 40.228 212.738C40.228 211.514 39.2352 210.521 38.0105 210.521C36.7858 210.521 35.793 211.514 35.793 212.738C35.793 213.961 36.7858 214.954 38.0105 214.954Z" fill="#F7F7F7"/>
<path d="M44.666 233.315C45.5407 233.315 46.2499 232.606 46.2499 231.732C46.2499 230.858 45.5407 230.149 44.666 230.149C43.7912 230.149 43.082 230.858 43.082 231.732C43.082 232.606 43.7912 233.315 44.666 233.315Z" fill="#F7F7F7"/>
<path d="M31.3519 252.626C32.4016 252.626 33.2526 251.776 33.2526 250.727C33.2526 249.678 32.4016 248.827 31.3519 248.827C30.3021 248.827 29.4512 249.678 29.4512 250.727C29.4512 251.776 30.3021 252.626 31.3519 252.626Z" fill="#F7F7F7"/>
<path d="M38.0093 272.569C39.5839 272.569 40.8603 271.294 40.8603 269.72C40.8603 268.147 39.5839 266.871 38.0093 266.871C36.4347 266.871 35.1582 268.147 35.1582 269.72C35.1582 271.294 36.4347 272.569 38.0093 272.569Z" fill="#F7F7F7"/>
</g>
</g>
<defs>
<clipPath id="clip0_2931_1504">
<rect width="239" height="635" fill="white"/>
</clipPath>
</defs>
</svg>
