<svg width="12" height="12" viewBox="0 0 12 12" fill="none" xmlns="http://www.w3.org/2000/svg">
<path d="M1.5 10.5V9.5C1.5 8.96957 1.71071 8.46086 2.08579 8.08579C2.46086 7.71071 2.96957 7.5 3.5 7.5H5.5C6.03043 7.5 6.53914 7.71071 6.91421 8.08579C7.28929 8.46086 7.5 8.96957 7.5 9.5V10.5M8 1.56494C8.43021 1.67509 8.81152 1.92529 9.08382 2.2761C9.35612 2.6269 9.50392 3.05836 9.50392 3.50244C9.50392 3.94653 9.35612 4.37798 9.08382 4.72879C8.81152 5.07959 8.43021 5.32979 8 5.43994M10.5 10.5V9.49995C10.4975 9.05853 10.349 8.63035 10.0776 8.28215C9.80631 7.93395 9.42741 7.6853 9 7.57495M2.5 3.5C2.5 4.03043 2.71071 4.53914 3.08579 4.91421C3.46086 5.28929 3.96957 5.5 4.5 5.5C5.03043 5.5 5.53914 5.28929 5.91421 4.91421C6.28929 4.53914 6.5 4.03043 6.5 3.5C6.5 2.96957 6.28929 2.46086 5.91421 2.08579C5.53914 1.71071 5.03043 1.5 4.5 1.5C3.96957 1.5 3.46086 1.71071 3.08579 2.08579C2.71071 2.46086 2.5 2.96957 2.5 3.5Z" stroke="#A6A6A8" stroke-linecap="round" stroke-linejoin="round"/>
</svg>
