<svg width="18" height="13" viewBox="0 0 18 13" fill="none" xmlns="http://www.w3.org/2000/svg">
<path d="M11.6667 4.55566L15.7138 2.53255C15.8493 2.46485 15.9998 2.43289 16.1511 2.4397C16.3024 2.44652 16.4495 2.49188 16.5783 2.57149C16.7072 2.6511 16.8135 2.76231 16.8873 2.89457C16.9611 3.02683 16.9999 3.17576 17 3.32722V9.33966C16.9999 9.49112 16.9611 9.64005 16.8873 9.77231C16.8135 9.90457 16.7072 10.0158 16.5783 10.0954C16.4495 10.175 16.3024 10.2204 16.1511 10.2272C15.9998 10.234 15.8493 10.202 15.7138 10.1343L11.6667 8.11122V4.55566Z" stroke="#181A20" stroke-width="1.5" stroke-linecap="round" stroke-linejoin="round"/>
<path d="M1 2.77778C1 2.30628 1.1873 1.8541 1.5207 1.5207C1.8541 1.1873 2.30628 1 2.77778 1H9.88889C10.3604 1 10.8126 1.1873 11.146 1.5207C11.4794 1.8541 11.6667 2.30628 11.6667 2.77778V9.88889C11.6667 10.3604 11.4794 10.8126 11.146 11.146C10.8126 11.4794 10.3604 11.6667 9.88889 11.6667H2.77778C2.30628 11.6667 1.8541 11.4794 1.5207 11.146C1.1873 10.8126 1 10.3604 1 9.88889V2.77778Z" stroke="#181A20" stroke-width="1.5" stroke-linecap="round" stroke-linejoin="round"/>
</svg>
