<svg width="800" height="800" viewBox="0 0 800 800" fill="none" xmlns="http://www.w3.org/2000/svg">
<g clip-path="url(#clip0_690_20)">
<path d="M400.002 227.931C374.31 227.931 347.565 242.951 321.741 266.929H366.932C379.185 266.929 389.198 276.809 389.198 289.195C389.198 301.447 379.317 311.46 366.932 311.46H282.875C272.862 325.032 263.245 339.655 254.02 354.938H277.209C289.462 354.938 299.475 364.818 299.475 377.203C299.475 389.456 289.595 399.469 277.209 399.469H230.438C201.449 459.683 182.609 523.717 182.609 570.225C182.609 662.846 292.095 711.331 400.132 711.331C508.169 711.331 617.524 662.583 617.524 569.96C617.524 454.019 500 227.931 400.002 227.931Z" fill="white" fill-opacity="0.13"/>
<path d="M550.198 213.834H683.531C695.784 213.834 705.797 203.953 705.797 191.568C705.797 179.315 695.916 169.302 683.531 169.302H527.93L557.048 89.46C573.65 42.161 539.79 1.31658 494.335 0H305.665C261.132 0 227.272 41.7657 242.95 89.46L278.524 187.221C166.929 277.998 93.6758 473.254 93.6758 569.962C93.6758 703.295 222.529 800.002 400 800.002C577.471 800.002 706.324 703.297 706.324 569.962C706.324 481.951 645.454 311.99 550.198 213.834ZM305.665 44.4009H494.203C511.858 45.4545 518.445 59.1563 515.152 74.1767L483.268 161.529C456.919 147.169 429.118 138.868 400 138.868C370.883 138.868 342.951 147.169 316.732 161.529L284.979 74.1767C280.499 60.3424 288.8 44.1379 305.665 44.4009ZM400 755.599C248.221 755.599 138.077 677.471 138.077 570.092C144.533 423.057 268.774 183.53 400 183.53C537.945 183.53 661.924 446.112 661.924 570.092C661.924 677.471 551.777 755.599 400 755.599Z" fill="#D7DF23"/>
<path d="M400.001 418.841C420.159 418.841 436.364 435.178 436.364 455.203C436.364 467.456 446.244 477.469 458.629 477.469C470.882 477.469 480.895 467.589 480.895 455.203C480.895 418.313 455.994 387.218 422.134 377.601V364.69C422.134 352.437 412.254 342.424 399.868 342.424C387.616 342.424 377.603 352.305 377.603 364.69V377.601C343.743 387.351 318.842 418.443 318.842 455.203C318.842 499.735 355.074 536.1 399.738 536.1C400.001 536.1 400.396 536.1 400.661 536.1C420.292 536.627 436.103 552.832 436.103 572.462C436.103 592.621 419.766 608.825 399.74 608.825C379.582 608.825 363.377 592.488 363.377 572.462C363.377 560.21 353.497 550.197 341.111 550.197C328.859 550.197 318.846 560.079 318.846 572.462C318.846 609.353 343.747 640.448 377.607 650.065V662.976C377.607 675.229 387.487 685.242 399.872 685.242C412.258 685.242 422.138 675.361 422.138 662.976V650.065C455.998 640.315 480.899 609.223 480.899 572.462C480.899 527.931 444.667 491.566 400.003 491.566C399.74 491.566 399.345 491.566 399.08 491.566C379.449 491.038 363.638 474.834 363.638 455.203C363.636 435.178 379.843 418.841 400.001 418.841Z" fill="#D7DF23"/>
</g>
<defs>
<clipPath id="clip0_690_20">
<rect width="800" height="800" fill="white"/>
</clipPath>
</defs>
</svg>
