<svg width="20" height="14" viewBox="0 0 20 14" fill="none" xmlns="http://www.w3.org/2000/svg"><path d="M9.56874 0.817182C8.89374 0.906245 8.29374 1.21093 7.77811 1.73124C7.2578 2.25156 6.94842 2.85624 6.86874 3.52187C6.82655 3.85937 6.8078 3.84531 6.72342 3.41406C6.61092 2.79999 6.11874 2.12968 5.53749 1.80624C4.05624 0.962495 2.17186 1.87187 1.88124 3.56874C1.76874 4.23437 1.99842 5.04062 2.44374 5.55156L2.63124 5.76249L2.40624 5.84218C1.64686 6.10937 0.915611 6.94374 0.699986 7.77812C0.601549 8.15312 0.592174 9.89218 0.681236 10.0141C0.760924 10.1125 1.52499 10.4687 2.00311 10.6281C2.35936 10.7453 3.20311 10.9375 3.36717 10.9375C3.50311 10.9375 3.71874 10.6797 3.71874 10.5156C3.71874 10.2906 3.55467 10.1641 3.18905 10.0984C2.76249 10.0234 2.14374 9.84062 1.71717 9.66249L1.36092 9.51249L1.38905 8.82812C1.42186 8.04062 1.51561 7.69374 1.81561 7.28593C2.03592 6.98593 2.26561 6.80312 2.67342 6.61093L2.99217 6.46093H4.3328H5.66874L6.0203 6.63906C6.2078 6.73281 6.42811 6.86406 6.50311 6.92499L6.64374 7.04218L6.31561 7.36093C5.81874 7.84843 5.48124 8.41562 5.28905 9.08593C5.18592 9.44218 5.12967 11.7531 5.21405 11.9172C5.28436 12.0437 6.07186 12.4234 6.77499 12.6625C7.84374 13.0328 8.84686 13.1969 9.99999 13.1969C10.8203 13.1969 11.3781 13.1406 12.1469 12.9719C13.1922 12.7375 14.6453 12.1516 14.7765 11.9078C14.8703 11.7297 14.8234 9.46562 14.7109 9.08593C14.5187 8.42031 14.1859 7.86249 13.6844 7.36093L13.3562 7.04218L13.4969 6.92499C13.5719 6.86406 13.7922 6.73281 13.9797 6.63906L14.3312 6.46093H15.6672H17.0078L17.3265 6.61093C17.7344 6.80312 17.964 6.98593 18.1844 7.28593C18.4844 7.69374 18.5781 8.04062 18.6109 8.82812L18.639 9.51249L18.2828 9.66249C17.8562 9.84062 17.2375 10.0234 16.8109 10.0984C16.4453 10.1641 16.2812 10.2906 16.2812 10.5156C16.2812 10.6797 16.4969 10.9375 16.6328 10.9375C16.7969 10.9375 17.6406 10.7453 17.9969 10.6281C18.475 10.4687 19.239 10.1125 19.3187 10.0141C19.4031 9.89687 19.3937 8.13906 19.3047 7.79687C19.075 6.93906 18.3531 6.11406 17.5937 5.84218L17.3687 5.76249L17.5562 5.55156C17.8187 5.25156 18.0484 4.74062 18.1187 4.31406C18.325 2.97812 17.364 1.70312 16 1.50624C15.2594 1.39843 14.4953 1.66093 13.9375 2.21874C13.5859 2.57031 13.3515 2.99218 13.2765 3.41406C13.1922 3.84531 13.1734 3.85937 13.1312 3.52187C12.9812 2.29843 11.9828 1.18281 10.7734 0.887495C10.3844 0.793745 9.93905 0.76562 9.56874 0.817182ZM10.5859 1.66562C10.9375 1.75468 11.3875 2.02656 11.6828 2.33593C12.5828 3.27343 12.5828 4.63749 11.6781 5.57499C10.7594 6.53124 9.37186 6.55937 8.39217 5.64062C7.42186 4.73124 7.38905 3.30156 8.32186 2.33124C8.92655 1.70312 9.75624 1.45937 10.5859 1.66562ZM4.97967 2.43437C5.48124 2.65937 5.87499 3.16093 5.97342 3.69999C6.09999 4.39374 5.66405 5.16249 4.96092 5.48593C4.08436 5.88437 3.02967 5.37812 2.72499 4.41249C2.61717 4.06093 2.61717 3.84531 2.72499 3.49374C3.03436 2.51406 4.07499 2.02187 4.97967 2.43437ZM16.0703 2.33593C16.6328 2.48124 17.0875 2.91718 17.2656 3.47968C17.3828 3.84999 17.3828 4.05624 17.2703 4.41718C17.0969 4.98437 16.6281 5.42968 16.0515 5.57499C15.4984 5.71562 14.9172 5.53749 14.4906 5.09687C14.0078 4.59531 13.8719 3.90624 14.1437 3.32031C14.4156 2.72499 15.039 2.28906 15.6484 2.27031C15.7281 2.26562 15.9203 2.29843 16.0703 2.33593ZM7.02811 5.02187C7.1828 5.44843 7.45467 5.87031 7.76874 6.17968L8.01717 6.41874L7.69374 6.52656L7.3703 6.62968L7.11249 6.39531C6.8453 6.15156 6.36717 5.85624 6.14686 5.80468L6.0203 5.77187L6.22186 5.52343C6.48436 5.20468 6.6578 4.84374 6.72342 4.49218C6.8078 4.06093 6.82655 4.04687 6.86405 4.37499C6.88749 4.54374 6.9578 4.83437 7.02811 5.02187ZM13.2344 4.27656C13.2344 4.61874 13.4734 5.15781 13.8062 5.55624C13.9187 5.69687 13.9656 5.78124 13.9234 5.78124C13.7734 5.78124 13.1875 6.12343 12.9203 6.36718L12.6297 6.62968L12.3062 6.52656L11.9828 6.41874L12.2312 6.17031C12.7234 5.68281 13.0703 4.98906 13.1265 4.39374C13.1547 4.10312 13.2344 4.01406 13.2344 4.27656ZM11.8047 7.21093C12.8359 7.47343 13.6703 8.31718 13.9375 9.37187C14.0125 9.66718 14.0312 9.89218 14.0312 10.5953V11.4578L13.6797 11.6219C12.1562 12.325 10.164 12.5828 8.52342 12.2922C7.76405 12.1562 6.7328 11.8375 6.19374 11.5656L5.96874 11.4531V10.5906C5.96874 9.89218 5.98749 9.66718 6.06249 9.37187C6.32967 8.32656 7.15936 7.47812 8.17186 7.21562C8.55624 7.11249 11.4109 7.11249 11.8047 7.21093Z" fill="#7d8b9b"></path></svg>