<svg width="800" height="800" viewBox="0 0 800 800" fill="none" xmlns="http://www.w3.org/2000/svg">
<g clip-path="url(#clip0_690_34)">
<path d="M399.999 711.181C228.503 711.181 88.8184 571.653 88.8184 400C88.8184 228.346 228.503 88.8188 399.999 88.8188C571.495 88.8188 711.181 228.346 711.181 400C711.181 571.653 571.495 711.181 399.999 711.181Z" fill="white" fill-opacity="0.13"/>
<path d="M326.614 544.252C332.755 544.252 338.582 542.205 343.621 538.11L490.708 421.89C497.48 416.535 501.259 408.661 501.259 400C501.259 391.339 497.48 383.465 490.708 378.11L343.621 261.89C338.582 257.795 332.755 255.748 326.614 255.748C312.755 255.748 298.582 266.142 298.582 283.622V516.22C298.582 533.701 312.913 544.252 326.614 544.252Z" fill="white" fill-opacity="0.13"/>
<path d="M400 0C179.37 0 0 179.37 0 400C0 620.63 179.37 800 400 800C620.63 800 800 620.63 800 400C800 179.37 620.63 0 400 0ZM400 755.591C203.937 755.591 44.4094 596.063 44.4094 400C44.4094 203.937 203.937 44.4094 400 44.4094C596.063 44.4094 755.591 203.937 755.591 400C755.591 596.063 596.063 755.591 400 755.591Z" fill="#D7DF23"/>
<path d="M518.425 343.307L371.338 227.087C358.425 216.85 342.991 211.339 326.771 211.339C286.771 211.339 254.33 243.78 254.33 283.78V516.378C254.33 556.221 286.929 588.819 326.771 588.819C342.991 588.819 358.425 583.465 371.338 573.228L518.425 457.008C535.905 443.15 545.826 422.52 545.826 400.315C545.826 377.795 535.905 357.165 518.425 343.307ZM490.866 421.89L343.779 538.11C338.74 542.205 332.913 544.252 326.771 544.252C312.913 544.252 298.74 533.858 298.74 516.378V488.976H333.385C345.669 488.976 355.59 479.055 355.59 466.772C355.59 454.488 345.669 444.567 333.385 444.567H298.74V400H399.999C412.283 400 422.204 390.079 422.204 377.795C422.204 365.512 412.283 355.591 399.999 355.591H298.582V283.78C298.582 266.299 312.913 255.906 326.614 255.906C332.755 255.906 338.582 257.953 343.621 262.047L490.708 378.268C497.48 383.622 501.259 391.496 501.259 400.158C501.417 408.504 497.48 416.535 490.866 421.89Z" fill="#D7DF23"/>
</g>
<defs>
<clipPath id="clip0_690_34">
<rect width="800" height="800" fill="white"/>
</clipPath>
</defs>
</svg>
