<svg width="12" height="12" viewBox="0 0 12 12" fill="none" xmlns="http://www.w3.org/2000/svg">
<path d="M10.4711 5.73523C10.4711 4.82045 10.2061 3.92527 9.70812 3.15788C9.21018 2.39049 8.50063 1.78375 7.66524 1.41099C6.82985 1.03823 5.90438 0.915412 5.00068 1.05737C4.09698 1.19933 3.25374 1.6 2.57288 2.21094C1.89202 2.82189 1.40268 3.61696 1.16401 4.50006C0.925346 5.38316 0.947565 6.31648 1.22798 7.18722C1.5084 8.05797 2.03502 8.82885 2.74418 9.4067C3.45335 9.98456 4.3147 10.3446 5.22413 10.4434C5.3925 10.4613 5.56298 10.4708 5.73557 10.4708M5.73557 3.10431V5.73518L6.78792 6.78753M9.11361 7.63466C9.21622 7.53205 9.33804 7.45066 9.4721 7.39512C9.60617 7.33959 9.74986 7.31101 9.89498 7.31101C10.0401 7.31101 10.1838 7.33959 10.3178 7.39512C10.4519 7.45066 10.5737 7.53205 10.6763 7.63466C10.779 7.73727 10.8604 7.85909 10.9159 7.99316C10.9714 8.12723 11 8.27092 11 8.41603C11 8.56114 10.9714 8.70484 10.9159 8.8389C10.8604 8.97297 10.779 9.09479 10.6763 9.1974L8.89261 10.9969H7.31409V9.41839L9.11361 7.63466Z" stroke="#A6A6A8" stroke-linecap="round" stroke-linejoin="round"/>
</svg>
