<svg width="218" height="680" viewBox="0 0 218 680" fill="none" xmlns="http://www.w3.org/2000/svg">
<g clip-path="url(#clip0_2931_806)">
<g opacity="0.2">
<path d="M64.5663 672.932C65.88 672.932 66.945 673.994 66.945 675.305C66.945 676.615 65.88 677.678 64.5663 677.678C63.2525 677.678 62.1875 676.615 62.1875 675.305C62.1875 673.994 63.2525 672.932 64.5663 672.932Z" fill="#F7F7F7"/>
<path d="M71.7069 652.251C73.2083 652.251 74.4254 653.465 74.4254 654.963C74.4254 656.461 73.2083 657.675 71.7069 657.675C70.2054 657.675 68.9883 656.461 68.9883 654.963C68.9883 653.465 70.2054 652.251 71.7069 652.251Z" fill="#F7F7F7"/>
<path d="M78.8475 632.59C79.9736 632.59 80.8865 633.501 80.8865 634.624C80.8865 635.748 79.9736 636.658 78.8475 636.658C77.7215 636.658 76.8086 635.748 76.8086 634.624C76.8086 633.501 77.7215 632.59 78.8475 632.59Z" fill="#F7F7F7"/>
<path d="M84.9549 672.253C86.644 672.253 88.0133 673.619 88.0133 675.304C88.0133 676.989 86.644 678.355 84.9549 678.355C83.2658 678.355 81.8965 676.989 81.8965 675.304C81.8965 673.619 83.2658 672.253 84.9549 672.253Z" fill="#F7F7F7"/>
<path d="M92.0956 652.929C93.2216 652.929 94.1345 653.84 94.1345 654.963C94.1345 656.086 93.2216 656.997 92.0956 656.997C90.9695 656.997 90.0566 656.086 90.0566 654.963C90.0566 653.84 90.9695 652.929 92.0956 652.929Z" fill="#F7F7F7"/>
<path d="M99.2382 632.929C100.177 632.929 100.937 633.688 100.937 634.624C100.937 635.56 100.177 636.319 99.2382 636.319C98.2998 636.319 97.5391 635.56 97.5391 634.624C97.5391 633.688 98.2998 632.929 99.2382 632.929Z" fill="#F7F7F7"/>
<path d="M105.344 672.932C106.657 672.932 107.722 673.994 107.722 675.305C107.722 676.615 106.657 677.678 105.344 677.678C104.03 677.678 102.965 676.615 102.965 675.305C102.965 673.994 104.03 672.932 105.344 672.932Z" fill="#F7F7F7"/>
<path d="M112.486 652.59C113.8 652.59 114.865 653.652 114.865 654.963C114.865 656.273 113.8 657.336 112.486 657.336C111.172 657.336 110.107 656.273 110.107 654.963C110.107 653.652 111.172 652.59 112.486 652.59Z" fill="#F7F7F7"/>
<path d="M119.627 631.912C121.128 631.912 122.345 633.126 122.345 634.624C122.345 636.122 121.128 637.336 119.627 637.336C118.125 637.336 116.908 636.122 116.908 634.624C116.908 633.126 118.125 631.912 119.627 631.912Z" fill="#F7F7F7"/>
<path d="M125.734 672.253C127.423 672.253 128.793 673.619 128.793 675.304C128.793 676.989 127.423 678.355 125.734 678.355C124.045 678.355 122.676 676.989 122.676 675.304C122.676 673.619 124.045 672.253 125.734 672.253Z" fill="#F7F7F7"/>
<path d="M132.875 653.269C133.813 653.269 134.574 654.028 134.574 654.964C134.574 655.9 133.813 656.659 132.875 656.659C131.936 656.659 131.176 655.9 131.176 654.964C131.176 654.028 131.936 653.269 132.875 653.269Z" fill="#F7F7F7"/>
<path d="M140.015 631.912C141.517 631.912 142.734 633.126 142.734 634.624C142.734 636.122 141.517 637.336 140.015 637.336C138.514 637.336 137.297 636.122 137.297 634.624C137.297 633.126 138.514 631.912 140.015 631.912Z" fill="#F7F7F7"/>
<path d="M125.734 611.231C127.423 611.231 128.793 612.597 128.793 614.282C128.793 615.967 127.423 617.333 125.734 617.333C124.045 617.333 122.676 615.967 122.676 614.282C122.676 612.597 124.045 611.231 125.734 611.231Z" fill="#F7F7F7"/>
<path d="M132.875 591.908C134.001 591.908 134.914 592.818 134.914 593.942C134.914 595.065 134.001 595.976 132.875 595.976C131.749 595.976 130.836 595.065 130.836 593.942C130.836 592.818 131.749 591.908 132.875 591.908Z" fill="#F7F7F7"/>
<path d="M146.123 671.914C148 671.914 149.521 673.432 149.521 675.304C149.521 677.177 148 678.694 146.123 678.694C144.246 678.694 142.725 677.177 142.725 675.304C142.725 673.432 144.246 671.914 146.123 671.914Z" fill="#F7F7F7"/>
<path d="M153.264 652.59C154.577 652.59 155.642 653.652 155.642 654.963C155.642 656.273 154.577 657.336 153.264 657.336C151.95 657.336 150.885 656.273 150.885 654.963C150.885 653.652 151.95 652.59 153.264 652.59Z" fill="#F7F7F7"/>
<path d="M160.404 631.572C162.093 631.572 163.463 632.938 163.463 634.623C163.463 636.308 162.093 637.674 160.404 637.674C158.715 637.674 157.346 636.308 157.346 634.623C157.346 632.938 158.715 631.572 160.404 631.572Z" fill="#F7F7F7"/>
<path d="M146.123 611.909C147.437 611.909 148.502 612.972 148.502 614.282C148.502 615.593 147.437 616.655 146.123 616.655C144.809 616.655 143.744 615.593 143.744 614.282C143.744 612.972 144.809 611.909 146.123 611.909Z" fill="#F7F7F7"/>
<path d="M153.264 591.23C154.765 591.23 155.982 592.444 155.982 593.942C155.982 595.44 154.765 596.654 153.264 596.654C151.762 596.654 150.545 595.44 150.545 593.942C150.545 592.444 151.762 591.23 153.264 591.23Z" fill="#F7F7F7"/>
<path d="M166.514 672.932C167.827 672.932 168.892 673.994 168.892 675.305C168.892 676.615 167.827 677.678 166.514 677.678C165.2 677.678 164.135 676.615 164.135 675.305C164.135 673.994 165.2 672.932 166.514 672.932Z" fill="#F7F7F7"/>
<path d="M173.654 650.896C175.906 650.896 177.732 652.717 177.732 654.964C177.732 657.211 175.906 659.032 173.654 659.032C171.402 659.032 169.576 657.211 169.576 654.964C169.576 652.717 171.402 650.896 173.654 650.896Z" fill="#F7F7F7"/>
<path d="M180.795 632.59C181.921 632.59 182.834 633.501 182.834 634.624C182.834 635.748 181.921 636.658 180.795 636.658C179.669 636.658 178.756 635.748 178.756 634.624C178.756 633.501 179.669 632.59 180.795 632.59Z" fill="#F7F7F7"/>
<path d="M166.512 612.587C167.45 612.587 168.211 613.346 168.211 614.283C168.211 615.219 167.45 615.978 166.512 615.978C165.573 615.978 164.812 615.219 164.812 614.283C164.812 613.346 165.573 612.587 166.512 612.587Z" fill="#F7F7F7"/>
<path d="M173.654 590.213C175.719 590.213 177.392 591.882 177.392 593.942C177.392 596.001 175.719 597.671 173.654 597.671C171.59 597.671 169.916 596.001 169.916 593.942C169.916 591.882 171.59 590.213 173.654 590.213Z" fill="#F7F7F7"/>
<path d="M186.9 673.61C187.839 673.61 188.599 674.369 188.599 675.305C188.599 676.241 187.839 677 186.9 677C185.962 677 185.201 676.241 185.201 675.305C185.201 674.369 185.962 673.61 186.9 673.61Z" fill="#F7F7F7"/>
<path d="M194.043 652.59C195.357 652.59 196.422 653.652 196.422 654.963C196.422 656.273 195.357 657.336 194.043 657.336C192.729 657.336 191.664 656.273 191.664 654.963C191.664 653.652 192.729 652.59 194.043 652.59Z" fill="#F7F7F7"/>
<path d="M201.183 632.929C202.122 632.929 202.883 633.688 202.883 634.624C202.883 635.56 202.122 636.319 201.183 636.319C200.245 636.319 199.484 635.56 199.484 634.624C199.484 633.688 200.245 632.929 201.183 632.929Z" fill="#F7F7F7"/>
<path d="M186.9 612.248C188.026 612.248 188.939 613.159 188.939 614.282C188.939 615.406 188.026 616.316 186.9 616.316C185.774 616.316 184.861 615.406 184.861 614.282C184.861 613.159 185.774 612.248 186.9 612.248Z" fill="#F7F7F7"/>
<path d="M194.043 590.891C195.732 590.891 197.101 592.257 197.101 593.942C197.101 595.627 195.732 596.993 194.043 596.993C192.354 596.993 190.984 595.627 190.984 593.942C190.984 592.257 192.354 590.891 194.043 590.891Z" fill="#F7F7F7"/>
<path d="M214.432 596.654C212.93 596.654 211.713 595.439 211.713 593.942C211.713 592.444 212.93 591.229 214.432 591.229C215.933 591.229 217.15 592.444 217.15 593.942C217.15 595.439 215.933 596.654 214.432 596.654Z" fill="#F7F7F7"/>
<path d="M207.291 615.977C206.353 615.977 205.592 615.218 205.592 614.282C205.592 613.346 206.353 612.587 207.291 612.587C208.23 612.587 208.99 613.346 208.99 614.282C208.99 615.218 208.23 615.977 207.291 615.977Z" fill="#F7F7F7"/>
<path d="M214.432 656.658C213.493 656.658 212.733 655.899 212.733 654.963C212.733 654.026 213.493 653.268 214.432 653.268C215.37 653.268 216.131 654.026 216.131 654.963C216.131 655.899 215.37 656.658 214.432 656.658Z" fill="#F7F7F7"/>
<path d="M207.291 677.337C206.165 677.337 205.252 676.426 205.252 675.303C205.252 674.179 206.165 673.269 207.291 673.269C208.417 673.269 209.33 674.179 209.33 675.303C209.33 676.426 208.417 677.337 207.291 677.337Z" fill="#F7F7F7"/>
<path d="M214.432 46.4448C213.493 46.4448 212.733 45.6859 212.733 44.7497C212.733 43.8136 213.493 43.0547 214.432 43.0547C215.37 43.0547 216.131 43.8136 216.131 44.7497C216.131 45.6859 215.37 46.4448 214.432 46.4448Z" fill="#F7F7F7"/>
<path d="M207.291 67.1237C206.165 67.1237 205.252 66.2131 205.252 65.0897C205.252 63.9663 206.165 63.0557 207.291 63.0557C208.417 63.0557 209.33 63.9663 209.33 65.0897C209.33 66.2131 208.417 67.1237 207.291 67.1237Z" fill="#F7F7F7"/>
<path d="M214.432 108.144C213.118 108.144 212.053 107.081 212.053 105.771C212.053 104.46 213.118 103.397 214.432 103.397C215.746 103.397 216.811 104.46 216.811 105.771C216.811 107.081 215.746 108.144 214.432 108.144Z" fill="#F7F7F7"/>
<path d="M207.291 130.18C205.039 130.18 203.213 128.359 203.213 126.112C203.213 123.865 205.039 122.044 207.291 122.044C209.543 122.044 211.369 123.865 211.369 126.112C211.369 128.359 209.543 130.18 207.291 130.18Z" fill="#F7F7F7"/>
<path d="M17.6795 82.7184C19.181 82.7184 20.3981 83.9327 20.3981 85.4305C20.3981 86.9283 19.181 88.1426 17.6795 88.1426C16.1781 88.1426 14.9609 86.9283 14.9609 85.4305C14.9609 83.9327 16.1781 82.7184 17.6795 82.7184Z" fill="#F7F7F7"/>
<path d="M3.39825 62.0385C5.08735 62.0385 6.45665 63.4045 6.45665 65.0896C6.45665 66.7746 5.08735 68.1406 3.39825 68.1406C1.70914 68.1406 0.339844 66.7746 0.339844 65.0896C0.339844 63.4045 1.70914 62.0385 3.39825 62.0385Z" fill="#F7F7F7"/>
<path d="M30.9276 104.076C31.866 104.076 32.6267 104.835 32.6267 105.771C32.6267 106.707 31.866 107.466 30.9276 107.466C29.9892 107.466 29.2285 106.707 29.2285 105.771C29.2285 104.835 29.9892 104.076 30.9276 104.076Z" fill="#F7F7F7"/>
<path d="M38.0682 82.7184C39.5696 82.7184 40.7868 83.9327 40.7868 85.4305C40.7868 86.9283 39.5696 88.1426 38.0682 88.1426C36.5668 88.1426 35.3496 86.9283 35.3496 85.4305C35.3496 83.9327 36.5668 82.7184 38.0682 82.7184Z" fill="#F7F7F7"/>
<path d="M23.787 63.3961C24.7254 63.3961 25.4861 64.155 25.4861 65.0911C25.4861 66.0272 24.7254 66.7861 23.787 66.7861C22.8486 66.7861 22.0879 66.0272 22.0879 65.0911C22.0879 64.155 22.8486 63.3961 23.787 63.3961Z" fill="#F7F7F7"/>
<path d="M51.3162 102.72C53.0053 102.72 54.3746 104.086 54.3746 105.771C54.3746 107.456 53.0053 108.822 51.3162 108.822C49.6271 108.822 48.2578 107.456 48.2578 105.771C48.2578 104.086 49.6271 102.72 51.3162 102.72Z" fill="#F7F7F7"/>
<path d="M58.4589 83.7349C59.3973 83.7349 60.158 84.4938 60.158 85.43C60.158 86.3661 59.3973 87.125 58.4589 87.125C57.5205 87.125 56.7598 86.3661 56.7598 85.43C56.7598 84.4938 57.5205 83.7349 58.4589 83.7349Z" fill="#F7F7F7"/>
<path d="M44.1776 62.7168C45.4913 62.7168 46.5564 63.7792 46.5564 65.0898C46.5564 66.4004 45.4913 67.4629 44.1776 67.4629C42.8638 67.4629 41.7988 66.4004 41.7988 65.0898C41.7988 63.7792 42.8638 62.7168 44.1776 62.7168Z" fill="#F7F7F7"/>
<path d="M64.5663 123.738C65.88 123.738 66.945 124.801 66.945 126.111C66.945 127.422 65.88 128.484 64.5663 128.484C63.2525 128.484 62.1875 127.422 62.1875 126.111C62.1875 124.801 63.2525 123.738 64.5663 123.738Z" fill="#F7F7F7"/>
<path d="M71.7069 103.398C73.0206 103.398 74.0857 104.461 74.0857 105.771C74.0857 107.082 73.0206 108.145 71.7069 108.145C70.3931 108.145 69.3281 107.082 69.3281 105.771C69.3281 104.461 70.3931 103.398 71.7069 103.398Z" fill="#F7F7F7"/>
<path d="M78.8474 81.3618C81.0996 81.3618 82.9253 83.1832 82.9253 85.4299C82.9253 87.6767 81.0996 89.498 78.8474 89.498C76.5953 89.498 74.7695 87.6767 74.7695 85.4299C74.7695 83.1832 76.5953 81.3618 78.8474 81.3618Z" fill="#F7F7F7"/>
<path d="M64.5663 62.7168C65.88 62.7168 66.945 63.7792 66.945 65.0898C66.945 66.4004 65.88 67.4629 64.5663 67.4629C63.2525 67.4629 62.1875 66.4004 62.1875 65.0898C62.1875 63.7792 63.2525 62.7168 64.5663 62.7168Z" fill="#F7F7F7"/>
<path d="M84.955 124.417C85.8934 124.417 86.6541 125.175 86.6541 126.112C86.6541 127.048 85.8934 127.807 84.955 127.807C84.0166 127.807 83.2559 127.048 83.2559 126.112C83.2559 125.175 84.0166 124.417 84.955 124.417Z" fill="#F7F7F7"/>
<path d="M92.0955 102.72C93.7846 102.72 95.1539 104.086 95.1539 105.771C95.1539 107.456 93.7846 108.822 92.0955 108.822C90.4064 108.822 89.0371 107.456 89.0371 105.771C89.0371 104.086 90.4064 102.72 92.0955 102.72Z" fill="#F7F7F7"/>
<path d="M99.2381 82.7184C100.74 82.7184 101.957 83.9327 101.957 85.4305C101.957 86.9283 100.74 88.1426 99.2381 88.1426C97.7367 88.1426 96.5195 86.9283 96.5195 85.4305C96.5195 83.9327 97.7367 82.7184 99.2381 82.7184Z" fill="#F7F7F7"/>
<path d="M84.9549 62.0385C86.644 62.0385 88.0133 63.4045 88.0133 65.0896C88.0133 66.7746 86.644 68.1406 84.9549 68.1406C83.2658 68.1406 81.8965 66.7746 81.8965 65.0896C81.8965 63.4045 83.2658 62.0385 84.9549 62.0385Z" fill="#F7F7F7"/>
<path d="M105.344 123.738C106.657 123.738 107.722 124.801 107.722 126.111C107.722 127.422 106.657 128.484 105.344 128.484C104.03 128.484 102.965 127.422 102.965 126.111C102.965 124.801 104.03 123.738 105.344 123.738Z" fill="#F7F7F7"/>
<path d="M112.486 102.72C114.175 102.72 115.545 104.086 115.545 105.771C115.545 107.456 114.175 108.822 112.486 108.822C110.797 108.822 109.428 107.456 109.428 105.771C109.428 104.086 110.797 102.72 112.486 102.72Z" fill="#F7F7F7"/>
<path d="M119.627 82.0411C121.504 82.0411 123.025 83.5589 123.025 85.4312C123.025 87.3035 121.504 88.8213 119.627 88.8213C117.75 88.8213 116.229 87.3035 116.229 85.4312C116.229 83.5589 117.75 82.0411 119.627 82.0411Z" fill="#F7F7F7"/>
<path d="M105.344 62.7168C106.657 62.7168 107.722 63.7792 107.722 65.0898C107.722 66.4004 106.657 67.4629 105.344 67.4629C104.03 67.4629 102.965 66.4004 102.965 65.0898C102.965 63.7792 104.03 62.7168 105.344 62.7168Z" fill="#F7F7F7"/>
<path d="M125.734 123.738C127.048 123.738 128.113 124.801 128.113 126.111C128.113 127.422 127.048 128.484 125.734 128.484C124.42 128.484 123.355 127.422 123.355 126.111C123.355 124.801 124.42 123.738 125.734 123.738Z" fill="#F7F7F7"/>
<path d="M132.875 103.738C134.001 103.738 134.914 104.648 134.914 105.772C134.914 106.895 134.001 107.806 132.875 107.806C131.749 107.806 130.836 106.895 130.836 105.772C130.836 104.648 131.749 103.738 132.875 103.738Z" fill="#F7F7F7"/>
<path d="M140.015 83.3958C141.142 83.3958 142.054 84.3065 142.054 85.4298C142.054 86.5532 141.142 87.4639 140.015 87.4639C138.889 87.4639 137.977 86.5532 137.977 85.4298C137.977 84.3065 138.889 83.3958 140.015 83.3958Z" fill="#F7F7F7"/>
<path d="M125.734 62.0385C127.423 62.0385 128.793 63.4045 128.793 65.0896C128.793 66.7746 127.423 68.1406 125.734 68.1406C124.045 68.1406 122.676 66.7746 122.676 65.0896C122.676 63.4045 124.045 62.0385 125.734 62.0385Z" fill="#F7F7F7"/>
<path d="M146.125 122.043C148.377 122.043 150.203 123.865 150.203 126.112C150.203 128.358 148.377 130.18 146.125 130.18C143.873 130.18 142.047 128.358 142.047 126.112C142.047 123.865 143.873 122.043 146.125 122.043Z" fill="#F7F7F7"/>
<path d="M153.264 103.398C154.577 103.398 155.642 104.461 155.642 105.771C155.642 107.082 154.577 108.145 153.264 108.145C151.95 108.145 150.885 107.082 150.885 105.771C150.885 104.461 151.95 103.398 153.264 103.398Z" fill="#F7F7F7"/>
<path d="M160.404 83.0566C161.718 83.0566 162.783 84.1191 162.783 85.4297C162.783 86.7403 161.718 87.8027 160.404 87.8027C159.09 87.8027 158.025 86.7403 158.025 85.4297C158.025 84.1191 159.09 83.0566 160.404 83.0566Z" fill="#F7F7F7"/>
<path d="M146.123 61.7003C148 61.7003 149.521 63.2181 149.521 65.0904C149.521 66.9627 148 68.4805 146.123 68.4805C144.246 68.4805 142.725 66.9627 142.725 65.0904C142.725 63.2181 144.246 61.7003 146.123 61.7003Z" fill="#F7F7F7"/>
<path d="M153.264 42.3759C154.577 42.3759 155.642 43.4384 155.642 44.749C155.642 46.0596 154.577 47.1221 153.264 47.1221C151.95 47.1221 150.885 46.0596 150.885 44.749C150.885 43.4384 151.95 42.3759 153.264 42.3759Z" fill="#F7F7F7"/>
<path d="M166.513 123.061C168.203 123.061 169.572 124.427 169.572 126.112C169.572 127.797 168.203 129.163 166.513 129.163C164.824 129.163 163.455 127.797 163.455 126.112C163.455 124.427 164.824 123.061 166.513 123.061Z" fill="#F7F7F7"/>
<path d="M173.654 103.398C174.968 103.398 176.033 104.461 176.033 105.771C176.033 107.082 174.968 108.145 173.654 108.145C172.34 108.145 171.275 107.082 171.275 105.771C171.275 104.461 172.34 103.398 173.654 103.398Z" fill="#F7F7F7"/>
<path d="M180.795 82.0411C182.671 82.0411 184.193 83.5589 184.193 85.4312C184.193 87.3035 182.671 88.8213 180.795 88.8213C178.918 88.8213 177.396 87.3035 177.396 85.4312C177.396 83.5589 178.918 82.0411 180.795 82.0411Z" fill="#F7F7F7"/>
<path d="M166.514 62.7168C167.827 62.7168 168.892 63.7792 168.892 65.0898C168.892 66.4004 167.827 67.4629 166.514 67.4629C165.2 67.4629 164.135 66.4004 164.135 65.0898C164.135 63.7792 165.2 62.7168 166.514 62.7168Z" fill="#F7F7F7"/>
<path d="M173.654 40.6812C175.906 40.6812 177.732 42.5025 177.732 44.7493C177.732 46.996 175.906 48.8174 173.654 48.8174C171.402 48.8174 169.576 46.996 169.576 44.7493C169.576 42.5025 171.402 40.6812 173.654 40.6812Z" fill="#F7F7F7"/>
<path d="M186.9 124.417C187.839 124.417 188.599 125.175 188.599 126.112C188.599 127.048 187.839 127.807 186.9 127.807C185.962 127.807 185.201 127.048 185.201 126.112C185.201 125.175 185.962 124.417 186.9 124.417Z" fill="#F7F7F7"/>
<path d="M194.043 103.738C195.169 103.738 196.082 104.648 196.082 105.772C196.082 106.895 195.169 107.806 194.043 107.806C192.917 107.806 192.004 106.895 192.004 105.772C192.004 104.648 192.917 103.738 194.043 103.738Z" fill="#F7F7F7"/>
<path d="M201.183 82.7184C202.685 82.7184 203.902 83.9327 203.902 85.4305C203.902 86.9283 202.685 88.1426 201.183 88.1426C199.682 88.1426 198.465 86.9283 198.465 85.4305C198.465 83.9327 199.682 82.7184 201.183 82.7184Z" fill="#F7F7F7"/>
<path d="M186.9 63.3961C187.839 63.3961 188.599 64.155 188.599 65.0911C188.599 66.0272 187.839 66.7861 186.9 66.7861C185.962 66.7861 185.201 66.0272 185.201 65.0911C185.201 64.155 185.962 63.3961 186.9 63.3961Z" fill="#F7F7F7"/>
<path d="M194.043 42.3759C195.357 42.3759 196.422 43.4384 196.422 44.749C196.422 46.0596 195.357 47.1221 194.043 47.1221C192.729 47.1221 191.664 46.0596 191.664 44.749C191.664 43.4384 192.729 42.3759 194.043 42.3759Z" fill="#F7F7F7"/>
<path d="M17.6795 265.445C19.3686 265.445 20.7379 266.811 20.7379 268.496C20.7379 270.181 19.3686 271.547 17.6795 271.547C15.9904 271.547 14.6211 270.181 14.6211 268.496C14.6211 266.811 15.9904 265.445 17.6795 265.445Z" fill="#F7F7F7"/>
<path d="M3.39822 244.764C5.27501 244.764 6.79644 246.282 6.79644 248.154C6.79644 250.026 5.27501 251.544 3.39822 251.544C1.52144 251.544 0 250.026 0 248.154C0 246.282 1.52144 244.764 3.39822 244.764Z" fill="#F7F7F7"/>
<path d="M38.0683 266.799C39.0066 266.799 39.7674 267.558 39.7674 268.494C39.7674 269.431 39.0066 270.189 38.0683 270.189C37.1299 270.189 36.3691 269.431 36.3691 268.494C36.3691 267.558 37.1299 266.799 38.0683 266.799Z" fill="#F7F7F7"/>
<path d="M23.7889 246.12C24.915 246.12 25.8279 247.031 25.8279 248.154C25.8279 249.278 24.915 250.188 23.7889 250.188C22.6629 250.188 21.75 249.278 21.75 248.154C21.75 247.031 22.6629 246.12 23.7889 246.12Z" fill="#F7F7F7"/>
<path d="M38.0682 204.761C39.5696 204.761 40.7868 205.976 40.7868 207.473C40.7868 208.971 39.5696 210.186 38.0682 210.186C36.5668 210.186 35.3496 208.971 35.3496 207.473C35.3496 205.976 36.5668 204.761 38.0682 204.761Z" fill="#F7F7F7"/>
<path d="M58.4588 266.121C59.7726 266.121 60.8376 267.184 60.8376 268.494C60.8376 269.805 59.7726 270.867 58.4588 270.867C57.1451 270.867 56.0801 269.805 56.0801 268.494C56.0801 267.184 57.1451 266.121 58.4588 266.121Z" fill="#F7F7F7"/>
<path d="M44.1775 244.764C46.0543 244.764 47.5757 246.282 47.5757 248.154C47.5757 250.026 46.0543 251.544 44.1775 251.544C42.3007 251.544 40.7793 250.026 40.7793 248.154C40.7793 246.282 42.3007 244.764 44.1775 244.764Z" fill="#F7F7F7"/>
<path d="M51.3182 225.441C52.632 225.441 53.697 226.504 53.697 227.814C53.697 229.125 52.632 230.188 51.3182 230.188C50.0045 230.188 48.9395 229.125 48.9395 227.814C48.9395 226.504 50.0045 225.441 51.3182 225.441Z" fill="#F7F7F7"/>
<path d="M58.4587 203.406C60.7109 203.406 62.5366 205.227 62.5366 207.474C62.5366 209.721 60.7109 211.542 58.4587 211.542C56.2066 211.542 54.3809 209.721 54.3809 207.474C54.3809 205.227 56.2066 203.406 58.4587 203.406Z" fill="#F7F7F7"/>
<path d="M44.1776 184.422C45.679 184.422 46.8962 185.636 46.8962 187.134C46.8962 188.631 45.679 189.846 44.1776 189.846C42.6761 189.846 41.459 188.631 41.459 187.134C41.459 185.636 42.6761 184.422 44.1776 184.422Z" fill="#F7F7F7"/>
<path d="M78.8475 266.121C80.1613 266.121 81.2263 267.184 81.2263 268.494C81.2263 269.805 80.1613 270.867 78.8475 270.867C77.5338 270.867 76.4688 269.805 76.4688 268.494C76.4688 267.184 77.5338 266.121 78.8475 266.121Z" fill="#F7F7F7"/>
<path d="M64.5662 245.442C66.0677 245.442 67.2848 246.656 67.2848 248.154C67.2848 249.652 66.0677 250.866 64.5662 250.866C63.0648 250.866 61.8477 249.652 61.8477 248.154C61.8477 246.656 63.0648 245.442 64.5662 245.442Z" fill="#F7F7F7"/>
<path d="M71.7069 225.78C72.833 225.78 73.7458 226.69 73.7458 227.814C73.7458 228.937 72.833 229.848 71.7069 229.848C70.5808 229.848 69.668 228.937 69.668 227.814C69.668 226.69 70.5808 225.78 71.7069 225.78Z" fill="#F7F7F7"/>
<path d="M78.8475 204.422C80.5366 204.422 81.9059 205.788 81.9059 207.473C81.9059 209.158 80.5366 210.524 78.8475 210.524C77.1584 210.524 75.7891 209.158 75.7891 207.473C75.7891 205.788 77.1584 204.422 78.8475 204.422Z" fill="#F7F7F7"/>
<path d="M64.5662 184.422C66.0677 184.422 67.2848 185.636 67.2848 187.134C67.2848 188.631 66.0677 189.846 64.5662 189.846C63.0648 189.846 61.8477 188.631 61.8477 187.134C61.8477 185.636 63.0648 184.422 64.5662 184.422Z" fill="#F7F7F7"/>
<path d="M78.8475 143.74C80.3489 143.74 81.5661 144.954 81.5661 146.452C81.5661 147.95 80.3489 149.164 78.8475 149.164C77.3461 149.164 76.1289 147.95 76.1289 146.452C76.1289 144.954 77.3461 143.74 78.8475 143.74Z" fill="#F7F7F7"/>
<path d="M99.2361 265.445C100.925 265.445 102.295 266.811 102.295 268.496C102.295 270.181 100.925 271.547 99.2361 271.547C97.547 271.547 96.1777 270.181 96.1777 268.496C96.1777 266.811 97.547 265.445 99.2361 265.445Z" fill="#F7F7F7"/>
<path d="M84.9549 246.12C86.081 246.12 86.9939 247.031 86.9939 248.154C86.9939 249.278 86.081 250.188 84.9549 250.188C83.8289 250.188 82.916 249.278 82.916 248.154C82.916 247.031 83.8289 246.12 84.9549 246.12Z" fill="#F7F7F7"/>
<path d="M92.0975 226.119C93.0359 226.119 93.7967 226.878 93.7967 227.814C93.7967 228.75 93.0359 229.509 92.0975 229.509C91.1592 229.509 90.3984 228.75 90.3984 227.814C90.3984 226.878 91.1592 226.119 92.0975 226.119Z" fill="#F7F7F7"/>
<path d="M99.2362 205.101C100.55 205.101 101.615 206.163 101.615 207.474C101.615 208.784 100.55 209.847 99.2362 209.847C97.9224 209.847 96.8574 208.784 96.8574 207.474C96.8574 206.163 97.9224 205.101 99.2362 205.101Z" fill="#F7F7F7"/>
<path d="M84.9549 185.1C86.081 185.1 86.9939 186.011 86.9939 187.134C86.9939 188.257 86.081 189.168 84.9549 189.168C83.8289 189.168 82.916 188.257 82.916 187.134C82.916 186.011 83.8289 185.1 84.9549 185.1Z" fill="#F7F7F7"/>
<path d="M92.0955 163.741C93.7846 163.741 95.1539 165.107 95.1539 166.792C95.1539 168.477 93.7846 169.843 92.0955 169.843C90.4064 169.843 89.0371 168.477 89.0371 166.792C89.0371 165.107 90.4064 163.741 92.0955 163.741Z" fill="#F7F7F7"/>
<path d="M99.238 142.723C101.303 142.723 102.976 144.393 102.976 146.453C102.976 148.512 101.303 150.182 99.238 150.182C97.1736 150.182 95.5 148.512 95.5 146.453C95.5 144.393 97.1736 142.723 99.238 142.723Z" fill="#F7F7F7"/>
<path d="M119.627 266.121C120.941 266.121 122.006 267.184 122.006 268.494C122.006 269.805 120.941 270.867 119.627 270.867C118.313 270.867 117.248 269.805 117.248 268.494C117.248 267.184 118.313 266.121 119.627 266.121Z" fill="#F7F7F7"/>
<path d="M105.344 245.781C106.657 245.781 107.722 246.844 107.722 248.154C107.722 249.465 106.657 250.527 105.344 250.527C104.03 250.527 102.965 249.465 102.965 248.154C102.965 246.844 104.03 245.781 105.344 245.781Z" fill="#F7F7F7"/>
<path d="M112.486 225.102C113.988 225.102 115.205 226.316 115.205 227.814C115.205 229.312 113.988 230.526 112.486 230.526C110.985 230.526 109.768 229.312 109.768 227.814C109.768 226.316 110.985 225.102 112.486 225.102Z" fill="#F7F7F7"/>
<path d="M119.627 204.761C121.128 204.761 122.345 205.976 122.345 207.473C122.345 208.971 121.128 210.186 119.627 210.186C118.125 210.186 116.908 208.971 116.908 207.473C116.908 205.976 118.125 204.761 119.627 204.761Z" fill="#F7F7F7"/>
<path d="M105.346 184.422C106.847 184.422 108.064 185.636 108.064 187.134C108.064 188.631 106.847 189.846 105.346 189.846C103.844 189.846 102.627 188.631 102.627 187.134C102.627 185.636 103.844 184.422 105.346 184.422Z" fill="#F7F7F7"/>
<path d="M112.486 164.759C113.612 164.759 114.525 165.67 114.525 166.793C114.525 167.916 113.612 168.827 112.486 168.827C111.36 168.827 110.447 167.916 110.447 166.793C110.447 165.67 111.36 164.759 112.486 164.759Z" fill="#F7F7F7"/>
<path d="M119.627 144.418C120.753 144.418 121.666 145.329 121.666 146.452C121.666 147.576 120.753 148.486 119.627 148.486C118.501 148.486 117.588 147.576 117.588 146.452C117.588 145.329 118.501 144.418 119.627 144.418Z" fill="#F7F7F7"/>
<path d="M132.875 286.801C134.001 286.801 134.914 287.712 134.914 288.835C134.914 289.958 134.001 290.869 132.875 290.869C131.749 290.869 130.836 289.958 130.836 288.835C130.836 287.712 131.749 286.801 132.875 286.801Z" fill="#F7F7F7"/>
<path d="M140.015 265.445C141.705 265.445 143.074 266.811 143.074 268.496C143.074 270.181 141.705 271.547 140.015 271.547C138.326 271.547 136.957 270.181 136.957 268.496C136.957 266.811 138.326 265.445 140.015 265.445Z" fill="#F7F7F7"/>
<path d="M125.734 246.46C126.673 246.46 127.433 247.218 127.433 248.155C127.433 249.091 126.673 249.85 125.734 249.85C124.796 249.85 124.035 249.091 124.035 248.155C124.035 247.218 124.796 246.46 125.734 246.46Z" fill="#F7F7F7"/>
<path d="M132.875 225.102C134.376 225.102 135.593 226.316 135.593 227.814C135.593 229.312 134.376 230.526 132.875 230.526C131.373 230.526 130.156 229.312 130.156 227.814C130.156 226.316 131.373 225.102 132.875 225.102Z" fill="#F7F7F7"/>
<path d="M140.015 204.422C141.705 204.422 143.074 205.788 143.074 207.473C143.074 209.158 141.705 210.524 140.015 210.524C138.326 210.524 136.957 209.158 136.957 207.473C136.957 205.788 138.326 204.422 140.015 204.422Z" fill="#F7F7F7"/>
<path d="M125.734 185.1C126.86 185.1 127.773 186.011 127.773 187.134C127.773 188.257 126.86 189.168 125.734 189.168C124.608 189.168 123.695 188.257 123.695 187.134C123.695 186.011 124.608 185.1 125.734 185.1Z" fill="#F7F7F7"/>
<path d="M132.875 164.42C134.189 164.42 135.254 165.482 135.254 166.793C135.254 168.104 134.189 169.166 132.875 169.166C131.561 169.166 130.496 168.104 130.496 166.793C130.496 165.482 131.561 164.42 132.875 164.42Z" fill="#F7F7F7"/>
<path d="M140.015 144.079C141.329 144.079 142.394 145.142 142.394 146.452C142.394 147.763 141.329 148.825 140.015 148.825C138.702 148.825 137.637 147.763 137.637 146.452C137.637 145.142 138.702 144.079 140.015 144.079Z" fill="#F7F7F7"/>
<path d="M153.264 286.462C154.577 286.462 155.642 287.524 155.642 288.835C155.642 290.146 154.577 291.208 153.264 291.208C151.95 291.208 150.885 290.146 150.885 288.835C150.885 287.524 151.95 286.462 153.264 286.462Z" fill="#F7F7F7"/>
<path d="M160.404 265.105C162.281 265.105 163.802 266.622 163.802 268.495C163.802 270.367 162.281 271.885 160.404 271.885C158.527 271.885 157.006 270.367 157.006 268.495C157.006 266.622 158.527 265.105 160.404 265.105Z" fill="#F7F7F7"/>
<path d="M146.123 245.781C147.437 245.781 148.502 246.844 148.502 248.154C148.502 249.465 147.437 250.527 146.123 250.527C144.809 250.527 143.744 249.465 143.744 248.154C143.744 246.844 144.809 245.781 146.123 245.781Z" fill="#F7F7F7"/>
<path d="M153.265 224.763C154.955 224.763 156.324 226.129 156.324 227.814C156.324 229.499 154.955 230.865 153.265 230.865C151.576 230.865 150.207 229.499 150.207 227.814C150.207 226.129 151.576 224.763 153.265 224.763Z" fill="#F7F7F7"/>
<path d="M160.404 205.101C161.718 205.101 162.783 206.163 162.783 207.474C162.783 208.784 161.718 209.847 160.404 209.847C159.09 209.847 158.025 208.784 158.025 207.474C158.025 206.163 159.09 205.101 160.404 205.101Z" fill="#F7F7F7"/>
<path d="M146.123 184.422C147.624 184.422 148.841 185.636 148.841 187.134C148.841 188.631 147.624 189.846 146.123 189.846C144.621 189.846 143.404 188.631 143.404 187.134C143.404 185.636 144.621 184.422 146.123 184.422Z" fill="#F7F7F7"/>
<path d="M153.264 164.08C154.765 164.08 155.982 165.294 155.982 166.792C155.982 168.29 154.765 169.504 153.264 169.504C151.762 169.504 150.545 168.29 150.545 166.792C150.545 165.294 151.762 164.08 153.264 164.08Z" fill="#F7F7F7"/>
<path d="M160.404 144.418C161.53 144.418 162.443 145.329 162.443 146.452C162.443 147.576 161.53 148.486 160.404 148.486C159.278 148.486 158.365 147.576 158.365 146.452C158.365 145.329 159.278 144.418 160.404 144.418Z" fill="#F7F7F7"/>
<path d="M180.795 266.121C182.109 266.121 183.174 267.184 183.174 268.494C183.174 269.805 182.109 270.867 180.795 270.867C179.481 270.867 178.416 269.805 178.416 268.494C178.416 267.184 179.481 266.121 180.795 266.121Z" fill="#F7F7F7"/>
<path d="M166.513 244.086C168.766 244.086 170.591 245.908 170.591 248.155C170.591 250.401 168.766 252.223 166.513 252.223C164.261 252.223 162.436 250.401 162.436 248.155C162.436 245.908 164.261 244.086 166.513 244.086Z" fill="#F7F7F7"/>
<path d="M173.654 225.78C174.78 225.78 175.693 226.69 175.693 227.814C175.693 228.937 174.78 229.848 173.654 229.848C172.528 229.848 171.615 228.937 171.615 227.814C171.615 226.69 172.528 225.78 173.654 225.78Z" fill="#F7F7F7"/>
<path d="M180.795 205.779C181.733 205.779 182.494 206.538 182.494 207.474C182.494 208.41 181.733 209.169 180.795 209.169C179.856 209.169 179.096 208.41 179.096 207.474C179.096 206.538 179.856 205.779 180.795 205.779Z" fill="#F7F7F7"/>
<path d="M166.511 183.404C168.576 183.404 170.25 185.074 170.25 187.133C170.25 189.193 168.576 190.862 166.511 190.862C164.447 190.862 162.773 189.193 162.773 187.133C162.773 185.074 164.447 183.404 166.511 183.404Z" fill="#F7F7F7"/>
<path d="M173.654 163.741C175.343 163.741 176.713 165.107 176.713 166.792C176.713 168.477 175.343 169.843 173.654 169.843C171.965 169.843 170.596 168.477 170.596 166.792C170.596 165.107 171.965 163.741 173.654 163.741Z" fill="#F7F7F7"/>
<path d="M180.795 143.401C182.484 143.401 183.853 144.767 183.853 146.452C183.853 148.137 182.484 149.503 180.795 149.503C179.106 149.503 177.736 148.137 177.736 146.452C177.736 144.767 179.106 143.401 180.795 143.401Z" fill="#F7F7F7"/>
<path d="M194.043 286.123C195.544 286.123 196.761 287.337 196.761 288.835C196.761 290.333 195.544 291.547 194.043 291.547C192.541 291.547 191.324 290.333 191.324 288.835C191.324 287.337 192.541 286.123 194.043 286.123Z" fill="#F7F7F7"/>
<path d="M201.183 266.799C202.122 266.799 202.883 267.558 202.883 268.494C202.883 269.431 202.122 270.189 201.183 270.189C200.245 270.189 199.484 269.431 199.484 268.494C199.484 267.558 200.245 266.799 201.183 266.799Z" fill="#F7F7F7"/>
<path d="M186.902 245.781C188.216 245.781 189.281 246.844 189.281 248.154C189.281 249.465 188.216 250.527 186.902 250.527C185.588 250.527 184.523 249.465 184.523 248.154C184.523 246.844 185.588 245.781 186.902 245.781Z" fill="#F7F7F7"/>
<path d="M194.043 226.119C194.981 226.119 195.742 226.878 195.742 227.814C195.742 228.75 194.981 229.509 194.043 229.509C193.104 229.509 192.344 228.75 192.344 227.814C192.344 226.878 193.104 226.119 194.043 226.119Z" fill="#F7F7F7"/>
<path d="M201.185 205.44C202.311 205.44 203.224 206.35 203.224 207.474C203.224 208.597 202.311 209.508 201.185 209.508C200.059 209.508 199.146 208.597 199.146 207.474C199.146 206.35 200.059 205.44 201.185 205.44Z" fill="#F7F7F7"/>
<path d="M186.902 184.08C188.591 184.08 189.961 185.446 189.961 187.132C189.961 188.817 188.591 190.183 186.902 190.183C185.213 190.183 183.844 188.817 183.844 187.132C183.844 185.446 185.213 184.08 186.902 184.08Z" fill="#F7F7F7"/>
<path d="M194.043 164.42C195.357 164.42 196.422 165.482 196.422 166.793C196.422 168.104 195.357 169.166 194.043 169.166C192.729 169.166 191.664 168.104 191.664 166.793C191.664 165.482 192.729 164.42 194.043 164.42Z" fill="#F7F7F7"/>
<path d="M201.185 142.383C203.437 142.383 205.263 144.205 205.263 146.451C205.263 148.698 203.437 150.52 201.185 150.52C198.933 150.52 197.107 148.698 197.107 146.451C197.107 144.205 198.933 142.383 201.185 142.383Z" fill="#F7F7F7"/>
<path d="M214.432 168.827C213.306 168.827 212.393 167.916 212.393 166.793C212.393 165.669 213.306 164.759 214.432 164.759C215.558 164.759 216.471 165.669 216.471 166.793C216.471 167.916 215.558 168.827 214.432 168.827Z" fill="#F7F7F7"/>
<path d="M207.291 189.846C205.79 189.846 204.573 188.632 204.573 187.134C204.573 185.636 205.79 184.422 207.291 184.422C208.793 184.422 210.01 185.636 210.01 187.134C210.01 188.632 208.793 189.846 207.291 189.846Z" fill="#F7F7F7"/>
<path d="M214.432 230.188C213.118 230.188 212.053 229.125 212.053 227.814C212.053 226.504 213.118 225.441 214.432 225.441C215.746 225.441 216.811 226.504 216.811 227.814C216.811 229.125 215.746 230.188 214.432 230.188Z" fill="#F7F7F7"/>
<path d="M207.291 249.849C206.353 249.849 205.592 249.09 205.592 248.154C205.592 247.218 206.353 246.459 207.291 246.459C208.23 246.459 208.99 247.218 208.99 248.154C208.99 249.09 208.23 249.849 207.291 249.849Z" fill="#F7F7F7"/>
<path d="M214.432 291.886C212.743 291.886 211.373 290.52 211.373 288.835C211.373 287.15 212.743 285.784 214.432 285.784C216.121 285.784 217.49 287.15 217.49 288.835C217.49 290.52 216.121 291.886 214.432 291.886Z" fill="#F7F7F7"/>
</g>
</g>
<defs>
<clipPath id="clip0_2931_806">
<rect width="218" height="680" fill="white"/>
</clipPath>
</defs>
</svg>
