<svg width="14" height="14" viewBox="0 0 14 14" fill="none" xmlns="http://www.w3.org/2000/svg">
<path d="M5.88333 1.878C6.16733 0.707333 7.83267 0.707333 8.11667 1.878C8.15928 2.05387 8.24281 2.21719 8.36047 2.35467C8.47813 2.49215 8.62659 2.5999 8.79377 2.66916C8.96094 2.73843 9.14211 2.76723 9.32252 2.75325C9.50294 2.73926 9.6775 2.68287 9.832 2.58867C10.8607 1.962 12.0387 3.13933 11.412 4.16867C11.3179 4.3231 11.2616 4.49756 11.2477 4.67785C11.2337 4.85814 11.2625 5.03918 11.3317 5.20625C11.4009 5.37333 11.5085 5.52172 11.6458 5.63937C11.7831 5.75702 11.9463 5.8406 12.122 5.88333C13.2927 6.16733 13.2927 7.83267 12.122 8.11667C11.9461 8.15928 11.7828 8.24281 11.6453 8.36047C11.5079 8.47813 11.4001 8.62659 11.3308 8.79377C11.2616 8.96094 11.2328 9.14211 11.2468 9.32252C11.2607 9.50294 11.3171 9.6775 11.4113 9.832C12.038 10.8607 10.8607 12.0387 9.83133 11.412C9.6769 11.3179 9.50244 11.2616 9.32215 11.2477C9.14186 11.2337 8.96082 11.2625 8.79375 11.3317C8.62667 11.4009 8.47828 11.5085 8.36063 11.6458C8.24298 11.7831 8.1594 11.9463 8.11667 12.122C7.83267 13.2927 6.16733 13.2927 5.88333 12.122C5.84072 11.9461 5.75719 11.7828 5.63953 11.6453C5.52187 11.5079 5.37341 11.4001 5.20623 11.3308C5.03906 11.2616 4.85789 11.2328 4.67748 11.2468C4.49706 11.2607 4.3225 11.3171 4.168 11.4113C3.13933 12.038 1.96133 10.8607 2.588 9.83133C2.68207 9.6769 2.73837 9.50244 2.75232 9.32215C2.76628 9.14186 2.7375 8.96082 2.66831 8.79375C2.59913 8.62667 2.49151 8.47828 2.35418 8.36063C2.21686 8.24298 2.05371 8.1594 1.878 8.11667C0.707333 7.83267 0.707333 6.16733 1.878 5.88333C2.05387 5.84072 2.21719 5.75719 2.35467 5.63953C2.49215 5.52187 2.5999 5.37341 2.66916 5.20623C2.73843 5.03906 2.76723 4.85789 2.75325 4.67748C2.73926 4.49706 2.68287 4.3225 2.58867 4.168C1.962 3.13933 3.13933 1.96133 4.16867 2.588C4.83533 2.99333 5.69933 2.63467 5.88333 1.878Z" stroke="#A6A6A8" stroke-width="1.5" stroke-linecap="round" stroke-linejoin="round"/>
<path d="M5 7C5 7.53043 5.21071 8.03914 5.58579 8.41421C5.96086 8.78929 6.46957 9 7 9C7.53043 9 8.03914 8.78929 8.41421 8.41421C8.78929 8.03914 9 7.53043 9 7C9 6.46957 8.78929 5.96086 8.41421 5.58579C8.03914 5.21071 7.53043 5 7 5C6.46957 5 5.96086 5.21071 5.58579 5.58579C5.21071 5.96086 5 6.46957 5 7Z" stroke="#A6A6A8" stroke-width="1.5" stroke-linecap="round" stroke-linejoin="round"/>
</svg>
