<svg width="15" height="15" viewBox="0 0 15 15" fill="none" xmlns="http://www.w3.org/2000/svg">
<path d="M10 9.25L7.75 7.75V4M1 7.75C1 8.63642 1.17459 9.51417 1.51381 10.3331C1.85303 11.1521 2.35023 11.8962 2.97703 12.523C3.60382 13.1498 4.34794 13.647 5.16689 13.9862C5.98583 14.3254 6.86358 14.5 7.75 14.5C8.63642 14.5 9.51417 14.3254 10.3331 13.9862C11.1521 13.647 11.8962 13.1498 12.523 12.523C13.1498 11.8962 13.647 11.1521 13.9862 10.3331C14.3254 9.51417 14.5 8.63642 14.5 7.75C14.5 6.86358 14.3254 5.98583 13.9862 5.16689C13.647 4.34794 13.1498 3.60382 12.523 2.97703C11.8962 2.35023 11.1521 1.85303 10.3331 1.51381C9.51417 1.17459 8.63642 1 7.75 1C6.86358 1 5.98583 1.17459 5.16689 1.51381C4.34794 1.85303 3.60382 2.35023 2.97703 2.97703C2.35023 3.60382 1.85303 4.34794 1.51381 5.16689C1.17459 5.98583 1 6.86358 1 7.75Z" stroke="#A6A6A8" stroke-linecap="round" stroke-linejoin="round"/>
</svg>
