<svg width="15" height="16" viewBox="0 0 15 16" fill="none" xmlns="http://www.w3.org/2000/svg">
<path d="M10.7514 4.2502V7.50041M7.50118 4.2502V7.50041M1 1.81255V10.7506C1 10.9661 1.08561 11.1728 1.23799 11.3252C1.39037 11.4776 1.59705 11.5632 1.81255 11.5632H3.43765V14.8134L6.68786 11.5632H11.2251C11.4413 11.5632 11.6477 11.4778 11.7996 11.3251L13.7619 9.36359C13.9139 9.21083 14 9.00444 14 8.7883V1.81255C14 1.59705 13.9144 1.39037 13.762 1.23799C13.6096 1.08561 13.403 1 13.1874 1H1.81174C1.59624 1 1.38956 1.08561 1.23718 1.23799C1.0848 1.39037 1 1.59705 1 1.81255Z" stroke="#A6A6A8" stroke-width="1.5" stroke-linecap="round" stroke-linejoin="round"/>
</svg>
