<svg width="45" height="53" viewBox="0 0 45 53" fill="none" xmlns="http://www.w3.org/2000/svg">
<path d="M39.7507 23.37V49.1414C39.7507 51.2723 38.0232 52.9997 35.8924 52.9997H4.19525C2.06428 52.9997 0.336914 51.2722 0.336914 49.1414V8.76996C0.336914 6.63847 2.0648 4.91162 4.19525 4.91162H21.2918L39.7507 23.37Z" fill="#FDBF5F"/>
<path d="M9.10687 48.0882C6.9759 48.0882 5.24854 46.3607 5.24854 44.2298V3.85834C5.24843 1.72685 6.97631 0 9.10687 0H26.2033C29.1426 0 44.6622 15.5195 44.6622 18.4585V44.2298C44.6622 46.3608 42.9347 48.0882 40.8039 48.0882H9.10687Z" fill="#FFE4BB"/>
<path d="M44.6622 18.4588V20.0909C44.6622 16.6547 41.8758 13.8683 38.4396 13.8683H34.6523C32.5218 13.8683 30.7939 12.1404 30.7939 10.01V6.22263C30.7939 2.78643 28.0075 0 24.5713 0H26.2034C29.1422 0 31.9617 1.16766 34.0397 3.24573L41.4166 10.6227C43.4945 12.7006 44.6622 15.52 44.6622 18.4588Z" fill="#FDBF5F"/>
<path d="M21.1141 29.4565V40.7371C21.1141 41.2237 21.5086 41.6182 21.9952 41.6182H27.9157C28.4023 41.6182 28.7968 41.2237 28.7968 40.7371V29.4565H31.3138C32.0988 29.4565 32.4919 28.5074 31.9369 27.9524L26.3128 22.3283C25.5632 21.5787 24.3478 21.5787 23.5983 22.3283L17.9742 27.9524C17.4191 28.5074 17.8123 29.4565 18.5972 29.4565H21.1141Z" fill="#FDC165"/>
<path d="M18.0896 19.2327H31.8215C32.7698 19.2327 33.5385 18.464 33.5385 17.5157V17.4685C33.5385 16.5202 32.7698 15.7515 31.8215 15.7515H18.0896C17.1413 15.7515 16.3726 16.5202 16.3726 17.4685V17.5157C16.3726 18.4639 17.1413 19.2327 18.0896 19.2327Z" fill="#FDC165"/>
</svg>
