<svg width="10" height="14" viewBox="0 0 10 14" fill="none" xmlns="http://www.w3.org/2000/svg">
<path d="M1 13V11.6667C1 10.9594 1.28095 10.2811 1.78105 9.78105C2.28115 9.28095 2.95942 9 3.66667 9H6.33333C7.04058 9 7.71885 9.28095 8.21895 9.78105C8.71905 10.2811 9 10.9594 9 11.6667V13M2.33333 3.66667C2.33333 4.37391 2.61428 5.05219 3.11438 5.55229C3.61448 6.05238 4.29276 6.33333 5 6.33333C5.70724 6.33333 6.38552 6.05238 6.88562 5.55229C7.38572 5.05219 7.66667 4.37391 7.66667 3.66667C7.66667 2.95942 7.38572 2.28115 6.88562 1.78105C6.38552 1.28095 5.70724 1 5 1C4.29276 1 3.61448 1.28095 3.11438 1.78105C2.61428 2.28115 2.33333 2.95942 2.33333 3.66667Z" stroke="#A6A6A8" stroke-width="1.5" stroke-linecap="round" stroke-linejoin="round"/>
</svg>
