<svg width="14" height="14" viewBox="0 0 14 14" fill="none" xmlns="http://www.w3.org/2000/svg">
<path d="M3.5 12.25V11.0833C3.5 10.4645 3.74583 9.871 4.18342 9.43342C4.621 8.99583 5.21449 8.75 5.83333 8.75H7.58333M9.33333 12.8333L12.25 9.91667M12.25 9.91667V12.5417M12.25 9.91667H9.625M4.66667 4.08333C4.66667 4.70217 4.9125 5.29566 5.35008 5.73325C5.78767 6.17083 6.38116 6.41667 7 6.41667C7.61884 6.41667 8.21233 6.17083 8.64992 5.73325C9.0875 5.29566 9.33333 4.70217 9.33333 4.08333C9.33333 3.46449 9.0875 2.871 8.64992 2.43342C8.21233 1.99583 7.61884 1.75 7 1.75C6.38116 1.75 5.78767 1.99583 5.35008 2.43342C4.9125 2.871 4.66667 3.46449 4.66667 4.08333Z" stroke="#A6A6A8" stroke-linecap="round" stroke-linejoin="round"/>
</svg>
