<svg width="18" height="13" viewBox="0 0 18 13" fill="none" xmlns="http://www.w3.org/2000/svg">
<path d="M13.4544 4.00877V8.56681L17 11.6662V1L13.4544 4.00877Z" stroke="#A6A6A8" stroke-width="1.5" stroke-linecap="round" stroke-linejoin="round"/>
<path d="M1.78841 1H10.7481C12.0529 1 13.4439 2.06929 13.4439 3.49146V10.7765C13.4461 11.0091 13.3562 11.233 13.1938 11.3995C13.0315 11.5661 12.8098 11.6616 12.5773 11.6654H3.35724C1.87552 11.6654 1 10.3321 1 8.99879L1.00889 1.88796C0.992166 1.77566 1.00004 1.66106 1.03196 1.5521C1.06388 1.44314 1.11909 1.34241 1.19377 1.25688C1.26754 1.17241 1.35937 1.10562 1.46246 1.06146C1.56555 1.0173 1.67726 0.996902 1.7893 1.00178L1.78841 1Z" stroke="#A6A6A8" stroke-width="1.5" stroke-linecap="round" stroke-linejoin="round"/>
</svg>
