<svg width="1028" height="955" viewBox="0 0 1028 955" fill="none" xmlns="http://www.w3.org/2000/svg">
<path d="M0 16C0 7.16344 7.16344 0 16 0H1012C1020.84 0 1028 7.16344 1028 16V104H0V16Z" fill="white"/>
<path d="M16 0.5H1012C1020.56 0.5 1027.5 7.43959 1027.5 16V103.5H0.5V16C0.5 7.43959 7.43959 0.5 16 0.5Z" stroke="black" stroke-opacity="0.1"/>
<path d="M0 103H1028V939C1028 947.837 1020.84 955 1012 955H16C7.16345 955 0 947.837 0 939V103Z" fill="white"/>
<path d="M0.5 103.5H1027.5V939C1027.5 947.56 1020.56 954.5 1012 954.5H16C7.43959 954.5 0.5 947.56 0.5 939V103.5Z" stroke="black" stroke-opacity="0.1"/>
</svg>
