<svg width="300" height="300" viewBox="0 0 300 300" fill="none" xmlns="http://www.w3.org/2000/svg">
<path d="M275.002 149.984C275.002 219.02 219.038 274.984 150.002 274.984C80.9664 274.984 25.002 219.02 25.002 149.984C25.002 80.9488 80.9664 24.9844 150.002 24.9844C219.038 24.9844 275.002 80.9488 275.002 149.984ZM68.7519 149.984C68.7519 194.857 105.129 231.234 150.002 231.234C194.875 231.234 231.252 194.857 231.252 149.984C231.252 105.111 194.875 68.7344 150.002 68.7344C105.129 68.7344 68.7519 105.111 68.7519 149.984Z" fill="url(#paint0_angular_1247_2293)"/>
<path d="M150.002 24.9961C166.417 24.9961 182.672 28.2293 197.837 34.5112C213.003 40.793 226.783 50.0005 238.39 61.6078C249.998 73.2151 259.205 86.995 265.487 102.161C271.769 117.326 275.002 133.581 275.002 149.996L231.252 149.996C231.252 139.326 229.15 128.761 225.067 118.903C220.984 109.045 214.999 100.088 207.454 92.5437C199.91 84.9989 190.953 79.0141 181.095 74.9309C171.237 70.8477 160.672 68.7461 150.002 68.7461L150.002 24.9961Z" fill="url(#paint1_angular_1247_2293)"/>
<defs>
<radialGradient id="paint0_angular_1247_2293" cx="0" cy="0" r="1" gradientUnits="userSpaceOnUse" gradientTransform="translate(150.002 149.984) scale(125)">
<stop offset="0.9999" stop-color="#7448FF"/>
<stop offset="1" stop-color="#00AFAA" stop-opacity="0.01"/>
</radialGradient>
<radialGradient id="paint1_angular_1247_2293" cx="0" cy="0" r="1" gradientUnits="userSpaceOnUse" gradientTransform="translate(150.002 149.996) rotate(-90) scale(125)">
<stop offset="0.9999" stop-color="#7448FF"/>
<stop offset="1" stop-color="#00AFAA" stop-opacity="0.01"/>
</radialGradient>
</defs>
</svg>
