<svg width="162" height="179" viewBox="0 0 162 179" fill="none" xmlns="http://www.w3.org/2000/svg">
<g filter="url(#filter0_d_1159_3605)">
<path d="M79.661 94.7729C80.2306 94.48 80.9061 94.4777 81.4778 94.7667L128.469 118.522C129.933 119.262 129.933 121.352 128.469 122.092L81.4778 145.847C80.9061 146.136 80.2306 146.133 79.661 145.84L33.4594 122.085C32.0121 121.341 32.012 119.272 33.4594 118.528L79.661 94.7729Z" fill="black" fill-opacity="0.01"/>
</g>
<path d="M77.6391 58.47C79.333 57.4877 81.4214 57.48 83.1225 58.4499L145.611 94.0787C149.312 96.1889 149.312 101.524 145.611 103.635L83.1224 139.263C81.4214 140.233 79.333 140.226 77.6391 139.243L16.2011 103.614C12.5466 101.495 12.5466 96.2181 16.2011 94.0988L77.6391 58.47Z" stroke="#F5F2FF" stroke-linecap="round" stroke-linejoin="round"/>
<path d="M25 36.2832C25 33.4513 26.4971 30.8305 28.9364 29.3921L76.8996 1.10889C79.4264 -0.381165 82.5662 -0.368732 85.0812 1.14129L132.118 29.3825C134.527 30.8286 136 33.432 136 36.2412V92.1573C136 95.005 134.486 97.638 132.025 99.0709L84.9892 126.456C82.5205 127.893 79.4727 127.905 76.9928 126.487L29.0289 99.0605C26.5374 97.6358 25 94.9857 25 92.1157V36.2832Z" fill="#E8E1FF"/>
<path d="M30 39.168C30 36.3139 31.5206 33.6759 33.9904 32.2454L76.4904 7.62905C78.9705 6.19256 82.0295 6.19256 84.5096 7.62906L127.01 32.2454C129.479 33.6759 131 36.3139 131 39.168V88.4453C131 91.2994 129.479 93.9374 127.01 95.3679L84.5096 119.984C82.0295 121.421 78.9705 121.421 76.4904 119.984L33.9904 95.3679C31.5206 93.9374 30 91.2994 30 88.4453V39.168Z" fill="url(#paint0_linear_1159_3605)"/>
<path d="M80 70.7841C80 64.6403 83.5179 59.0391 89.0523 56.3713L125.263 38.9157C127.919 37.6354 131 39.5706 131 42.5189V88.9501C131 91.7975 129.487 94.4303 127.026 95.8632L86.013 119.748C83.3463 121.301 80 119.377 80 116.291L80 92.5477L80 70.7841Z" fill="url(#paint1_linear_1159_3605)"/>
<path d="M30 41.5078C30 38.5491 33.1009 36.6144 35.7584 37.915L71.6937 55.5022C77.1812 58.1878 80.6603 63.7639 80.6603 69.8733V111.071C80.6603 111.071 80.704 114.992 81.6015 116.312C82.3707 117.443 83.0749 117.794 84 118.308C84.9251 118.821 87 119.308 87 119.308L84.6043 120.566C82.1523 121.855 79.2083 121.783 76.822 120.377L33.9386 95.1075C31.4981 93.6694 30 91.0479 30 88.2151L30 41.5078Z" fill="url(#paint2_linear_1159_3605)"/>
<defs>
<filter id="filter0_d_1159_3605" x="0.374023" y="62.5508" width="161.192" height="115.512" filterUnits="userSpaceOnUse" color-interpolation-filters="sRGB">
<feFlood flood-opacity="0" result="BackgroundImageFix"/>
<feColorMatrix in="SourceAlpha" type="matrix" values="0 0 0 0 0 0 0 0 0 0 0 0 0 0 0 0 0 0 127 0" result="hardAlpha"/>
<feOffset/>
<feGaussianBlur stdDeviation="16"/>
<feColorMatrix type="matrix" values="0 0 0 0 0.454902 0 0 0 0 0.282353 0 0 0 0 1 0 0 0 0.4 0"/>
<feBlend mode="normal" in2="BackgroundImageFix" result="effect1_dropShadow_1159_3605"/>
<feBlend mode="normal" in="SourceGraphic" in2="effect1_dropShadow_1159_3605" result="shape"/>
</filter>
<linearGradient id="paint0_linear_1159_3605" x1="81" y1="119.5" x2="81" y2="8.00001" gradientUnits="userSpaceOnUse">
<stop stop-color="#6E41FF"/>
<stop offset="1" stop-color="#BB99FC"/>
</linearGradient>
<linearGradient id="paint1_linear_1159_3605" x1="126" y1="39" x2="153.231" y2="78.1659" gradientUnits="userSpaceOnUse">
<stop stop-color="#B48CFF"/>
<stop offset="1" stop-color="#7247C4"/>
</linearGradient>
<linearGradient id="paint2_linear_1159_3605" x1="28" y1="34.5" x2="116.058" y2="35.621" gradientUnits="userSpaceOnUse">
<stop stop-color="#A67DF2"/>
<stop offset="1" stop-color="#6823ED"/>
</linearGradient>
</defs>
</svg>
