<svg width="18" height="18" viewBox="0 0 18 18" fill="none" xmlns="http://www.w3.org/2000/svg">
<path d="M13.2271 5.562C14.0697 6.39055 14.6455 7.45193 14.8807 8.60997C15.1159 9.76802 14.9997 10.9699 14.5471 12.0615C14.0903 13.1557 13.3196 14.09 12.3322 14.7465C11.3448 15.4029 10.1851 15.7521 8.99939 15.75C7.81382 15.752 6.65423 15.4027 5.66699 14.7463C4.67976 14.0898 3.90913 13.1556 3.45239 12.0615C2.99972 10.97 2.88346 9.76813 3.11852 8.61009C3.35357 7.45205 3.92923 6.39064 4.77164 5.562L8.99939 1.5L13.2271 5.562Z" stroke="#A6A6A8" stroke-width="1.5" stroke-linecap="round" stroke-linejoin="round"/>
<path d="M10.8499 8.19225C11.2197 8.5675 11.4715 9.04287 11.5741 9.55963C11.6768 10.0764 11.6258 10.6119 11.4274 11.1C11.2332 11.5855 10.8984 12.0019 10.466 12.2959C10.0336 12.5898 9.52327 12.748 9.0004 12.75C8.47753 12.748 7.96718 12.5898 7.53477 12.2959C7.10237 12.0019 6.7676 11.5855 6.5734 11.1C6.37504 10.6119 6.32402 10.0764 6.42665 9.55963C6.52929 9.04287 6.78107 8.5675 7.1509 8.19225L9.0004 6.375L10.8499 8.19225Z" stroke="#A6A6A8" stroke-width="1.5" stroke-linecap="round" stroke-linejoin="round"/>
</svg>
