<svg width="13" height="13" viewBox="0 0 13 13" fill="none" xmlns="http://www.w3.org/2000/svg">
<rect width="13" height="13" fill="#EFEFEF"/>
<rect width="1823" height="1240" transform="translate(-1177 -336)" fill="#181A20"/>
<path d="M-627.563 -22V-53.152H-616.571C-613.067 -53.152 -610.339 -52.288 -608.387 -50.56C-606.419 -48.832 -605.435 -46.384 -605.435 -43.216C-605.435 -40.08 -606.419 -37.648 -608.387 -35.92C-610.339 -34.192 -613.067 -33.328 -616.571 -33.328H-621.851V-22H-627.563ZM-621.851 -38.272H-616.571C-614.811 -38.272 -613.483 -38.736 -612.587 -39.664C-611.691 -40.592 -611.243 -41.776 -611.243 -43.216C-611.243 -44.688 -611.691 -45.896 -612.587 -46.84C-613.483 -47.784 -614.811 -48.256 -616.571 -48.256H-621.851V-38.272ZM-596.263 -49.552C-597.367 -49.552 -598.231 -49.84 -598.855 -50.416C-599.463 -51.008 -599.767 -51.824 -599.767 -52.864C-599.767 -53.872 -599.463 -54.672 -598.855 -55.264C-598.231 -55.872 -597.367 -56.176 -596.263 -56.176C-595.175 -56.176 -594.319 -55.872 -593.695 -55.264C-593.071 -54.672 -592.759 -53.872 -592.759 -52.864C-592.759 -51.824 -593.071 -51.008 -593.695 -50.416C-594.319 -49.84 -595.175 -49.552 -596.263 -49.552ZM-599.095 -22V-45.376H-593.431V-22H-599.095ZM-574.993 -21.328C-576.945 -21.328 -578.761 -21.832 -580.441 -22.84C-582.105 -23.864 -583.457 -25.296 -584.497 -27.136C-585.521 -28.992 -586.033 -31.168 -586.033 -33.664C-586.033 -36.304 -585.521 -38.536 -584.497 -40.36C-583.457 -42.2 -582.105 -43.592 -580.441 -44.536C-578.761 -45.48 -576.945 -45.952 -574.993 -45.952C-573.473 -45.952 -572.137 -45.704 -570.985 -45.208C-569.817 -44.728 -568.825 -44.072 -568.009 -43.24C-567.193 -42.424 -566.553 -41.512 -566.089 -40.504C-565.625 -39.496 -565.329 -38.48 -565.201 -37.456L-570.913 -37.312C-571.169 -38.336 -571.649 -39.184 -572.353 -39.856C-573.041 -40.528 -573.937 -40.864 -575.041 -40.864C-575.953 -40.864 -576.809 -40.608 -577.609 -40.096C-578.409 -39.6 -579.065 -38.824 -579.577 -37.768C-580.073 -36.712 -580.321 -35.344 -580.321 -33.664C-580.321 -32.064 -580.089 -30.728 -579.625 -29.656C-579.145 -28.6 -578.505 -27.8 -577.705 -27.256C-576.905 -26.728 -576.017 -26.464 -575.041 -26.464C-573.601 -26.464 -572.553 -26.808 -571.897 -27.496C-571.241 -28.2 -570.913 -29.136 -570.913 -30.304H-565.201C-565.201 -28.656 -565.577 -27.152 -566.329 -25.792C-567.081 -24.432 -568.185 -23.344 -569.641 -22.528C-571.097 -21.728 -572.881 -21.328 -574.993 -21.328ZM-558.419 -22V-54.928H-552.755V-22H-558.419ZM-553.523 -36.448L-543.539 -45.28H-535.859L-553.523 -30.592V-36.448ZM-542.195 -22L-552.611 -36.832L-547.235 -38.128L-535.283 -22H-542.195ZM-510 -21.328C-511.376 -21.328 -512.64 -21.584 -513.792 -22.096C-514.928 -22.608 -515.84 -23.392 -516.528 -24.448C-517.2 -25.504 -517.536 -26.848 -517.536 -28.48V-51.472H-511.872V-28.672C-511.872 -26.752 -510.96 -25.792 -509.136 -25.792C-508.576 -25.792 -508.016 -25.856 -507.456 -25.984C-506.896 -26.112 -506.256 -26.304 -505.536 -26.56L-504.72 -22.576C-505.616 -22.224 -506.488 -21.928 -507.336 -21.688C-508.184 -21.448 -509.072 -21.328 -510 -21.328ZM-520.8 -41.536V-45.28H-505.536V-41.536H-520.8ZM-482.95 -22V-35.632C-482.95 -37.36 -483.366 -38.664 -484.198 -39.544C-485.03 -40.424 -486.118 -40.864 -487.462 -40.864C-488.598 -40.864 -489.606 -40.552 -490.486 -39.928C-491.35 -39.304 -492.03 -38.36 -492.526 -37.096C-493.022 -35.848 -493.27 -34.288 -493.27 -32.416H-495.142C-495.142 -35.44 -494.766 -37.952 -494.014 -39.952C-493.262 -41.968 -492.198 -43.472 -490.822 -44.464C-489.446 -45.456 -487.83 -45.952 -485.974 -45.952C-484.054 -45.952 -482.454 -45.52 -481.174 -44.656C-479.878 -43.808 -478.91 -42.608 -478.27 -41.056C-477.614 -39.504 -477.286 -37.696 -477.286 -35.632V-22H-482.95ZM-498.934 -22V-54.928H-493.27V-22H-498.934ZM-460.34 -21.328C-462.324 -21.328 -464.14 -21.84 -465.788 -22.864C-467.436 -23.888 -468.756 -25.32 -469.748 -27.16C-470.74 -29.016 -471.236 -31.184 -471.236 -33.664C-471.236 -36.224 -470.748 -38.424 -469.772 -40.264C-468.78 -42.104 -467.46 -43.512 -465.812 -44.488C-464.164 -45.464 -462.34 -45.952 -460.34 -45.952C-458.484 -45.952 -456.884 -45.576 -455.54 -44.824C-454.18 -44.088 -453.092 -43.08 -452.276 -41.8C-451.444 -40.536 -450.884 -39.104 -450.596 -37.504C-450.308 -35.904 -450.292 -34.256 -450.548 -32.56H-466.724V-35.632H-454.556L-455.66 -34.912C-455.612 -35.664 -455.652 -36.424 -455.78 -37.192C-455.892 -37.96 -456.116 -38.664 -456.452 -39.304C-456.788 -39.944 -457.268 -40.456 -457.892 -40.84C-458.5 -41.24 -459.284 -41.44 -460.244 -41.44C-461.396 -41.44 -462.372 -41.152 -463.172 -40.576C-463.972 -40 -464.58 -39.216 -464.996 -38.224C-465.412 -37.232 -465.62 -36.112 -465.62 -34.864V-32.608C-465.62 -31.296 -465.428 -30.136 -465.044 -29.128C-464.644 -28.12 -464.06 -27.328 -463.292 -26.752C-462.508 -26.176 -461.524 -25.888 -460.34 -25.888C-459.236 -25.888 -458.308 -26.144 -457.556 -26.656C-456.804 -27.168 -456.324 -27.936 -456.116 -28.96H-450.404C-450.644 -27.456 -451.212 -26.128 -452.108 -24.976C-452.988 -23.84 -454.132 -22.944 -455.54 -22.288C-456.948 -21.648 -458.548 -21.328 -460.34 -21.328ZM-419.77 -21.328C-421.482 -21.328 -422.938 -21.696 -424.138 -22.432C-425.338 -23.168 -426.258 -24.28 -426.898 -25.768C-427.522 -27.272 -427.834 -29.152 -427.834 -31.408H-425.77C-425.77 -30.368 -425.53 -29.48 -425.05 -28.744C-424.57 -28.008 -423.938 -27.44 -423.154 -27.04C-422.354 -26.656 -421.498 -26.464 -420.586 -26.464C-419.642 -26.464 -418.714 -26.72 -417.802 -27.232C-416.874 -27.76 -416.106 -28.552 -415.498 -29.608C-414.89 -30.68 -414.586 -32.032 -414.586 -33.664C-414.586 -35.152 -414.842 -36.432 -415.354 -37.504C-415.866 -38.592 -416.57 -39.424 -417.466 -40C-418.346 -40.576 -419.354 -40.864 -420.49 -40.864C-421.45 -40.864 -422.33 -40.648 -423.13 -40.216C-423.93 -39.784 -424.57 -39.152 -425.05 -38.32C-425.53 -37.504 -425.77 -36.512 -425.77 -35.344H-427.834C-427.834 -37.792 -427.458 -39.792 -426.706 -41.344C-425.954 -42.912 -424.946 -44.072 -423.682 -44.824C-422.418 -45.576 -421.034 -45.952 -419.53 -45.952C-417.69 -45.952 -415.962 -45.464 -414.346 -44.488C-412.714 -43.512 -411.394 -42.104 -410.386 -40.264C-409.378 -38.44 -408.874 -36.24 -408.874 -33.664C-408.874 -31.072 -409.386 -28.856 -410.41 -27.016C-411.434 -25.176 -412.778 -23.768 -414.442 -22.792C-416.09 -21.816 -417.866 -21.328 -419.77 -21.328ZM-431.434 -10.624V-45.28H-426.778L-425.77 -39.52V-10.624H-431.434ZM-402.138 -22V-54.928H-396.474V-22H-402.138ZM-372.681 -22L-373.401 -27.664V-37.024C-373.401 -38.656 -373.737 -39.864 -374.409 -40.648C-375.065 -41.432 -376.185 -41.824 -377.769 -41.824C-378.681 -41.824 -379.473 -41.688 -380.145 -41.416C-380.817 -41.144 -381.337 -40.752 -381.705 -40.24C-382.057 -39.744 -382.233 -39.136 -382.233 -38.416H-388.425C-388.425 -40.176 -388.001 -41.608 -387.153 -42.712C-386.305 -43.832 -385.089 -44.648 -383.505 -45.16C-381.905 -45.688 -379.993 -45.952 -377.769 -45.952C-375.753 -45.952 -373.993 -45.624 -372.489 -44.968C-370.985 -44.328 -369.817 -43.336 -368.985 -41.992C-368.153 -40.648 -367.737 -38.928 -367.737 -36.832V-22H-372.681ZM-380.313 -21.328C-382.313 -21.328 -383.985 -21.672 -385.329 -22.36C-386.657 -23.064 -387.657 -23.984 -388.329 -25.12C-389.001 -26.256 -389.337 -27.488 -389.337 -28.816C-389.337 -30.288 -388.953 -31.52 -388.185 -32.512C-387.401 -33.52 -386.297 -34.272 -384.873 -34.768C-383.449 -35.28 -381.769 -35.536 -379.833 -35.536C-378.569 -35.536 -377.377 -35.44 -376.257 -35.248C-375.121 -35.056 -373.993 -34.8 -372.873 -34.48V-31.168C-373.753 -31.456 -374.713 -31.68 -375.753 -31.84C-376.793 -32 -377.769 -32.08 -378.681 -32.08C-380.025 -32.08 -381.129 -31.832 -381.993 -31.336C-382.857 -30.84 -383.289 -30 -383.289 -28.816C-383.289 -27.952 -382.937 -27.208 -382.233 -26.584C-381.529 -25.96 -380.409 -25.648 -378.873 -25.648C-377.705 -25.648 -376.713 -25.904 -375.897 -26.416C-375.081 -26.928 -374.465 -27.568 -374.049 -28.336C-373.617 -29.104 -373.401 -29.872 -373.401 -30.64H-372.057C-372.057 -28.96 -372.369 -27.408 -372.993 -25.984C-373.617 -24.576 -374.545 -23.448 -375.777 -22.6C-376.993 -21.752 -378.505 -21.328 -380.313 -21.328ZM-343.45 -22V-35.632C-343.45 -37.36 -343.866 -38.664 -344.698 -39.544C-345.53 -40.424 -346.618 -40.864 -347.962 -40.864C-349.098 -40.864 -350.106 -40.552 -350.986 -39.928C-351.85 -39.304 -352.53 -38.36 -353.026 -37.096C-353.522 -35.848 -353.77 -34.288 -353.77 -32.416H-355.642C-355.642 -35.44 -355.266 -37.952 -354.514 -39.952C-353.762 -41.968 -352.698 -43.472 -351.322 -44.464C-349.946 -45.456 -348.33 -45.952 -346.474 -45.952C-344.554 -45.952 -342.954 -45.52 -341.674 -44.656C-340.378 -43.808 -339.41 -42.608 -338.77 -41.056C-338.114 -39.504 -337.786 -37.696 -337.786 -35.632V-22H-343.45ZM-359.434 -22V-45.28H-354.49L-353.77 -40.672V-22H-359.434ZM-309.516 -21.328C-310.892 -21.328 -312.156 -21.584 -313.308 -22.096C-314.444 -22.608 -315.356 -23.392 -316.044 -24.448C-316.716 -25.504 -317.052 -26.848 -317.052 -28.48V-51.472H-311.388V-28.672C-311.388 -26.752 -310.476 -25.792 -308.652 -25.792C-308.092 -25.792 -307.532 -25.856 -306.972 -25.984C-306.412 -26.112 -305.772 -26.304 -305.052 -26.56L-304.236 -22.576C-305.132 -22.224 -306.004 -21.928 -306.852 -21.688C-307.7 -21.448 -308.588 -21.328 -309.516 -21.328ZM-320.316 -41.536V-45.28H-305.052V-41.536H-320.316ZM-282.466 -22V-35.632C-282.466 -37.36 -282.882 -38.664 -283.714 -39.544C-284.546 -40.424 -285.634 -40.864 -286.978 -40.864C-288.114 -40.864 -289.122 -40.552 -290.002 -39.928C-290.866 -39.304 -291.546 -38.36 -292.042 -37.096C-292.538 -35.848 -292.786 -34.288 -292.786 -32.416H-294.658C-294.658 -35.44 -294.282 -37.952 -293.53 -39.952C-292.778 -41.968 -291.714 -43.472 -290.338 -44.464C-288.962 -45.456 -287.346 -45.952 -285.49 -45.952C-283.57 -45.952 -281.97 -45.52 -280.69 -44.656C-279.394 -43.808 -278.426 -42.608 -277.786 -41.056C-277.13 -39.504 -276.802 -37.696 -276.802 -35.632V-22H-282.466ZM-298.45 -22V-54.928H-292.786V-22H-298.45ZM-253.712 -22L-254.432 -27.664V-37.024C-254.432 -38.656 -254.768 -39.864 -255.44 -40.648C-256.096 -41.432 -257.216 -41.824 -258.8 -41.824C-259.712 -41.824 -260.504 -41.688 -261.176 -41.416C-261.848 -41.144 -262.368 -40.752 -262.736 -40.24C-263.088 -39.744 -263.264 -39.136 -263.264 -38.416H-269.456C-269.456 -40.176 -269.032 -41.608 -268.184 -42.712C-267.336 -43.832 -266.12 -44.648 -264.536 -45.16C-262.936 -45.688 -261.024 -45.952 -258.8 -45.952C-256.784 -45.952 -255.024 -45.624 -253.52 -44.968C-252.016 -44.328 -250.848 -43.336 -250.016 -41.992C-249.184 -40.648 -248.768 -38.928 -248.768 -36.832V-22H-253.712ZM-261.344 -21.328C-263.344 -21.328 -265.016 -21.672 -266.36 -22.36C-267.688 -23.064 -268.688 -23.984 -269.36 -25.12C-270.032 -26.256 -270.368 -27.488 -270.368 -28.816C-270.368 -30.288 -269.984 -31.52 -269.216 -32.512C-268.432 -33.52 -267.328 -34.272 -265.904 -34.768C-264.48 -35.28 -262.8 -35.536 -260.864 -35.536C-259.6 -35.536 -258.408 -35.44 -257.288 -35.248C-256.152 -35.056 -255.024 -34.8 -253.904 -34.48V-31.168C-254.784 -31.456 -255.744 -31.68 -256.784 -31.84C-257.824 -32 -258.8 -32.08 -259.712 -32.08C-261.056 -32.08 -262.16 -31.832 -263.024 -31.336C-263.888 -30.84 -264.32 -30 -264.32 -28.816C-264.32 -27.952 -263.968 -27.208 -263.264 -26.584C-262.56 -25.96 -261.44 -25.648 -259.904 -25.648C-258.736 -25.648 -257.744 -25.904 -256.928 -26.416C-256.112 -26.928 -255.496 -27.568 -255.08 -28.336C-254.648 -29.104 -254.432 -29.872 -254.432 -30.64H-253.088C-253.088 -28.96 -253.4 -27.408 -254.024 -25.984C-254.648 -24.576 -255.576 -23.448 -256.808 -22.6C-258.024 -21.752 -259.536 -21.328 -261.344 -21.328ZM-232.594 -21.328C-233.97 -21.328 -235.234 -21.584 -236.386 -22.096C-237.522 -22.608 -238.434 -23.392 -239.122 -24.448C-239.794 -25.504 -240.13 -26.848 -240.13 -28.48V-51.472H-234.466V-28.672C-234.466 -26.752 -233.554 -25.792 -231.73 -25.792C-231.17 -25.792 -230.61 -25.856 -230.05 -25.984C-229.49 -26.112 -228.85 -26.304 -228.13 -26.56L-227.314 -22.576C-228.21 -22.224 -229.082 -21.928 -229.93 -21.688C-230.778 -21.448 -231.666 -21.328 -232.594 -21.328ZM-243.394 -41.536V-45.28H-228.13V-41.536H-243.394ZM-200.7 -21.328C-202.94 -21.328 -204.868 -21.632 -206.484 -22.24C-208.084 -22.864 -209.316 -23.752 -210.18 -24.904C-211.044 -26.072 -211.484 -27.472 -211.5 -29.104H-206.268C-206.22 -27.952 -205.764 -27.112 -204.9 -26.584C-204.036 -26.056 -202.86 -25.792 -201.372 -25.792C-200.556 -25.792 -199.836 -25.912 -199.212 -26.152C-198.572 -26.392 -198.076 -26.72 -197.724 -27.136C-197.372 -27.552 -197.196 -28.016 -197.196 -28.528C-197.196 -29.184 -197.436 -29.696 -197.916 -30.064C-198.38 -30.448 -199.132 -30.8 -200.172 -31.12L-205.26 -32.944C-207.084 -33.6 -208.484 -34.464 -209.46 -35.536C-210.436 -36.608 -210.924 -37.888 -210.924 -39.376C-210.924 -41.344 -210.036 -42.928 -208.26 -44.128C-206.468 -45.344 -204.076 -45.952 -201.084 -45.952C-198.108 -45.952 -195.812 -45.296 -194.196 -43.984C-192.564 -42.688 -191.724 -41.04 -191.676 -39.04H-197.004C-197.084 -39.808 -197.452 -40.416 -198.108 -40.864C-198.764 -41.312 -199.756 -41.536 -201.084 -41.536C-202.284 -41.536 -203.228 -41.288 -203.916 -40.792C-204.588 -40.312 -204.924 -39.744 -204.924 -39.088C-204.924 -37.984 -203.98 -37.152 -202.092 -36.592L-196.572 -34.528C-194.78 -33.92 -193.388 -33.136 -192.396 -32.176C-191.404 -31.216 -190.908 -30 -190.908 -28.528C-190.908 -27.296 -191.324 -26.128 -192.156 -25.024C-192.972 -23.936 -194.116 -23.048 -195.588 -22.36C-197.06 -21.672 -198.764 -21.328 -200.7 -21.328ZM-168.571 -45.376H-162.907V-22H-168.571V-45.376ZM-184.555 -45.376H-178.891V-31.072C-178.891 -29.552 -178.515 -28.408 -177.763 -27.64C-177.011 -26.888 -175.979 -26.512 -174.667 -26.512C-173.547 -26.512 -172.531 -26.8 -171.619 -27.376C-170.691 -27.968 -169.955 -28.832 -169.411 -29.968C-168.851 -31.12 -168.571 -32.544 -168.571 -34.24H-167.035C-167.035 -31.392 -167.403 -29.032 -168.139 -27.16C-168.875 -25.288 -169.891 -23.888 -171.187 -22.96C-172.483 -22.032 -173.979 -21.568 -175.675 -21.568C-177.339 -21.568 -178.843 -21.864 -180.187 -22.456C-181.531 -23.048 -182.595 -24 -183.379 -25.312C-184.163 -26.624 -184.555 -28.352 -184.555 -30.496V-45.376ZM-142.317 -21.328C-144.029 -21.328 -145.485 -21.696 -146.685 -22.432C-147.885 -23.168 -148.805 -24.28 -149.445 -25.768C-150.069 -27.272 -150.381 -29.152 -150.381 -31.408H-148.317C-148.317 -30.368 -148.077 -29.48 -147.597 -28.744C-147.117 -28.008 -146.485 -27.44 -145.701 -27.04C-144.901 -26.656 -144.045 -26.464 -143.133 -26.464C-142.189 -26.464 -141.261 -26.72 -140.349 -27.232C-139.421 -27.76 -138.653 -28.552 -138.045 -29.608C-137.437 -30.68 -137.133 -32.032 -137.133 -33.664C-137.133 -35.152 -137.389 -36.432 -137.901 -37.504C-138.413 -38.592 -139.117 -39.424 -140.013 -40C-140.893 -40.576 -141.901 -40.864 -143.037 -40.864C-143.997 -40.864 -144.877 -40.648 -145.677 -40.216C-146.477 -39.784 -147.117 -39.152 -147.597 -38.32C-148.077 -37.504 -148.317 -36.512 -148.317 -35.344H-150.381C-150.381 -37.792 -150.005 -39.792 -149.253 -41.344C-148.501 -42.912 -147.493 -44.072 -146.229 -44.824C-144.965 -45.576 -143.581 -45.952 -142.077 -45.952C-140.237 -45.952 -138.509 -45.464 -136.893 -44.488C-135.261 -43.512 -133.941 -42.104 -132.933 -40.264C-131.925 -38.44 -131.421 -36.24 -131.421 -33.664C-131.421 -31.072 -131.933 -28.856 -132.957 -27.016C-133.981 -25.176 -135.325 -23.768 -136.989 -22.792C-138.637 -21.816 -140.413 -21.328 -142.317 -21.328ZM-153.981 -10.624V-45.28H-149.325L-148.317 -39.52V-10.624H-153.981ZM-113.02 -21.328C-114.732 -21.328 -116.188 -21.696 -117.388 -22.432C-118.588 -23.168 -119.508 -24.28 -120.148 -25.768C-120.772 -27.272 -121.084 -29.152 -121.084 -31.408H-119.02C-119.02 -30.368 -118.78 -29.48 -118.3 -28.744C-117.82 -28.008 -117.188 -27.44 -116.404 -27.04C-115.604 -26.656 -114.748 -26.464 -113.836 -26.464C-112.892 -26.464 -111.964 -26.72 -111.052 -27.232C-110.124 -27.76 -109.356 -28.552 -108.748 -29.608C-108.14 -30.68 -107.836 -32.032 -107.836 -33.664C-107.836 -35.152 -108.092 -36.432 -108.604 -37.504C-109.116 -38.592 -109.82 -39.424 -110.716 -40C-111.596 -40.576 -112.604 -40.864 -113.74 -40.864C-114.7 -40.864 -115.58 -40.648 -116.38 -40.216C-117.18 -39.784 -117.82 -39.152 -118.3 -38.32C-118.78 -37.504 -119.02 -36.512 -119.02 -35.344H-121.084C-121.084 -37.792 -120.708 -39.792 -119.956 -41.344C-119.204 -42.912 -118.196 -44.072 -116.932 -44.824C-115.668 -45.576 -114.284 -45.952 -112.78 -45.952C-110.94 -45.952 -109.212 -45.464 -107.596 -44.488C-105.964 -43.512 -104.644 -42.104 -103.636 -40.264C-102.628 -38.44 -102.124 -36.24 -102.124 -33.664C-102.124 -31.072 -102.636 -28.856 -103.66 -27.016C-104.684 -25.176 -106.028 -23.768 -107.692 -22.792C-109.34 -21.816 -111.116 -21.328 -113.02 -21.328ZM-124.684 -10.624V-45.28H-120.028L-119.02 -39.52V-10.624H-124.684ZM-86.2196 -21.328C-88.3476 -21.328 -90.2756 -21.784 -92.0036 -22.696C-93.7156 -23.608 -95.0756 -24.968 -96.0836 -26.776C-97.0916 -28.6 -97.5956 -30.88 -97.5956 -33.616C-97.5956 -36.4 -97.0916 -38.704 -96.0836 -40.528C-95.0756 -42.352 -93.7156 -43.712 -92.0036 -44.608C-90.2756 -45.504 -88.3476 -45.952 -86.2196 -45.952C-84.1236 -45.952 -82.2276 -45.504 -80.5316 -44.608C-78.8196 -43.712 -77.4596 -42.352 -76.4516 -40.528C-75.4436 -38.704 -74.9396 -36.4 -74.9396 -33.616C-74.9396 -30.88 -75.4436 -28.6 -76.4516 -26.776C-77.4596 -24.968 -78.8196 -23.608 -80.5316 -22.696C-82.2276 -21.784 -84.1236 -21.328 -86.2196 -21.328ZM-86.4116 -26.272C-85.2916 -26.272 -84.2996 -26.544 -83.4356 -27.088C-82.5556 -27.648 -81.8676 -28.472 -81.3716 -29.56C-80.8596 -30.648 -80.6036 -32 -80.6036 -33.616C-80.6036 -36.08 -81.0916 -37.936 -82.0676 -39.184C-83.0276 -40.432 -84.3476 -41.056 -86.0276 -41.056C-87.1636 -41.056 -88.1716 -40.776 -89.0516 -40.216C-89.9316 -39.672 -90.6276 -38.848 -91.1396 -37.744C-91.6356 -36.64 -91.8836 -35.264 -91.8836 -33.616C-91.8836 -31.184 -91.3956 -29.352 -90.4196 -28.12C-89.4276 -26.888 -88.0916 -26.272 -86.4116 -26.272ZM-68.2001 -22V-45.376H-62.5361V-22H-68.2001ZM-63.9281 -32.224C-63.9281 -35.28 -63.5841 -37.808 -62.8961 -39.808C-62.2081 -41.808 -61.2881 -43.288 -60.1361 -44.248C-58.9681 -45.224 -57.6721 -45.712 -56.2481 -45.712C-55.8641 -45.712 -55.5041 -45.688 -55.1681 -45.64C-54.8161 -45.592 -54.4721 -45.52 -54.1361 -45.424L-54.2321 -39.76C-54.6481 -39.856 -55.0961 -39.936 -55.5761 -40C-56.0561 -40.064 -56.4881 -40.096 -56.8721 -40.096C-58.1201 -40.096 -59.1681 -39.792 -60.0161 -39.184C-60.8481 -38.592 -61.4801 -37.712 -61.9121 -36.544C-62.3281 -35.376 -62.5361 -33.936 -62.5361 -32.224H-63.9281ZM-41.4843 -21.328C-42.8603 -21.328 -44.1243 -21.584 -45.2763 -22.096C-46.4123 -22.608 -47.3243 -23.392 -48.0123 -24.448C-48.6843 -25.504 -49.0203 -26.848 -49.0203 -28.48V-51.472H-43.3563V-28.672C-43.3563 -26.752 -42.4443 -25.792 -40.6203 -25.792C-40.0603 -25.792 -39.5003 -25.856 -38.9403 -25.984C-38.3803 -26.112 -37.7403 -26.304 -37.0203 -26.56L-36.2043 -22.576C-37.1003 -22.224 -37.9723 -21.928 -38.8203 -21.688C-39.6683 -21.448 -40.5563 -21.328 -41.4843 -21.328ZM-52.2843 -41.536V-45.28H-37.0203V-41.536H-52.2843ZM-21.7308 -21.328C-23.9708 -21.328 -25.8988 -21.632 -27.5148 -22.24C-29.1148 -22.864 -30.3468 -23.752 -31.2108 -24.904C-32.0748 -26.072 -32.5148 -27.472 -32.5308 -29.104H-27.2988C-27.2508 -27.952 -26.7948 -27.112 -25.9308 -26.584C-25.0668 -26.056 -23.8908 -25.792 -22.4028 -25.792C-21.5868 -25.792 -20.8668 -25.912 -20.2428 -26.152C-19.6028 -26.392 -19.1068 -26.72 -18.7548 -27.136C-18.4028 -27.552 -18.2268 -28.016 -18.2268 -28.528C-18.2268 -29.184 -18.4668 -29.696 -18.9468 -30.064C-19.4108 -30.448 -20.1628 -30.8 -21.2028 -31.12L-26.2908 -32.944C-28.1148 -33.6 -29.5148 -34.464 -30.4908 -35.536C-31.4668 -36.608 -31.9548 -37.888 -31.9548 -39.376C-31.9548 -41.344 -31.0668 -42.928 -29.2908 -44.128C-27.4988 -45.344 -25.1068 -45.952 -22.1148 -45.952C-19.1388 -45.952 -16.8428 -45.296 -15.2268 -43.984C-13.5948 -42.688 -12.7548 -41.04 -12.7068 -39.04H-18.0348C-18.1148 -39.808 -18.4828 -40.416 -19.1388 -40.864C-19.7948 -41.312 -20.7868 -41.536 -22.1148 -41.536C-23.3148 -41.536 -24.2588 -41.288 -24.9468 -40.792C-25.6188 -40.312 -25.9548 -39.744 -25.9548 -39.088C-25.9548 -37.984 -25.0108 -37.152 -23.1228 -36.592L-17.6028 -34.528C-15.8108 -33.92 -14.4188 -33.136 -13.4268 -32.176C-12.4348 -31.216 -11.9388 -30 -11.9388 -28.528C-11.9388 -27.296 -12.3548 -26.128 -13.1868 -25.024C-14.0028 -23.936 -15.1468 -23.048 -16.6188 -22.36C-18.0908 -21.672 -19.7948 -21.328 -21.7308 -21.328ZM3.48231 -45.28H9.91431L16.1063 -26.944H15.0983L20.4263 -45.28H26.1863L17.2583 -17.776C16.3463 -15.024 15.2183 -13.032 13.8743 -11.8C12.5463 -10.568 10.9223 -9.952 9.00231 -9.952C7.89831 -9.952 6.81831 -10.08 5.76231 -10.336C4.72231 -10.576 3.65831 -10.96 2.57031 -11.488V-16.48C3.45031 -15.936 4.29831 -15.536 5.11431 -15.28C5.94631 -15.024 6.77831 -14.896 7.61031 -14.896C8.36231 -14.896 9.01831 -15.104 9.57831 -15.52C10.1543 -15.92 10.6503 -16.488 11.0663 -17.224C11.4823 -17.944 11.8343 -18.784 12.1223 -19.744L12.8423 -22L3.48231 -45.28ZM40.3898 -21.328C38.2618 -21.328 36.3338 -21.784 34.6058 -22.696C32.8938 -23.608 31.5338 -24.968 30.5258 -26.776C29.5178 -28.6 29.0138 -30.88 29.0138 -33.616C29.0138 -36.4 29.5178 -38.704 30.5258 -40.528C31.5338 -42.352 32.8938 -43.712 34.6058 -44.608C36.3338 -45.504 38.2618 -45.952 40.3898 -45.952C42.4858 -45.952 44.3818 -45.504 46.0778 -44.608C47.7898 -43.712 49.1498 -42.352 50.1578 -40.528C51.1658 -38.704 51.6698 -36.4 51.6698 -33.616C51.6698 -30.88 51.1658 -28.6 50.1578 -26.776C49.1498 -24.968 47.7898 -23.608 46.0778 -22.696C44.3818 -21.784 42.4858 -21.328 40.3898 -21.328ZM40.1978 -26.272C41.3178 -26.272 42.3098 -26.544 43.1738 -27.088C44.0538 -27.648 44.7418 -28.472 45.2378 -29.56C45.7498 -30.648 46.0058 -32 46.0058 -33.616C46.0058 -36.08 45.5178 -37.936 44.5418 -39.184C43.5818 -40.432 42.2618 -41.056 40.5818 -41.056C39.4458 -41.056 38.4378 -40.776 37.5578 -40.216C36.6778 -39.672 35.9818 -38.848 35.4698 -37.744C34.9738 -36.64 34.7258 -35.264 34.7258 -33.616C34.7258 -31.184 35.2138 -29.352 36.1898 -28.12C37.1818 -26.888 38.5178 -26.272 40.1978 -26.272ZM73.9133 -45.376H79.5773V-22H73.9133V-45.376ZM57.9293 -45.376H63.5933V-31.072C63.5933 -29.552 63.9693 -28.408 64.7213 -27.64C65.4733 -26.888 66.5053 -26.512 67.8173 -26.512C68.9373 -26.512 69.9533 -26.8 70.8653 -27.376C71.7933 -27.968 72.5293 -28.832 73.0733 -29.968C73.6333 -31.12 73.9133 -32.544 73.9133 -34.24H75.4493C75.4493 -31.392 75.0813 -29.032 74.3453 -27.16C73.6093 -25.288 72.5933 -23.888 71.2973 -22.96C70.0013 -22.032 68.5053 -21.568 66.8093 -21.568C65.1453 -21.568 63.6413 -21.864 62.2973 -22.456C60.9533 -23.048 59.8893 -24 59.1053 -25.312C58.3213 -26.624 57.9293 -28.352 57.9293 -30.496V-45.376ZM88.5031 -22V-45.376H94.1671V-22H88.5031ZM92.7751 -32.224C92.7751 -35.28 93.1191 -37.808 93.8071 -39.808C94.4951 -41.808 95.4151 -43.288 96.5671 -44.248C97.7351 -45.224 99.0311 -45.712 100.455 -45.712C100.839 -45.712 101.199 -45.688 101.535 -45.64C101.887 -45.592 102.231 -45.52 102.567 -45.424L102.471 -39.76C102.055 -39.856 101.607 -39.936 101.127 -40C100.647 -40.064 100.215 -40.096 99.8311 -40.096C98.5831 -40.096 97.5351 -39.792 96.6871 -39.184C95.8551 -38.592 95.2231 -37.712 94.7911 -36.544C94.3751 -35.376 94.1671 -33.936 94.1671 -32.224H92.7751ZM-548.408 10.72H-541.88L-536.312 29.152H-536.744L-531.176 10.72H-524.648L-533.336 34H-539.72L-548.408 10.72ZM-516.318 6.448C-517.422 6.448 -518.286 6.16 -518.91 5.584C-519.518 4.992 -519.822 4.176 -519.822 3.136C-519.822 2.128 -519.518 1.328 -518.91 0.735999C-518.286 0.127999 -517.422 -0.176001 -516.318 -0.176001C-515.23 -0.176001 -514.374 0.127999 -513.75 0.735999C-513.126 1.328 -512.814 2.128 -512.814 3.136C-512.814 4.176 -513.126 4.992 -513.75 5.584C-514.374 6.16 -515.23 6.448 -516.318 6.448ZM-519.15 34V10.624H-513.486V34H-519.15ZM-495.288 34.672C-497.24 34.672 -499.024 34.16 -500.64 33.136C-502.24 32.096 -503.52 30.648 -504.48 28.792C-505.424 26.92 -505.896 24.736 -505.896 22.24C-505.896 19.776 -505.44 17.632 -504.528 15.808C-503.6 13.968 -502.368 12.552 -500.832 11.56C-499.28 10.552 -497.56 10.048 -495.672 10.048C-493.944 10.048 -492.448 10.464 -491.184 11.296C-489.92 12.112 -488.952 13.328 -488.28 14.944C-487.608 16.56 -487.272 18.544 -487.272 20.896H-489.048C-489.048 19.68 -489.296 18.648 -489.792 17.8C-490.288 16.936 -490.944 16.28 -491.76 15.832C-492.56 15.368 -493.432 15.136 -494.376 15.136C-495.512 15.136 -496.52 15.432 -497.4 16.024C-498.264 16.616 -498.944 17.448 -499.44 18.52C-499.936 19.576 -500.184 20.816 -500.184 22.24C-500.184 23.712 -499.936 24.992 -499.44 26.08C-498.944 27.168 -498.264 28.016 -497.4 28.624C-496.52 29.232 -495.528 29.536 -494.424 29.536C-493.528 29.536 -492.672 29.296 -491.856 28.816C-491.024 28.32 -490.352 27.632 -489.84 26.752C-489.312 25.872 -489.048 24.848 -489.048 23.68H-487.272C-487.272 26.128 -487.64 28.168 -488.376 29.8C-489.096 31.416 -490.064 32.632 -491.28 33.448C-492.496 34.264 -493.832 34.672 -495.288 34.672ZM-487.992 34L-489.048 28.24V1.072H-483.336V34H-487.992ZM-465.707 34.672C-467.691 34.672 -469.507 34.16 -471.155 33.136C-472.803 32.112 -474.123 30.68 -475.115 28.84C-476.107 26.984 -476.603 24.816 -476.603 22.336C-476.603 19.776 -476.115 17.576 -475.139 15.736C-474.147 13.896 -472.827 12.488 -471.179 11.512C-469.531 10.536 -467.707 10.048 -465.707 10.048C-463.851 10.048 -462.251 10.424 -460.907 11.176C-459.547 11.912 -458.459 12.92 -457.643 14.2C-456.811 15.464 -456.251 16.896 -455.963 18.496C-455.675 20.096 -455.659 21.744 -455.915 23.44H-472.091V20.368H-459.923L-461.027 21.088C-460.979 20.336 -461.019 19.576 -461.147 18.808C-461.259 18.04 -461.483 17.336 -461.819 16.696C-462.155 16.056 -462.635 15.544 -463.259 15.16C-463.867 14.76 -464.651 14.56 -465.611 14.56C-466.763 14.56 -467.739 14.848 -468.539 15.424C-469.339 16 -469.947 16.784 -470.363 17.776C-470.779 18.768 -470.987 19.888 -470.987 21.136V23.392C-470.987 24.704 -470.795 25.864 -470.411 26.872C-470.011 27.88 -469.427 28.672 -468.659 29.248C-467.875 29.824 -466.891 30.112 -465.707 30.112C-464.603 30.112 -463.675 29.856 -462.923 29.344C-462.171 28.832 -461.691 28.064 -461.483 27.04H-455.771C-456.011 28.544 -456.579 29.872 -457.475 31.024C-458.355 32.16 -459.499 33.056 -460.907 33.712C-462.315 34.352 -463.915 34.672 -465.707 34.672ZM-439.774 34.672C-441.902 34.672 -443.83 34.216 -445.558 33.304C-447.27 32.392 -448.63 31.032 -449.638 29.224C-450.646 27.4 -451.15 25.12 -451.15 22.384C-451.15 19.6 -450.646 17.296 -449.638 15.472C-448.63 13.648 -447.27 12.288 -445.558 11.392C-443.83 10.496 -441.902 10.048 -439.774 10.048C-437.678 10.048 -435.782 10.496 -434.086 11.392C-432.374 12.288 -431.014 13.648 -430.006 15.472C-428.998 17.296 -428.494 19.6 -428.494 22.384C-428.494 25.12 -428.998 27.4 -430.006 29.224C-431.014 31.032 -432.374 32.392 -434.086 33.304C-435.782 34.216 -437.678 34.672 -439.774 34.672ZM-439.966 29.728C-438.846 29.728 -437.854 29.456 -436.99 28.912C-436.11 28.352 -435.422 27.528 -434.926 26.44C-434.414 25.352 -434.158 24 -434.158 22.384C-434.158 19.92 -434.646 18.064 -435.622 16.816C-436.582 15.568 -437.902 14.944 -439.582 14.944C-440.718 14.944 -441.726 15.224 -442.606 15.784C-443.486 16.328 -444.182 17.152 -444.694 18.256C-445.19 19.36 -445.438 20.736 -445.438 22.384C-445.438 24.816 -444.95 26.648 -443.974 27.88C-442.982 29.112 -441.646 29.728 -439.966 29.728ZM-400.782 34.672C-402.734 34.672 -404.55 34.168 -406.23 33.16C-407.894 32.136 -409.246 30.704 -410.286 28.864C-411.31 27.008 -411.822 24.832 -411.822 22.336C-411.822 19.696 -411.31 17.464 -410.286 15.64C-409.246 13.8 -407.894 12.408 -406.23 11.464C-404.55 10.52 -402.734 10.048 -400.782 10.048C-399.262 10.048 -397.926 10.296 -396.774 10.792C-395.606 11.272 -394.614 11.928 -393.798 12.76C-392.982 13.576 -392.342 14.488 -391.878 15.496C-391.414 16.504 -391.118 17.52 -390.99 18.544L-396.702 18.688C-396.958 17.664 -397.438 16.816 -398.142 16.144C-398.83 15.472 -399.726 15.136 -400.83 15.136C-401.742 15.136 -402.598 15.392 -403.398 15.904C-404.198 16.4 -404.854 17.176 -405.366 18.232C-405.862 19.288 -406.11 20.656 -406.11 22.336C-406.11 23.936 -405.878 25.272 -405.414 26.344C-404.934 27.4 -404.294 28.2 -403.494 28.744C-402.694 29.272 -401.806 29.536 -400.83 29.536C-399.39 29.536 -398.342 29.192 -397.686 28.504C-397.03 27.8 -396.702 26.864 -396.702 25.696H-390.99C-390.99 27.344 -391.366 28.848 -392.118 30.208C-392.87 31.568 -393.974 32.656 -395.43 33.472C-396.886 34.272 -398.67 34.672 -400.782 34.672ZM-375.04 34.672C-377.168 34.672 -379.096 34.216 -380.824 33.304C-382.536 32.392 -383.896 31.032 -384.904 29.224C-385.912 27.4 -386.416 25.12 -386.416 22.384C-386.416 19.6 -385.912 17.296 -384.904 15.472C-383.896 13.648 -382.536 12.288 -380.824 11.392C-379.096 10.496 -377.168 10.048 -375.04 10.048C-372.944 10.048 -371.048 10.496 -369.352 11.392C-367.64 12.288 -366.28 13.648 -365.272 15.472C-364.264 17.296 -363.76 19.6 -363.76 22.384C-363.76 25.12 -364.264 27.4 -365.272 29.224C-366.28 31.032 -367.64 32.392 -369.352 33.304C-371.048 34.216 -372.944 34.672 -375.04 34.672ZM-375.232 29.728C-374.112 29.728 -373.12 29.456 -372.256 28.912C-371.376 28.352 -370.688 27.528 -370.192 26.44C-369.68 25.352 -369.424 24 -369.424 22.384C-369.424 19.92 -369.912 18.064 -370.888 16.816C-371.848 15.568 -373.168 14.944 -374.848 14.944C-375.984 14.944 -376.992 15.224 -377.872 15.784C-378.752 16.328 -379.448 17.152 -379.96 18.256C-380.456 19.36 -380.704 20.736 -380.704 22.384C-380.704 24.816 -380.216 26.648 -379.24 27.88C-378.248 29.112 -376.912 29.728 -375.232 29.728ZM-341.036 34V20.368C-341.036 18.64 -341.452 17.336 -342.284 16.456C-343.116 15.576 -344.204 15.136 -345.548 15.136C-346.684 15.136 -347.692 15.448 -348.572 16.072C-349.436 16.696 -350.116 17.64 -350.612 18.904C-351.108 20.152 -351.356 21.712 -351.356 23.584H-353.228C-353.228 20.56 -352.852 18.048 -352.1 16.048C-351.348 14.032 -350.284 12.528 -348.908 11.536C-347.532 10.544 -345.916 10.048 -344.06 10.048C-342.14 10.048 -340.54 10.48 -339.26 11.344C-337.964 12.192 -336.996 13.392 -336.356 14.944C-335.7 16.496 -335.372 18.304 -335.372 20.368V34H-341.036ZM-357.02 34V10.72H-352.076L-351.356 15.328V34H-357.02ZM-325.77 34V7.888C-325.77 6.208 -325.442 4.84 -324.786 3.784C-324.13 2.728 -323.266 1.952 -322.194 1.456C-321.106 0.943999 -319.93 0.688 -318.666 0.688C-317.882 0.688 -317.074 0.743999 -316.242 0.855999C-315.41 0.967999 -314.602 1.104 -313.818 1.264L-314.922 5.632C-315.322 5.488 -315.738 5.376 -316.17 5.296C-316.602 5.2 -317.018 5.152 -317.418 5.152C-317.866 5.152 -318.29 5.24 -318.69 5.416C-319.09 5.576 -319.418 5.864 -319.674 6.28C-319.93 6.696 -320.058 7.264 -320.058 7.984V34H-325.77ZM-329.226 14.464V10.72H-315.786V14.464H-329.226ZM-300.801 34.672C-302.785 34.672 -304.601 34.16 -306.249 33.136C-307.897 32.112 -309.217 30.68 -310.209 28.84C-311.201 26.984 -311.697 24.816 -311.697 22.336C-311.697 19.776 -311.209 17.576 -310.233 15.736C-309.241 13.896 -307.921 12.488 -306.273 11.512C-304.625 10.536 -302.801 10.048 -300.801 10.048C-298.945 10.048 -297.345 10.424 -296.001 11.176C-294.641 11.912 -293.553 12.92 -292.737 14.2C-291.905 15.464 -291.345 16.896 -291.057 18.496C-290.769 20.096 -290.753 21.744 -291.009 23.44H-307.185V20.368H-295.017L-296.121 21.088C-296.073 20.336 -296.113 19.576 -296.241 18.808C-296.353 18.04 -296.577 17.336 -296.913 16.696C-297.249 16.056 -297.729 15.544 -298.353 15.16C-298.961 14.76 -299.745 14.56 -300.705 14.56C-301.857 14.56 -302.833 14.848 -303.633 15.424C-304.433 16 -305.041 16.784 -305.457 17.776C-305.873 18.768 -306.081 19.888 -306.081 21.136V23.392C-306.081 24.704 -305.889 25.864 -305.505 26.872C-305.105 27.88 -304.521 28.672 -303.753 29.248C-302.969 29.824 -301.985 30.112 -300.801 30.112C-299.697 30.112 -298.769 29.856 -298.017 29.344C-297.265 28.832 -296.785 28.064 -296.577 27.04H-290.865C-291.105 28.544 -291.673 29.872 -292.569 31.024C-293.449 32.16 -294.593 33.056 -296.001 33.712C-297.409 34.352 -299.009 34.672 -300.801 34.672ZM-284.036 34V10.624H-278.372V34H-284.036ZM-279.764 23.776C-279.764 20.72 -279.42 18.192 -278.732 16.192C-278.044 14.192 -277.124 12.712 -275.972 11.752C-274.804 10.776 -273.508 10.288 -272.084 10.288C-271.7 10.288 -271.34 10.312 -271.004 10.36C-270.652 10.408 -270.308 10.48 -269.972 10.576L-270.068 16.24C-270.484 16.144 -270.932 16.064 -271.412 16C-271.892 15.936 -272.324 15.904 -272.708 15.904C-273.956 15.904 -275.004 16.208 -275.852 16.816C-276.684 17.408 -277.316 18.288 -277.748 19.456C-278.164 20.624 -278.372 22.064 -278.372 23.776H-279.764ZM-256.504 34.672C-258.488 34.672 -260.304 34.16 -261.952 33.136C-263.6 32.112 -264.92 30.68 -265.912 28.84C-266.904 26.984 -267.4 24.816 -267.4 22.336C-267.4 19.776 -266.912 17.576 -265.936 15.736C-264.944 13.896 -263.624 12.488 -261.976 11.512C-260.328 10.536 -258.504 10.048 -256.504 10.048C-254.648 10.048 -253.048 10.424 -251.704 11.176C-250.344 11.912 -249.256 12.92 -248.44 14.2C-247.608 15.464 -247.048 16.896 -246.76 18.496C-246.472 20.096 -246.456 21.744 -246.712 23.44H-262.888V20.368H-250.72L-251.824 21.088C-251.776 20.336 -251.816 19.576 -251.944 18.808C-252.056 18.04 -252.28 17.336 -252.616 16.696C-252.952 16.056 -253.432 15.544 -254.056 15.16C-254.664 14.76 -255.448 14.56 -256.408 14.56C-257.56 14.56 -258.536 14.848 -259.336 15.424C-260.136 16 -260.744 16.784 -261.16 17.776C-261.576 18.768 -261.784 19.888 -261.784 21.136V23.392C-261.784 24.704 -261.592 25.864 -261.208 26.872C-260.808 27.88 -260.224 28.672 -259.456 29.248C-258.672 29.824 -257.688 30.112 -256.504 30.112C-255.4 30.112 -254.472 29.856 -253.72 29.344C-252.968 28.832 -252.488 28.064 -252.28 27.04H-246.568C-246.808 28.544 -247.376 29.872 -248.272 31.024C-249.152 32.16 -250.296 33.056 -251.704 33.712C-253.112 34.352 -254.712 34.672 -256.504 34.672ZM-223.755 34V20.368C-223.755 18.64 -224.171 17.336 -225.003 16.456C-225.835 15.576 -226.923 15.136 -228.267 15.136C-229.403 15.136 -230.411 15.448 -231.291 16.072C-232.155 16.696 -232.835 17.64 -233.331 18.904C-233.827 20.152 -234.075 21.712 -234.075 23.584H-235.947C-235.947 20.56 -235.571 18.048 -234.819 16.048C-234.067 14.032 -233.003 12.528 -231.627 11.536C-230.251 10.544 -228.635 10.048 -226.779 10.048C-224.859 10.048 -223.259 10.48 -221.979 11.344C-220.683 12.192 -219.715 13.392 -219.075 14.944C-218.419 16.496 -218.091 18.304 -218.091 20.368V34H-223.755ZM-239.739 34V10.72H-234.795L-234.075 15.328V34H-239.739ZM-201.001 34.672C-202.953 34.672 -204.769 34.168 -206.449 33.16C-208.113 32.136 -209.465 30.704 -210.505 28.864C-211.529 27.008 -212.041 24.832 -212.041 22.336C-212.041 19.696 -211.529 17.464 -210.505 15.64C-209.465 13.8 -208.113 12.408 -206.449 11.464C-204.769 10.52 -202.953 10.048 -201.001 10.048C-199.481 10.048 -198.145 10.296 -196.993 10.792C-195.825 11.272 -194.833 11.928 -194.017 12.76C-193.201 13.576 -192.561 14.488 -192.097 15.496C-191.633 16.504 -191.337 17.52 -191.209 18.544L-196.921 18.688C-197.177 17.664 -197.657 16.816 -198.361 16.144C-199.049 15.472 -199.945 15.136 -201.049 15.136C-201.961 15.136 -202.817 15.392 -203.617 15.904C-204.417 16.4 -205.073 17.176 -205.585 18.232C-206.081 19.288 -206.329 20.656 -206.329 22.336C-206.329 23.936 -206.097 25.272 -205.633 26.344C-205.153 27.4 -204.513 28.2 -203.713 28.744C-202.913 29.272 -202.025 29.536 -201.049 29.536C-199.609 29.536 -198.561 29.192 -197.905 28.504C-197.249 27.8 -196.921 26.864 -196.921 25.696H-191.209C-191.209 27.344 -191.585 28.848 -192.337 30.208C-193.089 31.568 -194.193 32.656 -195.649 33.472C-197.105 34.272 -198.889 34.672 -201.001 34.672ZM-181.115 6.448C-182.219 6.448 -183.083 6.16 -183.707 5.584C-184.315 4.992 -184.619 4.176 -184.619 3.136C-184.619 2.128 -184.315 1.328 -183.707 0.735999C-183.083 0.127999 -182.219 -0.176001 -181.115 -0.176001C-180.027 -0.176001 -179.171 0.127999 -178.547 0.735999C-177.923 1.328 -177.611 2.128 -177.611 3.136C-177.611 4.176 -177.923 4.992 -178.547 5.584C-179.171 6.16 -180.027 6.448 -181.115 6.448ZM-183.947 34V10.624H-178.283V34H-183.947ZM-152.693 34V20.368C-152.693 18.64 -153.109 17.336 -153.941 16.456C-154.773 15.576 -155.861 15.136 -157.205 15.136C-158.341 15.136 -159.349 15.448 -160.229 16.072C-161.093 16.696 -161.773 17.64 -162.269 18.904C-162.765 20.152 -163.013 21.712 -163.013 23.584H-164.885C-164.885 20.56 -164.509 18.048 -163.757 16.048C-163.005 14.032 -161.941 12.528 -160.565 11.536C-159.189 10.544 -157.573 10.048 -155.717 10.048C-153.797 10.048 -152.197 10.48 -150.917 11.344C-149.621 12.192 -148.653 13.392 -148.013 14.944C-147.357 16.496 -147.029 18.304 -147.029 20.368V34H-152.693ZM-168.677 34V10.72H-163.733L-163.013 15.328V34H-168.677ZM-129.794 46.048C-132.466 46.048 -134.754 45.68 -136.658 44.944C-138.546 44.208 -139.994 43.24 -141.002 42.04C-142.01 40.856 -142.514 39.568 -142.514 38.176C-142.514 36.528 -141.914 35.248 -140.714 34.336C-139.514 33.44 -138.002 32.992 -136.178 32.992L-132.05 34.528C-133.618 34.528 -134.826 34.824 -135.674 35.416C-136.522 36.008 -136.946 36.832 -136.946 37.888C-136.946 38.992 -136.314 39.872 -135.05 40.528C-133.77 41.2 -132.018 41.536 -129.794 41.536C-128.178 41.536 -126.778 41.296 -125.594 40.816C-124.41 40.336 -123.498 39.712 -122.858 38.944C-122.202 38.176 -121.874 37.36 -121.874 36.496C-121.874 35.92 -122.066 35.448 -122.45 35.08C-122.834 34.712 -123.426 34.528 -124.226 34.528H-132.05C-133.618 34.528 -135.05 34.28 -136.346 33.784C-137.626 33.272 -138.65 32.592 -139.418 31.744C-140.17 30.88 -140.546 29.92 -140.546 28.864C-140.546 27.888 -140.274 27.048 -139.73 26.344C-139.186 25.624 -138.45 25.072 -137.522 24.688C-136.578 24.304 -135.522 24.112 -134.354 24.112L-132.914 25.984C-133.378 25.984 -133.826 26.08 -134.258 26.272C-134.674 26.448 -135.018 26.712 -135.29 27.064C-135.562 27.416 -135.698 27.856 -135.698 28.384C-135.698 29.024 -135.426 29.544 -134.882 29.944C-134.338 30.344 -133.394 30.544 -132.05 30.544H-124.226C-121.746 30.544 -119.802 31 -118.394 31.912C-116.97 32.824 -116.258 34.224 -116.258 36.112C-116.258 37.792 -116.81 39.384 -117.914 40.888C-119.018 42.408 -120.586 43.648 -122.618 44.608C-124.634 45.568 -127.026 46.048 -129.794 46.048ZM-129.506 26.8C-131.346 26.8 -133.034 26.456 -134.57 25.768C-136.09 25.064 -137.306 24.088 -138.218 22.84C-139.13 21.592 -139.586 20.128 -139.586 18.448C-139.586 16.736 -139.13 15.248 -138.218 13.984C-137.306 12.72 -136.09 11.752 -134.57 11.08C-133.034 10.392 -131.346 10.048 -129.506 10.048C-127.714 10.048 -126.058 10.392 -124.538 11.08C-123.018 11.752 -121.794 12.72 -120.866 13.984C-119.938 15.248 -119.474 16.736 -119.474 18.448C-119.474 20.128 -119.938 21.592 -120.866 22.84C-121.794 24.088 -123.018 25.064 -124.538 25.768C-126.058 26.456 -127.714 26.8 -129.506 26.8ZM-129.458 22.864C-127.986 22.864 -126.882 22.44 -126.146 21.592C-125.41 20.744 -125.042 19.696 -125.042 18.448C-125.042 17.104 -125.418 16.024 -126.17 15.208C-126.906 14.392 -128.018 13.984 -129.506 13.984C-130.946 13.984 -132.05 14.392 -132.818 15.208C-133.586 16.024 -133.97 17.104 -133.97 18.448C-133.97 19.696 -133.586 20.744 -132.818 21.592C-132.034 22.44 -130.914 22.864 -129.458 22.864ZM-121.25 13.792L-123.842 12.304C-123.842 10.912 -123.522 9.696 -122.882 8.656C-122.226 7.6 -121.362 6.784 -120.29 6.208C-119.202 5.632 -118.002 5.344 -116.69 5.344L-116.978 10.768C-118.37 10.768 -119.434 11.016 -120.17 11.512C-120.89 11.992 -121.25 12.752 -121.25 13.792ZM-89.7162 46.048C-92.3882 46.048 -94.6762 45.68 -96.5802 44.944C-98.4682 44.208 -99.9162 43.24 -100.924 42.04C-101.932 40.856 -102.436 39.568 -102.436 38.176C-102.436 36.528 -101.836 35.248 -100.636 34.336C-99.4362 33.44 -97.9242 32.992 -96.1003 32.992L-91.9722 34.528C-93.5402 34.528 -94.7482 34.824 -95.5962 35.416C-96.4442 36.008 -96.8682 36.832 -96.8682 37.888C-96.8682 38.992 -96.2362 39.872 -94.9722 40.528C-93.6922 41.2 -91.9402 41.536 -89.7162 41.536C-88.1002 41.536 -86.7002 41.296 -85.5162 40.816C-84.3322 40.336 -83.4202 39.712 -82.7802 38.944C-82.1242 38.176 -81.7962 37.36 -81.7962 36.496C-81.7962 35.92 -81.9882 35.448 -82.3722 35.08C-82.7562 34.712 -83.3482 34.528 -84.1482 34.528H-91.9722C-93.5402 34.528 -94.9722 34.28 -96.2682 33.784C-97.5482 33.272 -98.5722 32.592 -99.3402 31.744C-100.092 30.88 -100.468 29.92 -100.468 28.864C-100.468 27.888 -100.196 27.048 -99.6522 26.344C-99.1082 25.624 -98.3722 25.072 -97.4442 24.688C-96.5002 24.304 -95.4442 24.112 -94.2762 24.112L-92.8362 25.984C-93.3002 25.984 -93.7482 26.08 -94.1802 26.272C-94.5962 26.448 -94.9402 26.712 -95.2122 27.064C-95.4842 27.416 -95.6202 27.856 -95.6202 28.384C-95.6202 29.024 -95.3482 29.544 -94.8042 29.944C-94.2602 30.344 -93.3162 30.544 -91.9722 30.544H-84.1482C-81.6682 30.544 -79.7242 31 -78.3162 31.912C-76.8922 32.824 -76.1802 34.224 -76.1802 36.112C-76.1802 37.792 -76.7322 39.384 -77.8362 40.888C-78.9402 42.408 -80.5082 43.648 -82.5402 44.608C-84.5562 45.568 -86.9482 46.048 -89.7162 46.048ZM-89.4282 26.8C-91.2682 26.8 -92.9562 26.456 -94.4922 25.768C-96.0122 25.064 -97.2282 24.088 -98.1402 22.84C-99.0522 21.592 -99.5082 20.128 -99.5082 18.448C-99.5082 16.736 -99.0522 15.248 -98.1402 13.984C-97.2282 12.72 -96.0122 11.752 -94.4922 11.08C-92.9562 10.392 -91.2682 10.048 -89.4282 10.048C-87.6362 10.048 -85.9802 10.392 -84.4602 11.08C-82.9402 11.752 -81.7162 12.72 -80.7882 13.984C-79.8602 15.248 -79.3962 16.736 -79.3962 18.448C-79.3962 20.128 -79.8602 21.592 -80.7882 22.84C-81.7162 24.088 -82.9402 25.064 -84.4602 25.768C-85.9802 26.456 -87.6362 26.8 -89.4282 26.8ZM-89.3802 22.864C-87.9082 22.864 -86.8042 22.44 -86.0682 21.592C-85.3322 20.744 -84.9642 19.696 -84.9642 18.448C-84.9642 17.104 -85.3402 16.024 -86.0922 15.208C-86.8282 14.392 -87.9402 13.984 -89.4282 13.984C-90.8682 13.984 -91.9722 14.392 -92.7402 15.208C-93.5082 16.024 -93.8922 17.104 -93.8922 18.448C-93.8922 19.696 -93.5082 20.744 -92.7402 21.592C-91.9562 22.44 -90.8362 22.864 -89.3802 22.864ZM-81.1722 13.792L-83.7642 12.304C-83.7642 10.912 -83.4442 9.696 -82.8042 8.656C-82.1482 7.6 -81.2842 6.784 -80.2122 6.208C-79.1242 5.632 -77.9242 5.344 -76.6122 5.344L-76.9002 10.768C-78.2922 10.768 -79.3562 11.016 -80.0922 11.512C-80.8122 11.992 -81.1722 12.752 -81.1722 13.792ZM-61.5867 34.672C-63.7147 34.672 -65.6427 34.216 -67.3707 33.304C-69.0827 32.392 -70.4427 31.032 -71.4507 29.224C-72.4587 27.4 -72.9627 25.12 -72.9627 22.384C-72.9627 19.6 -72.4587 17.296 -71.4507 15.472C-70.4427 13.648 -69.0827 12.288 -67.3707 11.392C-65.6427 10.496 -63.7147 10.048 -61.5867 10.048C-59.4907 10.048 -57.5947 10.496 -55.8987 11.392C-54.1867 12.288 -52.8267 13.648 -51.8187 15.472C-50.8107 17.296 -50.3067 19.6 -50.3067 22.384C-50.3067 25.12 -50.8107 27.4 -51.8187 29.224C-52.8267 31.032 -54.1867 32.392 -55.8987 33.304C-57.5947 34.216 -59.4907 34.672 -61.5867 34.672ZM-61.7787 29.728C-60.6587 29.728 -59.6667 29.456 -58.8027 28.912C-57.9227 28.352 -57.2347 27.528 -56.7387 26.44C-56.2267 25.352 -55.9707 24 -55.9707 22.384C-55.9707 19.92 -56.4587 18.064 -57.4347 16.816C-58.3947 15.568 -59.7147 14.944 -61.3947 14.944C-62.5307 14.944 -63.5387 15.224 -64.4187 15.784C-65.2987 16.328 -65.9947 17.152 -66.5067 18.256C-67.0027 19.36 -67.2507 20.736 -67.2507 22.384C-67.2507 24.816 -66.7627 26.648 -65.7867 27.88C-64.7947 29.112 -63.4587 29.728 -61.7787 29.728ZM-28.7352 34L-29.4552 28.336V18.976C-29.4552 17.344 -29.7912 16.136 -30.4632 15.352C-31.1192 14.568 -32.2392 14.176 -33.8232 14.176C-34.7352 14.176 -35.5272 14.312 -36.1992 14.584C-36.8712 14.856 -37.3912 15.248 -37.7592 15.76C-38.1112 16.256 -38.2872 16.864 -38.2872 17.584H-44.4792C-44.4792 15.824 -44.0552 14.392 -43.2072 13.288C-42.3592 12.168 -41.1432 11.352 -39.5592 10.84C-37.9592 10.312 -36.0472 10.048 -33.8232 10.048C-31.8072 10.048 -30.0472 10.376 -28.5432 11.032C-27.0392 11.672 -25.8712 12.664 -25.0392 14.008C-24.2072 15.352 -23.7913 17.072 -23.7913 19.168V34H-28.7352ZM-36.3672 34.672C-38.3672 34.672 -40.0392 34.328 -41.3832 33.64C-42.7112 32.936 -43.7112 32.016 -44.3832 30.88C-45.0552 29.744 -45.3912 28.512 -45.3912 27.184C-45.3912 25.712 -45.0072 24.48 -44.2392 23.488C-43.4552 22.48 -42.3512 21.728 -40.9272 21.232C-39.5032 20.72 -37.8232 20.464 -35.8872 20.464C-34.6232 20.464 -33.4312 20.56 -32.3112 20.752C-31.1752 20.944 -30.0472 21.2 -28.9272 21.52V24.832C-29.8072 24.544 -30.7672 24.32 -31.8072 24.16C-32.8472 24 -33.8232 23.92 -34.7352 23.92C-36.0792 23.92 -37.1832 24.168 -38.0472 24.664C-38.9112 25.16 -39.3432 26 -39.3432 27.184C-39.3432 28.048 -38.9912 28.792 -38.2872 29.416C-37.5832 30.04 -36.4632 30.352 -34.9272 30.352C-33.7592 30.352 -32.7672 30.096 -31.9512 29.584C-31.1352 29.072 -30.5192 28.432 -30.1032 27.664C-29.6712 26.896 -29.4552 26.128 -29.4552 25.36H-28.1112C-28.1112 27.04 -28.4232 28.592 -29.0472 30.016C-29.6712 31.424 -30.5992 32.552 -31.8312 33.4C-33.0472 34.248 -34.5592 34.672 -36.3672 34.672ZM-15.4891 34V1.072H-9.82512V34H-15.4891ZM7.82388 34.672C5.58388 34.672 3.65588 34.368 2.03988 33.76C0.439875 33.136 -0.792125 32.248 -1.65612 31.096C-2.52012 29.928 -2.96012 28.528 -2.97612 26.896H2.25588C2.30388 28.048 2.75988 28.888 3.62388 29.416C4.48788 29.944 5.66388 30.208 7.15188 30.208C7.96788 30.208 8.68788 30.088 9.31188 29.848C9.95188 29.608 10.4479 29.28 10.7999 28.864C11.1519 28.448 11.3279 27.984 11.3279 27.472C11.3279 26.816 11.0879 26.304 10.6079 25.936C10.1439 25.552 9.39188 25.2 8.35188 24.88L3.26388 23.056C1.43988 22.4 0.0398754 21.536 -0.936125 20.464C-1.91212 19.392 -2.40012 18.112 -2.40012 16.624C-2.40012 14.656 -1.51212 13.072 0.263875 11.872C2.05588 10.656 4.44788 10.048 7.43988 10.048C10.4159 10.048 12.7119 10.704 14.3279 12.016C15.9599 13.312 16.7999 14.96 16.8479 16.96H11.5199C11.4399 16.192 11.0719 15.584 10.4159 15.136C9.75988 14.688 8.76788 14.464 7.43988 14.464C6.23988 14.464 5.29588 14.712 4.60788 15.208C3.93588 15.688 3.59988 16.256 3.59988 16.912C3.59988 18.016 4.54388 18.848 6.43188 19.408L11.9519 21.472C13.7439 22.08 15.1359 22.864 16.1279 23.824C17.1199 24.784 17.6159 26 17.6159 27.472C17.6159 28.704 17.1999 29.872 16.3679 30.976C15.5519 32.064 14.4079 32.952 12.9359 33.64C11.4639 34.328 9.75988 34.672 7.82388 34.672Z" fill="#D7DF23"/>
<rect x="-1174" y="-336" width="1820" height="1240" fill="black" fill-opacity="0.87"/>
<rect x="-612" y="-14" width="638" height="463" rx="8" fill="#181A20"/>
<path d="M1.625 1.625L11.375 11.375" stroke="#A6A6A8" stroke-width="2" stroke-linecap="round" stroke-linejoin="round"/>
<path d="M11.375 1.625L1.625 11.375" stroke="#A6A6A8" stroke-width="2" stroke-linecap="round" stroke-linejoin="round"/>
</svg>
