<svg width="4" height="16" viewBox="0 0 4 16" fill="none" xmlns="http://www.w3.org/2000/svg">
<path d="M1 8C1 8.23206 1.09219 8.45462 1.25628 8.61872C1.42038 8.78281 1.64294 8.875 1.875 8.875C2.10706 8.875 2.32962 8.78281 2.49372 8.61872C2.65781 8.45462 2.75 8.23206 2.75 8C2.75 7.76794 2.65781 7.54538 2.49372 7.38128C2.32962 7.21719 2.10706 7.125 1.875 7.125C1.64294 7.125 1.42038 7.21719 1.25628 7.38128C1.09219 7.54538 1 7.76794 1 8Z" stroke="white" stroke-width="1.5" stroke-linecap="round" stroke-linejoin="round"/>
<path d="M1 14.125C1 14.3571 1.09219 14.5796 1.25628 14.7437C1.42038 14.9078 1.64294 15 1.875 15C2.10706 15 2.32962 14.9078 2.49372 14.7437C2.65781 14.5796 2.75 14.3571 2.75 14.125C2.75 13.8929 2.65781 13.6704 2.49372 13.5063C2.32962 13.3422 2.10706 13.25 1.875 13.25C1.64294 13.25 1.42038 13.3422 1.25628 13.5063C1.09219 13.6704 1 13.8929 1 14.125Z" stroke="white" stroke-width="1.5" stroke-linecap="round" stroke-linejoin="round"/>
<path d="M1 1.875C1 2.10706 1.09219 2.32962 1.25628 2.49372C1.42038 2.65781 1.64294 2.75 1.875 2.75C2.10706 2.75 2.32962 2.65781 2.49372 2.49372C2.65781 2.32962 2.75 2.10706 2.75 1.875C2.75 1.64294 2.65781 1.42038 2.49372 1.25628C2.32962 1.09219 2.10706 1 1.875 1C1.64294 1 1.42038 1.09219 1.25628 1.25628C1.09219 1.42038 1 1.64294 1 1.875Z" stroke="white" stroke-width="1.5" stroke-linecap="round" stroke-linejoin="round"/>
</svg>
