<svg width="18" height="14" viewBox="0 0 18 14" fill="none" xmlns="http://www.w3.org/2000/svg">
    <path d="M9.00316 6.65507V6.66507M11.8303 3.82815C12.58 4.578 13.0011 5.59489 13.0011 6.65519C13.0011 7.71549 12.58 8.73238 11.8303 9.48224M14.6575 1C15.4002 1.74262 15.9893 2.62426 16.3912 3.59456C16.7931 4.56487 17 5.60484 17 6.65509C17 7.70535 16.7931 8.74532 16.3912 9.71562C15.9893 10.6859 15.4002 11.5676 14.6575 12.3102M6.17135 9.48224C5.42172 8.73238 5.0006 7.71549 5.0006 6.65519C5.0006 5.59489 5.42172 4.578 6.17135 3.82815M3.3425 12.3102C2.59984 11.5676 2.01073 10.6859 1.6088 9.71562C1.20687 8.74532 1 7.70535 1 6.65509C1 5.60484 1.20687 4.56487 1.6088 3.59456C2.01073 2.62426 2.59984 1.74262 3.3425 1" stroke="#283140" stroke-width="1.5" stroke-linecap="round" stroke-linejoin="round"/>
    </svg>