<svg width="330" height="35" viewBox="0 0 330 35" fill="none" xmlns="http://www.w3.org/2000/svg">
<path d="M0.504375 12V1.712H4.25638C5.47238 1.712 6.40038 1.99733 7.04038 2.568C7.68571 3.13867 8.00838 3.89333 8.00838 4.832C8.00838 5.76 7.68571 6.50933 7.04038 7.08C6.40038 7.65067 5.47238 7.936 4.25638 7.936H2.21638V12H0.504375ZM6.12838 12L3.34438 7.216H5.17638L8.36038 12H6.12838ZM2.21638 6.776H4.08838C4.79771 6.776 5.33638 6.61067 5.70438 6.28C6.07238 5.944 6.25638 5.512 6.25638 4.984C6.25638 4.44 6.08571 4.00533 5.74438 3.68C5.40838 3.34933 4.91238 3.184 4.25638 3.184H2.21638V6.776ZM13.4926 12.216C12.8313 12.216 12.2286 12.0453 11.6846 11.704C11.146 11.3627 10.714 10.8853 10.3886 10.272C10.0686 9.65867 9.90863 8.94667 9.90863 8.136C9.90863 7.28267 10.0686 6.552 10.3886 5.944C10.7086 5.336 11.138 4.86933 11.6766 4.544C12.2206 4.21867 12.826 4.056 13.4926 4.056C14.106 4.056 14.6313 4.17867 15.0686 4.424C15.506 4.66933 15.858 5 16.1246 5.416C16.3966 5.832 16.5806 6.304 16.6766 6.832C16.7726 7.35467 16.7833 7.896 16.7086 8.456H11.2766V7.504H15.5166L15.1486 7.744C15.1646 7.472 15.1513 7.2 15.1086 6.928C15.066 6.656 14.9833 6.408 14.8606 6.184C14.7433 5.95467 14.5753 5.77067 14.3566 5.632C14.138 5.49333 13.8606 5.424 13.5246 5.424C13.1086 5.424 12.7566 5.528 12.4686 5.736C12.186 5.944 11.9726 6.224 11.8286 6.576C11.6846 6.928 11.6126 7.32 11.6126 7.752V8.44C11.6126 8.904 11.682 9.31467 11.8206 9.672C11.9593 10.0293 12.1673 10.312 12.4446 10.52C12.722 10.728 13.0713 10.832 13.4926 10.832C13.898 10.832 14.234 10.7387 14.5006 10.552C14.7726 10.36 14.9433 10.0747 15.0126 9.696H16.7486C16.6686 10.1973 16.482 10.6373 16.1886 11.016C15.8953 11.3947 15.5193 11.6907 15.0606 11.904C14.602 12.112 14.0793 12.216 13.4926 12.216ZM21.9469 12.216C21.3069 12.216 20.7095 12.048 20.1549 11.712C19.6055 11.376 19.1602 10.9013 18.8189 10.288C18.4829 9.67467 18.3149 8.95467 18.3149 8.128C18.3149 7.25333 18.4829 6.51467 18.8189 5.912C19.1602 5.304 19.6055 4.84267 20.1549 4.528C20.7095 4.21333 21.3069 4.056 21.9469 4.056C22.4322 4.056 22.8615 4.13333 23.2349 4.288C23.6135 4.44267 23.9362 4.65067 24.2029 4.912C24.4695 5.17333 24.6802 5.46667 24.8349 5.792C24.9949 6.112 25.1015 6.44 25.1549 6.776L23.4189 6.84C23.3229 6.472 23.1469 6.17333 22.8909 5.944C22.6402 5.70933 22.3202 5.592 21.9309 5.592C21.6055 5.592 21.2989 5.68267 21.0109 5.864C20.7282 6.04 20.4962 6.31467 20.3149 6.688C20.1389 7.06133 20.0509 7.54133 20.0509 8.128C20.0509 8.67733 20.1335 9.14133 20.2989 9.52C20.4642 9.89333 20.6882 10.1787 20.9709 10.376C21.2589 10.568 21.5789 10.664 21.9309 10.664C22.4375 10.664 22.8109 10.5413 23.0509 10.296C23.2962 10.0453 23.4189 9.70933 23.4189 9.288H25.1549C25.1549 9.832 25.0295 10.3253 24.7789 10.768C24.5282 11.2107 24.1629 11.5627 23.6829 11.824C23.2082 12.0853 22.6295 12.216 21.9469 12.216ZM30.4491 12.216C29.7505 12.216 29.1185 12.064 28.5531 11.76C27.9931 11.456 27.5478 11.0027 27.2171 10.4C26.8865 9.79733 26.7211 9.04533 26.7211 8.144C26.7211 7.22667 26.8865 6.46667 27.2171 5.864C27.5478 5.26133 27.9931 4.81067 28.5531 4.512C29.1185 4.208 29.7505 4.056 30.4491 4.056C31.1478 4.056 31.7745 4.208 32.3291 4.512C32.8891 4.81067 33.3318 5.26133 33.6571 5.864C33.9878 6.46667 34.1531 7.22667 34.1531 8.144C34.1531 9.04533 33.9878 9.79733 33.6571 10.4C33.3318 11.0027 32.8891 11.456 32.3291 11.76C31.7745 12.064 31.1478 12.216 30.4491 12.216ZM30.4011 10.72C30.8065 10.72 31.1611 10.6213 31.4651 10.424C31.7745 10.2267 32.0145 9.936 32.1851 9.552C32.3558 9.168 32.4411 8.69867 32.4411 8.144C32.4411 7.296 32.2705 6.65067 31.9291 6.208C31.5931 5.76 31.1185 5.536 30.5051 5.536C30.0945 5.536 29.7345 5.63467 29.4251 5.832C29.1211 6.02933 28.8838 6.32267 28.7131 6.712C28.5425 7.10133 28.4571 7.57867 28.4571 8.144C28.4571 8.976 28.6278 9.61333 28.9691 10.056C29.3105 10.4987 29.7878 10.72 30.4011 10.72ZM36.4419 12V4.24H38.1539V12H36.4419ZM37.7139 8.576C37.7139 7.57333 37.8232 6.744 38.0419 6.088C38.2605 5.42667 38.5592 4.936 38.9379 4.616C39.3165 4.29067 39.7485 4.128 40.2339 4.128C40.3779 4.128 40.5085 4.13867 40.6259 4.16C40.7485 4.176 40.8712 4.20267 40.9939 4.24L40.9459 5.944C40.8019 5.90667 40.6472 5.87733 40.4819 5.856C40.3219 5.82933 40.1752 5.816 40.0419 5.816C39.6205 5.816 39.2685 5.92533 38.9859 6.144C38.7085 6.35733 38.5005 6.66933 38.3619 7.08C38.2232 7.49067 38.1539 7.98933 38.1539 8.576H37.7139ZM45.4145 12.216C44.7745 12.216 44.1878 12.0453 43.6545 11.704C43.1212 11.3627 42.6972 10.8853 42.3825 10.272C42.0678 9.65333 41.9105 8.928 41.9105 8.096C41.9105 7.27467 42.0625 6.56267 42.3665 5.96C42.6758 5.352 43.0865 4.88267 43.5985 4.552C44.1105 4.22133 44.6785 4.056 45.3025 4.056C45.8732 4.056 46.3692 4.19467 46.7905 4.472C47.2118 4.744 47.5345 5.14667 47.7585 5.68C47.9878 6.208 48.1025 6.856 48.1025 7.624H47.5425C47.5425 7.192 47.4545 6.824 47.2785 6.52C47.1025 6.216 46.8732 5.98667 46.5905 5.832C46.3078 5.672 46.0012 5.592 45.6705 5.592C45.2865 5.592 44.9398 5.696 44.6305 5.904C44.3265 6.10667 44.0865 6.39733 43.9105 6.776C43.7345 7.14933 43.6465 7.58933 43.6465 8.096C43.6465 8.61867 43.7345 9.072 43.9105 9.456C44.0865 9.84 44.3265 10.1387 44.6305 10.352C44.9398 10.56 45.2838 10.664 45.6625 10.664C45.9772 10.664 46.2758 10.5813 46.5585 10.416C46.8465 10.2453 47.0812 10.008 47.2625 9.704C47.4492 9.39467 47.5425 9.02933 47.5425 8.608H48.1025C48.1025 9.40267 47.9798 10.0693 47.7345 10.608C47.4945 11.1413 47.1692 11.544 46.7585 11.816C46.3532 12.0827 45.9052 12.216 45.4145 12.216ZM47.8545 12L47.5425 10.112V1.04H49.2625V12H47.8545ZM53.3169 2.744C52.9809 2.744 52.7169 2.65333 52.5249 2.472C52.3329 2.28533 52.2369 2.03467 52.2369 1.72C52.2369 1.41067 52.3329 1.16533 52.5249 0.983999C52.7169 0.802666 52.9809 0.712 53.3169 0.712C53.6475 0.712 53.9089 0.802666 54.1009 0.983999C54.2929 1.16533 54.3889 1.41067 54.3889 1.72C54.3889 2.03467 54.2929 2.28533 54.1009 2.472C53.9089 2.65333 53.6475 2.744 53.3169 2.744ZM52.4609 12V4.24H54.1729V12H52.4609ZM62.7863 12V7.472C62.7863 6.85333 62.6369 6.38667 62.3383 6.072C62.0449 5.752 61.6529 5.592 61.1623 5.592C60.7623 5.592 60.4103 5.70133 60.1063 5.92C59.8023 6.13867 59.5649 6.464 59.3943 6.896C59.2236 7.328 59.1383 7.85867 59.1383 8.488H58.5543C58.5543 7.512 58.6769 6.696 58.9223 6.04C59.1729 5.384 59.5249 4.89067 59.9783 4.56C60.4369 4.224 60.9783 4.056 61.6023 4.056C62.2316 4.056 62.7596 4.19733 63.1863 4.48C63.6183 4.76267 63.9436 5.16 64.1623 5.672C64.3863 6.184 64.4983 6.784 64.4983 7.472V12H62.7863ZM57.4263 12V4.272H58.9223L59.1383 5.872V12H57.4263ZM70.2133 15.992C69.3546 15.992 68.6159 15.872 67.9973 15.632C67.3839 15.3973 66.9119 15.0827 66.5813 14.688C66.2506 14.2987 66.0853 13.8747 66.0853 13.416C66.0853 12.856 66.2879 12.424 66.6933 12.12C67.1039 11.816 67.6239 11.664 68.2533 11.664L69.4453 12.152C68.9066 12.152 68.4906 12.256 68.1973 12.464C67.9093 12.6773 67.7653 12.968 67.7653 13.336C67.7653 13.72 67.9786 14.0293 68.4053 14.264C68.8373 14.504 69.4399 14.624 70.2133 14.624C70.7839 14.624 71.2773 14.5413 71.6933 14.376C72.1146 14.2107 72.4399 13.992 72.6693 13.72C72.8986 13.4533 73.0133 13.1707 73.0133 12.872C73.0133 12.6693 72.9413 12.4987 72.7973 12.36C72.6586 12.2213 72.4426 12.152 72.1493 12.152H69.4453C68.9226 12.152 68.4533 12.0693 68.0373 11.904C67.6266 11.7387 67.3013 11.5173 67.0613 11.24C66.8213 10.9627 66.7013 10.656 66.7013 10.32C66.7013 9.99467 66.7919 9.71733 66.9733 9.488C67.1546 9.25333 67.3973 9.07467 67.7013 8.952C68.0106 8.824 68.3519 8.76 68.7253 8.76L69.1413 9.336C68.9813 9.336 68.8266 9.368 68.6773 9.432C68.5333 9.496 68.4133 9.592 68.3173 9.72C68.2213 9.84267 68.1733 9.99733 68.1733 10.184C68.1733 10.4027 68.2666 10.584 68.4533 10.728C68.6453 10.872 68.9759 10.944 69.4453 10.944H72.1493C72.9493 10.944 73.5759 11.096 74.0293 11.4C74.4879 11.6987 74.7173 12.152 74.7173 12.76C74.7173 13.304 74.5333 13.8213 74.1653 14.312C73.8026 14.808 73.2853 15.2107 72.6133 15.52C71.9413 15.8347 71.1413 15.992 70.2133 15.992ZM70.3493 9.648C69.7413 9.648 69.1866 9.53333 68.6853 9.304C68.1893 9.06933 67.7919 8.744 67.4933 8.328C67.1999 7.90667 67.0533 7.416 67.0533 6.856C67.0533 6.29067 67.1999 5.79733 67.4933 5.376C67.7919 4.95467 68.1893 4.62933 68.6853 4.4C69.1866 4.17067 69.7413 4.056 70.3493 4.056C70.9413 4.056 71.4853 4.17067 71.9813 4.4C72.4773 4.62933 72.8746 4.95467 73.1733 5.376C73.4719 5.79733 73.6213 6.29067 73.6213 6.856C73.6213 7.416 73.4719 7.90667 73.1733 8.328C72.8746 8.744 72.4773 9.06933 71.9813 9.304C71.4853 9.53333 70.9413 9.648 70.3493 9.648ZM70.3573 8.448C70.8746 8.448 71.2666 8.296 71.5333 7.992C71.8053 7.688 71.9413 7.30933 71.9413 6.856C71.9413 6.376 71.8053 5.98933 71.5333 5.696C71.2666 5.40267 70.8719 5.256 70.3493 5.256C69.8426 5.256 69.4506 5.40267 69.1733 5.696C68.8959 5.98933 68.7573 6.376 68.7573 6.856C68.7573 7.30933 68.8959 7.688 69.1733 7.992C69.4506 8.296 69.8453 8.448 70.3573 8.448ZM73.0373 5.296L72.2453 4.872C72.2453 4.408 72.3466 4.00533 72.5493 3.664C72.7573 3.31733 73.0373 3.048 73.3893 2.856C73.7413 2.664 74.1359 2.568 74.5733 2.568L74.4773 4.216C74.0079 4.216 73.6506 4.304 73.4053 4.48C73.1599 4.656 73.0373 4.928 73.0373 5.296ZM79.3916 12.216C78.6503 12.216 78.0156 12.112 77.4876 11.904C76.965 11.696 76.5623 11.4027 76.2796 11.024C76.0023 10.64 75.861 10.184 75.8556 9.656H77.4476C77.469 10.0667 77.6343 10.3707 77.9436 10.568C78.253 10.76 78.6716 10.856 79.1996 10.856C79.4876 10.856 79.7463 10.8133 79.9756 10.728C80.205 10.6373 80.3836 10.5173 80.5116 10.368C80.645 10.2133 80.7116 10.0427 80.7116 9.856C80.7116 9.616 80.6236 9.42667 80.4476 9.288C80.277 9.14933 79.9996 9.024 79.6156 8.912L77.9756 8.344C77.357 8.13067 76.8823 7.84533 76.5516 7.488C76.221 7.13067 76.0556 6.704 76.0556 6.208C76.0556 5.56267 76.3463 5.04267 76.9276 4.648C77.509 4.25333 78.2823 4.056 79.2476 4.056C80.229 4.056 80.9863 4.26667 81.5196 4.688C82.053 5.10933 82.3276 5.64 82.3436 6.28H80.7196C80.6876 6.00267 80.5516 5.78667 80.3116 5.632C80.0716 5.472 79.717 5.392 79.2476 5.392C78.8156 5.392 78.477 5.48533 78.2316 5.672C77.9916 5.85333 77.8716 6.06133 77.8716 6.296C77.8716 6.70667 78.2236 7.01333 78.9276 7.216L80.6796 7.856C81.293 8.05867 81.7676 8.32 82.1036 8.64C82.4396 8.96 82.6076 9.36533 82.6076 9.856C82.6076 10.2613 82.4716 10.6453 82.1996 11.008C81.933 11.3653 81.5596 11.656 81.0796 11.88C80.5996 12.104 80.037 12.216 79.3916 12.216ZM87.6535 4.272H89.4375L91.1975 10.296H91.0135L92.6855 4.672H94.2135L95.8775 10.312H95.7015L97.4535 4.272H99.1655L96.6215 12H94.9415L93.2775 6.712H93.5415L91.9095 12H90.2215L87.6535 4.272ZM101.926 2.744C101.59 2.744 101.326 2.65333 101.134 2.472C100.942 2.28533 100.846 2.03467 100.846 1.72C100.846 1.41067 100.942 1.16533 101.134 0.983999C101.326 0.802666 101.59 0.712 101.926 0.712C102.257 0.712 102.518 0.802666 102.71 0.983999C102.902 1.16533 102.998 1.41067 102.998 1.72C102.998 2.03467 102.902 2.28533 102.71 2.472C102.518 2.65333 102.257 2.744 101.926 2.744ZM101.07 12V4.24H102.782V12H101.07ZM106.036 12V1.04H107.748V12H106.036ZM110.801 12V1.04H112.513V12H110.801ZM124.439 12L124.223 10.168V7.008C124.223 6.42133 124.103 5.992 123.863 5.72C123.623 5.448 123.231 5.312 122.687 5.312C122.373 5.312 122.098 5.35733 121.863 5.448C121.629 5.53867 121.445 5.67467 121.311 5.856C121.183 6.032 121.119 6.25067 121.119 6.512H119.239C119.239 5.93067 119.378 5.46133 119.655 5.104C119.938 4.74133 120.335 4.47733 120.847 4.312C121.365 4.14133 121.978 4.056 122.687 4.056C123.333 4.056 123.898 4.16267 124.383 4.376C124.874 4.584 125.255 4.90933 125.527 5.352C125.799 5.79467 125.935 6.36533 125.935 7.064V12H124.439ZM121.879 12.216C121.223 12.216 120.677 12.1013 120.239 11.872C119.807 11.6427 119.482 11.3413 119.263 10.968C119.045 10.5947 118.935 10.192 118.935 9.76C118.935 9.264 119.063 8.85067 119.319 8.52C119.581 8.18933 119.943 7.944 120.407 7.784C120.877 7.61867 121.423 7.536 122.047 7.536C122.463 7.536 122.861 7.57067 123.239 7.64C123.623 7.704 124.005 7.79467 124.383 7.912V8.928C124.079 8.82133 123.746 8.73867 123.383 8.68C123.026 8.62133 122.69 8.592 122.375 8.592C121.911 8.592 121.525 8.68267 121.215 8.864C120.911 9.04 120.759 9.33867 120.759 9.76C120.759 10.0747 120.882 10.344 121.127 10.568C121.373 10.792 121.762 10.904 122.295 10.904C122.69 10.904 123.031 10.816 123.319 10.64C123.607 10.4587 123.829 10.2347 123.983 9.968C124.143 9.70133 124.223 9.43733 124.223 9.176H124.631C124.631 9.72 124.525 10.224 124.311 10.688C124.103 11.1467 123.794 11.5173 123.383 11.8C122.978 12.0773 122.477 12.216 121.879 12.216ZM132.53 12.216C131.965 12.216 131.48 12.0933 131.074 11.848C130.669 11.5973 130.36 11.224 130.146 10.728C129.933 10.232 129.826 9.61333 129.826 8.872H130.466C130.466 9.25067 130.552 9.57333 130.722 9.84C130.893 10.1067 131.117 10.312 131.394 10.456C131.677 10.5947 131.976 10.664 132.29 10.664C132.626 10.664 132.954 10.5707 133.274 10.384C133.594 10.1973 133.858 9.91733 134.066 9.544C134.274 9.16533 134.378 8.69333 134.378 8.128C134.378 7.6 134.288 7.14667 134.106 6.768C133.925 6.38933 133.68 6.09867 133.37 5.896C133.061 5.69333 132.712 5.592 132.322 5.592C131.992 5.592 131.685 5.66933 131.402 5.824C131.12 5.97333 130.893 6.19467 130.722 6.488C130.552 6.776 130.466 7.13067 130.466 7.552H129.826C129.826 6.75733 129.952 6.10133 130.202 5.584C130.453 5.06667 130.789 4.68267 131.21 4.432C131.632 4.18133 132.093 4.056 132.594 4.056C133.208 4.056 133.781 4.21867 134.314 4.544C134.848 4.864 135.28 5.328 135.61 5.936C135.941 6.544 136.106 7.27467 136.106 8.128C136.106 8.98667 135.938 9.72 135.602 10.328C135.272 10.936 134.832 11.4027 134.282 11.728C133.738 12.0533 133.154 12.216 132.53 12.216ZM128.754 15.784V4.272H130.17L130.466 6.152V15.784H128.754ZM142.171 12.216C141.606 12.216 141.12 12.0933 140.715 11.848C140.31 11.5973 140 11.224 139.787 10.728C139.574 10.232 139.467 9.61333 139.467 8.872H140.107C140.107 9.25067 140.192 9.57333 140.363 9.84C140.534 10.1067 140.758 10.312 141.035 10.456C141.318 10.5947 141.616 10.664 141.931 10.664C142.267 10.664 142.595 10.5707 142.915 10.384C143.235 10.1973 143.499 9.91733 143.707 9.544C143.915 9.16533 144.019 8.69333 144.019 8.128C144.019 7.6 143.928 7.14667 143.747 6.768C143.566 6.38933 143.32 6.09867 143.011 5.896C142.702 5.69333 142.352 5.592 141.963 5.592C141.632 5.592 141.326 5.66933 141.043 5.824C140.76 5.97333 140.534 6.19467 140.363 6.488C140.192 6.776 140.107 7.13067 140.107 7.552H139.467C139.467 6.75733 139.592 6.10133 139.843 5.584C140.094 5.06667 140.43 4.68267 140.851 4.432C141.272 4.18133 141.734 4.056 142.235 4.056C142.848 4.056 143.422 4.21867 143.955 4.544C144.488 4.864 144.92 5.328 145.251 5.936C145.582 6.544 145.747 7.27467 145.747 8.128C145.747 8.98667 145.579 9.72 145.243 10.328C144.912 10.936 144.472 11.4027 143.923 11.728C143.379 12.0533 142.795 12.216 142.171 12.216ZM138.395 15.784V4.272H139.811L140.107 6.152V15.784H138.395ZM150.868 12.216C150.206 12.216 149.604 12.0453 149.06 11.704C148.521 11.3627 148.089 10.8853 147.764 10.272C147.444 9.65867 147.284 8.94667 147.284 8.136C147.284 7.28267 147.444 6.552 147.764 5.944C148.084 5.336 148.513 4.86933 149.052 4.544C149.596 4.21867 150.201 4.056 150.868 4.056C151.481 4.056 152.006 4.17867 152.444 4.424C152.881 4.66933 153.233 5 153.5 5.416C153.772 5.832 153.956 6.304 154.052 6.832C154.148 7.35467 154.158 7.896 154.084 8.456H148.652V7.504H152.892L152.524 7.744C152.54 7.472 152.526 7.2 152.484 6.928C152.441 6.656 152.358 6.408 152.236 6.184C152.118 5.95467 151.95 5.77067 151.732 5.632C151.513 5.49333 151.236 5.424 150.9 5.424C150.484 5.424 150.132 5.528 149.844 5.736C149.561 5.944 149.348 6.224 149.204 6.576C149.06 6.928 148.988 7.32 148.988 7.752V8.44C148.988 8.904 149.057 9.31467 149.196 9.672C149.334 10.0293 149.542 10.312 149.82 10.52C150.097 10.728 150.446 10.832 150.868 10.832C151.273 10.832 151.609 10.7387 151.876 10.552C152.148 10.36 152.318 10.0747 152.388 9.696H154.124C154.044 10.1973 153.857 10.6373 153.564 11.016C153.27 11.3947 152.894 11.6907 152.436 11.904C151.977 12.112 151.454 12.216 150.868 12.216ZM161.33 12L161.114 10.168V7.008C161.114 6.42133 160.994 5.992 160.754 5.72C160.514 5.448 160.122 5.312 159.578 5.312C159.263 5.312 158.989 5.35733 158.754 5.448C158.519 5.53867 158.335 5.67467 158.202 5.856C158.074 6.032 158.01 6.25067 158.01 6.512H156.13C156.13 5.93067 156.269 5.46133 156.546 5.104C156.829 4.74133 157.226 4.47733 157.738 4.312C158.255 4.14133 158.869 4.056 159.578 4.056C160.223 4.056 160.789 4.16267 161.274 4.376C161.765 4.584 162.146 4.90933 162.418 5.352C162.69 5.79467 162.826 6.36533 162.826 7.064V12H161.33ZM158.77 12.216C158.114 12.216 157.567 12.1013 157.13 11.872C156.698 11.6427 156.373 11.3413 156.154 10.968C155.935 10.5947 155.826 10.192 155.826 9.76C155.826 9.264 155.954 8.85067 156.21 8.52C156.471 8.18933 156.834 7.944 157.298 7.784C157.767 7.61867 158.314 7.536 158.938 7.536C159.354 7.536 159.751 7.57067 160.13 7.64C160.514 7.704 160.895 7.79467 161.274 7.912V8.928C160.97 8.82133 160.637 8.73867 160.274 8.68C159.917 8.62133 159.581 8.592 159.266 8.592C158.802 8.592 158.415 8.68267 158.106 8.864C157.802 9.04 157.65 9.33867 157.65 9.76C157.65 10.0747 157.773 10.344 158.018 10.568C158.263 10.792 158.653 10.904 159.186 10.904C159.581 10.904 159.922 10.816 160.21 10.64C160.498 10.4587 160.719 10.2347 160.874 9.968C161.034 9.70133 161.114 9.43733 161.114 9.176H161.522C161.522 9.72 161.415 10.224 161.202 10.688C160.994 11.1467 160.685 11.5173 160.274 11.8C159.869 12.0773 159.367 12.216 158.77 12.216ZM165.645 12V4.24H167.357V12H165.645ZM166.917 8.576C166.917 7.57333 167.026 6.744 167.245 6.088C167.464 5.42667 167.762 4.936 168.141 4.616C168.52 4.29067 168.952 4.128 169.437 4.128C169.581 4.128 169.712 4.13867 169.829 4.16C169.952 4.176 170.074 4.20267 170.197 4.24L170.149 5.944C170.005 5.90667 169.85 5.87733 169.685 5.856C169.525 5.82933 169.378 5.816 169.245 5.816C168.824 5.816 168.472 5.92533 168.189 6.144C167.912 6.35733 167.704 6.66933 167.565 7.08C167.426 7.49067 167.357 7.98933 167.357 8.576H166.917ZM181.13 12V7.472C181.13 6.85333 180.981 6.38667 180.682 6.072C180.389 5.752 179.997 5.592 179.506 5.592C179.106 5.592 178.754 5.70133 178.45 5.92C178.146 6.13867 177.909 6.464 177.738 6.896C177.567 7.328 177.482 7.85867 177.482 8.488H176.898C176.898 7.512 177.021 6.696 177.266 6.04C177.517 5.384 177.869 4.89067 178.322 4.56C178.781 4.224 179.322 4.056 179.946 4.056C180.575 4.056 181.103 4.19733 181.53 4.48C181.962 4.76267 182.287 5.16 182.506 5.672C182.73 6.184 182.842 6.784 182.842 7.472V12H181.13ZM175.77 12V1.04H177.482V12H175.77ZM188.477 12.216C187.816 12.216 187.213 12.0453 186.669 11.704C186.13 11.3627 185.698 10.8853 185.373 10.272C185.053 9.65867 184.893 8.94667 184.893 8.136C184.893 7.28267 185.053 6.552 185.373 5.944C185.693 5.336 186.122 4.86933 186.661 4.544C187.205 4.21867 187.81 4.056 188.477 4.056C189.09 4.056 189.616 4.17867 190.053 4.424C190.49 4.66933 190.842 5 191.109 5.416C191.381 5.832 191.565 6.304 191.661 6.832C191.757 7.35467 191.768 7.896 191.693 8.456H186.261V7.504H190.501L190.133 7.744C190.149 7.472 190.136 7.2 190.093 6.928C190.05 6.656 189.968 6.408 189.845 6.184C189.728 5.95467 189.56 5.77067 189.341 5.632C189.122 5.49333 188.845 5.424 188.509 5.424C188.093 5.424 187.741 5.528 187.453 5.736C187.17 5.944 186.957 6.224 186.813 6.576C186.669 6.928 186.597 7.32 186.597 7.752V8.44C186.597 8.904 186.666 9.31467 186.805 9.672C186.944 10.0293 187.152 10.312 187.429 10.52C187.706 10.728 188.056 10.832 188.477 10.832C188.882 10.832 189.218 10.7387 189.485 10.552C189.757 10.36 189.928 10.0747 189.997 9.696H191.733C191.653 10.1973 191.466 10.6373 191.173 11.016C190.88 11.3947 190.504 11.6907 190.045 11.904C189.586 12.112 189.064 12.216 188.477 12.216ZM194.051 12V4.24H195.763V12H194.051ZM195.323 8.576C195.323 7.57333 195.433 6.744 195.651 6.088C195.87 5.42667 196.169 4.936 196.547 4.616C196.926 4.29067 197.358 4.128 197.843 4.128C197.987 4.128 198.118 4.13867 198.235 4.16C198.358 4.176 198.481 4.20267 198.603 4.24L198.555 5.944C198.411 5.90667 198.257 5.87733 198.091 5.856C197.931 5.82933 197.785 5.816 197.651 5.816C197.23 5.816 196.878 5.92533 196.595 6.144C196.318 6.35733 196.11 6.66933 195.971 7.08C195.833 7.49067 195.763 7.98933 195.763 8.576H195.323ZM203.024 12.216C202.363 12.216 201.76 12.0453 201.216 11.704C200.677 11.3627 200.245 10.8853 199.92 10.272C199.6 9.65867 199.44 8.94667 199.44 8.136C199.44 7.28267 199.6 6.552 199.92 5.944C200.24 5.336 200.669 4.86933 201.208 4.544C201.752 4.21867 202.357 4.056 203.024 4.056C203.637 4.056 204.163 4.17867 204.6 4.424C205.037 4.66933 205.389 5 205.656 5.416C205.928 5.832 206.112 6.304 206.208 6.832C206.304 7.35467 206.315 7.896 206.24 8.456H200.808V7.504H205.048L204.68 7.744C204.696 7.472 204.683 7.2 204.64 6.928C204.597 6.656 204.515 6.408 204.392 6.184C204.275 5.95467 204.107 5.77067 203.888 5.632C203.669 5.49333 203.392 5.424 203.056 5.424C202.64 5.424 202.288 5.528 202 5.736C201.717 5.944 201.504 6.224 201.36 6.576C201.216 6.928 201.144 7.32 201.144 7.752V8.44C201.144 8.904 201.213 9.31467 201.352 9.672C201.491 10.0293 201.699 10.312 201.976 10.52C202.253 10.728 202.603 10.832 203.024 10.832C203.429 10.832 203.765 10.7387 204.032 10.552C204.304 10.36 204.475 10.0747 204.544 9.696H206.28C206.2 10.1973 206.013 10.6373 205.72 11.016C205.427 11.3947 205.051 11.6907 204.592 11.904C204.133 12.112 203.611 12.216 203.024 12.216ZM217.471 12L217.255 10.168V7.008C217.255 6.42133 217.135 5.992 216.895 5.72C216.655 5.448 216.263 5.312 215.719 5.312C215.404 5.312 215.129 5.35733 214.895 5.448C214.66 5.53867 214.476 5.67467 214.343 5.856C214.215 6.032 214.151 6.25067 214.151 6.512H212.271C212.271 5.93067 212.409 5.46133 212.687 5.104C212.969 4.74133 213.367 4.47733 213.879 4.312C214.396 4.14133 215.009 4.056 215.719 4.056C216.364 4.056 216.929 4.16267 217.415 4.376C217.905 4.584 218.287 4.90933 218.559 5.352C218.831 5.79467 218.967 6.36533 218.967 7.064V12H217.471ZM214.911 12.216C214.255 12.216 213.708 12.1013 213.271 11.872C212.839 11.6427 212.513 11.3413 212.295 10.968C212.076 10.5947 211.967 10.192 211.967 9.76C211.967 9.264 212.095 8.85067 212.351 8.52C212.612 8.18933 212.975 7.944 213.439 7.784C213.908 7.61867 214.455 7.536 215.079 7.536C215.495 7.536 215.892 7.57067 216.271 7.64C216.655 7.704 217.036 7.79467 217.415 7.912V8.928C217.111 8.82133 216.777 8.73867 216.415 8.68C216.057 8.62133 215.721 8.592 215.407 8.592C214.943 8.592 214.556 8.68267 214.247 8.864C213.943 9.04 213.791 9.33867 213.791 9.76C213.791 10.0747 213.913 10.344 214.159 10.568C214.404 10.792 214.793 10.904 215.327 10.904C215.721 10.904 216.063 10.816 216.351 10.64C216.639 10.4587 216.86 10.2347 217.015 9.968C217.175 9.70133 217.255 9.43733 217.255 9.176H217.663C217.663 9.72 217.556 10.224 217.343 10.688C217.135 11.1467 216.825 11.5173 216.415 11.8C216.009 12.0773 215.508 12.216 214.911 12.216ZM222.226 12V3.264C222.226 2.71467 222.332 2.26933 222.546 1.928C222.759 1.58133 223.042 1.328 223.394 1.168C223.746 1.00267 224.13 0.919999 224.546 0.919999C224.791 0.919999 225.044 0.938666 225.306 0.976C225.572 1.008 225.831 1.05333 226.082 1.112L225.754 2.44C225.61 2.38667 225.463 2.34667 225.314 2.32C225.17 2.288 225.028 2.272 224.89 2.272C224.735 2.272 224.586 2.30133 224.442 2.36C224.298 2.41867 224.18 2.52267 224.09 2.672C223.999 2.816 223.954 3.02133 223.954 3.288V12H222.226ZM221.05 5.416V4.272H225.418V5.416H221.05ZM230.103 12.216C229.655 12.216 229.247 12.1333 228.879 11.968C228.517 11.7973 228.226 11.5413 228.007 11.2C227.789 10.8533 227.679 10.4187 227.679 9.896V2.192H229.383V9.84C229.383 10.5173 229.706 10.856 230.351 10.856C230.549 10.856 230.743 10.8347 230.935 10.792C231.127 10.7493 231.343 10.6827 231.583 10.592L231.831 11.8C231.543 11.9173 231.258 12.016 230.975 12.096C230.698 12.176 230.407 12.216 230.103 12.216ZM226.551 5.416V4.272H231.583V5.416H226.551ZM236.618 12.216C235.956 12.216 235.354 12.0453 234.81 11.704C234.271 11.3627 233.839 10.8853 233.514 10.272C233.194 9.65867 233.034 8.94667 233.034 8.136C233.034 7.28267 233.194 6.552 233.514 5.944C233.834 5.336 234.263 4.86933 234.802 4.544C235.346 4.21867 235.951 4.056 236.618 4.056C237.231 4.056 237.756 4.17867 238.194 4.424C238.631 4.66933 238.983 5 239.25 5.416C239.522 5.832 239.706 6.304 239.802 6.832C239.898 7.35467 239.908 7.896 239.834 8.456H234.402V7.504H238.642L238.274 7.744C238.29 7.472 238.276 7.2 238.234 6.928C238.191 6.656 238.108 6.408 237.986 6.184C237.868 5.95467 237.7 5.77067 237.482 5.632C237.263 5.49333 236.986 5.424 236.65 5.424C236.234 5.424 235.882 5.528 235.594 5.736C235.311 5.944 235.098 6.224 234.954 6.576C234.81 6.928 234.738 7.32 234.738 7.752V8.44C234.738 8.904 234.807 9.31467 234.946 9.672C235.084 10.0293 235.292 10.312 235.57 10.52C235.847 10.728 236.196 10.832 236.618 10.832C237.023 10.832 237.359 10.7387 237.626 10.552C237.898 10.36 238.068 10.0747 238.138 9.696H239.874C239.794 10.1973 239.607 10.6373 239.314 11.016C239.02 11.3947 238.644 11.6907 238.186 11.904C237.727 12.112 237.204 12.216 236.618 12.216ZM242.192 12V4.24H243.904V12H242.192ZM243.464 8.576C243.464 7.57333 243.573 6.744 243.792 6.088C244.011 5.42667 244.309 4.936 244.688 4.616C245.067 4.29067 245.499 4.128 245.984 4.128C246.128 4.128 246.259 4.13867 246.376 4.16C246.499 4.176 246.621 4.20267 246.744 4.24L246.696 5.944C246.552 5.90667 246.397 5.87733 246.232 5.856C246.072 5.82933 245.925 5.816 245.792 5.816C245.371 5.816 245.019 5.92533 244.736 6.144C244.459 6.35733 244.251 6.66933 244.112 7.08C243.973 7.49067 243.904 7.98933 243.904 8.576H243.464ZM251.117 4.272H253.053L255.237 10.504H254.909L256.733 4.272H258.477L255.525 13.44C255.237 14.32 254.877 14.9653 254.445 15.376C254.013 15.7867 253.48 15.992 252.845 15.992C252.488 15.992 252.138 15.9493 251.797 15.864C251.461 15.7787 251.12 15.648 250.773 15.472V13.944C251.061 14.1413 251.341 14.2827 251.613 14.368C251.885 14.4587 252.162 14.504 252.445 14.504C252.712 14.504 252.944 14.4267 253.141 14.272C253.338 14.1173 253.506 13.9067 253.645 13.64C253.789 13.3787 253.909 13.0853 254.005 12.76L254.237 12L251.117 4.272ZM263.184 12.216C262.485 12.216 261.853 12.064 261.288 11.76C260.728 11.456 260.282 11.0027 259.952 10.4C259.621 9.79733 259.456 9.04533 259.456 8.144C259.456 7.22667 259.621 6.46667 259.952 5.864C260.282 5.26133 260.728 4.81067 261.288 4.512C261.853 4.208 262.485 4.056 263.184 4.056C263.882 4.056 264.509 4.208 265.064 4.512C265.624 4.81067 266.066 5.26133 266.392 5.864C266.722 6.46667 266.888 7.22667 266.888 8.144C266.888 9.04533 266.722 9.79733 266.392 10.4C266.066 11.0027 265.624 11.456 265.064 11.76C264.509 12.064 263.882 12.216 263.184 12.216ZM263.136 10.72C263.541 10.72 263.896 10.6213 264.2 10.424C264.509 10.2267 264.749 9.936 264.92 9.552C265.09 9.168 265.176 8.69867 265.176 8.144C265.176 7.296 265.005 6.65067 264.664 6.208C264.328 5.76 263.853 5.536 263.24 5.536C262.829 5.536 262.469 5.63467 262.16 5.832C261.856 6.02933 261.618 6.32267 261.448 6.712C261.277 7.10133 261.192 7.57867 261.192 8.144C261.192 8.976 261.362 9.61333 261.704 10.056C262.045 10.4987 262.522 10.72 263.136 10.72ZM274.36 4.24H276.064V12H274.36V4.24ZM269 4.24H270.712V9.008C270.712 9.552 270.846 9.96267 271.112 10.24C271.379 10.512 271.752 10.648 272.232 10.648C272.632 10.648 272.992 10.544 273.312 10.336C273.638 10.1227 273.894 9.816 274.08 9.416C274.267 9.016 274.36 8.53067 274.36 7.96H274.856C274.856 8.88267 274.734 9.656 274.488 10.28C274.243 10.8987 273.902 11.3653 273.464 11.68C273.027 11.9893 272.518 12.144 271.936 12.144C271.382 12.144 270.88 12.0427 270.432 11.84C269.99 11.6373 269.64 11.32 269.384 10.888C269.128 10.4507 269 9.88 269 9.176V4.24ZM285.954 12.216C285.213 12.216 284.578 12.112 284.05 11.904C283.527 11.696 283.125 11.4027 282.842 11.024C282.565 10.64 282.423 10.184 282.418 9.656H284.01C284.031 10.0667 284.197 10.3707 284.506 10.568C284.815 10.76 285.234 10.856 285.762 10.856C286.05 10.856 286.309 10.8133 286.538 10.728C286.767 10.6373 286.946 10.5173 287.074 10.368C287.207 10.2133 287.274 10.0427 287.274 9.856C287.274 9.616 287.186 9.42667 287.01 9.288C286.839 9.14933 286.562 9.024 286.178 8.912L284.538 8.344C283.919 8.13067 283.445 7.84533 283.114 7.488C282.783 7.13067 282.618 6.704 282.618 6.208C282.618 5.56267 282.909 5.04267 283.49 4.648C284.071 4.25333 284.845 4.056 285.81 4.056C286.791 4.056 287.549 4.26667 288.082 4.688C288.615 5.10933 288.89 5.64 288.906 6.28H287.282C287.25 6.00267 287.114 5.78667 286.874 5.632C286.634 5.472 286.279 5.392 285.81 5.392C285.378 5.392 285.039 5.48533 284.794 5.672C284.554 5.85333 284.434 6.06133 284.434 6.296C284.434 6.70667 284.786 7.01333 285.49 7.216L287.242 7.856C287.855 8.05867 288.33 8.32 288.666 8.64C289.002 8.96 289.17 9.36533 289.17 9.856C289.17 10.2613 289.034 10.6453 288.762 11.008C288.495 11.3653 288.122 11.656 287.642 11.88C287.162 12.104 286.599 12.216 285.954 12.216ZM294.088 12.216C293.64 12.216 293.232 12.1333 292.864 11.968C292.501 11.7973 292.21 11.5413 291.992 11.2C291.773 10.8533 291.664 10.4187 291.664 9.896V2.192H293.368V9.84C293.368 10.5173 293.69 10.856 294.336 10.856C294.533 10.856 294.728 10.8347 294.92 10.792C295.112 10.7493 295.328 10.6827 295.568 10.592L295.816 11.8C295.528 11.9173 295.242 12.016 294.96 12.096C294.682 12.176 294.392 12.216 294.088 12.216ZM290.536 5.416V4.272H295.568V5.416H290.536ZM302.658 12L302.442 10.168V7.008C302.442 6.42133 302.322 5.992 302.082 5.72C301.842 5.448 301.45 5.312 300.906 5.312C300.591 5.312 300.317 5.35733 300.082 5.448C299.847 5.53867 299.663 5.67467 299.53 5.856C299.402 6.032 299.338 6.25067 299.338 6.512H297.458C297.458 5.93067 297.597 5.46133 297.874 5.104C298.157 4.74133 298.554 4.47733 299.066 4.312C299.583 4.14133 300.197 4.056 300.906 4.056C301.551 4.056 302.117 4.16267 302.602 4.376C303.093 4.584 303.474 4.90933 303.746 5.352C304.018 5.79467 304.154 6.36533 304.154 7.064V12H302.658ZM300.098 12.216C299.442 12.216 298.895 12.1013 298.458 11.872C298.026 11.6427 297.701 11.3413 297.482 10.968C297.263 10.5947 297.154 10.192 297.154 9.76C297.154 9.264 297.282 8.85067 297.538 8.52C297.799 8.18933 298.162 7.944 298.626 7.784C299.095 7.61867 299.642 7.536 300.266 7.536C300.682 7.536 301.079 7.57067 301.458 7.64C301.842 7.704 302.223 7.79467 302.602 7.912V8.928C302.298 8.82133 301.965 8.73867 301.602 8.68C301.245 8.62133 300.909 8.592 300.594 8.592C300.13 8.592 299.743 8.68267 299.434 8.864C299.13 9.04 298.978 9.33867 298.978 9.76C298.978 10.0747 299.101 10.344 299.346 10.568C299.591 10.792 299.981 10.904 300.514 10.904C300.909 10.904 301.25 10.816 301.538 10.64C301.826 10.4587 302.047 10.2347 302.202 9.968C302.362 9.70133 302.442 9.43733 302.442 9.176H302.85C302.85 9.72 302.743 10.224 302.53 10.688C302.322 11.1467 302.013 11.5173 301.602 11.8C301.197 12.0773 300.695 12.216 300.098 12.216ZM306.973 12V4.24H308.685V12H306.973ZM308.245 8.576C308.245 7.57333 308.354 6.744 308.573 6.088C308.792 5.42667 309.09 4.936 309.469 4.616C309.848 4.29067 310.28 4.128 310.765 4.128C310.909 4.128 311.04 4.13867 311.157 4.16C311.28 4.176 311.402 4.20267 311.525 4.24L311.477 5.944C311.333 5.90667 311.178 5.87733 311.013 5.856C310.853 5.82933 310.706 5.816 310.573 5.816C310.152 5.816 309.8 5.92533 309.517 6.144C309.24 6.35733 309.032 6.66933 308.893 7.08C308.754 7.49067 308.685 7.98933 308.685 8.576H308.245ZM315.666 12.216C315.218 12.216 314.81 12.1333 314.442 11.968C314.079 11.7973 313.788 11.5413 313.57 11.2C313.351 10.8533 313.242 10.4187 313.242 9.896V2.192H314.946V9.84C314.946 10.5173 315.268 10.856 315.914 10.856C316.111 10.856 316.306 10.8347 316.498 10.792C316.69 10.7493 316.906 10.6827 317.146 10.592L317.394 11.8C317.106 11.9173 316.82 12.016 316.538 12.096C316.26 12.176 315.97 12.216 315.666 12.216ZM312.114 5.416V4.272H317.146V5.416H312.114ZM328.221 12L328.005 10.168V7.008C328.005 6.42133 327.885 5.992 327.645 5.72C327.405 5.448 327.013 5.312 326.469 5.312C326.154 5.312 325.879 5.35733 325.645 5.448C325.41 5.53867 325.226 5.67467 325.093 5.856C324.965 6.032 324.901 6.25067 324.901 6.512H323.021C323.021 5.93067 323.159 5.46133 323.437 5.104C323.719 4.74133 324.117 4.47733 324.629 4.312C325.146 4.14133 325.759 4.056 326.469 4.056C327.114 4.056 327.679 4.16267 328.165 4.376C328.655 4.584 329.037 4.90933 329.309 5.352C329.581 5.79467 329.717 6.36533 329.717 7.064V12H328.221ZM325.661 12.216C325.005 12.216 324.458 12.1013 324.021 11.872C323.589 11.6427 323.263 11.3413 323.045 10.968C322.826 10.5947 322.717 10.192 322.717 9.76C322.717 9.264 322.845 8.85067 323.101 8.52C323.362 8.18933 323.725 7.944 324.189 7.784C324.658 7.61867 325.205 7.536 325.829 7.536C326.245 7.536 326.642 7.57067 327.021 7.64C327.405 7.704 327.786 7.79467 328.165 7.912V8.928C327.861 8.82133 327.527 8.73867 327.165 8.68C326.807 8.62133 326.471 8.592 326.157 8.592C325.693 8.592 325.306 8.68267 324.997 8.864C324.693 9.04 324.541 9.33867 324.541 9.76C324.541 10.0747 324.663 10.344 324.909 10.568C325.154 10.792 325.543 10.904 326.077 10.904C326.471 10.904 326.813 10.816 327.101 10.64C327.389 10.4587 327.61 10.2347 327.765 9.968C327.925 9.70133 328.005 9.43733 328.005 9.176H328.413C328.413 9.72 328.306 10.224 328.093 10.688C327.885 11.1467 327.575 11.5173 327.165 11.8C326.759 12.0773 326.258 12.216 325.661 12.216ZM94.3389 31V26.472C94.3389 25.8533 94.1896 25.3867 93.8909 25.072C93.5923 24.752 93.2003 24.592 92.7149 24.592C92.1123 24.592 91.6429 24.832 91.3069 25.312C90.9709 25.7867 90.8029 26.4907 90.8029 27.424H90.0749C90.0749 26.6453 90.1469 25.9813 90.2909 25.432C90.4403 24.8773 90.6509 24.424 90.9229 24.072C91.2003 23.72 91.5283 23.464 91.9069 23.304C92.2856 23.1387 92.7069 23.056 93.1709 23.056C93.7949 23.056 94.3203 23.1973 94.7469 23.48C95.1789 23.7627 95.5043 24.16 95.7229 24.672C95.9469 25.184 96.0589 25.784 96.0589 26.472V31H94.3389ZM83.7309 31V23.272H85.2269L85.4109 24.656C85.6616 24.128 86.0003 23.7307 86.4269 23.464C86.8536 23.192 87.3469 23.056 87.9069 23.056C88.5363 23.056 89.0643 23.1973 89.4909 23.48C89.9229 23.7627 90.2483 24.16 90.4669 24.672C90.6909 25.184 90.8029 25.784 90.8029 26.472V31H89.0909V26.472C89.0909 25.8533 88.9416 25.3867 88.6429 25.072C88.3496 24.752 87.9576 24.592 87.4669 24.592C87.0669 24.592 86.7149 24.7013 86.4109 24.92C86.1069 25.1387 85.8696 25.464 85.6989 25.896C85.5283 26.328 85.4429 26.8587 85.4429 27.488V31H83.7309ZM101.688 31.216C101.027 31.216 100.424 31.0453 99.8799 30.704C99.3413 30.3627 98.9093 29.8853 98.5839 29.272C98.2639 28.6587 98.1039 27.9467 98.1039 27.136C98.1039 26.2827 98.2639 25.552 98.5839 24.944C98.9039 24.336 99.3333 23.8693 99.8719 23.544C100.416 23.2187 101.021 23.056 101.688 23.056C102.301 23.056 102.827 23.1787 103.264 23.424C103.701 23.6693 104.053 24 104.32 24.416C104.592 24.832 104.776 25.304 104.872 25.832C104.968 26.3547 104.979 26.896 104.904 27.456H99.4719V26.504H103.712L103.344 26.744C103.36 26.472 103.347 26.2 103.304 25.928C103.261 25.656 103.179 25.408 103.056 25.184C102.939 24.9547 102.771 24.7707 102.552 24.632C102.333 24.4933 102.056 24.424 101.72 24.424C101.304 24.424 100.952 24.528 100.664 24.736C100.381 24.944 100.168 25.224 100.024 25.576C99.8799 25.928 99.8079 26.32 99.8079 26.752V27.44C99.8079 27.904 99.8773 28.3147 100.016 28.672C100.155 29.0293 100.363 29.312 100.64 29.52C100.917 29.728 101.267 29.832 101.688 29.832C102.093 29.832 102.429 29.7387 102.696 29.552C102.968 29.36 103.139 29.0747 103.208 28.696H104.944C104.864 29.1973 104.677 29.6373 104.384 30.016C104.091 30.3947 103.715 30.6907 103.256 30.904C102.797 31.112 102.275 31.216 101.688 31.216ZM110.094 31.216C109.433 31.216 108.83 31.0453 108.286 30.704C107.748 30.3627 107.316 29.8853 106.99 29.272C106.67 28.6587 106.51 27.9467 106.51 27.136C106.51 26.2827 106.67 25.552 106.99 24.944C107.31 24.336 107.74 23.8693 108.278 23.544C108.822 23.2187 109.428 23.056 110.094 23.056C110.708 23.056 111.233 23.1787 111.67 23.424C112.108 23.6693 112.46 24 112.726 24.416C112.998 24.832 113.182 25.304 113.278 25.832C113.374 26.3547 113.385 26.896 113.31 27.456H107.878V26.504H112.118L111.75 26.744C111.766 26.472 111.753 26.2 111.71 25.928C111.668 25.656 111.585 25.408 111.462 25.184C111.345 24.9547 111.177 24.7707 110.958 24.632C110.74 24.4933 110.462 24.424 110.126 24.424C109.71 24.424 109.358 24.528 109.07 24.736C108.788 24.944 108.574 25.224 108.43 25.576C108.286 25.928 108.214 26.32 108.214 26.752V27.44C108.214 27.904 108.284 28.3147 108.422 28.672C108.561 29.0293 108.769 29.312 109.046 29.52C109.324 29.728 109.673 29.832 110.094 29.832C110.5 29.832 110.836 29.7387 111.102 29.552C111.374 29.36 111.545 29.0747 111.614 28.696H113.35C113.27 29.1973 113.084 29.6373 112.79 30.016C112.497 30.3947 112.121 30.6907 111.662 30.904C111.204 31.112 110.681 31.216 110.094 31.216ZM118.22 31.216C117.772 31.216 117.364 31.1333 116.996 30.968C116.634 30.7973 116.343 30.5413 116.124 30.2C115.906 29.8533 115.796 29.4187 115.796 28.896V21.192H117.5V28.84C117.5 29.5173 117.823 29.856 118.468 29.856C118.666 29.856 118.86 29.8347 119.052 29.792C119.244 29.7493 119.46 29.6827 119.7 29.592L119.948 30.8C119.66 30.9173 119.375 31.016 119.092 31.096C118.815 31.176 118.524 31.216 118.22 31.216ZM114.668 24.416V23.272H119.7V24.416H114.668ZM122.903 21.744C122.567 21.744 122.303 21.6533 122.111 21.472C121.919 21.2853 121.823 21.0347 121.823 20.72C121.823 20.4107 121.919 20.1653 122.111 19.984C122.303 19.8027 122.567 19.712 122.903 19.712C123.233 19.712 123.495 19.8027 123.687 19.984C123.879 20.1653 123.975 20.4107 123.975 20.72C123.975 21.0347 123.879 21.2853 123.687 21.472C123.495 21.6533 123.233 21.744 122.903 21.744ZM122.047 31V23.24H123.759V31H122.047ZM132.372 31V26.472C132.372 25.8533 132.223 25.3867 131.924 25.072C131.631 24.752 131.239 24.592 130.748 24.592C130.348 24.592 129.996 24.7013 129.692 24.92C129.388 25.1387 129.151 25.464 128.98 25.896C128.81 26.328 128.724 26.8587 128.724 27.488H128.14C128.14 26.512 128.263 25.696 128.508 25.04C128.759 24.384 129.111 23.8907 129.564 23.56C130.023 23.224 130.564 23.056 131.188 23.056C131.818 23.056 132.346 23.1973 132.772 23.48C133.204 23.7627 133.53 24.16 133.748 24.672C133.972 25.184 134.084 25.784 134.084 26.472V31H132.372ZM127.012 31V23.272H128.508L128.724 24.872V31H127.012ZM139.799 34.992C138.941 34.992 138.202 34.872 137.583 34.632C136.97 34.3973 136.498 34.0827 136.167 33.688C135.837 33.2987 135.671 32.8747 135.671 32.416C135.671 31.856 135.874 31.424 136.279 31.12C136.69 30.816 137.21 30.664 137.839 30.664L139.031 31.152C138.493 31.152 138.077 31.256 137.783 31.464C137.495 31.6773 137.351 31.968 137.351 32.336C137.351 32.72 137.565 33.0293 137.991 33.264C138.423 33.504 139.026 33.624 139.799 33.624C140.37 33.624 140.863 33.5413 141.279 33.376C141.701 33.2107 142.026 32.992 142.255 32.72C142.485 32.4533 142.599 32.1707 142.599 31.872C142.599 31.6693 142.527 31.4987 142.383 31.36C142.245 31.2213 142.029 31.152 141.735 31.152H139.031C138.509 31.152 138.039 31.0693 137.623 30.904C137.213 30.7387 136.887 30.5173 136.647 30.24C136.407 29.9627 136.287 29.656 136.287 29.32C136.287 28.9947 136.378 28.7173 136.559 28.488C136.741 28.2533 136.983 28.0747 137.287 27.952C137.597 27.824 137.938 27.76 138.311 27.76L138.727 28.336C138.567 28.336 138.413 28.368 138.263 28.432C138.119 28.496 137.999 28.592 137.903 28.72C137.807 28.8427 137.759 28.9973 137.759 29.184C137.759 29.4027 137.853 29.584 138.039 29.728C138.231 29.872 138.562 29.944 139.031 29.944H141.735C142.535 29.944 143.162 30.096 143.615 30.4C144.074 30.6987 144.303 31.152 144.303 31.76C144.303 32.304 144.119 32.8213 143.751 33.312C143.389 33.808 142.871 34.2107 142.199 34.52C141.527 34.8347 140.727 34.992 139.799 34.992ZM139.935 28.648C139.327 28.648 138.773 28.5333 138.271 28.304C137.775 28.0693 137.378 27.744 137.079 27.328C136.786 26.9067 136.639 26.416 136.639 25.856C136.639 25.2907 136.786 24.7973 137.079 24.376C137.378 23.9547 137.775 23.6293 138.271 23.4C138.773 23.1707 139.327 23.056 139.935 23.056C140.527 23.056 141.071 23.1707 141.567 23.4C142.063 23.6293 142.461 23.9547 142.759 24.376C143.058 24.7973 143.207 25.2907 143.207 25.856C143.207 26.416 143.058 26.9067 142.759 27.328C142.461 27.744 142.063 28.0693 141.567 28.304C141.071 28.5333 140.527 28.648 139.935 28.648ZM139.943 27.448C140.461 27.448 140.853 27.296 141.119 26.992C141.391 26.688 141.527 26.3093 141.527 25.856C141.527 25.376 141.391 24.9893 141.119 24.696C140.853 24.4027 140.458 24.256 139.935 24.256C139.429 24.256 139.037 24.4027 138.759 24.696C138.482 24.9893 138.343 25.376 138.343 25.856C138.343 26.3093 138.482 26.688 138.759 26.992C139.037 27.296 139.431 27.448 139.943 27.448ZM142.623 24.296L141.831 23.872C141.831 23.408 141.933 23.0053 142.135 22.664C142.343 22.3173 142.623 22.048 142.975 21.856C143.327 21.664 143.722 21.568 144.159 21.568L144.063 23.216C143.594 23.216 143.237 23.304 142.991 23.48C142.746 23.656 142.623 23.928 142.623 24.296ZM154.994 31L154.778 29.168V26.008C154.778 25.4213 154.658 24.992 154.418 24.72C154.178 24.448 153.786 24.312 153.242 24.312C152.927 24.312 152.653 24.3573 152.418 24.448C152.183 24.5387 151.999 24.6747 151.866 24.856C151.738 25.032 151.674 25.2507 151.674 25.512H149.794C149.794 24.9307 149.933 24.4613 150.21 24.104C150.493 23.7413 150.89 23.4773 151.402 23.312C151.919 23.1413 152.533 23.056 153.242 23.056C153.887 23.056 154.453 23.1627 154.938 23.376C155.429 23.584 155.81 23.9093 156.082 24.352C156.354 24.7947 156.49 25.3653 156.49 26.064V31H154.994ZM152.434 31.216C151.778 31.216 151.231 31.1013 150.794 30.872C150.362 30.6427 150.037 30.3413 149.818 29.968C149.599 29.5947 149.49 29.192 149.49 28.76C149.49 28.264 149.618 27.8507 149.874 27.52C150.135 27.1893 150.498 26.944 150.962 26.784C151.431 26.6187 151.978 26.536 152.602 26.536C153.018 26.536 153.415 26.5707 153.794 26.64C154.178 26.704 154.559 26.7947 154.938 26.912V27.928C154.634 27.8213 154.301 27.7387 153.938 27.68C153.581 27.6213 153.245 27.592 152.93 27.592C152.466 27.592 152.079 27.6827 151.77 27.864C151.466 28.04 151.314 28.3387 151.314 28.76C151.314 29.0747 151.437 29.344 151.682 29.568C151.927 29.792 152.317 29.904 152.85 29.904C153.245 29.904 153.586 29.816 153.874 29.64C154.162 29.4587 154.383 29.2347 154.538 28.968C154.698 28.7013 154.778 28.4373 154.778 28.176H155.186C155.186 28.72 155.079 29.224 154.866 29.688C154.658 30.1467 154.349 30.5173 153.938 30.8C153.533 31.0773 153.031 31.216 152.434 31.216ZM164.669 31V26.472C164.669 25.8533 164.52 25.3867 164.221 25.072C163.928 24.752 163.536 24.592 163.045 24.592C162.645 24.592 162.293 24.7013 161.989 24.92C161.685 25.1387 161.448 25.464 161.277 25.896C161.106 26.328 161.021 26.8587 161.021 27.488H160.437C160.437 26.512 160.56 25.696 160.805 25.04C161.056 24.384 161.408 23.8907 161.861 23.56C162.32 23.224 162.861 23.056 163.485 23.056C164.114 23.056 164.642 23.1973 165.069 23.48C165.501 23.7627 165.826 24.16 166.045 24.672C166.269 25.184 166.381 25.784 166.381 26.472V31H164.669ZM159.309 31V23.272H160.805L161.021 24.872V31H159.309ZM172.016 31.216C171.376 31.216 170.789 31.0453 170.256 30.704C169.723 30.3627 169.299 29.8853 168.984 29.272C168.669 28.6533 168.512 27.928 168.512 27.096C168.512 26.2747 168.664 25.5627 168.968 24.96C169.277 24.352 169.688 23.8827 170.2 23.552C170.712 23.2213 171.28 23.056 171.904 23.056C172.475 23.056 172.971 23.1947 173.392 23.472C173.813 23.744 174.136 24.1467 174.36 24.68C174.589 25.208 174.704 25.856 174.704 26.624H174.144C174.144 26.192 174.056 25.824 173.88 25.52C173.704 25.216 173.475 24.9867 173.192 24.832C172.909 24.672 172.603 24.592 172.272 24.592C171.888 24.592 171.541 24.696 171.232 24.904C170.928 25.1067 170.688 25.3973 170.512 25.776C170.336 26.1493 170.248 26.5893 170.248 27.096C170.248 27.6187 170.336 28.072 170.512 28.456C170.688 28.84 170.928 29.1387 171.232 29.352C171.541 29.56 171.885 29.664 172.264 29.664C172.579 29.664 172.877 29.5813 173.16 29.416C173.448 29.2453 173.683 29.008 173.864 28.704C174.051 28.3947 174.144 28.0293 174.144 27.608H174.704C174.704 28.4027 174.581 29.0693 174.336 29.608C174.096 30.1413 173.771 30.544 173.36 30.816C172.955 31.0827 172.507 31.216 172.016 31.216ZM174.456 31L174.144 29.112V20.04H175.864V31H174.456ZM182.903 31V23.24H184.615V31H182.903ZM184.175 27.576C184.175 26.5733 184.284 25.744 184.503 25.088C184.721 24.4267 185.02 23.936 185.399 23.616C185.777 23.2907 186.209 23.128 186.695 23.128C186.839 23.128 186.969 23.1387 187.087 23.16C187.209 23.176 187.332 23.2027 187.455 23.24L187.407 24.944C187.263 24.9067 187.108 24.8773 186.943 24.856C186.783 24.8293 186.636 24.816 186.503 24.816C186.081 24.816 185.729 24.9253 185.447 25.144C185.169 25.3573 184.961 25.6693 184.823 26.08C184.684 26.4907 184.615 26.9893 184.615 27.576H184.175ZM191.875 31.216C191.214 31.216 190.611 31.0453 190.067 30.704C189.529 30.3627 189.097 29.8853 188.771 29.272C188.451 28.6587 188.291 27.9467 188.291 27.136C188.291 26.2827 188.451 25.552 188.771 24.944C189.091 24.336 189.521 23.8693 190.059 23.544C190.603 23.2187 191.209 23.056 191.875 23.056C192.489 23.056 193.014 23.1787 193.451 23.424C193.889 23.6693 194.241 24 194.507 24.416C194.779 24.832 194.963 25.304 195.059 25.832C195.155 26.3547 195.166 26.896 195.091 27.456H189.659V26.504H193.899L193.531 26.744C193.547 26.472 193.534 26.2 193.491 25.928C193.449 25.656 193.366 25.408 193.243 25.184C193.126 24.9547 192.958 24.7707 192.739 24.632C192.521 24.4933 192.243 24.424 191.907 24.424C191.491 24.424 191.139 24.528 190.851 24.736C190.569 24.944 190.355 25.224 190.211 25.576C190.067 25.928 189.995 26.32 189.995 26.752V27.44C189.995 27.904 190.065 28.3147 190.203 28.672C190.342 29.0293 190.55 29.312 190.827 29.52C191.105 29.728 191.454 29.832 191.875 29.832C192.281 29.832 192.617 29.7387 192.883 29.552C193.155 29.36 193.326 29.0747 193.395 28.696H195.131C195.051 29.1973 194.865 29.6373 194.571 30.016C194.278 30.3947 193.902 30.6907 193.443 30.904C192.985 31.112 192.462 31.216 191.875 31.216ZM200.33 31.216C199.69 31.216 199.092 31.048 198.538 30.712C197.988 30.376 197.543 29.9013 197.202 29.288C196.866 28.6747 196.698 27.9547 196.698 27.128C196.698 26.2533 196.866 25.5147 197.202 24.912C197.543 24.304 197.988 23.8427 198.538 23.528C199.092 23.2133 199.69 23.056 200.33 23.056C200.815 23.056 201.244 23.1333 201.618 23.288C201.996 23.4427 202.319 23.6507 202.586 23.912C202.852 24.1733 203.063 24.4667 203.218 24.792C203.378 25.112 203.484 25.44 203.538 25.776L201.802 25.84C201.706 25.472 201.53 25.1733 201.274 24.944C201.023 24.7093 200.703 24.592 200.314 24.592C199.988 24.592 199.682 24.6827 199.394 24.864C199.111 25.04 198.879 25.3147 198.698 25.688C198.522 26.0613 198.434 26.5413 198.434 27.128C198.434 27.6773 198.516 28.1413 198.682 28.52C198.847 28.8933 199.071 29.1787 199.354 29.376C199.642 29.568 199.962 29.664 200.314 29.664C200.82 29.664 201.194 29.5413 201.434 29.296C201.679 29.0453 201.802 28.7093 201.802 28.288H203.538C203.538 28.832 203.412 29.3253 203.162 29.768C202.911 30.2107 202.546 30.5627 202.066 30.824C201.591 31.0853 201.012 31.216 200.33 31.216ZM208.832 31.216C208.133 31.216 207.501 31.064 206.936 30.76C206.376 30.456 205.931 30.0027 205.6 29.4C205.269 28.7973 205.104 28.0453 205.104 27.144C205.104 26.2267 205.269 25.4667 205.6 24.864C205.931 24.2613 206.376 23.8107 206.936 23.512C207.501 23.208 208.133 23.056 208.832 23.056C209.531 23.056 210.157 23.208 210.712 23.512C211.272 23.8107 211.715 24.2613 212.04 24.864C212.371 25.4667 212.536 26.2267 212.536 27.144C212.536 28.0453 212.371 28.7973 212.04 29.4C211.715 30.0027 211.272 30.456 210.712 30.76C210.157 31.064 209.531 31.216 208.832 31.216ZM208.784 29.72C209.189 29.72 209.544 29.6213 209.848 29.424C210.157 29.2267 210.397 28.936 210.568 28.552C210.739 28.168 210.824 27.6987 210.824 27.144C210.824 26.296 210.653 25.6507 210.312 25.208C209.976 24.76 209.501 24.536 208.888 24.536C208.477 24.536 208.117 24.6347 207.808 24.832C207.504 25.0293 207.267 25.3227 207.096 25.712C206.925 26.1013 206.84 26.5787 206.84 27.144C206.84 27.976 207.011 28.6133 207.352 29.056C207.693 29.4987 208.171 29.72 208.784 29.72ZM214.825 31V23.24H216.537V31H214.825ZM216.097 27.576C216.097 26.5733 216.206 25.744 216.425 25.088C216.643 24.4267 216.942 23.936 217.321 23.616C217.699 23.2907 218.131 23.128 218.617 23.128C218.761 23.128 218.891 23.1387 219.009 23.16C219.131 23.176 219.254 23.2027 219.377 23.24L219.329 24.944C219.185 24.9067 219.03 24.8773 218.865 24.856C218.705 24.8293 218.558 24.816 218.425 24.816C218.003 24.816 217.651 24.9253 217.369 25.144C217.091 25.3573 216.883 25.6693 216.745 26.08C216.606 26.4907 216.537 26.9893 216.537 27.576H216.097ZM223.797 31.216C223.157 31.216 222.571 31.0453 222.037 30.704C221.504 30.3627 221.08 29.8853 220.765 29.272C220.451 28.6533 220.293 27.928 220.293 27.096C220.293 26.2747 220.445 25.5627 220.749 24.96C221.059 24.352 221.469 23.8827 221.981 23.552C222.493 23.2213 223.061 23.056 223.685 23.056C224.256 23.056 224.752 23.1947 225.173 23.472C225.595 23.744 225.917 24.1467 226.141 24.68C226.371 25.208 226.485 25.856 226.485 26.624H225.925C225.925 26.192 225.837 25.824 225.661 25.52C225.485 25.216 225.256 24.9867 224.973 24.832C224.691 24.672 224.384 24.592 224.053 24.592C223.669 24.592 223.323 24.696 223.013 24.904C222.709 25.1067 222.469 25.3973 222.293 25.776C222.117 26.1493 222.029 26.5893 222.029 27.096C222.029 27.6187 222.117 28.072 222.293 28.456C222.469 28.84 222.709 29.1387 223.013 29.352C223.323 29.56 223.667 29.664 224.045 29.664C224.36 29.664 224.659 29.5813 224.941 29.416C225.229 29.2453 225.464 29.008 225.645 28.704C225.832 28.3947 225.925 28.0293 225.925 27.608H226.485C226.485 28.4027 226.363 29.0693 226.117 29.608C225.877 30.1413 225.552 30.544 225.141 30.816C224.736 31.0827 224.288 31.216 223.797 31.216ZM226.237 31L225.925 29.112V20.04H227.645V31H226.237ZM235.684 21.744C235.348 21.744 235.084 21.6533 234.892 21.472C234.7 21.2853 234.604 21.0347 234.604 20.72C234.604 20.4107 234.7 20.1653 234.892 19.984C235.084 19.8027 235.348 19.712 235.684 19.712C236.015 19.712 236.276 19.8027 236.468 19.984C236.66 20.1653 236.756 20.4107 236.756 20.72C236.756 21.0347 236.66 21.2853 236.468 21.472C236.276 21.6533 236.015 21.744 235.684 21.744ZM234.828 31V23.24H236.54V31H234.828ZM242.345 31.216C241.897 31.216 241.489 31.1333 241.121 30.968C240.759 30.7973 240.468 30.5413 240.249 30.2C240.031 29.8533 239.921 29.4187 239.921 28.896V21.192H241.625V28.84C241.625 29.5173 241.948 29.856 242.593 29.856C242.791 29.856 242.985 29.8347 243.177 29.792C243.369 29.7493 243.585 29.6827 243.825 29.592L244.073 30.8C243.785 30.9173 243.5 31.016 243.217 31.096C242.94 31.176 242.649 31.216 242.345 31.216ZM238.793 24.416V23.272H243.825V24.416H238.793ZM244.916 29.992C244.916 29.6613 245.028 29.384 245.252 29.16C245.481 28.9307 245.772 28.816 246.124 28.816C246.476 28.816 246.769 28.9307 247.004 29.16C247.244 29.384 247.364 29.6613 247.364 29.992C247.364 30.3227 247.244 30.5973 247.004 30.816C246.769 31.0347 246.476 31.144 246.124 31.144C245.772 31.144 245.481 31.0347 245.252 30.816C245.028 30.592 244.916 30.3173 244.916 29.992Z" fill="#6C6767"/>
</svg>
