<svg width="317" height="20" viewBox="0 0 317 20" fill="none" xmlns="http://www.w3.org/2000/svg">
<path d="M0.15 2.14H2.7L5.94 7.86H5.49L8.83 2.14H11.36L6.76 9.7V15H4.62V9.7L0.15 2.14ZM15.62 15.27C14.7467 15.27 13.9567 15.08 13.25 14.7C12.55 14.32 11.9933 13.7533 11.58 13C11.1667 12.2467 10.96 11.3067 10.96 10.18C10.96 9.03333 11.1667 8.08333 11.58 7.33C11.9933 6.57667 12.55 6.01333 13.25 5.64C13.9567 5.26 14.7467 5.07 15.62 5.07C16.4933 5.07 17.2767 5.26 17.97 5.64C18.67 6.01333 19.2233 6.57667 19.63 7.33C20.0433 8.08333 20.25 9.03333 20.25 10.18C20.25 11.3067 20.0433 12.2467 19.63 13C19.2233 13.7533 18.67 14.32 17.97 14.7C17.2767 15.08 16.4933 15.27 15.62 15.27ZM15.56 13.4C16.0667 13.4 16.51 13.2767 16.89 13.03C17.2767 12.7833 17.5767 12.42 17.79 11.94C18.0033 11.46 18.11 10.8733 18.11 10.18C18.11 9.12 17.8967 8.31333 17.47 7.76C17.05 7.2 16.4567 6.92 15.69 6.92C15.1767 6.92 14.7267 7.04333 14.34 7.29C13.96 7.53667 13.6633 7.90333 13.45 8.39C13.2367 8.87667 13.13 9.47333 13.13 10.18C13.13 11.22 13.3433 12.0167 13.77 12.57C14.1967 13.1233 14.7933 13.4 15.56 13.4ZM29.5909 5.3H31.7209V15H29.5909V5.3ZM22.8909 5.3H25.0309V11.26C25.0309 11.94 25.1976 12.4533 25.5309 12.8C25.8643 13.14 26.3309 13.31 26.9309 13.31C27.4309 13.31 27.8809 13.18 28.2809 12.92C28.6876 12.6533 29.0076 12.27 29.2409 11.77C29.4743 11.27 29.5909 10.6633 29.5909 9.95H30.2109C30.2109 11.1033 30.0576 12.07 29.7509 12.85C29.4443 13.6233 29.0176 14.2067 28.4709 14.6C27.9243 14.9867 27.2876 15.18 26.5609 15.18C25.8676 15.18 25.2409 15.0533 24.6809 14.8C24.1276 14.5467 23.6909 14.15 23.3709 13.61C23.0509 13.0633 22.8909 12.35 22.8909 11.47V5.3ZM44.0533 15.27C43.2533 15.27 42.5199 15.0567 41.8533 14.63C41.1866 14.2033 40.6566 13.6067 40.2633 12.84C39.8699 12.0667 39.6733 11.16 39.6733 10.12C39.6733 9.09333 39.8633 8.20333 40.2433 7.45C40.6299 6.69 41.1433 6.10333 41.7833 5.69C42.4233 5.27667 43.1333 5.07 43.9133 5.07C44.6266 5.07 45.2466 5.24333 45.7733 5.59C46.2999 5.93 46.7033 6.43333 46.9833 7.1C47.2699 7.76 47.4133 8.57 47.4133 9.53H46.7133C46.7133 8.99 46.6033 8.53 46.3833 8.15C46.1633 7.77 45.8766 7.48333 45.5233 7.29C45.1699 7.09 44.7866 6.99 44.3733 6.99C43.8933 6.99 43.4599 7.12 43.0733 7.38C42.6933 7.63333 42.3933 7.99667 42.1733 8.47C41.9533 8.93667 41.8433 9.48667 41.8433 10.12C41.8433 10.7733 41.9533 11.34 42.1733 11.82C42.3933 12.3 42.6933 12.6733 43.0733 12.94C43.4599 13.2 43.8899 13.33 44.3633 13.33C44.7566 13.33 45.1299 13.2267 45.4833 13.02C45.8433 12.8067 46.1366 12.51 46.3633 12.13C46.5966 11.7433 46.7133 11.2867 46.7133 10.76H47.4133C47.4133 11.7533 47.2599 12.5867 46.9533 13.26C46.6533 13.9267 46.2466 14.43 45.7333 14.77C45.2266 15.1033 44.6666 15.27 44.0533 15.27ZM47.1033 15L46.7133 12.64V1.3H48.8633V15H47.1033ZM56.4013 15.27C55.5279 15.27 54.7379 15.08 54.0313 14.7C53.3313 14.32 52.7746 13.7533 52.3613 13C51.9479 12.2467 51.7413 11.3067 51.7413 10.18C51.7413 9.03333 51.9479 8.08333 52.3613 7.33C52.7746 6.57667 53.3313 6.01333 54.0313 5.64C54.7379 5.26 55.5279 5.07 56.4013 5.07C57.2746 5.07 58.0579 5.26 58.7513 5.64C59.4513 6.01333 60.0046 6.57667 60.4113 7.33C60.8246 8.08333 61.0313 9.03333 61.0313 10.18C61.0313 11.3067 60.8246 12.2467 60.4113 13C60.0046 13.7533 59.4513 14.32 58.7513 14.7C58.0579 15.08 57.2746 15.27 56.4013 15.27ZM56.3413 13.4C56.8479 13.4 57.2913 13.2767 57.6713 13.03C58.0579 12.7833 58.3579 12.42 58.5713 11.94C58.7846 11.46 58.8913 10.8733 58.8913 10.18C58.8913 9.12 58.6779 8.31333 58.2513 7.76C57.8313 7.2 57.2379 6.92 56.4713 6.92C55.9579 6.92 55.5079 7.04333 55.1213 7.29C54.7413 7.53667 54.4446 7.90333 54.2313 8.39C54.0179 8.87667 53.9113 9.47333 53.9113 10.18C53.9113 11.22 54.1246 12.0167 54.5513 12.57C54.9779 13.1233 55.5746 13.4 56.3413 13.4ZM70.5922 15V9.34C70.5922 8.56667 70.4055 7.98333 70.0322 7.59C69.6655 7.19 69.1755 6.99 68.5622 6.99C68.0622 6.99 67.6222 7.12667 67.2422 7.4C66.8622 7.67333 66.5655 8.08 66.3522 8.62C66.1389 9.16 66.0322 9.82333 66.0322 10.61H65.3022C65.3022 9.39 65.4555 8.37 65.7622 7.55C66.0755 6.73 66.5155 6.11333 67.0822 5.7C67.6555 5.28 68.3322 5.07 69.1122 5.07C69.8989 5.07 70.5589 5.24667 71.0922 5.6C71.6322 5.95333 72.0389 6.45 72.3122 7.09C72.5922 7.73 72.7322 8.48 72.7322 9.34V15H70.5922ZM63.8922 15V5.34H65.7622L66.0322 7.34V15H63.8922ZM74.9359 1.46H77.0859L76.7959 6.12H75.2159L74.9359 1.46ZM82.7853 15.27C82.2253 15.27 81.7153 15.1667 81.2553 14.96C80.802 14.7467 80.4386 14.4267 80.1653 14C79.892 13.5667 79.7553 13.0233 79.7553 12.37V2.74H81.8853V12.3C81.8853 13.1467 82.2886 13.57 83.0953 13.57C83.342 13.57 83.5853 13.5433 83.8253 13.49C84.0653 13.4367 84.3353 13.3533 84.6353 13.24L84.9453 14.75C84.5853 14.8967 84.2286 15.02 83.8753 15.12C83.5286 15.22 83.1653 15.27 82.7853 15.27ZM78.3453 6.77V5.34H84.6353V6.77H78.3453ZM99.0688 15V9.34C99.0688 8.56667 98.8821 7.98333 98.5088 7.59C98.1421 7.19 97.6521 6.99 97.0388 6.99C96.5388 6.99 96.0988 7.12667 95.7188 7.4C95.3388 7.67333 95.0421 8.08 94.8288 8.62C94.6154 9.16 94.5088 9.82333 94.5088 10.61H93.7788C93.7788 9.39 93.9321 8.37 94.2388 7.55C94.5521 6.73 94.9921 6.11333 95.5588 5.7C96.1321 5.28 96.8088 5.07 97.5888 5.07C98.3754 5.07 99.0354 5.24667 99.5688 5.6C100.109 5.95333 100.515 6.45 100.789 7.09C101.069 7.73 101.209 8.48 101.209 9.34V15H99.0688ZM92.3688 15V1.3H94.5088V15H92.3688ZM110.823 15L110.553 12.71V8.76C110.553 8.02667 110.403 7.49 110.103 7.15C109.803 6.81 109.313 6.64 108.633 6.64C108.239 6.64 107.896 6.69667 107.603 6.81C107.309 6.92333 107.079 7.09333 106.913 7.32C106.753 7.54 106.673 7.81333 106.673 8.14H104.323C104.323 7.41333 104.496 6.82667 104.843 6.38C105.196 5.92667 105.693 5.59667 106.333 5.39C106.979 5.17667 107.746 5.07 108.633 5.07C109.439 5.07 110.146 5.20333 110.753 5.47C111.366 5.73 111.843 6.13667 112.183 6.69C112.523 7.24333 112.693 7.95667 112.693 8.83V15H110.823ZM107.623 15.27C106.803 15.27 106.119 15.1267 105.573 14.84C105.033 14.5533 104.626 14.1767 104.353 13.71C104.079 13.2433 103.943 12.74 103.943 12.2C103.943 11.58 104.103 11.0633 104.423 10.65C104.749 10.2367 105.203 9.93 105.783 9.73C106.369 9.52333 107.053 9.42 107.833 9.42C108.353 9.42 108.849 9.46333 109.323 9.55C109.803 9.63 110.279 9.74333 110.753 9.89V11.16C110.373 11.0267 109.956 10.9233 109.503 10.85C109.056 10.7767 108.636 10.74 108.243 10.74C107.663 10.74 107.179 10.8533 106.793 11.08C106.413 11.3 106.223 11.6733 106.223 12.2C106.223 12.5933 106.376 12.93 106.683 13.21C106.989 13.49 107.476 13.63 108.143 13.63C108.636 13.63 109.063 13.52 109.423 13.3C109.783 13.0733 110.059 12.7933 110.253 12.46C110.453 12.1267 110.553 11.7967 110.553 11.47H111.063C111.063 12.15 110.929 12.78 110.663 13.36C110.403 13.9333 110.016 14.3967 109.503 14.75C108.996 15.0967 108.369 15.27 107.623 15.27ZM114.586 5.34H117.046L119.556 13.17H119.366L121.876 5.34H124.336L120.656 15H118.266L114.586 5.34ZM130.049 15.27C129.223 15.27 128.469 15.0567 127.789 14.63C127.116 14.2033 126.576 13.6067 126.169 12.84C125.769 12.0733 125.569 11.1833 125.569 10.17C125.569 9.10333 125.769 8.19 126.169 7.43C126.569 6.67 127.106 6.08667 127.779 5.68C128.459 5.27333 129.216 5.07 130.049 5.07C130.816 5.07 131.473 5.22333 132.019 5.53C132.566 5.83667 133.006 6.25 133.339 6.77C133.679 7.29 133.909 7.88 134.029 8.54C134.149 9.19333 134.163 9.87 134.069 10.57H127.279V9.38H132.579L132.119 9.68C132.139 9.34 132.123 9 132.069 8.66C132.016 8.32 131.913 8.01 131.759 7.73C131.613 7.44333 131.403 7.21333 131.129 7.04C130.856 6.86667 130.509 6.78 130.089 6.78C129.569 6.78 129.129 6.91 128.769 7.17C128.416 7.43 128.149 7.78 127.969 8.22C127.789 8.66 127.699 9.15 127.699 9.69V10.55C127.699 11.13 127.786 11.6433 127.959 12.09C128.133 12.5367 128.393 12.89 128.739 13.15C129.086 13.41 129.523 13.54 130.049 13.54C130.556 13.54 130.976 13.4233 131.309 13.19C131.649 12.95 131.863 12.5933 131.949 12.12H134.119C134.019 12.7467 133.786 13.2967 133.419 13.77C133.053 14.2433 132.583 14.6133 132.009 14.88C131.436 15.14 130.783 15.27 130.049 15.27ZM148.108 15L147.838 12.71V8.76C147.838 8.02667 147.688 7.49 147.388 7.15C147.088 6.81 146.598 6.64 145.918 6.64C145.524 6.64 145.181 6.69667 144.888 6.81C144.594 6.92333 144.364 7.09333 144.198 7.32C144.038 7.54 143.958 7.81333 143.958 8.14H141.608C141.608 7.41333 141.781 6.82667 142.128 6.38C142.481 5.92667 142.978 5.59667 143.618 5.39C144.264 5.17667 145.031 5.07 145.918 5.07C146.724 5.07 147.431 5.20333 148.038 5.47C148.651 5.73 149.128 6.13667 149.468 6.69C149.808 7.24333 149.978 7.95667 149.978 8.83V15H148.108ZM144.908 15.27C144.088 15.27 143.404 15.1267 142.858 14.84C142.318 14.5533 141.911 14.1767 141.638 13.71C141.364 13.2433 141.228 12.74 141.228 12.2C141.228 11.58 141.388 11.0633 141.708 10.65C142.034 10.2367 142.488 9.93 143.068 9.73C143.654 9.52333 144.338 9.42 145.118 9.42C145.638 9.42 146.134 9.46333 146.608 9.55C147.088 9.63 147.564 9.74333 148.038 9.89V11.16C147.658 11.0267 147.241 10.9233 146.788 10.85C146.341 10.7767 145.921 10.74 145.528 10.74C144.948 10.74 144.464 10.8533 144.078 11.08C143.698 11.3 143.508 11.6733 143.508 12.2C143.508 12.5933 143.661 12.93 143.968 13.21C144.274 13.49 144.761 13.63 145.428 13.63C145.921 13.63 146.348 13.52 146.708 13.3C147.068 13.0733 147.344 12.7933 147.538 12.46C147.738 12.1267 147.838 11.7967 147.838 11.47H148.348C148.348 12.15 148.214 12.78 147.948 13.36C147.688 13.9333 147.301 14.3967 146.788 14.75C146.281 15.0967 145.654 15.27 144.908 15.27ZM160.202 15V9.34C160.202 8.56667 160.015 7.98333 159.642 7.59C159.275 7.19 158.785 6.99 158.172 6.99C157.672 6.99 157.232 7.12667 156.852 7.4C156.472 7.67333 156.175 8.08 155.962 8.62C155.748 9.16 155.642 9.82333 155.642 10.61H154.912C154.912 9.39 155.065 8.37 155.372 7.55C155.685 6.73 156.125 6.11333 156.692 5.7C157.265 5.28 157.942 5.07 158.722 5.07C159.508 5.07 160.168 5.24667 160.702 5.6C161.242 5.95333 161.648 6.45 161.922 7.09C162.202 7.73 162.342 8.48 162.342 9.34V15H160.202ZM153.502 15V5.34H155.372L155.642 7.34V15H153.502ZM164.345 5.34H166.765L169.495 13.13H169.085L171.365 5.34H173.545L169.855 16.8C169.495 17.9 169.045 18.7067 168.505 19.22C167.965 19.7333 167.299 19.99 166.505 19.99C166.059 19.99 165.622 19.9367 165.195 19.83C164.775 19.7233 164.349 19.56 163.915 19.34V17.43C164.275 17.6767 164.625 17.8533 164.965 17.96C165.305 18.0733 165.652 18.13 166.005 18.13C166.339 18.13 166.629 18.0333 166.875 17.84C167.122 17.6467 167.332 17.3833 167.505 17.05C167.685 16.7233 167.835 16.3567 167.955 15.95L168.245 15L164.345 5.34ZM180.689 15V5.3H182.829V15H180.689ZM182.279 10.72C182.279 9.46667 182.416 8.43 182.689 7.61C182.962 6.78333 183.336 6.17 183.809 5.77C184.282 5.36333 184.822 5.16 185.429 5.16C185.609 5.16 185.772 5.17333 185.919 5.2C186.072 5.22 186.226 5.25333 186.379 5.3L186.319 7.43C186.139 7.38333 185.946 7.34667 185.739 7.32C185.539 7.28667 185.356 7.27 185.189 7.27C184.662 7.27 184.222 7.40667 183.869 7.68C183.522 7.94667 183.262 8.33667 183.089 8.85C182.916 9.36333 182.829 9.98667 182.829 10.72H182.279ZM191.905 15.27C191.078 15.27 190.325 15.0567 189.645 14.63C188.972 14.2033 188.432 13.6067 188.025 12.84C187.625 12.0733 187.425 11.1833 187.425 10.17C187.425 9.10333 187.625 8.19 188.025 7.43C188.425 6.67 188.962 6.08667 189.635 5.68C190.315 5.27333 191.072 5.07 191.905 5.07C192.672 5.07 193.328 5.22333 193.875 5.53C194.422 5.83667 194.862 6.25 195.195 6.77C195.535 7.29 195.765 7.88 195.885 8.54C196.005 9.19333 196.018 9.87 195.925 10.57H189.135V9.38H194.435L193.975 9.68C193.995 9.34 193.978 9 193.925 8.66C193.872 8.32 193.768 8.01 193.615 7.73C193.468 7.44333 193.258 7.21333 192.985 7.04C192.712 6.86667 192.365 6.78 191.945 6.78C191.425 6.78 190.985 6.91 190.625 7.17C190.272 7.43 190.005 7.78 189.825 8.22C189.645 8.66 189.555 9.15 189.555 9.69V10.55C189.555 11.13 189.642 11.6433 189.815 12.09C189.988 12.5367 190.248 12.89 190.595 13.15C190.942 13.41 191.378 13.54 191.905 13.54C192.412 13.54 192.832 13.4233 193.165 13.19C193.505 12.95 193.718 12.5933 193.805 12.12H195.975C195.875 12.7467 195.642 13.2967 195.275 13.77C194.908 14.2433 194.438 14.6133 193.865 14.88C193.292 15.14 192.638 15.27 191.905 15.27ZM202.473 15.27C201.673 15.27 200.926 15.06 200.233 14.64C199.546 14.22 198.989 13.6267 198.563 12.86C198.143 12.0933 197.933 11.1933 197.933 10.16C197.933 9.06667 198.143 8.14333 198.563 7.39C198.989 6.63 199.546 6.05333 200.233 5.66C200.926 5.26667 201.673 5.07 202.473 5.07C203.079 5.07 203.616 5.16667 204.083 5.36C204.556 5.55333 204.959 5.81333 205.293 6.14C205.626 6.46667 205.889 6.83333 206.083 7.24C206.283 7.64 206.416 8.05 206.483 8.47L204.313 8.55C204.193 8.09 203.973 7.71667 203.653 7.43C203.339 7.13667 202.939 6.99 202.453 6.99C202.046 6.99 201.663 7.10333 201.303 7.33C200.949 7.55 200.659 7.89333 200.433 8.36C200.213 8.82667 200.103 9.42667 200.103 10.16C200.103 10.8467 200.206 11.4267 200.413 11.9C200.619 12.3667 200.899 12.7233 201.253 12.97C201.613 13.21 202.013 13.33 202.453 13.33C203.086 13.33 203.553 13.1767 203.853 12.87C204.159 12.5567 204.313 12.1367 204.313 11.61H206.483C206.483 12.29 206.326 12.9067 206.013 13.46C205.699 14.0133 205.243 14.4533 204.643 14.78C204.049 15.1067 203.326 15.27 202.473 15.27ZM213.1 15.27C212.227 15.27 211.437 15.08 210.73 14.7C210.03 14.32 209.474 13.7533 209.06 13C208.647 12.2467 208.44 11.3067 208.44 10.18C208.44 9.03333 208.647 8.08333 209.06 7.33C209.474 6.57667 210.03 6.01333 210.73 5.64C211.437 5.26 212.227 5.07 213.1 5.07C213.974 5.07 214.757 5.26 215.45 5.64C216.15 6.01333 216.704 6.57667 217.11 7.33C217.524 8.08333 217.73 9.03333 217.73 10.18C217.73 11.3067 217.524 12.2467 217.11 13C216.704 13.7533 216.15 14.32 215.45 14.7C214.757 15.08 213.974 15.27 213.1 15.27ZM213.04 13.4C213.547 13.4 213.99 13.2767 214.37 13.03C214.757 12.7833 215.057 12.42 215.27 11.94C215.484 11.46 215.59 10.8733 215.59 10.18C215.59 9.12 215.377 8.31333 214.95 7.76C214.53 7.2 213.937 6.92 213.17 6.92C212.657 6.92 212.207 7.04333 211.82 7.29C211.44 7.53667 211.144 7.90333 210.93 8.39C210.717 8.87667 210.61 9.47333 210.61 10.18C210.61 11.22 210.824 12.0167 211.25 12.57C211.677 13.1233 212.274 13.4 213.04 13.4ZM220.591 15V5.3H222.731V15H220.591ZM222.181 10.72C222.181 9.46667 222.318 8.43 222.591 7.61C222.865 6.78333 223.238 6.17 223.711 5.77C224.185 5.36333 224.725 5.16 225.331 5.16C225.511 5.16 225.675 5.17333 225.821 5.2C225.975 5.22 226.128 5.25333 226.281 5.3L226.221 7.43C226.041 7.38333 225.848 7.34667 225.641 7.32C225.441 7.28667 225.258 7.27 225.091 7.27C224.565 7.27 224.125 7.40667 223.771 7.68C223.425 7.94667 223.165 8.33667 222.991 8.85C222.818 9.36333 222.731 9.98667 222.731 10.72H222.181ZM231.807 15.27C231.007 15.27 230.274 15.0567 229.607 14.63C228.941 14.2033 228.411 13.6067 228.017 12.84C227.624 12.0667 227.427 11.16 227.427 10.12C227.427 9.09333 227.617 8.20333 227.997 7.45C228.384 6.69 228.897 6.10333 229.537 5.69C230.177 5.27667 230.887 5.07 231.667 5.07C232.381 5.07 233.001 5.24333 233.527 5.59C234.054 5.93 234.457 6.43333 234.737 7.1C235.024 7.76 235.167 8.57 235.167 9.53H234.467C234.467 8.99 234.357 8.53 234.137 8.15C233.917 7.77 233.631 7.48333 233.277 7.29C232.924 7.09 232.541 6.99 232.127 6.99C231.647 6.99 231.214 7.12 230.827 7.38C230.447 7.63333 230.147 7.99667 229.927 8.47C229.707 8.93667 229.597 9.48667 229.597 10.12C229.597 10.7733 229.707 11.34 229.927 11.82C230.147 12.3 230.447 12.6733 230.827 12.94C231.214 13.2 231.644 13.33 232.117 13.33C232.511 13.33 232.884 13.2267 233.237 13.02C233.597 12.8067 233.891 12.51 234.117 12.13C234.351 11.7433 234.467 11.2867 234.467 10.76H235.167C235.167 11.7533 235.014 12.5867 234.707 13.26C234.407 13.9267 234.001 14.43 233.487 14.77C232.981 15.1033 232.421 15.27 231.807 15.27ZM234.857 15L234.467 12.64V1.3H236.617V15H234.857ZM241.685 3.43C241.265 3.43 240.935 3.31667 240.695 3.09C240.455 2.85667 240.335 2.54333 240.335 2.15C240.335 1.76333 240.455 1.45667 240.695 1.23C240.935 1.00333 241.265 0.89 241.685 0.89C242.098 0.89 242.425 1.00333 242.665 1.23C242.905 1.45667 243.025 1.76333 243.025 2.15C243.025 2.54333 242.905 2.85667 242.665 3.09C242.425 3.31667 242.098 3.43 241.685 3.43ZM240.615 15V5.3H242.755V15H240.615ZM253.522 15V9.34C253.522 8.56667 253.335 7.98333 252.962 7.59C252.595 7.19 252.105 6.99 251.492 6.99C250.992 6.99 250.552 7.12667 250.172 7.4C249.792 7.67333 249.495 8.08 249.282 8.62C249.069 9.16 248.962 9.82333 248.962 10.61H248.232C248.232 9.39 248.385 8.37 248.692 7.55C249.005 6.73 249.445 6.11333 250.012 5.7C250.585 5.28 251.262 5.07 252.042 5.07C252.829 5.07 253.489 5.24667 254.022 5.6C254.562 5.95333 254.969 6.45 255.242 7.09C255.522 7.73 255.662 8.48 255.662 9.34V15H253.522ZM246.822 15V5.34H248.692L248.962 7.34V15H246.822ZM262.806 19.99C261.732 19.99 260.809 19.84 260.036 19.54C259.269 19.2467 258.679 18.8533 258.266 18.36C257.852 17.8733 257.646 17.3433 257.646 16.77C257.646 16.07 257.899 15.53 258.406 15.15C258.919 14.77 259.569 14.58 260.356 14.58L261.846 15.19C261.172 15.19 260.652 15.32 260.286 15.58C259.926 15.8467 259.746 16.21 259.746 16.67C259.746 17.15 260.012 17.5367 260.546 17.83C261.086 18.13 261.839 18.28 262.806 18.28C263.519 18.28 264.136 18.1767 264.656 17.97C265.182 17.7633 265.589 17.49 265.876 17.15C266.162 16.8167 266.306 16.4633 266.306 16.09C266.306 15.8367 266.216 15.6233 266.036 15.45C265.862 15.2767 265.592 15.19 265.226 15.19H261.846C261.192 15.19 260.606 15.0867 260.086 14.88C259.572 14.6733 259.166 14.3967 258.866 14.05C258.566 13.7033 258.416 13.32 258.416 12.9C258.416 12.4933 258.529 12.1467 258.756 11.86C258.982 11.5667 259.286 11.3433 259.666 11.19C260.052 11.03 260.479 10.95 260.946 10.95L261.466 11.67C261.266 11.67 261.072 11.71 260.886 11.79C260.706 11.87 260.556 11.99 260.436 12.15C260.316 12.3033 260.256 12.4967 260.256 12.73C260.256 13.0033 260.372 13.23 260.606 13.41C260.846 13.59 261.259 13.68 261.846 13.68H265.226C266.226 13.68 267.009 13.87 267.576 14.25C268.149 14.6233 268.436 15.19 268.436 15.95C268.436 16.63 268.206 17.2767 267.746 17.89C267.292 18.51 266.646 19.0133 265.806 19.4C264.966 19.7933 263.966 19.99 262.806 19.99ZM262.976 12.06C262.216 12.06 261.522 11.9167 260.896 11.63C260.276 11.3367 259.779 10.93 259.406 10.41C259.039 9.88333 258.856 9.27 258.856 8.57C258.856 7.86333 259.039 7.24667 259.406 6.72C259.779 6.19333 260.276 5.78667 260.896 5.5C261.522 5.21333 262.216 5.07 262.976 5.07C263.716 5.07 264.396 5.21333 265.016 5.5C265.636 5.78667 266.132 6.19333 266.506 6.72C266.879 7.24667 267.066 7.86333 267.066 8.57C267.066 9.27 266.879 9.88333 266.506 10.41C266.132 10.93 265.636 11.3367 265.016 11.63C264.396 11.9167 263.716 12.06 262.976 12.06ZM262.986 10.56C263.632 10.56 264.122 10.37 264.456 9.99C264.796 9.61 264.966 9.13667 264.966 8.57C264.966 7.97 264.796 7.48667 264.456 7.12C264.122 6.75333 263.629 6.57 262.976 6.57C262.342 6.57 261.852 6.75333 261.506 7.12C261.159 7.48667 260.986 7.97 260.986 8.57C260.986 9.13667 261.159 9.61 261.506 9.99C261.852 10.37 262.346 10.56 262.986 10.56ZM266.336 6.62L265.346 6.09C265.346 5.51 265.472 5.00667 265.726 4.58C265.986 4.14667 266.336 3.81 266.776 3.57C267.216 3.33 267.709 3.21 268.256 3.21L268.136 5.27C267.549 5.27 267.102 5.38 266.796 5.6C266.489 5.82 266.336 6.16 266.336 6.62ZM274.279 15.27C273.352 15.27 272.559 15.14 271.899 14.88C271.245 14.62 270.742 14.2533 270.389 13.78C270.042 13.3 269.865 12.73 269.859 12.07H271.849C271.875 12.5833 272.082 12.9633 272.469 13.21C272.855 13.45 273.379 13.57 274.039 13.57C274.399 13.57 274.722 13.5167 275.009 13.41C275.295 13.2967 275.519 13.1467 275.679 12.96C275.845 12.7667 275.929 12.5533 275.929 12.32C275.929 12.02 275.819 11.7833 275.599 11.61C275.385 11.4367 275.039 11.28 274.559 11.14L272.509 10.43C271.735 10.1633 271.142 9.80667 270.729 9.36C270.315 8.91333 270.109 8.38 270.109 7.76C270.109 6.95333 270.472 6.30333 271.199 5.81C271.925 5.31667 272.892 5.07 274.099 5.07C275.325 5.07 276.272 5.33333 276.939 5.86C277.605 6.38667 277.949 7.05 277.969 7.85H275.939C275.899 7.50333 275.729 7.23333 275.429 7.04C275.129 6.84 274.685 6.74 274.099 6.74C273.559 6.74 273.135 6.85667 272.829 7.09C272.529 7.31667 272.379 7.57667 272.379 7.87C272.379 8.38333 272.819 8.76667 273.699 9.02L275.889 9.82C276.655 10.0733 277.249 10.4 277.669 10.8C278.089 11.2 278.299 11.7067 278.299 12.32C278.299 12.8267 278.129 13.3067 277.789 13.76C277.455 14.2067 276.989 14.57 276.389 14.85C275.789 15.13 275.085 15.27 274.279 15.27ZM284.736 5.34H287.156L289.886 13.13H289.476L291.756 5.34H293.936L290.246 16.8C289.886 17.9 289.436 18.7067 288.896 19.22C288.356 19.7333 287.689 19.99 286.896 19.99C286.449 19.99 286.013 19.9367 285.586 19.83C285.166 19.7233 284.739 19.56 284.306 19.34V17.43C284.666 17.6767 285.016 17.8533 285.356 17.96C285.696 18.0733 286.043 18.13 286.396 18.13C286.729 18.13 287.019 18.0333 287.266 17.84C287.513 17.6467 287.723 17.3833 287.896 17.05C288.076 16.7233 288.226 16.3567 288.346 15.95L288.636 15L284.736 5.34ZM299.639 15.27C298.813 15.27 298.059 15.0567 297.379 14.63C296.706 14.2033 296.166 13.6067 295.759 12.84C295.359 12.0733 295.159 11.1833 295.159 10.17C295.159 9.10333 295.359 8.19 295.759 7.43C296.159 6.67 296.696 6.08667 297.369 5.68C298.049 5.27333 298.806 5.07 299.639 5.07C300.406 5.07 301.063 5.22333 301.609 5.53C302.156 5.83667 302.596 6.25 302.929 6.77C303.269 7.29 303.499 7.88 303.619 8.54C303.739 9.19333 303.753 9.87 303.659 10.57H296.869V9.38H302.169L301.709 9.68C301.729 9.34 301.713 9 301.659 8.66C301.606 8.32 301.503 8.01 301.349 7.73C301.203 7.44333 300.993 7.21333 300.719 7.04C300.446 6.86667 300.099 6.78 299.679 6.78C299.159 6.78 298.719 6.91 298.359 7.17C298.006 7.43 297.739 7.78 297.559 8.22C297.379 8.66 297.289 9.15 297.289 9.69V10.55C297.289 11.13 297.376 11.6433 297.549 12.09C297.723 12.5367 297.983 12.89 298.329 13.15C298.676 13.41 299.113 13.54 299.639 13.54C300.146 13.54 300.566 13.4233 300.899 13.19C301.239 12.95 301.453 12.5933 301.539 12.12H303.709C303.609 12.7467 303.376 13.2967 303.009 13.77C302.643 14.2433 302.173 14.6133 301.599 14.88C301.026 15.14 300.373 15.27 299.639 15.27ZM309.797 15.27C309.237 15.27 308.727 15.1667 308.267 14.96C307.814 14.7467 307.45 14.4267 307.177 14C306.904 13.5667 306.767 13.0233 306.767 12.37V2.74H308.897V12.3C308.897 13.1467 309.3 13.57 310.107 13.57C310.354 13.57 310.597 13.5433 310.837 13.49C311.077 13.4367 311.347 13.3533 311.647 13.24L311.957 14.75C311.597 14.8967 311.24 15.02 310.887 15.12C310.54 15.22 310.177 15.27 309.797 15.27ZM305.357 6.77V5.34H311.647V6.77H305.357ZM314.54 10.86L314.29 1.94H316.6L316.35 10.86H314.54ZM315.45 15.18C315.01 15.18 314.647 15.0433 314.36 14.77C314.08 14.4967 313.94 14.15 313.94 13.73C313.94 13.3233 314.08 12.98 314.36 12.7C314.647 12.4133 315.01 12.27 315.45 12.27C315.89 12.27 316.257 12.4133 316.55 12.7C316.843 12.98 316.99 13.3233 316.99 13.73C316.99 14.15 316.843 14.4967 316.55 14.77C316.257 15.0433 315.89 15.18 315.45 15.18Z" fill="#D7DF23"/>
</svg>
