<svg width="18" height="19" viewBox="0 0 18 19" fill="none" xmlns="http://www.w3.org/2000/svg">
<path d="M8.08333 1H9.91667C10.4229 1 10.8333 1.41041 10.8333 1.91667V2.43806C10.8333 2.83021 11.0965 3.1709 11.4587 3.32126C11.821 3.47168 12.2429 3.41435 12.5203 3.13696L12.889 2.76817C13.247 2.41018 13.8274 2.41018 14.1854 2.76817L15.4817 4.06453C15.8398 4.42251 15.8397 5.00291 15.4817 5.3609L15.1131 5.72963C14.8356 6.00704 14.7783 6.42893 14.9287 6.79126C15.0791 7.15346 15.4198 7.41667 15.812 7.41667H16.3333C16.8396 7.41667 17.25 7.82706 17.25 8.33333V10.1667C17.25 10.6729 16.8396 11.0833 16.3333 11.0833H15.8119C15.4198 11.0833 15.0791 11.3465 14.9287 11.7087C14.7783 12.071 14.8356 12.4929 15.1131 12.7703L15.4817 13.139C15.8398 13.497 15.8398 14.0774 15.4817 14.4354L14.1854 15.7317C13.8274 16.0898 13.247 16.0898 12.889 15.7317L12.5203 15.3631C12.2429 15.0856 11.821 15.0283 11.4587 15.1787C11.0965 15.3291 10.8333 15.6698 10.8333 16.0619V16.5833C10.8333 17.0896 10.4229 17.5 9.91667 17.5H8.08333C7.57706 17.5 7.16667 17.0896 7.16667 16.5833V16.062C7.16667 15.6698 6.90346 15.3291 6.54126 15.1787C6.17893 15.0283 5.75704 15.0856 5.47963 15.3631L5.11088 15.7317C4.75289 16.0898 4.17249 16.0898 3.81452 15.7317L2.51815 14.4354C2.16017 14.0774 2.16017 13.497 2.51815 13.139L2.88696 12.7703C3.16435 12.4929 3.22168 12.071 3.07126 11.7087C2.9209 11.3465 2.58021 11.0833 2.18806 11.0833H1.66667C1.16041 11.0833 0.75 10.6729 0.75 10.1667V8.33333C0.75 7.82706 1.16041 7.41667 1.66667 7.41667H2.18804C2.5802 7.41667 2.9209 7.15347 3.07127 6.79128C3.2217 6.42896 3.16437 6.0071 2.88696 5.72969L2.51817 5.3609C2.16018 5.00291 2.16018 4.42251 2.51817 4.06454L3.81453 2.76817C4.17251 2.41019 4.75291 2.41019 5.1109 2.76817L5.47969 3.13696C5.75709 3.41437 6.17896 3.4717 6.54128 3.32127C6.90347 3.1709 7.16667 2.8302 7.16667 2.43803V1.91667C7.16667 1.41041 7.57706 1 8.08333 1Z" stroke="#637181" stroke-width="1.5"/>
<path d="M10.8333 9.25C10.8333 10.2625 10.0125 11.0833 9 11.0833C7.98745 11.0833 7.16667 10.2625 7.16667 9.25C7.16667 8.23745 7.98745 7.41667 9 7.41667C10.0125 7.41667 10.8333 8.23745 10.8333 9.25Z" stroke="#637181" stroke-width="1.5"/>
</svg>
