<svg width="800" height="800" viewBox="0 0 800 800" fill="none" xmlns="http://www.w3.org/2000/svg">
<g clip-path="url(#clip0_832_25)">
<path d="M398.527 239.122C450.119 239.122 491.943 197.299 491.943 145.707C491.943 94.1146 450.119 52.291 398.527 52.291C346.935 52.291 305.111 94.1146 305.111 145.707C305.111 197.299 346.935 239.122 398.527 239.122Z" fill="#D7DF23"/>
<path d="M725.535 402.712L638.471 384.551C608.809 378.337 579.524 391.932 564.041 416.102C549.004 408.378 532.834 401.717 515.634 396.19V344.418C515.669 305.246 483.602 273.214 444.568 273.214H355.547C316.307 273.214 284.378 305.246 284.378 344.418V396.464C267.35 401.888 251.352 408.548 236.211 416.307C220.728 392.034 191.408 378.337 161.711 384.551L74.5775 402.712C36.332 410.711 11.5099 448.648 19.5091 487.03L41.3789 591.501C49.3097 629.78 87.2798 654.602 125.56 646.603L153.128 640.835C166.928 661.228 186.018 679.938 210.461 695.937C261.374 729.307 328.63 747.709 400.004 747.709C509.213 747.709 603.281 703.799 646.607 640.732L674.622 646.603C712.868 654.567 750.838 629.78 758.768 591.501L780.672 487.03C788.636 448.648 763.814 410.711 725.535 402.712ZM399.969 712.039C335.495 712.039 275.071 695.8 229.994 666.103C214.545 656.009 201.739 644.784 191.475 632.767L212.589 628.338C250.903 620.374 275.725 582.437 267.726 544.123L248.122 450.192C259.555 444.047 271.571 438.656 284.342 434.056V451.188C284.342 490.291 316.339 522.323 355.51 522.323H444.532C483.602 522.323 515.599 490.258 515.599 451.188V433.164C528.61 437.798 540.831 443.12 552.162 449.162L532.283 544.158C524.352 582.472 549.139 620.409 587.453 628.373L608.772 632.836C569.018 679.905 490.364 712.039 399.969 712.039Z" fill="#D7DF23"/>
<path d="M706.584 361.926C758.176 361.926 799.999 320.103 799.999 268.511C799.999 216.919 758.176 175.095 706.584 175.095C654.992 175.095 613.168 216.919 613.168 268.511C613.168 320.103 654.992 361.926 706.584 361.926Z" fill="#D7DF23"/>
<path d="M112.581 359.969C163.116 349.394 195.388 299.855 184.951 249.353C174.308 198.886 124.871 166.477 74.3001 177.051C23.8329 187.591 -8.57623 237.096 1.99817 287.599C12.5391 338.134 62.045 370.51 112.581 359.969Z" fill="#D7DF23"/>
</g>
<defs>
<clipPath id="clip0_832_25">
<rect width="800" height="800" fill="white"/>
</clipPath>
</defs>
</svg>
