<svg width="800" height="800" viewBox="0 0 800 800" fill="none" xmlns="http://www.w3.org/2000/svg">
<path d="M233.333 266.666H133.333C96.666 266.666 66.666 236.666 66.666 200V133.333C66.666 96.6665 96.666 66.6665 133.333 66.6665H233.333C269.999 66.6665 299.999 96.6665 299.999 133.333V200C299.999 236.666 269.999 266.666 233.333 266.666Z" stroke="#D7DF23" stroke-width="50" stroke-linecap="round" stroke-linejoin="round"/>
<path d="M693.334 233.333H573.334C551.334 233.333 533.334 215.333 533.334 193.333V140C533.334 118 551.334 100 573.334 100H693.334C715.334 100 733.334 118 733.334 140V193.333C733.334 215.333 715.334 233.333 693.334 233.333Z" stroke="#D7DF23" stroke-width="50" stroke-linecap="round" stroke-linejoin="round"/>
<path d="M693.334 483.333H573.334C551.334 483.333 533.334 465.333 533.334 443.333V390C533.334 368 551.334 350 573.334 350H693.334C715.334 350 733.334 368 733.334 390V443.333C733.334 465.333 715.334 483.333 693.334 483.333Z" stroke="#D7DF23" stroke-width="50" stroke-linecap="round" stroke-linejoin="round"/>
<path d="M300 166.667H533.333" stroke="#D7DF23" stroke-width="50" stroke-miterlimit="10" stroke-linecap="round" stroke-linejoin="round"/>
<path d="M416.666 166.667V600C416.666 636.666 446.666 666.666 483.333 666.666H533.333" stroke="#D7DF23" stroke-width="50" stroke-miterlimit="10" stroke-linecap="round" stroke-linejoin="round"/>
<path d="M416.666 416.667H533.333" stroke="#D7DF23" stroke-width="50" stroke-miterlimit="10" stroke-linecap="round" stroke-linejoin="round"/>
<path d="M693.334 733.333H573.334C551.334 733.333 533.334 715.333 533.334 693.333V640C533.334 618 551.334 600 573.334 600H693.334C715.334 600 733.334 618 733.334 640V693.333C733.334 715.333 715.334 733.333 693.334 733.333Z" stroke="#D7DF23" stroke-width="50" stroke-linecap="round" stroke-linejoin="round"/>
</svg>
