<svg width="800" height="800" viewBox="0 0 800 800" fill="none" xmlns="http://www.w3.org/2000/svg">
<g clip-path="url(#clip0_832_48)">
<path d="M400 0C179.077 0 0 179.077 0 400C0 620.923 179.077 800 400 800C620.923 800 800 620.923 800 400C800 179.077 620.923 0 400 0ZM400 737.5C213.598 737.5 62.5 586.402 62.5 400C62.5 213.598 213.598 62.5 400 62.5C586.402 62.5 737.5 213.598 737.5 400C737.5 586.402 586.402 737.5 400 737.5Z" fill="#D7DF23"/>
<path d="M547.314 265.014L510.448 298.803C535.963 326.636 550 362.573 550 400C550 482.716 482.716 550 400 550C317.284 550 250 482.716 250 400C250 317.284 317.284 250 400 250V200C289.722 200 200 289.722 200 400C200 510.278 289.722 600 400 600C510.278 600 600 510.278 600 400C600 350.025 581.298 302.1 547.314 265.014Z" fill="#D7DF23"/>
<path d="M425 409.986L479.981 216.7L375 390.014L387.5 425L425 409.986Z" fill="#D7DF23"/>
</g>
<defs>
<clipPath id="clip0_832_48">
<rect width="800" height="800" fill="white"/>
</clipPath>
</defs>
</svg>
