<svg width="800" height="800" viewBox="0 0 800 800" fill="none" xmlns="http://www.w3.org/2000/svg">
<g clip-path="url(#clip0_832_54)">
<path d="M800 400C800 408.841 796.488 417.319 790.237 423.57C783.986 429.821 775.507 433.333 766.667 433.333C757.826 433.333 749.348 429.821 743.096 423.57C736.845 417.319 733.333 408.841 733.333 400C733.236 311.624 698.086 226.896 635.595 164.405C573.104 101.914 488.376 66.7637 400 66.6667C391.159 66.6667 382.681 63.1548 376.43 56.9036C370.179 50.6523 366.667 42.1739 366.667 33.3333C366.667 24.4928 370.179 16.0143 376.43 9.76311C382.681 3.5119 391.159 0 400 0C506.051 0.114703 607.726 42.2943 682.716 117.284C757.706 192.274 799.885 293.949 800 400ZM533.333 433.333C542.174 433.333 550.652 429.821 556.904 423.57C563.155 417.319 566.667 408.841 566.667 400C566.667 391.159 563.155 382.681 556.904 376.43C550.652 370.179 542.174 366.667 533.333 366.667H457.433C451.624 356.681 443.319 348.376 433.333 342.567V233.333C433.333 224.493 429.821 216.014 423.57 209.763C417.319 203.512 408.841 200 400 200C391.159 200 382.681 203.512 376.43 209.763C370.179 216.014 366.667 224.493 366.667 233.333V342.567C357.826 347.657 350.275 354.714 344.6 363.192C338.925 371.669 335.277 381.339 333.94 391.453C332.602 401.567 333.611 411.853 336.887 421.514C340.164 431.175 345.62 439.953 352.834 447.166C360.047 454.38 368.825 459.836 378.486 463.113C388.147 466.389 398.433 467.398 408.547 466.06C418.661 464.723 428.331 461.075 436.808 455.4C445.285 449.725 452.343 442.174 457.433 433.333H533.333ZM60.9 226.133C54.3073 226.133 47.8626 228.088 42.381 231.751C36.8994 235.414 32.627 240.62 30.104 246.711C27.5811 252.801 26.921 259.504 28.2072 265.97C29.4933 272.436 32.668 278.375 37.3298 283.037C41.9915 287.699 47.931 290.873 54.397 292.159C60.863 293.446 67.5653 292.786 73.6561 290.263C79.747 287.74 84.953 283.467 88.6157 277.986C92.2784 272.504 94.2333 266.059 94.2333 259.467C94.2333 250.626 90.7214 242.148 84.4702 235.896C78.219 229.645 69.7406 226.133 60.9 226.133ZM66.6667 400C66.6667 393.407 64.7117 386.963 61.049 381.481C57.3863 375.999 52.1803 371.727 46.0895 369.204C39.9986 366.681 33.2964 366.021 26.8303 367.307C20.3643 368.593 14.4249 371.768 9.76312 376.43C5.10137 381.092 1.92668 387.031 0.640506 393.497C-0.645668 399.963 0.0144427 406.665 2.53736 412.756C5.06028 418.847 9.3327 424.053 14.8143 427.716C20.296 431.378 26.7406 433.333 33.3333 433.333C42.1739 433.333 50.6524 429.821 56.9036 423.57C63.1548 417.319 66.6667 408.841 66.6667 400ZM400 733.333C393.407 733.333 386.963 735.288 381.481 738.951C375.999 742.614 371.727 747.82 369.204 753.911C366.681 760.001 366.021 766.704 367.307 773.17C368.593 779.636 371.768 785.575 376.43 790.237C381.092 794.899 387.031 798.073 393.497 799.359C399.963 800.646 406.665 799.986 412.756 797.463C418.847 794.94 424.053 790.667 427.716 785.186C431.378 779.704 433.333 773.259 433.333 766.667C433.333 757.826 429.821 749.348 423.57 743.096C417.319 736.845 408.841 733.333 400 733.333ZM140.7 106.9C134.107 106.9 127.663 108.855 122.181 112.518C116.699 116.18 112.427 121.386 109.904 127.477C107.381 133.568 106.721 140.27 108.007 146.736C109.293 153.202 112.468 159.142 117.13 163.804C121.792 168.465 127.731 171.64 134.197 172.926C140.663 174.212 147.365 173.552 153.456 171.029C159.547 168.506 164.753 164.234 168.416 158.752C172.078 153.271 174.033 146.826 174.033 140.233C174.033 131.393 170.521 122.914 164.27 116.663C158.019 110.412 149.541 106.9 140.7 106.9ZM259.3 28.0333C252.707 28.0333 246.263 29.9883 240.781 33.651C235.299 37.3137 231.027 42.5197 228.504 48.6106C225.981 54.7014 225.321 61.4036 226.607 67.8697C227.893 74.3357 231.068 80.2751 235.73 84.9369C240.392 89.5986 246.331 92.7733 252.797 94.0595C259.263 95.3457 265.965 94.6856 272.056 92.1626C278.147 89.6397 283.353 85.3673 287.016 79.8857C290.678 74.404 292.633 67.9594 292.633 61.3667C292.633 52.5261 289.121 44.0477 282.87 37.7964C276.619 31.5452 268.141 28.0333 259.3 28.0333ZM60.9 507.2C54.3073 507.2 47.8626 509.155 42.381 512.818C36.8994 516.48 32.627 521.686 30.104 527.777C27.5811 533.868 26.921 540.57 28.2072 547.036C29.4933 553.502 32.668 559.442 37.3298 564.104C41.9915 568.765 47.931 571.94 54.397 573.226C60.863 574.512 67.5653 573.852 73.6561 571.329C79.747 568.806 84.953 564.534 88.6157 559.052C92.2784 553.571 94.2333 547.126 94.2333 540.533C94.2333 531.693 90.7214 523.214 84.4702 516.963C78.219 510.712 69.7406 507.2 60.9 507.2ZM140.7 626.433C134.107 626.433 127.663 628.388 122.181 632.051C116.699 635.714 112.427 640.92 109.904 647.011C107.381 653.101 106.721 659.804 108.007 666.27C109.293 672.736 112.468 678.675 117.13 683.337C121.792 687.999 127.731 691.173 134.197 692.459C140.663 693.746 147.365 693.086 153.456 690.563C159.547 688.04 164.753 683.767 168.416 678.286C172.078 672.804 174.033 666.359 174.033 659.767C174.033 650.926 170.521 642.448 164.27 636.196C158.019 629.945 149.541 626.433 140.7 626.433ZM259.3 705.3C252.707 705.3 246.263 707.255 240.781 710.918C235.299 714.58 231.027 719.786 228.504 725.877C225.981 731.968 225.321 738.67 226.607 745.136C227.893 751.602 231.068 757.542 235.73 762.204C240.392 766.865 246.331 770.04 252.797 771.326C259.263 772.612 265.965 771.952 272.056 769.429C278.147 766.906 283.353 762.634 287.016 757.152C290.678 751.671 292.633 745.226 292.633 738.633C292.633 729.793 289.121 721.314 282.87 715.063C276.619 708.812 268.141 705.3 259.3 705.3ZM739.1 507.2C732.507 507.2 726.063 509.155 720.581 512.818C715.099 516.48 710.827 521.686 708.304 527.777C705.781 533.868 705.121 540.57 706.407 547.036C707.693 553.502 710.868 559.442 715.53 564.104C720.191 568.765 726.131 571.94 732.597 573.226C739.063 574.512 745.765 573.852 751.856 571.329C757.947 568.806 763.153 564.534 766.816 559.052C770.478 553.571 772.433 547.126 772.433 540.533C772.433 536.156 771.571 531.821 769.896 527.777C768.221 523.733 765.765 520.058 762.67 516.963C759.575 513.868 755.9 511.413 751.856 509.737C747.812 508.062 743.477 507.2 739.1 507.2ZM659.3 626.433C652.707 626.433 646.263 628.388 640.781 632.051C635.299 635.714 631.027 640.92 628.504 647.011C625.981 653.101 625.321 659.804 626.607 666.27C627.893 672.736 631.068 678.675 635.73 683.337C640.392 687.999 646.331 691.173 652.797 692.459C659.263 693.746 665.965 693.086 672.056 690.563C678.147 688.04 683.353 683.767 687.016 678.286C690.678 672.804 692.633 666.359 692.633 659.767C692.633 655.389 691.771 651.055 690.096 647.011C688.421 642.966 685.965 639.292 682.87 636.196C679.775 633.101 676.1 630.646 672.056 628.971C668.012 627.295 663.677 626.433 659.3 626.433ZM540.7 705.3C534.107 705.3 527.663 707.255 522.181 710.918C516.699 714.58 512.427 719.786 509.904 725.877C507.381 731.968 506.721 738.67 508.007 745.136C509.293 751.602 512.468 757.542 517.13 762.204C521.792 766.865 527.731 770.04 534.197 771.326C540.663 772.612 547.365 771.952 553.456 769.429C559.547 766.906 564.753 762.634 568.416 757.152C572.078 751.671 574.033 745.226 574.033 738.633C574.033 734.256 573.171 729.921 571.496 725.877C569.821 721.833 567.365 718.158 564.27 715.063C561.175 711.968 557.5 709.512 553.456 707.837C549.412 706.162 545.077 705.3 540.7 705.3Z" fill="#D7DF23"/>
</g>
<defs>
<clipPath id="clip0_832_54">
<rect width="800" height="800" fill="white"/>
</clipPath>
</defs>
</svg>
