<svg width="800" height="800" viewBox="0 0 800 800" fill="none" xmlns="http://www.w3.org/2000/svg">
<path d="M211.426 164.622C224.443 177.64 224.443 198.745 211.426 211.763C107.252 315.936 107.252 484.835 211.426 589.008C224.443 602.026 224.443 623.131 211.426 636.148C198.408 649.166 177.303 649.166 164.285 636.148C34.0768 505.94 34.0768 294.831 164.285 164.622C177.303 151.605 198.408 151.605 211.426 164.622ZM635.811 164.622C766.019 294.831 766.019 505.94 635.811 636.148C622.794 649.166 601.688 649.166 588.671 636.148C575.653 623.131 575.653 602.026 588.671 589.008C692.844 484.835 692.844 315.936 588.671 211.763C575.653 198.745 575.653 177.64 588.671 164.622C601.688 151.605 622.794 151.605 635.811 164.622ZM310.314 260.402C323.331 273.419 323.331 294.525 310.314 307.542C259.282 358.574 259.282 441.314 310.314 492.346C323.331 505.363 323.331 526.469 310.314 539.486C297.296 552.504 276.191 552.504 263.173 539.486C186.106 462.419 186.106 337.469 263.173 260.402C276.191 247.384 297.296 247.384 310.314 260.402ZM542.258 260.402C619.325 337.469 619.325 462.419 542.258 539.486C529.24 552.504 508.135 552.504 495.117 539.486C482.1 526.469 482.1 505.363 495.117 492.346C546.15 441.314 546.15 358.574 495.117 307.542C482.1 294.525 482.1 273.419 495.117 260.402C508.135 247.384 529.24 247.384 542.258 260.402ZM402.716 352.716C430.33 352.716 452.716 375.102 452.716 402.716C452.716 430.33 430.33 452.716 402.716 452.716C375.101 452.716 352.716 430.33 352.716 402.716C352.716 375.102 375.101 352.716 402.716 352.716Z" fill="#D7DF23"/>
</svg>
