<svg width="800" height="800" viewBox="0 0 800 800" fill="none" xmlns="http://www.w3.org/2000/svg">
<path d="M675.001 543.75C655.126 543.85 636.551 549.475 620.776 559.15L621.226 558.9L553.876 497.675C571.976 470.05 582.726 436.2 582.726 399.85C582.726 360.55 570.151 324.175 548.776 294.55L549.151 295.075L625.701 218.525C639.951 226.425 656.926 231.1 674.976 231.225H675.026C733.701 231.225 781.276 183.65 781.276 124.975C781.276 66.3001 733.701 18.7251 675.026 18.7251C616.351 18.7251 568.776 66.3001 568.776 124.975C568.901 143.075 573.601 160.05 581.751 174.85L581.476 174.3L504.926 250.85C476.251 229.85 440.251 217.25 401.326 217.25C379.626 217.25 358.851 221.175 339.651 228.325L340.876 227.925L324.776 198.675C342.926 179.75 354.101 154 354.101 125.65C354.101 67.3501 306.826 20.0751 248.526 20.0751C190.226 20.0751 142.951 67.3501 142.951 125.65C142.951 183.95 190.226 231.225 248.526 231.225C256.176 231.225 263.651 230.4 270.851 228.85L270.151 228.975L286.201 258.125C244.076 291 217.251 341.75 217.251 398.8C217.251 413.925 219.151 428.625 222.701 442.65L222.426 441.425L205.751 448.5C186.251 425.9 157.576 411.65 125.576 411.65C67.2258 411.65 19.9258 458.95 19.9258 517.3C19.9258 575.65 67.2258 622.95 125.576 622.95C183.926 622.95 231.226 575.65 231.226 517.3C231.226 517.1 231.226 516.875 231.226 516.675C231.026 512.7 230.651 509.025 230.076 505.425L230.151 506.025L246.826 498.95C279.401 549.6 335.501 582.675 399.326 582.675C441.901 582.675 481.026 567.95 511.901 543.325L511.526 543.6L579.076 604.975C572.626 618.125 568.826 633.575 568.726 649.9C568.726 708.575 616.301 756.175 674.976 756.175C733.651 756.175 781.226 708.6 781.226 649.925C781.226 591.25 733.651 543.675 674.976 543.675L675.001 543.75ZM204.751 125C204.751 100.85 224.351 81.2501 248.501 81.2501C272.651 81.2501 292.251 100.85 292.251 125C292.251 149.15 272.651 168.75 248.501 168.75C224.351 168.725 204.776 149.15 204.751 125ZM125.001 560.5C100.851 560.475 81.3008 540.925 81.3008 516.775C81.3008 492.625 100.876 473.05 125.026 473.05C149.176 473.05 168.726 492.6 168.751 516.75C168.726 540.9 149.151 560.475 125.001 560.5ZM675.001 81.2501C699.151 81.2501 718.751 100.85 718.751 125C718.751 149.15 699.151 168.75 675.001 168.75C650.851 168.75 631.251 149.15 631.251 125C631.276 100.85 650.851 81.2751 675.001 81.2501ZM279.751 400C279.751 399.975 279.751 399.95 279.751 399.925C279.751 333.55 333.551 279.75 399.926 279.75C433.126 279.75 463.176 293.225 484.926 314.975L484.951 315L484.976 315.025C506.726 336.775 520.151 366.825 520.151 400C520.151 466.4 466.326 520.2 399.951 520.2C333.576 520.2 279.751 466.375 279.751 400ZM675.001 693.75C650.851 693.75 631.251 674.15 631.251 650C631.251 625.85 650.851 606.25 675.001 606.25C699.151 606.25 718.751 625.85 718.751 650C718.726 674.15 699.151 693.725 675.001 693.75Z" fill="#D7DF23"/>
</svg>
