<svg width="800" height="800" viewBox="0 0 800 800" fill="none" xmlns="http://www.w3.org/2000/svg">
<path d="M399.999 787.2C387.039 787.31 374.302 783.829 363.199 777.143L224.456 696C172.516 666.952 129.164 624.707 98.7823 573.536C68.4004 522.364 52.0653 464.079 51.4277 404.571V182.857C51.4339 167.916 56.0153 153.336 64.5558 141.077C73.0963 128.818 85.1861 119.468 99.1992 114.286L374.856 13.0285C391.091 7.08554 408.907 7.08554 425.142 13.0285L700.799 114.286C714.812 119.468 726.902 128.818 735.443 141.077C743.983 153.336 748.564 167.916 748.571 182.857V404.571C747.933 464.079 731.598 522.364 701.216 573.536C670.834 624.707 627.482 666.952 575.542 696L436.799 777.143C425.697 783.829 412.959 787.31 399.999 787.2ZM399.999 65.8285C398.186 65.4984 396.327 65.4984 394.513 65.8285L118.856 167.543C115.751 168.693 113.087 170.791 111.241 173.539C109.395 176.288 108.46 179.548 108.571 182.857V404.571C109.233 454.086 122.963 502.548 148.369 545.053C173.776 587.558 209.959 622.598 253.256 646.629L391.999 728C394.453 729.34 397.203 730.043 399.999 730.043C402.795 730.043 405.546 729.34 407.999 728L546.742 646.629C590.04 622.598 626.222 587.558 651.629 545.053C677.036 502.548 690.765 454.086 691.428 404.571V182.857C691.442 179.625 690.463 176.467 688.624 173.809C686.784 171.152 684.172 169.124 681.142 168L405.485 66.7428C403.727 66.1058 401.868 65.7959 399.999 65.8285Z" fill="#D7DF23"/>
<path d="M374.857 510.857C368.112 510.813 361.583 508.475 356.342 504.229L258.742 421.943C252.923 417.063 249.28 410.071 248.616 402.505C247.951 394.939 250.32 387.42 255.2 381.6C260.08 375.78 267.071 372.138 274.637 371.473C282.203 370.809 289.723 373.177 295.542 378.057L372.114 442.514L502.857 298.514C507.949 292.877 515.072 289.493 522.659 289.107C530.246 288.721 537.676 291.365 543.314 296.457C548.952 301.549 552.336 308.673 552.721 316.26C553.107 323.847 550.463 331.277 545.371 336.914L397.257 501.486C394.421 504.572 390.95 507.008 387.084 508.626C383.217 510.244 379.046 511.005 374.857 510.857Z" fill="#D7DF23"/>
</svg>
