<svg width="800" height="800" viewBox="0 0 800 800" fill="none" xmlns="http://www.w3.org/2000/svg">
<path fill-rule="evenodd" clip-rule="evenodd" d="M399.999 106.933L232.624 338.683L399.999 428.81L567.376 338.683L399.999 106.933ZM367.573 37.967C383.539 15.86 416.459 15.8599 432.426 37.967L639.236 324.317C653.389 343.917 647.059 371.493 625.773 382.957L418.963 494.313C407.126 500.69 392.876 500.69 381.036 494.313L174.227 382.957C152.941 371.493 146.609 343.917 160.764 324.317L367.573 37.967Z" fill="#D7DF23"/>
<path fill-rule="evenodd" clip-rule="evenodd" d="M590.327 450.903C628.97 431.58 666.557 478.757 639.093 512.107L430.877 764.94C414.877 784.37 385.123 784.37 369.123 764.94L160.906 512.107C133.442 478.757 171.03 431.58 209.672 450.903L400 546.067L590.327 450.903ZM533.333 550L417.89 611.657C406.627 617.287 393.373 617.287 382.11 611.657L266.667 550L400 697.567L533.333 550Z" fill="#D7DF23"/>
</svg>
