<svg width="800" height="800" viewBox="0 0 800 800" fill="none" xmlns="http://www.w3.org/2000/svg">
<path d="M652.056 233.333C659.679 189.841 626.209 150 582.056 150H217.929C173.774 150 140.307 189.841 147.927 233.333" stroke="#D7DF23" stroke-width="50"/>
<path d="M583.33 150C584.277 141.364 584.75 137.045 584.757 133.478C584.833 99.3574 559.13 70.6881 525.203 67.0474C521.657 66.6667 517.313 66.6667 508.627 66.6667H291.366C282.678 66.6667 278.334 66.6667 274.787 67.0474C240.861 70.6881 215.16 99.3574 215.235 133.478C215.242 137.045 215.715 141.363 216.661 150" stroke="#D7DF23" stroke-width="50"/>
<path d="M706.449 559.767C694.789 642.463 688.963 683.81 659.056 708.573C629.149 733.333 585.039 733.333 496.819 733.333H303.178C214.96 733.333 170.85 733.333 140.944 708.573C111.038 683.81 105.208 642.463 93.5487 559.767L79.4497 459.767C64.582 354.313 57.1484 301.588 88.7434 267.461C120.338 233.333 176.585 233.333 289.079 233.333H510.919C623.413 233.333 679.659 233.333 711.256 267.461C736.216 294.423 736.816 332.993 728.639 400" stroke="#D7DF23" stroke-width="50" stroke-linecap="round"/>
<path d="M486.041 453.863C504.654 465.403 504.654 495.273 486.041 506.813L373.654 576.483C355.564 587.697 333.334 573.103 333.334 550.01V410.667C333.334 387.577 355.564 372.98 373.654 384.193L486.041 453.863Z" stroke="#D7DF23" stroke-width="50"/>
</svg>
