<svg width="650" height="502" viewBox="0 0 650 502" fill="none" xmlns="http://www.w3.org/2000/svg">
<g filter="url(#filter0_d)">
<rect x="40" y="232" width="275" height="179" rx="10" fill="white"/>
</g>
<g filter="url(#filter1_d)">
<rect x="145" y="232" width="65" height="5" fill="#FD4C5C"/>
</g>
<path opacity="0.8" d="M76.409 333.012L77.621 333L79.637 326.268L81.581 333H82.805L85.229 324.636H84.053L82.217 331.704L80.297 324.636H79.073L77.057 331.728L75.233 324.636H74.069L76.409 333.012ZM89.32 327.24C90.448 327.24 91.408 327.948 91.396 329.232H87.244C87.364 327.948 88.252 327.24 89.32 327.24ZM92.392 330.972H91.216C90.976 331.68 90.352 332.184 89.368 332.184C88.252 332.184 87.316 331.452 87.232 330.12H92.488C92.512 329.892 92.524 329.7 92.524 329.46C92.524 327.66 91.276 326.316 89.368 326.316C87.448 326.316 86.116 327.624 86.116 329.7C86.116 331.788 87.496 333.108 89.368 333.108C91 333.108 92.056 332.172 92.392 330.972ZM102.093 331.212C102.045 328.86 98.2286 329.712 98.2286 328.152C98.2286 327.624 98.7086 327.24 99.5126 327.24C100.389 327.24 100.893 327.72 100.941 328.38H102.033C101.961 327.096 101.001 326.316 99.5486 326.316C98.0846 326.316 97.1366 327.144 97.1366 328.152C97.1366 330.6 101.025 329.748 101.025 331.212C101.025 331.752 100.545 332.184 99.6806 332.184C98.7566 332.184 98.1926 331.704 98.1326 331.068H97.0046C97.0766 332.268 98.1566 333.108 99.6926 333.108C101.145 333.108 102.093 332.292 102.093 331.212ZM103.974 331.2C103.974 332.52 104.634 333 105.798 333H106.782V332.076H105.978C105.306 332.076 105.066 331.848 105.066 331.2V327.324H106.782V326.424H105.066V324.768H103.974V326.424H103.122V327.324H103.974V331.2ZM109.297 329.424C109.297 327.9 110.089 327.432 111.133 327.432H111.421V326.304C110.377 326.304 109.669 326.76 109.297 327.492V326.424H108.205V333H109.297V329.424ZM119.022 329.7C119.022 327.624 117.57 326.316 115.698 326.316C113.838 326.316 112.374 327.624 112.374 329.7C112.374 331.788 113.79 333.108 115.65 333.108C117.522 333.108 119.022 331.788 119.022 329.7ZM113.49 329.7C113.49 328.044 114.534 327.264 115.686 327.264C116.814 327.264 117.906 328.044 117.906 329.7C117.906 331.368 116.79 332.148 115.65 332.148C114.51 332.148 113.49 331.368 113.49 329.7ZM125.37 333H126.45V329.124C126.45 327.24 125.286 326.304 123.762 326.304C122.874 326.304 122.082 326.676 121.65 327.36V326.424H120.558V333H121.65V329.364C121.65 327.948 122.418 327.252 123.534 327.252C124.638 327.252 125.37 327.936 125.37 329.28V333ZM127.925 329.688C127.925 331.728 129.281 333.108 131.045 333.108C132.245 333.108 133.097 332.472 133.493 331.764V333.144C133.493 334.548 132.617 335.292 131.453 335.292C130.373 335.292 129.593 334.752 129.353 333.96H128.273C128.489 335.364 129.725 336.24 131.453 336.24C133.385 336.24 134.597 334.956 134.597 333.144V326.424H133.493V327.624C133.109 326.916 132.245 326.316 131.045 326.316C129.281 326.316 127.925 327.636 127.925 329.688ZM133.493 329.7C133.493 331.248 132.461 332.148 131.261 332.148C130.061 332.148 129.041 331.236 129.041 329.688C129.041 328.14 130.061 327.264 131.261 327.264C132.461 327.264 133.493 328.176 133.493 329.7ZM136.543 333H137.635V324.12H136.543V333ZM142.092 331.752L140.028 326.424H138.816L141.468 332.928L140.172 336.096H141.3L145.26 326.424H144.132L142.092 331.752ZM150.849 327.648V324.12H149.757V333H150.849V331.788C151.257 332.508 152.109 333.108 153.309 333.108C155.073 333.108 156.429 331.728 156.429 329.688C156.429 327.636 155.085 326.316 153.309 326.316C152.145 326.316 151.269 326.916 150.849 327.648ZM155.313 329.688C155.313 331.236 154.293 332.148 153.081 332.148C151.893 332.148 150.849 331.248 150.849 329.7C150.849 328.176 151.893 327.264 153.081 327.264C154.293 327.264 155.313 328.14 155.313 329.688ZM160.762 327.24C161.89 327.24 162.85 327.948 162.838 329.232H158.686C158.806 327.948 159.694 327.24 160.762 327.24ZM163.834 330.972H162.658C162.418 331.68 161.794 332.184 160.81 332.184C159.694 332.184 158.758 331.452 158.674 330.12H163.93C163.954 329.892 163.966 329.7 163.966 329.46C163.966 327.66 162.718 326.316 160.81 326.316C158.89 326.316 157.558 327.624 157.558 329.7C157.558 331.788 158.938 333.108 160.81 333.108C162.442 333.108 163.498 332.172 163.834 330.972ZM165.508 333H166.6V324.12H165.508V333ZM168.561 333H169.653V326.424H168.561V333ZM169.125 325.356C169.521 325.356 169.845 325.032 169.845 324.612C169.845 324.192 169.521 323.868 169.125 323.868C168.705 323.868 168.381 324.192 168.381 324.612C168.381 325.032 168.705 325.356 169.125 325.356ZM174.41 327.24C175.538 327.24 176.498 327.948 176.486 329.232H172.334C172.454 327.948 173.342 327.24 174.41 327.24ZM177.482 330.972H176.306C176.066 331.68 175.442 332.184 174.458 332.184C173.342 332.184 172.406 331.452 172.322 330.12H177.578C177.602 329.892 177.614 329.7 177.614 329.46C177.614 327.66 176.366 326.316 174.458 326.316C172.538 326.316 171.206 327.624 171.206 329.7C171.206 331.788 172.586 333.108 174.458 333.108C176.09 333.108 177.146 332.172 177.482 330.972ZM178.375 326.424L180.955 333H182.227L184.807 326.424H183.643L181.603 331.992L179.551 326.424H178.375ZM188.778 327.24C189.906 327.24 190.866 327.948 190.854 329.232H186.702C186.822 327.948 187.71 327.24 188.778 327.24ZM191.85 330.972H190.674C190.434 331.68 189.81 332.184 188.826 332.184C187.71 332.184 186.774 331.452 186.69 330.12H191.946C191.97 329.892 191.982 329.7 191.982 329.46C191.982 327.66 190.734 326.316 188.826 326.316C186.906 326.316 185.574 327.624 185.574 329.7C185.574 331.788 186.954 333.108 188.826 333.108C190.458 333.108 191.514 332.172 191.85 330.972ZM197.062 331.2C197.062 332.52 197.722 333 198.886 333H199.87V332.076H199.066C198.394 332.076 198.154 331.848 198.154 331.2V327.324H199.87V326.424H198.154V324.768H197.062V326.424H196.21V327.324H197.062V331.2ZM201.294 333H202.386V329.364C202.386 327.948 203.154 327.252 204.27 327.252C205.374 327.252 206.106 327.936 206.106 329.28V333H207.186V329.124C207.186 327.24 206.022 326.304 204.558 326.304C203.634 326.304 202.818 326.676 202.386 327.372V324.12H201.294V333ZM208.661 329.688C208.661 331.728 210.017 333.108 211.769 333.108C212.981 333.108 213.833 332.484 214.229 331.776V333H215.333V326.424H214.229V327.624C213.845 326.94 213.005 326.316 211.781 326.316C210.017 326.316 208.661 327.636 208.661 329.688ZM214.229 329.7C214.229 331.248 213.197 332.148 211.997 332.148C210.797 332.148 209.777 331.236 209.777 329.688C209.777 328.14 210.797 327.264 211.997 327.264C213.197 327.264 214.229 328.176 214.229 329.7ZM217.519 331.2C217.519 332.52 218.179 333 219.343 333H220.327V332.076H219.523C218.851 332.076 218.611 331.848 218.611 331.2V327.324H220.327V326.424H218.611V324.768H217.519V326.424H216.667V327.324H217.519V331.2ZM229.777 331.212C229.729 328.86 225.913 329.712 225.913 328.152C225.913 327.624 226.393 327.24 227.197 327.24C228.073 327.24 228.577 327.72 228.625 328.38H229.717C229.645 327.096 228.685 326.316 227.233 326.316C225.769 326.316 224.821 327.144 224.821 328.152C224.821 330.6 228.709 329.748 228.709 331.212C228.709 331.752 228.229 332.184 227.365 332.184C226.441 332.184 225.877 331.704 225.817 331.068H224.689C224.761 332.268 225.841 333.108 227.377 333.108C228.829 333.108 229.777 332.292 229.777 331.212ZM237.251 326.424H236.159V330.036C236.159 331.452 235.403 332.148 234.275 332.148C233.171 332.148 232.439 331.464 232.439 330.132V326.424H231.359V330.276C231.359 332.16 232.547 333.096 234.059 333.096C234.935 333.096 235.739 332.712 236.159 332.028V333H237.251V326.424ZM238.786 329.7C238.786 331.788 240.118 333.108 241.99 333.108C243.622 333.108 244.69 332.196 245.026 330.888H243.85C243.61 331.716 242.962 332.184 241.99 332.184C240.79 332.184 239.902 331.332 239.902 329.7C239.902 328.092 240.79 327.24 241.99 327.24C242.962 327.24 243.622 327.744 243.85 328.536H245.026C244.69 327.156 243.622 326.316 241.99 326.316C240.118 326.316 238.786 327.636 238.786 329.7ZM246.175 329.7C246.175 331.788 247.507 333.108 249.379 333.108C251.011 333.108 252.079 332.196 252.415 330.888H251.239C250.999 331.716 250.351 332.184 249.379 332.184C248.179 332.184 247.291 331.332 247.291 329.7C247.291 328.092 248.179 327.24 249.379 327.24C250.351 327.24 251.011 327.744 251.239 328.536H252.415C252.079 327.156 251.011 326.316 249.379 326.316C247.507 326.316 246.175 327.636 246.175 329.7ZM256.768 327.24C257.896 327.24 258.856 327.948 258.844 329.232H254.692C254.812 327.948 255.7 327.24 256.768 327.24ZM259.84 330.972H258.664C258.424 331.68 257.8 332.184 256.816 332.184C255.7 332.184 254.764 331.452 254.68 330.12H259.936C259.96 329.892 259.972 329.7 259.972 329.46C259.972 327.66 258.724 326.316 256.816 326.316C254.896 326.316 253.564 327.624 253.564 329.7C253.564 331.788 254.944 333.108 256.816 333.108C258.448 333.108 259.504 332.172 259.84 330.972ZM266.242 331.212C266.194 328.86 262.378 329.712 262.378 328.152C262.378 327.624 262.858 327.24 263.662 327.24C264.538 327.24 265.042 327.72 265.09 328.38H266.182C266.11 327.096 265.15 326.316 263.698 326.316C262.234 326.316 261.286 327.144 261.286 328.152C261.286 330.6 265.174 329.748 265.174 331.212C265.174 331.752 264.694 332.184 263.83 332.184C262.906 332.184 262.342 331.704 262.282 331.068H261.154C261.226 332.268 262.306 333.108 263.842 333.108C265.294 333.108 266.242 332.292 266.242 331.212ZM272.611 331.212C272.563 328.86 268.747 329.712 268.747 328.152C268.747 327.624 269.227 327.24 270.031 327.24C270.907 327.24 271.411 327.72 271.459 328.38H272.551C272.479 327.096 271.519 326.316 270.067 326.316C268.603 326.316 267.655 327.144 267.655 328.152C267.655 330.6 271.543 329.748 271.543 331.212C271.543 331.752 271.063 332.184 270.199 332.184C269.275 332.184 268.711 331.704 268.651 331.068H267.523C267.595 332.268 268.675 333.108 270.211 333.108C271.663 333.108 272.611 332.292 272.611 331.212ZM274.457 333H275.549V327.324H276.929V326.424H275.549V325.956C275.549 325.104 275.873 324.744 276.857 324.744V323.832C275.177 323.832 274.457 324.492 274.457 325.956V326.424H273.605V327.324H274.457V333ZM284.134 326.424H283.042V330.036C283.042 331.452 282.286 332.148 281.158 332.148C280.054 332.148 279.322 331.464 279.322 330.132V326.424H278.242V330.276C278.242 332.16 279.43 333.096 280.942 333.096C281.818 333.096 282.622 332.712 283.042 332.028V333H284.134V326.424ZM286.078 333H287.17V324.12H286.078V333ZM78.6101 347.7C78.6101 349.788 79.9421 351.108 81.8141 351.108C83.4461 351.108 84.5141 350.196 84.8501 348.888H83.6741C83.4341 349.716 82.7861 350.184 81.8141 350.184C80.6141 350.184 79.7261 349.332 79.7261 347.7C79.7261 346.092 80.6141 345.24 81.8141 345.24C82.7861 345.24 83.4461 345.744 83.6741 346.536H84.8501C84.5141 345.156 83.4461 344.316 81.8141 344.316C79.9421 344.316 78.6101 345.636 78.6101 347.7ZM92.6472 347.7C92.6472 345.624 91.1952 344.316 89.3232 344.316C87.4632 344.316 85.9992 345.624 85.9992 347.7C85.9992 349.788 87.4152 351.108 89.2752 351.108C91.1472 351.108 92.6472 349.788 92.6472 347.7ZM87.1152 347.7C87.1152 346.044 88.1592 345.264 89.3112 345.264C90.4392 345.264 91.5312 346.044 91.5312 347.7C91.5312 349.368 90.4152 350.148 89.2752 350.148C88.1352 350.148 87.1152 349.368 87.1152 347.7ZM98.995 351H100.075V347.124C100.075 345.24 98.911 344.304 97.387 344.304C96.499 344.304 95.707 344.676 95.275 345.36V344.424H94.183V351H95.275V347.364C95.275 345.948 96.043 345.252 97.159 345.252C98.263 345.252 98.995 345.936 98.995 347.28V351ZM102.199 349.2C102.199 350.52 102.859 351 104.023 351H105.007V350.076H104.203C103.531 350.076 103.291 349.848 103.291 349.2V345.324H105.007V344.424H103.291V342.768H102.199V344.424H101.347V345.324H102.199V349.2ZM109.226 345.24C110.354 345.24 111.314 345.948 111.302 347.232H107.15C107.27 345.948 108.158 345.24 109.226 345.24ZM112.298 348.972H111.122C110.882 349.68 110.258 350.184 109.274 350.184C108.158 350.184 107.222 349.452 107.138 348.12H112.394C112.418 347.892 112.43 347.7 112.43 347.46C112.43 345.66 111.182 344.316 109.274 344.316C107.354 344.316 106.022 345.624 106.022 347.7C106.022 349.788 107.402 351.108 109.274 351.108C110.906 351.108 111.962 350.172 112.298 348.972ZM118.783 351H119.863V347.124C119.863 345.24 118.699 344.304 117.175 344.304C116.287 344.304 115.495 344.676 115.063 345.36V344.424H113.971V351H115.063V347.364C115.063 345.948 115.831 345.252 116.947 345.252C118.051 345.252 118.783 345.936 118.783 347.28V351ZM121.987 349.2C121.987 350.52 122.647 351 123.811 351H124.795V350.076H123.991C123.319 350.076 123.079 349.848 123.079 349.2V345.324H124.795V344.424H123.079V342.768H121.987V344.424H121.135V345.324H121.987V349.2ZM139.009 351H140.089V347.124C140.089 345.24 138.925 344.304 137.425 344.304C136.417 344.304 135.481 344.82 135.097 345.768C134.665 344.784 133.765 344.304 132.685 344.304C131.821 344.304 131.041 344.676 130.609 345.372V344.424H129.517V351H130.609V347.376C130.609 345.96 131.365 345.252 132.469 345.252C133.549 345.252 134.269 345.936 134.269 347.28V351H135.349V347.376C135.349 345.96 136.105 345.252 137.209 345.252C138.289 345.252 139.009 345.936 139.009 347.28V351ZM141.573 347.688C141.573 349.728 142.929 351.108 144.681 351.108C145.893 351.108 146.745 350.484 147.141 349.776V351H148.245V344.424H147.141V345.624C146.757 344.94 145.917 344.316 144.693 344.316C142.929 344.316 141.573 345.636 141.573 347.688ZM147.141 347.7C147.141 349.248 146.109 350.148 144.909 350.148C143.709 350.148 142.689 349.236 142.689 347.688C142.689 346.14 143.709 345.264 144.909 345.264C146.109 345.264 147.141 346.176 147.141 347.7ZM151.282 347.424C151.282 345.9 152.074 345.432 153.118 345.432H153.406V344.304C152.362 344.304 151.654 344.76 151.282 345.492V344.424H150.19V351H151.282V347.424ZM154.767 351H155.859V348.096L158.439 351H159.927L156.819 347.7L159.915 344.424H158.391L155.859 347.34V342.12H154.767V351ZM163.838 345.24C164.966 345.24 165.926 345.948 165.914 347.232H161.762C161.882 345.948 162.77 345.24 163.838 345.24ZM166.91 348.972H165.734C165.494 349.68 164.87 350.184 163.886 350.184C162.77 350.184 161.834 349.452 161.75 348.12H167.006C167.03 347.892 167.042 347.7 167.042 347.46C167.042 345.66 165.794 344.316 163.886 344.316C161.966 344.316 160.634 345.624 160.634 347.7C160.634 349.788 162.014 351.108 163.886 351.108C165.518 351.108 166.574 350.172 166.91 348.972ZM168.824 349.2C168.824 350.52 169.484 351 170.648 351H171.632V350.076H170.828C170.156 350.076 169.916 349.848 169.916 349.2V345.324H171.632V344.424H169.916V342.768H168.824V344.424H167.972V345.324H168.824V349.2ZM173.055 351H174.147V344.424H173.055V351ZM173.619 343.356C174.015 343.356 174.339 343.032 174.339 342.612C174.339 342.192 174.015 341.868 173.619 341.868C173.199 341.868 172.875 342.192 172.875 342.612C172.875 343.032 173.199 343.356 173.619 343.356ZM180.92 351H182V347.124C182 345.24 180.836 344.304 179.312 344.304C178.424 344.304 177.632 344.676 177.2 345.36V344.424H176.108V351H177.2V347.364C177.2 345.948 177.968 345.252 179.084 345.252C180.188 345.252 180.92 345.936 180.92 347.28V351ZM183.476 347.688C183.476 349.728 184.832 351.108 186.596 351.108C187.796 351.108 188.648 350.472 189.044 349.764V351.144C189.044 352.548 188.168 353.292 187.004 353.292C185.924 353.292 185.144 352.752 184.904 351.96H183.824C184.04 353.364 185.276 354.24 187.004 354.24C188.936 354.24 190.148 352.956 190.148 351.144V344.424H189.044V345.624C188.66 344.916 187.796 344.316 186.596 344.316C184.832 344.316 183.476 345.636 183.476 347.688ZM189.044 347.7C189.044 349.248 188.012 350.148 186.812 350.148C185.612 350.148 184.592 349.236 184.592 347.688C184.592 346.14 185.612 345.264 186.812 345.264C188.012 345.264 189.044 346.176 189.044 347.7ZM200.12 349.212C200.072 346.86 196.256 347.712 196.256 346.152C196.256 345.624 196.736 345.24 197.54 345.24C198.416 345.24 198.92 345.72 198.968 346.38H200.06C199.988 345.096 199.028 344.316 197.576 344.316C196.112 344.316 195.164 345.144 195.164 346.152C195.164 348.6 199.052 347.748 199.052 349.212C199.052 349.752 198.572 350.184 197.708 350.184C196.784 350.184 196.22 349.704 196.16 349.068H195.032C195.104 350.268 196.184 351.108 197.72 351.108C199.172 351.108 200.12 350.292 200.12 349.212ZM201.762 351H202.854V347.364C202.854 345.948 203.622 345.252 204.738 345.252C205.842 345.252 206.574 345.936 206.574 347.28V351H207.654V347.124C207.654 345.24 206.49 344.304 205.026 344.304C204.102 344.304 203.286 344.676 202.854 345.372V342.12H201.762V351ZM215.778 347.7C215.778 345.624 214.326 344.316 212.454 344.316C210.594 344.316 209.13 345.624 209.13 347.7C209.13 349.788 210.546 351.108 212.406 351.108C214.278 351.108 215.778 349.788 215.778 347.7ZM210.246 347.7C210.246 346.044 211.29 345.264 212.442 345.264C213.57 345.264 214.662 346.044 214.662 347.7C214.662 349.368 213.546 350.148 212.406 350.148C211.266 350.148 210.246 349.368 210.246 347.7ZM223.145 344.424H222.053V348.036C222.053 349.452 221.297 350.148 220.169 350.148C219.065 350.148 218.333 349.464 218.333 348.132V344.424H217.253V348.276C217.253 350.16 218.441 351.096 219.953 351.096C220.829 351.096 221.633 350.712 222.053 350.028V351H223.145V344.424ZM225.089 351H226.181V342.12H225.089V351ZM227.734 347.688C227.734 349.728 229.09 351.108 230.854 351.108C232.054 351.108 232.906 350.496 233.302 349.764V351H234.406V342.12H233.302V345.6C232.846 344.844 231.898 344.316 230.866 344.316C229.09 344.316 227.734 345.636 227.734 347.688ZM233.302 347.7C233.302 349.248 232.27 350.148 231.07 350.148C229.87 350.148 228.85 349.236 228.85 347.688C228.85 346.14 229.87 345.264 231.07 345.264C232.27 345.264 233.302 346.176 233.302 347.7ZM241.164 351H242.244V347.124C242.244 345.24 241.08 344.304 239.556 344.304C238.668 344.304 237.876 344.676 237.444 345.36V344.424H236.352V351H237.444V347.364C237.444 345.948 238.212 345.252 239.328 345.252C240.432 345.252 241.164 345.936 241.164 347.28V351ZM244.356 345.36L245.508 342.636H244.296L243.588 345.36H244.356ZM247.093 349.2C247.093 350.52 247.753 351 248.917 351H249.901V350.076H249.097C248.425 350.076 248.185 349.848 248.185 349.2V345.324H249.901V344.424H248.185V342.768H247.093V344.424H246.241V345.324H247.093V349.2ZM254.215 347.688C254.215 349.728 255.571 351.108 257.335 351.108C258.535 351.108 259.387 350.496 259.783 349.764V351H260.887V342.12H259.783V345.6C259.327 344.844 258.379 344.316 257.347 344.316C255.571 344.316 254.215 345.636 254.215 347.688ZM259.783 347.7C259.783 349.248 258.751 350.148 257.551 350.148C256.351 350.148 255.331 349.236 255.331 347.688C255.331 346.14 256.351 345.264 257.551 345.264C258.751 345.264 259.783 346.176 259.783 347.7ZM263.924 347.424C263.924 345.9 264.716 345.432 265.76 345.432H266.048V344.304C265.004 344.304 264.296 344.76 263.924 345.492V344.424H262.832V351H263.924V347.424ZM267.409 351H268.501V344.424H267.409V351ZM267.973 343.356C268.369 343.356 268.693 343.032 268.693 342.612C268.693 342.192 268.369 341.868 267.973 341.868C267.553 341.868 267.229 342.192 267.229 342.612C267.229 343.032 267.553 343.356 267.973 343.356ZM269.682 344.424L272.262 351H273.534L276.114 344.424H274.95L272.91 349.992L270.858 344.424H269.682ZM280.084 345.24C281.212 345.24 282.172 345.948 282.16 347.232H278.008C278.128 345.948 279.016 345.24 280.084 345.24ZM283.156 348.972H281.98C281.74 349.68 281.116 350.184 280.132 350.184C279.016 350.184 278.08 349.452 277.996 348.12H283.252C283.276 347.892 283.288 347.7 283.288 347.46C283.288 345.66 282.04 344.316 280.132 344.316C278.212 344.316 276.88 345.624 276.88 347.7C276.88 349.788 278.26 351.108 280.132 351.108C281.764 351.108 282.82 350.172 283.156 348.972ZM171.954 367.752L169.89 362.424H168.678L171.33 368.928L170.034 372.096H171.162L175.122 362.424H173.994L171.954 367.752ZM182.559 365.7C182.559 363.624 181.107 362.316 179.235 362.316C177.375 362.316 175.911 363.624 175.911 365.7C175.911 367.788 177.327 369.108 179.187 369.108C181.059 369.108 182.559 367.788 182.559 365.7ZM177.027 365.7C177.027 364.044 178.071 363.264 179.223 363.264C180.351 363.264 181.443 364.044 181.443 365.7C181.443 367.368 180.327 368.148 179.187 368.148C178.047 368.148 177.027 367.368 177.027 365.7ZM189.927 362.424H188.835V366.036C188.835 367.452 188.079 368.148 186.951 368.148C185.847 368.148 185.115 367.464 185.115 366.132V362.424H184.035V366.276C184.035 368.16 185.223 369.096 186.735 369.096C187.611 369.096 188.415 368.712 188.835 368.028V369H189.927V362.424ZM192.939 368.328C192.939 367.908 192.615 367.584 192.219 367.584C191.799 367.584 191.475 367.908 191.475 368.328C191.475 368.748 191.799 369.072 192.219 369.072C192.615 369.072 192.939 368.748 192.939 368.328Z" fill="#426666"/>
<path d="M148.112 288.14C147.139 288.14 146.259 287.973 145.472 287.64C144.699 287.307 144.085 286.827 143.632 286.2C143.179 285.573 142.945 284.833 142.932 283.98H145.932C145.972 284.553 146.172 285.007 146.532 285.34C146.905 285.673 147.412 285.84 148.052 285.84C148.705 285.84 149.219 285.687 149.592 285.38C149.965 285.06 150.152 284.647 150.152 284.14C150.152 283.727 150.025 283.387 149.772 283.12C149.519 282.853 149.199 282.647 148.812 282.5C148.439 282.34 147.919 282.167 147.252 281.98C146.345 281.713 145.605 281.453 145.032 281.2C144.472 280.933 143.985 280.54 143.572 280.02C143.172 279.487 142.972 278.78 142.972 277.9C142.972 277.073 143.179 276.353 143.592 275.74C144.005 275.127 144.585 274.66 145.332 274.34C146.079 274.007 146.932 273.84 147.892 273.84C149.332 273.84 150.499 274.193 151.392 274.9C152.299 275.593 152.799 276.567 152.892 277.82H149.812C149.785 277.34 149.579 276.947 149.192 276.64C148.819 276.32 148.319 276.16 147.692 276.16C147.145 276.16 146.705 276.3 146.372 276.58C146.052 276.86 145.892 277.267 145.892 277.8C145.892 278.173 146.012 278.487 146.252 278.74C146.505 278.98 146.812 279.18 147.172 279.34C147.545 279.487 148.065 279.66 148.732 279.86C149.639 280.127 150.379 280.393 150.952 280.66C151.525 280.927 152.019 281.327 152.432 281.86C152.845 282.393 153.052 283.093 153.052 283.96C153.052 284.707 152.859 285.4 152.472 286.04C152.085 286.68 151.519 287.193 150.772 287.58C150.025 287.953 149.139 288.14 148.112 288.14ZM156.9 275.6C156.406 275.6 155.993 275.447 155.66 275.14C155.34 274.82 155.18 274.427 155.18 273.96C155.18 273.493 155.34 273.107 155.66 272.8C155.993 272.48 156.406 272.32 156.9 272.32C157.393 272.32 157.8 272.48 158.12 272.8C158.453 273.107 158.62 273.493 158.62 273.96C158.62 274.427 158.453 274.82 158.12 275.14C157.8 275.447 157.393 275.6 156.9 275.6ZM158.28 276.92V288H155.48V276.92H158.28ZM174.806 276.76C176.166 276.76 177.259 277.18 178.086 278.02C178.926 278.847 179.346 280.007 179.346 281.5V288H176.546V281.88C176.546 281.013 176.326 280.353 175.886 279.9C175.446 279.433 174.846 279.2 174.086 279.2C173.326 279.2 172.719 279.433 172.266 279.9C171.826 280.353 171.606 281.013 171.606 281.88V288H168.806V281.88C168.806 281.013 168.586 280.353 168.146 279.9C167.706 279.433 167.106 279.2 166.346 279.2C165.573 279.2 164.959 279.433 164.506 279.9C164.066 280.353 163.846 281.013 163.846 281.88V288H161.046V276.92H163.846V278.26C164.206 277.793 164.666 277.427 165.226 277.16C165.799 276.893 166.426 276.76 167.106 276.76C167.973 276.76 168.746 276.947 169.426 277.32C170.106 277.68 170.633 278.2 171.006 278.88C171.366 278.24 171.886 277.727 172.566 277.34C173.259 276.953 174.006 276.76 174.806 276.76ZM184.803 278.52C185.163 278.013 185.656 277.593 186.283 277.26C186.923 276.913 187.65 276.74 188.463 276.74C189.41 276.74 190.263 276.973 191.023 277.44C191.796 277.907 192.403 278.573 192.843 279.44C193.296 280.293 193.523 281.287 193.523 282.42C193.523 283.553 193.296 284.56 192.843 285.44C192.403 286.307 191.796 286.98 191.023 287.46C190.263 287.94 189.41 288.18 188.463 288.18C187.65 288.18 186.93 288.013 186.303 287.68C185.69 287.347 185.19 286.927 184.803 286.42V293.28H182.003V276.92H184.803V278.52ZM190.663 282.42C190.663 281.753 190.523 281.18 190.243 280.7C189.976 280.207 189.616 279.833 189.163 279.58C188.723 279.327 188.243 279.2 187.723 279.2C187.216 279.2 186.736 279.333 186.283 279.6C185.843 279.853 185.483 280.227 185.203 280.72C184.936 281.213 184.803 281.793 184.803 282.46C184.803 283.127 184.936 283.707 185.203 284.2C185.483 284.693 185.843 285.073 186.283 285.34C186.736 285.593 187.216 285.72 187.723 285.72C188.243 285.72 188.723 285.587 189.163 285.32C189.616 285.053 189.976 284.673 190.243 284.18C190.523 283.687 190.663 283.1 190.663 282.42ZM198.358 273.2V288H195.558V273.2H198.358ZM211.424 282.22C211.424 282.62 211.397 282.98 211.344 283.3H203.244C203.311 284.1 203.591 284.727 204.084 285.18C204.577 285.633 205.184 285.86 205.904 285.86C206.944 285.86 207.684 285.413 208.124 284.52H211.144C210.824 285.587 210.211 286.467 209.304 287.16C208.397 287.84 207.284 288.18 205.964 288.18C204.897 288.18 203.937 287.947 203.084 287.48C202.244 287 201.584 286.327 201.104 285.46C200.637 284.593 200.404 283.593 200.404 282.46C200.404 281.313 200.637 280.307 201.104 279.44C201.571 278.573 202.224 277.907 203.064 277.44C203.904 276.973 204.871 276.74 205.964 276.74C207.017 276.74 207.957 276.967 208.784 277.42C209.624 277.873 210.271 278.52 210.724 279.36C211.191 280.187 211.424 281.14 211.424 282.22ZM208.524 281.42C208.511 280.7 208.251 280.127 207.744 279.7C207.237 279.26 206.617 279.04 205.884 279.04C205.191 279.04 204.604 279.253 204.124 279.68C203.657 280.093 203.371 280.673 203.264 281.42H208.524Z" fill="#FD4C5C"/>
<g filter="url(#filter2_d)">
<rect x="40" y="10" width="274.996" height="197.82" rx="10" fill="white"/>
</g>
<path d="M79.7174 98.26C79.7841 96.9267 80.2508 95.9 81.1174 95.18C81.9974 94.4467 83.1508 94.08 84.5774 94.08C85.5508 94.08 86.3841 94.2533 87.0774 94.6C87.7708 94.9333 88.2908 95.3933 88.6374 95.98C88.9974 96.5533 89.1774 97.2067 89.1774 97.94C89.1774 98.78 88.9574 99.4933 88.5174 100.08C88.0908 100.653 87.5774 101.04 86.9774 101.24V101.32C87.7508 101.56 88.3508 101.987 88.7774 102.6C89.2174 103.213 89.4374 104 89.4374 104.96C89.4374 105.76 89.2508 106.473 88.8774 107.1C88.5174 107.727 87.9774 108.22 87.2574 108.58C86.5508 108.927 85.6974 109.1 84.6974 109.1C83.1908 109.1 81.9641 108.72 81.0174 107.96C80.0708 107.2 79.5708 106.08 79.5174 104.6H82.2374C82.2641 105.253 82.4841 105.78 82.8974 106.18C83.3241 106.567 83.9041 106.76 84.6374 106.76C85.3174 106.76 85.8374 106.573 86.1974 106.2C86.5708 105.813 86.7574 105.32 86.7574 104.72C86.7574 103.92 86.5041 103.347 85.9974 103C85.4908 102.653 84.7041 102.48 83.6374 102.48H83.0574V100.18H83.6374C85.5308 100.18 86.4774 99.5467 86.4774 98.28C86.4774 97.7067 86.3041 97.26 85.9574 96.94C85.6241 96.62 85.1374 96.46 84.4974 96.46C83.8708 96.46 83.3841 96.6333 83.0374 96.98C82.7041 97.3133 82.5108 97.74 82.4574 98.26H79.7174ZM95.0301 106.06L92.6901 111.68H90.8901L92.1901 106.06H95.0301ZM106.008 96.54L100.688 109H97.8482L103.208 96.86H96.3682V94.46H106.008V96.54ZM108.565 105.84C109.845 104.773 110.865 103.887 111.625 103.18C112.385 102.46 113.019 101.713 113.525 100.94C114.032 100.167 114.285 99.4067 114.285 98.66C114.285 97.98 114.125 97.4467 113.805 97.06C113.485 96.6733 112.992 96.48 112.325 96.48C111.659 96.48 111.145 96.7067 110.785 97.16C110.425 97.6 110.239 98.2067 110.225 98.98H107.505C107.559 97.38 108.032 96.1667 108.925 95.34C109.832 94.5133 110.979 94.1 112.365 94.1C113.885 94.1 115.052 94.5067 115.865 95.32C116.679 96.12 117.085 97.18 117.085 98.5C117.085 99.54 116.805 100.533 116.245 101.48C115.685 102.427 115.045 103.253 114.325 103.96C113.605 104.653 112.665 105.493 111.505 106.48H117.405V108.8H107.525V106.72L108.565 105.84ZM122.41 104.9C122.516 105.487 122.756 105.94 123.13 106.26C123.516 106.567 124.03 106.72 124.67 106.72C125.496 106.72 126.096 106.38 126.47 105.7C126.843 105.007 127.03 103.847 127.03 102.22C126.723 102.647 126.29 102.98 125.73 103.22C125.183 103.46 124.59 103.58 123.95 103.58C123.096 103.58 122.323 103.407 121.63 103.06C120.95 102.7 120.41 102.173 120.01 101.48C119.61 100.773 119.41 99.92 119.41 98.92C119.41 97.44 119.85 96.2667 120.73 95.4C121.61 94.52 122.81 94.08 124.33 94.08C126.223 94.08 127.556 94.6867 128.33 95.9C129.116 97.1133 129.51 98.94 129.51 101.38C129.51 103.113 129.356 104.533 129.05 105.64C128.756 106.747 128.243 107.587 127.51 108.16C126.79 108.733 125.803 109.02 124.55 109.02C123.563 109.02 122.723 108.833 122.03 108.46C121.336 108.073 120.803 107.573 120.43 106.96C120.07 106.333 119.863 105.647 119.81 104.9H122.41ZM124.53 101.3C125.223 101.3 125.77 101.087 126.17 100.66C126.57 100.233 126.77 99.66 126.77 98.94C126.77 98.1533 126.556 97.5467 126.13 97.12C125.716 96.68 125.15 96.46 124.43 96.46C123.71 96.46 123.136 96.6867 122.71 97.14C122.296 97.58 122.09 98.1667 122.09 98.9C122.09 99.6067 122.29 100.187 122.69 100.64C123.103 101.08 123.716 101.3 124.53 101.3Z" fill="#232D42"/>
<path d="M99.3935 137.965L96.2015 145.441H94.4975L97.7135 138.157H93.6095V136.717H99.3935V137.965ZM102.828 143.677L101.424 147.049H100.344L101.124 143.677H102.828ZM104.247 140.953C104.247 139.569 104.495 138.485 104.991 137.701C105.495 136.917 106.327 136.525 107.487 136.525C108.647 136.525 109.475 136.917 109.971 137.701C110.475 138.485 110.727 139.569 110.727 140.953C110.727 142.345 110.475 143.437 109.971 144.229C109.475 145.021 108.647 145.417 107.487 145.417C106.327 145.417 105.495 145.021 104.991 144.229C104.495 143.437 104.247 142.345 104.247 140.953ZM109.071 140.953C109.071 140.361 109.031 139.865 108.951 139.465C108.879 139.057 108.727 138.725 108.495 138.469C108.271 138.213 107.935 138.085 107.487 138.085C107.039 138.085 106.699 138.213 106.467 138.469C106.243 138.725 106.091 139.057 106.011 139.465C105.939 139.865 105.903 140.361 105.903 140.953C105.903 141.561 105.939 142.073 106.011 142.489C106.083 142.897 106.235 143.229 106.467 143.485C106.699 143.733 107.039 143.857 107.487 143.857C107.935 143.857 108.275 143.733 108.507 143.485C108.739 143.229 108.891 142.897 108.963 142.489C109.035 142.073 109.071 141.561 109.071 140.953ZM112.404 140.953C112.404 139.569 112.652 138.485 113.148 137.701C113.652 136.917 114.484 136.525 115.644 136.525C116.804 136.525 117.632 136.917 118.128 137.701C118.632 138.485 118.884 139.569 118.884 140.953C118.884 142.345 118.632 143.437 118.128 144.229C117.632 145.021 116.804 145.417 115.644 145.417C114.484 145.417 113.652 145.021 113.148 144.229C112.652 143.437 112.404 142.345 112.404 140.953ZM117.228 140.953C117.228 140.361 117.188 139.865 117.108 139.465C117.036 139.057 116.884 138.725 116.652 138.469C116.428 138.213 116.092 138.085 115.644 138.085C115.196 138.085 114.856 138.213 114.624 138.469C114.4 138.725 114.248 139.057 114.168 139.465C114.096 139.865 114.06 140.361 114.06 140.953C114.06 141.561 114.096 142.073 114.168 142.489C114.24 142.897 114.392 143.229 114.624 143.485C114.856 143.733 115.196 143.857 115.644 143.857C116.092 143.857 116.432 143.733 116.664 143.485C116.896 143.229 117.048 142.897 117.12 142.489C117.192 142.073 117.228 141.561 117.228 140.953ZM120.37 138.841C120.37 138.233 120.546 137.757 120.898 137.413C121.258 137.069 121.718 136.897 122.278 136.897C122.838 136.897 123.294 137.069 123.646 137.413C124.006 137.757 124.186 138.233 124.186 138.841C124.186 139.457 124.006 139.937 123.646 140.281C123.294 140.625 122.838 140.797 122.278 140.797C121.718 140.797 121.258 140.625 120.898 140.281C120.546 139.937 120.37 139.457 120.37 138.841ZM128.074 137.041L123.358 145.441H121.726L126.43 137.041H128.074ZM122.266 137.905C121.826 137.905 121.606 138.217 121.606 138.841C121.606 139.473 121.826 139.789 122.266 139.789C122.482 139.789 122.65 139.713 122.77 139.561C122.89 139.401 122.95 139.161 122.95 138.841C122.95 138.217 122.722 137.905 122.266 137.905ZM125.638 143.629C125.638 143.013 125.814 142.537 126.166 142.201C126.526 141.857 126.986 141.685 127.546 141.685C128.106 141.685 128.558 141.857 128.902 142.201C129.254 142.537 129.43 143.013 129.43 143.629C129.43 144.245 129.254 144.725 128.902 145.069C128.558 145.413 128.106 145.585 127.546 145.585C126.978 145.585 126.518 145.413 126.166 145.069C125.814 144.725 125.638 144.245 125.638 143.629ZM127.534 142.693C127.078 142.693 126.85 143.005 126.85 143.629C126.85 144.261 127.078 144.577 127.534 144.577C127.982 144.577 128.206 144.261 128.206 143.629C128.206 143.005 127.982 142.693 127.534 142.693Z" fill="#4AAF05"/>
<path d="M82.1895 144.107V138.773" stroke="#4AAF05" stroke-width="2" stroke-linecap="round" stroke-linejoin="round"/>
<path d="M80.1895 140.773L82.1895 138.773L84.1895 140.773" stroke="#4AAF05" stroke-width="2" stroke-linecap="round" stroke-linejoin="round"/>
<rect x="174.189" y="62" width="128" height="70" fill="white"/>
<path d="M181.189 138.308C182.683 136.41 187.015 132.615 192.393 132.615C199.115 132.615 196.426 144 203.148 144C209.87 144 206.285 99.8846 213.903 99.8846C221.521 99.8846 215.696 115.538 224.658 115.538C233.621 115.538 226.899 132.615 235.414 132.615C243.928 132.615 238.102 99.8846 246.169 99.8846C254.235 99.8846 247.961 70 256.924 70C265.887 70 258.268 92.7692 267.679 92.7692C277.09 92.7692 268.575 129.058 278.434 129.058C288.293 129.058 283.364 115.538 289.189 115.538" stroke="#7A52F8" stroke-width="2"/>
<path opacity="0.4" d="M86.1174 73H85.0254L80.6334 66.34V73H79.5414V64.624H80.6334L85.0254 71.272V64.624H86.1174V73ZM93.9789 69.46C93.9789 69.668 93.9669 69.888 93.9429 70.12H88.6869C88.7269 70.768 88.9469 71.276 89.3469 71.644C89.7549 72.004 90.2469 72.184 90.8229 72.184C91.2949 72.184 91.6869 72.076 91.9989 71.86C92.3189 71.636 92.5429 71.34 92.6709 70.972H93.8469C93.6709 71.604 93.3189 72.12 92.7909 72.52C92.2629 72.912 91.6069 73.108 90.8229 73.108C90.1989 73.108 89.6389 72.968 89.1429 72.688C88.6549 72.408 88.2709 72.012 87.9909 71.5C87.7109 70.98 87.5709 70.38 87.5709 69.7C87.5709 69.02 87.7069 68.424 87.9789 67.912C88.2509 67.4 88.6309 67.008 89.1189 66.736C89.6149 66.456 90.1829 66.316 90.8229 66.316C91.4469 66.316 91.9989 66.452 92.4789 66.724C92.9589 66.996 93.3269 67.372 93.5829 67.852C93.8469 68.324 93.9789 68.86 93.9789 69.46ZM92.8509 69.232C92.8509 68.816 92.7589 68.46 92.5749 68.164C92.3909 67.86 92.1389 67.632 91.8189 67.48C91.5069 67.32 91.1589 67.24 90.7749 67.24C90.2229 67.24 89.7509 67.416 89.3589 67.768C88.9749 68.12 88.7549 68.608 88.6989 69.232H92.8509ZM104.18 66.424L102.128 73H101L99.4163 67.78L97.8323 73H96.7043L94.6403 66.424H95.7563L97.2683 71.944L98.9003 66.424H100.016L101.612 71.956L103.1 66.424H104.18ZM109.555 72.112H112.483V73H108.463V64.636H109.555V72.112ZM119.643 69.46C119.643 69.668 119.631 69.888 119.607 70.12H114.351C114.391 70.768 114.611 71.276 115.011 71.644C115.419 72.004 115.911 72.184 116.487 72.184C116.959 72.184 117.351 72.076 117.663 71.86C117.983 71.636 118.207 71.34 118.335 70.972H119.511C119.335 71.604 118.983 72.12 118.455 72.52C117.927 72.912 117.271 73.108 116.487 73.108C115.863 73.108 115.303 72.968 114.807 72.688C114.319 72.408 113.935 72.012 113.655 71.5C113.375 70.98 113.235 70.38 113.235 69.7C113.235 69.02 113.371 68.424 113.643 67.912C113.915 67.4 114.295 67.008 114.783 66.736C115.279 66.456 115.847 66.316 116.487 66.316C117.111 66.316 117.663 66.452 118.143 66.724C118.623 66.996 118.991 67.372 119.247 67.852C119.511 68.324 119.643 68.86 119.643 69.46ZM118.515 69.232C118.515 68.816 118.423 68.46 118.239 68.164C118.055 67.86 117.803 67.632 117.483 67.48C117.171 67.32 116.823 67.24 116.439 67.24C115.887 67.24 115.415 67.416 115.023 67.768C114.639 68.12 114.419 68.608 114.363 69.232H118.515ZM120.676 69.688C120.676 69.016 120.812 68.428 121.084 67.924C121.356 67.412 121.728 67.016 122.2 66.736C122.68 66.456 123.212 66.316 123.796 66.316C124.372 66.316 124.872 66.44 125.296 66.688C125.72 66.936 126.036 67.248 126.244 67.624V66.424H127.348V73H126.244V71.776C126.028 72.16 125.704 72.48 125.272 72.736C124.848 72.984 124.352 73.108 123.784 73.108C123.2 73.108 122.672 72.964 122.2 72.676C121.728 72.388 121.356 71.984 121.084 71.464C120.812 70.944 120.676 70.352 120.676 69.688ZM126.244 69.7C126.244 69.204 126.144 68.772 125.944 68.404C125.744 68.036 125.472 67.756 125.128 67.564C124.792 67.364 124.42 67.264 124.012 67.264C123.604 67.264 123.232 67.36 122.896 67.552C122.56 67.744 122.292 68.024 122.092 68.392C121.892 68.76 121.792 69.192 121.792 69.688C121.792 70.192 121.892 70.632 122.092 71.008C122.292 71.376 122.56 71.66 122.896 71.86C123.232 72.052 123.604 72.148 124.012 72.148C124.42 72.148 124.792 72.052 125.128 71.86C125.472 71.66 125.744 71.376 125.944 71.008C126.144 70.632 126.244 70.196 126.244 69.7ZM128.786 69.688C128.786 69.016 128.922 68.428 129.194 67.924C129.466 67.412 129.838 67.016 130.31 66.736C130.79 66.456 131.326 66.316 131.918 66.316C132.43 66.316 132.906 66.436 133.346 66.676C133.786 66.908 134.122 67.216 134.354 67.6V64.12H135.458V73H134.354V71.764C134.138 72.156 133.818 72.48 133.394 72.736C132.97 72.984 132.474 73.108 131.906 73.108C131.322 73.108 130.79 72.964 130.31 72.676C129.838 72.388 129.466 71.984 129.194 71.464C128.922 70.944 128.786 70.352 128.786 69.688ZM134.354 69.7C134.354 69.204 134.254 68.772 134.054 68.404C133.854 68.036 133.582 67.756 133.238 67.564C132.902 67.364 132.53 67.264 132.122 67.264C131.714 67.264 131.342 67.36 131.006 67.552C130.67 67.744 130.402 68.024 130.202 68.392C130.002 68.76 129.902 69.192 129.902 69.688C129.902 70.192 130.002 70.632 130.202 71.008C130.402 71.376 130.67 71.66 131.006 71.86C131.342 72.052 131.714 72.148 132.122 72.148C132.53 72.148 132.902 72.052 133.238 71.86C133.582 71.66 133.854 71.376 134.054 71.008C134.254 70.632 134.354 70.196 134.354 69.7ZM139.631 73.108C139.127 73.108 138.675 73.024 138.275 72.856C137.875 72.68 137.559 72.44 137.327 72.136C137.095 71.824 136.967 71.468 136.943 71.068H138.071C138.103 71.396 138.255 71.664 138.527 71.872C138.807 72.08 139.171 72.184 139.619 72.184C140.035 72.184 140.363 72.092 140.603 71.908C140.843 71.724 140.963 71.492 140.963 71.212C140.963 70.924 140.835 70.712 140.579 70.576C140.323 70.432 139.927 70.292 139.391 70.156C138.903 70.028 138.503 69.9 138.191 69.772C137.887 69.636 137.623 69.44 137.399 69.184C137.183 68.92 137.075 68.576 137.075 68.152C137.075 67.816 137.175 67.508 137.375 67.228C137.575 66.948 137.859 66.728 138.227 66.568C138.595 66.4 139.015 66.316 139.487 66.316C140.215 66.316 140.803 66.5 141.251 66.868C141.699 67.236 141.939 67.74 141.971 68.38H140.879C140.855 68.036 140.715 67.76 140.459 67.552C140.211 67.344 139.875 67.24 139.451 67.24C139.059 67.24 138.747 67.324 138.515 67.492C138.283 67.66 138.167 67.88 138.167 68.152C138.167 68.368 138.235 68.548 138.371 68.692C138.515 68.828 138.691 68.94 138.899 69.028C139.115 69.108 139.411 69.2 139.787 69.304C140.259 69.432 140.643 69.56 140.939 69.688C141.235 69.808 141.487 69.992 141.695 70.24C141.911 70.488 142.023 70.812 142.031 71.212C142.031 71.572 141.931 71.896 141.731 72.184C141.531 72.472 141.247 72.7 140.879 72.868C140.519 73.028 140.103 73.108 139.631 73.108Z" fill="#232D42"/>
<g filter="url(#filter3_d)">
<rect x="315" y="124" width="274.996" height="197.82" rx="10" fill="white"/>
</g>
<g filter="url(#filter4_d)">
<rect x="420" y="124" width="65" height="5" fill="#7951F9"/>
</g>
<path opacity="0.8" d="M351.409 240.012L352.621 240L354.637 233.268L356.581 240H357.805L360.229 231.636H359.053L357.217 238.704L355.297 231.636H354.073L352.057 238.728L350.233 231.636H349.069L351.409 240.012ZM364.32 234.24C365.448 234.24 366.408 234.948 366.396 236.232H362.244C362.364 234.948 363.252 234.24 364.32 234.24ZM367.392 237.972H366.216C365.976 238.68 365.352 239.184 364.368 239.184C363.252 239.184 362.316 238.452 362.232 237.12H367.488C367.512 236.892 367.524 236.7 367.524 236.46C367.524 234.66 366.276 233.316 364.368 233.316C362.448 233.316 361.116 234.624 361.116 236.7C361.116 238.788 362.496 240.108 364.368 240.108C366 240.108 367.056 239.172 367.392 237.972ZM377.093 238.212C377.045 235.86 373.229 236.712 373.229 235.152C373.229 234.624 373.709 234.24 374.513 234.24C375.389 234.24 375.893 234.72 375.941 235.38H377.033C376.961 234.096 376.001 233.316 374.549 233.316C373.085 233.316 372.137 234.144 372.137 235.152C372.137 237.6 376.025 236.748 376.025 238.212C376.025 238.752 375.545 239.184 374.681 239.184C373.757 239.184 373.193 238.704 373.133 238.068H372.005C372.077 239.268 373.157 240.108 374.693 240.108C376.145 240.108 377.093 239.292 377.093 238.212ZM378.974 238.2C378.974 239.52 379.634 240 380.798 240H381.782V239.076H380.978C380.306 239.076 380.066 238.848 380.066 238.2V234.324H381.782V233.424H380.066V231.768H378.974V233.424H378.122V234.324H378.974V238.2ZM384.297 236.424C384.297 234.9 385.089 234.432 386.133 234.432H386.421V233.304C385.377 233.304 384.669 233.76 384.297 234.492V233.424H383.205V240H384.297V236.424ZM394.022 236.7C394.022 234.624 392.57 233.316 390.698 233.316C388.838 233.316 387.374 234.624 387.374 236.7C387.374 238.788 388.79 240.108 390.65 240.108C392.522 240.108 394.022 238.788 394.022 236.7ZM388.49 236.7C388.49 235.044 389.534 234.264 390.686 234.264C391.814 234.264 392.906 235.044 392.906 236.7C392.906 238.368 391.79 239.148 390.65 239.148C389.51 239.148 388.49 238.368 388.49 236.7ZM400.37 240H401.45V236.124C401.45 234.24 400.286 233.304 398.762 233.304C397.874 233.304 397.082 233.676 396.65 234.36V233.424H395.558V240H396.65V236.364C396.65 234.948 397.418 234.252 398.534 234.252C399.638 234.252 400.37 234.936 400.37 236.28V240ZM402.925 236.688C402.925 238.728 404.281 240.108 406.045 240.108C407.245 240.108 408.097 239.472 408.493 238.764V240.144C408.493 241.548 407.617 242.292 406.453 242.292C405.373 242.292 404.593 241.752 404.353 240.96H403.273C403.489 242.364 404.725 243.24 406.453 243.24C408.385 243.24 409.597 241.956 409.597 240.144V233.424H408.493V234.624C408.109 233.916 407.245 233.316 406.045 233.316C404.281 233.316 402.925 234.636 402.925 236.688ZM408.493 236.7C408.493 238.248 407.461 239.148 406.261 239.148C405.061 239.148 404.041 238.236 404.041 236.688C404.041 235.14 405.061 234.264 406.261 234.264C407.461 234.264 408.493 235.176 408.493 236.7ZM411.543 240H412.635V231.12H411.543V240ZM417.092 238.752L415.028 233.424H413.816L416.468 239.928L415.172 243.096H416.3L420.26 233.424H419.132L417.092 238.752ZM425.849 234.648V231.12H424.757V240H425.849V238.788C426.257 239.508 427.109 240.108 428.309 240.108C430.073 240.108 431.429 238.728 431.429 236.688C431.429 234.636 430.085 233.316 428.309 233.316C427.145 233.316 426.269 233.916 425.849 234.648ZM430.313 236.688C430.313 238.236 429.293 239.148 428.081 239.148C426.893 239.148 425.849 238.248 425.849 236.7C425.849 235.176 426.893 234.264 428.081 234.264C429.293 234.264 430.313 235.14 430.313 236.688ZM435.762 234.24C436.89 234.24 437.85 234.948 437.838 236.232H433.686C433.806 234.948 434.694 234.24 435.762 234.24ZM438.834 237.972H437.658C437.418 238.68 436.794 239.184 435.81 239.184C434.694 239.184 433.758 238.452 433.674 237.12H438.93C438.954 236.892 438.966 236.7 438.966 236.46C438.966 234.66 437.718 233.316 435.81 233.316C433.89 233.316 432.558 234.624 432.558 236.7C432.558 238.788 433.938 240.108 435.81 240.108C437.442 240.108 438.498 239.172 438.834 237.972ZM440.508 240H441.6V231.12H440.508V240ZM443.561 240H444.653V233.424H443.561V240ZM444.125 232.356C444.521 232.356 444.845 232.032 444.845 231.612C444.845 231.192 444.521 230.868 444.125 230.868C443.705 230.868 443.381 231.192 443.381 231.612C443.381 232.032 443.705 232.356 444.125 232.356ZM449.41 234.24C450.538 234.24 451.498 234.948 451.486 236.232H447.334C447.454 234.948 448.342 234.24 449.41 234.24ZM452.482 237.972H451.306C451.066 238.68 450.442 239.184 449.458 239.184C448.342 239.184 447.406 238.452 447.322 237.12H452.578C452.602 236.892 452.614 236.7 452.614 236.46C452.614 234.66 451.366 233.316 449.458 233.316C447.538 233.316 446.206 234.624 446.206 236.7C446.206 238.788 447.586 240.108 449.458 240.108C451.09 240.108 452.146 239.172 452.482 237.972ZM453.375 233.424L455.955 240H457.227L459.807 233.424H458.643L456.603 238.992L454.551 233.424H453.375ZM463.778 234.24C464.906 234.24 465.866 234.948 465.854 236.232H461.702C461.822 234.948 462.71 234.24 463.778 234.24ZM466.85 237.972H465.674C465.434 238.68 464.81 239.184 463.826 239.184C462.71 239.184 461.774 238.452 461.69 237.12H466.946C466.97 236.892 466.982 236.7 466.982 236.46C466.982 234.66 465.734 233.316 463.826 233.316C461.906 233.316 460.574 234.624 460.574 236.7C460.574 238.788 461.954 240.108 463.826 240.108C465.458 240.108 466.514 239.172 466.85 237.972ZM472.062 238.2C472.062 239.52 472.722 240 473.886 240H474.87V239.076H474.066C473.394 239.076 473.154 238.848 473.154 238.2V234.324H474.87V233.424H473.154V231.768H472.062V233.424H471.21V234.324H472.062V238.2ZM476.294 240H477.386V236.364C477.386 234.948 478.154 234.252 479.27 234.252C480.374 234.252 481.106 234.936 481.106 236.28V240H482.186V236.124C482.186 234.24 481.022 233.304 479.558 233.304C478.634 233.304 477.818 233.676 477.386 234.372V231.12H476.294V240ZM483.661 236.688C483.661 238.728 485.017 240.108 486.769 240.108C487.981 240.108 488.833 239.484 489.229 238.776V240H490.333V233.424H489.229V234.624C488.845 233.94 488.005 233.316 486.781 233.316C485.017 233.316 483.661 234.636 483.661 236.688ZM489.229 236.7C489.229 238.248 488.197 239.148 486.997 239.148C485.797 239.148 484.777 238.236 484.777 236.688C484.777 235.14 485.797 234.264 486.997 234.264C488.197 234.264 489.229 235.176 489.229 236.7ZM492.519 238.2C492.519 239.52 493.179 240 494.343 240H495.327V239.076H494.523C493.851 239.076 493.611 238.848 493.611 238.2V234.324H495.327V233.424H493.611V231.768H492.519V233.424H491.667V234.324H492.519V238.2ZM504.777 238.212C504.729 235.86 500.913 236.712 500.913 235.152C500.913 234.624 501.393 234.24 502.197 234.24C503.073 234.24 503.577 234.72 503.625 235.38H504.717C504.645 234.096 503.685 233.316 502.233 233.316C500.769 233.316 499.821 234.144 499.821 235.152C499.821 237.6 503.709 236.748 503.709 238.212C503.709 238.752 503.229 239.184 502.365 239.184C501.441 239.184 500.877 238.704 500.817 238.068H499.689C499.761 239.268 500.841 240.108 502.377 240.108C503.829 240.108 504.777 239.292 504.777 238.212ZM512.251 233.424H511.159V237.036C511.159 238.452 510.403 239.148 509.275 239.148C508.171 239.148 507.439 238.464 507.439 237.132V233.424H506.359V237.276C506.359 239.16 507.547 240.096 509.059 240.096C509.935 240.096 510.739 239.712 511.159 239.028V240H512.251V233.424ZM513.786 236.7C513.786 238.788 515.118 240.108 516.99 240.108C518.622 240.108 519.69 239.196 520.026 237.888H518.85C518.61 238.716 517.962 239.184 516.99 239.184C515.79 239.184 514.902 238.332 514.902 236.7C514.902 235.092 515.79 234.24 516.99 234.24C517.962 234.24 518.622 234.744 518.85 235.536H520.026C519.69 234.156 518.622 233.316 516.99 233.316C515.118 233.316 513.786 234.636 513.786 236.7ZM521.175 236.7C521.175 238.788 522.507 240.108 524.379 240.108C526.011 240.108 527.079 239.196 527.415 237.888H526.239C525.999 238.716 525.351 239.184 524.379 239.184C523.179 239.184 522.291 238.332 522.291 236.7C522.291 235.092 523.179 234.24 524.379 234.24C525.351 234.24 526.011 234.744 526.239 235.536H527.415C527.079 234.156 526.011 233.316 524.379 233.316C522.507 233.316 521.175 234.636 521.175 236.7ZM531.768 234.24C532.896 234.24 533.856 234.948 533.844 236.232H529.692C529.812 234.948 530.7 234.24 531.768 234.24ZM534.84 237.972H533.664C533.424 238.68 532.8 239.184 531.816 239.184C530.7 239.184 529.764 238.452 529.68 237.12H534.936C534.96 236.892 534.972 236.7 534.972 236.46C534.972 234.66 533.724 233.316 531.816 233.316C529.896 233.316 528.564 234.624 528.564 236.7C528.564 238.788 529.944 240.108 531.816 240.108C533.448 240.108 534.504 239.172 534.84 237.972ZM541.242 238.212C541.194 235.86 537.378 236.712 537.378 235.152C537.378 234.624 537.858 234.24 538.662 234.24C539.538 234.24 540.042 234.72 540.09 235.38H541.182C541.11 234.096 540.15 233.316 538.698 233.316C537.234 233.316 536.286 234.144 536.286 235.152C536.286 237.6 540.174 236.748 540.174 238.212C540.174 238.752 539.694 239.184 538.83 239.184C537.906 239.184 537.342 238.704 537.282 238.068H536.154C536.226 239.268 537.306 240.108 538.842 240.108C540.294 240.108 541.242 239.292 541.242 238.212ZM547.611 238.212C547.563 235.86 543.747 236.712 543.747 235.152C543.747 234.624 544.227 234.24 545.031 234.24C545.907 234.24 546.411 234.72 546.459 235.38H547.551C547.479 234.096 546.519 233.316 545.067 233.316C543.603 233.316 542.655 234.144 542.655 235.152C542.655 237.6 546.543 236.748 546.543 238.212C546.543 238.752 546.063 239.184 545.199 239.184C544.275 239.184 543.711 238.704 543.651 238.068H542.523C542.595 239.268 543.675 240.108 545.211 240.108C546.663 240.108 547.611 239.292 547.611 238.212ZM549.457 240H550.549V234.324H551.929V233.424H550.549V232.956C550.549 232.104 550.873 231.744 551.857 231.744V230.832C550.177 230.832 549.457 231.492 549.457 232.956V233.424H548.605V234.324H549.457V240ZM559.134 233.424H558.042V237.036C558.042 238.452 557.286 239.148 556.158 239.148C555.054 239.148 554.322 238.464 554.322 237.132V233.424H553.242V237.276C553.242 239.16 554.43 240.096 555.942 240.096C556.818 240.096 557.622 239.712 558.042 239.028V240H559.134V233.424ZM561.078 240H562.17V231.12H561.078V240ZM353.61 254.7C353.61 256.788 354.942 258.108 356.814 258.108C358.446 258.108 359.514 257.196 359.85 255.888H358.674C358.434 256.716 357.786 257.184 356.814 257.184C355.614 257.184 354.726 256.332 354.726 254.7C354.726 253.092 355.614 252.24 356.814 252.24C357.786 252.24 358.446 252.744 358.674 253.536H359.85C359.514 252.156 358.446 251.316 356.814 251.316C354.942 251.316 353.61 252.636 353.61 254.7ZM367.647 254.7C367.647 252.624 366.195 251.316 364.323 251.316C362.463 251.316 360.999 252.624 360.999 254.7C360.999 256.788 362.415 258.108 364.275 258.108C366.147 258.108 367.647 256.788 367.647 254.7ZM362.115 254.7C362.115 253.044 363.159 252.264 364.311 252.264C365.439 252.264 366.531 253.044 366.531 254.7C366.531 256.368 365.415 257.148 364.275 257.148C363.135 257.148 362.115 256.368 362.115 254.7ZM373.995 258H375.075V254.124C375.075 252.24 373.911 251.304 372.387 251.304C371.499 251.304 370.707 251.676 370.275 252.36V251.424H369.183V258H370.275V254.364C370.275 252.948 371.043 252.252 372.159 252.252C373.263 252.252 373.995 252.936 373.995 254.28V258ZM377.199 256.2C377.199 257.52 377.859 258 379.023 258H380.007V257.076H379.203C378.531 257.076 378.291 256.848 378.291 256.2V252.324H380.007V251.424H378.291V249.768H377.199V251.424H376.347V252.324H377.199V256.2ZM384.226 252.24C385.354 252.24 386.314 252.948 386.302 254.232H382.15C382.27 252.948 383.158 252.24 384.226 252.24ZM387.298 255.972H386.122C385.882 256.68 385.258 257.184 384.274 257.184C383.158 257.184 382.222 256.452 382.138 255.12H387.394C387.418 254.892 387.43 254.7 387.43 254.46C387.43 252.66 386.182 251.316 384.274 251.316C382.354 251.316 381.022 252.624 381.022 254.7C381.022 256.788 382.402 258.108 384.274 258.108C385.906 258.108 386.962 257.172 387.298 255.972ZM393.783 258H394.863V254.124C394.863 252.24 393.699 251.304 392.175 251.304C391.287 251.304 390.495 251.676 390.063 252.36V251.424H388.971V258H390.063V254.364C390.063 252.948 390.831 252.252 391.947 252.252C393.051 252.252 393.783 252.936 393.783 254.28V258ZM396.987 256.2C396.987 257.52 397.647 258 398.811 258H399.795V257.076H398.991C398.319 257.076 398.079 256.848 398.079 256.2V252.324H399.795V251.424H398.079V249.768H396.987V251.424H396.135V252.324H396.987V256.2ZM414.009 258H415.089V254.124C415.089 252.24 413.925 251.304 412.425 251.304C411.417 251.304 410.481 251.82 410.097 252.768C409.665 251.784 408.765 251.304 407.685 251.304C406.821 251.304 406.041 251.676 405.609 252.372V251.424H404.517V258H405.609V254.376C405.609 252.96 406.365 252.252 407.469 252.252C408.549 252.252 409.269 252.936 409.269 254.28V258H410.349V254.376C410.349 252.96 411.105 252.252 412.209 252.252C413.289 252.252 414.009 252.936 414.009 254.28V258ZM416.573 254.688C416.573 256.728 417.929 258.108 419.681 258.108C420.893 258.108 421.745 257.484 422.141 256.776V258H423.245V251.424H422.141V252.624C421.757 251.94 420.917 251.316 419.693 251.316C417.929 251.316 416.573 252.636 416.573 254.688ZM422.141 254.7C422.141 256.248 421.109 257.148 419.909 257.148C418.709 257.148 417.689 256.236 417.689 254.688C417.689 253.14 418.709 252.264 419.909 252.264C421.109 252.264 422.141 253.176 422.141 254.7ZM426.282 254.424C426.282 252.9 427.074 252.432 428.118 252.432H428.406V251.304C427.362 251.304 426.654 251.76 426.282 252.492V251.424H425.19V258H426.282V254.424ZM429.767 258H430.859V255.096L433.439 258H434.927L431.819 254.7L434.915 251.424H433.391L430.859 254.34V249.12H429.767V258ZM438.838 252.24C439.966 252.24 440.926 252.948 440.914 254.232H436.762C436.882 252.948 437.77 252.24 438.838 252.24ZM441.91 255.972H440.734C440.494 256.68 439.87 257.184 438.886 257.184C437.77 257.184 436.834 256.452 436.75 255.12H442.006C442.03 254.892 442.042 254.7 442.042 254.46C442.042 252.66 440.794 251.316 438.886 251.316C436.966 251.316 435.634 252.624 435.634 254.7C435.634 256.788 437.014 258.108 438.886 258.108C440.518 258.108 441.574 257.172 441.91 255.972ZM443.824 256.2C443.824 257.52 444.484 258 445.648 258H446.632V257.076H445.828C445.156 257.076 444.916 256.848 444.916 256.2V252.324H446.632V251.424H444.916V249.768H443.824V251.424H442.972V252.324H443.824V256.2ZM448.055 258H449.147V251.424H448.055V258ZM448.619 250.356C449.015 250.356 449.339 250.032 449.339 249.612C449.339 249.192 449.015 248.868 448.619 248.868C448.199 248.868 447.875 249.192 447.875 249.612C447.875 250.032 448.199 250.356 448.619 250.356ZM455.92 258H457V254.124C457 252.24 455.836 251.304 454.312 251.304C453.424 251.304 452.632 251.676 452.2 252.36V251.424H451.108V258H452.2V254.364C452.2 252.948 452.968 252.252 454.084 252.252C455.188 252.252 455.92 252.936 455.92 254.28V258ZM458.476 254.688C458.476 256.728 459.832 258.108 461.596 258.108C462.796 258.108 463.648 257.472 464.044 256.764V258.144C464.044 259.548 463.168 260.292 462.004 260.292C460.924 260.292 460.144 259.752 459.904 258.96H458.824C459.04 260.364 460.276 261.24 462.004 261.24C463.936 261.24 465.148 259.956 465.148 258.144V251.424H464.044V252.624C463.66 251.916 462.796 251.316 461.596 251.316C459.832 251.316 458.476 252.636 458.476 254.688ZM464.044 254.7C464.044 256.248 463.012 257.148 461.812 257.148C460.612 257.148 459.592 256.236 459.592 254.688C459.592 253.14 460.612 252.264 461.812 252.264C463.012 252.264 464.044 253.176 464.044 254.7ZM475.12 256.212C475.072 253.86 471.256 254.712 471.256 253.152C471.256 252.624 471.736 252.24 472.54 252.24C473.416 252.24 473.92 252.72 473.968 253.38H475.06C474.988 252.096 474.028 251.316 472.576 251.316C471.112 251.316 470.164 252.144 470.164 253.152C470.164 255.6 474.052 254.748 474.052 256.212C474.052 256.752 473.572 257.184 472.708 257.184C471.784 257.184 471.22 256.704 471.16 256.068H470.032C470.104 257.268 471.184 258.108 472.72 258.108C474.172 258.108 475.12 257.292 475.12 256.212ZM476.762 258H477.854V254.364C477.854 252.948 478.622 252.252 479.738 252.252C480.842 252.252 481.574 252.936 481.574 254.28V258H482.654V254.124C482.654 252.24 481.49 251.304 480.026 251.304C479.102 251.304 478.286 251.676 477.854 252.372V249.12H476.762V258ZM490.778 254.7C490.778 252.624 489.326 251.316 487.454 251.316C485.594 251.316 484.13 252.624 484.13 254.7C484.13 256.788 485.546 258.108 487.406 258.108C489.278 258.108 490.778 256.788 490.778 254.7ZM485.246 254.7C485.246 253.044 486.29 252.264 487.442 252.264C488.57 252.264 489.662 253.044 489.662 254.7C489.662 256.368 488.546 257.148 487.406 257.148C486.266 257.148 485.246 256.368 485.246 254.7ZM498.145 251.424H497.053V255.036C497.053 256.452 496.297 257.148 495.169 257.148C494.065 257.148 493.333 256.464 493.333 255.132V251.424H492.253V255.276C492.253 257.16 493.441 258.096 494.953 258.096C495.829 258.096 496.633 257.712 497.053 257.028V258H498.145V251.424ZM500.089 258H501.181V249.12H500.089V258ZM502.734 254.688C502.734 256.728 504.09 258.108 505.854 258.108C507.054 258.108 507.906 257.496 508.302 256.764V258H509.406V249.12H508.302V252.6C507.846 251.844 506.898 251.316 505.866 251.316C504.09 251.316 502.734 252.636 502.734 254.688ZM508.302 254.7C508.302 256.248 507.27 257.148 506.07 257.148C504.87 257.148 503.85 256.236 503.85 254.688C503.85 253.14 504.87 252.264 506.07 252.264C507.27 252.264 508.302 253.176 508.302 254.7ZM516.164 258H517.244V254.124C517.244 252.24 516.08 251.304 514.556 251.304C513.668 251.304 512.876 251.676 512.444 252.36V251.424H511.352V258H512.444V254.364C512.444 252.948 513.212 252.252 514.328 252.252C515.432 252.252 516.164 252.936 516.164 254.28V258ZM519.356 252.36L520.508 249.636H519.296L518.588 252.36H519.356ZM522.093 256.2C522.093 257.52 522.753 258 523.917 258H524.901V257.076H524.097C523.425 257.076 523.185 256.848 523.185 256.2V252.324H524.901V251.424H523.185V249.768H522.093V251.424H521.241V252.324H522.093V256.2ZM529.215 254.688C529.215 256.728 530.571 258.108 532.335 258.108C533.535 258.108 534.387 257.496 534.783 256.764V258H535.887V249.12H534.783V252.6C534.327 251.844 533.379 251.316 532.347 251.316C530.571 251.316 529.215 252.636 529.215 254.688ZM534.783 254.7C534.783 256.248 533.751 257.148 532.551 257.148C531.351 257.148 530.331 256.236 530.331 254.688C530.331 253.14 531.351 252.264 532.551 252.264C533.751 252.264 534.783 253.176 534.783 254.7ZM538.924 254.424C538.924 252.9 539.716 252.432 540.76 252.432H541.048V251.304C540.004 251.304 539.296 251.76 538.924 252.492V251.424H537.832V258H538.924V254.424ZM542.409 258H543.501V251.424H542.409V258ZM542.973 250.356C543.369 250.356 543.693 250.032 543.693 249.612C543.693 249.192 543.369 248.868 542.973 248.868C542.553 248.868 542.229 249.192 542.229 249.612C542.229 250.032 542.553 250.356 542.973 250.356ZM544.682 251.424L547.262 258H548.534L551.114 251.424H549.95L547.91 256.992L545.858 251.424H544.682ZM555.084 252.24C556.212 252.24 557.172 252.948 557.16 254.232H553.008C553.128 252.948 554.016 252.24 555.084 252.24ZM558.156 255.972H556.98C556.74 256.68 556.116 257.184 555.132 257.184C554.016 257.184 553.08 256.452 552.996 255.12H558.252C558.276 254.892 558.288 254.7 558.288 254.46C558.288 252.66 557.04 251.316 555.132 251.316C553.212 251.316 551.88 252.624 551.88 254.7C551.88 256.788 553.26 258.108 555.132 258.108C556.764 258.108 557.82 257.172 558.156 255.972ZM446.954 274.752L444.89 269.424H443.678L446.33 275.928L445.034 279.096H446.162L450.122 269.424H448.994L446.954 274.752ZM457.559 272.7C457.559 270.624 456.107 269.316 454.235 269.316C452.375 269.316 450.911 270.624 450.911 272.7C450.911 274.788 452.327 276.108 454.187 276.108C456.059 276.108 457.559 274.788 457.559 272.7ZM452.027 272.7C452.027 271.044 453.071 270.264 454.223 270.264C455.351 270.264 456.443 271.044 456.443 272.7C456.443 274.368 455.327 275.148 454.187 275.148C453.047 275.148 452.027 274.368 452.027 272.7ZM464.927 269.424H463.835V273.036C463.835 274.452 463.079 275.148 461.951 275.148C460.847 275.148 460.115 274.464 460.115 273.132V269.424H459.035V273.276C459.035 275.16 460.223 276.096 461.735 276.096C462.611 276.096 463.415 275.712 463.835 275.028V276H464.927V269.424ZM467.939 275.328C467.939 274.908 467.615 274.584 467.219 274.584C466.799 274.584 466.475 274.908 466.475 275.328C466.475 275.748 466.799 276.072 467.219 276.072C467.615 276.072 467.939 275.748 467.939 275.328Z" fill="#426666"/>
<path d="M427.094 174.26C427.161 172.927 427.627 171.9 428.494 171.18C429.374 170.447 430.527 170.08 431.954 170.08C432.927 170.08 433.761 170.253 434.454 170.6C435.147 170.933 435.667 171.393 436.014 171.98C436.374 172.553 436.554 173.207 436.554 173.94C436.554 174.78 436.334 175.493 435.894 176.08C435.467 176.653 434.954 177.04 434.354 177.24V177.32C435.127 177.56 435.727 177.987 436.154 178.6C436.594 179.213 436.814 180 436.814 180.96C436.814 181.76 436.627 182.473 436.254 183.1C435.894 183.727 435.354 184.22 434.634 184.58C433.927 184.927 433.074 185.1 432.074 185.1C430.567 185.1 429.341 184.72 428.394 183.96C427.447 183.2 426.947 182.08 426.894 180.6H429.614C429.641 181.253 429.861 181.78 430.274 182.18C430.701 182.567 431.281 182.76 432.014 182.76C432.694 182.76 433.214 182.573 433.574 182.2C433.947 181.813 434.134 181.32 434.134 180.72C434.134 179.92 433.881 179.347 433.374 179C432.867 178.653 432.081 178.48 431.014 178.48H430.434V176.18H431.014C432.907 176.18 433.854 175.547 433.854 174.28C433.854 173.707 433.681 173.26 433.334 172.94C433.001 172.62 432.514 172.46 431.874 172.46C431.247 172.46 430.761 172.633 430.414 172.98C430.081 173.313 429.887 173.74 429.834 174.26H427.094ZM442.407 182.06L440.067 187.68H438.267L439.567 182.06H442.407ZM453.385 172.54L448.065 185H445.225L450.585 172.86H443.745V170.46H453.385V172.54ZM455.942 181.84C457.222 180.773 458.242 179.887 459.002 179.18C459.762 178.46 460.395 177.713 460.902 176.94C461.409 176.167 461.662 175.407 461.662 174.66C461.662 173.98 461.502 173.447 461.182 173.06C460.862 172.673 460.369 172.48 459.702 172.48C459.035 172.48 458.522 172.707 458.162 173.16C457.802 173.6 457.615 174.207 457.602 174.98H454.882C454.935 173.38 455.409 172.167 456.302 171.34C457.209 170.513 458.355 170.1 459.742 170.1C461.262 170.1 462.429 170.507 463.242 171.32C464.055 172.12 464.462 173.18 464.462 174.5C464.462 175.54 464.182 176.533 463.622 177.48C463.062 178.427 462.422 179.253 461.702 179.96C460.982 180.653 460.042 181.493 458.882 182.48H464.782V184.8H454.902V182.72L455.942 181.84ZM469.786 180.9C469.893 181.487 470.133 181.94 470.506 182.26C470.893 182.567 471.406 182.72 472.046 182.72C472.873 182.72 473.473 182.38 473.846 181.7C474.22 181.007 474.406 179.847 474.406 178.22C474.1 178.647 473.666 178.98 473.106 179.22C472.56 179.46 471.966 179.58 471.326 179.58C470.473 179.58 469.7 179.407 469.006 179.06C468.326 178.7 467.786 178.173 467.386 177.48C466.986 176.773 466.786 175.92 466.786 174.92C466.786 173.44 467.226 172.267 468.106 171.4C468.986 170.52 470.186 170.08 471.706 170.08C473.6 170.08 474.933 170.687 475.706 171.9C476.493 173.113 476.886 174.94 476.886 177.38C476.886 179.113 476.733 180.533 476.426 181.64C476.133 182.747 475.62 183.587 474.886 184.16C474.166 184.733 473.18 185.02 471.926 185.02C470.94 185.02 470.1 184.833 469.406 184.46C468.713 184.073 468.18 183.573 467.806 182.96C467.446 182.333 467.24 181.647 467.186 180.9H469.786ZM471.906 177.3C472.6 177.3 473.146 177.087 473.546 176.66C473.946 176.233 474.146 175.66 474.146 174.94C474.146 174.153 473.933 173.547 473.506 173.12C473.093 172.68 472.526 172.46 471.806 172.46C471.086 172.46 470.513 172.687 470.086 173.14C469.673 173.58 469.466 174.167 469.466 174.9C469.466 175.607 469.666 176.187 470.066 176.64C470.48 177.08 471.093 177.3 471.906 177.3Z" fill="#7951F9"/>
<defs>
<filter id="filter0_d" x="0" y="222" width="355" height="259" filterUnits="userSpaceOnUse" color-interpolation-filters="sRGB">
<feFlood flood-opacity="0" result="BackgroundImageFix"/>
<feColorMatrix in="SourceAlpha" type="matrix" values="0 0 0 0 0 0 0 0 0 0 0 0 0 0 0 0 0 0 127 0" result="hardAlpha"/>
<feOffset dy="30"/>
<feGaussianBlur stdDeviation="20"/>
<feColorMatrix type="matrix" values="0 0 0 0 0.62862 0 0 0 0 0.557604 0 0 0 0 0.841667 0 0 0 0.1 0"/>
<feBlend mode="normal" in2="BackgroundImageFix" result="effect1_dropShadow"/>
<feBlend mode="normal" in="SourceGraphic" in2="effect1_dropShadow" result="shape"/>
</filter>
<filter id="filter1_d" x="105" y="202" width="145" height="85" filterUnits="userSpaceOnUse" color-interpolation-filters="sRGB">
<feFlood flood-opacity="0" result="BackgroundImageFix"/>
<feColorMatrix in="SourceAlpha" type="matrix" values="0 0 0 0 0 0 0 0 0 0 0 0 0 0 0 0 0 0 127 0" result="hardAlpha"/>
<feOffset dy="10"/>
<feGaussianBlur stdDeviation="20"/>
<feColorMatrix type="matrix" values="0 0 0 0 0.62862 0 0 0 0 0.557604 0 0 0 0 0.841667 0 0 0 0.2 0"/>
<feBlend mode="normal" in2="BackgroundImageFix" result="effect1_dropShadow"/>
<feBlend mode="normal" in="SourceGraphic" in2="effect1_dropShadow" result="shape"/>
</filter>
<filter id="filter2_d" x="0" y="0" width="354.996" height="277.82" filterUnits="userSpaceOnUse" color-interpolation-filters="sRGB">
<feFlood flood-opacity="0" result="BackgroundImageFix"/>
<feColorMatrix in="SourceAlpha" type="matrix" values="0 0 0 0 0 0 0 0 0 0 0 0 0 0 0 0 0 0 127 0" result="hardAlpha"/>
<feOffset dy="30"/>
<feGaussianBlur stdDeviation="20"/>
<feColorMatrix type="matrix" values="0 0 0 0 0.62862 0 0 0 0 0.557604 0 0 0 0 0.841667 0 0 0 0.1 0"/>
<feBlend mode="normal" in2="BackgroundImageFix" result="effect1_dropShadow"/>
<feBlend mode="normal" in="SourceGraphic" in2="effect1_dropShadow" result="shape"/>
</filter>
<filter id="filter3_d" x="135" y="64" width="514.996" height="437.82" filterUnits="userSpaceOnUse" color-interpolation-filters="sRGB">
<feFlood flood-opacity="0" result="BackgroundImageFix"/>
<feColorMatrix in="SourceAlpha" type="matrix" values="0 0 0 0 0 0 0 0 0 0 0 0 0 0 0 0 0 0 127 0" result="hardAlpha"/>
<feOffset dx="-60" dy="60"/>
<feGaussianBlur stdDeviation="60"/>
<feColorMatrix type="matrix" values="0 0 0 0 0.62862 0 0 0 0 0.557604 0 0 0 0 0.841667 0 0 0 0.2 0"/>
<feBlend mode="normal" in2="BackgroundImageFix" result="effect1_dropShadow"/>
<feBlend mode="normal" in="SourceGraphic" in2="effect1_dropShadow" result="shape"/>
</filter>
<filter id="filter4_d" x="380" y="94" width="145" height="85" filterUnits="userSpaceOnUse" color-interpolation-filters="sRGB">
<feFlood flood-opacity="0" result="BackgroundImageFix"/>
<feColorMatrix in="SourceAlpha" type="matrix" values="0 0 0 0 0 0 0 0 0 0 0 0 0 0 0 0 0 0 127 0" result="hardAlpha"/>
<feOffset dy="10"/>
<feGaussianBlur stdDeviation="20"/>
<feColorMatrix type="matrix" values="0 0 0 0 0.62862 0 0 0 0 0.557604 0 0 0 0 0.841667 0 0 0 0.2 0"/>
<feBlend mode="normal" in2="BackgroundImageFix" result="effect1_dropShadow"/>
<feBlend mode="normal" in="SourceGraphic" in2="effect1_dropShadow" result="shape"/>
</filter>
</defs>
</svg>
