<svg width="18" height="14" viewBox="0 0 18 14" fill="none" xmlns="http://www.w3.org/2000/svg">
<path d="M1.83593 5.15453L1.83594 5.15451C1.97962 5.01083 2.2126 5.01083 2.35627 5.15451L2.35629 5.15453L6.15679 8.955L6.51034 9.30855L6.86389 8.95499L15.0041 0.814791L14.6529 0.463589L15.0041 0.81479C15.1478 0.671112 15.3808 0.671112 15.5245 0.81479L16.7519 2.04225L17.0743 1.71985L16.7519 2.04226C16.8956 2.18592 16.8956 2.41889 16.7519 2.56262C16.7519 2.56263 16.7519 2.56263 16.7519 2.56264L6.77054 12.544C6.62681 12.6878 6.39384 12.6877 6.25017 12.544L5.8966 12.8976L6.25016 12.544L0.608491 6.90236C0.464827 6.7587 0.464797 6.52572 0.608496 6.382C0.608501 6.38199 0.608505 6.38199 0.608509 6.38198L1.83593 5.15453Z" fill="black" stroke="black"/>
</svg>
