<svg width="100%" height="780" viewBox="0 0 100% 780" fill="none" xmlns="http://www.w3.org/2000/svg">
<mask id="mask0" mask-type="alpha" maskUnits="userSpaceOnUse" x="0" y="0" width="100%" height="780">
<rect width="100%" height="780" fill="#C4C4C4"/>

</mask>
<g mask="url(#mask0)">
<path d="M877.026 263.135C878.873 258.703 886.627 257.369 890.62 256.481C895.023 255.503 901.86 253.524 903.337 255.863C904.814 258.202 917.159 324.811 916.174 325.919C915.189 327.027 891.676 329.859 888.721 328.012C885.767 326.165 875.18 267.567 877.026 263.135Z" fill="#D4BDFF"/>
<path d="M750.769 682.789C755.233 683.7 752.802 695.863 751.491 701.351C748.962 711.935 726.707 703.789 730.178 694.286C733.797 684.379 746.543 681.927 750.769 682.789Z" fill="#A678FF"/>
<path fill-rule="evenodd" clip-rule="evenodd" d="M1085.64 520.936C1083.81 517.952 1083.58 514.801 1086.57 511.611C1094.68 502.961 1118.93 508.406 1147.77 514.882C1158.05 517.19 1168.92 519.629 1179.84 521.607C1436.6 547.58 1637 764.387 1637 1028C1637 1309.11 1409.11 1537 1128 1537C846.887 1537 619 1309.11 619 1028C619 928.349 619.092 871.356 668.585 792.863C713.202 712.384 780.027 645.489 857.749 597.962C867.888 589.344 887.176 572.63 896.013 563.793C906.175 553.631 916.474 555.996 921.907 564.239C974.281 540.935 1029.82 526.011 1085.64 520.936Z" fill="url(#paint0_linear)"/>
<circle r="36" transform="matrix(-1 0 0 1 1441 475)" fill="#A87BFF"/>
<path fill-rule="evenodd" clip-rule="evenodd" d="M897.115 241.753C893 241.174 889.064 239.484 886.411 236.032C878.766 226.085 893.627 216.588 900.353 219.067C907.079 221.545 917.406 233.8 914.878 237.55C913.87 239.046 910.354 240.689 906.007 241.493L918.941 252.498L908.439 261.809L897.115 241.753Z" fill="#FFB287"/>
<path fill-rule="evenodd" clip-rule="evenodd" d="M891.641 217.597C889.818 218.432 887.604 220.13 886.816 221.007C886.256 219.371 885.274 217.865 883.964 216.713C882.691 215.593 881.179 215.02 879.663 214.358C878.964 214.052 878.235 213.778 877.479 213.742C876.709 213.704 875.95 213.901 875.29 214.26C874.614 214.627 874.037 215.157 873.58 215.773C873.378 216.046 873.256 216.357 873.068 216.636C872.876 216.922 872.617 216.873 872.296 216.877C871.525 216.886 870.719 217.266 870.108 217.689C869.422 218.163 868.862 218.826 868.452 219.554C868.053 220.262 867.786 221.073 867.786 221.911C867.786 222.284 867.829 222.67 867.952 223.029C868.003 223.177 868.052 223.247 867.979 223.382C867.912 223.506 867.797 223.61 867.725 223.736C867.032 224.951 866.863 226.469 867.274 227.861C867.513 228.674 868.281 229.797 869.32 230.899C870.359 232 874.001 234.048 875.913 234.278C877.619 234.483 879.437 234.005 880.894 233.21C880.905 234.841 881.387 236.463 882.027 237.982C882.722 239.631 883.624 241.184 884.716 242.614C885.754 243.972 886.941 245.329 888.347 246.312C889.662 247.232 891.109 247.659 892.647 247.381C893.351 247.254 894.029 247.027 894.693 246.779C895.348 246.535 896 246.284 896.605 245.936C897.749 245.279 898.833 244.256 898.896 242.826C898.918 242.31 898.904 241.699 898.8 241.187C898.762 241.002 898.734 240.885 898.543 240.841C898.313 240.79 898.051 240.827 897.82 240.832C896.504 240.862 895.286 240.424 894.273 239.518C893.245 238.598 892.348 237.031 892.948 235.7C893.688 234.058 895.605 233.491 897.222 233.112C896.232 231.06 895.877 228.738 896.706 226.659C897.623 224.36 899.436 222.579 900.503 220.358C900.781 219.779 901.045 219.167 901.036 218.499C901.031 218.22 901.009 217.872 900.878 217.614C900.705 217.276 900.323 217.202 899.996 217.109C898.26 216.616 893.464 216.762 891.641 217.597Z" fill="#7A35FF"/>
<path fill-rule="evenodd" clip-rule="evenodd" d="M928.878 308.33L1002.83 349.516L1061.75 386.414L1067.83 382.906L953.528 294.099L928.878 308.33Z" fill="white"/>
<path fill-rule="evenodd" clip-rule="evenodd" d="M1056.62 386.105C1056.92 387.944 1057.29 389.24 1057.73 389.99C1058.25 390.904 1059.18 392.148 1060.49 393.725C1061.55 393.113 1071.07 387.616 1089.06 377.234C1088.38 374.351 1087.19 373.274 1085.48 374.002C1083.76 374.729 1082.33 375.32 1081.18 375.773L1064.49 377.519C1064.17 377.553 1063.94 377.84 1063.97 378.161C1063.97 378.167 1063.97 378.172 1063.97 378.178L1064.31 380.741C1063.23 382.286 1062.23 383.326 1061.3 383.86C1060.55 384.295 1059.34 384.59 1057.66 384.748L1057.66 384.748C1057.02 384.809 1056.55 385.379 1056.61 386.022C1056.61 386.05 1056.61 386.077 1056.62 386.105Z" fill="#FFCA00"/>
<path d="M1088.94 376.635C1088.56 376.406 1069.45 387.338 1059.94 392.833C1059.84 393.34 1060.32 393.821 1060.72 394.191C1061.13 394.561 1089.23 378.518 1089.5 377.9C1089.77 377.283 1089.41 376.923 1088.94 376.635Z" fill="#CBA71E"/>
<path fill-rule="evenodd" clip-rule="evenodd" d="M1049 382.421L1058.67 372.111C1044.67 359.726 1028.63 346.469 1010.54 332.338C992.442 318.207 974.169 305.039 955.718 292.834L922.62 311.943C944.65 328.139 966.108 342.022 986.993 353.594C1007.88 365.166 1028.55 374.775 1049 382.421Z" fill="url(#paint1_radial)"/>
<path fill-rule="evenodd" clip-rule="evenodd" d="M926.405 309.758C935.617 333.916 945.074 366.116 944.931 367.361C944.835 368.191 932.322 382.347 907.39 409.831L911.796 414.432C945.246 388.099 962.115 372.914 962.403 368.875C962.834 362.817 957.673 319.905 951.16 295.465L926.405 309.758Z" fill="url(#paint2_linear)"/>
<path fill-rule="evenodd" clip-rule="evenodd" d="M915.472 398.99L922.767 406.285C951.441 392.922 967.165 381.537 969.939 372.132C972.712 362.727 967.094 336.801 953.084 294.355L921.524 312.577C934.454 346.492 941.001 364.272 941.164 365.915C941.327 367.558 932.763 378.583 915.472 398.99Z" fill="url(#paint3_radial)"/>
<path fill-rule="evenodd" clip-rule="evenodd" d="M907.599 406.734C905.841 407.356 904.63 407.945 903.966 408.503C903.158 409.18 902.092 410.304 900.768 411.874C901.554 412.811 908.621 421.233 921.969 437.139C924.69 435.975 925.544 434.612 924.53 433.053C923.516 431.493 922.686 430.186 922.041 429.134L917.422 412.998C917.333 412.687 917.009 412.507 916.699 412.596C916.694 412.598 916.688 412.599 916.683 412.601L914.219 413.383C912.509 412.586 911.31 411.778 910.623 410.959C910.065 410.294 909.563 409.15 909.117 407.527L909.117 407.527C908.946 406.904 908.302 406.538 907.679 406.709C907.652 406.717 907.626 406.725 907.599 406.734Z" fill="#FFCA00"/>
<path fill-rule="evenodd" clip-rule="evenodd" d="M967.671 257.495L977.377 244.822C976.162 237.194 976.795 232.809 979.275 231.666C980.801 229.927 981.263 240.037 984.571 237.686C987.88 235.334 993.851 224.817 995.972 225.484C999.11 226.471 999.775 233.452 998.731 237.53C996.781 245.152 993.954 248.71 985.974 255.253C981.802 258.674 977.831 263.597 974.06 270.023L967.671 257.495Z" fill="url(#paint4_linear)"/>
<mask id="mask1" mask-type="alpha" maskUnits="userSpaceOnUse" x="959" y="224" width="51" height="47">
<path fill-rule="evenodd" clip-rule="evenodd" d="M967.671 257.495L977.377 244.822C976.162 237.194 976.795 232.809 979.275 231.666C980.801 229.927 981.263 240.037 984.571 237.686C987.88 235.334 993.851 224.817 995.972 225.484C999.11 226.471 999.775 233.452 998.731 237.53C996.781 245.152 993.954 248.71 985.974 255.253C981.802 258.674 977.831 263.597 974.06 270.023L967.671 257.495Z" fill="url(#paint5_linear)"/>
</mask>
<g mask="url(#mask1)">
<path d="M976.696 242.62C976.29 242.881 976.647 245.41 976.877 246.642C977.276 246.896 981.913 255.374 985.5 256.316C989.088 257.259 991.588 253.454 991.914 252.693C992.24 251.932 982.348 243.381 980.391 242.294C978.435 241.207 977.203 242.294 976.696 242.62Z" fill="#D4BDFF"/>
</g>
<path d="M946.783 245.635L927.31 272.731L936.756 275.14L951.91 250.094C958.335 243.577 960.94 240.019 959.724 239.42C957.901 238.522 956.566 240.933 955.238 240.526C953.909 240.12 953.697 236.138 953.657 232.351C953.617 228.564 952.039 229.806 951.292 230.786C949.33 234.827 947.827 239.776 946.783 245.635Z" fill="#D4BDFF"/>
<mask id="mask2" mask-type="alpha" maskUnits="userSpaceOnUse" x="914" y="229" width="56" height="50">
<path d="M946.783 245.635L927.31 272.731L936.756 275.14L951.91 250.094C958.335 243.577 960.94 240.019 959.724 239.42C957.901 238.522 956.566 240.933 955.238 240.526C953.909 240.12 953.697 236.138 953.657 232.351C953.617 228.564 952.039 229.806 951.292 230.786C949.33 234.827 947.827 239.776 946.783 245.635Z" fill="#E1E1E1"/>
</mask>
<g mask="url(#mask2)">
<path d="M955.401 247.654C955.453 247.263 949.639 244.805 946.725 243.624C946.384 243.267 945.116 246.37 945.003 247.215C944.889 248.06 951.811 250.27 953.289 250.562C954.768 250.855 955.336 248.141 955.401 247.654Z" fill="#DDCBFF"/>
</g>
<path fill-rule="evenodd" clip-rule="evenodd" d="M926.508 264.773C932.627 261.153 940.087 255.112 945.637 244.494L953.507 250.18C950.926 259.665 945.274 269.498 937.725 273.579C931.775 276.795 924.694 271.44 926.508 264.773Z" fill="#D4BDFF"/>
<path fill-rule="evenodd" clip-rule="evenodd" d="M941.902 272.29C949.38 270.146 959.231 261.896 971.456 247.538C979.83 253.23 984.844 257.84 986.497 261.368C977.279 275.883 967.741 285.488 958.539 291.072C962.028 296.431 964.393 302.082 964.907 308.195C965.966 320.764 933.46 327.325 925.348 334.411C908.87 319.106 915.585 305.144 908.717 293.229C901.197 280.18 900.079 254.058 901.62 253.168L915.671 245.056C922.198 254.569 932.438 263.294 941.902 272.29Z" fill="url(#paint6_linear)"/>
<path fill-rule="evenodd" clip-rule="evenodd" d="M1190.06 156.369C1173.46 148.848 1161.29 139.897 1162.89 136.375C1163.94 134.053 1170.72 134.672 1179.97 137.52C1178.37 139.18 1177.09 141.144 1176.23 143.317C1180.95 145.543 1183 146.42 1192 150.459C1201 154.499 1203.69 155.536 1209.15 157.841C1210.09 155.904 1210.69 153.773 1210.88 151.525C1219.13 156.603 1224.06 161.287 1223.01 163.609C1221.41 167.131 1206.66 163.889 1190.06 156.369Z" fill="#FF8A01"/>
<path d="M1174.95 149.994C1174.95 159.935 1183.01 167.994 1192.95 167.994C1202.89 167.994 1210.95 159.935 1210.95 149.994C1210.95 140.053 1202.89 131.994 1192.95 131.994C1183.01 131.994 1174.95 140.053 1174.95 149.994Z" fill="#A87BFF"/>
<path fill-rule="evenodd" clip-rule="evenodd" d="M1190.06 156.37C1173.46 148.85 1161.29 139.899 1162.89 136.377C1163.94 134.055 1170.72 134.674 1179.97 137.522C1178.37 139.181 1177.09 141.145 1176.23 143.318C1180.95 145.545 1183 146.421 1192 150.461C1201 154.501 1203.69 155.537 1209.15 157.843C1210.09 155.906 1210.69 153.775 1210.88 151.527C1219.13 156.604 1224.06 161.289 1223.01 163.611C1221.41 167.133 1206.66 163.891 1190.06 156.37Z" fill="#A87BFF"/>
<path d="M901.169 325.989C908.484 420.197 518 448.639 518 187.501C518 -120.999 422.5 -49.9994 297.5 -40.4994" stroke="url(#paint7_linear)" stroke-width="5"/>
<path fill-rule="evenodd" clip-rule="evenodd" d="M518.219 777.149C525.09 765.84 534.735 759.948 538.699 758.416C540.414 762.304 543.055 773.294 539.901 786.145C535.959 802.209 522.011 833.636 520.915 834.089C520.854 834.115 520.806 834.212 520.768 834.373L525.895 866.731L506.945 859.458C501.255 871.93 489.606 891.292 487.094 883.139C485.394 877.624 487.594 864.71 490.335 853.083L472.959 846.414L485.393 836.345C487.556 834.213 490 831.993 492.136 830.053C495.342 827.142 497.854 824.86 497.685 824.45C497.232 823.355 509.631 791.285 518.219 777.149Z" fill="url(#paint8_linear)"/>
<path d="M770.5 524.5C766.5 526.9 766.5 529 766 530.5C765.5 529.5 765 527.4 761 525C764 522 764.5 521 765.5 519C766 520 766.5 522.1 770.5 524.5Z" fill="#A87BFF"/>
<path d="M766 530.5L765.553 530.724L766.093 531.803L766.474 530.658L766 530.5ZM770.5 524.5L770.757 524.929L771.472 524.5L770.757 524.071L770.5 524.5ZM765.5 519L765.947 518.776L765.5 517.882L765.053 518.776L765.5 519ZM761 525L760.646 524.646L760.194 525.099L760.743 525.429L761 525ZM766.474 530.658C766.759 529.806 766.84 529.042 767.375 528.08C767.886 527.16 768.815 526.094 770.757 524.929L770.243 524.071C768.185 525.306 767.114 526.49 766.5 527.595C765.91 528.658 765.741 529.694 765.526 530.342L766.474 530.658ZM765.053 519.224C765.268 519.654 765.564 520.525 766.282 521.518C767.015 522.531 768.194 523.699 770.243 524.929L770.757 524.071C768.806 522.901 767.735 521.819 767.093 520.932C766.436 520.025 766.232 519.346 765.947 518.776L765.053 519.224ZM766.447 530.276C766.232 529.846 765.936 528.975 765.218 527.982C764.485 526.969 763.306 525.801 761.257 524.571L760.743 525.429C762.694 526.599 763.765 527.681 764.407 528.568C765.064 529.475 765.268 530.154 765.553 530.724L766.447 530.276ZM765.053 518.776C764.552 519.779 764.192 520.495 763.593 521.334C762.992 522.177 762.139 523.154 760.646 524.646L761.354 525.354C762.861 523.846 763.758 522.823 764.407 521.916C765.058 521.005 765.448 520.221 765.947 519.224L765.053 518.776Z" fill="#A87BFF"/>
<path d="M755.5 173.5C751.5 175.9 751.5 178 751 179.5C750.5 178.5 750 176.4 746 174C749 171 749.5 170 750.5 168C751 169 751.5 171.1 755.5 173.5Z" fill="#A87BFF"/>
<path d="M751 179.5L750.553 179.724L751.093 180.803L751.474 179.658L751 179.5ZM755.5 173.5L755.757 173.929L756.472 173.5L755.757 173.071L755.5 173.5ZM750.5 168L750.947 167.776L750.5 166.882L750.053 167.776L750.5 168ZM746 174L745.646 173.646L745.194 174.099L745.743 174.429L746 174ZM751.474 179.658C751.759 178.806 751.84 178.042 752.375 177.08C752.886 176.16 753.815 175.094 755.757 173.929L755.243 173.071C753.185 174.306 752.114 175.49 751.5 176.595C750.91 177.658 750.741 178.694 750.526 179.342L751.474 179.658ZM750.053 168.224C750.268 168.654 750.564 169.525 751.282 170.518C752.015 171.531 753.194 172.699 755.243 173.929L755.757 173.071C753.806 171.901 752.735 170.819 752.093 169.932C751.436 169.025 751.232 168.346 750.947 167.776L750.053 168.224ZM751.447 179.276C751.232 178.846 750.936 177.975 750.218 176.982C749.485 175.969 748.306 174.801 746.257 173.571L745.743 174.429C747.694 175.599 748.765 176.681 749.407 177.568C750.064 178.475 750.268 179.154 750.553 179.724L751.447 179.276ZM750.053 167.776C749.552 168.779 749.192 169.495 748.593 170.334C747.992 171.177 747.139 172.154 745.646 173.646L746.354 174.354C747.861 172.846 748.758 171.823 749.407 170.916C750.058 170.005 750.448 169.221 750.947 168.224L750.053 167.776Z" fill="#A87BFF"/>
<path d="M1287.5 277.5C1283.5 279.9 1283.5 282 1283 283.5C1282.5 282.5 1282 280.4 1278 278C1281 275 1281.5 274 1282.5 272C1283 273 1283.5 275.1 1287.5 277.5Z" fill="#A87BFF"/>
<path d="M1283 283.5L1282.55 283.724L1283.09 284.803L1283.47 283.658L1283 283.5ZM1287.5 277.5L1287.76 277.929L1288.47 277.5L1287.76 277.071L1287.5 277.5ZM1282.5 272L1282.95 271.776L1282.5 270.882L1282.05 271.776L1282.5 272ZM1278 278L1277.65 277.646L1277.19 278.099L1277.74 278.429L1278 278ZM1283.47 283.658C1283.76 282.806 1283.84 282.042 1284.37 281.08C1284.89 280.16 1285.82 279.094 1287.76 277.929L1287.24 277.071C1285.18 278.306 1284.11 279.49 1283.5 280.595C1282.91 281.658 1282.74 282.694 1282.53 283.342L1283.47 283.658ZM1282.05 272.224C1282.27 272.654 1282.56 273.525 1283.28 274.518C1284.02 275.531 1285.19 276.699 1287.24 277.929L1287.76 277.071C1285.81 275.901 1284.73 274.819 1284.09 273.932C1283.44 273.025 1283.23 272.346 1282.95 271.776L1282.05 272.224ZM1283.45 283.276C1283.23 282.846 1282.94 281.975 1282.22 280.982C1281.48 279.969 1280.31 278.801 1278.26 277.571L1277.74 278.429C1279.69 279.599 1280.77 280.681 1281.41 281.568C1282.06 282.475 1282.27 283.154 1282.55 283.724L1283.45 283.276ZM1282.05 271.776C1281.55 272.779 1281.19 273.495 1280.59 274.334C1279.99 275.177 1279.14 276.154 1277.65 277.646L1278.35 278.354C1279.86 276.846 1280.76 275.823 1281.41 274.916C1282.06 274.005 1282.45 273.221 1282.95 272.224L1282.05 271.776Z" fill="#A87BFF"/>
<path d="M959.5 124.5C955.5 126.9 955.5 129 955 130.5C954.5 129.5 954 127.4 950 125C953 122 953.5 121 954.5 119C955 120 955.5 122.1 959.5 124.5Z" fill="#A87BFF"/>
<path d="M955 130.5L954.553 130.724L955.093 131.803L955.474 130.658L955 130.5ZM959.5 124.5L959.757 124.929L960.472 124.5L959.757 124.071L959.5 124.5ZM954.5 119L954.947 118.776L954.5 117.882L954.053 118.776L954.5 119ZM950 125L949.646 124.646L949.194 125.099L949.743 125.429L950 125ZM955.474 130.658C955.759 129.806 955.84 129.042 956.375 128.08C956.886 127.16 957.815 126.094 959.757 124.929L959.243 124.071C957.185 125.306 956.114 126.49 955.5 127.595C954.91 128.658 954.741 129.694 954.526 130.342L955.474 130.658ZM954.053 119.224C954.268 119.654 954.564 120.525 955.282 121.518C956.015 122.531 957.194 123.699 959.243 124.929L959.757 124.071C957.806 122.901 956.735 121.819 956.093 120.932C955.436 120.025 955.232 119.346 954.947 118.776L954.053 119.224ZM955.447 130.276C955.232 129.846 954.936 128.975 954.218 127.982C953.485 126.969 952.306 125.801 950.257 124.571L949.743 125.429C951.694 126.599 952.765 127.681 953.407 128.568C954.064 129.475 954.268 130.154 954.553 130.724L955.447 130.276ZM954.053 118.776C953.552 119.779 953.192 120.495 952.593 121.334C951.992 122.177 951.139 123.154 949.646 124.646L950.354 125.354C951.861 123.846 952.758 122.823 953.407 121.916C954.058 121.005 954.448 120.221 954.947 119.224L954.053 118.776Z" fill="#A87BFF"/>
<path d="M214.5 212.5C210.5 214.9 210.5 217 210 218.5C209.5 217.5 209 215.4 205 213C208 210 208.5 209 209.5 207C210 208 210.5 210.1 214.5 212.5Z" fill="#A87BFF"/>
<path d="M210 218.5L209.553 218.724L210.093 219.803L210.474 218.658L210 218.5ZM214.5 212.5L214.757 212.929L215.472 212.5L214.757 212.071L214.5 212.5ZM209.5 207L209.947 206.776L209.5 205.882L209.053 206.776L209.5 207ZM205 213L204.646 212.646L204.194 213.099L204.743 213.429L205 213ZM210.474 218.658C210.759 217.806 210.84 217.042 211.375 216.08C211.886 215.16 212.815 214.094 214.757 212.929L214.243 212.071C212.185 213.306 211.114 214.49 210.5 215.595C209.91 216.658 209.741 217.694 209.526 218.342L210.474 218.658ZM209.053 207.224C209.268 207.654 209.564 208.525 210.282 209.518C211.015 210.531 212.194 211.699 214.243 212.929L214.757 212.071C212.806 210.901 211.735 209.819 211.093 208.932C210.436 208.025 210.232 207.346 209.947 206.776L209.053 207.224ZM210.447 218.276C210.232 217.846 209.936 216.975 209.218 215.982C208.485 214.969 207.306 213.801 205.257 212.571L204.743 213.429C206.694 214.599 207.765 215.681 208.407 216.568C209.064 217.475 209.268 218.154 209.553 218.724L210.447 218.276ZM209.053 206.776C208.552 207.779 208.192 208.495 207.593 209.334C206.992 210.177 206.139 211.154 204.646 212.646L205.354 213.354C206.861 211.846 207.758 210.823 208.407 209.916C209.058 209.005 209.448 208.221 209.947 207.224L209.053 206.776Z" fill="#A87BFF"/>
<path d="M447.5 309.5C443.5 311.9 443.5 314 443 315.5C442.5 314.5 442 312.4 438 310C441 307 441.5 306 442.5 304C443 305 443.5 307.1 447.5 309.5Z" fill="#A87BFF"/>
<path d="M443 315.5L442.553 315.724L443.093 316.803L443.474 315.658L443 315.5ZM447.5 309.5L447.757 309.929L448.472 309.5L447.757 309.071L447.5 309.5ZM442.5 304L442.947 303.776L442.5 302.882L442.053 303.776L442.5 304ZM438 310L437.646 309.646L437.194 310.099L437.743 310.429L438 310ZM443.474 315.658C443.759 314.806 443.84 314.042 444.375 313.08C444.886 312.16 445.815 311.094 447.757 309.929L447.243 309.071C445.185 310.306 444.114 311.49 443.5 312.595C442.91 313.658 442.741 314.694 442.526 315.342L443.474 315.658ZM442.053 304.224C442.268 304.654 442.564 305.525 443.282 306.518C444.015 307.531 445.194 308.699 447.243 309.929L447.757 309.071C445.806 307.901 444.735 306.819 444.093 305.932C443.436 305.025 443.232 304.346 442.947 303.776L442.053 304.224ZM443.447 315.276C443.232 314.846 442.936 313.975 442.218 312.982C441.485 311.969 440.306 310.801 438.257 309.571L437.743 310.429C439.694 311.599 440.765 312.681 441.407 313.568C442.064 314.475 442.268 315.154 442.553 315.724L443.447 315.276ZM442.053 303.776C441.552 304.779 441.192 305.495 440.593 306.334C439.992 307.177 439.139 308.154 437.646 309.646L438.354 310.354C439.861 308.846 440.758 307.823 441.407 306.916C442.058 306.005 442.448 305.221 442.947 304.224L442.053 303.776Z" fill="#A87BFF"/>
<path d="M405.5 88.5C401.5 90.9 401.5 93 401 94.5C400.5 93.5 400 91.4 396 89C399 86 399.5 85 400.5 83C401 84 401.5 86.1 405.5 88.5Z" fill="#A87BFF"/>
<path d="M401 94.5L400.553 94.7236L401.093 95.8033L401.474 94.6581L401 94.5ZM405.5 88.5L405.757 88.9287L406.472 88.5L405.757 88.0713L405.5 88.5ZM400.5 83L400.947 82.7764L400.5 81.882L400.053 82.7764L400.5 83ZM396 89L395.646 88.6464L395.194 89.0993L395.743 89.4287L396 89ZM401.474 94.6581C401.759 93.8056 401.84 93.0419 402.375 92.0803C402.886 91.1604 403.815 90.094 405.757 88.9287L405.243 88.0713C403.185 89.306 402.114 90.4896 401.5 91.5947C400.91 92.6581 400.741 93.6944 400.526 94.3419L401.474 94.6581ZM400.053 83.2236C400.268 83.6539 400.564 84.525 401.282 85.5181C402.015 86.5306 403.194 87.6992 405.243 88.9287L405.757 88.0713C403.806 86.9008 402.735 85.8194 402.093 84.9319C401.436 84.025 401.232 83.3461 400.947 82.7764L400.053 83.2236ZM401.447 94.2764C401.232 93.8461 400.936 92.975 400.218 91.9819C399.485 90.9694 398.306 89.8008 396.257 88.5713L395.743 89.4287C397.694 90.5992 398.765 91.6806 399.407 92.5681C400.064 93.475 400.268 94.1539 400.553 94.7236L401.447 94.2764ZM400.053 82.7764C399.552 83.7785 399.192 84.4954 398.593 85.3344C397.992 86.1766 397.139 87.1541 395.646 88.6464L396.354 89.3536C397.861 87.8459 398.758 86.8234 399.407 85.9156C400.058 85.0046 400.448 84.2215 400.947 83.2236L400.053 82.7764Z" fill="#A87BFF"/>
<path d="M48.5 277.5C44.5 279.9 44.5 282 44 283.5C43.5 282.5 43 280.4 39 278C42 275 42.5 274 43.5 272C44 273 44.5 275.1 48.5 277.5Z" fill="#A87BFF"/>
<path d="M44 283.5L43.5528 283.724L44.0926 284.803L44.4743 283.658L44 283.5ZM48.5 277.5L48.7572 277.929L49.4718 277.5L48.7572 277.071L48.5 277.5ZM43.5 272L43.9472 271.776L43.5 270.882L43.0528 271.776L43.5 272ZM39 278L38.6464 277.646L38.1936 278.099L38.7428 278.429L39 278ZM44.4743 283.658C44.7585 282.806 44.8404 282.042 45.3746 281.08C45.8857 280.16 46.8152 279.094 48.7572 277.929L48.2428 277.071C46.1848 278.306 45.1143 279.49 44.5004 280.595C43.9096 281.658 43.7415 282.694 43.5257 283.342L44.4743 283.658ZM43.0528 272.224C43.2679 272.654 43.5637 273.525 44.2824 274.518C45.0151 275.531 46.1936 276.699 48.2428 277.929L48.7572 277.071C46.8064 275.901 45.7349 274.819 45.0926 273.932C44.4363 273.025 44.2321 272.346 43.9472 271.776L43.0528 272.224ZM44.4472 283.276C44.2321 282.846 43.9363 281.975 43.2176 280.982C42.4849 279.969 41.3064 278.801 39.2572 277.571L38.7428 278.429C40.6936 279.599 41.7651 280.681 42.4074 281.568C43.0637 282.475 43.2679 283.154 43.5528 283.724L44.4472 283.276ZM43.0528 271.776C42.5517 272.779 42.1924 273.495 41.5931 274.334C40.9916 275.177 40.1388 276.154 38.6464 277.646L39.3536 278.354C40.8612 276.846 41.7584 275.823 42.4069 274.916C43.0576 274.005 43.4483 273.221 43.9472 272.224L43.0528 271.776Z" fill="#A87BFF"/>
<path d="M42.5 568.5C38.5 570.9 38.5 573 38 574.5C37.5 573.5 37 571.4 33 569C36 566 36.5 565 37.5 563C38 564 38.5 566.1 42.5 568.5Z" fill="#A87BFF"/>
<path d="M38 574.5L37.5528 574.724L38.0926 575.803L38.4743 574.658L38 574.5ZM42.5 568.5L42.7572 568.929L43.4718 568.5L42.7572 568.071L42.5 568.5ZM37.5 563L37.9472 562.776L37.5 561.882L37.0528 562.776L37.5 563ZM33 569L32.6464 568.646L32.1936 569.099L32.7428 569.429L33 569ZM38.4743 574.658C38.7585 573.806 38.8404 573.042 39.3746 572.08C39.8857 571.16 40.8152 570.094 42.7572 568.929L42.2428 568.071C40.1848 569.306 39.1143 570.49 38.5004 571.595C37.9096 572.658 37.7415 573.694 37.5257 574.342L38.4743 574.658ZM37.0528 563.224C37.2679 563.654 37.5637 564.525 38.2824 565.518C39.0151 566.531 40.1936 567.699 42.2428 568.929L42.7572 568.071C40.8064 566.901 39.7349 565.819 39.0926 564.932C38.4363 564.025 38.2321 563.346 37.9472 562.776L37.0528 563.224ZM38.4472 574.276C38.2321 573.846 37.9363 572.975 37.2176 571.982C36.4849 570.969 35.3064 569.801 33.2572 568.571L32.7428 569.429C34.6936 570.599 35.7651 571.681 36.4074 572.568C37.0637 573.475 37.2679 574.154 37.5528 574.724L38.4472 574.276ZM37.0528 562.776C36.5517 563.779 36.1924 564.495 35.5931 565.334C34.9916 566.177 34.1388 567.154 32.6464 568.646L33.3536 569.354C34.8612 567.846 35.7584 566.823 36.4069 565.916C37.0576 565.005 37.4483 564.221 37.9472 563.224L37.0528 562.776Z" fill="#A87BFF"/>
<path d="M144.5 735.5C140.5 737.9 140.5 740 140 741.5C139.5 740.5 139 738.4 135 736C138 733 138.5 732 139.5 730C140 731 140.5 733.1 144.5 735.5Z" fill="#A87BFF"/>
<path d="M140 741.5L139.553 741.724L140.093 742.803L140.474 741.658L140 741.5ZM144.5 735.5L144.757 735.929L145.472 735.5L144.757 735.071L144.5 735.5ZM139.5 730L139.947 729.776L139.5 728.882L139.053 729.776L139.5 730ZM135 736L134.646 735.646L134.194 736.099L134.743 736.429L135 736ZM140.474 741.658C140.759 740.806 140.84 740.042 141.375 739.08C141.886 738.16 142.815 737.094 144.757 735.929L144.243 735.071C142.185 736.306 141.114 737.49 140.5 738.595C139.91 739.658 139.741 740.694 139.526 741.342L140.474 741.658ZM139.053 730.224C139.268 730.654 139.564 731.525 140.282 732.518C141.015 733.531 142.194 734.699 144.243 735.929L144.757 735.071C142.806 733.901 141.735 732.819 141.093 731.932C140.436 731.025 140.232 730.346 139.947 729.776L139.053 730.224ZM140.447 741.276C140.232 740.846 139.936 739.975 139.218 738.982C138.485 737.969 137.306 736.801 135.257 735.571L134.743 736.429C136.694 737.599 137.765 738.681 138.407 739.568C139.064 740.475 139.268 741.154 139.553 741.724L140.447 741.276ZM139.053 729.776C138.552 730.779 138.192 731.495 137.593 732.334C136.992 733.177 136.139 734.154 134.646 735.646L135.354 736.354C136.861 734.846 137.758 733.823 138.407 732.916C139.058 732.005 139.448 731.221 139.947 730.224L139.053 729.776Z" fill="#A87BFF"/>
<path d="M1333.5 506.5C1329.5 508.9 1329.5 511 1329 512.5C1328.5 511.5 1328 509.4 1324 507C1327 504 1327.5 503 1328.5 501C1329 502 1329.5 504.1 1333.5 506.5Z" fill="#A87BFF"/>
<path d="M1329 512.5L1328.55 512.724L1329.09 513.803L1329.47 512.658L1329 512.5ZM1333.5 506.5L1333.76 506.929L1334.47 506.5L1333.76 506.071L1333.5 506.5ZM1328.5 501L1328.95 500.776L1328.5 499.882L1328.05 500.776L1328.5 501ZM1324 507L1323.65 506.646L1323.19 507.099L1323.74 507.429L1324 507ZM1329.47 512.658C1329.76 511.806 1329.84 511.042 1330.37 510.08C1330.89 509.16 1331.82 508.094 1333.76 506.929L1333.24 506.071C1331.18 507.306 1330.11 508.49 1329.5 509.595C1328.91 510.658 1328.74 511.694 1328.53 512.342L1329.47 512.658ZM1328.05 501.224C1328.27 501.654 1328.56 502.525 1329.28 503.518C1330.02 504.531 1331.19 505.699 1333.24 506.929L1333.76 506.071C1331.81 504.901 1330.73 503.819 1330.09 502.932C1329.44 502.025 1329.23 501.346 1328.95 500.776L1328.05 501.224ZM1329.45 512.276C1329.23 511.846 1328.94 510.975 1328.22 509.982C1327.48 508.969 1326.31 507.801 1324.26 506.571L1323.74 507.429C1325.69 508.599 1326.77 509.681 1327.41 510.568C1328.06 511.475 1328.27 512.154 1328.55 512.724L1329.45 512.276ZM1328.05 500.776C1327.55 501.779 1327.19 502.495 1326.59 503.334C1325.99 504.177 1325.14 505.154 1323.65 506.646L1324.35 507.354C1325.86 505.846 1326.76 504.823 1327.41 503.916C1328.06 503.005 1328.45 502.221 1328.95 501.224L1328.05 500.776Z" fill="#A87BFF"/>
<path d="M1386.5 196.5C1382.5 198.9 1382.5 201 1382 202.5C1381.5 201.5 1381 199.4 1377 197C1380 194 1380.5 193 1381.5 191C1382 192 1382.5 194.1 1386.5 196.5Z" fill="#A87BFF"/>
<path d="M1382 202.5L1381.55 202.724L1382.09 203.803L1382.47 202.658L1382 202.5ZM1386.5 196.5L1386.76 196.929L1387.47 196.5L1386.76 196.071L1386.5 196.5ZM1381.5 191L1381.95 190.776L1381.5 189.882L1381.05 190.776L1381.5 191ZM1377 197L1376.65 196.646L1376.19 197.099L1376.74 197.429L1377 197ZM1382.47 202.658C1382.76 201.806 1382.84 201.042 1383.37 200.08C1383.89 199.16 1384.82 198.094 1386.76 196.929L1386.24 196.071C1384.18 197.306 1383.11 198.49 1382.5 199.595C1381.91 200.658 1381.74 201.694 1381.53 202.342L1382.47 202.658ZM1381.05 191.224C1381.27 191.654 1381.56 192.525 1382.28 193.518C1383.02 194.531 1384.19 195.699 1386.24 196.929L1386.76 196.071C1384.81 194.901 1383.73 193.819 1383.09 192.932C1382.44 192.025 1382.23 191.346 1381.95 190.776L1381.05 191.224ZM1382.45 202.276C1382.23 201.846 1381.94 200.975 1381.22 199.982C1380.48 198.969 1379.31 197.801 1377.26 196.571L1376.74 197.429C1378.69 198.599 1379.77 199.681 1380.41 200.568C1381.06 201.475 1381.27 202.154 1381.55 202.724L1382.45 202.276ZM1381.05 190.776C1380.55 191.779 1380.19 192.495 1379.59 193.334C1378.99 194.177 1378.14 195.154 1376.65 196.646L1377.35 197.354C1378.86 195.846 1379.76 194.823 1380.41 193.916C1381.06 193.005 1381.45 192.221 1381.95 191.224L1381.05 190.776Z" fill="#A87BFF"/>
<path d="M1060.5 77.5C1056.5 79.9 1056.5 82 1056 83.5C1055.5 82.5 1055 80.4 1051 78C1054 75 1054.5 74 1055.5 72C1056 73 1056.5 75.1 1060.5 77.5Z" fill="#A87BFF"/>
<path d="M1056 83.5L1055.55 83.7236L1056.09 84.8033L1056.47 83.6581L1056 83.5ZM1060.5 77.5L1060.76 77.9287L1061.47 77.5L1060.76 77.0713L1060.5 77.5ZM1055.5 72L1055.95 71.7764L1055.5 70.882L1055.05 71.7764L1055.5 72ZM1051 78L1050.65 77.6464L1050.19 78.0993L1050.74 78.4287L1051 78ZM1056.47 83.6581C1056.76 82.8056 1056.84 82.0419 1057.37 81.0803C1057.89 80.1604 1058.82 79.094 1060.76 77.9287L1060.24 77.0713C1058.18 78.306 1057.11 79.4896 1056.5 80.5947C1055.91 81.6581 1055.74 82.6944 1055.53 83.3419L1056.47 83.6581ZM1055.05 72.2236C1055.27 72.6539 1055.56 73.525 1056.28 74.5181C1057.02 75.5306 1058.19 76.6992 1060.24 77.9287L1060.76 77.0713C1058.81 75.9008 1057.73 74.8194 1057.09 73.9319C1056.44 73.025 1056.23 72.3461 1055.95 71.7764L1055.05 72.2236ZM1056.45 83.2764C1056.23 82.8461 1055.94 81.975 1055.22 80.9819C1054.48 79.9694 1053.31 78.8008 1051.26 77.5713L1050.74 78.4287C1052.69 79.5992 1053.77 80.6806 1054.41 81.5681C1055.06 82.475 1055.27 83.1539 1055.55 83.7236L1056.45 83.2764ZM1055.05 71.7764C1054.55 72.7785 1054.19 73.4954 1053.59 74.3344C1052.99 75.1766 1052.14 76.1541 1050.65 77.6464L1051.35 78.3536C1052.86 76.8459 1053.76 75.8234 1054.41 74.9156C1055.06 74.0046 1055.45 73.2215 1055.95 72.2236L1055.05 71.7764Z" fill="#A87BFF"/>
<path d="M1081.5 261.5C1077.5 263.9 1077.5 266 1077 267.5C1076.5 266.5 1076 264.4 1072 262C1075 259 1075.5 258 1076.5 256C1077 257 1077.5 259.1 1081.5 261.5Z" fill="#A87BFF"/>
<path d="M1077 267.5L1076.55 267.724L1077.09 268.803L1077.47 267.658L1077 267.5ZM1081.5 261.5L1081.76 261.929L1082.47 261.5L1081.76 261.071L1081.5 261.5ZM1076.5 256L1076.95 255.776L1076.5 254.882L1076.05 255.776L1076.5 256ZM1072 262L1071.65 261.646L1071.19 262.099L1071.74 262.429L1072 262ZM1077.47 267.658C1077.76 266.806 1077.84 266.042 1078.37 265.08C1078.89 264.16 1079.82 263.094 1081.76 261.929L1081.24 261.071C1079.18 262.306 1078.11 263.49 1077.5 264.595C1076.91 265.658 1076.74 266.694 1076.53 267.342L1077.47 267.658ZM1076.05 256.224C1076.27 256.654 1076.56 257.525 1077.28 258.518C1078.02 259.531 1079.19 260.699 1081.24 261.929L1081.76 261.071C1079.81 259.901 1078.73 258.819 1078.09 257.932C1077.44 257.025 1077.23 256.346 1076.95 255.776L1076.05 256.224ZM1077.45 267.276C1077.23 266.846 1076.94 265.975 1076.22 264.982C1075.48 263.969 1074.31 262.801 1072.26 261.571L1071.74 262.429C1073.69 263.599 1074.77 264.681 1075.41 265.568C1076.06 266.475 1076.27 267.154 1076.55 267.724L1077.45 267.276ZM1076.05 255.776C1075.55 256.779 1075.19 257.495 1074.59 258.334C1073.99 259.177 1073.14 260.154 1071.65 261.646L1072.35 262.354C1073.86 260.846 1074.76 259.823 1075.41 258.916C1076.06 258.005 1076.45 257.221 1076.95 256.224L1076.05 255.776Z" fill="#A87BFF"/>
<path d="M987 264C987 262.8 974.667 252.5 968.5 247.5C968.5 246 970 240.5 972 240.5C974 240.5 992.5 257.5 993 258C993.5 258.5 987 265.5 987 264Z" fill="url(#paint9_linear)"/>
<path d="M953.829 254.279C953.717 253.683 946.332 249.763 942.653 247.879C942.513 247.132 942.781 244.25 943.823 244.055C944.865 243.859 956.088 250.509 956.395 250.709C956.702 250.909 953.969 255.026 953.829 254.279Z" fill="#D4BDFF"/>
<rect x="895.706" y="326.615" width="10.2806" height="4.27451" rx="2" transform="rotate(-5.51925 895.706 326.615)" fill="#D4BDFF"/>
<path d="M882.224 256.753C884.03 256.082 885.647 258.101 884.598 259.717L878.322 269.381C877.974 269.918 877.39 270.255 876.751 270.289L875.496 270.357C874.393 270.416 873.451 269.569 873.392 268.466L873.028 261.667C872.981 260.793 873.508 259.99 874.329 259.685L882.224 256.753Z" fill="#D4BDFF"/>
<path d="M920.829 301.394C926.312 306.877 945.473 297.012 949.802 294.686C944.957 299.607 922.191 310.884 918.987 307.502C915.503 303.825 909.989 278.167 910.57 280.683C911.151 283.199 914.78 295.345 920.829 301.394Z" fill="#D4BDFF"/>
<path d="M948.203 321.017C948.637 320.664 949.034 320.356 949.372 320.105C949.227 320.303 948.815 320.617 948.203 321.017C945.854 322.928 942.428 326.155 941.507 328.704C940.144 332.479 931.44 338.142 931.021 337.722C930.602 337.303 927.561 331.745 928.819 331.221C929.919 330.762 943.933 323.807 948.203 321.017Z" fill="#D4BDFF"/>
<path d="M960.085 316.207C959.871 317.422 964.541 332.876 966.923 341.719C967.321 343.203 974.604 346.096 973.532 345.649C972.46 345.203 960.353 314.689 960.085 316.207Z" fill="#D4BDFF"/>
<path d="M870.231 276.525C871.598 273.244 877.339 272.256 880.294 271.599C883.554 270.875 888.731 270.783 889.825 272.515C890.919 274.246 899.941 322.183 899.212 323.004C898.483 323.824 881.076 325.92 878.889 324.553C876.702 323.186 868.864 279.806 870.231 276.525Z" fill="#D4BDFF"/>
<path d="M876.575 261.129C878.421 256.697 886.176 255.363 890.169 254.475C894.572 253.497 901.408 251.518 902.886 253.857C904.363 256.196 916.708 322.805 915.723 323.913C914.738 325.021 891.225 327.853 888.27 326.006C885.315 324.159 874.728 265.561 876.575 261.129Z" fill="#F5F5F5"/>
<mask id="mask3" mask-type="alpha" maskUnits="userSpaceOnUse" x="870" y="271" width="30" height="55">
<path d="M870.231 276.525C871.598 273.244 877.339 272.256 880.294 271.599C883.554 270.875 888.731 270.783 889.825 272.515C890.919 274.246 899.941 322.183 899.212 323.004C898.483 323.824 881.076 325.92 878.889 324.553C876.702 323.186 868.864 279.806 870.231 276.525Z" fill="white"/>
</mask>
<g mask="url(#mask3)">
<path d="M876.152 291.171C876.105 290.941 873.017 273.427 872.326 272.92" stroke="#FFCA00" stroke-width="3"/>
</g>
<path d="M892.554 319.234C891.478 318.824 887.113 294.993 885.064 283.128C884.68 271.541 899.532 271.285 901.516 279.736C901.794 280.918 909.71 316.801 909.518 317.698C909.326 318.594 893.898 319.746 892.554 319.234Z" fill="white"/>
<path d="M890.538 316.403C889.271 315.92 884.128 287.845 881.714 273.868C881.262 260.217 898.759 259.916 901.097 269.871C901.424 271.264 910.75 313.537 910.524 314.593C910.297 315.649 892.122 317.006 890.538 316.403Z" fill="url(#paint10_linear)"/>
<path d="M890.881 318.069C890.02 317.274 890.081 316.358 890.219 316C891.709 313.93 909.84 312.605 910.585 313.268C911.33 313.93 910.75 315.089 910.585 316C910.419 316.91 891.958 319.063 890.881 318.069Z" fill="#D4BDFF"/>
<path d="M943.099 285.561C947.923 291.28 951.081 292.708 952.54 292.65C948.596 296.82 929.454 304.843 926.492 301.133C923.825 297.792 916.707 280.122 914.769 276.221C914.482 276.039 914.315 275.849 914.286 275.649C914.229 275.249 914.41 275.5 914.769 276.221C918.14 278.368 938.016 279.534 943.099 285.561Z" fill="white"/>
<circle cx="896.117" cy="219.812" r="34" fill="url(#paint11_linear)"/>
<mask id="mask4" mask-type="alpha" maskUnits="userSpaceOnUse" x="862" y="185" width="69" height="69">
<circle cx="896.117" cy="219.812" r="34" fill="white"/>
</mask>
<g mask="url(#mask4)">
<path d="M924.343 237.974C926.562 236.313 917.095 249.337 912.76 252.711C912.76 253.41 894.346 260.479 891.553 259.606C888.76 258.733 890.855 258.82 890.506 256.29C890.157 253.759 906.564 246.777 908.397 245.817C910.229 244.857 918.192 242.577 924.343 237.974Z" fill="#FEFFFF"/>
</g>
<path d="M872.774 205.541C896.144 184.995 916.714 202.154 915.578 200.301C910.469 191.959 900.837 188.647 894.11 189.406C884.504 190.489 876.01 194.88 872.774 205.541Z" fill="#9D6BFE"/>
<path d="M924.833 215.769C924.416 213.927 922.63 210.282 921.78 208.973C924.521 209.11 925.07 210.911 925.457 211.446C925.844 211.981 925.251 217.612 924.833 215.769Z" fill="#9D6BFE"/>
<circle cx="919.479" cy="266.516" r="7.33816" fill="#FFCA00"/>
<path d="M923.983 327.529C922.753 325.516 914.142 312.767 913.359 311.648C913.944 320.132 919.697 331.128 923.228 332.087C924.307 332.38 925.213 329.542 923.983 327.529Z" fill="#D4BDFF"/>
<mask id="mask5" mask-type="alpha" maskUnits="userSpaceOnUse" x="619" y="507" width="1018" height="1030">
<path fill-rule="evenodd" clip-rule="evenodd" d="M1085.64 520.936C1083.81 517.952 1083.58 514.801 1086.57 511.611C1094.68 502.961 1118.93 508.406 1147.77 514.882C1158.05 517.19 1168.92 519.629 1179.84 521.607C1436.6 547.58 1637 764.387 1637 1028C1637 1309.11 1409.11 1537 1128 1537C846.887 1537 619 1309.11 619 1028C619 928.349 619.092 871.356 668.585 792.863C713.202 712.384 780.027 645.489 857.749 597.962C867.888 589.344 887.176 572.63 896.013 563.793C906.175 553.631 916.474 555.996 921.907 564.239C974.281 540.935 1029.82 526.011 1085.64 520.936Z" fill="url(#paint12_linear)"/>
</mask>
<g mask="url(#mask5)">
<path d="M1081.45 717.07C878.768 790.367 698.226 723.389 731.763 619.053C842.819 196.347 1255.78 461.966 1257.16 491.119C1258.55 520.271 1334.79 625.448 1081.45 717.07Z" fill="url(#paint13_radial)"/>
<g filter="url(#filter0_f)">
<path d="M1442.81 988.913C1295.59 1177.65 1115.4 1175.29 1082.9 1043.51C963.023 557.453 1446.7 588.165 1483.79 694.329C1495.84 728.837 1626.82 752.993 1442.81 988.913Z" fill="url(#paint14_radial)"/>
</g>
</g>
<mask id="mask6" mask-type="alpha" maskUnits="userSpaceOnUse" x="619" y="519" width="1018" height="1018">
<path d="M1637 1028C1637 1309.11 1409.11 1537 1128 1537C846.887 1537 619 1309.11 619 1028C619 938.787 630.876 860.765 671.197 787.857C757.928 631.026 936.1 519 1128 519C1409.11 519 1637 746.887 1637 1028Z" fill="url(#paint15_linear)"/>
</mask>
<g mask="url(#mask6)">
<ellipse cx="829.836" cy="885.082" rx="298.437" ry="288.041" transform="rotate(56.6945 829.836 885.082)" fill="url(#paint16_radial)"/>
</g>
<path d="M1024.57 513.14C1094.15 503.342 1155.5 502.627 1147.78 533.165C1140.05 563.703 1094.15 604.149 1024.57 613.947C954.991 623.745 876.326 613.937 884.05 583.399C891.775 552.861 954.991 522.938 1024.57 513.14Z" fill="url(#paint17_radial)"/>
<mask id="mask7" mask-type="alpha" maskUnits="userSpaceOnUse" x="883" y="507" width="266" height="111">
<path d="M1024.57 513.138C1094.15 503.34 1155.5 502.625 1147.78 533.163C1140.05 563.702 1094.15 604.147 1024.57 613.945C954.991 623.743 876.326 613.936 884.05 583.397C891.775 552.859 954.991 522.936 1024.57 513.138Z" fill="url(#paint18_radial)"/>
</mask>
<g mask="url(#mask7)">
<g filter="url(#filter1_f)">
<path d="M1131.01 560.406C1155 487.946 821.209 563.282 956.896 610.399C943.749 623.547 855.395 591.584 844.196 552.142C832.996 512.7 863.186 529.256 910.419 496.144C957.653 463.032 1094.97 467.901 1144.15 468.875C1193.33 469.849 1185.54 505.883 1189.92 522.925C1193.43 536.56 1139.29 546.285 1131.01 560.406Z" fill="url(#paint19_radial)"/>
</g>
</g>
<ellipse rx="131.174" ry="161.838" transform="matrix(0.960901 0.276894 -0.234256 0.972175 746.245 915.867)" fill="#7A35FF"/>
<ellipse rx="181.362" ry="198.028" transform="matrix(0.863252 0.504773 0.483855 -0.875148 1346.78 899.722)" fill="#7A35FF"/>
<ellipse rx="121.363" ry="149.733" transform="matrix(0.960901 0.276894 -0.234256 0.972175 746.245 915.867)" fill="url(#paint20_radial)"/>
<ellipse rx="170.29" ry="185.939" transform="matrix(0.862992 0.505218 0.483363 -0.87542 1345.73 895.814)" fill="url(#paint21_radial)"/>
<path d="M1023.96 515.563C1058.7 510.671 1091.19 508.079 1113.98 510.464C1125.39 511.657 1134.17 514.081 1139.61 517.934C1145 521.748 1146.99 526.85 1145.3 533.514C1141.69 547.808 1129.01 564.809 1108.42 579.569C1087.87 594.303 1059.56 606.683 1025.18 611.523C990.614 616.391 953.802 616.382 926.654 611.384C913.068 608.882 902.037 605.155 894.907 600.263C887.723 595.334 884.891 589.514 886.526 583.051C888.252 576.229 893.103 569.273 900.794 562.387C908.509 555.478 918.953 548.765 931.485 542.603C956.54 530.283 989.394 520.43 1023.96 515.563Z" stroke="#7A35FF" stroke-width="5"/>
<g filter="url(#filter2_f)">
<path d="M1157.32 727.081C1067.08 809.254 1130.33 1048.89 1136.92 1052.79C1220.54 1258.44 954.2 1138.17 1001.34 894.529C1048.48 650.888 1247.55 644.909 1157.32 727.081Z" fill="#7A35FF"/>
</g>
<path d="M1291.84 553.539C1284.1 553.539 1273.6 549.764 1270.29 546.332C1263.91 539.712 1285.19 533.685 1292.64 538.91C1300.09 544.134 1295.87 553.539 1291.84 553.539Z" fill="#A678FF"/>
<path d="M1086.13 684.098C1098.24 680.557 1110.7 679.771 1116.04 688.049C1123.74 699.976 1112.83 702.811 1104.08 710.103C1095.71 717.089 1091.48 729.119 1081.47 719.441C1069.57 707.942 1079.84 685.939 1086.13 684.098Z" fill="#A678FF"/>
<path d="M919.752 741.527C922.141 743.68 923.978 746.278 922.897 748.544C920.813 752.915 910.559 749.363 911.461 745.243C912.364 741.124 918.511 740.408 919.752 741.527Z" fill="#A678FF"/>
<path d="M1267.9 630.885C1270.28 633.037 1272.12 635.635 1271.04 637.901C1268.96 642.272 1258.7 638.72 1259.61 634.601C1260.51 630.481 1266.66 629.766 1267.9 630.885Z" fill="#A678FF"/>
<path d="M818.769 680.538C814.719 679.243 816.503 675.17 818.769 670.975C823.14 662.884 838.68 661.831 833.621 668.942C828.346 676.355 822.604 681.764 818.769 680.538Z" fill="#A678FF"/>
<path d="M1162.82 524.922C1162.5 527.615 1161.68 530.215 1159.81 530.816C1156.21 531.974 1154.03 523.606 1156.97 521.855C1159.91 520.103 1162.98 523.522 1162.82 524.922Z" fill="#A87BFF"/>
<path d="M878.051 593.47C880.104 595.24 881.794 597.382 881.244 599.263C880.184 602.892 872.034 600.003 872.232 596.588C872.431 593.173 876.984 592.55 878.051 593.47Z" fill="#A87BFF"/>
<g filter="url(#filter3_f)">
<g filter="url(#filter4_bf)">
<ellipse rx="307.343" ry="347.106" transform="matrix(0.946746 0.321981 -0.156051 0.987749 375.142 649.813)" fill="#DE643E"/>
</g>
<g filter="url(#filter5_f)">
<ellipse rx="520.75" ry="588.123" transform="matrix(0.978207 -0.207631 0.371183 0.92856 225.298 1255.99)" fill="#BEE8DF"/>
</g>
<g filter="url(#filter6_f)">
<ellipse rx="520.75" ry="588.123" transform="matrix(0.978207 -0.207631 0.371183 0.92856 225.298 1255.99)" fill="#BEE8DF"/>
</g>
<g filter="url(#filter7_f)">
<ellipse rx="520.75" ry="588.123" transform="matrix(0.978207 -0.207631 0.371183 0.92856 13.7024 1060.23)" fill="#99B5D5"/>
</g>
<g filter="url(#filter8_f)">
<ellipse rx="435.307" ry="491.626" transform="matrix(0.978207 -0.207631 0.371183 0.92856 336.915 1043.55)" fill="#E860C9"/>
</g>
<g filter="url(#filter9_bf)">
<ellipse rx="307.343" ry="347.106" transform="matrix(0.978207 -0.207631 0.371183 0.92856 509.294 1173.74)" fill="#DE643E"/>
</g>
</g>
</g>
<defs>
<filter id="filter0_f" x="920.767" y="517.488" width="729.197" height="693.979" filterUnits="userSpaceOnUse" color-interpolation-filters="sRGB">
<feFlood flood-opacity="0" result="BackgroundImageFix"/>
<feBlend mode="normal" in="SourceGraphic" in2="BackgroundImageFix" result="shape"/>
<feGaussianBlur stdDeviation="10" result="effect1_foregroundBlur"/>
</filter>
<filter id="filter1_f" x="831.859" y="458.059" width="368.227" height="165.343" filterUnits="userSpaceOnUse" color-interpolation-filters="sRGB">
<feFlood flood-opacity="0" result="BackgroundImageFix"/>
<feBlend mode="normal" in="SourceGraphic" in2="BackgroundImageFix" result="shape"/>
<feGaussianBlur stdDeviation="5" result="effect1_foregroundBlur"/>
</filter>
<filter id="filter2_f" x="855.296" y="634.32" width="553.414" height="561.884" filterUnits="userSpaceOnUse" color-interpolation-filters="sRGB">
<feFlood flood-opacity="0" result="BackgroundImageFix"/>
<feBlend mode="normal" in="SourceGraphic" in2="BackgroundImageFix" result="shape"/>
<feGaussianBlur stdDeviation="10" result="effect1_foregroundBlur"/>
</filter>
<filter id="filter3_f" x="-790.646" y="42.8711" width="1877.11" height="2019.93" filterUnits="userSpaceOnUse" color-interpolation-filters="sRGB">
<feFlood flood-opacity="0" result="BackgroundImageFix"/>
<feBlend mode="normal" in="SourceGraphic" in2="BackgroundImageFix" result="shape"/>
<feGaussianBlur stdDeviation="125" result="effect1_foregroundBlur"/>
</filter>
<filter id="filter4_bf" x="-170.885" y="42.8711" width="1092.05" height="1213.88" filterUnits="userSpaceOnUse" color-interpolation-filters="sRGB">
<feFlood flood-opacity="0" result="BackgroundImageFix"/>
<feGaussianBlur in="BackgroundImage" stdDeviation="45"/>
<feComposite in2="SourceAlpha" operator="in" result="effect1_backgroundBlur"/>
<feBlend mode="normal" in="SourceGraphic" in2="effect1_backgroundBlur" result="shape"/>
<feGaussianBlur stdDeviation="125" result="effect2_foregroundBlur"/>
</filter>
<filter id="filter5_f" x="-579.051" y="449.176" width="1608.7" height="1613.63" filterUnits="userSpaceOnUse" color-interpolation-filters="sRGB">
<feFlood flood-opacity="0" result="BackgroundImageFix"/>
<feBlend mode="normal" in="SourceGraphic" in2="BackgroundImageFix" result="shape"/>
<feGaussianBlur stdDeviation="125" result="effect1_foregroundBlur"/>
</filter>
<filter id="filter6_f" x="-579.051" y="449.176" width="1608.7" height="1613.63" filterUnits="userSpaceOnUse" color-interpolation-filters="sRGB">
<feFlood flood-opacity="0" result="BackgroundImageFix"/>
<feBlend mode="normal" in="SourceGraphic" in2="BackgroundImageFix" result="shape"/>
<feGaussianBlur stdDeviation="125" result="effect1_foregroundBlur"/>
</filter>
<filter id="filter7_f" x="-790.646" y="253.418" width="1608.7" height="1613.63" filterUnits="userSpaceOnUse" color-interpolation-filters="sRGB">
<feFlood flood-opacity="0" result="BackgroundImageFix"/>
<feBlend mode="normal" in="SourceGraphic" in2="BackgroundImageFix" result="shape"/>
<feGaussianBlur stdDeviation="125" result="effect1_foregroundBlur"/>
</filter>
<filter id="filter8_f" x="-376.479" y="328.1" width="1426.79" height="1430.91" filterUnits="userSpaceOnUse" color-interpolation-filters="sRGB">
<feFlood flood-opacity="0" result="BackgroundImageFix"/>
<feBlend mode="normal" in="SourceGraphic" in2="BackgroundImageFix" result="shape"/>
<feGaussianBlur stdDeviation="125" result="effect1_foregroundBlur"/>
</filter>
<filter id="filter9_bf" x="-67.8789" y="595.107" width="1154.35" height="1157.26" filterUnits="userSpaceOnUse" color-interpolation-filters="sRGB">
<feFlood flood-opacity="0" result="BackgroundImageFix"/>
<feGaussianBlur in="BackgroundImage" stdDeviation="45"/>
<feComposite in2="SourceAlpha" operator="in" result="effect1_backgroundBlur"/>
<feBlend mode="normal" in="SourceGraphic" in2="effect1_backgroundBlur" result="shape"/>
<feGaussianBlur stdDeviation="125" result="effect2_foregroundBlur"/>
</filter>
<linearGradient id="paint0_linear" x1="1001.5" y1="528.887" x2="1351.07" y2="1266.81" gradientUnits="userSpaceOnUse">
<stop stop-color="#7A35FF"/>
<stop offset="0.283302" stop-color="#6E3FC9"/>
<stop offset="0.51521" stop-color="#804EDF"/>
<stop offset="1" stop-color="#5B1DD2"/>
</linearGradient>
<radialGradient id="paint1_radial" cx="0" cy="0" r="1" gradientUnits="userSpaceOnUse" gradientTransform="translate(1035.58 299.512) rotate(129.581) scale(113.176 79.9347)">
<stop stop-color="#DDCFFA"/>
<stop offset="0.52403" stop-color="white"/>
<stop offset="1" stop-color="#C8C8C8"/>
</radialGradient>
<linearGradient id="paint2_linear" x1="909.985" y1="319.237" x2="951.659" y2="391.417" gradientUnits="userSpaceOnUse">
<stop stop-color="white"/>
<stop offset="1" stop-color="#F9F9F9"/>
</linearGradient>
<radialGradient id="paint3_radial" cx="0" cy="0" r="1" gradientUnits="userSpaceOnUse" gradientTransform="translate(921.118 363.359) rotate(11.7771) scale(48.001 49.107)">
<stop stop-color="#9056FF"/>
<stop offset="0.596197" stop-color="#EEE4FF"/>
<stop offset="1" stop-color="white"/>
</radialGradient>
<linearGradient id="paint4_linear" x1="978.249" y1="232.04" x2="991.58" y2="262.305" gradientUnits="userSpaceOnUse">
<stop stop-color="white"/>
<stop offset="1" stop-color="#F9F9F9"/>
</linearGradient>
<linearGradient id="paint5_linear" x1="978.249" y1="232.04" x2="991.58" y2="262.305" gradientUnits="userSpaceOnUse">
<stop stop-color="white"/>
<stop offset="1" stop-color="#F9F9F9"/>
</linearGradient>
<linearGradient id="paint6_linear" x1="922.175" y1="241.301" x2="964.522" y2="314.648" gradientUnits="userSpaceOnUse">
<stop stop-color="white"/>
<stop offset="1" stop-color="#F9F9F9"/>
</linearGradient>
<linearGradient id="paint7_linear" x1="456.741" y1="-11.4843" x2="901.271" y2="384.301" gradientUnits="userSpaceOnUse">
<stop stop-color="#7A35FF"/>
<stop offset="1" stop-color="#681AFF"/>
</linearGradient>
<linearGradient id="paint8_linear" x1="507.166" y1="758.416" x2="482" y2="907.499" gradientUnits="userSpaceOnUse">
<stop stop-color="#7A35FF"/>
<stop offset="1" stop-color="#7A35FF"/>
</linearGradient>
<linearGradient id="paint9_linear" x1="980.764" y1="240.5" x2="980.764" y2="264.21" gradientUnits="userSpaceOnUse">
<stop stop-color="white"/>
<stop offset="1" stop-color="#F9F9F9"/>
</linearGradient>
<linearGradient id="paint10_linear" x1="909.725" y1="284.238" x2="883.812" y2="288.453" gradientUnits="userSpaceOnUse">
<stop stop-color="#EFEFEF"/>
<stop offset="0.534453" stop-color="white" stop-opacity="0.465547"/>
<stop offset="1" stop-color="#EFEFEF" stop-opacity="0"/>
</linearGradient>
<linearGradient id="paint11_linear" x1="911.71" y1="166.616" x2="896.117" y2="253.813" gradientUnits="userSpaceOnUse">
<stop stop-color="#7A35FF" stop-opacity="0.12"/>
<stop offset="1" stop-color="#332C41" stop-opacity="0.22"/>
</linearGradient>
<linearGradient id="paint12_linear" x1="1001.5" y1="528.887" x2="1351.07" y2="1266.81" gradientUnits="userSpaceOnUse">
<stop stop-color="#3C417C"/>
<stop offset="1" stop-color="#0C0D1C"/>
</linearGradient>
<radialGradient id="paint13_radial" cx="0" cy="0" r="1" gradientUnits="userSpaceOnUse" gradientTransform="translate(999.021 578.288) rotate(87.0275) scale(207.824 373.461)">
<stop stop-color="#7A35FF"/>
<stop offset="0.332336" stop-color="#5A2EB0"/>
<stop offset="0.581437" stop-color="#6E2CEC"/>
</radialGradient>
<radialGradient id="paint14_radial" cx="0" cy="0" r="1" gradientUnits="userSpaceOnUse" gradientTransform="translate(1505.03 994.791) rotate(-138.513) scale(446.825 699.472)">
<stop stop-color="#7A35FF" stop-opacity="0.83"/>
<stop offset="0.983218" stop-color="#7A35FF" stop-opacity="0"/>
</radialGradient>
<linearGradient id="paint15_linear" x1="1001.5" y1="540.5" x2="1344.5" y2="1273" gradientUnits="userSpaceOnUse">
<stop stop-color="#3C417C"/>
<stop offset="1" stop-color="#0C0D1C"/>
</linearGradient>
<radialGradient id="paint16_radial" cx="0" cy="0" r="1" gradientUnits="userSpaceOnUse" gradientTransform="translate(799.014 899.454) rotate(-84.6361) scale(303.131 313.29)">
<stop offset="0.477659" stop-color="#744FBD"/>
<stop offset="1" stop-color="#7A35FF" stop-opacity="0"/>
</radialGradient>
<radialGradient id="paint17_radial" cx="0" cy="0" r="1" gradientUnits="userSpaceOnUse" gradientTransform="translate(1014.22 565.001) rotate(174.18) scale(126.371 47.9897)">
<stop stop-color="#6333C0"/>
<stop offset="0.52458" stop-color="#6033B6"/>
<stop offset="0.974002" stop-color="#7A35FF"/>
</radialGradient>
<radialGradient id="paint18_radial" cx="0" cy="0" r="1" gradientUnits="userSpaceOnUse" gradientTransform="translate(1014.22 565) rotate(173.891) scale(130.834 49.6844)">
<stop stop-color="#2C2F42"/>
<stop offset="0.791667" stop-color="#313567"/>
<stop offset="1" stop-color="#2E3263"/>
</radialGradient>
<radialGradient id="paint19_radial" cx="0" cy="0" r="1" gradientUnits="userSpaceOnUse" gradientTransform="translate(1009.4 508.895) rotate(72.7185) scale(95.5486 205.205)">
<stop offset="0.140928" stop-color="#6E38D6"/>
<stop offset="1" stop-color="#7237E3"/>
</radialGradient>
<radialGradient id="paint20_radial" cx="0" cy="0" r="1" gradientUnits="userSpaceOnUse" gradientTransform="translate(128.558 181.983) rotate(-97.2568) scale(182.491 148.312)">
<stop stop-color="#7A35FF"/>
<stop offset="0.596662" stop-color="#6833CF"/>
<stop offset="1" stop-color="#6C28ED"/>
</radialGradient>
<radialGradient id="paint21_radial" cx="0" cy="0" r="1" gradientUnits="userSpaceOnUse" gradientTransform="translate(302.492 138.575) rotate(142.397) scale(318.966 300.84)">
<stop stop-color="#7A35FF"/>
<stop offset="0.60513" stop-color="#6428D8"/>
<stop offset="0.841688" stop-color="#662CD6"/>
<stop offset="1" stop-color="#6D35D9"/>
</radialGradient>
</defs>
</svg>
