<svg width="1397" height="566" viewBox="0 0 1397 566" fill="none" xmlns="http://www.w3.org/2000/svg">
<mask id="mask0" mask-type="alpha" maskUnits="userSpaceOnUse" x="0" y="0" width="1397" height="566">
<rect width="1397" height="566" fill="#8D56F8"/>
</mask>
<g mask="url(#mask0)">
<g clip-path="url(#clip0)">
<rect width="1398.94" height="971" transform="translate(-1.94043 -42)" fill="#7A35FF"/>
<path d="M77.8378 221.135C79.6844 216.703 87.439 215.369 91.4315 214.481C95.835 213.503 102.671 211.524 104.148 213.863C105.626 216.202 117.97 282.811 116.986 283.919C116.001 285.027 92.4875 287.859 89.5329 286.012C86.5784 284.165 75.9912 225.567 77.8378 221.135Z" fill="#E1E1E1"/>
<path fill-rule="evenodd" clip-rule="evenodd" d="M286.453 478.936C284.626 475.952 284.395 472.801 287.385 469.611C295.492 460.961 319.745 466.406 348.584 472.882C358.865 475.19 369.729 477.629 380.652 479.607C637.415 505.58 837.812 722.387 837.812 986C837.812 1267.11 609.924 1495 328.812 1495C47.6986 1495 -180.188 1267.11 -180.188 986C-180.188 886.349 -180.096 829.356 -130.604 750.863C-85.9869 670.384 -19.1616 603.489 58.5605 555.962C68.6996 547.344 87.9876 530.63 96.8243 521.793C106.987 511.631 117.285 513.996 122.719 522.239C175.092 498.935 230.628 484.011 286.453 478.936Z" fill="url(#paint0_linear)"/>
<path fill-rule="evenodd" clip-rule="evenodd" d="M96.1431 199.786C92.0975 199.225 88.2323 197.551 85.6367 194.107C78.1581 184.185 92.8206 174.614 99.427 177.064C106.033 179.515 116.141 191.735 113.638 195.5C112.639 197.002 109.173 198.662 104.892 199.486L117.57 210.444L107.198 219.81L96.1431 199.786Z" fill="#FFB287"/>
<path fill-rule="evenodd" clip-rule="evenodd" d="M90.8376 175.581C89.042 176.424 86.8576 178.132 86.0799 179.013C85.5361 177.379 84.5773 175.877 83.2946 174.73C82.0482 173.616 80.5634 173.049 79.0759 172.394C78.3902 172.092 77.6755 171.821 76.9322 171.788C76.175 171.754 75.4284 171.954 74.7775 172.316C74.1114 172.686 73.5422 173.219 73.0904 173.837C72.8905 174.11 72.7691 174.422 72.5834 174.702C72.3933 174.989 72.1384 174.941 71.8236 174.946C71.065 174.958 70.2718 175.343 69.669 175.768C68.9927 176.245 68.4395 176.911 68.0331 177.641C67.6375 178.351 67.3716 179.163 67.368 180.001C67.3663 180.374 67.4066 180.76 67.5263 181.119C67.5755 181.266 67.6235 181.336 67.5517 181.471C67.4853 181.596 67.3715 181.701 67.3005 181.827C66.6133 183.045 66.4411 184.563 66.8386 185.955C67.0705 186.766 67.8208 187.886 68.8373 188.983C69.8538 190.08 73.4253 192.112 75.3037 192.334C76.9803 192.531 78.7691 192.046 80.2051 191.243C80.2086 192.875 80.6762 194.495 81.2983 196.011C81.9741 197.657 82.8544 199.207 83.9219 200.632C84.9362 201.986 86.0976 203.337 87.4755 204.315C88.7641 205.228 90.1851 205.649 91.6977 205.365C92.3906 205.234 93.0577 205.004 93.7121 204.753C94.3569 204.506 94.9986 204.252 95.5947 203.902C96.7227 203.239 97.7928 202.212 97.8604 200.781C97.8847 200.265 97.8737 199.654 97.773 199.142C97.7368 198.958 97.7095 198.84 97.5217 198.798C97.2967 198.747 97.0382 198.786 96.8113 198.792C95.5179 198.827 94.3219 198.395 93.3302 197.493C92.324 196.578 91.4484 195.014 92.0439 193.681C92.7789 192.035 94.6654 191.459 96.2567 191.073C95.293 189.025 94.954 186.704 95.7777 184.622C96.6891 182.318 98.4785 180.529 99.5375 178.302C99.8134 177.722 100.076 177.11 100.069 176.441C100.066 176.162 100.046 175.815 99.9176 175.557C99.7494 175.219 99.3741 175.148 99.0526 175.056C97.3482 174.571 92.6332 174.738 90.8376 175.581Z" fill="#8D56F8"/>
<path fill-rule="evenodd" clip-rule="evenodd" d="M127.373 266.643L200.018 307.494L257.878 344.126L263.877 340.591L151.708 252.304L127.373 266.643Z" fill="white"/>
<path fill-rule="evenodd" clip-rule="evenodd" d="M252.851 344.146C253.144 345.977 253.502 347.266 253.924 348.012C254.438 348.919 255.337 350.155 256.622 351.72C257.664 351.106 267.034 345.587 284.731 335.164C284.082 332.296 282.915 331.228 281.231 331.96C279.547 332.693 278.141 333.287 277.011 333.744L260.617 335.558C260.302 335.592 260.072 335.88 260.103 336.2C260.104 336.205 260.105 336.211 260.105 336.216L260.43 338.768C259.361 340.312 258.371 341.353 257.461 341.889C256.721 342.325 255.528 342.625 253.882 342.79L253.882 342.79C253.251 342.853 252.784 343.423 252.841 344.063C252.843 344.091 252.847 344.119 252.851 344.146Z" fill="#FFCA00"/>
<path d="M289.754 334.541C289.38 334.312 270.269 345.366 260.76 350.922C260.655 351.431 261.13 351.911 261.532 352.281C261.935 352.65 290.036 336.428 290.307 335.807C290.578 335.187 290.221 334.827 289.754 334.541Z" fill="#CBA71E"/>
<path fill-rule="evenodd" clip-rule="evenodd" d="M245.326 340.148L254.892 329.799C241.168 317.482 225.431 304.301 207.681 290.256C189.931 276.211 172.001 263.13 153.89 251.012L121.226 270.26C142.842 286.351 163.905 300.133 184.414 311.608C204.924 323.083 225.228 332.596 245.326 340.148Z" fill="url(#paint1_radial)"/>
<path fill-rule="evenodd" clip-rule="evenodd" d="M125.137 267.844C134.091 291.924 143.25 324.034 143.104 325.278C143.006 326.107 130.641 340.298 106.008 367.85L110.32 372.425C143.325 345.984 159.977 330.746 160.277 326.712C160.727 320.662 155.839 277.837 149.541 253.463L125.137 267.844Z" fill="url(#paint2_linear)"/>
<path fill-rule="evenodd" clip-rule="evenodd" d="M113.973 357.025L121.116 364.279C149.376 350.805 164.89 339.365 167.658 329.959C170.427 320.553 165.014 294.685 151.419 252.354L120.299 270.693C132.87 304.508 139.232 322.236 139.385 323.877C139.539 325.517 131.068 336.566 113.973 357.025Z" fill="url(#paint3_radial)"/>
<path fill-rule="evenodd" clip-rule="evenodd" d="M106.51 364.747C104.775 365.378 103.579 365.974 102.922 366.535C102.124 367.218 101.069 368.348 99.7577 369.927C100.528 370.862 107.451 379.266 120.528 395.138C123.213 393.959 124.061 392.591 123.069 391.033C122.077 389.475 121.266 388.17 120.634 387.119L116.157 370.976C116.071 370.666 115.753 370.487 115.446 370.578C115.441 370.579 115.436 370.581 115.431 370.582L113 371.377C111.319 370.586 110.142 369.783 109.469 368.966C108.922 368.302 108.433 367.158 108.001 365.534L108.001 365.534C107.835 364.911 107.202 364.548 106.588 364.722C106.562 364.729 106.535 364.738 106.51 364.747Z" fill="#FFCA00"/>
<path fill-rule="evenodd" clip-rule="evenodd" d="M165.418 215.548L175.019 202.859C173.858 195.254 174.499 190.876 176.943 189.724C178.451 187.983 178.862 198.069 182.127 195.707C185.392 193.346 191.311 182.827 193.394 183.483C196.476 184.454 197.1 191.416 196.056 195.49C194.104 203.104 191.308 206.666 183.431 213.23C179.312 216.662 175.385 221.592 171.648 228.019L165.418 215.548Z" fill="url(#paint4_linear)"/>
<mask id="mask1" mask-type="alpha" maskUnits="userSpaceOnUse" x="165" y="183" width="32" height="46">
<path fill-rule="evenodd" clip-rule="evenodd" d="M165.474 215.5L175.019 202.824C173.83 195.2 174.454 190.815 176.891 189.671C178.392 187.932 178.84 198.039 182.092 195.686C185.345 193.334 191.218 182.817 193.302 183.482C196.384 184.467 197.033 191.446 196.005 195.523C194.084 203.144 191.304 206.703 183.46 213.248C179.358 216.671 175.453 221.595 171.744 228.02L165.474 215.5Z" fill="url(#paint5_linear)"/>
</mask>
<g mask="url(#mask1)">
<path d="M177.516 200.627C177.11 200.889 177.466 203.416 177.694 204.647C178.093 204.9 182.722 213.371 186.307 214.311C189.891 215.251 192.392 211.447 192.718 210.686C193.045 209.926 183.164 201.385 181.21 200.3C179.255 199.214 178.023 200.301 177.516 200.627Z" fill="#E1E1E1"/>
</g>
<path d="M145 203.631L125.746 230.758L135.018 233.12L150.02 208.058C156.362 201.526 158.937 197.964 157.746 197.372C155.958 196.484 154.635 198.896 153.331 198.496C152.027 198.096 151.836 194.123 151.813 190.344C151.79 186.565 150.234 187.812 149.496 188.793C147.55 192.834 146.051 197.78 145 203.631Z" fill="#E1E1E1"/>
<mask id="mask2" mask-type="alpha" maskUnits="userSpaceOnUse" x="125" y="187" width="33" height="47">
<path d="M144.967 203.635L125.82 230.734L135.098 233.138L150.002 208.09C156.318 201.571 158.879 198.013 157.685 197.415C155.895 196.518 154.582 198.929 153.277 198.523C151.972 198.117 151.766 194.137 151.729 190.35C151.692 186.564 150.141 187.808 149.406 188.787C147.476 192.828 145.996 197.777 144.967 203.635Z" fill="#E1E1E1"/>
</mask>
<g mask="url(#mask2)">
<path d="M156.21 205.651C156.262 205.261 150.451 202.807 147.539 201.629C147.199 201.272 145.93 204.374 145.816 205.218C145.701 206.062 152.619 208.267 154.097 208.558C155.574 208.85 156.144 206.138 156.21 205.651Z" fill="#B9B9B9"/>
</g>
<path fill-rule="evenodd" clip-rule="evenodd" d="M125.037 222.826C131.059 219.186 138.407 213.123 143.901 202.5L151.601 208.14C149.028 217.62 143.438 227.459 136.009 231.566C130.155 234.802 123.228 229.489 125.037 222.826Z" fill="#E1E1E1"/>
<path fill-rule="evenodd" clip-rule="evenodd" d="M140.191 230.304C147.554 228.13 157.277 219.847 169.36 205.455C177.571 211.102 182.482 215.684 184.092 219.2C174.965 233.735 165.544 243.37 156.47 248.986C159.878 254.323 162.179 259.955 162.659 266.058C163.645 278.605 131.652 285.301 123.644 292.413C107.506 277.202 114.169 263.229 107.467 251.36C100.128 238.363 99.1415 212.282 100.661 211.386L114.514 203.223C120.891 212.694 130.923 221.362 140.191 230.304Z" fill="url(#paint6_linear)"/>
<path fill-rule="evenodd" clip-rule="evenodd" d="M1180.12 254.369C1163.52 246.848 1151.35 237.897 1152.95 234.375C1154 232.053 1160.77 232.672 1170.03 235.52C1168.43 237.18 1167.15 239.144 1166.29 241.317C1171.01 243.543 1173.06 244.42 1182.06 248.459C1191.06 252.499 1193.75 253.536 1199.21 255.841C1200.15 253.904 1200.75 251.773 1200.94 249.525C1209.19 254.603 1214.12 259.287 1213.07 261.609C1211.47 265.131 1196.72 261.889 1180.12 254.369Z" fill="#FF8A01"/>
<path d="M1165.01 247.994C1165.01 257.935 1173.07 265.994 1183.01 265.994C1192.95 265.994 1201.01 257.935 1201.01 247.994C1201.01 238.053 1192.95 229.994 1183.01 229.994C1173.07 229.994 1165.01 238.053 1165.01 247.994Z" fill="#8D56F8"/>
<path fill-rule="evenodd" clip-rule="evenodd" d="M1180.12 254.37C1163.52 246.85 1151.35 237.899 1152.95 234.377C1154 232.055 1160.77 232.674 1170.03 235.522C1168.43 237.181 1167.15 239.145 1166.29 241.318C1171.01 243.545 1173.06 244.421 1182.06 248.461C1191.06 252.501 1193.75 253.537 1199.21 255.843C1200.15 253.906 1200.75 251.775 1200.94 249.527C1209.19 254.604 1214.12 259.289 1213.07 261.611C1211.47 265.133 1196.72 261.891 1180.12 254.37Z" fill="#8D56F8"/>
<path d="M101.981 283.989C109.295 378.197 -281.188 406.639 -281.188 145.501C-281.188 -162.999 -376.688 -91.9994 -501.688 -82.4994" stroke="url(#paint7_linear)" stroke-width="5"/>
<path d="M488.312 235.5C484.312 237.9 484.312 240 483.812 241.5C483.312 240.5 482.812 238.4 478.812 236C481.812 233 482.312 232 483.312 230C483.812 231 484.312 233.1 488.312 235.5Z" fill="#8D56F8"/>
<path d="M483.812 241.5L483.365 241.724L483.905 242.803L484.287 241.658L483.812 241.5ZM488.312 235.5L488.57 235.929L489.284 235.5L488.57 235.071L488.312 235.5ZM483.312 230L483.76 229.776L483.312 228.882L482.865 229.776L483.312 230ZM478.812 236L478.459 235.646L478.006 236.099L478.555 236.429L478.812 236ZM484.287 241.658C484.571 240.806 484.653 240.042 485.187 239.08C485.698 238.16 486.628 237.094 488.57 235.929L488.055 235.071C485.997 236.306 484.927 237.49 484.313 238.595C483.722 239.658 483.554 240.694 483.338 241.342L484.287 241.658ZM482.865 230.224C483.08 230.654 483.376 231.525 484.095 232.518C484.828 233.531 486.006 234.699 488.055 235.929L488.57 235.071C486.619 233.901 485.547 232.819 484.905 231.932C484.249 231.025 484.045 230.346 483.76 229.776L482.865 230.224ZM484.26 241.276C484.045 240.846 483.749 239.975 483.03 238.982C482.297 237.969 481.119 236.801 479.07 235.571L478.555 236.429C480.506 237.599 481.578 238.681 482.22 239.568C482.876 240.475 483.08 241.154 483.365 241.724L484.26 241.276ZM482.865 229.776C482.364 230.779 482.005 231.495 481.406 232.334C480.804 233.177 479.951 234.154 478.459 235.646L479.166 236.354C480.674 234.846 481.571 233.823 482.219 232.916C482.87 232.005 483.261 231.221 483.76 230.224L482.865 229.776Z" fill="#8D56F8"/>
<path d="M949.561 82.5C945.561 84.9 945.561 87 945.061 88.5C944.561 87.5 944.061 85.4 940.061 83C943.061 80 943.561 79 944.561 77C945.061 78 945.561 80.1 949.561 82.5Z" fill="#8D56F8"/>
<path d="M945.061 88.5L944.613 88.7236L945.153 89.8033L945.535 88.6581L945.061 88.5ZM949.561 82.5L949.818 82.9287L950.532 82.5L949.818 82.0713L949.561 82.5ZM944.561 77L945.008 76.7764L944.561 75.882L944.113 76.7764L944.561 77ZM940.061 83L939.707 82.6464L939.254 83.0993L939.803 83.4287L940.061 83ZM945.535 88.6581C945.819 87.8056 945.901 87.0419 946.435 86.0803C946.946 85.1604 947.876 84.094 949.818 82.9287L949.303 82.0713C947.245 83.306 946.175 84.4896 945.561 85.5947C944.97 86.6581 944.802 87.6944 944.586 88.3419L945.535 88.6581ZM944.113 77.2236C944.328 77.6539 944.624 78.525 945.343 79.5181C946.076 80.5306 947.254 81.6992 949.303 82.9287L949.818 82.0713C947.867 80.9008 946.795 79.8194 946.153 78.9319C945.497 78.025 945.293 77.3461 945.008 76.7764L944.113 77.2236ZM945.508 88.2764C945.293 87.8461 944.997 86.975 944.278 85.9819C943.545 84.9694 942.367 83.8008 940.318 82.5713L939.803 83.4287C941.754 84.5992 942.826 85.6806 943.468 86.5681C944.124 87.475 944.328 88.1539 944.613 88.7236L945.508 88.2764ZM944.113 76.7764C943.612 77.7785 943.253 78.4954 942.654 79.3344C942.052 80.1766 941.199 81.1541 939.707 82.6464L940.414 83.3536C941.922 81.8459 942.819 80.8234 943.467 79.9156C944.118 79.0046 944.509 78.2215 945.008 77.2236L944.113 76.7764Z" fill="#8D56F8"/>
<path d="M395.561 46.5C391.561 48.9 391.561 51 391.061 52.5C390.561 51.5 390.061 49.4 386.061 47C389.061 44 389.561 43 390.561 41C391.061 42 391.561 44.1 395.561 46.5Z" fill="#8D56F8"/>
<path d="M391.061 52.5L390.613 52.7236L391.153 53.8033L391.535 52.6581L391.061 52.5ZM395.561 46.5L395.818 46.9287L396.532 46.5L395.818 46.0713L395.561 46.5ZM390.561 41L391.008 40.7764L390.561 39.882L390.113 40.7764L390.561 41ZM386.061 47L385.707 46.6464L385.254 47.0993L385.803 47.4287L386.061 47ZM391.535 52.6581C391.819 51.8056 391.901 51.0419 392.435 50.0803C392.946 49.1604 393.876 48.094 395.818 46.9287L395.303 46.0713C393.245 47.306 392.175 48.4896 391.561 49.5947C390.97 50.6581 390.802 51.6944 390.586 52.3419L391.535 52.6581ZM390.113 41.2236C390.328 41.6539 390.624 42.525 391.343 43.5181C392.076 44.5306 393.254 45.6992 395.303 46.9287L395.818 46.0713C393.867 44.9008 392.795 43.8194 392.153 42.9319C391.497 42.025 391.293 41.3461 391.008 40.7764L390.113 41.2236ZM391.508 52.2764C391.293 51.8461 390.997 50.975 390.278 49.9819C389.545 48.9694 388.367 47.8008 386.318 46.5713L385.803 47.4287C387.754 48.5992 388.826 49.6806 389.468 50.5681C390.124 51.475 390.328 52.1539 390.613 52.7236L391.508 52.2764ZM390.113 40.7764C389.612 41.7785 389.253 42.4954 388.654 43.3344C388.052 44.1766 387.199 45.1541 385.707 46.6464L386.414 47.3536C387.922 45.8459 388.819 44.8234 389.467 43.9156C390.118 43.0046 390.509 42.2215 391.008 41.2236L390.113 40.7764Z" fill="#8D56F8"/>
<path d="M38.5596 235.5C34.5596 237.9 34.5596 240 34.0596 241.5C33.5596 240.5 33.0596 238.4 29.0596 236C32.0596 233 32.5596 232 33.5596 230C34.0596 231 34.5596 233.1 38.5596 235.5Z" fill="#8D56F8"/>
<path d="M34.0596 241.5L33.6124 241.724L34.1522 242.803L34.5339 241.658L34.0596 241.5ZM38.5596 235.5L38.8168 235.929L39.5314 235.5L38.8168 235.071L38.5596 235.5ZM33.5596 230L34.0068 229.776L33.5596 228.882L33.1124 229.776L33.5596 230ZM29.0596 236L28.706 235.646L28.2532 236.099L28.8023 236.429L29.0596 236ZM34.5339 241.658C34.8181 240.806 34.9 240.042 35.4341 239.08C35.9452 238.16 36.8748 237.094 38.8168 235.929L38.3023 235.071C36.2444 236.306 35.1739 237.49 34.56 238.595C33.9692 239.658 33.801 240.694 33.5852 241.342L34.5339 241.658ZM33.1124 230.224C33.3275 230.654 33.6233 231.525 34.342 232.518C35.0747 233.531 36.2531 234.699 38.3023 235.929L38.8168 235.071C36.866 233.901 35.7945 232.819 35.1521 231.932C34.4958 231.025 34.2916 230.346 34.0068 229.776L33.1124 230.224ZM34.5068 241.276C34.2916 240.846 33.9958 239.975 33.2771 238.982C32.5445 237.969 31.366 236.801 29.3168 235.571L28.8023 236.429C30.7531 237.599 31.8247 238.681 32.467 239.568C33.1233 240.475 33.3275 241.154 33.6124 241.724L34.5068 241.276ZM33.1124 229.776C32.6113 230.779 32.252 231.495 31.6527 232.334C31.0511 233.177 30.1984 234.154 28.706 235.646L29.4131 236.354C30.9208 234.846 31.818 233.823 32.4664 232.916C33.1172 232.005 33.5078 231.221 34.0068 230.224L33.1124 229.776Z" fill="#8D56F8"/>
<path d="M32.5596 526.5C28.5596 528.9 28.5596 531 28.0596 532.5C27.5596 531.5 27.0596 529.4 23.0596 527C26.0596 524 26.5596 523 27.5596 521C28.0596 522 28.5596 524.1 32.5596 526.5Z" fill="#8D56F8"/>
<path d="M28.0596 532.5L27.6124 532.724L28.1522 533.803L28.5339 532.658L28.0596 532.5ZM32.5596 526.5L32.8168 526.929L33.5314 526.5L32.8168 526.071L32.5596 526.5ZM27.5596 521L28.0068 520.776L27.5596 519.882L27.1124 520.776L27.5596 521ZM23.0596 527L22.706 526.646L22.2532 527.099L22.8023 527.429L23.0596 527ZM28.5339 532.658C28.8181 531.806 28.9 531.042 29.4341 530.08C29.9452 529.16 30.8748 528.094 32.8168 526.929L32.3023 526.071C30.2444 527.306 29.1739 528.49 28.56 529.595C27.9692 530.658 27.801 531.694 27.5852 532.342L28.5339 532.658ZM27.1124 521.224C27.3275 521.654 27.6233 522.525 28.342 523.518C29.0747 524.531 30.2531 525.699 32.3023 526.929L32.8168 526.071C30.866 524.901 29.7945 523.819 29.1521 522.932C28.4958 522.025 28.2916 521.346 28.0068 520.776L27.1124 521.224ZM28.5068 532.276C28.2916 531.846 27.9958 530.975 27.2771 529.982C26.5445 528.969 25.366 527.801 23.3168 526.571L22.8023 527.429C24.7531 528.599 25.8247 529.681 26.467 530.568C27.1233 531.475 27.3275 532.154 27.6124 532.724L28.5068 532.276ZM27.1124 520.776C26.6113 521.779 26.252 522.495 25.6527 523.334C25.0511 524.177 24.1984 525.154 22.706 526.646L23.4131 527.354C24.9208 525.846 25.818 524.823 26.4664 523.916C27.1172 523.005 27.5078 522.221 28.0068 521.224L27.1124 520.776Z" fill="#8D56F8"/>
<path d="M534.312 464.5C530.312 466.9 530.312 469 529.812 470.5C529.312 469.5 528.812 467.4 524.812 465C527.812 462 528.312 461 529.312 459C529.812 460 530.312 462.1 534.312 464.5Z" fill="#8D56F8"/>
<path d="M529.812 470.5L529.365 470.724L529.905 471.803L530.287 470.658L529.812 470.5ZM534.312 464.5L534.57 464.929L535.284 464.5L534.57 464.071L534.312 464.5ZM529.312 459L529.76 458.776L529.312 457.882L528.865 458.776L529.312 459ZM524.812 465L524.459 464.646L524.006 465.099L524.555 465.429L524.812 465ZM530.287 470.658C530.571 469.806 530.653 469.042 531.187 468.08C531.698 467.16 532.628 466.094 534.57 464.929L534.055 464.071C531.997 465.306 530.927 466.49 530.313 467.595C529.722 468.658 529.554 469.694 529.338 470.342L530.287 470.658ZM528.865 459.224C529.08 459.654 529.376 460.525 530.095 461.518C530.828 462.531 532.006 463.699 534.055 464.929L534.57 464.071C532.619 462.901 531.547 461.819 530.905 460.932C530.249 460.025 530.045 459.346 529.76 458.776L528.865 459.224ZM530.26 470.276C530.045 469.846 529.749 468.975 529.03 467.982C528.297 466.969 527.119 465.801 525.07 464.571L524.555 465.429C526.506 466.599 527.578 467.681 528.22 468.568C528.876 469.475 529.08 470.154 529.365 470.724L530.26 470.276ZM528.865 458.776C528.364 459.779 528.005 460.495 527.406 461.334C526.804 462.177 525.951 463.154 524.459 464.646L525.166 465.354C526.674 463.846 527.571 462.823 528.219 461.916C528.87 461.005 529.261 460.221 529.76 459.224L528.865 458.776Z" fill="#8D56F8"/>
<path d="M587.312 154.5C583.312 156.9 583.312 159 582.812 160.5C582.312 159.5 581.812 157.4 577.812 155C580.812 152 581.312 151 582.312 149C582.812 150 583.312 152.1 587.312 154.5Z" fill="#8D56F8"/>
<path d="M582.812 160.5L582.365 160.724L582.905 161.803L583.287 160.658L582.812 160.5ZM587.312 154.5L587.57 154.929L588.284 154.5L587.57 154.071L587.312 154.5ZM582.312 149L582.76 148.776L582.312 147.882L581.865 148.776L582.312 149ZM577.812 155L577.459 154.646L577.006 155.099L577.555 155.429L577.812 155ZM583.287 160.658C583.571 159.806 583.653 159.042 584.187 158.08C584.698 157.16 585.628 156.094 587.57 154.929L587.055 154.071C584.997 155.306 583.927 156.49 583.313 157.595C582.722 158.658 582.554 159.694 582.338 160.342L583.287 160.658ZM581.865 149.224C582.08 149.654 582.376 150.525 583.095 151.518C583.828 152.531 585.006 153.699 587.055 154.929L587.57 154.071C585.619 152.901 584.547 151.819 583.905 150.932C583.249 150.025 583.045 149.346 582.76 148.776L581.865 149.224ZM583.26 160.276C583.045 159.846 582.749 158.975 582.03 157.982C581.297 156.969 580.119 155.801 578.07 154.571L577.555 155.429C579.506 156.599 580.578 157.681 581.22 158.568C581.876 159.475 582.08 160.154 582.365 160.724L583.26 160.276ZM581.865 148.776C581.364 149.779 581.005 150.495 580.406 151.334C579.804 152.177 578.951 153.154 577.459 154.646L578.166 155.354C579.674 153.846 580.571 152.823 581.219 151.916C581.87 151.005 582.261 150.221 582.76 149.224L581.865 148.776Z" fill="#8D56F8"/>
<path d="M1050.56 35.5C1046.56 37.9 1046.56 40 1046.06 41.5C1045.56 40.5 1045.06 38.4 1041.06 36C1044.06 33 1044.56 32 1045.56 30C1046.06 31 1046.56 33.1 1050.56 35.5Z" fill="#8D56F8"/>
<path d="M1046.06 41.5L1045.61 41.7236L1046.15 42.8033L1046.53 41.6581L1046.06 41.5ZM1050.56 35.5L1050.82 35.9287L1051.53 35.5L1050.82 35.0713L1050.56 35.5ZM1045.56 30L1046.01 29.7764L1045.56 28.882L1045.11 29.7764L1045.56 30ZM1041.06 36L1040.71 35.6464L1040.25 36.0993L1040.8 36.4287L1041.06 36ZM1046.53 41.6581C1046.82 40.8056 1046.9 40.0419 1047.44 39.0803C1047.95 38.1604 1048.88 37.094 1050.82 35.9287L1050.3 35.0713C1048.25 36.306 1047.17 37.4896 1046.56 38.5947C1045.97 39.6581 1045.8 40.6944 1045.59 41.3419L1046.53 41.6581ZM1045.11 30.2236C1045.33 30.6539 1045.62 31.525 1046.34 32.5181C1047.08 33.5306 1048.25 34.6992 1050.3 35.9287L1050.82 35.0713C1048.87 33.9008 1047.8 32.8194 1047.15 31.9319C1046.5 31.025 1046.29 30.3461 1046.01 29.7764L1045.11 30.2236ZM1046.51 41.2764C1046.29 40.8461 1046 39.975 1045.28 38.9819C1044.55 37.9694 1043.37 36.8008 1041.32 35.5713L1040.8 36.4287C1042.75 37.5992 1043.83 38.6806 1044.47 39.5681C1045.12 40.475 1045.33 41.1539 1045.61 41.7236L1046.51 41.2764ZM1045.11 29.7764C1044.61 30.7785 1044.25 31.4954 1043.65 32.3344C1043.05 33.1766 1042.2 34.1541 1040.71 35.6464L1041.41 36.3536C1042.92 34.8459 1043.82 33.8234 1044.47 32.9156C1045.12 32.0046 1045.51 31.2215 1046.01 30.2236L1045.11 29.7764Z" fill="#8D56F8"/>
<path d="M282.312 219.5C278.312 221.9 278.312 224 277.812 225.5C277.312 224.5 276.812 222.4 272.812 220C275.812 217 276.312 216 277.312 214C277.812 215 278.312 217.1 282.312 219.5Z" fill="#8D56F8"/>
<path d="M277.812 225.5L277.365 225.724L277.905 226.803L278.287 225.658L277.812 225.5ZM282.312 219.5L282.57 219.929L283.284 219.5L282.57 219.071L282.312 219.5ZM277.312 214L277.76 213.776L277.312 212.882L276.865 213.776L277.312 214ZM272.812 220L272.459 219.646L272.006 220.099L272.555 220.429L272.812 220ZM278.287 225.658C278.571 224.806 278.653 224.042 279.187 223.08C279.698 222.16 280.628 221.094 282.57 219.929L282.055 219.071C279.997 220.306 278.927 221.49 278.313 222.595C277.722 223.658 277.554 224.694 277.338 225.342L278.287 225.658ZM276.865 214.224C277.08 214.654 277.376 215.525 278.095 216.518C278.828 217.531 280.006 218.699 282.055 219.929L282.57 219.071C280.619 217.901 279.547 216.819 278.905 215.932C278.249 215.025 278.045 214.346 277.76 213.776L276.865 214.224ZM278.26 225.276C278.045 224.846 277.749 223.975 277.03 222.982C276.297 221.969 275.119 220.801 273.07 219.571L272.555 220.429C274.506 221.599 275.578 222.681 276.22 223.568C276.876 224.475 277.08 225.154 277.365 225.724L278.26 225.276ZM276.865 213.776C276.364 214.779 276.005 215.495 275.406 216.334C274.804 217.177 273.951 218.154 272.459 219.646L273.166 220.354C274.674 218.846 275.571 217.823 276.219 216.916C276.87 216.005 277.261 215.221 277.76 214.224L276.865 213.776Z" fill="#8D56F8"/>
<path d="M187.812 222C187.812 220.8 175.478 210.5 169.312 205.5C169.312 204 170.812 198.5 172.812 198.5C174.812 198.5 193.312 215.5 193.812 216C194.312 216.5 187.812 223.5 187.812 222Z" fill="url(#paint8_linear)"/>
<path d="M154.641 212.277C154.529 211.681 147.143 207.762 143.464 205.877C143.324 205.13 143.593 202.248 144.635 202.053C145.677 201.857 156.9 208.507 157.207 208.707C157.514 208.907 154.781 213.024 154.641 212.277Z" fill="#E1E1E1"/>
<rect x="96.5176" y="284.615" width="10.2806" height="4.27451" rx="2" transform="rotate(-5.51925 96.5176 284.615)" fill="#E1E1E1"/>
<path d="M83.0362 214.753C84.842 214.082 86.4591 216.101 85.4099 217.717L79.1339 227.381C78.7856 227.918 78.202 228.255 77.5635 228.289L76.3084 228.357C75.2054 228.416 74.2634 227.569 74.2043 226.466L73.84 219.667C73.7932 218.793 74.3202 217.99 75.1408 217.685L83.0362 214.753Z" fill="#E1E1E1"/>
<path d="M121.641 259.394C127.124 264.877 146.285 255.012 150.614 252.686C145.769 257.607 123.003 268.884 119.799 265.502C116.315 261.825 110.802 236.167 111.382 238.683C111.963 241.199 115.592 253.345 121.641 259.394Z" fill="#E1E1E1"/>
<path d="M149.015 279.017C149.449 278.664 149.846 278.356 150.184 278.105C150.039 278.303 149.627 278.617 149.015 279.017C146.666 280.928 143.24 284.155 142.319 286.704C140.956 290.479 132.253 296.142 131.833 295.722C131.414 295.303 128.373 289.745 129.631 289.221C130.732 288.762 144.745 281.807 149.015 279.017Z" fill="#E1E1E1"/>
<path d="M160.897 274.207C160.682 275.422 165.352 290.876 167.734 299.719C168.132 301.203 175.416 304.096 174.344 303.649C173.272 303.203 161.165 272.689 160.897 274.207Z" fill="#E1E1E1"/>
<path d="M71.0428 234.525C72.4098 231.244 78.1505 230.256 81.1061 229.599C84.366 228.875 89.5431 228.783 90.6368 230.515C91.7304 232.246 100.753 280.183 100.024 281.004C99.2946 281.824 81.8878 283.92 79.7006 282.553C77.5134 281.186 69.6758 237.806 71.0428 234.525Z" fill="#E1E1E1"/>
<path d="M77.3866 219.129C79.2332 214.697 86.9878 213.363 90.9803 212.475C95.3838 211.497 102.22 209.518 103.697 211.857C105.175 214.196 117.519 280.805 116.534 281.913C115.55 283.021 92.0363 285.853 89.0817 284.006C86.1272 282.159 75.54 223.561 77.3866 219.129Z" fill="#F5F5F5"/>
<mask id="mask3" mask-type="alpha" maskUnits="userSpaceOnUse" x="70" y="229" width="31" height="55">
<path d="M71.0428 234.525C72.4098 231.244 78.1505 230.256 81.1061 229.599C84.366 228.875 89.5431 228.783 90.6368 230.515C91.7304 232.246 100.753 280.183 100.024 281.004C99.2946 281.824 81.8878 283.92 79.7006 282.553C77.5134 281.186 69.6758 237.806 71.0428 234.525Z" fill="white"/>
</mask>
<g mask="url(#mask3)">
<path d="M76.9633 249.171C76.9172 248.941 73.829 231.427 73.1377 230.92" stroke="#FFCA00" stroke-width="3"/>
</g>
<path d="M93.3655 277.234C92.29 276.824 87.924 252.993 85.8755 241.128C85.4913 229.541 100.343 229.285 102.328 237.736C102.606 238.918 110.522 274.801 110.33 275.698C110.138 276.594 94.7098 277.746 93.3655 277.234Z" fill="white"/>
<path d="M91.35 274.403C90.083 273.92 84.9396 245.845 82.5262 231.868C82.0736 218.217 99.5704 217.916 101.908 227.871C102.235 229.264 111.562 271.537 111.335 272.593C111.109 273.649 92.9337 275.006 91.35 274.403Z" fill="url(#paint9_linear)"/>
<path d="M91.6926 276.069C90.8316 275.274 90.8923 274.358 91.0303 274C92.5205 271.93 110.651 270.605 111.396 271.268C112.141 271.93 111.562 273.089 111.396 274C111.231 274.91 92.7688 277.063 91.6926 276.069Z" fill="#E1E1E1"/>
<path d="M143.911 243.561C148.735 249.28 151.893 250.708 153.352 250.65C149.408 254.82 130.266 262.843 127.304 259.133C124.637 255.792 117.519 238.122 115.581 234.221C115.294 234.039 115.127 233.849 115.098 233.649C115.041 233.249 115.222 233.5 115.581 234.221C118.952 236.368 138.828 237.534 143.911 243.561Z" fill="white"/>
<circle cx="96.9287" cy="177.812" r="34" fill="url(#paint10_linear)"/>
<mask id="mask4" mask-type="alpha" maskUnits="userSpaceOnUse" x="62" y="143" width="69" height="69">
<circle cx="96.9287" cy="177.812" r="34" fill="white"/>
</mask>
<g mask="url(#mask4)">
<path d="M125.155 195.974C127.374 194.313 117.907 207.337 113.573 210.711C113.573 211.41 95.1582 218.479 92.3654 217.606C89.5727 216.733 91.6673 216.82 91.3182 214.29C90.9691 211.759 107.376 204.777 109.209 203.817C111.042 202.857 119.004 200.577 125.155 195.974Z" fill="#FEFFFF"/>
</g>
<path d="M73.5855 163.541C96.9555 142.995 117.525 160.154 116.39 158.301C111.281 149.959 101.648 146.647 94.9221 147.406C85.3158 148.489 76.8213 152.88 73.5855 163.541Z" fill="#8D56F8"/>
<path d="M125.645 173.769C125.227 171.927 123.442 168.282 122.592 166.973C125.333 167.11 125.881 168.911 126.268 169.446C126.655 169.981 126.062 175.612 125.645 173.769Z" fill="#8D56F8"/>
<circle cx="120.29" cy="224.518" r="7.33816" fill="#FFCA00"/>
<path d="M124.794 285.529C123.564 283.516 114.953 270.767 114.17 269.648C114.755 278.132 120.509 289.128 124.039 290.087C125.118 290.38 126.025 287.542 124.794 285.529Z" fill="#E1E1E1"/>
<mask id="mask5" mask-type="alpha" maskUnits="userSpaceOnUse" x="609" y="465" width="1019" height="1030">
<path fill-rule="evenodd" clip-rule="evenodd" d="M1075.7 478.936C1073.87 475.952 1073.64 472.801 1076.63 469.611C1084.74 460.961 1108.99 466.406 1137.83 472.882C1148.11 475.19 1158.98 477.629 1169.9 479.607C1426.66 505.58 1627.06 722.387 1627.06 986C1627.06 1267.11 1399.17 1495 1118.06 1495C836.947 1495 609.06 1267.11 609.06 986C609.06 886.349 609.152 829.356 658.644 750.863C703.261 670.384 770.086 603.489 847.809 555.962C857.948 547.344 877.236 530.63 886.072 521.793C896.235 511.631 906.534 513.996 911.967 522.239C964.34 498.935 1019.88 484.011 1075.7 478.936Z" fill="url(#paint11_linear)"/>
</mask>
<g mask="url(#mask5)">
<path d="M643.618 946.913C496.406 1135.65 316.215 1133.29 283.713 1001.51C163.835 515.453 647.514 546.165 684.599 652.329C696.653 686.837 827.633 710.993 643.618 946.913Z" fill="url(#paint12_radial)"/>
</g>
<mask id="mask6" mask-type="alpha" maskUnits="userSpaceOnUse" x="-181" y="477" width="1019" height="1018">
<path d="M837.812 986C837.812 1267.11 609.924 1495 328.812 1495C47.6986 1495 -180.188 1267.11 -180.188 986C-180.188 896.787 -168.312 818.765 -127.992 745.857C-41.261 589.026 136.911 477 328.812 477C609.924 477 837.812 704.887 837.812 986Z" fill="url(#paint13_linear)"/>
</mask>
<g mask="url(#mask6)">
<ellipse cx="30.6475" cy="843.082" rx="298.437" ry="288.041" transform="rotate(56.6945 30.6475 843.082)" fill="url(#paint14_radial)"/>
</g>
<path d="M225.382 471.14C294.961 461.342 356.316 460.627 348.591 491.165C340.866 521.703 294.961 562.149 225.382 571.947C155.802 581.745 77.1372 571.937 84.862 541.399C92.5867 510.861 155.803 480.938 225.382 471.14Z" fill="url(#paint15_radial)"/>
<mask id="mask7" mask-type="alpha" maskUnits="userSpaceOnUse" x="84" y="465" width="266" height="111">
<path d="M225.382 471.138C294.961 461.34 356.316 460.625 348.591 491.163C340.866 521.702 294.961 562.147 225.382 571.945C155.802 581.743 77.1372 571.936 84.862 541.397C92.5867 510.859 155.803 480.936 225.382 471.138Z" fill="url(#paint16_radial)"/>
</mask>
<g mask="url(#mask7)">
<g filter="url(#filter1_f)">
<path d="M331.824 518.406C355.808 445.946 22.0198 521.282 157.708 568.399C144.56 581.547 56.2066 549.584 45.007 510.142C33.8074 470.7 63.9976 487.256 111.231 454.144C158.464 421.032 295.781 425.901 344.962 426.875C394.142 427.849 386.351 463.883 390.734 480.925C394.24 494.56 340.102 504.285 331.824 518.406Z" fill="url(#paint17_radial)"/>
</g>
</g>
<path d="M224.769 473.563C259.511 468.671 292.001 466.079 314.792 468.464C326.2 469.657 334.981 472.081 340.422 475.934C345.807 479.748 347.801 484.85 346.115 491.514C342.5 505.808 329.825 522.809 309.235 537.569C288.68 552.303 260.367 564.683 225.995 569.523C191.426 574.391 154.613 574.382 127.466 569.384C113.88 566.882 102.849 563.155 95.7185 558.263C88.5344 553.334 85.7026 547.514 87.3376 541.051C89.0632 534.229 93.9149 527.273 101.606 520.387C109.321 513.478 119.765 506.765 132.297 500.603C157.352 488.283 190.206 478.43 224.769 473.563Z" stroke="#8D56F8" stroke-width="5"/>
<path d="M358.129 685.081C267.895 767.254 331.138 1006.89 337.727 1010.79C421.355 1216.44 155.011 1096.17 202.152 852.529C249.293 608.888 448.364 602.909 358.129 685.081Z" fill="#8D56F8"/>
<path d="M492.655 511.539C484.911 511.539 474.413 507.764 471.103 504.332C464.72 497.712 486.003 491.685 493.451 496.91C500.899 502.134 496.681 511.539 492.655 511.539Z" fill="#8D56F8"/>
<path d="M363.627 482.922C363.314 485.615 362.489 488.215 360.623 488.816C357.024 489.974 354.844 481.606 357.782 479.855C360.72 478.103 363.79 481.522 363.627 482.922Z" fill="#8D56F8"/>
<path d="M78.8626 551.47C80.9158 553.24 82.6061 555.382 82.0562 557.263C80.9956 560.892 72.8459 558.003 73.0442 554.588C73.2426 551.173 77.7953 550.55 78.8626 551.47Z" fill="#8D56F8"/>
</g>
</g>
<defs>
<filter id="filter1_f" x="32.6699" y="416.059" width="368.227" height="165.343" filterUnits="userSpaceOnUse" color-interpolation-filters="sRGB">
<feFlood flood-opacity="0" result="BackgroundImageFix"/>
<feBlend mode="normal" in="SourceGraphic" in2="BackgroundImageFix" result="shape"/>
<feGaussianBlur stdDeviation="5" result="effect1_foregroundBlur"/>
</filter>
<linearGradient id="paint0_linear" x1="202.312" y1="486.887" x2="551.879" y2="1224.81" gradientUnits="userSpaceOnUse">
<stop stop-color="#8D56F8"/>
<stop offset="0.283302" stop-color="#5826B8"/>
<stop offset="0.51521" stop-color="#423759"/>
<stop offset="1" stop-color="#392F4D"/>
</linearGradient>
<radialGradient id="paint1_radial" cx="0" cy="0" r="1" gradientUnits="userSpaceOnUse" gradientTransform="translate(232.481 257.332) rotate(129.197) scale(112.922 78.8312)">
<stop stop-color="#C3C3C3"/>
<stop offset="0.52403" stop-color="white"/>
<stop offset="1" stop-color="#C8C8C8"/>
</radialGradient>
<linearGradient id="paint2_linear" x1="108.952" y1="277.382" x2="150.877" y2="348.524" gradientUnits="userSpaceOnUse">
<stop stop-color="white"/>
<stop offset="1" stop-color="#F9F9F9"/>
</linearGradient>
<radialGradient id="paint3_radial" cx="0" cy="0" r="1" gradientUnits="userSpaceOnUse" gradientTransform="translate(119.68 321.414) rotate(11.7175) scale(47.1559 49.1007)">
<stop stop-color="#8D56F8"/>
<stop offset="0.596197" stop-color="#EBE3FD"/>
<stop offset="1" stop-color="white"/>
</radialGradient>
<linearGradient id="paint4_linear" x1="175.933" y1="190.102" x2="189.408" y2="220.02" gradientUnits="userSpaceOnUse">
<stop stop-color="white"/>
<stop offset="1" stop-color="#F9F9F9"/>
</linearGradient>
<linearGradient id="paint5_linear" x1="175.884" y1="190.046" x2="189.371" y2="220.113" gradientUnits="userSpaceOnUse">
<stop stop-color="white"/>
<stop offset="1" stop-color="#F9F9F9"/>
</linearGradient>
<linearGradient id="paint6_linear" x1="120.925" y1="199.444" x2="163.534" y2="271.748" gradientUnits="userSpaceOnUse">
<stop stop-color="white"/>
<stop offset="1" stop-color="#F9F9F9"/>
</linearGradient>
<linearGradient id="paint7_linear" x1="-342.448" y1="-53.4843" x2="102.082" y2="342.301" gradientUnits="userSpaceOnUse">
<stop stop-color="#8D56F8"/>
<stop offset="1" stop-color="#9B67FF"/>
</linearGradient>
<linearGradient id="paint8_linear" x1="181.575" y1="198.5" x2="181.575" y2="222.21" gradientUnits="userSpaceOnUse">
<stop stop-color="white"/>
<stop offset="1" stop-color="#F9F9F9"/>
</linearGradient>
<linearGradient id="paint9_linear" x1="110.537" y1="242.238" x2="84.6242" y2="246.453" gradientUnits="userSpaceOnUse">
<stop stop-color="#EFEFEF"/>
<stop offset="0.534453" stop-color="white" stop-opacity="0.465547"/>
<stop offset="1" stop-color="#EFEFEF" stop-opacity="0"/>
</linearGradient>
<linearGradient id="paint10_linear" x1="112.522" y1="124.616" x2="96.9287" y2="211.813" gradientUnits="userSpaceOnUse">
<stop stop-color="#7177D1" stop-opacity="0.12"/>
<stop offset="1" stop-color="#242635" stop-opacity="0.22"/>
</linearGradient>
<linearGradient id="paint11_linear" x1="991.56" y1="486.887" x2="1341.13" y2="1224.81" gradientUnits="userSpaceOnUse">
<stop stop-color="#3C417C"/>
<stop offset="1" stop-color="#0C0D1C"/>
</linearGradient>
<radialGradient id="paint12_radial" cx="0" cy="0" r="1" gradientUnits="userSpaceOnUse" gradientTransform="translate(705.841 952.791) rotate(-138.513) scale(446.825 699.472)">
<stop stop-color="#8D56F8" stop-opacity="0.83"/>
<stop offset="0.983218" stop-color="#8D56F8" stop-opacity="0"/>
</radialGradient>
<linearGradient id="paint13_linear" x1="202.312" y1="498.5" x2="545.312" y2="1231" gradientUnits="userSpaceOnUse">
<stop stop-color="#3C417C"/>
<stop offset="1" stop-color="#0C0D1C"/>
</linearGradient>
<radialGradient id="paint14_radial" cx="0" cy="0" r="1" gradientUnits="userSpaceOnUse" gradientTransform="translate(-0.174219 857.454) rotate(-84.6361) scale(303.131 313.29)">
<stop offset="0.477659" stop-color="#8D56F8"/>
<stop offset="1" stop-color="#8D56F8" stop-opacity="0"/>
</radialGradient>
<radialGradient id="paint15_radial" cx="0" cy="0" r="1" gradientUnits="userSpaceOnUse" gradientTransform="translate(215.027 523.001) rotate(174.18) scale(126.371 47.9897)">
<stop stop-color="#8D56F8"/>
<stop offset="0.52458" stop-color="#8D56F8"/>
<stop offset="0.974002" stop-color="#8344FF"/>
</radialGradient>
<radialGradient id="paint16_radial" cx="0" cy="0" r="1" gradientUnits="userSpaceOnUse" gradientTransform="translate(215.027 523) rotate(173.891) scale(130.834 49.6844)">
<stop stop-color="#2C2F42"/>
<stop offset="0.791667" stop-color="#313567"/>
<stop offset="1" stop-color="#2E3263"/>
</radialGradient>
<radialGradient id="paint17_radial" cx="0" cy="0" r="1" gradientUnits="userSpaceOnUse" gradientTransform="translate(210.216 466.895) rotate(72.7185) scale(95.5486 205.205)">
<stop offset="0.140928" stop-color="#8D56F8"/>
<stop offset="1" stop-color="#7D3FF5"/>
</radialGradient>
<clipPath id="clip0">
<rect width="1398.94" height="971" fill="white" transform="translate(-1.94043 -42)"/>
</clipPath>
</defs>
</svg>
