<svg width="209" height="69" viewBox="0 0 209 69" fill="none" xmlns="http://www.w3.org/2000/svg">
<path d="M174.604 58.3769C174.601 58.3769 173.958 58.9502 173.958 58.9502C173.039 59.7717 172.093 60.6511 170.952 60.2113C170.637 60.0966 170.415 59.6766 170.362 59.3507C170.31 56.9994 171.368 54.8207 172.395 52.6994L172.659 52.1446C175.612 47.2131 179.045 41.4022 184.087 37.3694C184.937 36.7564 185.859 36.2413 186.832 36.643C187.056 36.8528 187.317 37.2163 187.317 37.5791C187.317 37.6943 187.215 37.9999 187.156 38.095C185.747 40.3707 184.406 42.7599 183.102 45.0534C180.553 49.5841 177.909 54.2663 174.604 58.3769ZM147.284 46.7548C147.091 46.8894 143.685 45.7419 143.027 42.5881C142.468 39.8727 144.338 37.751 146.147 36.6814C146.924 36.0694 148.093 35.8597 148.951 36.1643C149.748 36.7002 149.963 37.6567 149.963 38.6874C149.963 39.3195 149.88 39.9688 149.806 40.5612C149.806 40.5612 149.792 40.6764 149.789 40.6954C149.222 42.8166 148.353 44.9004 147.284 46.7548ZM134.272 59.5816C133.925 59.0654 133.81 58.501 133.798 57.8909C133.732 54.1428 137.764 47.4306 140.611 43.7739H140.617C141.81 46.3858 144.511 48.0648 146.142 48.7723C144.117 53.2839 137.17 62.9457 134.272 59.5816ZM183.433 60.2471C182.759 60.7057 181.812 60.3531 182.166 59.3021C183.048 56.6259 186.555 51.1721 186.555 51.1721L196.323 33.8477H189.632C189.314 34.3701 188.634 35.5697 188.634 35.5697C188.324 35.0541 187.399 33.9074 187.018 33.6598C185.383 32.6268 182.985 33.1152 181.33 34.0516C174.137 38.2577 168.889 46.568 164.75 53.0477C164.75 53.0477 160.393 60.2515 157.974 60.7872C156.086 60.9403 156.281 58.3968 156.363 57.8042C157.093 53.5216 158.788 49.4504 160.496 45.761C163.97 43.3526 167.935 40.1987 171.539 36.7389C179.358 29.264 185.95 20.7956 186.913 18.9035C186.913 18.9035 185.871 19.114 184.639 19.1519C178.623 27.5435 166.313 39.7403 162.581 41.555C164.234 37.5784 174.916 18.5971 184.007 9.51802L185.437 8.14122C187.649 5.98114 189.941 3.76381 191.727 3.40054C191.916 3.38153 192.159 3.40054 192.368 3.84092C192.448 5.5228 191.822 6.76545 191.104 8.17987L190.097 10.2447C190.097 10.2447 191.523 9.97694 192.459 9.6703C193.546 7.62588 194.749 5.33134 194.306 2.59842C194.158 1.71899 193.521 1.05006 192.689 0.896999C189.977 0.38088 187.022 2.38737 184.644 4.01273L184.548 4.06967C172.324 13.6466 162.002 27.4486 152.977 46.2964C152.323 46.7927 149.796 47.3859 149.366 47.0988C150.257 45.2642 151.38 42.7976 151.941 40.1216C152.038 39.3568 152.129 38.5734 152.129 37.8089C152.129 36.1636 151.734 34.6159 150.26 33.5457C148.532 32.6854 146.396 33.0871 144.956 33.7367C138.505 36.4129 133.684 43.0273 130.205 48.4743C128.334 51.9351 126.468 55.6417 125.951 59.8864C125.587 63.2119 126.328 65.3528 128.219 66.4237C130.163 67.4171 132.611 66.3846 133.572 65.888C140.108 62.4474 144.674 55.547 148.273 49.2385C148.417 49.2197 150.382 49.1627 151.868 48.7798C151.888 48.7798 151.897 48.7798 151.929 48.7999C151.844 49.0854 151.076 51.38 151.076 51.38C148.795 58.0699 147.74 62.6197 149.895 65.3152C152.974 69.1194 158.072 65.182 162.219 59.9816C161.329 66.2132 164.558 67.1885 167.02 66.711C169.848 65.9467 172.999 62.9258 174.462 61.3779C173.992 63.1936 174.12 66.4435 176.692 66.7681C178.456 67.0941 179.775 66.135 181.302 65.3128C186.779 62.3305 193.336 52.3931 195.038 49.5199H192.806C190.386 53.1769 187.307 57.971 183.433 60.2471ZM99.0561 23.1387H105.325L108.862 17.3924H102.593L99.0561 23.1387ZM199.189 7.87349C194.409 10.5883 189.454 12.3465 183.456 11.735C181.794 13.6088 180.176 15.5392 178.684 17.527C187.102 19.668 196.026 14.9083 201.003 10.3784C206.269 5.80964 208.969 0.0563725 208.969 0.0563725C208.969 0.0563725 205.022 4.56709 199.189 7.87349ZM146.48 6.42125C145.483 17.8521 136.597 24.5627 134.399 25.0966C133.067 25.3638 130.793 24.7717 132.822 19.9743C135.811 13.5126 140.914 8.02728 146.389 5.21684C146.522 5.69482 146.519 6.00021 146.48 6.42125ZM129.166 35.2278C128.529 33.8519 127.018 32.9724 125.407 33.0677C120.177 33.546 115.062 37.8468 112.376 44.0212C110.966 47.1947 110.197 49.8132 109.693 53.9802C111.319 52.1074 114.636 49.03 118.4 47.3477C118.4 47.3477 118.913 43.3527 121.525 39.7971C122.513 38.3249 124.491 35.9547 126.712 36.5853C128.652 37.2357 127.97 42.6072 125.391 47.8051C123.483 51.6288 120.563 55.4529 117.608 58.0901C114.996 60.3077 111.131 62.9837 107.75 60.9194C105.62 59.6583 104.534 57.0198 104.763 53.6172C105.781 43.9643 110.175 35.7443 116.463 26.3778C122.946 17.6803 130.094 8.75351 139.722 3.99246C141.686 2.99862 143.505 2.76924 145.077 3.38101C145.077 3.38101 136.039 8.35101 131.73 17.5461C130.634 19.8785 129.11 23.0317 130.645 25.8228C131.447 27.2752 132.871 27.3902 134.018 27.3137C139.299 26.09 142.711 21.1584 145.499 16.6476C147.115 13.2259 148.552 9.82331 148.552 6.03787C148.552 5.57922 148.528 4.96781 148.489 4.50853C151.012 3.17101 156.186 5.54077 156.186 5.54077C160.229 6.87934 168.838 13.4746 171.742 14.7356C173.158 13.092 175.486 10.6072 176.796 9.36444L174.899 8.19826C171.861 6.34399 168.651 4.58522 165.49 2.84587C158.313 -1.07225 152.47 0.303723 149.497 1.37431C148.328 1.79457 147.26 2.15789 147.26 2.15789C145.053 -0.25053 141.435 -0.0217246 138.768 0.628649C129.179 3.38111 120.276 10.0903 110.73 21.7321C103.713 30.8504 99.3591 38.7264 97.0397 46.5058C95.2513 51.7431 94.7078 59.4464 99.0728 64.0152C102.784 67.8945 107.705 67.0543 111.181 65.6592C118.71 61.9507 125.477 53.9598 128.85 44.7657C129.664 42.0326 130.567 38.172 129.166 35.2278ZM45.7036 26.3589C45.691 26.3971 44.4248 29.3023 44.4248 29.3023C44.2417 29.4551 43.9523 29.3788 43.6206 29.3023L43.0522 29.2061C41.2675 28.6522 39.9212 27.4668 39.5062 26.0525C38.9337 23.2997 41.2853 21.1397 42.3214 20.3564C43.3155 19.6676 44.861 19.3045 45.7585 20.0121C46.312 20.6622 46.5217 21.503 46.5217 22.4212C46.522 23.6634 46.1385 25.0587 45.7036 26.3589ZM42.9835 31.8827C42.9835 31.8827 42.926 32.0553 42.8976 32.1117C42.8903 32.1117 40.0193 36.7944 40.0193 36.7944C38.2865 39.1078 36.1231 42.0141 33.4186 43.4089C32.617 43.6766 31.5089 43.849 30.9443 43.1422C29.7472 41.7083 30.3642 39.7204 30.8655 38.1147L31.0428 37.5412C32.4799 33.6421 34.7601 30.2006 36.9794 27.0077C37.0071 26.9889 37.0693 26.9699 37.0918 26.9699C37.097 26.989 37.1059 26.989 37.1097 27.0274C38.5024 29.703 41.1138 30.9451 43.0668 31.5194C43.0786 31.5194 43.0912 31.5384 43.0912 31.5768C43.0914 31.6338 43.0595 31.7113 42.9835 31.8827ZM78.8987 28.8053C80.183 27.0279 83.921 22.2679 84.8322 21.4652C87.8971 18.7688 89.1221 19.9553 89.2281 20.7958C86.3677 25.9185 82.9918 31.7868 79.8178 37.0629C79.8241 37.0441 78.8245 38.5728 78.8245 38.5728C77.4226 40.7134 76.0111 42.5484 73.7087 43.8291C73.3804 43.9252 72.8392 43.9636 72.479 43.6951C72.0455 43.4083 71.8744 42.9303 71.9232 42.433C72.0611 40.7896 73.7347 35.7635 78.8987 28.8053ZM47.0696 17.1832C43.1073 14.5836 35.1435 19.5536 28.7652 28.0781C22.9322 35.725 20.4134 44.6127 23.1545 48.7229C27.232 53.5589 34.8017 46.5247 38.0206 42.7595L38.4359 42.3194C40.6249 39.9681 42.3162 37.1389 43.9532 34.4242C43.9532 34.4242 45.4576 31.9392 45.5295 31.8243C46.4594 31.653 47.5794 31.3852 48.8415 31.0219C48.8235 31.0789 44.0127 39.1649 44.5036 43.1789C44.6563 44.4034 44.5396 48.8763 48.9068 50.2333C54.7272 51.2088 59.3754 46.6969 63.4751 42.6827C63.4751 42.6827 64.1738 42.0143 64.569 41.6327C64.469 42.0331 64.3386 42.5672 64.3386 42.5672C62.6346 48.4932 64.9315 49.7365 66.3684 50.1953C70.7107 51.4576 75.8983 45.1491 75.9151 45.1491C75.7805 47.1362 75.3872 48.7802 77.482 50.0992C79.4593 50.8071 81.4603 49.7281 82.9812 48.7149C88.4598 44.8536 92.8733 38.8104 96.4379 33.5865H94.164C94.1371 33.5865 88.5527 41.6804 84.9266 43.4396C84.9213 43.4396 84.261 43.7784 83.8807 43.5103C83.4101 43.1086 83.5958 42.2738 83.886 41.6825C83.9042 41.6438 97.887 17.3925 97.887 17.3925H91.2851C91.2851 17.3925 90.5639 18.5593 90.5051 18.6358C90.4607 18.5976 90.355 18.3971 90.2816 18.3009C86.1913 12.6429 76.9283 21.3459 69.9544 31.4379C67.2695 35.3188 63.8513 39.6883 60.3069 42.8427C60.3069 42.8427 55.0561 47.656 52.8126 44.1978C51.9924 42.7447 52.2447 40.6205 52.7073 39.2255C55.3194 31.7896 59.8206 25.0416 64.9427 20.9691C66.3886 19.842 67.9602 19.516 68.7402 19.994C69.4833 20.4344 69.6032 21.5231 69.133 22.2687C67.9401 22.2306 66.9845 22.5931 66.2075 23.396C64.6769 25.0019 64.1451 26.5504 64.6317 28.0035C66.9959 31.3677 71.7106 24.7154 71.4825 20.6629C71.4011 19.2098 70.6258 17.8339 69.469 17.1642C67.745 16.1324 65.1146 16.3996 63.4125 17.2221C61.1338 18.082 57.5267 21.0828 55.4212 23.4154C52.7706 26.3405 48.2248 29.5898 46.8031 29.2259C47.2688 27.9828 51.109 20.1261 47.0696 17.1832ZM80.2538 59.715C72.4786 54.7063 61.9263 53.8274 44.909 58.5488C26.7675 62.812 20.7183 65.5448 12.7749 60.0587C9.72306 57.3637 8.62887 53.0244 9.44599 46.7744C11.341 36.5852 16.4619 26.7794 25.5585 15.9033C30.6359 10.2453 35.3455 5.38975 41.5645 3.44019C46.3308 2.21697 45.8852 5.96281 45.3084 6.49846C44.6999 6.49846 43.6776 6.59437 42.8875 7.10992C42.2463 7.60723 40.4861 9.21305 40.3915 11.3731C40.2552 14.6798 43.6773 13.9915 45.1534 12.176C46.7444 10.1302 49.0956 6.21214 47.2461 2.56065C46.4709 1.26095 45.1315 0.362753 43.4684 0.0568427C37.7738 -0.268605 32.47 2.44593 27.5753 5.44705C16.8736 12.8827 8.31063 23.1863 3.466 34.4647C0.672478 41.2695 -1.85379 51.0171 1.93311 58.9511C4.86245 64.456 10.9441 67.3801 18.2003 66.7686C23.2892 66.234 29.4421 64.5892 33.5815 63.5962C37.72 62.6015 58.9047 55.3192 65.8661 67.9936C65.8661 67.9936 68.1808 63.5002 73.9654 63.4044C78.7212 62.9656 85.5823 64.7812 90.5784 68.4507C88.9138 65.9474 84.1946 62.2581 80.2576 59.7153L80.2538 59.715Z" fill="white" fill-opacity="0.21"/>
</svg>
