<svg width="295" height="37" viewBox="0 0 295 37" fill="none" xmlns="http://www.w3.org/2000/svg">
<path d="M89.009 18.3362H82.6176V6.12934H89.009C92.1001 6.12934 94.5622 8.85365 94.5622 12.2065C94.5622 15.6118 92.1001 18.3362 89.009 18.3362ZM93.6191 22.7893L93.7239 22.7369C94.3004 22.4744 94.8767 22.1079 95.3483 21.7414C98.2296 19.5932 99.9581 16.0833 99.9581 12.2588C99.9581 5.97222 95.2959 0.838066 89.5856 0.838066H77.2214V35.939H82.5652V23.6277H82.67C82.67 23.6277 85.5513 23.6277 87.6993 23.6277H87.7517L87.8041 23.6801L95.9242 35.939H102.316L93.6191 22.7893ZM117.561 30.9618H114.313V5.97223H117.561C123.324 5.97223 127.672 11.578 127.672 18.4933C127.672 25.3564 123.324 30.9618 117.561 30.9618ZM117.718 0.890427H109.022V35.9914H117.718C126.205 35.9914 132.911 28.1329 132.911 18.4409C132.911 8.80129 126.153 0.890427 117.718 0.890427ZM202.483 18.3362H196.092V6.12934H202.483C205.575 6.12934 208.037 8.85365 208.037 12.2065C208.037 15.6118 205.575 18.3362 202.483 18.3362ZM207.094 22.7893L207.199 22.7369C207.775 22.4744 208.351 22.1079 208.823 21.7414C211.704 19.5932 213.433 16.0833 213.433 12.2588C213.433 5.97222 208.77 0.838066 203.06 0.838066H190.696V35.939H196.04V23.6277H196.145C196.145 23.6277 199.026 23.6277 201.174 23.6277H201.227L201.279 23.6801L209.399 35.939H215.843L207.094 22.7893ZM183.676 0.890427H161.253V5.81502H169.688V35.9914H175.241V5.81502H183.676V0.890427ZM26.3517 36.9338V0.890427H21.0081V23.2606L0 0.157078V35.9914H5.34365V13.9878L5.55325 14.1973L26.3517 36.9338ZM237.741 31.5903C230.512 31.5903 224.644 25.7229 224.644 18.4933C224.644 11.2635 230.512 5.39598 237.741 5.39598C244.971 5.39598 250.839 11.2635 250.839 18.4933C250.839 25.6706 244.971 31.5903 237.741 31.5903ZM237.741 0C227.578 0 219.301 8.2775 219.301 18.4409C219.301 28.6041 227.578 36.8814 237.741 36.8814C247.905 36.8814 256.182 28.6041 256.182 18.4409C256.182 8.2775 247.905 0 237.741 0ZM51.8128 31.5903C44.583 31.5903 38.7156 25.7229 38.7156 18.4933C38.7156 11.2635 44.583 5.39598 51.8128 5.39598C59.0425 5.39598 64.9103 11.2635 64.9103 18.4933C64.9626 25.6706 59.0425 31.5903 51.8128 31.5903ZM51.8128 0C41.6493 0 33.3717 8.2775 33.3717 18.4409C33.3717 28.6041 41.6493 36.8814 51.8128 36.8814C61.9762 36.8814 70.2543 28.6041 70.2543 18.4409C70.3061 8.2775 62.0286 0 51.8128 0ZM156.696 26.7185C156.591 24.8845 155.753 21.2177 150.986 17.393L146.794 13.7257C145.013 12.3112 144.175 10.792 144.122 9.01073C144.122 6.96753 145.484 5.55306 147.528 5.44834C147.58 5.44834 150.147 5.13378 151.719 7.33446L151.771 7.43918L156.015 4.55782L155.962 4.4531C155.229 3.30024 151.928 0.157078 147.475 0.366516C144.96 0.471237 142.708 1.4667 141.136 3.03844C139.512 4.7149 138.726 6.91517 138.883 9.48215C139.041 12.4686 140.769 15.2451 144.384 18.1789L148.313 21.6366C150.514 23.4177 151.457 24.9369 151.562 26.7185C151.666 28.0282 151.195 29.2856 150.357 30.2282C149.623 31.0666 148.785 31.4332 147.633 31.5379H147.37C144.07 31.5379 142.708 29.1803 141.922 27.7658L141.712 27.3992L137.155 29.5998C137.574 30.7524 140.036 36.5672 147.266 36.5672H147.37C149.99 36.4101 152.4 35.3624 154.129 33.5812C155.91 31.8003 156.853 29.338 156.696 26.7185ZM278.814 21.5319L294.531 0.209438V36.0437H289.188V16.7643L278.762 30.6477L268.442 16.7643V36.0437H263.098V0.157078L278.814 21.5319Z" fill="white" fill-opacity="0.21"/>
</svg>
