<svg width="32" height="32" viewBox="0 0 32 32" fill="none" xmlns="http://www.w3.org/2000/svg">
    <g clip-path="url(#clip0_269_408)">
        <path
            d="M2.41019 26.1789L3.81707 28.619C4.10938 29.1327 4.53019 29.5366 5.02451 29.8307L10.071 26.2527L10.0802 21.1159L5.04413 18.8469L5.11726e-06 21.0978C-0.000994883 21.6659 0.144568 22.2344 0.436943 22.748L2.41019 26.1789Z"
            fill="#0066DD" />
        <path
            d="M16.0183 10.8629L16.2816 4.17144L10.9938 2.13C10.4984 2.42238 10.0762 2.82482 9.782 3.33744L0.442813 19.4491C0.148688 19.9618 0.001 20.5296 0 21.0978L10.0802 21.1158L16.0183 10.8629Z"
            fill="#00AD3C" />
        <path
            d="M16.0183 10.863L20.8623 8.25712L21.074 2.14806C20.5797 1.85393 20.0117 1.70631 19.4253 1.70525L12.6441 1.69312C12.0576 1.69206 11.4891 1.856 10.9938 2.13006L16.0183 10.863Z"
            fill="#00831E" />
        <path
            d="M21.9198 21.1371L10.0802 21.116L5.02454 29.8308C5.51885 30.125 6.08679 30.2726 6.67322 30.2737L25.294 30.3069C25.8805 30.308 26.449 30.144 26.9443 29.87L26.964 24.0162L21.9198 21.1371Z"
            fill="#0084FF" />
        <path
            d="M26.9444 29.8699C27.4397 29.5775 27.862 29.1751 28.1561 28.6625L28.7444 27.6555L31.5572 22.8037C31.8514 22.2911 31.999 21.7232 32 21.155L26.1737 18.0894L21.9382 21.1371L26.9444 29.8699Z"
            fill="#FF4131" />
        <path
            d="M26.9223 11.4323L22.2815 3.35976C21.9892 2.84601 21.5684 2.44207 21.074 2.14795L16.0183 10.8629L21.9197 21.1369L31.9816 21.1549C31.9826 20.5868 31.837 20.0184 31.5447 19.5046L26.9223 11.4323Z"
            fill="#FFBA00" />
    </g>
    <defs>
        <clipPath id="clip0_269_408">
            <rect width="32" height="32" fill="white" />
        </clipPath>
    </defs>
</svg>
    