<svg width="16" height="16" viewBox="0 0 16 16" fill="none" xmlns="http://www.w3.org/2000/svg">
<path d="M1 8C1 8.91925 1.18106 9.82951 1.53284 10.6788C1.88463 11.5281 2.40024 12.2997 3.05025 12.9497C3.70026 13.5998 4.47194 14.1154 5.32122 14.4672C6.17049 14.8189 7.08075 15 8 15C8.91925 15 9.82951 14.8189 10.6788 14.4672C11.5281 14.1154 12.2997 13.5998 12.9497 12.9497C13.5998 12.2997 14.1154 11.5281 14.4672 10.6788C14.8189 9.82951 15 8.91925 15 8C15 7.08075 14.8189 6.17049 14.4672 5.32122C14.1154 4.47194 13.5998 3.70026 12.9497 3.05025C12.2997 2.40024 11.5281 1.88463 10.6788 1.53284C9.82951 1.18106 8.91925 1 8 1C7.08075 1 6.17049 1.18106 5.32122 1.53284C4.47194 1.88463 3.70026 2.40024 3.05025 3.05025C2.40024 3.70026 1.88463 4.47194 1.53284 5.32122C1.18106 6.17049 1 7.08075 1 8Z" stroke="#31A2F4" stroke-width="1.5" stroke-linecap="round" stroke-linejoin="round"/>
<path d="M6.50001 5.40191C7.06798 5.074 7.72775 4.94125 8.37835 5.02396C9.02895 5.10667 9.63451 5.4003 10.1024 5.85991C10.5702 6.31951 10.8746 6.91976 10.9688 7.56878C11.0631 8.2178 10.9421 8.87984 10.6244 9.45355C10.3066 10.0273 9.80959 10.481 9.20941 10.7454C8.60924 11.0098 7.93895 11.0703 7.30116 10.9175C6.66337 10.7647 6.09321 10.4072 5.67795 9.89955C5.26269 9.39193 5.02522 8.76222 5.00188 8.1068L5 7.99992L5.00188 7.89305C5.02001 7.38488 5.167 6.88967 5.42906 6.45391C5.69112 6.01815 6.05964 5.65615 6.50001 5.40191Z" fill="#31A2F4"/>
</svg>
