<svg width="20" height="20" viewBox="0 0 20 20" fill="none" xmlns="http://www.w3.org/2000/svg">
<path d="M10 6.25C10 6.58152 10.1317 6.89946 10.3661 7.13388C10.6005 7.3683 10.9185 7.5 11.25 7.5C11.5815 7.5 11.8995 7.3683 12.1339 7.13388C12.3683 6.89946 12.5 6.58152 12.5 6.25M10 6.25C10 5.91848 10.1317 5.60054 10.3661 5.36612C10.6005 5.1317 10.9185 5 11.25 5C11.5815 5 11.8995 5.1317 12.1339 5.36612C12.3683 5.60054 12.5 5.91848 12.5 6.25M10 6.25H5M12.5 6.25H15M6.25 10C6.25 10.3315 6.3817 10.6495 6.61612 10.8839C6.85054 11.1183 7.16848 11.25 7.5 11.25C7.83152 11.25 8.14946 11.1183 8.38388 10.8839C8.6183 10.6495 8.75 10.3315 8.75 10M6.25 10C6.25 9.66848 6.3817 9.35054 6.61612 9.11612C6.85054 8.8817 7.16848 8.75 7.5 8.75C7.83152 8.75 8.14946 8.8817 8.38388 9.11612C8.6183 9.35054 8.75 9.66848 8.75 10M6.25 10H5M8.75 10H15M11.875 13.75C11.875 14.0815 12.0067 14.3995 12.2411 14.6339C12.4755 14.8683 12.7935 15 13.125 15C13.4565 15 13.7745 14.8683 14.0089 14.6339C14.2433 14.3995 14.375 14.0815 14.375 13.75M11.875 13.75C11.875 13.4185 12.0067 13.1005 12.2411 12.8661C12.4755 12.6317 12.7935 12.5 13.125 12.5C13.4565 12.5 13.7745 12.6317 14.0089 12.8661C14.2433 13.1005 14.375 13.4185 14.375 13.75M11.875 13.75H5M14.375 13.75H15" stroke="#1F272F" stroke-linecap="round" stroke-linejoin="round"/>
<circle cx="10" cy="10" r="9.5" stroke="#1F272F"/>
</svg>
