<svg width="16" height="17" viewBox="0 0 16 17" fill="none" xmlns="http://www.w3.org/2000/svg">
<path d="M1 1.77778L15 15.7778M5.66667 3.33333C5.66667 2.71449 5.9125 2.121 6.35008 1.68342C6.78767 1.24583 7.38116 1 8 1C8.61884 1 9.21233 1.24583 9.64992 1.68342C10.0875 2.121 10.3333 2.71449 10.3333 3.33333V7.22222C10.3334 7.45256 10.2993 7.68164 10.2322 7.902M8.67667 9.45756C8.32797 9.56322 7.95937 9.58575 7.6004 9.52335C7.24143 9.46096 6.90206 9.31536 6.60947 9.09822C6.31688 8.88109 6.07921 8.59845 5.91549 8.27295C5.75177 7.94745 5.66655 7.58813 5.66667 7.22378V6.446M2.55556 7.22222C2.55538 8.20482 2.82114 9.16916 3.32463 10.013C3.82813 10.8568 4.55059 11.5486 5.41542 12.015C6.28024 12.4815 7.25518 12.7052 8.23685 12.6625C9.21853 12.6197 10.1703 12.3121 10.9913 11.7722M12.5469 10.2167C13.1332 9.32819 13.4448 8.28671 13.4429 7.22222M4.88889 15.7778H11.1111M8 12.6667V15.7778" stroke="#A6A6A8" stroke-width="1.5" stroke-linecap="round" stroke-linejoin="round"/>
</svg>
