<svg width="16" height="16" viewBox="0 0 16 16" fill="none" xmlns="http://www.w3.org/2000/svg">
<path d="M3.44973 3.45411C2.76051 4.50086 2.45352 5.75335 2.58058 7.00017C2.70764 8.247 3.26096 9.41181 4.14717 10.298C5.03337 11.1842 6.19818 11.7375 7.44501 11.8646C8.69183 11.9917 9.94432 11.6847 10.9911 10.9954M12.5466 9.43989C13.2364 8.39295 13.5437 7.14003 13.4167 5.89273C13.2896 4.64544 12.736 3.48021 11.8493 2.59386C10.9626 1.7075 9.79711 1.15434 8.54976 1.02781C7.30241 0.901272 6.04961 1.20911 5.00296 1.89934M5.76764 5.76333C5.64353 6.16813 5.63191 6.59907 5.73401 7.00998C5.83611 7.42088 6.0481 7.79626 6.34724 8.09588C6.64639 8.39551 7.02143 8.6081 7.43217 8.71086C7.84291 8.81362 8.27386 8.80268 8.67886 8.67922M10.2344 7.12367C10.3557 6.71997 10.3653 6.29096 10.2623 5.88222C10.1593 5.47349 9.94752 5.10028 9.64942 4.80227C9.35132 4.50425 8.97807 4.29255 8.5693 4.18965C8.16053 4.08676 7.73153 4.09652 7.32786 4.21789M4.8895 11.1129L3.26317 13.8242C3.19247 13.9422 3.15432 14.0768 3.15262 14.2144C3.15092 14.3519 3.18572 14.4874 3.25348 14.6071C3.32123 14.7268 3.41952 14.8264 3.53832 14.8958C3.65712 14.9651 3.79218 15.0017 3.92972 15.0018H12.0715C12.209 15.0017 12.3441 14.9651 12.4629 14.8958C12.5817 14.8264 12.68 14.7268 12.7478 14.6071C12.8155 14.4874 12.8503 14.3519 12.8486 14.2144C12.8469 14.0768 12.8088 13.9422 12.7381 13.8242L11.1117 11.1129M1 1.00178L15 15.0018" stroke="#31A2F4" stroke-width="1.5" stroke-linecap="round" stroke-linejoin="round"/>
</svg>
