<svg width="20" height="20" viewBox="0 0 20 20" fill="none" xmlns="http://www.w3.org/2000/svg">
<path d="M16.333 0C18.293 0 19.893 1.537 19.995 3.472L20 3.667V16.333C20 18.293 18.463 19.893 16.528 19.995L16.333 20H3.667C2.72818 20 1.82509 19.64 1.1438 18.9941C0.462517 18.3481 0.0549239 17.4655 0.00500011 16.528L0 16.333V3.667C0 1.707 1.537 0.107 3.472 0.00500011L3.667 0H16.333ZM13.707 7.293C13.5195 7.10553 13.2652 7.00021 13 7.00021C12.7348 7.00021 12.4805 7.10553 12.293 7.293L9 10.585L7.707 9.293L7.613 9.21C7.41201 9.05459 7.1594 8.98151 6.90647 9.0056C6.65355 9.02969 6.41928 9.14916 6.25125 9.33972C6.08321 9.53029 5.99402 9.77767 6.00177 10.0316C6.00953 10.2856 6.11365 10.527 6.293 10.707L8.293 12.707L8.387 12.79C8.5794 12.9393 8.81966 13.0132 9.06268 12.9979C9.30571 12.9826 9.53481 12.8792 9.707 12.707L13.707 8.707L13.79 8.613C13.9393 8.4206 14.0132 8.18034 13.9979 7.93732C13.9826 7.69429 13.8792 7.46519 13.707 7.293Z" fill="#181A20"/>
</svg>
