<svg width="23" height="17" viewBox="0 0 23 17" fill="none" xmlns="http://www.w3.org/2000/svg">
<path d="M11.5041 8.42228V8.4354M15.2148 4.71194C16.1987 5.69613 16.7514 7.0308 16.7514 8.42244C16.7514 9.81408 16.1987 11.1487 15.2148 12.1329M18.9255 1C19.9002 1.97469 20.6734 3.13184 21.201 4.40536C21.7285 5.67889 22 7.04385 22 8.42231C22 9.80077 21.7285 11.1657 21.201 12.4393C20.6734 13.7128 19.9002 14.8699 18.9255 15.8446M7.7874 12.1329C6.80351 11.1487 6.25079 9.81408 6.25079 8.42244C6.25079 7.0308 6.80351 5.69613 7.7874 4.71194M4.07453 15.8446C3.09979 14.8699 2.32658 13.7128 1.79905 12.4393C1.27152 11.1657 1 9.80077 1 8.42231C1 7.04385 1.27152 5.67889 1.79905 4.40536C2.32658 3.13184 3.09979 1.97469 4.07453 1" stroke="#1F272F" stroke-width="1.5" stroke-linecap="round" stroke-linejoin="round"/>
</svg>
