<svg width="18" height="18" viewBox="0 0 18 18" fill="none" xmlns="http://www.w3.org/2000/svg">
<path d="M1 17V15.2222C1 14.2792 1.3746 13.3749 2.0414 12.7081C2.70819 12.0413 3.61256 11.6667 4.55556 11.6667H8.11111C9.0541 11.6667 9.95847 12.0413 10.6253 12.7081C11.2921 13.3749 11.6667 14.2792 11.6667 15.2222V17M12.5556 1.11545C13.3204 1.31127 13.9983 1.75607 14.4823 2.37973C14.9664 3.00338 15.2292 3.77041 15.2292 4.5599C15.2292 5.34938 14.9664 6.11641 14.4823 6.74006C13.9983 7.36372 13.3204 7.80852 12.5556 8.00434M17 16.9999V15.2221C16.9955 14.4374 16.7315 13.6762 16.2491 13.0572C15.7668 12.4381 15.0932 11.9961 14.3333 11.7999M2.77778 4.55556C2.77778 5.49855 3.15238 6.40292 3.81918 7.06971C4.48597 7.73651 5.39034 8.11111 6.33333 8.11111C7.27633 8.11111 8.1807 7.73651 8.84749 7.06971C9.51429 6.40292 9.88889 5.49855 9.88889 4.55556C9.88889 3.61256 9.51429 2.70819 8.84749 2.0414C8.1807 1.3746 7.27633 1 6.33333 1C5.39034 1 4.48597 1.3746 3.81918 2.0414C3.15238 2.70819 2.77778 3.61256 2.77778 4.55556Z" stroke="#1F272F" stroke-width="1.5" stroke-linecap="round" stroke-linejoin="round"/>
</svg>
