<svg width="16" height="14" viewBox="0 0 16 14" fill="none" xmlns="http://www.w3.org/2000/svg">
<path d="M7.33344 10.303C4.82822 10.0736 2.71656 8.52889 1 5.66667C2.86667 2.55556 5.2 1 8 1C10.8 1 13.1333 2.55556 15 5.66667C14.8273 5.95444 14.6508 6.22822 14.4711 6.48878M10.3333 11.1111L11.8889 12.6667L15 9.55556M6.44444 5.66667C6.44444 6.07923 6.60833 6.47489 6.90006 6.76661C7.19178 7.05833 7.58744 7.22222 8 7.22222C8.41256 7.22222 8.80822 7.05833 9.09994 6.76661C9.39167 6.47489 9.55556 6.07923 9.55556 5.66667C9.55556 5.25411 9.39167 4.85845 9.09994 4.56672C8.80822 4.275 8.41256 4.11111 8 4.11111C7.58744 4.11111 7.19178 4.275 6.90006 4.56672C6.60833 4.85845 6.44444 5.25411 6.44444 5.66667Z" stroke="#A6A6A8" stroke-width="1.5" stroke-linecap="round" stroke-linejoin="round"/>
</svg>
