<svg width="16" height="16" viewBox="0 0 16 16" fill="none" xmlns="http://www.w3.org/2000/svg">
<path d="M1 15L15 1M3.20189 9.68078C1.89791 7.80784 1.13599 5.61143 1 3.33333C1 2.92077 1.16389 2.52511 1.45561 2.23339C1.74733 1.94167 2.143 1.77778 2.55556 1.77778H5.66667L7.22222 5.66667L5.27778 6.83333C5.36178 7.00444 5.45122 7.17167 5.54611 7.335M6.908 9.106C7.56367 9.75933 8.32511 10.3069 9.16667 10.7222L10.3333 8.77778L14.2222 10.3333V13.4444C14.2222 13.857 14.0583 14.2527 13.7666 14.5444C13.4749 14.8361 13.0792 15 12.6667 15C9.63187 14.8184 6.76919 13.5296 4.62133 11.3779" stroke="#A6A6A8" stroke-width="1.5" stroke-linecap="round" stroke-linejoin="round"/>
</svg>
