<svg width="16" height="12" viewBox="0 0 16 12" fill="none" xmlns="http://www.w3.org/2000/svg">
<path d="M4.11111 5.66667H7.22222M5.66667 4.11111V7.22222M10.3333 4.11111L13.8746 2.34089C13.9931 2.28165 14.1248 2.25368 14.2572 2.25964C14.3896 2.26561 14.5183 2.3053 14.631 2.37496C14.7438 2.44461 14.8368 2.54192 14.9014 2.65765C14.966 2.77338 14.9999 2.90369 15 3.03622V8.29711C14.9999 8.42963 14.966 8.55995 14.9014 8.67568C14.8368 8.7914 14.7438 8.88871 14.631 8.95837C14.5183 9.02803 14.3896 9.06772 14.2572 9.07368C14.1248 9.07965 13.9931 9.05168 13.8746 8.99244L10.3333 7.22222V4.11111ZM1 2.55556C1 2.143 1.16389 1.74733 1.45561 1.45561C1.74733 1.16389 2.143 1 2.55556 1H8.77778C9.19034 1 9.586 1.16389 9.87772 1.45561C10.1694 1.74733 10.3333 2.143 10.3333 2.55556V8.77778C10.3333 9.19034 10.1694 9.586 9.87772 9.87772C9.586 10.1694 9.19034 10.3333 8.77778 10.3333H2.55556C2.143 10.3333 1.74733 10.1694 1.45561 9.87772C1.16389 9.586 1 9.19034 1 8.77778V2.55556Z" stroke="#31A2F4" stroke-width="1.5" stroke-linecap="round" stroke-linejoin="round"/>
</svg>
