<svg width="12" height="15" viewBox="0 0 12 15" fill="none" xmlns="http://www.w3.org/2000/svg">
<path d="M3.14286 6.71429V3.85714C3.14286 3.09938 3.44388 2.37266 3.97969 1.83684C4.51551 1.30102 5.24224 1 6 1C6.75776 1 7.48449 1.30102 8.02031 1.83684C8.55612 2.37266 8.85714 3.09938 8.85714 3.85714V6.71429M1 8.14286C1 7.76398 1.15051 7.40061 1.41842 7.1327C1.68633 6.8648 2.04969 6.71429 2.42857 6.71429H9.57143C9.95031 6.71429 10.3137 6.8648 10.5816 7.1327C10.8495 7.40061 11 7.76398 11 8.14286V12.4286C11 12.8075 10.8495 13.1708 10.5816 13.4387C10.3137 13.7066 9.95031 13.8571 9.57143 13.8571H2.42857C2.04969 13.8571 1.68633 13.7066 1.41842 13.4387C1.15051 13.1708 1 12.8075 1 12.4286V8.14286ZM5.28571 10.2857C5.28571 10.4752 5.36097 10.6568 5.49492 10.7908C5.62888 10.9247 5.81056 11 6 11C6.18944 11 6.37112 10.9247 6.50508 10.7908C6.63903 10.6568 6.71429 10.4752 6.71429 10.2857C6.71429 10.0963 6.63903 9.91459 6.50508 9.78064C6.37112 9.64668 6.18944 9.57143 6 9.57143C5.81056 9.57143 5.62888 9.64668 5.49492 9.78064C5.36097 9.91459 5.28571 10.0963 5.28571 10.2857Z" stroke="#A6A6A8" stroke-width="1.5" stroke-linecap="round" stroke-linejoin="round"/>
</svg>
