<svg width="4" height="13" viewBox="0 0 4 13" fill="none" xmlns="http://www.w3.org/2000/svg">
<path d="M1 6.5C1 6.68234 1.07243 6.8572 1.20136 6.98614C1.3303 7.11507 1.50516 7.1875 1.6875 7.1875C1.86984 7.1875 2.0447 7.11507 2.17364 6.98614C2.30257 6.8572 2.375 6.68234 2.375 6.5C2.375 6.31766 2.30257 6.1428 2.17364 6.01386C2.0447 5.88493 1.86984 5.8125 1.6875 5.8125C1.50516 5.8125 1.3303 5.88493 1.20136 6.01386C1.07243 6.1428 1 6.31766 1 6.5Z" stroke="#1F272F" stroke-width="1.5" stroke-linecap="round" stroke-linejoin="round"/>
<path d="M1 11.3125C1 11.4948 1.07243 11.6697 1.20136 11.7986C1.3303 11.9276 1.50516 12 1.6875 12C1.86984 12 2.0447 11.9276 2.17364 11.7986C2.30257 11.6697 2.375 11.4948 2.375 11.3125C2.375 11.1302 2.30257 10.9553 2.17364 10.8264C2.0447 10.6974 1.86984 10.625 1.6875 10.625C1.50516 10.625 1.3303 10.6974 1.20136 10.8264C1.07243 10.9553 1 11.1302 1 11.3125Z" stroke="#1F272F" stroke-width="1.5" stroke-linecap="round" stroke-linejoin="round"/>
<path d="M1 1.6875C1 1.86984 1.07243 2.0447 1.20136 2.17364C1.3303 2.30257 1.50516 2.375 1.6875 2.375C1.86984 2.375 2.0447 2.30257 2.17364 2.17364C2.30257 2.0447 2.375 1.86984 2.375 1.6875C2.375 1.50516 2.30257 1.3303 2.17364 1.20136C2.0447 1.07243 1.86984 1 1.6875 1C1.50516 1 1.3303 1.07243 1.20136 1.20136C1.07243 1.3303 1 1.50516 1 1.6875Z" stroke="#1F272F" stroke-width="1.5" stroke-linecap="round" stroke-linejoin="round"/>
</svg>
