<svg width="16" height="16" viewBox="0 0 16 16" fill="none" xmlns="http://www.w3.org/2000/svg">
<path d="M6.44444 7.22222V5.66667C6.44444 5.25411 6.60833 4.85845 6.90006 4.56672C7.19178 4.275 7.58744 4.11111 8 4.11111C8.41256 4.11111 8.80822 4.275 9.09994 4.56672C9.39167 4.85845 9.55556 5.25411 9.55556 5.66667V7.22222M8 1C13.6 1 15 2.4 15 8C15 13.6 13.6 15 8 15C2.4 15 1 13.6 1 8C1 2.4 2.4 1 8 1ZM4.88889 8C4.88889 7.79372 4.97083 7.59589 5.11669 7.45003C5.26256 7.30417 5.46039 7.22222 5.66667 7.22222H10.3333C10.5396 7.22222 10.7374 7.30417 10.8833 7.45003C11.0292 7.59589 11.1111 7.79372 11.1111 8V10.3333C11.1111 10.5396 11.0292 10.7374 10.8833 10.8833C10.7374 11.0292 10.5396 11.1111 10.3333 11.1111H5.66667C5.46039 11.1111 5.26256 11.0292 5.11669 10.8833C4.97083 10.7374 4.88889 10.5396 4.88889 10.3333V8Z" stroke="#31A2F4" stroke-width="1.5" stroke-linecap="round" stroke-linejoin="round"/>
</svg>
