<svg width="26" height="18" viewBox="0 0 26 18" fill="none" xmlns="http://www.w3.org/2000/svg">
<path d="M10.3333 9C10.3333 9.70725 10.6143 10.3855 11.1144 10.8856C11.6145 11.3857 12.2928 11.6667 13 11.6667C13.7072 11.6667 14.3855 11.3857 14.8856 10.8856C15.3857 10.3855 15.6667 9.70725 15.6667 9C15.6667 8.29276 15.3857 7.61448 14.8856 7.11438C14.3855 6.61429 13.7072 6.33333 13 6.33333C12.2928 6.33333 11.6145 6.61429 11.1144 7.11438C10.6143 7.61448 10.3333 8.29276 10.3333 9Z" stroke="#1F272F" stroke-width="1.5" stroke-linecap="round" stroke-linejoin="round"/>
<path d="M25 9C21.8 14.3333 17.8 17 13 17C8.2 17 4.2 14.3333 1 9C4.2 3.66667 8.2 1 13 1C17.8 1 21.8 3.66667 25 9Z" stroke="#1F272F" stroke-width="1.5" stroke-linecap="round" stroke-linejoin="round"/>
</svg>
