<svg width="16" height="15" viewBox="0 0 16 15" fill="none" xmlns="http://www.w3.org/2000/svg">
<path d="M10.3114 4.11861C10.7933 4.47999 11.1844 4.94861 11.4537 5.48733C11.7231 6.02606 11.8633 6.6201 11.8633 7.22241C11.8633 7.82473 11.7231 8.41877 11.4537 8.95749C11.1844 9.49622 10.7933 9.96483 10.3114 10.3262M12.4059 1.79075C13.2159 2.44538 13.8693 3.27292 14.3182 4.21274C14.767 5.15257 15 6.1809 15 7.22241C15 8.26392 14.767 9.29225 14.3182 10.2321C13.8693 11.1719 13.2159 11.9994 12.4059 12.6541M3.32785 9.55027H1.77595C1.57016 9.55027 1.37279 9.46852 1.22727 9.323C1.08175 9.17748 1 8.98011 1 8.77432V5.67051C1 5.46472 1.08175 5.26735 1.22727 5.12183C1.37279 4.97631 1.57016 4.89456 1.77595 4.89456H3.32785L6.04368 1.40278C6.11151 1.27105 6.22421 1.16792 6.36143 1.11202C6.49865 1.05613 6.65134 1.05116 6.7919 1.09802C6.93246 1.14487 7.05163 1.24046 7.12787 1.3675C7.20411 1.49455 7.23239 1.64467 7.20761 1.79075V12.6541C7.23239 12.8002 7.20411 12.9503 7.12787 13.0773C7.05163 13.2044 6.93246 13.3 6.7919 13.3468C6.65134 13.3937 6.49865 13.3887 6.36143 13.3328C6.22421 13.2769 6.11151 13.1738 6.04368 13.0421L3.32785 9.55027Z" stroke="#A6A6A8" stroke-width="1.5" stroke-linecap="round" stroke-linejoin="round"/>
</svg>
