<svg width="16" height="15" viewBox="0 0 16 15" fill="none" xmlns="http://www.w3.org/2000/svg">
<path d="M11.7059 5.88666L15 9.18078M15 5.88666L11.7059 9.18078M3.47059 10.0043H1.82353C1.60512 10.0043 1.39565 9.91755 1.24121 9.76311C1.08676 9.60867 1 9.3992 1 9.18079V5.88667C1 5.66825 1.08676 5.45879 1.24121 5.30434C1.39565 5.1499 1.60512 5.06314 1.82353 5.06314H3.47059L6.35294 1.35726C6.42492 1.21745 6.54453 1.10799 6.69017 1.04867C6.8358 0.989354 6.99785 0.984082 7.14703 1.03381C7.29621 1.08354 7.42269 1.18498 7.5036 1.31982C7.58452 1.45465 7.61454 1.61398 7.58824 1.76902V13.2984C7.61454 13.4535 7.58452 13.6128 7.5036 13.7476C7.42269 13.8825 7.29621 13.9839 7.14703 14.0336C6.99785 14.0834 6.8358 14.0781 6.69017 14.0188C6.54453 13.9595 6.42492 13.85 6.35294 13.7102L3.47059 10.0043Z" stroke="#A6A6A8" stroke-width="1.5" stroke-linecap="round" stroke-linejoin="round"/>
</svg>
