<svg width="16" height="13" viewBox="0 0 16 13" fill="none" xmlns="http://www.w3.org/2000/svg">
<path d="M1 4.11111C1 3.28599 1.32778 2.49467 1.91122 1.91122C2.49467 1.32778 3.28599 1 4.11111 1H11.8889C12.714 1 13.5053 1.32778 14.0888 1.91122C14.6722 2.49467 15 3.28599 15 4.11111V8.77778C15 9.6029 14.6722 10.3942 14.0888 10.9777C13.5053 11.5611 12.714 11.8889 11.8889 11.8889H4.11111C3.28599 11.8889 2.49467 11.5611 1.91122 10.9777C1.32778 10.3942 1 9.6029 1 8.77778V4.11111Z" stroke="#A6A6A8" stroke-width="1.5" stroke-linecap="round" stroke-linejoin="round"/>
<path d="M6.44444 4.11111L10.3333 6.44444L6.44444 8.77778V4.11111Z" stroke="#A6A6A8" stroke-width="1.5" stroke-linecap="round" stroke-linejoin="round"/>
</svg>
