<svg width="24" height="24" viewBox="0 0 24 24" fill="none" xmlns="http://www.w3.org/2000/svg">
<path d="M14.3813 9.6188C14.3813 8.3063 13.3125 7.23755 12 7.23755C10.6875 7.23755 9.61877 8.3063 9.61877 9.6188C9.61877 10.9313 10.6875 12 12 12C13.3125 12 14.3813 10.9313 14.3813 9.6188Z" fill="#9EA5AF"/>
<path d="M20.3344 0.09375H3.6656C3.00935 0.09375 2.47498 0.628125 2.47498 1.28437V22.7156C2.47498 23.3719 3.00935 23.9062 3.6656 23.9062H20.3344C20.9906 23.9062 21.525 23.3719 21.525 22.7156V1.28437C21.525 0.628125 20.9906 0.09375 20.3344 0.09375ZM6.64216 21.525C5.65779 21.525 4.85623 20.7234 4.85623 19.7391C4.85623 18.7547 5.65779 17.9531 6.64216 17.9531C7.62654 17.9531 8.4281 18.7547 8.4281 19.7391C8.4281 20.7234 7.62654 21.525 6.64216 21.525ZM4.85623 9.61875C4.85623 5.67188 8.0531 2.475 12 2.475C15.9468 2.475 19.1437 5.67188 19.1437 9.61875C19.1437 12.075 17.9062 14.2406 16.0172 15.525L14.0297 13.5375C13.5656 13.0734 12.8109 13.0734 12.3469 13.5375C11.8828 14.0016 11.8828 14.7563 12.3469 15.2203L13.6781 16.5516C13.139 16.6828 12.5765 16.7578 11.9953 16.7578C8.0531 16.7625 4.85623 13.5656 4.85623 9.61875Z" fill="#9EA5AF"/>
</svg>
