<svg width="24" height="24" viewBox="0 0 24 24" fill="none" xmlns="http://www.w3.org/2000/svg">
<g clip-path="url(#clip0_252_774)">
<path d="M10.2778 0C5.01369 0 0.730957 4.28269 0.730957 9.54684C0.730957 14.929 5.16322 19.1116 10.2778 19.1116C10.8898 19.1116 11.4917 19.0511 12.0777 18.9365C11.5312 18.5733 11.1703 18.007 11.072 17.3613C11.0604 17.3679 11.0491 17.375 11.0375 17.3813V14.1864C11.4313 14.2035 11.8183 14.2345 12.1971 14.2776L12.9644 12.8477C12.3411 12.7541 11.6961 12.6924 11.0375 12.6658V10.3065H13.8128C13.7966 10.6864 13.7674 11.0601 13.727 11.4267L15.3162 8.46534C15.2625 7.53886 15.1413 6.64153 14.9561 5.79806C15.6676 5.59219 16.3273 5.33822 16.918 5.04112C17.1413 5.36911 17.3404 5.71472 17.5138 6.07491C18.1881 5.94811 18.8603 6.14527 19.3528 6.58261C18.103 2.7652 14.5076 0 10.2778 0ZM6.97354 2.23139C6.56422 2.88792 6.24847 3.60816 6.00318 4.33519C5.51694 4.19348 5.05944 4.02778 4.64029 3.83812C5.31294 3.17367 6.10175 2.62669 6.97354 2.23139ZM3.63754 5.04108C4.22825 5.33822 4.88807 5.59214 5.59953 5.79802C5.39296 6.7388 5.26532 7.74647 5.22304 8.78714H2.2866C2.41663 7.40794 2.89682 6.12919 3.63754 5.04108ZM2.2866 10.3065H5.22228C5.2633 11.341 5.38879 12.343 5.59218 13.2795C4.87972 13.486 4.2193 13.7408 3.62816 14.0391C2.89269 12.9539 2.41611 11.6799 2.2866 10.3065ZM4.62744 15.2431C5.04693 15.0525 5.50499 14.8859 5.99202 14.7435C6.23919 15.4827 6.55489 16.2032 6.95783 16.855C6.0868 16.4577 5.29879 15.9091 4.62744 15.2431ZM9.51814 17.3814C8.53419 16.8405 7.85399 15.4689 7.48016 14.4021C8.13097 14.2902 8.81441 14.217 9.51814 14.1865V17.3814ZM9.51814 12.6658C8.67439 12.6999 7.8523 12.7909 7.07038 12.9337C6.893 12.1097 6.7821 11.2246 6.74286 10.3065H9.51819L9.51814 12.6658ZM9.51814 8.78714H6.74357C6.78407 7.86248 6.89741 6.97158 7.07807 6.14302C7.85774 6.28509 8.67725 6.37556 9.51814 6.40959V8.78714ZM9.51814 4.88902C8.81886 4.85864 8.13955 4.78612 7.49225 4.67536C7.86707 3.6173 8.5446 2.26537 9.51814 1.73025V4.88902ZM11.0375 1.73025C12.012 2.26594 12.6885 3.61702 13.0634 4.67536C12.4161 4.78612 11.7368 4.85864 11.0375 4.88902V1.73025ZM11.0375 8.78714V6.40964C11.8784 6.37561 12.6979 6.28509 13.4776 6.14306C13.6582 6.97163 13.7716 7.86253 13.8121 8.78719H11.0375V8.78714ZM14.5525 4.33509C14.3071 3.60792 13.9914 2.88773 13.5821 2.2313C14.4539 2.62664 15.2427 3.17367 15.9154 3.83798C15.4962 4.02773 15.0387 4.19339 14.5525 4.33509Z" fill="#9EA5AF"/>
<path d="M23.1734 16.6323L18.4855 7.89685C18.2417 7.44249 17.589 7.44333 17.3456 7.89685L12.6577 16.6323C12.3727 17.1634 12.7586 17.8072 13.3606 17.8072H15.8029C15.8029 18.4477 15.8029 22.7898 15.8029 23.3532C15.8029 23.7104 16.0925 24 16.4497 24H19.3814C19.7386 24 20.0282 23.7104 20.0282 23.3532C20.0282 22.6718 20.0282 18.4446 20.0282 17.8072H22.4705C23.0733 17.8072 23.4581 17.1627 23.1734 16.6323Z" fill="#9EA5AF"/>
</g>
<defs>
<clipPath id="clip0_252_774">
<rect width="24" height="24" fill="white"/>
</clipPath>
</defs>
</svg>
