<svg width="774" height="645" viewBox="0 0 774 645" fill="none" xmlns="http://www.w3.org/2000/svg">
<g clip-path="url(#clip0_745_638)">
<path d="M204.141 604.256L204.848 588.356C212.22 584.416 220.442 582.335 228.801 582.293C217.297 591.698 218.734 609.829 210.935 622.477C208.472 626.403 205.157 629.725 201.236 632.195C197.315 634.666 192.888 636.223 188.284 636.751L178.657 642.645C177.336 635.281 177.627 627.718 179.511 620.477C181.394 613.236 184.825 606.49 189.567 600.702C192.259 597.482 195.346 594.613 198.755 592.165C201.061 598.244 204.141 604.256 204.141 604.256Z" fill="#F2F2F2"/>
<path d="M602.074 372.577C628.028 352.808 640.425 319.588 632.664 287.898C632.471 287.111 632.268 286.325 632.054 285.542C626.909 266.731 614.179 248.853 595.627 242.843C580.05 237.796 563.046 241.677 546.795 239.67C514.893 235.73 490.16 209.918 472.757 182.892C455.355 155.866 441.98 125.614 418.856 103.287C380.739 66.4841 318.56 58.5604 271.301 82.5163C224.041 106.472 193.937 159.621 195.221 212.589C196.505 265.558 227.95 316.2 273.617 343.069C290.393 352.94 309.796 359.932 329.106 357.485C345.861 355.362 361.085 346.359 377.761 343.687C403.979 339.484 430.031 351.339 452.708 365.153C475.385 378.966 497.29 395.34 523.06 401.744C548.082 407.963 579.082 390.089 602.074 372.577Z" fill="#7D7B9B"/>
<path d="M396.705 136.023H138.135C132.742 136.03 127.572 138.175 123.759 141.988C119.946 145.801 117.801 150.971 117.795 156.363V285.053C117.801 290.446 119.946 295.616 123.759 299.429C127.572 303.242 132.742 305.387 138.135 305.393H396.705C402.098 305.389 407.269 303.244 411.082 299.431C414.896 295.617 417.04 290.447 417.045 285.053V156.363C417.04 150.97 414.896 145.799 411.082 141.986C407.269 138.172 402.098 136.028 396.705 136.023Z" fill="#0F0F0F"/>
<path d="M396.706 306.394H138.139C132.481 306.388 127.057 304.137 123.056 300.137C119.056 296.136 116.805 290.712 116.799 285.054V156.36C116.805 150.702 119.056 145.278 123.056 141.277C127.057 137.276 132.481 135.026 138.139 135.02H396.706C402.363 135.026 407.788 137.276 411.788 141.277C415.789 145.278 418.039 150.702 418.046 156.36V285.054C418.039 290.712 415.789 296.136 411.788 300.137C407.788 304.137 402.363 306.388 396.706 306.394ZM138.139 137.02C133.012 137.025 128.096 139.065 124.47 142.691C120.844 146.316 118.805 151.232 118.799 156.36V285.054C118.805 290.181 120.844 295.097 124.47 298.723C128.096 302.349 133.012 304.388 138.139 304.394H396.706C401.833 304.388 406.749 302.349 410.375 298.723C414 295.097 416.04 290.181 416.046 285.054V156.36C416.04 151.232 414 146.316 410.375 142.691C406.749 139.065 401.833 137.025 396.706 137.02H138.139Z" fill="#CCCCCC"/>
<path d="M408.601 341.972H160.812C158.67 341.972 156.616 341.121 155.102 339.606C153.587 338.092 152.736 336.038 152.736 333.896C152.736 331.754 153.587 329.7 155.102 328.186C156.616 326.671 158.67 325.82 160.812 325.82H408.601C410.742 325.82 412.796 326.671 414.311 328.186C415.825 329.7 416.676 331.754 416.676 333.896C416.676 336.038 415.825 338.092 414.311 339.606C412.796 341.121 410.742 341.972 408.601 341.972Z" fill="#E6E6E6"/>
<path d="M240.247 264.963C238.779 264.959 237.336 264.583 236.053 263.871C234.68 263.13 233.535 262.029 232.74 260.687C231.946 259.344 231.533 257.811 231.545 256.251V184.428C231.545 182.871 231.963 181.342 232.756 180.002C233.549 178.662 234.688 177.559 236.052 176.809C237.417 176.059 238.958 175.689 240.515 175.739C242.072 175.788 243.586 176.255 244.901 177.09L313.032 213.001C314.267 213.786 315.284 214.87 315.989 216.153C316.694 217.436 317.064 218.876 317.064 220.34C317.064 221.803 316.694 223.243 315.989 224.526C315.284 225.809 314.267 226.893 313.032 227.678L244.901 263.589C243.512 264.482 241.898 264.958 240.247 264.963Z" fill="#F2F2F2"/>
<path d="M640.351 229.155H532.299C530.045 229.152 527.885 228.256 526.291 226.662C524.698 225.069 523.801 222.908 523.799 220.655V166.875C523.801 164.621 524.698 162.461 526.291 160.867C527.885 159.274 530.045 158.378 532.299 158.375H640.351C642.605 158.378 644.765 159.274 646.359 160.867C647.952 162.461 648.849 164.621 648.851 166.875V220.655C648.849 222.908 647.952 225.069 646.359 226.662C644.765 228.256 642.605 229.152 640.351 229.155Z" fill="black"/>
<path d="M640.351 230.155H532.299C529.78 230.152 527.365 229.15 525.584 227.369C523.803 225.588 522.802 223.173 522.799 220.655V166.875C522.802 164.356 523.803 161.942 525.584 160.161C527.365 158.38 529.78 157.378 532.299 157.375H640.351C642.87 157.378 645.284 158.38 647.065 160.161C648.846 161.942 649.848 164.356 649.851 166.875V220.655C649.848 223.173 648.846 225.588 647.065 227.369C645.284 229.15 642.87 230.152 640.351 230.155ZM532.299 159.375C530.31 159.377 528.404 160.168 526.998 161.574C525.592 162.98 524.801 164.887 524.799 166.875V220.655C524.801 222.643 525.592 224.55 526.998 225.956C528.404 227.362 530.31 228.153 532.299 228.155H640.351C642.34 228.153 644.246 227.362 645.652 225.956C647.058 224.55 647.849 222.643 647.851 220.655V166.875C647.849 164.887 647.058 162.98 645.652 161.574C644.246 160.168 642.34 159.377 640.351 159.375H532.299Z" fill="#CCCCCC"/>
<path d="M622.599 255.472H549.811C547.671 255.469 545.619 254.617 544.106 253.103C542.594 251.589 541.744 249.536 541.744 247.396C541.744 245.256 542.594 243.203 544.106 241.689C545.619 240.175 547.671 239.323 549.811 239.32H622.599C624.741 239.32 626.795 240.171 628.31 241.686C629.824 243.2 630.675 245.254 630.675 247.396C630.675 249.538 629.824 251.592 628.31 253.106C626.795 254.621 624.741 255.472 622.599 255.472Z" fill="#E6E6E6"/>
<path d="M574.707 212.905C574.093 212.903 573.49 212.746 572.954 212.448C572.38 212.139 571.902 211.679 571.57 211.118C571.238 210.557 571.065 209.916 571.07 209.264V179.25C571.07 178.6 571.245 177.961 571.577 177.401C571.908 176.84 572.384 176.38 572.954 176.066C573.524 175.753 574.168 175.598 574.819 175.619C575.469 175.64 576.102 175.835 576.652 176.184L605.123 191.191C605.639 191.519 606.064 191.972 606.359 192.508C606.653 193.044 606.808 193.646 606.808 194.257C606.808 194.869 606.653 195.471 606.359 196.007C606.064 196.543 605.639 196.996 605.123 197.324L576.652 212.331C576.071 212.704 575.397 212.903 574.707 212.905Z" fill="#D7DF23"/>
<path d="M716.716 458H484.284C479.437 457.994 474.789 456.07 471.362 452.647C467.934 449.225 466.006 444.586 466 439.746V324.254C466.005 319.414 467.934 314.774 471.361 311.352C474.789 307.93 479.437 306.005 484.284 306H716.716C721.563 306.005 726.211 307.93 729.639 311.352C733.066 314.774 734.995 319.414 735 324.254V439.746C734.994 444.586 733.066 449.225 729.639 452.647C726.211 456.07 721.563 457.994 716.716 458Z" fill="black"/>
<path d="M716.587 460H484.413C479.001 459.994 473.812 457.833 469.986 453.991C466.159 450.149 464.006 444.94 464 439.507V323.493C464.006 318.06 466.159 312.851 469.986 309.009C473.812 305.167 479.001 303.006 484.413 303H716.587C721.999 303.006 727.188 305.167 731.014 309.009C734.841 312.851 736.994 318.06 737 323.493V439.507C736.994 444.94 734.841 450.149 731.014 453.991C727.188 457.833 721.999 459.994 716.587 460ZM484.413 307.314C480.14 307.319 476.044 309.025 473.023 312.058C470.001 315.091 468.302 319.204 468.297 323.493V439.507C468.302 443.796 470.001 447.909 473.023 450.942C476.044 453.975 480.14 455.681 484.413 455.686H716.587C720.86 455.681 724.956 453.975 727.977 450.942C730.999 447.909 732.698 443.796 732.703 439.507V323.493C732.698 319.204 730.999 315.091 727.977 312.058C724.956 309.025 720.86 307.319 716.587 307.314H484.413Z" fill="#CCCCCC"/>
<path d="M678.656 514H522.325C517.728 513.995 513.322 512.202 510.073 509.014C506.825 505.827 505 501.505 505 497C505 492.495 506.825 488.173 510.073 484.986C513.322 481.798 517.728 480.005 522.325 480H678.656C683.256 480 687.667 481.791 690.92 484.979C694.173 488.167 696 492.491 696 497C696 501.509 694.173 505.833 690.92 509.021C687.667 512.209 683.256 514 678.656 514Z" fill="#E6E6E6"/>
<path d="M574.835 426C573.514 425.996 572.214 425.659 571.059 425.021C569.823 424.357 568.791 423.37 568.076 422.166C567.361 420.962 566.989 419.587 567 418.189V353.795C567 352.399 567.377 351.028 568.091 349.826C568.805 348.624 569.83 347.636 571.058 346.963C572.287 346.291 573.675 345.96 575.077 346.004C576.478 346.048 577.842 346.467 579.025 347.215L640.37 379.412C641.482 380.116 642.398 381.088 643.033 382.238C643.667 383.388 644 384.68 644 385.992C644 387.304 643.667 388.595 643.033 389.746C642.398 390.896 641.482 391.868 640.37 392.572L579.025 424.769C577.775 425.569 576.321 425.996 574.835 426Z" fill="#D7DF23"/>
<path d="M204.442 274.449L149.138 274.82C149.138 274.82 117.64 264.666 103.356 266.788L97.8945 288.242L137.129 301.242L205.413 291.335C206.945 292.109 208.655 292.465 210.369 292.369C212.083 292.272 213.742 291.726 215.178 290.784C216.613 289.843 217.776 288.54 218.548 287.007C219.321 285.473 219.675 283.763 219.577 282.049C219.478 280.335 218.93 278.677 217.987 277.243C217.044 275.808 215.74 274.647 214.205 273.876C212.671 273.105 210.961 272.753 209.247 272.853C207.533 272.954 205.875 273.504 204.442 274.449Z" fill="white"/>
<path d="M136.66 303.321L71.0465 284.45L65.073 262.192C63.5168 259.223 62.8223 255.877 63.0678 252.533C63.3133 249.19 64.4891 245.982 66.4624 243.271C72.0638 235.685 76.4423 243.22 84.3918 248.293C98.3275 249.279 133.111 261.181 147.231 274.962L146.119 283.433L136.66 303.321Z" fill="#3F3D56"/>
<path d="M193.749 285.151C192.281 285.146 190.838 284.771 189.555 284.058C188.182 283.318 187.037 282.217 186.242 280.874C185.448 279.532 185.035 277.998 185.047 276.438V204.616C185.047 203.059 185.465 201.53 186.258 200.19C187.051 198.849 188.189 197.746 189.554 196.996C190.919 196.246 192.46 195.877 194.017 195.926C195.574 195.976 197.088 196.442 198.403 197.277L266.534 233.189C267.769 233.973 268.786 235.058 269.491 236.34C270.196 237.623 270.566 239.063 270.566 240.527C270.566 241.991 270.196 243.431 269.491 244.714C268.786 245.997 267.769 247.081 266.534 247.866L198.403 283.777C197.014 284.669 195.399 285.146 193.749 285.151Z" fill="#D7DF23"/>
<path d="M147.979 631.087L161.938 631.086L168.578 577.246L147.977 577.247L147.979 631.087Z" fill="white"/>
<path d="M144.418 626.531L148.347 626.531L163.686 620.293L171.907 626.53H171.908C176.554 626.53 181.01 628.376 184.295 631.661C187.581 634.946 189.426 639.402 189.427 644.048V644.617L144.419 644.619L144.418 626.531Z" fill="#2F2E41"/>
<path d="M48.5781 617.949L61.8001 622.425L85.3581 573.56L65.8451 566.953L48.5781 617.949Z" fill="white"/>
<path d="M46.668 612.488L50.3893 613.748L66.9189 612.76L72.7053 621.304L72.7064 621.305C77.1068 622.795 80.7351 625.972 82.7931 630.138C84.8511 634.303 85.1702 639.115 83.6804 643.516L83.4978 644.055L40.8672 629.621L46.668 612.488Z" fill="#2F2E41"/>
<path d="M64.7581 399.181C64.7581 399.181 63.1282 418.74 67.2029 437.484C71.2777 456.228 80.0469 518.448 80.0469 518.448C62.2852 547.642 51.9913 576.37 50.0469 605.448L75.0469 607.448L110.843 522.514L114.47 437.484L140.549 495.346L139.208 499.816C138.891 500.873 138.929 502.005 139.318 503.038C139.707 504.071 140.425 504.947 141.36 505.532C141.36 505.532 138.919 521.424 140.549 521.424C142.179 521.424 146.253 523.869 146.253 523.869C136.094 555.497 134.73 585.786 144.047 614.448L166.047 613.448L180.481 488.826L169.887 421.185L169.072 408.146L165.405 408.296L163.537 402.849L160.107 393.477L64.7581 399.181Z" fill="#3F3D56"/>
<path d="M63.3492 403.289L63.204 403.085C55.4468 392.225 67.1136 366.128 68.8732 362.345L61.4619 359.94L54.9812 305.1L50.2416 286.155C48.4557 278.993 48.6079 271.485 50.6826 264.401C52.7572 257.318 56.6795 250.914 62.0469 245.847L73.0025 235.517L86.3172 215.816H107.788L115.15 229.722C122.288 231.372 128.621 235.473 133.045 241.312C137.47 247.151 139.706 254.356 139.364 261.674L137.696 298.145L144.228 343.555L144.232 351.773L155.572 370.366L158.042 381.893C159.064 383.242 165.812 392.239 165.812 394.698C165.812 395.068 165.539 395.425 164.954 395.821C160.356 398.934 134.94 405.283 123.691 400.781C111.708 395.99 64.0767 403.178 63.5968 403.251L63.3492 403.289Z" fill="#D7DF23"/>
<path d="M282.67 644.256C282.671 644.412 282.64 644.567 282.581 644.711C282.522 644.855 282.435 644.986 282.325 645.096C282.215 645.207 282.085 645.295 281.941 645.355C281.797 645.415 281.643 645.446 281.487 645.446H1.19C0.874395 645.446 0.57171 645.321 0.348541 645.098C0.125373 644.875 0 644.572 0 644.256C0 643.941 0.125373 643.638 0.348541 643.415C0.57171 643.192 0.874395 643.066 1.19 643.066H281.48C281.795 643.065 282.097 643.19 282.32 643.411C282.543 643.633 282.669 643.935 282.67 644.249V644.256Z" fill="#CCCCCC"/>
<path d="M99.8266 209.458C115.531 209.458 128.263 196.727 128.263 181.022C128.263 165.317 115.531 152.586 99.8266 152.586C84.1219 152.586 71.3906 165.317 71.3906 181.022C71.3906 196.727 84.1219 209.458 99.8266 209.458Z" fill="white"/>
<path d="M205.386 202.851L161.514 236.524C161.514 236.524 130.271 247.437 120.162 257.749L128.756 278.153L167.885 264.839L216.352 215.729C218.041 215.422 219.619 214.674 220.928 213.563C222.236 212.451 223.229 211.015 223.806 209.397C224.382 207.78 224.523 206.04 224.213 204.351C223.904 202.662 223.155 201.085 222.042 199.777C220.928 198.47 219.491 197.479 217.873 196.904C216.255 196.329 214.514 196.191 212.826 196.502C211.137 196.814 209.561 197.565 208.255 198.679C206.949 199.794 205.96 201.233 205.386 202.851Z" fill="white"/>
<path d="M168.765 266.778L107.818 284.624L86.8633 277.188C83.8304 275.759 81.2574 273.51 79.4353 270.696C77.6131 267.882 76.6144 264.614 76.5519 261.262C76.4398 251.833 84.4787 255.199 93.879 254.446C105.585 246.821 140.503 235.319 160.079 237.785L164.304 245.211L168.765 266.778Z" fill="#D7DF23"/>
<path d="M119.325 148.191C117.287 148.13 117.987 144.289 116.345 143.063C116.337 143.1 116.328 143.137 116.32 143.174C116.104 144.004 115.628 144.743 114.962 145.282C114.295 145.821 113.473 146.131 112.616 146.168C111.76 146.205 110.914 145.965 110.204 145.485C109.494 145.005 108.957 144.309 108.672 143.501C108.399 142.566 107.906 141.709 107.234 141.004C106.562 140.299 105.731 139.766 104.81 139.449C104.707 143.01 102.014 146.1 98.801 147.638C95.5879 149.176 91.9244 149.432 88.3627 149.484C84.8009 149.537 81.1879 149.418 77.7341 150.289C74.2802 151.161 70.9207 153.21 69.4451 156.452C67.9694 159.694 69.0223 164.158 72.249 165.667C69.7493 165.68 67.6283 167.743 66.7639 170.088C66.0554 172.494 65.8706 175.024 66.2219 177.507C66.9244 186.703 68.6372 196.602 75.3328 202.944C80.4358 207.777 87.74 209.724 94.7684 209.695C101.797 209.667 100.561 209.021 107.357 207.227C107.357 207.227 113.817 188.706 112.19 186.884C110.564 185.062 109.212 182.73 109.507 180.306C109.801 177.881 112.407 175.709 114.669 176.632C114.288 175.659 114.002 175.474 113.822 175.524C113.937 175.247 114.036 174.965 114.121 174.679C114.547 173.218 115.313 171.879 116.357 170.772C117.401 169.664 118.693 168.821 120.127 168.31C121.575 167.84 123.132 167.825 124.589 168.266C126.046 168.707 127.333 169.583 128.277 170.777C135.719 163.798 131.102 148.54 119.325 148.191Z" fill="#2F2E41"/>
<path d="M600.667 34.4843H146.374C145.902 34.4742 145.452 34.2794 145.121 33.9417C144.791 33.604 144.605 33.1503 144.605 32.6777C144.605 32.2051 144.791 31.7513 145.121 31.4136C145.452 31.0759 145.902 30.8812 146.374 30.8711H600.667C601.139 30.8812 601.589 31.0759 601.92 31.4136C602.25 31.7513 602.435 32.2051 602.435 32.6777C602.435 33.1503 602.25 33.604 601.92 33.9417C601.589 34.2794 601.139 34.4742 600.667 34.4843Z" fill="#CACACA"/>
<path d="M177.298 21.6469C183.146 21.6469 187.886 16.8011 187.886 10.8235C187.886 4.84582 183.146 0 177.298 0C171.451 0 166.711 4.84582 166.711 10.8235C166.711 16.8011 171.451 21.6469 177.298 21.6469Z" fill="#FF6584"/>
<path d="M213.875 21.6469C219.722 21.6469 224.462 16.8011 224.462 10.8235C224.462 4.84582 219.722 0 213.875 0C208.027 0 203.287 4.84582 203.287 10.8235C203.287 16.8011 208.027 21.6469 213.875 21.6469Z" fill="#BE00C2"/>
<path d="M250.449 21.6469C256.296 21.6469 261.036 16.8011 261.036 10.8235C261.036 4.84582 256.296 0 250.449 0C244.602 0 239.861 4.84582 239.861 10.8235C239.861 16.8011 244.602 21.6469 250.449 21.6469Z" fill="#3F3D56"/>
<path d="M578.646 2.68359H552.665C552.15 2.69378 551.66 2.90553 551.299 3.27335C550.938 3.64116 550.736 4.13572 550.736 4.65082C550.736 5.16592 550.938 5.66049 551.299 6.02831C551.66 6.39612 552.15 6.60785 552.665 6.61804H578.646C579.161 6.60785 579.652 6.39612 580.012 6.02831C580.373 5.66049 580.575 5.16592 580.575 4.65082C580.575 4.13572 580.373 3.64116 580.012 3.27335C579.652 2.90553 579.161 2.69378 578.646 2.68359Z" fill="#3F3D56"/>
<path d="M578.646 10.0664H552.665C552.15 10.0766 551.66 10.2883 551.299 10.6561C550.938 11.024 550.736 11.5185 550.736 12.0336C550.736 12.5487 550.938 13.0433 551.299 13.4111C551.66 13.7789 552.15 13.9907 552.665 14.0009H578.646C579.161 13.9907 579.652 13.7789 580.012 13.4111C580.373 13.0433 580.575 12.5487 580.575 12.0336C580.575 11.5185 580.373 11.024 580.012 10.6561C579.652 10.2883 579.161 10.0766 578.646 10.0664Z" fill="#3F3D56"/>
<path d="M578.646 17.4414H552.665C552.15 17.4516 551.66 17.6633 551.299 18.0311C550.938 18.399 550.736 18.8935 550.736 19.4086C550.736 19.9237 550.938 20.4183 551.299 20.7861C551.66 21.1539 552.15 21.3657 552.665 21.3759H578.646C579.161 21.3657 579.652 21.1539 580.012 20.7861C580.373 20.4183 580.575 19.9237 580.575 19.4086C580.575 18.8935 580.373 18.399 580.012 18.0311C579.652 17.6633 579.161 17.4516 578.646 17.4414Z" fill="#3F3D56"/>
<path d="M359.076 136.023V163.183C359.076 164.533 356.716 165.663 353.536 165.973C353.509 165.972 353.481 165.975 353.456 165.983C352.926 166.023 352.366 166.053 351.796 166.053C350.042 166.086 348.298 165.801 346.646 165.213C346.496 165.153 346.346 165.083 346.196 165.023C346.056 164.943 345.906 164.873 345.766 164.793C344.976 164.323 344.516 163.773 344.516 163.183V136.023H359.076Z" fill="#CCCCCC"/>
<path d="M735.5 478C750.135 478 762 466.136 762 451.5C762 436.864 750.135 425 735.5 425C720.864 425 709 436.864 709 451.5C709 466.136 720.864 478 735.5 478Z" fill="#3F3D56"/>
<path d="M733.798 462C733.743 462 733.687 461.998 733.631 461.995C733.138 461.971 732.656 461.838 732.219 461.606C731.781 461.373 731.397 461.047 731.094 460.649L726.722 454.903C726.445 454.541 726.242 454.126 726.123 453.683C726.003 453.24 725.971 452.777 726.026 452.321C726.082 451.865 726.225 451.425 726.447 451.026C726.67 450.626 726.967 450.275 727.322 449.993L727.479 449.868C727.834 449.586 728.24 449.378 728.673 449.256C729.107 449.134 729.56 449.1 730.006 449.157C730.452 449.214 730.884 449.361 731.274 449.588C731.665 449.815 732.009 450.119 732.285 450.482C732.505 450.772 732.785 451.009 733.104 451.179C733.423 451.348 733.774 451.445 734.133 451.463C734.492 451.481 734.851 451.419 735.184 451.282C735.518 451.145 735.819 450.937 736.066 450.67L744.945 441.091C745.57 440.418 746.43 440.026 747.338 440.001C748.245 439.976 749.125 440.32 749.785 440.957L749.931 441.099C750.257 441.414 750.52 441.793 750.703 442.213C750.886 442.632 750.987 443.085 750.999 443.544C751.011 444.003 750.934 444.461 750.774 444.89C750.613 445.319 750.371 445.711 750.061 446.045L736.283 460.907C735.963 461.252 735.578 461.527 735.151 461.715C734.724 461.903 734.263 462 733.798 462Z" fill="white"/>
<path d="M648.099 240.159C654.932 240.159 660.471 234.619 660.471 227.786C660.471 220.953 654.932 215.414 648.099 215.414C641.266 215.414 635.727 220.953 635.727 227.786C635.727 234.619 641.266 240.159 648.099 240.159Z" fill="#3F3D56"/>
<path d="M647.174 232.73C647.147 232.73 647.121 232.729 647.095 232.728C646.862 232.717 646.634 232.655 646.427 232.547C646.22 232.44 646.038 232.289 645.895 232.105L643.828 229.446C643.697 229.279 643.601 229.087 643.544 228.882C643.488 228.677 643.472 228.463 643.499 228.252C643.525 228.041 643.593 227.837 643.698 227.652C643.803 227.467 643.943 227.305 644.111 227.175L644.186 227.117C644.353 226.986 644.545 226.89 644.75 226.833C644.955 226.777 645.17 226.761 645.381 226.788C645.592 226.814 645.795 226.882 645.98 226.987C646.165 227.092 646.327 227.233 646.458 227.401C646.562 227.535 646.694 227.645 646.845 227.723C646.996 227.801 647.162 227.846 647.332 227.854C647.502 227.863 647.671 227.834 647.829 227.771C647.987 227.708 648.129 227.611 648.246 227.488L652.444 223.056C652.74 222.744 653.146 222.563 653.575 222.551C654.005 222.54 654.421 222.699 654.733 222.993L654.802 223.059C654.956 223.205 655.08 223.38 655.167 223.575C655.253 223.769 655.301 223.978 655.307 224.191C655.312 224.403 655.276 224.615 655.2 224.813C655.124 225.012 655.01 225.193 654.863 225.348L648.348 232.224C648.197 232.384 648.015 232.511 647.813 232.598C647.611 232.685 647.394 232.73 647.174 232.73Z" fill="white"/>
</g>
<defs>
<clipPath id="clip0_745_638">
<rect width="774" height="645" fill="white"/>
</clipPath>
</defs>
</svg>
