<svg width="759" height="609" viewBox="0 0 759 609" fill="none" xmlns="http://www.w3.org/2000/svg">
<g filter="url(#filter0_d_745_476)">
<rect x="2.5" y="2.5" width="704" height="553.59" rx="47.5" stroke="white" stroke-width="5" shape-rendering="crispEdges"/>
<g clip-path="url(#clip0_745_476)">
<path d="M573.246 390.65V444.25H135.756V114.34H573.246V390.65Z" fill="black"/>
<path d="M135.756 443.75V444.75H573.246V443.75H135.756ZM135.756 113.84V114.84H573.246V113.84H135.756Z" fill="#F2F2F2"/>
<path d="M516.581 408.28C516.706 408.24 516.818 408.19 516.943 408.15C517.444 407.97 517.973 407.81 518.516 407.67H518.53C518.528 407.619 518.532 407.569 518.544 407.52C517.89 407.77 517.235 408.03 516.581 408.28ZM510.247 412.84C510.275 412.81 510.289 412.78 510.317 412.75C510.456 412.56 510.623 412.36 510.79 412.17C512.116 410.69 513.744 409.513 515.565 408.72C515.696 408.652 515.831 408.591 515.969 408.54C516.132 408.461 516.299 408.391 516.47 408.33C516.512 408.31 516.539 408.3 516.581 408.28C512.503 409.85 508.382 411.38 504.206 412.84H510.247ZM50 113.34L53.105 165L659 115.34V113.34H50ZM659 390.65V445.25H50V443.25L86.105 390L321.655 443.25C370.454 443.366 419.059 437.096 466.231 424.6C467.178 424.36 468.111 424.1 469.043 423.84C473.136 422.72 477.159 421.56 481.182 420.34H481.224C489.019 418.01 496.68 415.51 504.206 412.84C508.34 411.39 512.428 409.886 516.47 408.33C516.505 408.309 516.542 408.292 516.581 408.28C517.235 408.03 517.89 407.77 518.544 407.52L521.008 406.56H521.05C529.847 403.08 538.394 399.38 546.774 395.47C547.387 395.19 547.985 394.91 548.584 394.62C553.442 392.33 558.226 389.966 562.936 387.53C568.838 384.49 574.615 381.343 580.267 378.09C591.848 371.43 602.896 364.343 613.411 356.83C624.235 349.128 634.626 340.836 644.537 331.99C648.546 328.41 652.439 324.76 656.216 321.04C657.149 320.12 658.081 319.2 659 318.27V390.65Z" fill="#3F3D56"/>
<path d="M220.346 387.281H135.756V391.851H220.346C220.952 391.851 221.533 391.611 221.962 391.182C222.39 390.753 222.631 390.172 222.631 389.566C222.631 388.96 222.39 388.379 221.962 387.951C221.533 387.522 220.952 387.281 220.346 387.281Z" fill="#F2F2F2"/>
<path d="M220.346 371.281H135.756V375.851H220.346C220.952 375.851 221.533 375.611 221.962 375.182C222.39 374.753 222.631 374.172 222.631 373.566C222.631 372.96 222.39 372.379 221.962 371.951C221.533 371.522 220.952 371.281 220.346 371.281Z" fill="#F2F2F2"/>
<path d="M221.026 355.381C220.918 355.35 220.807 355.327 220.696 355.311C220.58 355.291 220.463 355.281 220.346 355.281H135.756V359.851H220.346C220.884 359.848 221.404 359.657 221.816 359.311C222.128 359.047 222.364 358.703 222.499 358.317C222.633 357.93 222.662 357.514 222.581 357.113C222.5 356.712 222.313 356.339 222.04 356.035C221.766 355.73 221.416 355.505 221.026 355.381Z" fill="#F2F2F2"/>
<path d="M251.265 349.15L243.815 316.09L241.385 305.32C241.184 304.431 240.637 303.659 239.867 303.173C239.096 302.688 238.164 302.528 237.275 302.73L233.605 303.56L204.175 310.2C203.736 310.299 203.32 310.483 202.952 310.743C202.584 311.003 202.271 311.332 202.031 311.713C201.79 312.094 201.627 312.518 201.55 312.962C201.474 313.406 201.486 313.86 201.585 314.3C200.005 329.01 203.125 342.58 209.895 355.28C210.395 356.23 210.925 357.18 211.475 358.13C211.621 358.787 211.958 359.385 212.445 359.85C212.855 360.241 213.355 360.525 213.901 360.677C214.447 360.829 215.022 360.844 215.575 360.72L219.435 359.85L221.815 359.31L248.675 353.25C249.562 353.049 250.333 352.505 250.819 351.736C251.305 350.967 251.465 350.037 251.265 349.15Z" fill="#E6E6E6"/>
<path d="M248.186 347.309L241.086 315.859L239.386 308.309C239.199 307.478 238.689 306.755 237.969 306.299C237.249 305.843 236.377 305.692 235.546 305.879L233.286 306.389L207.096 312.299C206.265 312.486 205.542 312.996 205.086 313.716C204.63 314.436 204.479 315.307 204.666 316.139C204.896 327.589 206.096 337.979 211.026 344.319C211.587 346.785 212.791 349.058 214.516 350.908C216.241 352.757 218.425 354.117 220.846 354.849C220.906 354.869 220.956 354.889 221.016 354.909C221.056 354.919 221.106 354.939 221.146 354.949C223.425 355.59 225.827 355.652 228.136 355.129L245.756 351.149C246.587 350.961 247.31 350.452 247.766 349.732C248.221 349.012 248.372 348.14 248.186 347.309Z" fill="white"/>
<path d="M222.093 322.785C222.672 322.116 223.453 321.653 224.317 321.465C225.182 321.276 226.084 321.372 226.889 321.739C227.694 322.167 228.339 322.844 228.726 323.67C229.113 324.495 229.222 325.424 229.036 326.316C228.724 328.379 227.646 330.257 227.548 332.369C227.46 333.295 227.622 334.227 228.016 335.068C228.41 335.91 229.023 336.631 229.79 337.156C230.965 337.869 232.174 336.103 230.993 335.385C229.051 334.205 229.704 331.612 230.267 329.844C230.971 327.635 231.704 325.384 230.833 323.108C230.448 322.155 229.83 321.314 229.036 320.662C228.242 320.01 227.297 319.567 226.287 319.375C225.278 319.182 224.236 319.245 223.257 319.559C222.279 319.873 221.395 320.428 220.686 321.172C219.759 322.171 221.154 323.797 222.093 322.785Z" fill="#D7DF23"/>
<path d="M231.519 343.324C232.701 343.324 233.66 342.366 233.66 341.183C233.66 340.001 232.701 339.043 231.519 339.043C230.337 339.043 229.379 340.001 229.379 341.183C229.379 342.366 230.337 343.324 231.519 343.324Z" fill="#D7DF23"/>
<path d="M486.736 259.837C484.572 258.427 482.102 257.553 479.532 257.289C476.962 257.024 474.366 257.376 471.96 258.316C469.553 259.255 467.406 260.755 465.695 262.691C463.984 264.627 462.76 266.943 462.123 269.447L432.315 347.116L381.077 318.027C380.852 314.683 379.574 311.497 377.426 308.925C375.278 306.352 372.371 304.526 369.121 303.709C365.871 302.891 362.446 303.123 359.336 304.372C356.226 305.622 353.592 307.824 351.812 310.663C350.031 313.501 349.195 316.831 349.424 320.175C349.652 323.518 350.934 326.703 353.085 329.273C355.236 331.843 358.145 333.665 361.396 334.48C364.647 335.294 368.072 335.057 371.18 333.805C381.97 345.321 428.75 392.538 448.116 374.089C464.395 358.582 487.886 298.482 493.541 277.729C494.447 274.41 494.276 270.889 493.053 267.674C491.83 264.459 489.619 261.715 486.736 259.837Z" fill="white"/>
<path d="M430.764 377.344L440.17 419.861L508.955 426.083L515.277 389.062L430.764 377.344Z" fill="white"/>
<path d="M527.06 443.752H429.41L434.48 428.522L436.14 405.922L437.09 405.942L512.19 407.192L513.55 407.212L515.86 426.612C520.264 431.858 524.024 437.612 527.06 443.752Z" fill="#2F2E41"/>
<path d="M473.694 239.229L507.932 237.465L523.835 262.593C523.835 262.593 539.178 265.74 537.104 300.998C535.03 336.256 515.277 369.05 515.277 369.05L516.744 364.019L514.195 371.302L514.522 375.391L517.999 379.722L518.357 384.2L515.277 391.286L519.466 398.071L431.389 389.538L428.168 377.805L432.867 371.505L430.242 363.287L434.188 355.383L436.245 353.668C436.245 353.668 413.738 319.854 439.575 294.386L449.945 276.757L461.549 262.601L473.694 239.229Z" fill="#D7DF23"/>
<path d="M361.343 288.655C352.081 285.346 340.086 286.637 333.586 294.702C327.764 301.927 327.066 313.43 334.473 319.877C343.491 327.725 355.98 324.838 365.826 320.41C374.836 316.358 384.753 309.826 384.614 298.739C384.592 295.89 383.892 293.087 382.572 290.562C381.251 288.036 379.348 285.862 377.02 284.219C374.657 282.622 371.952 281.604 369.122 281.246C366.293 280.887 363.419 281.2 360.733 282.158C358.355 283.026 359.382 286.86 361.787 285.982C363.724 285.245 365.8 284.95 367.865 285.117C369.931 285.284 371.932 285.91 373.725 286.948C375.518 287.986 377.057 289.411 378.23 291.12C379.402 292.828 380.18 294.776 380.504 296.822C381.895 306.027 374.031 311.988 366.722 315.62C358.704 319.605 348.499 323.417 339.915 318.839C332.572 314.924 331.23 305.993 335.3 299.134C340.347 290.631 351.709 289.414 360.288 292.479C362.696 293.339 363.732 289.509 361.343 288.655Z" fill="#3F3D56"/>
<path d="M184.073 211.683C177.421 209.306 168.806 210.233 164.137 216.027C159.956 221.215 159.454 229.477 164.775 234.108C171.252 239.745 180.222 237.671 187.293 234.491C193.765 231.581 200.888 226.889 200.788 218.926C200.772 216.879 200.27 214.866 199.321 213.052C198.373 211.239 197.006 209.677 195.333 208.497C193.636 207.35 191.693 206.618 189.661 206.361C187.629 206.104 185.565 206.328 183.635 207.016C181.928 207.64 182.665 210.394 184.393 209.763C185.784 209.234 187.275 209.022 188.758 209.142C190.242 209.262 191.679 209.711 192.967 210.457C194.255 211.203 195.36 212.226 196.202 213.453C197.045 214.68 197.603 216.079 197.836 217.549C198.835 224.16 193.187 228.442 187.937 231.051C182.178 233.912 174.848 236.65 168.683 233.363C163.409 230.55 162.445 224.136 165.369 219.21C168.994 213.102 177.154 212.228 183.316 214.429C185.045 215.047 185.79 212.296 184.073 211.683Z" fill="#F2F2F2"/>
<path d="M264.91 230.546C274.494 227.939 280.832 220.56 279.065 214.065C277.299 207.571 268.097 204.419 258.513 207.026C248.928 209.633 242.59 217.011 244.357 223.506C246.123 230.001 255.325 233.153 264.91 230.546Z" fill="#F2F2F2"/>
<path d="M220.348 207.902L220.383 230.296C220.396 230.685 220.56 231.053 220.84 231.323C221.12 231.594 221.494 231.745 221.883 231.745C222.272 231.745 222.646 231.594 222.926 231.323C223.206 231.053 223.369 230.685 223.383 230.296L223.348 207.902C223.334 207.513 223.17 207.145 222.89 206.875C222.611 206.604 222.237 206.453 221.848 206.453C221.459 206.453 221.085 206.604 220.805 206.875C220.525 207.145 220.361 207.513 220.348 207.902Z" fill="#F2F2F2"/>
<path d="M209.884 219.945L231.711 219.999C232.1 219.985 232.468 219.821 232.739 219.541C233.009 219.262 233.16 218.888 233.16 218.499C233.16 218.11 233.009 217.736 232.739 217.456C232.468 217.176 232.1 217.012 231.711 216.999L209.884 216.945C209.496 216.959 209.127 217.123 208.857 217.403C208.587 217.682 208.436 218.056 208.436 218.445C208.436 218.834 208.587 219.208 208.857 219.488C209.127 219.768 209.496 219.932 209.884 219.945Z" fill="#F2F2F2"/>
<path d="M136.926 230.87C136.953 231.209 136.846 231.546 136.627 231.806C136.408 232.066 136.095 232.229 135.756 232.26V229.32C136.101 229.403 136.406 229.602 136.619 229.885C136.833 230.168 136.941 230.516 136.926 230.87Z" fill="#F2F2F2"/>
<path d="M142.289 232.84C143.394 232.84 144.289 231.944 144.289 230.84C144.289 229.735 143.394 228.84 142.289 228.84C141.184 228.84 140.289 229.735 140.289 230.84C140.289 231.944 141.184 232.84 142.289 232.84Z" fill="#F2F2F2"/>
<path d="M209.145 412.84C205.505 412.84 202.535 415.31 202.535 418.34C202.535 421.37 205.505 423.84 209.145 423.84H573.245V412.84H209.145Z" fill="white"/>
<path d="M486.105 412.84V423.84H209.145C205.505 423.84 202.535 421.37 202.535 418.34C202.535 415.31 205.505 412.84 209.145 412.84H486.105Z" fill="#BE00C2"/>
<path d="M476.105 429C482.181 429 487.105 424.075 487.105 418C487.105 411.925 482.181 407 476.105 407C470.03 407 465.105 411.925 465.105 418C465.105 424.075 470.03 429 476.105 429Z" fill="#BE00C2"/>
<path d="M196.556 255.691H135.756V260.271H196.556C197.163 260.271 197.746 260.03 198.175 259.601C198.605 259.171 198.846 258.589 198.846 257.981C198.846 257.374 198.605 256.792 198.175 256.362C197.746 255.933 197.163 255.691 196.556 255.691Z" fill="white"/>
<path d="M348.919 219.272C350.903 214.175 358.246 212.496 362.308 216.036C364.734 218.15 366.541 221.052 369.747 222.089C373.207 223.208 376.489 221.36 379.445 219.759C380.967 218.824 382.646 218.174 384.401 217.841C385.989 217.665 387.597 217.802 389.132 218.245C392.545 219.143 395.678 220.858 398.921 222.207C402.407 223.69 406.168 224.419 409.956 224.347C414.462 224.278 418.969 224.1 423.474 223.974C428.519 223.832 433.564 223.69 438.61 223.548C443.584 223.522 448.548 223.096 453.454 222.277C455.348 221.916 454.546 219.024 452.656 219.384C448.171 220.128 443.633 220.513 439.086 220.535C434.461 220.667 429.837 220.797 425.212 220.925C420.508 221.057 415.804 221.2 411.099 221.321C409.004 221.455 406.901 221.344 404.832 220.993C403.078 220.597 401.366 220.035 399.719 219.314C396.37 217.908 393.126 216.126 389.575 215.262C386.193 214.396 382.611 214.784 379.492 216.355C376.632 217.751 373.111 220.639 369.814 218.879C366.95 217.35 365.379 214.155 362.546 212.526C356.616 209.117 348.466 212.204 346.026 218.474C345.326 220.274 348.225 221.054 348.919 219.272Z" fill="#F2F2F2"/>
<path d="M356.611 243.256C358.739 240.105 361.135 236.483 365.018 235.411C365.858 235.142 366.748 235.061 367.623 235.173C368.498 235.286 369.337 235.59 370.082 236.064C371.459 236.99 372.51 238.342 373.828 239.35C376.608 241.477 379.681 241.147 382.671 239.676C385.198 238.432 388.047 235.976 391.044 236.96C393.137 237.647 394.769 239.328 396.795 240.185C397.732 240.651 398.766 240.886 399.812 240.872C400.859 240.858 401.886 240.595 402.81 240.104C403.139 239.896 403.375 239.568 403.467 239.19C403.559 238.812 403.501 238.413 403.305 238.077C403.108 237.741 402.789 237.494 402.414 237.389C402.04 237.284 401.639 237.329 401.296 237.513C399.566 238.525 397.547 237.33 396.068 236.373C394.529 235.182 392.762 234.32 390.876 233.84C387.528 233.274 384.682 235.214 381.872 236.716C380.639 237.536 379.184 237.958 377.704 237.923C376.068 237.703 374.88 236.335 373.752 235.263C372.551 233.991 371.06 233.03 369.406 232.461C367.51 231.954 365.505 232.036 363.656 232.696C359.252 234.204 356.518 238.044 354.021 241.742C352.937 243.347 355.535 244.85 356.611 243.256Z" fill="#F2F2F2"/>
<path d="M319.32 209.743C318.837 209.998 318.287 210.101 317.744 210.039C317.201 209.976 316.689 209.751 316.276 209.393C315.862 209.035 315.567 208.561 315.428 208.032C315.288 207.503 315.312 206.944 315.496 206.429C316.369 204.219 319.543 204.73 320.746 206.284C322.462 208.502 321.669 211.577 320.098 213.616C318.15 216.142 315.152 217.577 312.366 218.967C312.117 219.12 311.918 219.341 311.792 219.605C311.666 219.869 311.619 220.164 311.657 220.453C311.695 220.743 311.816 221.016 312.005 221.239C312.195 221.461 312.444 221.624 312.724 221.708L323.741 224.099C325.623 224.508 326.427 221.617 324.538 221.207L313.522 218.815L313.88 221.557C317.013 219.995 320.203 218.324 322.398 215.509C323.442 214.287 324.157 212.819 324.476 211.244C324.794 209.668 324.706 208.038 324.218 206.506C323.741 205.061 322.78 203.824 321.497 203.005C320.213 202.186 318.686 201.836 317.174 202.014C316.419 202.101 315.689 202.345 315.033 202.73C314.377 203.114 313.809 203.632 313.364 204.249C312.919 204.866 312.607 205.569 312.45 206.313C312.292 207.057 312.291 207.826 312.447 208.57C313.183 212.404 317.531 213.987 320.834 212.333C322.561 211.469 321.044 208.88 319.32 209.743Z" fill="#F2F2F2"/>
<path d="M329.789 225.34C330.894 225.34 331.789 224.444 331.789 223.34C331.789 222.235 330.894 221.34 329.789 221.34C328.684 221.34 327.789 222.235 327.789 223.34C327.789 224.444 328.684 225.34 329.789 225.34Z" fill="#F2F2F2"/>
<path d="M378.554 255.859H312.404C311.798 255.859 311.217 256.1 310.788 256.529C310.36 256.957 310.119 257.538 310.119 258.144C310.119 258.75 310.36 259.332 310.788 259.76C311.217 260.189 311.798 260.429 312.404 260.429H378.554C379.16 260.429 379.741 260.189 380.17 259.76C380.598 259.332 380.839 258.75 380.839 258.144C380.839 257.538 380.598 256.957 380.17 256.529C379.741 256.1 379.16 255.859 378.554 255.859Z" fill="#F2F2F2"/>
<path d="M330.357 303.105H248.924C248.659 303.105 248.404 303 248.217 302.813C248.029 302.625 247.924 302.371 247.924 302.105C247.924 301.84 248.029 301.586 248.217 301.398C248.404 301.211 248.659 301.105 248.924 301.105H330.357C330.622 301.105 330.876 301.211 331.064 301.398C331.252 301.586 331.357 301.84 331.357 302.105C331.357 302.371 331.252 302.625 331.064 302.813C330.876 303 330.622 303.105 330.357 303.105Z" fill="#3F3D56"/>
<path d="M243.273 316.105C248.796 316.105 253.273 311.628 253.273 306.105C253.273 300.583 248.796 296.105 243.273 296.105C237.751 296.105 233.273 300.583 233.273 306.105C233.273 311.628 237.751 316.105 243.273 316.105Z" fill="#D7DF23"/>
<path d="M179.406 160.66C177.606 163.23 174.676 164.72 171.856 166.12C162.596 170.72 153.333 175.317 144.066 179.91L144.566 180.51L144.916 180.94L145.406 181.52C142.856 184.94 140.306 188.357 137.756 191.77C137.086 192.66 136.426 193.56 135.756 194.45V138.71C136.426 138.44 137.086 138.17 137.756 137.91C144.126 135.35 150.493 132.797 156.856 130.25C160.166 128.93 163.686 127.58 167.186 128.19C174.236 129.41 177.516 137.44 179.556 144.3C181.166 149.72 182.646 156.02 179.406 160.66Z" fill="white"/>
<path d="M146.016 181.968C143.266 185.658 140.513 189.352 137.756 193.048C137.086 193.938 136.426 194.838 135.756 195.728V193.178C136.426 192.288 137.096 191.388 137.756 190.498C140.106 187.358 142.449 184.218 144.786 181.078C144.824 181.027 144.867 180.98 144.916 180.938C145.536 180.418 146.566 181.228 146.016 181.968Z" fill="#CCCCCC"/>
<path d="M180.616 160.139C179.076 162.939 176.336 164.669 173.576 166.099C170.426 167.729 167.216 169.269 164.036 170.849C157.536 174.069 151.046 177.289 144.566 180.509C144.506 180.539 144.436 180.569 144.376 180.599C143.496 181.039 142.596 178.199 143.566 176.829C147.416 171.389 160.486 170.919 166.586 167.889C168.126 167.119 169.666 166.359 171.216 165.589C172.635 164.927 174.014 164.183 175.346 163.359C177.753 161.951 179.51 159.652 180.236 156.959C180.735 154.434 180.677 151.83 180.066 149.329C179.506 146.619 178.754 143.953 177.816 141.349C176.056 136.369 173.206 130.299 167.526 129.019C164.846 128.419 162.106 129.109 159.586 130.009C156.646 131.069 153.756 132.309 150.856 133.469C146.486 135.219 142.119 136.969 137.756 138.719C137.086 138.989 136.426 139.249 135.756 139.519V137.889C136.426 137.619 137.086 137.349 137.756 137.079C143.316 134.859 148.879 132.632 154.446 130.399C157.185 129.142 160.047 128.17 162.986 127.499C165.791 126.951 168.699 127.445 171.166 128.889C173.63 130.532 175.614 132.799 176.916 135.459C178.342 138.238 179.478 141.157 180.306 144.169C181.806 149.229 183.326 155.209 180.616 160.139Z" fill="#CCCCCC"/>
<path d="M144.347 147.621C144.339 147.639 144.332 147.658 144.324 147.677C142.908 147.087 141.316 147.077 139.892 147.649C138.468 148.22 137.325 149.328 136.709 150.733C136.091 152.144 136.054 153.741 136.604 155.179C137.155 156.617 138.25 157.78 139.652 158.416L139.652 158.418L139.724 158.45L150.383 163.12L155.085 152.388L155.054 152.375C155.062 152.357 155.071 152.34 155.079 152.322C155.702 150.899 155.735 149.287 155.169 147.84C154.604 146.392 153.487 145.229 152.064 144.606C151.359 144.297 150.601 144.13 149.831 144.114C149.062 144.099 148.298 144.235 147.581 144.515C146.865 144.795 146.21 145.213 145.655 145.746C145.1 146.279 144.656 146.916 144.347 147.621Z" fill="#D7DF23"/>
<path d="M573.245 351.81C572.605 350.45 571.945 349.07 571.245 347.68C568.735 342.61 565.885 337.31 562.855 331.99C554.525 317.29 544.855 302.39 537.245 291.67V291.66C534.175 287.33 531.435 283.7 529.255 281.02C527.902 279.355 526.234 277.974 524.345 276.957C522.456 275.94 520.384 275.307 518.249 275.095C516.115 274.883 513.959 275.096 511.907 275.722C509.855 276.347 507.947 277.373 506.293 278.74C504.64 280.107 503.274 281.788 502.273 283.685C501.273 285.583 500.658 287.66 500.465 289.797C500.272 291.933 500.504 294.087 501.147 296.134C501.791 298.18 502.833 300.079 504.215 301.72L528.885 339.19L540.495 356.83L549.955 371.21L517.495 386.18L512.185 388.63L496.535 395.85L496.445 395.89C496.415 395.87 496.375 395.85 496.345 395.83C495.573 395.36 494.764 394.955 493.925 394.62C491.855 393.804 489.637 393.432 487.415 393.53C485.77 393.599 484.147 393.926 482.605 394.5C480.02 395.455 477.728 397.066 475.955 399.175C474.183 401.285 472.99 403.82 472.495 406.53C472.425 406.85 472.385 407.18 472.345 407.52C472.336 407.57 472.333 407.62 472.335 407.67H472.325C471.985 410.881 472.63 414.119 474.173 416.955C475.716 419.791 478.084 422.091 480.965 423.55C481.165 423.65 481.365 423.75 481.575 423.84C482.574 424.297 483.62 424.642 484.695 424.87C486.037 425.164 487.412 425.282 488.785 425.22C490.061 425.164 491.327 424.956 492.555 424.6H492.565C493.268 424.393 493.956 424.139 494.625 423.84C496.818 422.843 498.757 421.361 500.295 419.506C501.834 417.651 502.931 415.471 503.505 413.13C504.145 413.05 504.865 412.95 505.655 412.84C507.275 412.61 509.195 412.32 511.365 411.97C512.225 411.83 513.125 411.68 514.055 411.52C530.315 408.72 556.885 402.76 571.245 392.22C571.945 391.7 572.615 391.18 573.245 390.65V351.81Z" fill="white"/>
<path d="M545.496 50H163.506C156.149 50.0088 149.096 52.9353 143.893 58.1375C138.691 63.3397 135.765 70.3929 135.756 77.75V480.85C135.765 488.206 138.692 495.258 143.894 500.458C149.097 505.659 156.15 508.583 163.506 508.59H545.496C552.852 508.583 559.905 505.659 565.107 500.458C570.31 495.258 573.237 488.206 573.246 480.85V77.75C573.237 70.3929 570.311 63.3397 565.108 58.1375C559.906 52.9353 552.853 50.0088 545.496 50ZM571.246 480.85C571.237 487.676 568.52 494.219 563.693 499.044C558.866 503.87 552.321 506.583 545.496 506.59H163.506C156.68 506.583 150.136 503.87 145.309 499.044C140.481 494.219 137.765 487.676 137.756 480.85V77.75C137.763 70.9229 140.478 64.3775 145.306 59.55C150.133 54.7225 156.679 52.0072 163.506 52H545.496C552.323 52.0072 558.868 54.7225 563.696 59.55C568.523 64.3775 571.239 70.9229 571.246 77.75V480.85ZM135.756 114.84V443.25H137.756V114.84H135.756Z" fill="#3F3D56"/>
<path d="M172.105 433C180.942 433 188.105 425.837 188.105 417C188.105 408.163 180.942 401 172.105 401C163.269 401 156.105 408.163 156.105 417C156.105 425.837 163.269 433 172.105 433Z" fill="#D7DF23"/>
<path d="M169.677 425.623C169.538 425.622 169.4 425.594 169.271 425.54C169.079 425.463 168.915 425.33 168.8 425.158C168.685 424.986 168.625 424.783 168.627 424.576V409.848C168.627 409.642 168.688 409.44 168.803 409.268C168.918 409.097 169.08 408.963 169.271 408.884C169.462 408.805 169.672 408.784 169.874 408.825C170.076 408.865 170.262 408.964 170.408 409.11L177.772 416.475C177.968 416.67 178.078 416.936 178.078 417.212C178.078 417.489 177.968 417.754 177.772 417.95L170.408 425.314C170.313 425.411 170.199 425.489 170.074 425.542C169.948 425.595 169.813 425.622 169.677 425.623Z" fill="white"/>
<path d="M498.203 179.047C508.144 179.047 516.203 170.988 516.203 161.047C516.203 151.106 508.144 143.047 498.203 143.047C488.262 143.047 480.203 151.106 480.203 161.047C480.203 170.988 488.262 179.047 498.203 179.047Z" fill="#2F2E41"/>
<path d="M498.35 187.123C489.756 182.127 487.399 170.721 492.689 162.304C493.947 160.303 495.586 158.569 497.514 157.201C499.442 155.834 501.621 154.859 503.926 154.334C506.23 153.808 508.616 153.741 510.946 154.138C513.276 154.534 515.506 155.385 517.507 156.643C525.924 161.933 519.604 172.181 523.168 181.461C528.21 194.59 509.941 193.86 498.35 187.123Z" fill="#2F2E41"/>
<path d="M456.556 181.551C455.931 183.009 436.643 182.852 435.759 184.15C428.948 194.172 453.501 236.812 446.69 246.846L445.741 247.977C447.963 246.953 450.097 245.749 452.123 244.377C452.305 240.269 452.487 236.149 452.682 232.041C454.722 234.651 456.369 237.546 457.569 240.633C459.155 239.515 460.456 237.443 467.253 233.367C470.005 230.344 473.177 227.733 476.672 225.613L456.556 181.551Z" fill="#2F2E41"/>
<path d="M466.116 228.838C483.748 228.838 498.041 214.545 498.041 196.913C498.041 179.281 483.748 164.988 466.116 164.988C448.485 164.988 434.191 179.281 434.191 196.913C434.191 214.545 448.485 228.838 466.116 228.838Z" fill="white"/>
<path d="M490.365 242.905C487.765 240.733 485.955 237.763 485.217 234.456C484.627 238.471 484.781 242.56 485.672 246.519C483.943 247.818 482.267 249.053 480.681 250.171C479.48 247.084 477.834 244.189 475.794 241.579C475.599 245.687 475.417 249.807 475.235 253.915C473.209 255.287 471.075 256.491 468.853 257.515L469.801 256.384C476.612 246.35 458.987 227.879 465.798 217.858C467.709 215.05 459.078 192.862 452.501 191.861C446.652 190.977 446.899 192.667 441.231 193.902C440.643 191.447 439.729 189.082 438.515 186.87C438.838 189.335 438.763 191.837 438.294 194.279C436.279 194.357 434.694 193.073 432.549 192.745C418.861 190.652 420.252 175.847 424.061 171.155C427.882 166.476 440.568 165.072 446.418 163.551C446.951 163.031 448.159 163.356 448.692 162.862C459.902 152.603 474.894 150.904 488.386 155.451C502.773 160.3 511.744 169.685 516.348 184.153L517.668 195.731C518.853 199.454 517.363 216.776 516.348 220.548C512.403 235.213 504.001 227.892 490.365 242.905Z" fill="#2F2E41"/>
</g>
</g>
<defs>
<filter id="filter0_d_745_476" x="0" y="0" width="759" height="608.59" filterUnits="userSpaceOnUse" color-interpolation-filters="sRGB">
<feFlood flood-opacity="0" result="BackgroundImageFix"/>
<feColorMatrix in="SourceAlpha" type="matrix" values="0 0 0 0 0 0 0 0 0 0 0 0 0 0 0 0 0 0 127 0" result="hardAlpha"/>
<feOffset dx="50" dy="50"/>
<feComposite in2="hardAlpha" operator="out"/>
<feColorMatrix type="matrix" values="0 0 0 0 0.843137 0 0 0 0 0.87451 0 0 0 0 0.137255 0 0 0 1 0"/>
<feBlend mode="normal" in2="BackgroundImageFix" result="effect1_dropShadow_745_476"/>
<feBlend mode="normal" in="SourceGraphic" in2="effect1_dropShadow_745_476" result="shape"/>
</filter>
<clipPath id="clip0_745_476">
<rect width="609" height="458.59" fill="white" transform="translate(50 50)"/>
</clipPath>
</defs>
</svg>
