<svg width="753" height="569" viewBox="0 0 753 569" fill="none" xmlns="http://www.w3.org/2000/svg">
<g filter="url(#filter0_d_745_608)">
<rect x="2.5" y="2.5" width="698" height="514" rx="47.5" stroke="white" stroke-width="5" shape-rendering="crispEdges"/>
<g clip-path="url(#clip0_745_608)">
<path d="M170.144 469C236.497 469 290.288 464.92 290.288 459.887C290.288 454.854 236.497 450.773 170.144 450.773C103.79 450.773 50 454.854 50 459.887C50 464.92 103.79 469 170.144 469Z" fill="#E6E6E6"/>
<path d="M141.836 142.967C162.745 134.085 188.787 139.713 214.219 143.618C214.456 138.888 217.325 133.132 214.32 129.832C210.669 125.824 211.005 121.611 213.202 117.375C218.82 106.542 210.771 95.0146 202.644 85.4299C200.813 83.2744 198.498 81.5808 195.888 80.4867C193.277 79.3925 190.446 78.9287 187.622 79.1329L172.568 80.2068C168.905 80.4681 165.409 81.8405 162.548 84.1404C159.687 86.4403 157.598 89.5579 156.559 93.0761C152.965 97.9586 151.041 102.828 152.252 107.671C146.868 111.346 145.963 115.782 148.383 120.782C150.434 123.931 150.413 126.996 148.29 129.976C145.501 133.775 143.366 138.011 141.971 142.511L141.836 142.967Z" fill="#2F2E41"/>
<path d="M638.712 412.218H212.568C208.778 412.218 205.144 410.715 202.464 408.038C199.785 405.362 198.279 401.732 198.279 397.948C352.756 380.017 504.33 380.017 653.001 397.948C653.001 401.732 651.495 405.362 648.816 408.038C646.136 410.715 642.501 412.218 638.712 412.218Z" fill="#2F2E41"/>
<path d="M653.001 398.788L198.279 397.949L250.98 309.388L251.232 308.968V113.79C251.232 111.421 251.699 109.075 252.607 106.886C253.514 104.697 254.845 102.708 256.522 101.033C258.199 99.3581 260.191 98.0293 262.382 97.1228C264.574 96.2163 266.923 95.7498 269.295 95.75H579.463C581.836 95.7498 584.184 96.2163 586.376 97.1228C588.568 98.0293 590.559 99.3581 592.236 101.033C593.914 102.708 595.244 104.697 596.152 106.886C597.059 109.075 597.526 111.421 597.526 113.79V310.311L653.001 398.788Z" fill="#3F3D56"/>
<path d="M268.882 108.34C267.322 108.342 265.826 108.961 264.723 110.063C263.62 111.164 263 112.658 262.998 114.216V292.177C263 293.735 263.62 295.229 264.723 296.33C265.826 297.432 267.322 298.052 268.882 298.053H582.396C583.956 298.052 585.451 297.432 586.554 296.33C587.657 295.229 588.277 293.735 588.279 292.177V114.216C588.277 112.658 587.657 111.165 586.554 110.063C585.451 108.961 583.956 108.342 582.396 108.34H268.882Z" fill="#D8D8D8"/>
<path d="M270.196 321.559C269.714 321.559 269.242 321.698 268.836 321.958C268.43 322.217 268.107 322.587 267.905 323.024L251.666 358.281C251.49 358.665 251.412 359.086 251.442 359.508C251.471 359.929 251.606 360.336 251.834 360.692C252.062 361.048 252.376 361.34 252.747 361.543C253.118 361.746 253.534 361.852 253.957 361.852H595.448C595.878 361.852 596.301 361.742 596.676 361.533C597.051 361.324 597.367 361.022 597.593 360.657C597.819 360.292 597.948 359.875 597.967 359.446C597.986 359.018 597.895 358.591 597.703 358.207L580.052 322.951C579.844 322.531 579.522 322.179 579.124 321.933C578.725 321.687 578.266 321.557 577.797 321.559H270.196Z" fill="#2F2E41"/>
<path d="M424.378 105.403C426.467 105.403 428.16 103.711 428.16 101.625C428.16 99.5389 426.467 97.8477 424.378 97.8477C422.289 97.8477 420.596 99.5389 420.596 101.625C420.596 103.711 422.289 105.403 424.378 105.403Z" fill="white"/>
<path d="M390.814 368.566C390.259 368.567 389.721 368.75 389.281 369.087C388.841 369.423 388.524 369.895 388.379 370.43L384.306 385.54C384.205 385.913 384.192 386.304 384.267 386.684C384.342 387.063 384.503 387.42 384.739 387.726C384.974 388.033 385.277 388.282 385.624 388.453C385.971 388.624 386.353 388.713 386.74 388.713H464.206C464.608 388.713 465.004 388.617 465.361 388.433C465.718 388.249 466.026 387.982 466.259 387.655C466.492 387.328 466.644 386.95 466.701 386.553C466.758 386.155 466.719 385.75 466.588 385.371L461.351 370.261C461.179 369.766 460.857 369.337 460.43 369.034C460.003 368.73 459.492 368.567 458.968 368.566H390.814Z" fill="#2F2E41"/>
<path d="M597.525 306.031V309.389H250.979L251.239 308.969V306.031H597.525Z" fill="#2F2E41"/>
<path d="M587.86 167.522C620.354 167.522 646.696 141.214 646.696 108.761C646.696 76.3081 620.354 50 587.86 50C555.365 50 529.023 76.3081 529.023 108.761C529.023 141.214 555.365 167.522 587.86 167.522Z" fill="#D7DF23"/>
<path d="M612.235 134.366H563.485C562.594 134.365 561.739 134.011 561.109 133.381C560.478 132.752 560.124 131.898 560.123 131.008V101.627C560.124 100.737 560.479 99.8835 561.109 99.254C561.739 98.6245 562.594 98.2705 563.485 98.2695H612.235C613.127 98.2705 613.981 98.6245 614.612 99.254C615.242 99.8835 615.596 100.737 615.597 101.627V131.008C615.596 131.898 615.242 132.752 614.612 133.381C613.981 134.011 613.127 134.365 612.235 134.366ZM563.485 101.627V131.008H612.238L612.235 101.627L563.485 101.627Z" fill="white"/>
<path d="M602.989 101.626H572.73V88.1951C572.73 78.4669 579.093 71.4062 587.86 71.4062C596.626 71.4062 602.989 78.4669 602.989 88.1951L602.989 101.626ZM576.093 98.2684H599.627V88.1951C599.627 80.2872 594.788 74.764 587.86 74.764C580.931 74.764 576.093 80.2872 576.093 88.1951L576.093 98.2684Z" fill="white"/>
<path d="M587.86 118.833C589.717 118.833 591.222 117.329 591.222 115.475C591.222 113.621 589.717 112.117 587.86 112.117C586.003 112.117 584.498 113.621 584.498 115.475C584.498 117.329 586.003 118.833 587.86 118.833Z" fill="white"/>
<path d="M546.788 237.691H304.493C303.303 237.69 302.163 237.217 301.322 236.377C300.48 235.537 300.007 234.398 300.006 233.21V173.184C300.007 171.996 300.48 170.857 301.322 170.017C302.163 169.177 303.303 168.705 304.493 168.703H546.788C547.977 168.705 549.118 169.177 549.959 170.017C550.8 170.857 551.273 171.996 551.275 173.184V233.21C551.273 234.398 550.8 235.537 549.959 236.377C549.118 237.217 547.977 237.69 546.788 237.691ZM304.493 170.496C303.779 170.496 303.095 170.78 302.59 171.284C302.085 171.788 301.801 172.471 301.801 173.184V233.21C301.801 233.923 302.085 234.606 302.59 235.111C303.095 235.615 303.779 235.898 304.493 235.899H546.788C547.501 235.898 548.186 235.615 548.69 235.111C549.195 234.606 549.479 233.923 549.48 233.21V173.184C549.479 172.471 549.195 171.788 548.69 171.284C548.186 170.78 547.501 170.496 546.788 170.496L304.493 170.496Z" fill="white"/>
<path d="M342.139 219.148C352.233 219.148 360.416 210.976 360.416 200.895C360.416 190.813 352.233 182.641 342.139 182.641C332.044 182.641 323.861 190.813 323.861 200.895C323.861 210.976 332.044 219.148 342.139 219.148Z" fill="white"/>
<path d="M384.352 188.727C383.951 188.726 383.555 188.804 383.185 188.957C382.814 189.109 382.478 189.333 382.195 189.616C381.911 189.899 381.687 190.234 381.533 190.604C381.38 190.973 381.301 191.369 381.301 191.769C381.301 192.169 381.38 192.565 381.533 192.934C381.687 193.304 381.911 193.639 382.195 193.922C382.478 194.204 382.814 194.428 383.185 194.581C383.555 194.734 383.951 194.812 384.352 194.811H527.96C528.768 194.811 529.543 194.491 530.114 193.92C530.685 193.35 531.006 192.576 531.006 191.769C531.006 190.962 530.685 190.188 530.114 189.618C529.543 189.047 528.768 188.727 527.96 188.727H384.352Z" fill="white"/>
<path d="M384.351 206.98C383.543 206.98 382.768 207.301 382.197 207.872C381.626 208.442 381.305 209.216 381.305 210.023C381.305 210.83 381.626 211.603 382.197 212.174C382.768 212.745 383.543 213.065 384.351 213.065H446.146C446.954 213.065 447.729 212.745 448.3 212.174C448.871 211.603 449.192 210.83 449.192 210.023C449.192 209.216 448.871 208.442 448.3 207.872C447.729 207.301 446.954 206.98 446.146 206.98H384.351Z" fill="white"/>
<path d="M250.382 208.209L205.592 231.991L205.025 212.173C219.645 209.735 233.553 205.492 246.414 198.583L251.098 187.025C251.609 185.765 252.438 184.66 253.506 183.817C254.573 182.975 255.841 182.424 257.186 182.219C258.531 182.014 259.906 182.161 261.177 182.647C262.447 183.133 263.569 183.941 264.433 184.991C265.696 186.527 266.328 188.485 266.2 190.469C266.071 192.453 265.193 194.314 263.742 195.675L250.382 208.209Z" fill="white"/>
<path d="M140.943 345.52C140.616 344.323 140.547 343.071 140.739 341.845C140.932 340.62 141.382 339.449 142.06 338.409L151.899 323.329C154.226 319.762 157.797 317.185 161.919 316.099C166.041 315.013 170.419 315.495 174.206 317.451C170.07 324.481 170.647 330.648 175.634 336.007C167.892 339.781 160.738 344.653 154.391 350.47C153.232 351.259 151.902 351.76 150.51 351.931C149.118 352.102 147.706 351.939 146.39 351.455C145.074 350.971 143.893 350.179 142.946 349.147C141.998 348.115 141.312 346.871 140.943 345.52Z" fill="#2F2E41"/>
<path d="M252.424 325.801C250.935 328.279 248.833 330.334 246.32 331.767C243.808 333.201 240.968 333.965 238.074 333.987L172.71 334.481L169.875 318.061L198.79 309.567L174.411 290.881L201.058 259.738L249.458 304.791C252.286 307.424 254.124 310.947 254.664 314.771C255.204 318.596 254.413 322.489 252.424 325.801Z" fill="#2F2E41"/>
<path d="M162.504 438.1H147.196C133.451 344.009 119.461 249.655 160.803 214.438L209.562 222.365L203.325 263.7L176.111 294.843L162.504 438.1Z" fill="#2F2E41"/>
<path d="M175.96 459.415C174.761 459.741 173.507 459.811 172.28 459.618C171.053 459.426 169.881 458.977 168.84 458.299L152.218 456.068C148.647 453.744 146.067 450.178 144.979 446.062C143.892 441.945 144.374 437.572 146.332 433.791C153.371 437.92 159.546 437.344 164.912 432.363C168.703 440.009 174.95 439.542 180.915 445.984C181.705 447.141 182.207 448.469 182.379 449.859C182.55 451.249 182.387 452.66 181.902 453.974C181.417 455.288 180.625 456.468 179.591 457.414C178.558 458.36 177.312 459.046 175.96 459.415Z" fill="#2F2E41"/>
<path d="M198.79 151.586L170.441 144.791C175.15 135.166 175.537 124.456 173.276 113.082L192.553 112.516C193.157 126.66 194.984 139.875 198.79 151.586Z" fill="white"/>
<path d="M206.58 239.414C185.944 253.458 171.363 239.894 160.235 218.968C161.782 206.162 159.278 190.838 154.641 174.187C152.579 166.843 153.349 158.993 156.799 152.188C160.249 145.383 166.128 140.117 173.276 137.43L197.655 147.622C218.356 164.474 222.43 182.728 214.664 201.981L206.58 239.414Z" fill="#D7DF23"/>
<path d="M147.195 165.743L124.517 177.634L164.771 201.416L170.372 215.214C170.746 216.135 170.928 217.123 170.907 218.116C170.887 219.11 170.663 220.089 170.252 220.993C169.84 221.898 169.248 222.709 168.511 223.378C167.775 224.047 166.911 224.558 165.97 224.882C164.901 225.251 163.76 225.367 162.639 225.221C161.517 225.076 160.444 224.673 159.504 224.045C158.564 223.417 157.783 222.579 157.221 221.599C156.659 220.618 156.332 219.521 156.266 218.394L155.7 208.777L104.537 191.915C102.813 191.347 101.241 190.394 99.9404 189.13C98.6398 187.865 97.6443 186.321 97.0295 184.616C96.1332 182.129 96.0876 179.416 96.8997 176.901C97.7119 174.386 99.336 172.211 101.518 170.716L142.659 142.527L147.195 165.743Z" fill="white"/>
<path d="M169.874 168.009C160.415 163.87 151.815 168.367 140.959 171.973L139.258 141.962C150.037 136.224 160.315 134.677 169.874 139.131L169.874 168.009Z" fill="#D7DF23"/>
<path d="M181.189 127.382C191.185 127.382 199.288 119.29 199.288 109.306C199.288 99.3234 191.185 91.2305 181.189 91.2305C171.193 91.2305 163.09 99.3234 163.09 109.306C163.09 119.29 171.193 127.382 181.189 127.382Z" fill="white"/>
<path d="M202.84 107.024C184.921 108.777 171.266 105.85 162.539 97.5163V90.8047H201.32L202.84 107.024Z" fill="#2F2E41"/>
</g>
</g>
<defs>
<filter id="filter0_d_745_608" x="0" y="0" width="753" height="569" filterUnits="userSpaceOnUse" color-interpolation-filters="sRGB">
<feFlood flood-opacity="0" result="BackgroundImageFix"/>
<feColorMatrix in="SourceAlpha" type="matrix" values="0 0 0 0 0 0 0 0 0 0 0 0 0 0 0 0 0 0 127 0" result="hardAlpha"/>
<feOffset dx="50" dy="50"/>
<feComposite in2="hardAlpha" operator="out"/>
<feColorMatrix type="matrix" values="0 0 0 0 0.843137 0 0 0 0 0.87451 0 0 0 0 0.137255 0 0 0 1 0"/>
<feBlend mode="normal" in2="BackgroundImageFix" result="effect1_dropShadow_745_608"/>
<feBlend mode="normal" in="SourceGraphic" in2="effect1_dropShadow_745_608" result="shape"/>
</filter>
<clipPath id="clip0_745_608">
<rect width="603" height="419" fill="white" transform="translate(50 50)"/>
</clipPath>
</defs>
</svg>
