<svg width="854" height="606" viewBox="0 0 854 606" fill="none" xmlns="http://www.w3.org/2000/svg">
<g filter="url(#filter0_d_745_523)">
<rect x="2.5" y="2.5" width="799" height="551" rx="47.5" stroke="white" stroke-width="5" shape-rendering="crispEdges"/>
<g clip-path="url(#clip0_745_523)">
<path d="M72.3119 399.977C75.8008 364.404 96.8878 328.894 130.44 316.473C118.042 353.317 119.089 393.355 133.398 429.502C138.967 443.423 146.612 458.326 142.088 472.62C139.274 481.514 132.002 488.452 123.787 492.886C115.572 497.319 106.384 499.57 97.3117 501.777L95.5547 503.307C80.2177 471.013 68.823 435.551 72.3119 399.977Z" fill="#F0F0F0"/>
<path d="M130.793 317.135C111.849 339.471 99.9259 367.997 97.8412 397.241C97.3905 403.564 97.4842 410.016 99.0265 416.197C100.576 422.209 103.709 427.697 108.1 432.091C112.112 436.27 116.701 440.081 119.626 445.161C122.709 450.516 122.983 456.685 121.12 462.507C118.84 469.63 114.134 475.51 109.332 481.101C104.001 487.308 98.3642 493.671 96.2404 501.772C95.9831 502.753 94.4735 502.297 94.7305 501.317C98.4256 487.223 111.811 478.924 117.965 466.157C120.836 460.199 121.928 453.341 118.93 447.209C116.309 441.847 111.581 437.914 107.482 433.718C103.178 429.312 99.8392 424.441 98.0298 418.506C96.1788 412.435 95.8325 405.973 96.1194 399.666C96.8767 385.371 99.8795 371.283 105.018 357.92C110.797 342.635 119.151 328.451 129.719 315.981C130.373 315.209 131.443 316.368 130.793 317.135Z" fill="white"/>
<path d="M98.0169 387.7C93.1146 386.645 88.7471 383.884 85.6945 379.91C82.6419 375.936 81.1029 371.007 81.3524 366.004C81.3644 365.8 81.4552 365.608 81.6057 365.47C81.7562 365.332 81.9546 365.257 82.159 365.262C82.3635 365.267 82.5581 365.351 82.7018 365.496C82.8455 365.642 82.9271 365.837 82.9294 366.041C82.6884 370.7 84.1224 375.291 86.9726 378.986C89.8228 382.681 93.9013 385.237 98.4722 386.192C99.4652 386.4 99.0043 387.907 98.0169 387.7Z" fill="white"/>
<path d="M105.788 430.24C114.449 424.763 120.726 416.226 123.367 406.331C123.627 405.351 125.137 405.807 124.877 406.786C122.11 417.077 115.56 425.948 106.534 431.628C105.673 432.169 104.932 430.778 105.788 430.24Z" fill="white"/>
<path d="M112.299 344.091C114.111 344.894 116.094 345.234 118.07 345.083C120.046 344.931 121.954 344.291 123.621 343.221C124.475 342.669 125.215 344.061 124.367 344.609C122.519 345.783 120.412 346.487 118.229 346.659C116.046 346.832 113.854 346.468 111.844 345.599C111.648 345.533 111.484 345.395 111.386 345.212C111.288 345.03 111.263 344.817 111.317 344.618C111.378 344.418 111.515 344.251 111.699 344.152C111.883 344.054 112.099 344.032 112.299 344.091Z" fill="white"/>
<path d="M235.281 377.12C234.758 377.479 234.235 377.839 233.712 378.212C226.704 383.08 220.105 388.51 213.978 394.446C213.497 394.898 213.016 395.363 212.549 395.827C197.94 410.287 186.146 427.33 177.765 446.091C174.437 453.559 171.683 461.269 169.526 469.155C166.548 480.046 164.187 492.091 157.964 501.098C157.325 502.045 156.629 502.951 155.878 503.812L97.5595 505.331C97.4253 505.268 97.2907 505.218 97.1558 505.155L94.8301 505.322C94.9129 504.908 95.0077 504.48 95.0905 504.065C95.1375 503.825 95.1975 503.584 95.2446 503.343C95.28 503.182 95.3162 503.022 95.339 502.875C95.3506 502.822 95.3628 502.768 95.3748 502.728C95.3976 502.581 95.4344 502.447 95.4576 502.313C95.9808 499.919 96.5219 497.524 97.0806 495.129C97.0803 495.115 97.0803 495.115 97.0929 495.102C101.397 476.861 107.264 458.82 115.685 442.241C115.939 441.742 116.191 441.23 116.471 440.731C120.309 433.279 124.75 426.153 129.749 419.424C132.499 415.748 135.433 412.213 138.54 408.834C146.586 400.117 155.954 392.719 166.301 386.91C186.93 375.333 211.035 370.476 233.564 376.633C234.141 376.791 234.704 376.949 235.281 377.12Z" fill="#F0F0F0"/>
<path d="M235.169 377.862C206.581 384.303 179.868 399.908 160.578 422.004C156.407 426.782 152.593 431.99 150.1 437.852C147.713 443.585 146.907 449.851 147.765 456.001C148.449 461.75 149.816 467.552 149.089 473.368C148.324 479.498 144.825 484.588 139.828 488.116C133.715 492.432 126.413 494.297 119.21 495.873C111.211 497.623 102.876 499.313 96.2977 504.504C95.5007 505.133 94.5704 503.86 95.3662 503.233C106.811 494.202 122.501 495.626 135.109 489.133C140.992 486.103 145.997 481.284 147.3 474.585C148.438 468.727 147.034 462.743 146.29 456.927C145.51 450.821 145.779 444.924 147.912 439.097C150.093 433.137 153.711 427.768 157.741 422.905C166.962 411.947 177.85 402.505 190.007 394.925C203.834 386.197 219.054 379.896 235.007 376.295C235.995 376.072 236.15 377.641 235.169 377.862Z" fill="white"/>
<path d="M166.469 414.493C163.19 410.702 161.367 405.871 161.325 400.862C161.283 395.853 163.025 390.992 166.24 387.147C166.893 386.371 168.13 387.349 167.476 388.126C164.476 391.7 162.854 396.228 162.902 400.893C162.951 405.557 164.667 410.051 167.741 413.562C168.408 414.326 167.132 415.252 166.469 414.493Z" fill="white"/>
<path d="M147.034 453.132C157.251 453.968 167.408 450.926 175.48 444.614C176.279 443.988 177.209 445.26 176.411 445.885C167.999 452.438 157.423 455.582 146.793 454.688C145.78 454.603 146.026 453.046 147.034 453.132Z" fill="white"/>
<path d="M204.157 388.262C205.12 389.993 206.498 391.458 208.167 392.525C209.836 393.592 211.745 394.228 213.721 394.377C214.735 394.45 214.487 396.006 213.48 395.934C211.297 395.76 209.19 395.054 207.343 393.879C205.496 392.704 203.965 391.095 202.884 389.193C202.768 389.022 202.72 388.813 202.752 388.609C202.783 388.404 202.892 388.219 203.055 388.092C203.224 387.97 203.435 387.919 203.641 387.951C203.847 387.983 204.033 388.095 204.157 388.262Z" fill="white"/>
<path d="M577.558 81.2117C576.688 78.6434 565.769 69.9131 572.46 68.4457L577.946 75.7542L603.173 50.5547L605.711 53.0892L577.558 81.2117Z" fill="#D7DF23"/>
<path d="M577.558 166.899C576.688 164.331 565.769 155.601 572.46 154.133L577.946 161.442L603.173 136.242L605.711 138.777L577.558 166.899Z" fill="#D7DF23"/>
<path d="M577.558 253.813C576.688 251.245 565.769 242.515 572.46 241.047L577.946 248.356L603.173 223.156L605.711 225.691L577.558 253.813Z" fill="#D7DF23"/>
<path d="M554.327 183.548C558.627 183.548 562.112 180.067 562.112 175.772C562.112 171.478 558.627 167.996 554.327 167.996C550.028 167.996 546.543 171.478 546.543 175.772C546.543 180.067 550.028 183.548 554.327 183.548Z" fill="white"/>
<path d="M554.327 98.7868C558.627 98.7868 562.112 95.3052 562.112 91.0106C562.112 86.7159 558.627 83.2344 554.327 83.2344C550.028 83.2344 546.543 86.7159 546.543 91.0106C546.543 95.3052 550.028 98.7868 554.327 98.7868Z" fill="white"/>
<path d="M754 73.125H628.67V74.6802H754V73.125Z" fill="white"/>
<path d="M558.22 273.9C562.519 273.9 566.005 270.419 566.005 266.124C566.005 261.829 562.519 258.348 558.22 258.348C553.921 258.348 550.436 261.829 550.436 266.124C550.436 270.419 553.921 273.9 558.22 273.9Z" fill="white"/>
<path d="M754 158.812H628.67V160.368H754V158.812Z" fill="white"/>
<path d="M754 245.727H628.67V247.282H754V245.727Z" fill="white"/>
<path d="M597.219 265.401H558.297V225.742H584.764V227.297H559.854V263.846H595.662V245.96H597.219V265.401Z" fill="white"/>
<path d="M597.219 178.307H558.297V138.648H584.764V140.204H559.854V176.752H595.662V158.867H597.219V178.307Z" fill="white"/>
<path d="M597.219 89.6586H558.297V50H584.764V51.5552H559.854V88.1033H595.662V70.2181H597.219V89.6586Z" fill="white"/>
<path d="M343.09 191.348C343.09 191.348 332.687 235.223 345.401 235.223C358.115 235.223 388.167 185.575 388.167 185.575L377.764 172.875L359.093 198.77L358.115 185.575L343.09 191.348Z" fill="#A0616A"/>
<path d="M385.395 187.484C390.984 187.484 395.515 182.958 395.515 177.375C395.515 171.792 390.984 167.266 385.395 167.266C379.806 167.266 375.275 171.792 375.275 177.375C375.275 182.958 379.806 187.484 385.395 187.484Z" fill="white"/>
<path d="M334.271 490.169L347.74 490.169L354.149 438.266L334.268 438.266L334.271 490.169Z" fill="white"/>
<path d="M333.796 504.209L375.219 504.207V503.684C375.219 499.412 373.52 495.316 370.496 492.295C367.473 489.275 363.372 487.578 359.096 487.578H359.095L351.528 481.844L337.411 487.579L333.795 487.579L333.796 504.209Z" fill="#2F2E41"/>
<path d="M189.373 473.383L201.426 479.391L230.362 435.809L212.573 426.941L189.373 473.383Z" fill="white"/>
<path d="M182.672 485.731L219.736 504.208L219.97 503.74C221.88 499.918 222.191 495.495 220.836 491.444C219.481 487.393 216.57 484.045 212.744 482.137L212.743 482.137L208.536 473.631L193.341 472.465L190.105 470.852L182.672 485.731Z" fill="#2F2E41"/>
<path d="M493.6 504.258H50V506H493.6V504.258Z" fill="#CCCCCC"/>
<path d="M247.181 270.942C247.181 270.942 241.798 335.6 240.642 349.455C239.849 358.14 237.906 366.682 234.863 374.856C234.863 374.856 232.551 379.474 232.551 384.092L206.353 431.655C206.353 431.655 198.347 437.533 199.503 442.151C200.658 446.77 194.676 449.54 194.676 449.54L222.265 454.852C222.265 454.852 221.109 451.388 224.577 450.233C228.044 449.079 230.805 439.064 230.805 439.064L269.537 376.01L297.277 318.281C297.277 318.281 313.458 370.237 316.926 376.01C316.926 376.01 329.64 440.667 331.951 446.44C334.263 452.213 335.419 452.213 334.263 454.522C333.107 456.831 333.107 459.14 334.263 460.295C335.419 461.45 357.379 460.295 357.379 460.295L351.6 378.32L341.198 280.18L288.03 264.016L247.181 270.942Z" fill="#2F2E41"/>
<path d="M299.233 116.59C312.638 116.59 323.505 105.735 323.505 92.3439C323.505 78.9531 312.638 68.0977 299.233 68.0977C285.828 68.0977 274.961 78.9531 274.961 92.3439C274.961 105.735 285.828 116.59 299.233 116.59Z" fill="white"/>
<path d="M343.509 152.021L314.614 134.534C314.614 134.534 313.813 123.674 305.581 123.163C301.447 122.907 295.245 122.515 285.937 121.915C283.97 121.788 282.642 132.539 280.388 132.393L249.887 140.475L254.511 218.987C254.511 218.987 247.576 250.161 249.887 255.934C252.199 261.707 244.108 264.016 246.42 265.17C248.732 266.325 246.42 274.407 246.42 274.407C246.42 274.407 291.497 297.499 341.197 280.18L336.574 265.17C337.203 263.208 337.321 261.118 336.916 259.098C336.512 257.078 335.598 255.194 334.262 253.625C334.262 253.625 338.885 246.697 333.106 240.924C333.106 240.924 335.418 230.533 329.639 225.915L328.483 209.75L331.95 201.668L343.509 152.021Z" fill="#BE00C2"/>
<path d="M278.172 106.195L277.493 104.621C277.406 104.417 268.822 84.1466 276.431 71.6432C279.953 65.8547 286.357 62.5866 295.465 61.9305C309.716 60.9012 319.47 64.2781 324.463 71.9606C325.3 73.2626 325.771 74.7659 325.825 76.3124C325.88 77.8589 325.516 79.3915 324.772 80.7491C324.029 82.1066 322.933 83.239 321.6 84.027C320.266 84.8151 318.745 85.2298 317.196 85.2275H317.005L314.386 81.8312L314.234 82.1615C313.286 84.2103 311.108 85.332 308.558 85.0863C308.125 85.0552 307.74 85.4292 307.432 86.2296C307.328 86.5797 307.132 86.8954 306.863 87.1436C306.595 87.3918 306.265 87.5634 305.908 87.6402C304.024 88.0066 301.338 85.6357 300.136 84.4541C300.089 84.7261 299.985 84.9849 299.83 85.2131C299.675 85.4414 299.472 85.6336 299.236 85.777C297.969 86.5072 295.998 85.5534 295.432 85.2496C290.924 86.2064 288.005 85.9505 286.755 84.4898C285.907 90.4803 284.088 101.263 281.907 101.861C281.679 101.913 281.44 101.891 281.226 101.797C281.011 101.703 280.833 101.544 280.716 101.341C280.191 100.66 279.722 100.32 279.428 100.415C278.719 100.641 278.3 102.975 278.24 104.482L278.172 106.195Z" fill="#2F2E41"/>
<path d="M330.795 153.176L342.325 151.305C350.63 159.276 356.288 169.601 358.535 180.886C362.002 199.359 363.158 202.823 363.158 202.823L335.418 209.751L320.393 180.886L330.795 153.176Z" fill="#BE00C2"/>
<path d="M279.633 177.203L272.508 267.434L454.342 281.762L461.467 191.532L279.633 177.203Z" fill="white"/>
<path d="M299.059 184.195C294.609 181.021 288.959 180.791 286.801 180.837C287.459 182.89 289.505 188.155 293.955 191.331C298.416 194.513 304.059 194.736 306.214 194.692C305.555 192.639 303.509 187.372 299.059 184.195Z" fill="#D7DF23"/>
<path d="M316.614 241.61L287.417 239.309C286.554 239.241 285.686 239.344 284.863 239.611C284.04 239.878 283.278 240.304 282.62 240.865C281.961 241.427 281.42 242.112 281.027 242.882C280.634 243.652 280.397 244.492 280.329 245.354C280.261 246.216 280.363 247.083 280.631 247.905C280.898 248.727 281.325 249.489 281.887 250.146C282.449 250.804 283.135 251.344 283.906 251.737C284.677 252.129 285.517 252.366 286.38 252.434L315.578 254.735C317.32 254.872 319.045 254.313 320.375 253.179C321.704 252.045 322.528 250.431 322.665 248.69C322.803 246.95 322.242 245.226 321.107 243.898C319.973 242.571 318.356 241.747 316.614 241.61Z" fill="#D7DF23"/>
<path d="M454.298 182.762L290.598 169.861C288.694 169.711 286.779 169.938 284.963 170.527C283.146 171.117 281.464 172.058 280.011 173.297C278.559 174.536 277.365 176.049 276.498 177.749C275.631 179.449 275.108 181.303 274.958 183.205L268.662 262.872C268.359 266.714 269.597 270.52 272.102 273.451C274.607 276.382 278.175 278.199 282.021 278.503L445.722 291.404C447.626 291.554 449.541 291.328 451.357 290.738C453.174 290.149 454.856 289.207 456.308 287.968C457.761 286.729 458.955 285.217 459.822 283.517C460.689 281.817 461.212 279.963 461.362 278.061L467.345 202.34L467.465 200.793L467.656 198.386C467.806 196.484 467.579 194.571 466.989 192.756C466.399 190.942 465.457 189.261 464.216 187.81C462.976 186.359 461.462 185.167 459.76 184.301C458.058 183.435 456.202 182.912 454.298 182.762ZM449.464 252.077L448.427 265.202C448.238 267.52 447.137 269.669 445.366 271.179C443.595 272.689 441.297 273.437 438.975 273.259L417.075 271.535C414.754 271.346 412.603 270.246 411.092 268.477C409.581 266.708 408.832 264.413 409.01 262.094L410.047 248.969C410.237 246.651 411.338 244.502 413.109 242.993C414.88 241.483 417.177 240.735 419.499 240.912L441.391 242.638C443.712 242.828 445.863 243.927 447.375 245.695C448.888 247.464 449.639 249.758 449.464 252.077ZM278.88 245.233C279.05 243.109 280.056 241.14 281.678 239.756C283.3 238.372 285.405 237.688 287.532 237.853L316.728 240.155C317.783 240.237 318.811 240.525 319.754 241.003C320.697 241.482 321.537 242.141 322.225 242.944C322.913 243.747 323.435 244.677 323.763 245.682C324.091 246.686 324.217 247.746 324.135 248.799C324.053 249.853 323.763 250.88 323.284 251.821C322.804 252.763 322.143 253.601 321.339 254.288C320.535 254.974 319.603 255.496 318.597 255.822C317.591 256.149 316.53 256.274 315.476 256.191L315.461 256.195L286.264 253.893C285.21 253.81 284.182 253.52 283.24 253.039C282.298 252.559 281.46 251.897 280.774 251.093C280.088 250.289 279.568 249.357 279.243 248.352C278.918 247.346 278.795 246.286 278.88 245.233ZM285.13 180.316L284.931 179.5L285.771 179.424C286.099 179.388 293.865 178.692 299.911 183.006C305.957 187.32 307.811 194.888 307.891 195.205L308.083 196.023L307.245 196.107C306.056 196.195 304.861 196.188 303.673 196.084C299.893 195.863 296.243 194.631 293.103 192.517C287.057 188.204 285.203 180.635 285.13 180.316Z" fill="#D7DF23"/>
<path d="M424.903 260.783L415.414 260.035C414.737 259.983 414.067 260.201 413.551 260.642C413.035 261.083 412.716 261.71 412.662 262.386C412.609 263.062 412.826 263.732 413.267 264.248C413.707 264.764 414.334 265.084 415.011 265.139L424.5 265.887C425.177 265.939 425.847 265.721 426.363 265.28C426.879 264.839 427.198 264.212 427.252 263.536C427.305 262.86 427.088 262.19 426.647 261.674C426.207 261.158 425.58 260.837 424.903 260.783Z" fill="#D7DF23"/>
<path d="M442.423 262.161L432.934 261.414C432.257 261.362 431.588 261.581 431.072 262.021C430.557 262.462 430.237 263.089 430.184 263.765C430.13 264.441 430.347 265.11 430.787 265.626C431.227 266.142 431.854 266.463 432.531 266.518L442.02 267.266C442.696 267.317 443.366 267.099 443.881 266.658C444.397 266.217 444.716 265.59 444.77 264.914C444.823 264.239 444.606 263.569 444.166 263.053C443.726 262.537 443.099 262.216 442.423 262.161Z" fill="#D7DF23"/>
<path d="M425.423 254.22L415.934 253.472C415.257 253.421 414.588 253.639 414.072 254.08C413.557 254.521 413.237 255.148 413.184 255.824C413.13 256.499 413.347 257.169 413.787 257.685C414.227 258.201 414.854 258.521 415.531 258.576L425.02 259.324C425.697 259.376 426.367 259.158 426.883 258.717C427.399 258.276 427.718 257.649 427.772 256.973C427.825 256.297 427.608 255.627 427.167 255.111C426.727 254.595 426.1 254.275 425.423 254.22Z" fill="#D7DF23"/>
<path d="M442.94 255.599L433.451 254.851C432.774 254.799 432.104 255.018 431.588 255.458C431.072 255.899 430.753 256.526 430.699 257.202C430.646 257.878 430.863 258.548 431.304 259.064C431.744 259.58 432.371 259.901 433.048 259.955L442.537 260.703C443.214 260.755 443.884 260.537 444.4 260.096C444.916 259.655 445.236 259.028 445.289 258.352C445.342 257.676 445.125 257.006 444.685 256.49C444.244 255.974 443.617 255.654 442.94 255.599Z" fill="#D7DF23"/>
<path d="M425.94 247.658L416.451 246.91C415.774 246.858 415.104 247.076 414.588 247.517C414.072 247.958 413.753 248.585 413.699 249.261C413.646 249.937 413.863 250.607 414.304 251.123C414.744 251.639 415.371 251.96 416.048 252.014L425.537 252.762C426.214 252.813 426.883 252.595 427.399 252.154C427.914 251.713 428.234 251.086 428.287 250.411C428.341 249.735 428.124 249.065 427.684 248.549C427.244 248.033 426.617 247.713 425.94 247.658Z" fill="#D7DF23"/>
<path d="M443.458 249.036L433.969 248.289C433.292 248.237 432.623 248.456 432.107 248.896C431.592 249.337 431.272 249.964 431.219 250.64C431.166 251.316 431.383 251.985 431.823 252.501C432.263 253.017 432.89 253.338 433.566 253.393L443.055 254.141C443.732 254.192 444.401 253.974 444.917 253.533C445.432 253.092 445.752 252.465 445.805 251.789C445.858 251.114 445.641 250.444 445.201 249.928C444.761 249.412 444.134 249.091 443.458 249.036Z" fill="#D7DF23"/>
<path d="M272.524 208.344L272.402 209.895L464.565 224.974L464.687 223.423L272.524 208.344Z" fill="white"/>
<path d="M467.465 200.793L467.344 202.34L460.656 201.816L389.402 196.225L389.531 194.676L460.777 200.268L467.465 200.793Z" fill="#3F3D56"/>
<path d="M232.551 184.352C232.551 184.352 222.148 228.226 234.862 228.226C247.576 228.226 277.627 178.579 277.627 178.579L267.225 165.879L248.554 191.774L247.576 178.579L232.551 184.352Z" fill="white"/>
<path d="M274.854 180.484C280.443 180.484 284.974 175.958 284.974 170.375C284.974 164.792 280.443 160.266 274.854 160.266C269.265 160.266 264.734 164.792 264.734 170.375C264.734 175.958 269.265 180.484 274.854 180.484Z" fill="white"/>
<path d="M258.308 147.404L251.373 140.477C251.373 140.477 237.503 148.559 236.347 156.641C235.191 164.723 229.412 190.124 229.412 190.124L250.795 191.856L257.73 181.464L258.308 147.404Z" fill="#BE00C2"/>
</g>
</g>
<defs>
<filter id="filter0_d_745_523" x="0" y="0" width="854" height="606" filterUnits="userSpaceOnUse" color-interpolation-filters="sRGB">
<feFlood flood-opacity="0" result="BackgroundImageFix"/>
<feColorMatrix in="SourceAlpha" type="matrix" values="0 0 0 0 0 0 0 0 0 0 0 0 0 0 0 0 0 0 127 0" result="hardAlpha"/>
<feOffset dx="50" dy="50"/>
<feComposite in2="hardAlpha" operator="out"/>
<feColorMatrix type="matrix" values="0 0 0 0 0.843137 0 0 0 0 0.87451 0 0 0 0 0.137255 0 0 0 1 0"/>
<feBlend mode="normal" in2="BackgroundImageFix" result="effect1_dropShadow_745_523"/>
<feBlend mode="normal" in="SourceGraphic" in2="effect1_dropShadow_745_523" result="shape"/>
</filter>
<clipPath id="clip0_745_523">
<rect width="704" height="456" fill="white" transform="translate(50 50)"/>
</clipPath>
</defs>
</svg>
