<svg width="763" height="605" viewBox="0 0 763 605" fill="none" xmlns="http://www.w3.org/2000/svg">
<g filter="url(#filter0_d_745_574)">
<rect x="2.5" y="2.5" width="708" height="550" rx="47.5" stroke="white" stroke-width="5" shape-rendering="crispEdges"/>
<path d="M610.919 162.234C542.373 66.8381 397.573 28.1415 255.167 69.8186C179.882 91.8521 107.292 135.999 71.3186 221.483C7.01204 374.294 142.032 423.098 230.32 438.652C273.011 446.173 313.219 458.808 349.962 476.009C416.065 506.956 533.072 534.378 621.303 405.47C685.253 312.038 656.577 225.777 610.919 162.234Z" fill="#F2F2F2"/>
<path d="M610.919 162.234C542.373 66.8381 397.573 28.1415 255.167 69.8186C179.882 91.8521 107.292 135.999 71.3186 221.483C7.01204 374.294 142.032 423.098 230.32 438.652C273.011 446.173 313.219 458.808 349.962 476.009C416.065 506.956 533.072 534.378 621.303 405.47C685.253 312.038 656.577 225.777 610.919 162.234Z" fill="#3F3D56"/>
<path d="M230.201 192.402C230.031 191.063 229.689 189.753 229.182 188.502C229.118 188.266 229.005 188.045 228.85 187.855C228.696 187.665 228.503 187.509 228.285 187.397C227.994 187.321 227.688 187.318 227.395 187.387L222.825 188.087C222.442 188.104 222.076 188.246 221.782 188.492C221.187 189.118 221.773 190.126 221.755 190.99C221.734 191.962 220.871 192.75 219.936 193.011C218.981 193.204 217.995 193.192 217.045 192.975L210.655 191.982C212.537 191.381 214.212 190.262 215.489 188.755C216.33 187.758 216.778 185.898 215.562 185.426C215.201 185.327 214.825 185.296 214.452 185.337C211.557 185.359 209.278 182.941 206.568 181.923C204.833 181.313 202.95 181.268 201.188 181.793C199.426 182.319 197.875 183.388 196.757 184.848L200.161 185.012C200.481 184.995 200.799 185.079 201.068 185.254C201.814 185.867 200.887 187.045 200.992 188.005C201.128 189.253 202.784 189.519 204.032 189.645C205.28 189.771 206.864 190.786 206.263 191.887C199.99 194.049 193.606 187.662 187.018 188.448C185.35 188.647 183.775 189.303 182.147 189.715C172.202 192.232 161.921 185.516 151.761 186.938C149.503 187.324 147.283 187.909 145.128 188.688C143.745 189.142 142.303 189.633 141.298 190.686C140.294 191.74 139.911 193.541 140.863 194.642C138.24 194.858 135.599 194.607 133.063 193.9C133.749 194.282 134.319 194.841 134.715 195.518C135.11 196.196 135.316 196.968 135.31 197.753C131.214 198.421 127.226 199.637 123.454 201.368C124.158 202.539 124.981 203.635 125.908 204.638L120.723 207.97C122.475 208.412 123.38 210.801 122.362 212.294C124.178 211.485 125.304 209.394 127.246 208.97C128.519 208.693 129.814 209.213 131.021 209.703C132.228 210.192 133.555 210.666 134.805 210.299C136.055 209.932 136.976 208.311 136.182 207.278C141.524 205.719 147.045 204.856 152.607 204.711C153.036 204.657 153.472 204.74 153.851 204.947C154.575 205.45 154.385 206.535 154.346 207.416C154.307 208.297 154.993 209.454 155.78 209.057C154.854 209.86 155.646 211.372 156.534 212.216C157.422 213.061 158.493 214.226 157.949 215.324C157.807 215.611 157.566 215.84 157.43 216.13C157.026 216.984 157.666 217.979 158.421 218.546C159.176 219.113 160.101 219.509 160.625 220.295C161.15 221.08 160.911 222.454 159.974 222.564L157.309 219.179C156.398 220.124 155.774 221.307 155.508 222.592C158.334 224.903 158.76 229.606 156.394 232.387C155.184 233.808 153.465 234.671 151.964 235.779C150.464 236.888 149.075 238.466 149.079 240.332C149.085 243.555 148.822 246.55 150.03 249.539C152.257 255.049 154.828 260.415 157.727 265.603C158.489 266.965 159.473 268.458 161.016 268.693C159.066 263.945 157.311 259.124 155.751 254.228C156.767 254.232 157.942 254.313 158.537 255.137C159.031 255.819 158.925 256.746 159.078 257.574C159.273 258.376 159.598 259.141 160.041 259.837L169.351 276.426C170.123 277.801 171.008 279.278 172.483 279.834C173.426 280.191 174.517 280.123 175.385 280.636C176.066 281.038 176.524 281.751 177.218 282.13C179.179 283.2 181.906 281.147 183.739 282.425C184.263 282.79 184.597 283.371 185.08 283.789C186.772 285.255 189.549 284.275 191.503 285.368C192.763 286.073 193.415 287.483 194.087 288.761C195.77 291.961 198.493 295.097 202.099 295.352C203.231 295.432 204.388 295.217 205.496 295.469C206.603 295.721 207.693 296.688 207.515 297.809C207.21 299.733 208.16 301.839 207.905 303.769C207.441 307.286 202.454 308.831 202.026 312.352C201.932 313.123 202.079 313.919 201.895 314.674C201.67 315.598 200.976 316.352 200.729 317.271C200.261 319.013 201.509 320.747 202.88 321.919C204.251 323.091 205.886 324.102 206.635 325.742C207.428 327.476 207.038 329.498 207.296 331.388C207.859 335.512 211.42 338.569 215.085 340.541C216.201 341.141 217.4 341.723 218.123 342.765C219.066 344.125 218.972 345.917 219.287 347.542C220.059 351.522 223.408 354.801 223.503 358.854C223.571 361.734 221.97 364.348 221.014 367.066C220.117 369.67 219.793 372.436 220.063 375.177C220.333 377.918 221.19 380.569 222.577 382.948C223.293 384.156 224.148 385.295 224.654 386.605C225.557 388.942 225.264 391.599 226.097 393.962C227.197 397.087 230.222 399.668 229.933 402.968C231.306 405.82 234.338 407.222 237.387 408.071L242.852 409.593C243.898 409.884 244.992 410.177 246.057 409.967C247.123 409.756 248.14 408.871 248.112 407.785C245.432 407.18 242.666 406.537 240.457 404.904C238.248 403.27 236.735 400.362 237.573 397.745C237.962 396.531 238.789 395.13 238.003 394.128C237.553 393.553 236.729 393.403 236.222 392.88C235.43 392.063 235.702 390.69 236.271 389.705C236.841 388.72 237.663 387.84 237.893 386.725C238.009 386.102 237.931 385.458 237.671 384.88C237.411 384.301 236.98 383.817 236.436 383.49C237.449 383.108 238.371 382.516 239.141 381.754C239.852 380.942 240.181 379.689 239.621 378.766C241.283 378.976 243.244 379.08 244.335 377.808C245.206 376.793 245.146 375.275 244.802 373.982C244.458 372.689 243.876 371.434 243.858 370.096C247.691 370.278 251.533 370.147 255.345 369.706C254.794 367.849 253.541 366.28 251.853 365.331C253.579 365.039 255.152 362.972 255.697 361.308C256.243 359.643 256.104 357.83 255.767 356.112C255.637 355.669 255.619 355.201 255.715 354.75C255.909 354.131 256.518 353.753 257.081 353.429L265.651 348.506C266.162 348.25 266.625 347.908 267.021 347.494C267.919 346.439 267.786 344.847 267.326 343.54C266.866 342.233 266.13 341.004 265.953 339.63C265.423 335.521 269.821 332.573 271.305 328.704C271.888 327.186 272.006 325.536 272.119 323.914C272.24 322.172 272.249 320.148 270.912 319.026C269.63 317.95 267.627 318.19 266.285 317.189C265.055 316.271 264.631 314.488 263.288 313.747C262.067 313.074 260.538 313.502 259.181 313.185C256.791 312.628 255.288 309.873 252.848 309.618C251.471 309.475 249.913 310.148 248.784 309.346C247.79 308.639 247.75 307.219 247.561 306.013C247.229 304.14 246.331 302.413 244.989 301.066C243.646 299.719 241.923 298.815 240.051 298.478C238.632 298.25 237.087 298.336 235.879 297.556C234.656 296.766 234.095 295.287 233.135 294.192C231.587 292.429 229.149 291.802 226.865 291.265L217.574 289.081C215.925 288.693 213.799 288.487 212.914 289.932C212.652 290.482 212.467 291.066 212.363 291.666C212.031 292.753 211.364 293.706 210.457 294.389C209.549 295.072 208.449 295.45 207.314 295.468C206.535 294.139 205.274 293.163 203.793 292.743C202.851 292.48 201.842 292.451 200.944 292.064C200.455 291.826 200.019 291.489 199.664 291.076C199.309 290.663 199.042 290.182 198.88 289.662C198.717 289.142 198.663 288.595 198.719 288.053C198.775 287.512 198.941 286.987 199.207 286.512C199.743 285.558 199.95 284.454 199.796 283.371C199.642 282.288 199.136 281.285 198.356 280.518C196.776 279.1 194.491 278.757 192.372 278.899C191.818 277.688 192.745 276.321 193.745 275.441C194.745 274.561 195.959 273.696 196.176 272.382C196.519 270.315 193.882 268.745 191.88 269.361C189.878 269.977 188.6 271.923 187.755 273.84C187.27 274.94 186.858 276.099 186.094 277.027C185.329 277.954 184.098 278.618 182.934 278.321C181.285 277.899 180.648 275.94 180.283 274.278C179.794 272.047 179.301 269.786 179.404 267.504C179.507 265.223 180.276 262.881 181.957 261.336C184.698 258.82 188.902 259.066 192.6 259.468C191.727 258.483 191.943 256.823 192.877 255.897C193.371 255.458 193.964 255.146 194.605 254.989C195.246 254.831 195.916 254.833 196.557 254.992C197.671 255.224 198.675 255.825 199.407 256.697C200.458 257.979 200.757 259.709 201.551 261.164C202.346 262.619 204.132 263.86 205.594 263.08C206.857 262.405 207.058 260.654 206.743 259.257C206.429 257.86 205.761 256.502 205.875 255.074C206.093 252.351 208.915 250.711 211.406 249.59C213.896 248.468 216.748 246.96 217.143 244.256C217.156 243.727 217.256 243.203 217.438 242.706C217.714 242.267 218.098 241.906 218.553 241.657C225.822 236.852 233.212 231.988 241.52 229.363C241.953 229.226 242.003 229.378 242.444 229.271C243.06 228.915 242.652 227.929 242.061 227.531C241.47 227.134 240.68 226.83 240.53 226.133C240.419 225.622 240.721 225.119 240.799 224.601C240.992 223.329 239.47 222.155 238.289 222.663C237.621 221.779 238.942 220.752 240.01 220.458C243.216 219.575 246.507 219.037 249.828 218.854C250.211 218.793 250.604 218.859 250.945 219.044C251.503 219.43 251.432 220.316 251.036 220.868C250.641 221.42 250.026 221.766 249.534 222.233C248.996 222.757 248.612 223.419 248.424 224.147C248.237 224.874 248.252 225.64 248.47 226.359C250.203 227.241 252.088 228.149 254.008 227.838C255.928 227.527 257.632 225.37 256.729 223.646C255.889 222.042 253.365 221.68 252.931 219.921C252.422 217.862 255.337 216.03 254.68 214.013C254.393 213.13 253.512 212.61 252.837 211.972C252.039 211.19 251.497 210.185 251.28 209.089C251.064 207.993 251.184 206.857 251.625 205.831C250.525 206.025 249.395 205.951 248.329 205.618C247.263 205.284 246.292 204.7 245.499 203.913C244.033 202.434 242.864 200.1 240.783 200.166C238.873 200.227 237.229 202.456 235.443 201.776C235.004 201.609 234.541 201.268 234.115 201.468C233.975 201.558 233.858 201.679 233.773 201.822C233.687 201.964 233.634 202.124 233.62 202.29C233.166 204.46 233.946 206.933 232.764 208.808C231.477 210.848 228.501 211.131 226.941 212.971C226.095 213.97 225.767 215.316 224.988 216.369C224.21 217.422 222.558 218.092 221.624 217.174C222.083 216.23 222.208 215.158 221.98 214.134C221.751 213.109 221.181 212.193 220.364 211.534C219.497 210.968 218.562 210.513 217.582 210.18C216.486 209.717 215.444 209.136 214.474 208.448C213.987 208.154 213.592 207.731 213.332 207.226C213.127 206.594 213.155 205.909 213.41 205.295C213.884 203.937 214.72 202.734 215.827 201.816C216.934 200.898 218.271 200.3 219.693 200.086C220.937 199.917 222.384 199.977 223.207 199.029C223.643 198.527 223.871 197.769 224.503 197.565C224.908 197.484 225.327 197.536 225.7 197.713L230.342 199.347C230.86 199.581 231.43 199.675 231.995 199.621C232.276 199.583 232.531 199.44 232.711 199.222C232.891 199.003 232.982 198.725 232.965 198.442C232.816 197.671 231.63 197.301 231.738 196.523C231.799 196.271 231.934 196.043 232.127 195.87C233.802 194.087 235.85 192.696 238.126 191.797C240.401 190.898 242.847 190.514 245.289 190.671C245.875 191.633 244.948 192.773 244.177 193.595C243.406 194.416 242.787 195.885 243.719 196.517C244.101 196.712 244.526 196.808 244.955 196.795C246.098 196.95 247.208 197.287 248.245 197.794C249.849 198.492 251.422 199.256 252.964 200.085C252.828 199.068 252.698 197.996 253.083 197.045C253.469 196.094 254.564 195.348 255.521 195.718C256.444 196.075 256.917 197.297 257.899 197.409C259.21 197.558 259.727 195.621 259.179 194.421C258.632 193.22 257.548 192.215 257.458 190.899C257.397 190.011 257.735 188.909 257.025 188.372C256.773 188.21 256.486 188.11 256.189 188.078L238.481 184.819C237.429 184.625 235.91 184.774 235.864 185.842C235.838 186.438 236.37 187.028 236.134 187.577C235.882 188.162 235.055 188.109 234.453 188.316C233.518 188.637 233.049 189.747 233.139 190.731C233.303 191.71 233.682 192.639 234.248 193.454C233.096 192.972 231.352 192.884 230.201 192.402Z" fill="white"/>
<path d="M216.07 177.365C214.953 176.995 213.75 176.978 212.623 177.315C211.496 177.653 210.501 178.329 209.771 179.252C209.479 179.636 209.235 180.165 209.479 180.581C209.829 181.177 210.72 180.941 211.378 180.728C212.344 180.383 213.396 180.358 214.377 180.657C214.995 180.869 215.547 181.243 216.167 181.447C216.469 181.573 216.799 181.615 217.123 181.568C217.447 181.521 217.751 181.386 218.004 181.179C218.43 180.744 218.457 180.07 218.457 179.462C218.487 179.258 218.471 179.051 218.41 178.854C218.349 178.658 218.245 178.478 218.106 178.327C217.857 178.183 217.579 178.101 217.292 178.086C216.651 177.967 216.071 177.628 215.652 177.128" fill="white"/>
<path d="M222.454 175.588C222.204 175.574 221.955 175.625 221.73 175.736C221.506 175.847 221.314 176.013 221.172 176.219C221.03 176.426 220.944 176.665 220.922 176.914C220.899 177.164 220.942 177.415 221.044 177.643C221.812 177.852 222.613 177.905 223.401 177.797C223.795 177.736 224.161 177.56 224.454 177.291C224.747 177.022 224.954 176.672 225.049 176.286C224.121 176.455 223.164 176.272 222.363 175.773" fill="white"/>
<path d="M243.877 172.617C241.788 173.061 239.759 173.751 237.832 174.671C238.74 175.02 239.513 175.652 240.035 176.474C240.557 177.295 240.802 178.263 240.733 179.234C240.651 179.607 240.661 179.994 240.76 180.362C240.982 180.901 241.626 181.103 242.191 181.241C243.207 181.55 244.268 181.685 245.33 181.641C245.86 181.614 246.376 181.454 246.83 181.177C247.283 180.899 247.66 180.513 247.927 180.053C248.081 179.617 248.262 179.19 248.468 178.776C249.823 176.711 253.851 179.208 255.306 177.212C255.819 176.509 255.772 175.45 256.44 174.893C256.786 174.651 257.187 174.498 257.606 174.448C260.533 173.867 263.49 173.445 266.463 173.187C267.872 173.064 269.708 172.558 269.72 171.144C264.414 170.101 258.912 170.842 254.07 173.249C252.326 174.123 250.018 175.962 248.338 174.803C247.709 174.369 247.74 173.201 246.874 172.713C245.989 172.215 244.817 172.417 243.877 172.617Z" fill="white"/>
<path d="M261.231 175.863L263.722 176.341C263.263 176.321 262.806 176.399 262.38 176.569C261.954 176.74 261.569 176.999 261.251 177.331C260.933 177.662 260.69 178.057 260.537 178.489C260.383 178.922 260.324 179.383 260.363 179.84C262.696 180.619 265.238 179.861 267.695 179.965C270.152 180.068 273.011 181.824 272.592 184.247C272.465 184.98 272.042 185.713 272.262 186.423C272.416 186.921 272.855 187.274 273.103 187.733C273.619 188.689 273.206 189.897 272.554 190.766C271.902 191.635 271.026 192.328 270.454 193.251C269.03 195.547 269.839 198.516 270.687 201.081C270.932 202.05 271.385 202.954 272.014 203.731C273.27 205.067 275.317 205.184 277.151 205.21C278.485 205.23 280.014 205.164 280.858 204.13C281.96 202.78 281.189 200.673 281.915 199.088C282.574 197.649 284.252 197.032 285.773 196.594C288.559 195.791 291.398 195.109 294.032 193.898C297.302 192.393 300.359 190.048 303.954 189.854C304.962 189.8 305.995 189.919 306.967 189.643C307.938 189.366 308.861 188.526 308.788 187.518C308.725 186.658 307.997 186.025 307.428 185.377C306.859 184.728 306.412 183.73 306.935 183.043L316.357 181.283C315.689 179.462 315.169 177.064 316.704 175.879C317.257 175.451 317.999 175.281 318.47 174.764C319.274 173.883 318.87 172.365 317.942 171.616C317.015 170.866 315.76 170.692 314.572 170.594C310.441 170.25 306.285 170.477 302.146 170.704C294.054 171.148 285.963 171.592 277.871 172.035C276.242 172.125 274.361 171.988 272.867 172.544C271.602 173.015 270.703 173.878 269.257 174.182C266.586 174.742 263.648 174.363 261.231 175.863Z" fill="white"/>
<path d="M305.85 195.554C305.597 195.513 305.337 195.572 305.125 195.718C304.986 195.872 304.902 196.069 304.889 196.277C304.729 197.194 304.92 198.138 305.426 198.92C305.683 199.304 306.039 199.612 306.455 199.811C306.872 200.011 307.334 200.096 307.794 200.056C308.916 199.913 309.742 198.956 310.773 198.489C312.363 197.77 319.111 196.649 314.443 194.126C312.834 193.257 311.794 194.024 310.526 194.597C309.084 195.335 307.467 195.666 305.85 195.554Z" fill="white"/>
<path d="M346.739 174.439C346.194 174.662 345.738 175.059 345.442 175.568C345.306 175.827 345.274 176.128 345.354 176.409C345.433 176.691 345.618 176.931 345.869 177.08C346.073 177.153 346.288 177.188 346.505 177.181L348.721 177.247C349.663 177.275 350.839 177.476 351.092 178.383C351.28 179.057 350.86 179.923 351.367 180.405C351.585 180.573 351.847 180.676 352.121 180.699C352.851 180.887 353.614 180.911 354.354 180.771C355.967 180.338 355.12 179.354 355.628 178.477C356.405 177.136 356.27 177.948 357.64 177.179C358.651 176.611 359.958 175.581 359.114 174.134C357.646 171.618 348.905 173.358 346.739 174.439Z" fill="white"/>
<path d="M390.487 173.171L389.2 173.342C386.298 173.73 383.379 174.121 380.584 174.993C381.794 175.471 383.063 175.783 384.358 175.919C385.07 175.954 385.777 176.054 386.471 176.219C387.706 176.587 388.95 177.536 390.143 177.05C390.882 176.748 391.124 175.978 391.736 175.57C392.159 175.288 393.764 174.832 393.943 174.547C395.393 172.247 391.602 173.022 390.487 173.171Z" fill="white"/>
<path d="M396.139 179.022C394.42 179.984 392.825 181.152 391.39 182.501C390.785 183.07 390.167 183.777 390.222 184.606C390.295 185.706 391.468 186.345 392.483 186.775L396.598 188.518C397.097 187.814 396.64 186.843 396.124 186.151C395.608 185.46 394.995 184.66 395.223 183.827C395.483 182.878 396.641 182.554 397.612 182.391C399.193 182.124 403.459 182.145 402.947 179.596C402.343 176.592 397.727 178.135 396.139 179.022Z" fill="white"/>
<path d="M395.31 349.028C394.918 350.162 394.881 351.499 395.559 352.489C396.319 353.6 397.84 354.014 399.157 353.733C400.468 353.384 401.636 352.632 402.498 351.584C403.285 350.706 403.933 349.712 404.419 348.637C405.097 346.961 405.575 345.211 405.843 343.424L407.121 336.715C407.406 335.216 407.395 330.619 404.64 332.116C403.887 332.526 402.145 335.756 401.356 336.672C399.934 338.323 399.746 339.925 398.998 341.925C398.06 344.431 396.176 346.519 395.31 349.028Z" fill="white"/>
<path d="M540.828 383.36C539.926 383.008 539.052 382.591 538.21 382.113C537.366 384.434 536.918 386.879 536.883 389.348L543.052 385.857C543.98 385.331 545.032 384.602 545.012 383.535C545.02 383.403 544.993 383.272 544.933 383.154C544.873 383.037 544.782 382.938 544.671 382.867C544.533 382.812 544.384 382.795 544.238 382.817C543.323 382.893 542.489 383.343 541.626 383.656C540.763 383.969 539.754 384.135 538.963 383.67" fill="white"/>
<path d="M573.37 385.431C572.693 385.615 572.031 385.852 571.391 386.141C569.976 386.861 569.013 388.23 567.739 389.179C566.52 390.087 565.052 390.585 563.612 391.07C563.188 391.445 563.382 392.199 563.843 392.529C564.337 392.81 564.904 392.938 565.472 392.895C566.968 392.928 568.545 392.942 569.856 392.219C570.595 391.74 571.286 391.191 571.92 390.581C573.453 389.301 575.294 388.457 577.116 387.642C577.779 387.391 578.392 387.024 578.927 386.559C580.072 385.43 580.152 383.69 578.501 383.306C577.167 382.995 574.64 385.02 573.37 385.431Z" fill="white"/>
<path d="M587.749 376.038C587.823 375.262 587.72 374.479 587.448 373.748C587.175 373.017 586.74 372.358 586.175 371.82C586.158 373.374 586.111 375.029 585.237 376.313C584.615 377.228 583.639 377.847 582.958 378.718C582.276 379.59 581.973 380.972 582.773 381.737C583.284 382.126 583.907 382.341 584.549 382.349C586.141 382.536 587.984 382.641 589.1 381.49C589.71 380.862 590.006 379.932 590.749 379.471C591.026 379.354 591.273 379.177 591.473 378.953C591.78 378.465 591.292 377.822 590.743 377.646C590.194 377.47 589.589 377.553 589.038 377.386C588.486 377.219 587.98 376.598 588.263 376.096" fill="white"/>
<path d="M562.194 319.085C561.359 319.288 560.494 319.339 559.641 319.235C558.223 318.975 557.12 317.906 555.976 317.03C553.256 314.959 549.949 313.803 546.532 313.73C543.422 313.671 540.284 314.514 537.23 313.926C537.43 315.036 538.38 315.868 539.393 316.363C540.406 316.858 541.524 317.107 542.542 317.591C544.172 318.375 545.466 319.721 546.184 321.382C546.512 322.147 546.719 322.98 547.215 323.649C548.23 325.015 550.155 325.315 551.853 325.203C554.067 325.058 556.379 324.421 558.439 325.246C560.015 325.877 561.142 327.257 562.458 328.329C563.774 329.402 565.627 330.198 567.138 329.424C565.568 328.916 564.203 327.919 563.24 326.58C562.277 325.24 561.767 323.628 561.785 321.978C563.267 322.114 567.534 322.062 567.304 319.543C567.11 317.409 563.466 318.854 562.194 319.085Z" fill="white"/>
<path d="M542.811 336.448C543.074 335.005 544.513 333.73 544.065 332.333C543.755 331.367 542.635 330.89 541.621 330.866C540.607 330.843 539.61 331.145 538.597 331.173C537.937 331.138 537.275 331.148 536.616 331.201C534.604 331.532 533.363 333.642 531.466 334.393C530.313 334.849 529.017 334.762 527.818 335.077C525.095 335.793 523.372 338.367 521.468 340.442C518.393 343.78 514.386 346.117 509.968 347.151C508.42 347.509 506.755 347.739 505.525 348.744C503.895 350.076 503.494 352.359 503.131 354.433C502.13 360.159 500.599 365.78 498.559 371.224L505.024 372.05C506.253 372.207 507.527 372.36 508.712 371.996C509.572 371.671 510.387 371.237 511.137 370.704C514.016 368.916 517.239 367.752 520.597 367.288C522.29 367.056 524.065 367.013 525.654 367.643C527.243 368.272 528.606 369.7 528.739 371.404C529.426 371.19 530.158 371.167 530.858 371.337C531.557 371.507 532.197 371.864 532.709 372.37C533.721 373.402 534.384 374.725 534.604 376.154C534.774 377.039 534.945 378.099 535.766 378.47C536.435 378.773 537.203 378.447 537.936 378.388C540.422 378.189 542.484 381.089 544.928 380.589C547.548 380.054 548.191 376.129 550.748 375.342C552.216 374.891 554.275 375.44 554.978 374.074C555.598 372.87 554.362 371.48 554.489 370.132C554.646 368.472 556.604 367.767 558.113 367.059C563.316 364.617 565.785 357.612 563.264 352.446C561.77 349.385 558.83 346.976 558.288 343.613C557.87 341.026 558.89 338.009 557.241 335.973C556.402 334.937 554.981 334.365 554.482 333.129C554.168 332.351 554.294 331.468 554.125 330.646C553.956 329.824 553.239 328.964 552.428 329.177C550.072 329.796 549.321 337.074 548.06 338.843C546.143 341.531 542.207 339.76 542.811 336.448Z" fill="white"/>
<path d="M499.274 321.834C498.469 321.608 497.59 321.386 496.819 321.709C496.048 322.031 495.597 323.164 496.216 323.726C501.059 323.537 505.931 323.35 510.732 324.008C516.264 324.766 521.739 326.643 527.296 326.091C524.122 325.154 520.895 324.405 517.633 323.848L512.194 322.809C510.735 322.503 509.26 322.275 507.777 322.126C504.674 321.87 502.325 322.69 499.274 321.834Z" fill="white"/>
<path d="M504.121 304.963C503.719 304.93 503.221 304.901 503.013 305.247C502.814 305.577 503.041 306.013 502.935 306.384C502.789 306.89 502.126 307.019 501.604 306.95C501.082 306.881 500.517 306.716 500.055 306.968C499.82 307.129 499.644 307.361 499.552 307.63C499.461 307.898 499.459 308.19 499.547 308.46C499.736 308.996 500.042 309.484 500.443 309.888C501.127 310.75 501.906 311.532 502.766 312.219C504.43 313.448 506.685 314.04 507.733 315.824C507.881 316.169 508.108 316.475 508.397 316.717C508.9 317.036 509.556 316.793 510.098 316.545L511.997 315.677C512.339 315.554 512.645 315.346 512.885 315.073C513.319 314.484 513.053 313.647 512.688 313.013C512.324 312.378 511.858 311.722 511.936 310.994C512.075 309.698 513.743 309.201 514.428 308.092C515.119 306.973 514.669 305.532 514.749 304.22C514.842 302.685 515.806 300.689 514.255 299.542C512.936 298.567 511.676 299.468 510.73 300.544C508.734 302.813 507.79 305.27 504.121 304.963Z" fill="white"/>
<path d="M515.649 282.031C516.298 283.273 517.65 284.014 518.357 285.224C519.123 286.534 519.036 288.228 519.867 289.499C520.72 290.802 522.437 291.494 522.915 292.977C523.438 294.596 522.253 296.563 523.197 297.978C523.373 298.209 523.596 298.401 523.85 298.542C524.104 298.683 524.385 298.769 524.674 298.796C524.964 298.822 525.255 298.788 525.531 298.696C525.807 298.604 526.06 298.456 526.276 298.261C526.674 297.827 526.887 297.255 526.869 296.666C526.852 296.077 526.606 295.519 526.182 295.109C525.623 294.599 524.82 294.379 524.353 293.783C524.11 293.439 523.948 293.045 523.879 292.629C523.625 291.431 523.665 290.188 523.998 289.009C524.123 288.709 524.155 288.379 524.089 288.062C523.879 287.45 523.051 287.407 522.471 287.123C521.152 286.479 521.184 284.617 521.414 283.168C521.261 284.133 517.823 282.491 517.463 281.944C516.748 280.858 517.137 278.763 516.996 277.562C515.452 278.307 514.857 280.513 515.649 282.031Z" fill="white"/>
<path d="M481.02 301.14C480.385 300.429 479.429 299.686 478.579 300.114C477.93 300.441 477.751 301.339 478.006 302.02C478.316 302.682 478.793 303.251 479.39 303.671C481.162 305.133 483.071 306.453 484.618 308.153C487.385 311.195 488.851 315.3 491.861 318.102C492.466 318.752 493.267 319.186 494.142 319.337C495.019 319.419 496.003 318.857 496.104 317.982C496.187 317.261 495.685 316.616 495.194 316.082C494.025 314.81 492.745 313.639 491.641 312.31C491.131 311.799 490.811 311.13 490.733 310.413C490.727 309.697 491.38 308.948 492.073 309.125C491.23 308.909 490.604 307.504 489.367 307.24C488.333 307.02 488.083 307.66 486.852 307.132C484.505 306.125 482.663 302.98 481.02 301.14Z" fill="white"/>
<path d="M536.173 231.963C535.499 231.763 534.837 231.527 534.19 231.255C532.447 230.731 530.141 232.013 530.373 233.818C530.528 235.017 531.644 235.826 532.26 236.866C533.174 238.409 532.93 240.366 532.45 242.094C532.332 242.629 532.108 243.135 531.79 243.581C531.347 244.053 530.817 244.434 530.229 244.705C527.875 246.025 525.8 247.789 524.117 249.899C523.934 250.093 523.807 250.334 523.748 250.595C523.665 251.204 524.277 251.648 524.624 252.156C525.393 253.286 524.837 254.805 524.913 256.169C524.901 256.362 524.939 256.555 525.023 256.729C525.106 256.903 525.233 257.053 525.391 257.165C525.854 257.4 526.404 257 526.655 256.545C527.489 255.034 526.861 252.608 528.425 251.879C528.721 251.741 529.08 251.683 529.277 251.423C529.591 251.011 529.288 250.4 529.447 249.907C529.685 249.167 530.698 249.133 531.474 249.166C532.813 249.222 534.15 249.044 535.427 248.64C535.928 248.521 536.383 248.257 536.735 247.882C537.203 247.298 537.162 246.468 537.068 245.726C536.6 242.026 535.428 238.449 533.616 235.189C534.99 235.365 536.485 235.517 537.671 234.801C538.335 234.4 539.132 233.2 538.802 232.384C538.281 231.092 537.341 232.179 536.173 231.963Z" fill="white"/>
<path d="M359.996 252.311C360.161 253.193 360.322 254.122 360.033 254.972C359.744 255.821 358.835 256.531 357.976 256.271C357.31 256.069 356.925 255.399 356.452 254.888C353.82 252.046 347.883 253.691 346.258 250.176C345.594 248.741 346.045 247.022 345.593 245.507C345.307 244.632 344.739 243.876 343.978 243.359C343.216 242.841 342.304 242.592 341.386 242.649C340.548 242.77 339.732 243.013 338.965 243.371C333.825 245.43 328.429 246.78 322.926 247.384C321.88 247.448 320.845 247.636 319.844 247.945C317.584 248.764 316.04 250.86 314.941 252.999C313.842 255.137 313.031 257.452 311.558 259.352C310.01 261.349 307.84 262.747 305.816 264.259C305.037 264.762 304.387 265.442 303.922 266.245C303.483 267.146 303.508 268.194 303.542 269.196L303.956 281.361C304.009 282.925 304.076 284.546 304.776 285.946C305.65 287.695 307.377 288.84 308.575 290.385C309.798 291.972 310.435 293.934 310.379 295.937C310.353 296.742 310.273 297.695 310.9 298.2C311.282 298.448 311.728 298.576 312.182 298.569L328.634 299.916C331.528 300.153 334.735 300.543 336.625 302.748C337.516 303.789 338.233 305.286 339.598 305.397C340.184 305.445 340.754 305.205 341.34 305.158C342.819 305.041 344.117 306.164 344.937 307.4C346.178 309.284 346.741 311.534 346.534 313.781C346.4 315.191 345.962 316.562 345.868 317.976C345.51 323.354 350.068 328.027 350.156 333.416C350.208 336.586 348.704 339.548 347.237 342.359C349.604 345.946 347.666 350.724 348.608 354.917C349.502 358.896 352.819 362.011 353.645 366.004C354.024 367.833 354.046 370.082 355.657 371.024C356.364 371.369 357.148 371.526 357.934 371.48C362.671 371.536 367.354 370.47 371.601 368.368C373.593 367.379 375.659 365.902 376.007 363.704C376.288 361.931 375.389 359.949 376.303 358.405C377.381 356.585 380.142 356.729 381.728 355.33C384.301 353.061 382.295 348.732 383.337 345.463C384.274 342.524 387.5 340.963 389.099 338.326C389.728 337.192 390.179 335.968 390.437 334.696C391.17 331.658 391.626 328.56 391.8 325.44C391.842 323.544 391.982 321.651 392.218 319.77C393.942 309.057 404.53 301.884 407.967 291.593C408.295 290.61 408.45 289.301 407.575 288.745C407.057 288.498 406.469 288.436 405.911 288.571L398.327 289.527C397.385 289.646 396.387 289.757 395.521 289.366C394.656 288.974 394.036 287.88 394.495 287.048C395.783 284.714 393.134 281.765 391.957 279.374C388.786 272.934 385.011 266.81 380.682 261.084C380.405 260.79 380.232 260.413 380.188 260.011L382.34 260.083C381.614 257.475 380.415 254.621 377.882 253.667C376.455 253.13 374.874 253.316 373.351 253.399C368.989 253.637 364.313 252.978 359.996 252.311Z" fill="white"/>
<path d="M373.355 193.546C374.496 194.759 375.775 196.044 377.427 196.255C380.343 196.629 382.441 193.612 383.776 190.991C383.825 191.659 384.133 192.282 384.635 192.726C385.136 193.17 385.79 193.402 386.459 193.371C387.179 193.25 387.867 192.981 388.478 192.581C394.257 189.422 400.73 187.749 407.316 187.71C407.253 187.211 407.376 186.707 407.663 186.293C407.95 185.88 408.38 185.588 408.87 185.473C410.209 185.208 411.415 186.366 412.061 187.569C412.707 188.771 413.109 190.166 414.136 191.066C415.162 191.966 417.149 191.927 417.554 190.623C417.943 189.372 416.639 188.304 415.556 187.566C414.473 186.828 413.332 185.462 414.061 184.373C419.594 183.148 425.162 181.918 430.824 181.675C431.788 181.708 432.749 181.543 433.646 181.188C434.51 180.765 435.196 179.802 434.964 178.869C433.728 179.159 432.434 179.075 431.246 178.627C430.059 178.179 429.031 177.387 428.295 176.353C436.152 175.704 444.508 175.152 451.471 178.849C452.307 180.644 448.048 182.136 449.188 183.755C449.551 184.271 450.279 184.331 450.91 184.343C455.749 184.433 460.615 184.521 465.399 183.79C467.147 183.523 468.913 183.146 470.668 183.363C473.592 183.723 476.092 185.675 478.969 186.311C480.139 186.57 481.452 186.579 482.439 185.897C483.425 185.216 483.85 183.666 483.041 182.78C485.749 180.125 490.243 180.783 493.816 182.054C497.389 183.325 500.773 185.375 504.554 185.658C507.266 185.862 510.015 185.132 512.694 185.596C514.378 185.887 515.945 186.636 517.59 187.097C520.703 187.967 523.995 187.783 527.226 187.825C535.471 187.936 543.626 189.557 551.287 192.608C552.284 192.932 553.197 193.472 553.962 194.188C554.675 194.952 555.038 196.138 554.559 197.067L546.643 195.91C547.389 197.378 549.318 197.629 550.885 198.135C552.452 198.642 554.077 200.373 553.135 201.724C551.437 201.184 549.899 202.882 549.041 204.444C548.183 206.006 547.138 207.877 545.359 207.972C543.765 208.058 541.838 206.701 540.8 207.912C542.235 209.723 543.463 211.688 544.463 213.77C545.489 215.909 546.22 218.603 544.833 220.527C544.615 220.87 544.284 221.127 543.897 221.253C542.765 221.539 542.029 220.154 541.216 219.313C540.193 218.255 538.645 217.955 537.259 217.459C535.873 216.962 534.413 215.986 534.304 214.517C534.237 213.603 534.719 212.754 535.074 211.909C535.671 210.486 535.933 208.944 535.837 207.403C535.76 206.163 535.412 204.874 534.522 204.008C533.632 203.142 532.096 202.867 531.14 203.66C530.694 204.03 530.337 204.622 529.758 204.644C528.735 204.684 527.95 202.9 527.127 203.509C527.223 204.158 527.089 204.82 526.747 205.379C524.291 207.516 520.518 206.612 517.352 207.367C515.846 207.798 514.405 208.427 513.066 209.239C512.565 209.453 512.138 209.811 511.84 210.268C511.445 211.036 511.881 212.02 512.578 212.531C513.316 212.984 514.146 213.267 515.008 213.361C518.868 214.092 522.784 215.224 525.832 217.704C528.879 220.184 530.877 224.283 529.913 228.092L522.301 220.817C522.59 223.872 522.754 226.935 522.793 230.006C522.843 230.606 522.76 231.209 522.552 231.774C522.009 232.973 520.539 233.376 519.25 233.641C518.891 233.709 518.551 233.852 518.252 234.061C517.953 234.27 517.701 234.54 517.514 234.853C517.326 235.166 517.207 235.515 517.164 235.878C517.121 236.24 517.155 236.608 517.264 236.956C517.722 238.449 518.864 239.613 519.909 240.773C520.955 241.932 521.983 243.251 522.12 244.806C522.257 246.362 521.084 248.115 519.526 248.007C518.346 247.925 517.47 246.868 516.966 245.797C516.463 244.725 516.163 243.532 515.406 242.622C513.116 239.866 507.972 241.047 505.92 238.11C505.397 238.703 505.035 239.42 504.867 240.193C504.699 240.966 504.731 241.769 504.961 242.526C505.915 241.929 507.222 242.484 507.939 243.352C508.656 244.221 508.994 245.334 509.558 246.31C510.318 247.626 511.527 248.793 511.633 250.309C511.605 250.882 511.615 251.457 511.662 252.029C511.85 252.948 512.627 253.607 513.165 254.375C514.417 256.162 514.356 258.617 513.548 260.644C512.741 262.671 511.291 264.365 509.854 266.008C507.345 268.876 504.785 271.728 501.811 274.111C500.962 274.79 500.056 275.459 499.528 276.409C498.999 277.359 498.972 278.693 499.784 279.416C499.203 279.445 498.161 279.731 497.579 279.761C497.375 277.428 497.331 275.085 497.446 272.746C495.153 271.645 492.683 274.595 492.979 277.123C493.275 279.651 495.103 281.679 496.404 283.866C497.356 285.466 498.063 287.33 497.745 289.164C497.428 290.998 495.791 292.69 493.938 292.528C490.989 292.271 489.756 288.037 486.836 287.552C486.579 287.492 486.308 287.519 486.068 287.629C485.634 287.867 485.559 288.447 485.535 288.941C485.415 291.365 485.312 293.885 486.258 296.12C487.642 299.39 491.217 302.136 490.467 305.607C486.427 303.728 484.326 299.196 483.372 294.842C482.419 290.489 482.26 285.919 480.55 281.803C479.252 283.468 476.523 282.092 475.337 280.346C474.212 278.69 473.52 276.775 472.429 275.097C471.338 273.42 469.666 271.917 467.667 271.825C465.572 271.728 463.754 273.167 462.156 274.526C460.842 275.644 459.492 276.805 458.724 278.35C457.606 280.599 457.898 283.249 457.844 285.759C457.786 288.473 457.211 291.337 455.362 293.324C453.513 295.31 450.099 296.002 448.06 294.212C446.995 293.277 446.479 291.88 446.02 290.54C443.806 284.077 441.963 277.493 440.498 270.821C440.155 272.344 438.818 274.307 437.541 273.41C437.255 273.169 437.022 272.869 436.86 272.532C434.478 268.493 430.066 266.07 425.608 264.618C421.15 263.165 416.46 262.488 412.052 260.891C409.582 259.996 407.222 258.821 405.02 257.387C404.459 258.213 404.131 259.174 404.071 260.17C404.012 261.167 404.223 262.16 404.682 263.046C405.66 264.778 407.873 265.78 409.767 265.175C410.746 264.862 411.572 264.182 412.543 263.847C413.515 263.511 414.818 263.676 415.243 264.612C415.649 265.508 415.035 266.591 415.34 267.527C415.804 268.952 417.952 269.061 418.703 270.358C419.262 271.322 418.802 272.603 418.004 273.382C417.206 274.16 416.142 274.587 415.168 275.129C412.007 276.887 409.759 279.888 406.997 282.223C404.235 284.558 400.338 286.262 397.046 284.765C397.83 280.79 393.097 277.872 392.226 273.916C391.94 272.613 392.088 271.23 391.679 269.961C391.087 268.124 389.457 266.86 388.12 265.468C386.498 263.761 385.235 261.746 384.405 259.542C383.574 257.339 383.193 254.991 383.285 252.638C383.357 251.003 383.657 249.341 383.285 247.747C382.912 246.153 381.593 244.611 379.958 244.683C376.224 244.848 371.521 245.126 369.562 241.942C368.863 240.806 368.558 239.141 369.569 238.271C370.282 237.657 371.335 237.715 372.271 237.807L380.684 238.635C382.652 238.828 384.779 238.988 386.467 237.959C388.156 236.93 388.887 234.199 387.324 232.988C386.181 232.104 384.135 232.152 383.803 230.746C383.526 229.574 384.822 228.245 384.122 227.267C383.62 226.565 382.492 226.76 381.808 227.286C381.124 227.812 380.628 228.581 379.863 228.98C378.521 229.678 376.917 229.013 375.472 228.561C374.028 228.109 372.092 228.071 371.391 229.413C370.608 230.913 372.086 232.88 371.309 234.383C370.281 236.371 366.8 235.239 365.356 236.95C363.699 238.912 366.483 241.838 365.924 244.344C365.211 244.698 364.419 244.86 363.624 244.815C362.829 244.771 362.06 244.521 361.39 244.09C360.732 243.642 360.208 243.024 359.873 242.302C359.537 241.58 359.404 240.78 359.487 239.988C359.626 238.86 360.213 237.709 359.82 236.644C359.501 235.782 358.636 235.269 357.832 234.825L349.657 230.306C348.898 231.714 349.858 233.46 351.058 234.518C352.258 235.576 353.761 236.373 354.549 237.765C355.048 238.73 355.16 239.848 354.862 240.892C354.564 241.937 353.879 242.828 352.946 243.384C352.829 243.464 352.696 243.519 352.557 243.543C352.417 243.567 352.273 243.561 352.136 243.525C352.005 243.448 351.892 243.346 351.801 243.225C351.711 243.103 351.646 242.965 351.61 242.818C350.168 239.126 348.002 235.485 344.54 233.556C341.077 231.628 336.102 232.024 333.832 235.273C333.293 236.045 332.931 236.925 332.461 237.741C329.965 242.076 324.614 244.128 319.615 243.994C319.126 244.021 318.639 243.907 318.213 243.665C317.405 243.107 317.442 241.922 317.565 240.948L318.09 236.813C318.196 235.983 318.348 235.065 319.005 234.546C319.931 233.816 321.267 234.277 322.447 234.26C323.34 234.218 324.2 233.902 324.908 233.356C325.616 232.809 326.139 232.058 326.406 231.204C326.644 230.341 326.642 229.43 326.401 228.569C326.16 227.707 325.689 226.928 325.037 226.314C324.497 225.806 323.771 225.168 324.057 224.484C324.171 224.294 324.325 224.132 324.508 224.009C324.691 223.885 324.899 223.804 325.118 223.769C327.236 223.154 329.475 222.992 331.558 222.266C333.641 221.54 335.662 220.055 336.155 217.904C336.306 217.245 336.375 216.446 336.967 216.12C337.264 215.994 337.583 215.929 337.905 215.928C339.035 215.767 340.063 215.189 340.788 214.308C341.513 213.427 341.881 212.306 341.822 211.167C342.82 210.469 344.219 210.982 345.185 211.724C346.15 212.467 347.003 213.447 348.178 213.767C350.369 214.363 352.485 212.424 354.755 212.415C355.71 212.411 356.698 212.748 357.596 212.425C358.506 212.097 359.05 211.19 359.748 210.52C360.447 209.851 361.673 209.442 362.318 210.164L361.769 206.093C362.875 206.373 364.029 206.412 365.152 206.209C366.275 206.006 367.341 205.565 368.28 204.916L361.179 202.516C360.932 202.454 360.704 202.332 360.515 202.161C359.999 201.605 360.512 200.738 360.932 200.106C361.936 198.594 362.104 196.104 360.453 195.351C359.326 194.837 358.032 195.454 356.95 196.057L351.768 198.948C351.603 199.933 352.808 200.492 353.554 201.155C354.006 201.557 354.325 202.086 354.471 202.672C354.617 203.259 354.582 203.876 354.37 204.442C354.159 205.008 353.781 205.497 353.287 205.845C352.793 206.193 352.205 206.383 351.601 206.39C351.942 206.834 352.179 207.349 352.295 207.897C352.41 208.445 352.401 209.012 352.267 209.555L348.78 209.806C348.389 209.885 347.983 209.806 347.649 209.585C347.277 209.254 347.327 208.674 347.241 208.182C347.032 206.996 345.871 206.165 344.686 205.952C343.501 205.739 342.289 206.012 341.116 206.282C340.618 206.461 340.071 206.448 339.581 206.246C339.301 206.064 339.088 205.795 338.974 205.48C338.46 204.232 338.941 202.766 339.767 201.699C340.593 200.632 341.724 199.852 342.74 198.964C345.168 196.832 346.953 194.064 347.892 190.971C349.811 190.167 351.798 189.074 353.718 188.269C356.677 186.77 359.996 186.127 363.301 186.412L369.801 186.536C371.726 186.573 373.703 186.62 375.482 187.354C377.262 188.088 378.826 189.675 378.949 191.597C378.986 191.814 378.967 192.038 378.894 192.246C378.821 192.454 378.697 192.641 378.532 192.787C378.281 192.925 377.996 192.989 377.71 192.973C375.915 193.036 375.15 193.483 373.355 193.546Z" fill="white"/>
<path d="M321.54 213.922C321.794 213.681 321.977 213.376 322.068 213.038C322.16 212.7 322.156 212.344 322.059 212.008C321.441 211.77 320.768 211.708 320.117 211.831C319.467 211.954 318.863 212.257 318.374 212.704C317.989 213.094 317.657 213.533 317.387 214.009C316.533 215.403 315.778 217.068 316.273 218.627C316.313 218.797 316.387 218.957 316.49 219.098C316.593 219.239 316.723 219.358 316.873 219.448C317.095 219.537 317.334 219.574 317.572 219.557C318.513 219.556 319.453 219.498 320.388 219.384C320.961 219.314 321.627 219.152 321.849 218.618C322.14 217.916 321.435 217.122 321.641 216.391C321.776 216.064 321.981 215.77 322.241 215.53C322.371 215.41 322.47 215.26 322.531 215.095C322.593 214.929 322.615 214.751 322.596 214.575C322.513 214.232 321.987 214.037 321.798 214.335" fill="white"/>
<path d="M326.422 207.594C325.586 207.402 324.724 207.348 323.87 207.434C323.682 207.428 323.495 207.471 323.327 207.558C323.164 207.678 323.046 207.848 322.992 208.043C322.812 208.622 322.856 209.247 323.116 209.794C323.376 210.342 323.833 210.771 324.395 210.997C324.701 211.068 324.995 211.186 325.265 211.347C325.987 211.907 325.527 213.051 325.663 213.954C325.817 214.969 326.798 215.82 326.618 216.83C326.476 217.625 325.627 218.255 325.764 219.052C325.907 219.886 326.965 220.137 327.809 220.203C328.298 220.289 328.801 220.231 329.257 220.037C329.715 219.724 330.041 219.252 330.172 218.713C330.517 217.685 330.662 216.6 330.599 215.517C330.595 215.025 330.472 214.541 330.239 214.107C329.985 213.763 329.703 213.44 329.397 213.142C327.781 211.262 329.482 208.457 326.422 207.594Z" fill="white"/>
<path opacity="0.8" d="M538.937 354.897C538.937 354.897 415.158 283.827 361.87 297.293C361.87 297.293 248.936 309.45 235.847 336.195C235.847 336.195 199.948 223.979 186.859 220.238" stroke="#D7DF23" stroke-width="2" stroke-miterlimit="10"/>
<path opacity="0.8" d="M235.847 336.197C256.602 280.837 443.578 219.492 443.578 219.492C417.028 226.225 361.87 297.295 361.87 297.295C361.87 297.295 245.196 212.385 186.859 220.24C186.859 220.24 443.765 228.656 538.937 354.899" stroke="#D7DF23" stroke-width="2" stroke-miterlimit="10"/>
<path d="M186.86 225.664C189.854 225.664 192.282 223.236 192.282 220.24C192.282 217.245 189.854 214.816 186.86 214.816C183.865 214.816 181.438 217.245 181.438 220.24C181.438 223.236 183.865 225.664 186.86 225.664Z" fill="#D7DF23"/>
<path d="M235.848 341.617C238.843 341.617 241.27 339.189 241.27 336.193C241.27 333.198 238.843 330.77 235.848 330.77C232.853 330.77 230.426 333.198 230.426 336.193C230.426 339.189 232.853 341.617 235.848 341.617Z" fill="#D7DF23"/>
<path d="M443.579 224.914C446.573 224.914 449.001 222.486 449.001 219.49C449.001 216.495 446.573 214.066 443.579 214.066C440.584 214.066 438.156 216.495 438.156 219.49C438.156 222.486 440.584 224.914 443.579 224.914Z" fill="#D7DF23"/>
<path d="M538.938 360.32C541.933 360.32 544.36 357.892 544.36 354.896C544.36 351.901 541.933 349.473 538.938 349.473C535.943 349.473 533.516 351.901 533.516 354.896C533.516 357.892 535.943 360.32 538.938 360.32Z" fill="#D7DF23"/>
<path d="M361.87 302.719C364.864 302.719 367.292 300.29 367.292 297.295C367.292 294.299 364.864 291.871 361.87 291.871C358.875 291.871 356.447 294.299 356.447 297.295C356.447 300.29 358.875 302.719 361.87 302.719Z" fill="#D7DF23"/>
</g>
<defs>
<filter id="filter0_d_745_574" x="0" y="0" width="763" height="605" filterUnits="userSpaceOnUse" color-interpolation-filters="sRGB">
<feFlood flood-opacity="0" result="BackgroundImageFix"/>
<feColorMatrix in="SourceAlpha" type="matrix" values="0 0 0 0 0 0 0 0 0 0 0 0 0 0 0 0 0 0 127 0" result="hardAlpha"/>
<feOffset dx="50" dy="50"/>
<feComposite in2="hardAlpha" operator="out"/>
<feColorMatrix type="matrix" values="0 0 0 0 0.843137 0 0 0 0 0.87451 0 0 0 0 0.137255 0 0 0 1 0"/>
<feBlend mode="normal" in2="BackgroundImageFix" result="effect1_dropShadow_745_574"/>
<feBlend mode="normal" in="SourceGraphic" in2="effect1_dropShadow_745_574" result="shape"/>
</filter>
</defs>
</svg>
