<svg width="24" height="24" viewBox="0 0 24 24" fill="none" xmlns="http://www.w3.org/2000/svg">
<path d="M18 5.74719V11.6204C18 11.7014 17.9565 11.7757 17.8868 11.8154L12.75 14.7509V8.74719L18 5.74719Z" fill="#9EA5AF"/>
<path d="M6.76501 4.4572L11.8883 1.5292C11.9573 1.48945 12.042 1.48945 12.1118 1.5292L17.235 4.4572L12 7.4482L6.76501 4.4572Z" fill="#9EA5AF"/>
<path d="M11.25 14.7509L6.11325 11.8154C6.0435 11.7757 6 11.7014 6 11.6204V5.74719L11.25 8.74719V14.7509Z" fill="#9EA5AF"/>
<path d="M21 21H14.112C13.8022 21.8723 12.978 22.5 12 22.5C11.022 22.5 10.1978 21.8723 9.888 21H3V19.5H9.888C10.1145 18.864 10.614 18.3637 11.25 18.138V15.75H12.75V18.138C13.386 18.3645 13.8862 18.864 14.112 19.5H21V21Z" fill="#9EA5AF"/>
</svg>
