<svg width="24" height="24" viewBox="0 0 24 24" fill="none" xmlns="http://www.w3.org/2000/svg">
<path d="M13.345 11.8336V11.1256C13.345 10.3768 12.7576 9.73547 12.0086 9.73547H11.9915C11.2425 9.73547 10.6013 10.3767 10.6013 11.1256V11.8336H13.345Z" fill="#7966FA"/>
<path d="M20.4851 12.3455C20.5644 12.0026 20.6076 11.6458 20.6076 11.2787C20.6076 8.67152 18.4941 6.55801 15.8869 6.55801C15.1841 6.55801 14.5177 6.71279 13.9185 6.9882C12.8511 5.39106 11.0323 4.33887 8.9672 4.33887C5.72152 4.33887 3.08461 6.93761 3.019 10.1675C1.24563 10.9146 0 12.6757 0 14.721C0 17.4446 2.20793 19.6611 4.93175 19.6611C7.52742 19.6611 18.7402 19.6611 20.349 19.6611C22.3654 19.6611 24 18.0181 24 16.0016C24 14.0308 22.4384 12.4173 20.4851 12.3455ZM14.9589 16.2506C14.9589 17.1405 14.3022 17.8858 13.4123 17.8858H10.5879C9.69798 17.8858 8.90668 17.1406 8.90668 16.2506V13.4262C8.90668 12.9835 9.06807 12.5873 9.39085 12.3007V11.1256C9.39085 9.70928 10.575 8.52498 11.9914 8.52498H12.0086C13.4251 8.52498 14.5555 9.70928 14.5555 11.1256V12.3461C14.7976 12.6286 14.959 13.006 14.959 13.4262L14.9589 16.2506Z" fill="#7966FA"/>
<path d="M10.8236 14.1813C10.8236 14.5845 11.0049 14.9397 11.3276 15.1483V16.0817C11.3276 16.4003 11.6144 16.6583 11.933 16.6583C12.2515 16.6583 12.5381 16.4003 12.5381 16.0817V15.1973C12.8609 14.9986 13.1496 14.6181 13.1496 14.1812C13.1496 13.5389 12.6289 13.0182 11.9866 13.0182C11.3444 13.0183 10.8236 13.539 10.8236 14.1813Z" fill="#7966FA"/>
</svg>
