<svg width="150" height="108" viewBox="0 0 150 108" fill="none" xmlns="http://www.w3.org/2000/svg">
<rect width="150" height="107.937" rx="10" fill="#353D4E"/>
<g clip-path="url(#clip0_3453_328)">
<path d="M51.1147 61.6917C51.1088 62.1488 50.7382 62.5156 50.2843 62.5137H43.3575C42.0057 62.5137 40.8343 63.2799 40.1754 64.4922C39.8901 64.9973 39.3578 65.3097 38.7807 65.3105H38.179C37.5651 65.2988 37.005 64.9552 36.7129 64.4112C36.1051 63.2471 34.9062 62.5189 33.6004 62.5209H26.1004C25.6465 62.5229 25.2759 62.156 25.27 61.6989V51.5366C25.2608 51.3193 25.3384 51.1073 25.4853 50.9478C25.6322 50.7883 25.8363 50.6947 26.0522 50.6876H33.5986C34.9504 50.6876 36.1236 51.4539 36.779 52.6661C37.0654 53.1718 37.5992 53.4836 38.1772 53.4827H38.779C39.3929 53.471 39.953 53.1274 40.245 52.5834C40.8531 51.4196 42.0518 50.6915 43.3575 50.6931H50.3218C50.5371 50.694 50.7432 50.7815 50.894 50.9363C51.045 51.091 51.1282 51.2999 51.1254 51.5168L51.1147 61.6917ZM51.9861 31.2948C51.9117 31.2831 51.8365 31.2771 51.7611 31.2768C51.3154 31.2772 50.8949 31.485 50.6218 31.8398L46.7504 36.6853C45.8392 37.5862 44.4819 37.8518 43.3022 37.36C42.1224 36.8681 41.3485 35.714 41.3361 34.428C41.354 31.1319 38.8384 28.383 35.5754 28.1328C35.4267 28.1323 35.2841 28.1921 35.1796 28.2987C35.0752 28.4052 35.0176 28.5496 35.02 28.6994V32.7697V34.4154C35.0262 35.2568 34.6988 36.0659 34.1105 36.6633C33.5221 37.2606 32.7215 37.5968 31.8861 37.5972C31.0458 37.598 30.2385 37.2682 29.6361 36.6781L25.7683 31.8344C25.4946 31.4793 25.0735 31.2715 24.6272 31.2714C24.5518 31.2717 24.4766 31.2778 24.4022 31.2894C21.8665 31.6707 20.0879 33.8291 20.0879 36.4389V62.4867C20.0879 65.3674 22.4064 67.7027 25.2665 67.7027H51.1272C53.9872 67.7027 56.3057 65.3674 56.3057 62.4867V36.4479C56.3057 33.8381 54.52 31.6779 51.9914 31.2984L51.9861 31.2948Z" fill="white"/>
<path d="M103.033 44.5977H101.695V50.7058H103.033V44.5977Z" fill="white"/>
<path d="M66.9278 61.6184C65.7652 61.6184 65.2493 60.5771 65.2493 59.5266C65.2493 58.4295 65.694 57.3053 66.9509 57.3053C67.9814 57.3053 68.6277 58.1093 68.6277 59.4637C68.6277 60.5267 68.1242 61.622 66.9295 61.622L66.9278 61.6184ZM68.5723 57.1992C68.1383 56.5265 67.2937 56.2442 66.5313 56.2442C65.2062 56.2442 63.9062 57.2118 63.9062 59.4205C63.9062 61.2497 64.8314 62.6796 66.7419 62.6796C67.5043 62.6796 68.267 62.3847 68.6188 61.6868L68.6439 62.5142H69.9098V54.084H68.5723V57.1992Z" fill="white"/>
<path d="M88.2746 45.4972C89.178 45.4972 89.7532 46.2634 89.7997 47.1159H86.68C86.7137 46.2076 87.3494 45.4972 88.2746 45.4972ZM88.3104 50.8715C89.6351 50.8715 90.7603 50.1269 91.0549 48.7923H89.7869C89.5532 49.4668 89.0834 49.8067 88.3104 49.8067C87.1959 49.8067 86.68 48.9578 86.68 48.0081H91.1354C91.3584 46.1789 90.1851 44.4414 88.278 44.4414C86.4711 44.4414 85.3477 45.9288 85.3477 47.6682C85.3477 49.5441 86.4191 50.8805 88.3138 50.8805" fill="white"/>
<path d="M93.2577 47.799C93.2577 46.4536 93.9847 45.7072 94.8988 45.7072C95.0915 45.7159 95.2838 45.7362 95.4739 45.7683V44.4679C95.3072 44.4435 95.1388 44.4321 94.9704 44.4337C94.1505 44.4337 93.3524 45.1316 93.1989 45.7791L93.1759 44.5992H91.9258V50.7146H93.2633L93.2577 47.799Z" fill="white"/>
<path d="M72.0377 47.1018C72.0377 46.2025 72.6124 45.4956 73.5052 45.4956C74.2893 45.4956 74.6662 45.9093 74.6892 46.8644V50.7063H76.0267V46.5118C76.0267 45.1413 75.1927 44.4327 73.8838 44.4327C73.1087 44.4275 72.3894 44.8387 71.9963 45.5118L71.9733 44.5909H70.707V50.7063H72.0428L72.0377 47.1018Z" fill="white"/>
<path d="M66.4676 50.8697C67.1796 50.8584 67.834 50.473 68.1926 49.8534L68.2161 50.7042H69.5301V44.5889H68.1926V48.1321C68.1926 49.0782 67.8178 49.7977 66.7034 49.7977C65.9747 49.7977 65.5428 49.4092 65.5428 48.3336V44.5979H64.207V48.4721C64.207 50.0675 64.8875 50.8697 66.4697 50.8697" fill="white"/>
<path d="M103.033 42.2725H101.695V43.5477H103.033V42.2725Z" fill="white"/>
<path d="M106.992 45.4974C108.022 45.4974 108.669 46.2996 108.669 47.6468C108.669 48.7116 108.165 49.8051 106.969 49.8051C105.808 49.8051 105.292 48.7673 105.292 47.7151C105.292 46.6144 105.737 45.4956 106.994 45.4956L106.992 45.4974ZM106.785 50.8699C107.547 50.8699 108.31 50.5731 108.662 49.8789L108.685 50.7062H109.951V42.2725H108.615V45.3913C108.181 44.7168 107.337 44.4326 106.574 44.4326C105.249 44.4326 103.949 45.4021 103.949 47.6108C103.949 49.44 104.874 50.8699 106.785 50.8699Z" fill="white"/>
<path d="M82.8949 50.7058L85.0625 44.5977H83.6803L82.2021 49.2867L80.6429 44.5977H79.1895L81.3929 50.7058H82.8949Z" fill="white"/>
<path d="M104.999 56.2802C104.833 56.2551 104.664 56.2431 104.496 56.2442C103.674 56.2442 102.878 56.9403 102.726 57.5896L102.701 56.4097H101.451V62.516H102.789V59.6095C102.789 58.264 103.515 57.5194 104.43 57.5194C104.622 57.5269 104.814 57.5467 105.004 57.5788L104.999 56.2802Z" fill="white"/>
<path d="M107.907 61.6185C106.712 61.6185 106.184 60.5195 106.184 59.4601C106.184 58.4007 106.719 57.3018 107.907 57.3018C109.094 57.3018 109.63 58.4007 109.63 59.4601C109.63 60.5195 109.103 61.6185 107.907 61.6185ZM107.907 56.2441C105.96 56.2441 104.846 57.5895 104.846 59.4565C104.846 61.3235 105.96 62.6815 107.907 62.6815C109.853 62.6815 110.967 61.3361 110.967 59.4565C110.967 57.577 109.855 56.2441 107.907 56.2441Z" fill="white"/>
<path d="M72.1812 58.9239C72.2149 58.0156 72.8489 57.3052 73.7741 57.3052C74.6989 57.3052 75.2506 58.0732 75.2988 58.9239H72.1812ZM73.7741 56.2422C71.9668 56.2422 70.8438 57.7296 70.8438 59.4653C70.8438 61.3449 71.9152 62.6795 73.8095 62.6795C75.1363 62.6795 76.2615 61.9348 76.5544 60.5984H75.2864C75.0527 61.2729 74.5829 61.6165 73.8078 61.6165C72.6954 61.6165 72.1812 60.7657 72.1812 59.8178H76.6345C76.8579 57.9868 75.6846 56.2512 73.7775 56.2512L73.7741 56.2422Z" fill="white"/>
<path d="M100.23 54.082H98.8926V55.3573H100.23V54.082Z" fill="white"/>
<path d="M125.433 47.1144C125.467 46.2043 126.101 45.4956 127.028 45.4956C127.954 45.4956 128.504 46.2636 128.553 47.1144H125.433ZM127.028 44.4326C125.221 44.4326 124.098 45.9201 124.098 47.6576C124.098 49.5354 125.169 50.87 127.064 50.87C128.39 50.87 129.515 50.1253 129.808 48.7907H128.542C128.308 49.4634 127.839 49.8051 127.064 49.8051C125.951 49.8051 125.435 48.9544 125.435 48.0065H129.891C130.114 46.1755 128.94 44.4398 127.033 44.4398L127.028 44.4326Z" fill="white"/>
<path d="M120.178 49.805C119.018 49.805 118.501 48.7672 118.501 47.715C118.501 46.6142 118.946 45.4955 120.203 45.4955C121.234 45.4955 121.879 46.2976 121.879 47.6448C121.879 48.7096 121.375 49.8032 120.178 49.8032V49.805ZM121.832 45.3875C121.398 44.713 120.553 44.4289 119.791 44.4289C118.466 44.4289 117.166 45.3983 117.166 47.6071C117.166 49.4363 118.091 50.8662 120.002 50.8662C120.764 50.8662 121.527 50.5694 121.879 49.8751L121.902 50.7025H123.168V42.2705H121.832V45.3875Z" fill="white"/>
<path d="M114.917 48.6486C114.917 49.4994 114.005 49.8051 113.417 49.8051C112.948 49.8051 112.187 49.6253 112.187 49.0245C112.187 48.3177 112.703 48.1054 113.276 48.0101C113.849 47.9148 114.506 47.9148 114.917 47.6504V48.6486ZM116.255 49.3465V46.2043C116.255 44.9183 115.005 44.4326 113.828 44.4326C112.492 44.4326 111.165 44.8931 111.071 46.4651H112.408C112.465 45.8032 112.994 45.4956 113.746 45.4956C114.282 45.4956 114.996 45.6251 114.996 46.323C114.996 47.1144 114.138 47.0083 113.18 47.1863C112.053 47.3158 110.846 47.5641 110.846 49.0875C110.846 50.28 111.83 50.8717 112.921 50.8717C113.635 50.8717 114.492 50.6469 115.021 50.1271C115.126 50.6829 115.513 50.8717 116.051 50.8717C116.338 50.8575 116.622 50.8055 116.896 50.717V49.7853C116.787 49.8029 116.677 49.8107 116.567 49.8087C116.323 49.8087 116.251 49.6792 116.251 49.3483L116.255 49.3465Z" fill="white"/>
<path d="M98.918 47.1016C97.9344 46.8768 96.9538 46.7815 96.9538 46.1214C96.9538 45.5818 97.6684 45.4954 98.0555 45.4954C98.6413 45.4954 99.17 45.6753 99.286 46.3084H100.681C100.516 44.9505 99.3896 44.4307 98.1467 44.4307C97.045 44.4307 95.6129 44.8443 95.6129 46.1789C95.6129 47.4182 96.5752 47.7725 97.5609 47.9775C98.5466 48.1826 99.5072 48.2833 99.5413 48.992C99.5754 49.7006 98.6984 49.796 98.1932 49.796C97.4791 49.796 96.8915 49.5136 96.8216 48.733H95.4824C95.5076 50.1719 96.643 50.8607 98.1612 50.8607C99.4109 50.8607 100.87 50.3212 100.87 48.8822C100.87 47.679 99.8841 47.3246 98.9056 47.0998" fill="white"/>
<path d="M84.1821 60.46C84.1821 61.3107 83.268 61.6183 82.6805 61.6183C82.2106 61.6183 81.45 61.4384 81.45 60.8377C81.45 60.129 81.9663 59.915 82.5411 59.8215C83.1162 59.7279 83.7715 59.7261 84.1821 59.4617V60.46ZM85.5179 61.156V58.0156C85.5179 56.7278 84.2678 56.2422 83.0911 56.2422C81.7553 56.2422 80.4289 56.7026 80.3377 58.2728H81.6734C81.7323 57.6127 82.2592 57.3052 83.0092 57.3052C83.5447 57.3052 84.2589 57.4347 84.2589 58.1307C84.2589 58.9221 83.4019 58.816 82.4413 58.9941C81.3161 59.1236 80.1074 59.3718 80.1074 60.8952C80.1074 62.0895 81.091 62.6795 82.1821 62.6795C82.8966 62.6795 83.7536 62.4529 84.2823 61.9348C84.3876 62.4906 84.7752 62.6795 85.3145 62.6795C85.6006 62.6643 85.8837 62.6129 86.1574 62.5266V61.5877C86.0487 61.6053 85.9387 61.6131 85.8287 61.6111C85.5823 61.6111 85.5128 61.4798 85.5128 61.1489L85.5179 61.156Z" fill="white"/>
<path d="M78.572 42.2725H77.2324V43.5477H78.572V42.2725Z" fill="white"/>
<path d="M78.572 44.5977H77.2324V50.7058H78.572V44.5977Z" fill="white"/>
<path d="M100.23 56.4092H98.8926V62.5155H100.23V56.4092Z" fill="white"/>
<path d="M89.1411 61.0982L87.5824 56.4092H86.1289L88.3323 62.5137H89.8339L92.002 56.4092H90.6197L89.1411 61.0982Z" fill="white"/>
<path d="M93.6207 58.9239C93.6544 58.0156 94.2867 57.3052 95.2153 57.3052C96.1439 57.3052 96.6917 58.0732 96.7382 58.9239H93.6207ZM95.2153 56.2422C93.4096 56.2422 92.2832 57.7296 92.2832 59.4653C92.2832 61.3449 93.3542 62.6795 95.2506 62.6795C96.5758 62.6795 97.7009 61.9348 97.9938 60.5984H96.7275C96.4939 61.2729 96.0258 61.6165 95.2506 61.6165C94.1349 61.6165 93.6207 60.7657 93.6207 59.8178H98.0757C98.2974 57.9868 97.1258 56.2512 95.2187 56.2512L95.2153 56.2422Z" fill="white"/>
</g>
<defs>
<clipPath id="clip0_3453_328">
<rect width="110" height="40" fill="white" transform="translate(20 28)"/>
</clipPath>
</defs>
</svg>
