<svg width="150" height="108" viewBox="0 0 150 108" fill="none" xmlns="http://www.w3.org/2000/svg">
<path d="M0 10C0 4.47715 4.47715 0 10 0H140C145.523 0 150 4.47715 150 10V97.9365C150 103.459 145.523 107.937 140 107.937H10C4.47715 107.937 0 103.459 0 97.9365V10Z" fill="#00B3EC"/>
<g clip-path="url(#clip0_3453_330)">
<path fill-rule="evenodd" clip-rule="evenodd" d="M57.1992 85.8271V85.7877C57.1992 83.3884 55.4062 81.4768 53.1063 81.4768C50.7474 81.4768 49.0507 83.4083 49.0507 85.7501V85.7877C49.0507 88.1885 50.8445 90.1001 53.1437 90.1001C55.5032 90.1001 57.1992 88.1689 57.1992 85.8271ZM48.0176 85.8271V85.7877C48.0176 82.9988 50.1816 80.58 53.1437 80.58C56.0892 80.58 58.2324 82.9601 58.2324 85.7501V85.7877C58.2324 88.5777 56.0683 90.9988 53.1063 90.9988C50.1622 90.9988 48.0176 88.6175 48.0176 85.8271ZM60.4669 85.8271V85.7877C60.4669 82.9988 62.6831 80.58 65.5211 80.58C67.3868 80.58 68.5534 81.4374 69.487 82.4139L68.8065 83.1141C67.9511 82.2384 66.9781 81.4768 65.5011 81.4768C63.2467 81.4768 61.4972 83.3689 61.4972 85.7501V85.7877C61.4972 88.1885 63.3048 90.1001 65.5792 90.1001C66.9781 90.1001 68.0665 89.3795 68.9033 88.4417L69.5644 89.0274C68.5534 90.1775 67.3474 90.9988 65.5211 90.9988C62.6631 90.9988 60.4669 88.6175 60.4669 85.8271ZM79.5466 85.3199C79.4103 83.3114 78.2635 81.4565 75.9884 81.4565C74.0233 81.4565 72.5078 83.1149 72.3321 85.3199H79.5466ZM71.3201 85.8091V85.7681C71.3201 82.8808 73.3441 80.58 76.0265 80.58C78.8078 80.58 80.5772 82.8429 80.5772 85.7877C80.5772 85.9639 80.5772 86.0229 80.5579 86.1784H72.3321C72.5078 88.657 74.2757 90.1004 76.2223 90.1004C77.7564 90.1004 78.8078 89.4182 79.6233 88.5405L80.2846 89.1263C79.2733 90.2188 78.0885 90.9988 76.1828 90.9988C73.5772 90.9988 71.3201 88.9102 71.3201 85.8091ZM90.1893 87.0086V85.8666C89.3475 85.6513 88.2322 85.4165 86.8022 85.4165C84.686 85.4165 83.5105 86.3589 83.5105 87.7548V87.7939C83.5105 89.2485 84.8811 90.0939 86.4107 90.0939C88.4472 90.0939 90.1893 88.8367 90.1893 87.0086ZM82.4925 87.8517V87.8134C82.4925 85.7291 84.2742 84.5499 86.8614 84.5499C88.2509 84.5499 89.2111 84.7277 90.1713 84.9844V84.5499C90.1713 82.5242 88.9357 81.4837 86.8801 81.4837C85.6643 81.4837 84.6665 81.8186 83.746 82.2905L83.3927 81.4439C84.4902 80.934 85.5682 80.58 86.9397 80.58C88.2898 80.58 89.3669 80.9528 90.0926 81.6806C90.7587 82.3495 91.1113 83.2731 91.1113 84.5116V90.7624H90.1713V89.091C89.4857 90.0541 88.2509 90.9988 86.3515 90.9988C84.4902 90.9988 82.4925 89.9373 82.4925 87.8517ZM94.4628 80.8149H95.4131V82.682C96.0693 81.5017 97.1731 80.58 98.9736 80.58C101.469 80.58 102.922 82.3093 102.922 84.7074V90.8387H101.974V84.8844C101.974 82.8203 100.832 81.463 98.8384 81.463C96.9023 81.463 95.4131 82.9582 95.4131 85.0403V90.8387H94.4628V80.8149ZM55.0402 41.2291C55.0402 42.8667 53.7193 44.1951 52.0875 44.1951C50.4572 44.1951 49.1348 42.8667 49.1348 41.2291C49.1348 39.5915 50.4572 38.2645 52.0875 38.2645C53.7193 38.2645 55.0402 39.5915 55.0402 41.2291ZM101.965 41.2291C101.965 42.8667 100.642 44.1951 99.0126 44.1951C97.3813 44.1951 96.059 42.8667 96.059 41.2291C96.059 39.5915 97.3813 38.2645 99.0126 38.2645C100.642 38.2645 101.965 39.5915 101.965 41.2291ZM78.5024 52.9305C78.5024 54.5678 77.1801 55.896 75.55 55.896C73.9191 55.896 72.5969 54.5678 72.5969 52.9305C72.5969 51.2929 73.9191 49.9654 75.55 49.9654C77.1801 49.9654 78.5024 51.2929 78.5024 52.9305ZM66.6915 47.1604C66.6915 48.7973 65.37 50.1257 63.7384 50.1257C62.1076 50.1257 60.7861 48.7973 60.7861 47.1604C60.7861 45.5221 62.1076 44.1951 63.7384 44.1951C65.37 44.1951 66.6915 45.5221 66.6915 47.1604ZM90.1537 47.1604C90.1537 48.7973 88.8314 50.1257 87.2013 50.1257C85.5697 50.1257 84.2482 48.7973 84.2482 47.1604C84.2482 45.5221 85.5697 44.1951 87.2013 44.1951C88.8314 44.1951 90.1537 45.5221 90.1537 47.1604ZM54.0826 50.2066C54.0826 51.3112 53.1901 52.2094 52.0886 52.2094C50.9856 52.2094 50.0925 51.3112 50.0925 50.2066C50.0925 49.0991 50.9856 48.2023 52.0886 48.2023C53.1901 48.2023 54.0826 49.0991 54.0826 50.2066ZM101.007 50.2066C101.007 51.3112 100.113 52.2094 99.0118 52.2094C97.9095 52.2094 97.0165 51.3112 97.0165 50.2066C97.0165 49.0991 97.9095 48.2023 99.0118 48.2023C100.113 48.2023 101.007 49.0991 101.007 50.2066ZM77.5447 62.0656C77.5447 63.1723 76.6506 64.0706 75.5504 64.0706C74.4494 64.0706 73.5545 63.1723 73.5545 62.0656C73.5545 60.9596 74.4494 60.0636 75.5504 60.0636C76.6506 60.0636 77.5447 60.9596 77.5447 62.0656ZM65.7339 56.1373C65.7339 57.2437 64.8409 58.1401 63.7395 58.1401C62.6374 58.1401 61.7437 57.2437 61.7437 56.1373C61.7437 55.0298 62.6374 54.133 63.7395 54.133C64.8409 54.133 65.7339 55.0298 65.7339 56.1373ZM89.1958 56.1373C89.1958 57.2437 88.3017 58.1401 87.2021 58.1401C86.0994 58.1401 85.2058 57.2437 85.2058 56.1373C85.2058 55.0298 86.0994 54.133 87.2021 54.133C88.3017 54.133 89.1958 55.0298 89.1958 56.1373ZM53.125 57.2575C53.125 57.834 52.6608 58.3002 52.0879 58.3002C51.5143 58.3002 51.0501 57.834 51.0501 57.2575C51.0501 56.6824 51.5143 56.2166 52.0879 56.2166C52.6608 56.2166 53.125 56.6824 53.125 57.2575ZM100.049 57.2575C100.049 57.834 99.5839 58.3002 99.0122 58.3002C98.4381 58.3002 97.9744 57.834 97.9744 57.2575C97.9744 56.6824 98.4381 56.2166 99.0122 56.2166C99.5839 56.2166 100.049 56.6824 100.049 57.2575ZM76.5871 69.1189C76.5871 69.6943 76.1218 70.1617 75.55 70.1617C74.9767 70.1617 74.5122 69.6943 74.5122 69.1189C74.5122 68.5435 74.9767 68.0777 75.55 68.0777C76.1218 68.0777 76.5871 68.5435 76.5871 69.1189ZM64.7762 63.1891C64.7762 63.7638 64.3113 64.2307 63.7384 64.2307C63.1663 64.2307 62.7013 63.7638 62.7013 63.1891C62.7013 62.6126 63.1663 62.1471 63.7384 62.1471C64.3113 62.1471 64.7762 62.6126 64.7762 63.1891ZM88.2383 63.1891C88.2383 63.7638 87.7731 64.2307 87.2013 64.2307C86.6265 64.2307 86.1634 63.7638 86.1634 63.1891C86.1634 62.6126 86.6265 62.1471 87.2013 62.1471C87.7731 62.1471 88.2383 62.6126 88.2383 63.1891ZM79.46 18.3891C79.46 20.6026 77.6732 22.3961 75.4709 22.3961C73.2664 22.3961 71.4797 20.6026 71.4797 18.3891C71.4797 16.1761 73.2664 14.3818 75.4709 14.3818C77.6732 14.3818 79.46 16.1761 79.46 18.3891ZM79.46 30.2502C79.46 32.4635 77.6732 34.2574 75.4709 34.2574C73.2664 34.2574 71.4797 32.4635 71.4797 30.2502C71.4797 28.0376 73.2664 26.243 75.4709 26.243C77.6732 26.243 79.46 28.0376 79.46 30.2502ZM79.46 41.9518C79.46 44.164 77.6732 45.9583 75.4709 45.9583C73.2664 45.9583 71.4797 44.164 71.4797 41.9518C71.4797 39.7382 73.2664 37.9439 75.4709 37.9439C77.6732 37.9439 79.46 39.7382 79.46 41.9518ZM102.922 30.2502C102.922 32.4635 101.136 34.2574 98.9323 34.2574C96.7281 34.2574 94.9418 32.4635 94.9418 30.2502C94.9418 28.0376 96.7281 26.243 98.9323 26.243C101.136 26.243 102.922 28.0376 102.922 30.2502ZM55.9979 30.2502C55.9979 32.4635 54.2118 34.2574 52.0081 34.2574C49.8043 34.2574 48.0176 32.4635 48.0176 30.2502C48.0176 28.0376 49.8043 26.243 52.0081 26.243C54.2118 26.243 55.9979 28.0376 55.9979 30.2502ZM67.8087 24.3196C67.8087 26.5325 66.0225 28.3268 63.8186 28.3268C61.6146 28.3268 59.8284 26.5325 59.8284 24.3196C59.8284 22.1052 61.6146 20.3124 63.8186 20.3124C66.0225 20.3124 67.8087 22.1052 67.8087 24.3196ZM67.8087 36.0201C67.8087 38.2333 66.0225 40.0277 63.8186 40.0277C61.6146 40.0277 59.8284 38.2333 59.8284 36.0201C59.8284 33.8077 61.6146 32.0133 63.8186 32.0133C66.0225 32.0133 67.8087 33.8077 67.8087 36.0201ZM91.2709 24.3196C91.2709 26.5325 89.4842 28.3268 87.2804 28.3268C85.0766 28.3268 83.2905 26.5325 83.2905 24.3196C83.2905 22.1052 85.0766 20.3124 87.2804 20.3124C89.4842 20.3124 91.2709 22.1052 91.2709 24.3196ZM91.2709 36.0201C91.2709 38.2333 89.4842 40.0277 87.2804 40.0277C85.0766 40.0277 83.2905 38.2333 83.2905 36.0201C83.2905 33.8077 85.0766 32.0133 87.2804 32.0133C89.4842 32.0133 91.2709 33.8077 91.2709 36.0201Z" fill="white"/>
</g>
<defs>
<clipPath id="clip0_3453_330">
<rect width="55" height="77" fill="white" transform="translate(48 14)"/>
</clipPath>
</defs>
</svg>
