<svg width="150" height="108" viewBox="0 0 150 108" fill="none" xmlns="http://www.w3.org/2000/svg">
<path d="M0 10C0 4.47715 4.47715 0 10 0H140C145.523 0 150 4.47715 150 10V97.9365C150 103.459 145.523 107.937 140 107.937H10C4.47715 107.937 0 103.459 0 97.9365V10Z" fill="#F8A629"/>
<g clip-path="url(#clip0_3453_325)">
<mask id="mask0_3453_325" style="mask-type:luminance" maskUnits="userSpaceOnUse" x="36" y="22" width="79" height="68">
<path d="M115 22.0996H36V89.7773H115V22.0996Z" fill="white"/>
</mask>
<g mask="url(#mask0_3453_325)">
<path d="M41.7927 71.7022C42.0173 71.7299 42.2467 71.7566 42.4797 71.7856C42.6824 71.8124 42.8864 71.8378 43.0927 71.8623C43.5321 71.912 43.9848 71.9616 44.4485 72.0138C45.161 72.095 45.9038 72.1704 46.6673 72.2481C46.7984 72.2613 46.9319 72.2745 47.0642 72.2893C47.7088 72.3499 48.3715 72.4083 49.0476 72.4663C49.3085 72.4895 49.5732 72.5124 49.8365 72.5356C49.9895 72.5488 50.1412 72.5623 50.2941 72.5755C50.6194 72.6023 50.9447 72.6264 51.2737 72.6519C51.3732 72.6593 51.4715 72.6664 51.5711 72.6738C51.957 72.7006 52.3479 72.726 52.7399 72.7537C53.2255 72.7853 53.7134 72.8147 54.205 72.8449C54.7148 72.8765 55.2294 72.9117 55.7502 72.9407C56.7697 72.9929 57.8112 73.0328 58.8587 73.0754C59.1549 73.0863 59.451 73.0995 59.7484 73.1092C59.9766 73.1189 60.2072 73.1276 60.4391 73.1347C60.6843 73.1395 60.9282 73.1469 61.1734 73.1543C61.4538 73.1592 61.7354 73.1627 62.0182 73.1675C62.21 73.1724 62.403 73.1772 62.5935 73.1798C62.7768 73.1846 62.3362 73.1856 62.7975 73.1882V70.319C61.733 70.3167 61.9405 70.3154 61.7949 70.3132C61.631 70.3119 60.5204 70.3093 60.3553 70.308C60.1927 70.3022 59.099 70.2961 58.9364 70.29C58.6111 70.2803 56.3838 70.268 56.0645 70.2561C55.7453 70.2377 53.6066 70.222 53.2971 70.2039C53.1417 70.1929 52.1682 70.1881 52.0165 70.1759C51.8648 70.1627 50.9265 70.1504 50.7785 70.1382C50.4799 70.1153 48.4783 70.0921 48.1955 70.0692C47.9115 70.0389 46.0422 70.0109 45.7764 69.9819C45.6441 69.9683 44.8175 69.9551 44.69 69.9429C44.5626 69.9296 43.7797 69.9103 43.6559 69.8958C43.1679 69.8278 40.1213 69.7779 39.7305 69.7124C39.5338 69.6809 38.3103 69.6531 38.1392 69.6264C38.0542 69.6132 37.6185 69.6032 37.5384 69.5887C37.4607 69.5755 37.0759 69.561 37.0043 69.5465C36.9946 69.5439 36.98 69.5426 36.9679 69.5413C37.0917 70.0631 37.2252 70.5761 37.366 71.0798C37.5092 71.1014 37.6537 71.1259 37.8078 71.1501C38.6332 71.2761 39.6006 71.4121 40.6882 71.5552C41.0438 71.6052 41.4128 71.6535 41.7927 71.7022ZM38.899 58.1756C39.6346 58.2533 40.409 58.3258 41.2174 58.4025C42.0258 58.4812 42.8706 58.554 43.7433 58.6242C44.616 58.6984 45.5191 58.7699 46.4476 58.8379C46.9125 58.8743 47.3834 58.9082 47.8593 58.9459C48.3375 58.9762 48.8194 59.0065 49.3085 59.038C50.2856 59.0977 51.2846 59.1618 52.3006 59.2153C54.3264 59.34 56.4517 59.4045 58.5977 59.4918C59.1354 59.5063 59.6744 59.5221 60.2157 59.5392C60.751 59.5501 61.2887 59.5598 61.8264 59.5708C62.2428 59.5791 61.9539 59.5853 62.7975 59.5914V55.9374H36.1801C36.1024 56.6274 36.0442 57.1904 36.0029 57.8624C36.2651 57.8917 36.5321 57.922 36.8089 57.9536C37.4655 58.03 38.1635 58.1002 38.899 58.1756ZM93.0087 51.957C92.9712 51.7689 92.9362 51.5833 92.8947 51.3941C92.7746 50.8384 92.6606 50.4163 92.5463 49.8886C92.027 49.8327 91.483 49.777 90.9149 49.7187C90.1795 49.6423 89.4053 49.5695 88.5944 49.4931C87.7883 49.413 86.946 49.3402 86.0722 49.2699C85.198 49.1946 84.2963 49.1255 83.3675 49.0576C82.9028 49.0212 82.4317 48.986 81.9548 48.9496C81.4789 48.9193 80.9959 48.8877 80.5068 48.8574C79.5296 48.798 78.5296 48.7324 77.5148 48.6803C75.49 48.5541 73.3647 48.491 71.2176 48.4049C70.6787 48.3879 70.1398 48.3709 69.5997 48.3552C69.0631 48.3442 68.5264 48.3345 67.9889 48.3236C66.9644 48.3006 65.9363 48.2969 64.9082 48.2824C63.8802 48.2969 62.8509 48.3006 61.8264 48.3236C61.2887 48.3345 60.751 48.3442 60.2157 48.3552C59.6744 48.3709 59.1354 48.3879 58.5977 48.4049C56.4517 48.491 54.3264 48.5541 52.3006 48.6803C51.2846 48.7324 50.2856 48.798 49.3085 48.8574C48.8194 48.8877 48.3375 48.9193 47.8593 48.9496C47.3834 48.986 46.9125 49.0212 46.4476 49.0576C45.5191 49.1255 44.616 49.1946 43.7433 49.2699C42.8706 49.3402 42.0258 49.413 41.2174 49.4931C40.409 49.5695 39.6346 49.6423 38.899 49.7187C38.3322 49.777 37.7884 49.8327 37.2689 49.8886C37.156 50.4163 37.0407 50.8384 36.9205 51.3941C36.8805 51.5833 36.8453 51.7689 36.8064 51.957H64.9082H93.0087ZM43.6765 77.6452C43.8817 77.6733 44.0904 77.7036 44.3004 77.7326C44.4849 77.7593 44.6706 77.7835 44.8588 77.8077C45.2618 77.8576 45.6708 77.9072 46.0932 77.9569C46.7584 78.0384 47.4478 78.1183 48.1591 78.1986C48.2817 78.2131 48.4055 78.2276 48.5305 78.2421C49.1325 78.3017 49.7467 78.3584 50.3767 78.4203C50.6206 78.4422 50.8683 78.4664 51.1171 78.4883C51.2567 78.5028 51.3999 78.5176 51.5419 78.5283C51.8429 78.5576 52.1488 78.5818 52.4559 78.6098C52.5482 78.6169 52.6404 78.6243 52.7315 78.6314C53.0932 78.6569 53.4585 78.6826 53.8251 78.7081C54.2742 78.7394 54.7306 78.77 55.1882 78.8012C55.664 78.8328 56.1446 78.8644 56.6302 78.8947C57.5818 78.9482 58.5516 78.9859 59.5275 79.0259C59.803 79.0378 60.0761 79.05 60.3529 79.0597C60.5677 79.0671 60.7826 79.0755 60.9974 79.0829C61.2256 79.0877 61.4538 79.0948 61.682 79.0997C61.9442 79.1058 62.2064 79.1096 62.4698 79.1155C62.5778 79.1155 62.6882 79.1193 62.7975 79.1193V76.7052C62.0886 76.7039 62.4904 76.7013 62.3387 76.7003C62.0898 76.6977 61.2122 76.6955 60.9658 76.6916C60.7207 76.6832 59.8552 76.6749 59.6125 76.6639C59.1221 76.6481 57.3681 76.6323 56.8887 76.6139C56.4117 76.5875 54.7208 76.5617 54.2572 76.534C54.0241 76.5208 53.2461 76.5099 53.0191 76.4928C52.7909 76.4734 52.0408 76.4551 51.8187 76.437C51.372 76.4019 49.7941 76.3677 49.3692 76.3339C48.9468 76.2878 47.4709 76.2466 47.0715 76.2027C46.8725 76.1834 46.2133 76.1641 46.0204 76.1447C45.8286 76.1228 45.2035 76.0961 45.0202 76.0719C44.2858 75.9736 41.8765 75.8995 41.289 75.7976C40.9928 75.7515 40.023 75.709 39.7669 75.669C39.6382 75.6507 39.2777 75.6326 39.1612 75.612C39.1114 75.6023 39.0253 75.5949 38.9354 75.5852C39.1381 76.0706 39.3481 76.545 39.563 77.0058C39.7135 77.0339 39.8701 77.0593 40.0339 77.0883C40.801 77.2195 41.681 77.3542 42.6569 77.4973C42.9871 77.5456 43.327 77.5956 43.6765 77.6452ZM62.7975 88.2068C62.1262 88.202 62.4916 88.1994 62.1869 88.1959C61.7754 88.1801 61.3664 88.1656 60.961 88.1511C60.1453 88.123 59.3357 88.0953 58.537 88.0673C57.7396 88.0212 56.9518 87.9764 56.1762 87.9326C55.7902 87.9097 55.4042 87.8939 55.0255 87.861C54.6444 87.8307 54.2693 87.8017 53.8991 87.7714C53.1539 87.7131 52.4256 87.6538 51.7179 87.5977C51.0115 87.5239 50.3245 87.4511 49.6618 87.3795C49.3292 87.348 49.0027 87.3141 48.6798 87.2825C48.3606 87.2461 48.0486 87.201 47.7427 87.1636C47.1844 87.0872 46.6467 87.0205 46.1345 86.9548C46.5811 87.4511 46.995 87.8855 47.3616 88.2516C47.3907 88.2565 47.4175 88.2639 47.4478 88.2674C47.7561 88.3232 48.0705 88.3841 48.3933 88.435C48.7174 88.4846 49.0451 88.5343 49.3802 88.5829C50.0526 88.6786 50.7481 88.7782 51.4606 88.8801C52.1804 88.9639 52.9172 89.0476 53.6709 89.1337C54.0496 89.1749 54.4308 89.2175 54.8167 89.2597C55.2027 89.3 55.5948 89.3216 55.9881 89.3557C56.777 89.4176 57.5781 89.4795 58.3902 89.5414C59.2046 89.5923 60.0288 89.6274 60.8615 89.6625C61.2766 89.6809 61.6941 89.6977 62.1117 89.7173C62.4406 89.7222 62.0886 89.7595 62.7975 89.7744V88.2068ZM47.7488 83.4842C48.3654 83.5667 49.0039 83.6492 49.6593 83.7317C49.7759 83.7462 49.89 83.7607 50.0077 83.7752C50.5648 83.8348 51.1365 83.8954 51.7179 83.9547C51.9449 83.9789 52.1743 84.0034 52.4049 84.0263C52.536 84.0408 52.6659 84.053 52.7994 84.0653C53.0798 84.0943 53.3626 84.1197 53.6479 84.15C53.7328 84.1562 53.819 84.1645 53.9052 84.1719C54.239 84.1974 54.5776 84.2206 54.9175 84.2461C55.3362 84.2773 55.7574 84.3079 56.1811 84.3369C56.6241 84.3685 57.072 84.4011 57.5223 84.4327C58.4047 84.4849 59.3005 84.52 60.206 84.559C60.4585 84.57 60.7122 84.5796 60.967 84.5915C61.1673 84.5977 61.3664 84.6064 61.5655 84.616C61.7767 84.6183 61.9903 84.6244 62.2015 84.628C62.4005 84.6318 62.5996 84.6354 62.7975 84.6402V82.6714C62.6348 82.6714 62.7137 82.6714 62.7975 82.6701V82.6689C62.4503 82.664 61.8871 82.6614 61.5885 82.6592C61.2596 82.6456 60.6223 82.6337 60.2958 82.6241C59.6452 82.5996 58.3635 82.578 57.7238 82.5548C57.0865 82.5196 55.8485 82.4845 55.227 82.4481C54.9187 82.4288 54.3361 82.4165 54.0339 82.3911C53.7304 82.3669 53.1672 82.3437 52.8698 82.3195C52.2738 82.2708 51.1207 82.2248 50.5551 82.18C49.9907 82.1207 48.9092 82.0623 48.3788 82.0066C48.1129 81.9798 47.6189 81.9531 47.3616 81.9276C47.1055 81.8996 46.6394 81.8635 46.393 81.8319C45.4147 81.6985 43.6425 81.6012 42.8584 81.4668C42.6144 81.4291 42.2467 81.3914 41.9214 81.3562C42.2139 81.8271 42.5076 82.2795 42.8026 82.7101C43.3694 82.8119 43.9836 82.9138 44.6354 83.0195C44.9401 83.0704 45.2532 83.1191 45.5737 83.171C45.757 83.2003 45.9439 83.228 46.132 83.2596C46.2983 83.2841 46.467 83.3105 46.637 83.336C47.0011 83.3846 47.3701 83.4343 47.7488 83.4842ZM39.9053 65.1303C40.1517 65.1597 40.4029 65.1864 40.6602 65.2167C40.8775 65.2409 41.0996 65.2663 41.3254 65.2905C41.8024 65.3414 42.2976 65.3927 42.805 65.4423C43.5649 65.5235 44.3575 65.5963 45.1756 65.6714C45.3152 65.6837 45.4559 65.6982 45.598 65.7117C46.2862 65.771 46.995 65.8293 47.7172 65.8864C47.9964 65.9093 48.2756 65.9325 48.5584 65.9554C48.7211 65.9689 48.8837 65.9821 49.0476 65.9953C49.3923 66.0208 49.7419 66.044 50.0927 66.0694C50.1983 66.0769 50.3026 66.0817 50.4095 66.0901C50.8221 66.1168 51.2373 66.1436 51.6573 66.17C52.1743 66.2042 52.6975 66.2332 53.223 66.2647C53.7656 66.2976 54.3143 66.3314 54.8677 66.3595C55.9589 66.4127 57.0708 66.4539 58.1923 66.4965C58.5079 66.5097 58.8259 66.5232 59.1439 66.5354C59.3903 66.5438 59.6343 66.5522 59.8807 66.5596C60.1417 66.5667 60.4026 66.5741 60.666 66.5815C60.9634 66.5886 61.2632 66.5922 61.5642 66.5983C61.7694 66.6022 61.9757 66.6057 62.1809 66.6093C62.488 66.6154 62.1238 66.6202 62.7975 66.6238V63.3034C61.4441 63.3024 61.3421 63.3024 61.2523 63.2998C61.1698 63.2998 59.8261 63.2985 59.7448 63.2985C59.6635 63.295 58.3428 63.2914 58.2615 63.2888C58.0976 63.2827 55.4006 63.2769 55.2404 63.2731C55.0814 63.2621 52.4899 63.255 52.3358 63.2453C52.2568 63.2405 51.0892 63.2379 51.0127 63.2296C50.9375 63.2247 49.8111 63.2186 49.737 63.2125C49.5877 63.2015 47.1625 63.1896 47.0193 63.1786C46.8797 63.1628 44.616 63.1493 44.4825 63.1348C44.4145 63.1287 43.4216 63.1216 43.3585 63.1155C43.2942 63.1081 42.3571 63.0997 42.2952 63.0913C42.05 63.0584 38.3674 63.033 38.1707 63.0001C38.0724 62.9856 36.5977 62.9698 36.5127 62.9579C36.4787 62.9518 36.1534 62.9479 35.998 62.9431C36.0332 63.5231 36.0818 64.0955 36.1413 64.6598C36.8999 64.7616 37.7629 64.8709 38.7194 64.9885C39.1005 65.0372 39.4962 65.0842 39.9053 65.1303ZM46.393 24.9427C46.6394 24.9112 47.1055 24.8748 47.3616 24.8469C47.6189 24.8226 48.1129 24.7947 48.3788 24.768C48.9092 24.7122 49.9907 24.654 50.5551 24.5946C51.1207 24.5497 52.2738 24.5036 52.8698 24.4563C53.1672 24.432 53.7304 24.4077 54.0339 24.3835C54.3361 24.358 54.9187 24.3459 55.227 24.3265C55.8485 24.2913 57.0865 24.2549 57.7238 24.2185C58.3635 24.1967 59.6452 24.1748 60.2958 24.1518C60.6223 24.1409 61.2596 24.1287 61.5885 24.1166C61.9162 24.113 62.562 24.1093 62.8921 24.1057C63.3789 24.1008 64.2285 24.096 64.9082 24.0911C65.5868 24.096 66.4364 24.1008 66.9232 24.1057C67.2533 24.1093 67.899 24.113 68.2268 24.1166C68.557 24.1287 69.1918 24.1409 69.5181 24.1518C70.17 24.1748 71.4507 24.1967 72.0914 24.2185C72.7289 24.2549 73.9681 24.2913 74.587 24.3265C74.8965 24.3459 75.4781 24.358 75.7826 24.3835C76.0848 24.4077 76.648 24.432 76.9454 24.4563C77.5402 24.5036 78.6934 24.5497 79.2602 24.5946C79.8247 24.654 80.9047 24.7122 81.4365 24.768C81.7037 24.7947 82.1963 24.8226 82.4526 24.8469C82.7098 24.8748 83.1771 24.9112 83.4224 24.9427C84.4019 25.075 86.174 25.1732 86.9569 25.3091C87.2735 25.3576 87.7931 25.4037 88.1634 25.4474C88.1075 25.0568 88.0517 24.6577 87.9935 24.2525C87.8503 24.2233 87.701 24.193 87.5468 24.1639C86.8368 24.028 86.0429 23.8934 85.1797 23.7551C84.874 23.7053 84.5609 23.6544 84.2404 23.6034C84.057 23.5755 83.8714 23.544 83.6832 23.5149C83.5169 23.4882 83.3483 23.4627 83.1771 23.4384C82.8155 23.3899 82.4439 23.3414 82.0666 23.2904C81.4487 23.2092 80.8113 23.1267 80.1549 23.043C80.0396 23.0284 79.9252 23.0138 79.8077 23.0005C79.2505 22.9398 78.6799 22.8804 78.0973 22.821C77.8703 22.7967 77.6397 22.7724 77.4091 22.7482C77.2794 22.736 77.148 22.7215 77.0157 22.7094C76.7354 22.6802 76.4528 22.6535 76.1663 22.6256C76.0838 22.6184 75.9974 22.6111 75.9113 22.6038C75.5777 22.5759 75.2389 22.5553 74.8978 22.5274C74.4804 22.4983 74.059 22.4667 73.6329 22.4364C73.1913 22.4036 72.7433 22.3721 72.2944 22.3406C71.4093 22.2908 70.5136 22.2532 69.6093 22.2156L68.8482 22.1828C68.6478 22.1756 68.4491 22.1683 68.25 22.1598C68.0386 22.1549 67.825 22.1501 67.6138 22.1464C67.3698 22.1404 67.1271 22.138 66.8831 22.1319C66.7168 22.1307 66.5505 22.127 66.3842 22.1246C65.8939 22.1149 65.3998 22.1076 64.9082 22.1016C64.4155 22.1076 63.9226 22.1149 63.4335 22.1246C63.2648 22.127 63.0973 22.1307 62.9322 22.1319C62.6882 22.138 62.4443 22.1404 62.2015 22.1464C61.9903 22.1501 61.7767 22.1549 61.5655 22.1598C61.3664 22.1683 61.1673 22.1756 60.967 22.1828C60.7122 22.1938 60.4585 22.2047 60.206 22.2156C59.3005 22.2532 58.4047 22.2908 57.5223 22.3406C57.072 22.3721 56.6241 22.4036 56.1811 22.4364C55.7574 22.4667 55.3362 22.4983 54.9175 22.5274C54.5776 22.5553 54.239 22.5759 53.9052 22.6038C53.819 22.6111 53.7328 22.6184 53.6479 22.6256C53.3626 22.6535 53.0798 22.6802 52.7994 22.7094C52.6659 22.7215 52.536 22.736 52.4049 22.7482C52.1743 22.7724 51.9449 22.7967 51.7179 22.821C51.1365 22.8804 50.5648 22.9398 50.0077 23.0005C49.89 23.0138 49.7759 23.0284 49.6593 23.043C49.0039 23.1267 48.3654 23.2092 47.7488 23.2904C47.3701 23.3414 47.0011 23.3899 46.637 23.4384C46.467 23.4627 46.2983 23.4882 46.132 23.5149C45.9439 23.544 45.757 23.5755 45.5737 23.6034C45.2532 23.6544 44.9401 23.7053 44.6354 23.7551C43.7724 23.8934 42.9798 24.028 42.2697 24.1639C42.1144 24.193 41.9651 24.2233 41.8218 24.2525C41.7636 24.6577 41.7065 25.0568 41.6519 25.4474C42.0221 25.4037 42.5416 25.3576 42.8584 25.3091C43.6425 25.1732 45.4147 25.075 46.393 24.9427ZM62.7975 84.6463V84.6438C62.7295 84.6438 62.6846 84.645 62.7975 84.6463ZM62.7975 79.1277V79.1251C62.7538 79.1251 62.738 79.1277 62.7975 79.1277ZM45.0202 30.693C45.2035 30.6688 45.8286 30.6421 46.0204 30.6202C46.2133 30.6021 46.8725 30.5814 47.0715 30.562C47.4709 30.5208 48.9468 30.4759 49.3692 30.431C49.7941 30.3982 51.372 30.3618 51.8187 30.3279C52.0408 30.3097 52.7909 30.2915 53.0191 30.2721C53.2461 30.2551 54.0241 30.2454 54.2572 30.2308C54.7208 30.2029 56.4117 30.1762 56.8887 30.1495C57.3681 30.1326 59.1221 30.1168 59.6125 30.0998C59.8552 30.0913 60.7207 30.0816 60.9658 30.0719C61.2122 30.0683 62.0898 30.0683 62.3387 30.0634C62.7695 30.061 64.2115 30.0561 64.9082 30.0513C65.6038 30.0561 67.0457 30.061 67.4766 30.0634C67.7255 30.0683 68.6032 30.0683 68.8495 30.0719C69.0945 30.0816 69.96 30.0913 70.2054 30.0998C70.6932 30.1168 72.4472 30.1326 72.9267 30.1495C73.4049 30.1762 75.0944 30.2029 75.5594 30.2308C75.7925 30.2454 76.5694 30.2551 76.7961 30.2721C77.0231 30.2915 77.7746 30.3097 77.9965 30.3279C78.4432 30.3618 80.0213 30.3982 80.4461 30.431C80.8684 30.4759 82.3444 30.5208 82.7439 30.562C82.943 30.5814 83.6032 30.6021 83.795 30.6202C83.988 30.6421 84.6119 30.6688 84.7963 30.693C85.5294 30.7913 87.9399 30.8665 88.5276 30.9672C88.6307 30.9818 88.8201 30.9987 89.0337 31.0145C88.9476 30.505 88.8638 30.0064 88.7848 29.5139C88.2761 29.4338 87.736 29.3537 87.1595 29.2676C86.8281 29.2203 86.4883 29.1693 86.1386 29.1196C85.9337 29.0905 85.726 29.0614 85.515 29.0334C85.3316 29.0068 85.1447 28.9813 84.9552 28.957C84.5548 28.9085 84.1434 28.8587 83.7234 28.8078C83.0557 28.7265 82.3675 28.6452 81.6575 28.5664C81.5335 28.5531 81.4112 28.5373 81.2849 28.5239C80.6841 28.4645 80.0675 28.405 79.4387 28.3456C79.1934 28.3225 78.9471 28.2983 78.6995 28.2752C78.5585 28.2619 78.4165 28.2485 78.2746 28.2352C77.9724 28.2085 77.6676 28.1818 77.3594 28.1552C77.2672 28.1479 77.176 28.1394 77.0851 28.1333C76.7222 28.1066 76.358 28.0823 75.9913 28.0569C75.5411 28.0253 75.086 27.995 74.6271 27.9647C74.1512 27.9319 73.6695 27.8979 73.1839 27.8688C72.2324 27.8179 71.2648 27.7779 70.2879 27.739C70.0136 27.7269 69.7391 27.7172 69.4626 27.7051C69.2487 27.6966 69.0329 27.6893 68.818 27.682C68.5897 27.676 68.3614 27.6699 68.1334 27.6662C67.8711 27.6602 67.609 27.6553 67.3468 27.6505C67.1671 27.6481 66.9875 27.6444 66.8066 27.6408C66.1755 27.6274 65.5419 27.6201 64.9082 27.6116C64.2734 27.6201 63.6399 27.6274 63.0075 27.6408C62.8278 27.6444 62.647 27.6481 62.4698 27.6505C62.2064 27.6553 61.9442 27.6602 61.682 27.6662C61.4538 27.6699 61.2256 27.676 60.9974 27.682C60.7826 27.6893 60.5677 27.6966 60.3529 27.7051C60.0761 27.7172 59.803 27.7269 59.5275 27.739C58.5516 27.7779 57.5818 27.8179 56.6302 27.8688C56.1446 27.8979 55.664 27.9319 55.1882 27.9647C54.7306 27.995 54.2742 28.0253 53.8251 28.0569C53.4585 28.0823 53.0932 28.1066 52.7315 28.1333C52.6404 28.1394 52.5482 28.1479 52.4559 28.1552C52.1488 28.1818 51.8429 28.2085 51.5419 28.2352C51.3999 28.2485 51.2567 28.2619 51.1171 28.2752C50.8683 28.2983 50.6206 28.3225 50.3767 28.3456C49.7467 28.405 49.1325 28.4645 48.5305 28.5239C48.4055 28.5373 48.2817 28.5531 48.1591 28.5664C47.4478 28.6452 46.7584 28.7265 46.0932 28.8078C45.6708 28.8587 45.2618 28.9085 44.8588 28.957C44.6706 28.9813 44.4849 29.0068 44.3004 29.0334C44.0904 29.0614 43.8817 29.0905 43.6765 29.1196C43.327 29.1693 42.9871 29.2203 42.6569 29.2676C42.0792 29.3537 41.5378 29.4338 41.0304 29.5139C40.9503 30.0064 40.869 30.505 40.7816 31.0145C40.994 30.9987 41.1834 30.9818 41.289 30.9672C41.8765 30.8665 44.2858 30.7913 45.0202 30.693ZM43.3585 44.5216C43.4216 44.5143 44.4145 44.5083 44.4825 44.5034C44.616 44.4877 46.8797 44.4719 47.0193 44.4586C47.1625 44.4476 49.5877 44.4355 49.737 44.4258C49.8111 44.4185 50.9375 44.4124 51.0127 44.4052C51.0892 44.4003 52.2568 44.3955 52.3358 44.3918C52.4899 44.3821 55.0814 44.3736 55.2404 44.3651C55.4006 44.3591 58.0976 44.353 58.2615 44.3469C58.3428 44.3445 59.6635 44.3421 59.7448 44.3384C59.8261 44.3384 61.1698 44.3372 61.2523 44.336C61.4186 44.3348 64.2552 44.3324 64.4215 44.3312C64.4616 44.3324 64.6461 44.3324 64.9082 44.3324C65.168 44.3324 65.3549 44.3324 65.395 44.3312C65.5601 44.3324 68.398 44.3348 68.5631 44.336C68.6456 44.3372 69.9892 44.3384 70.0705 44.3384C70.1517 44.3421 71.4726 44.3445 71.5538 44.3469C71.7163 44.353 74.4158 44.3591 74.5738 44.3651C74.734 44.3736 77.3253 44.3821 77.4807 44.3918C77.5572 44.3955 78.7261 44.4003 78.8026 44.4052C78.8777 44.4124 80.0042 44.4185 80.0784 44.4258C80.2274 44.4355 82.6514 44.4476 82.7946 44.4586C82.9356 44.4719 85.2006 44.4877 85.3329 44.5034C85.3997 44.5083 86.3923 44.5143 86.4569 44.5216C86.5211 44.5277 87.4582 44.5374 87.5189 44.5447C87.7421 44.575 90.8144 44.5981 91.511 44.6272C91.3677 43.9393 91.2306 43.2818 91.0996 42.6473H91.097C90.7149 42.6 90.3179 42.5515 89.9088 42.5054C89.6625 42.4775 89.411 42.4496 89.1551 42.4205C88.9377 42.3962 88.7158 42.372 88.49 42.3465C88.0115 42.2967 87.5189 42.2458 87.0128 42.1936C86.2517 42.1136 85.4591 42.0408 84.6399 41.9668C84.5002 41.9522 84.3592 41.9388 84.2173 41.9267C83.5278 41.8673 82.8216 41.809 82.0968 41.7496C81.819 41.7265 81.5383 41.7047 81.2557 41.6817C81.0942 41.6683 80.9317 41.6538 80.7676 41.6416C80.4217 41.6162 80.0746 41.5943 79.7226 41.5688C79.6157 41.5616 79.5113 41.5543 79.406 41.5458C78.9943 41.5203 78.5781 41.4936 78.158 41.4657C77.6397 41.433 77.1179 41.4038 76.5912 41.3711C76.0498 41.3384 75.5009 41.3056 74.9476 41.2777C73.8577 41.2231 72.7446 41.1831 71.6229 41.1394C71.3062 41.1273 70.9893 41.1127 70.6713 41.1006C70.4263 41.0921 70.181 41.086 69.9346 41.0775C69.6748 41.069 69.4115 41.0617 69.1504 41.0557C68.8508 41.0496 68.5509 41.0435 68.25 41.0387C68.0459 41.0338 67.8396 41.0302 67.6345 41.0278C66.7289 41.0084 65.8174 41.0011 64.9082 40.9889C63.9979 41.0011 63.0876 41.0084 62.1809 41.0278C61.9757 41.0302 61.7694 41.0338 61.5642 41.0387C61.2632 41.0435 60.9634 41.0496 60.666 41.0557C60.4026 41.0617 60.1417 41.069 59.8807 41.0775C59.6343 41.086 59.3903 41.0921 59.1439 41.1006C58.8259 41.1127 58.5079 41.1273 58.1923 41.1394C57.0708 41.1831 55.9589 41.2231 54.8677 41.2777C54.3143 41.3056 53.7656 41.3384 53.223 41.3711C52.6975 41.4038 52.1743 41.433 51.6573 41.4657C51.2373 41.4936 50.8221 41.5203 50.4095 41.5458C50.3026 41.5543 50.1983 41.5616 50.0927 41.5688C49.7419 41.5943 49.3923 41.6162 49.0476 41.6416C48.8837 41.6538 48.7211 41.6683 48.5584 41.6817C48.2756 41.7047 47.9964 41.7265 47.7172 41.7496C46.995 41.809 46.2862 41.8673 45.598 41.9267C45.4559 41.9388 45.3152 41.9522 45.1756 41.9668C44.3575 42.0408 43.5649 42.1136 42.805 42.1936C42.2976 42.2458 41.8024 42.2967 41.3254 42.3465C41.0996 42.372 40.8775 42.3962 40.6602 42.4205C40.4029 42.4496 40.1517 42.4775 39.9053 42.5054C39.4962 42.5515 39.1005 42.6 38.7194 42.6473H38.717C38.5846 43.2818 38.4487 43.9393 38.3043 44.6272C39.001 44.5981 42.0731 44.575 42.2952 44.5447C42.3571 44.5374 43.2942 44.5277 43.3585 44.5216ZM39.9623 37.4344C39.9477 37.4381 39.9247 37.4405 39.8992 37.443C40.0194 36.8315 40.1322 36.2456 40.2378 35.6839C40.4612 35.6536 40.6857 35.6232 40.9188 35.5917C41.2744 35.5444 41.6434 35.4946 42.0233 35.4461C42.2491 35.4182 42.4785 35.3903 42.7128 35.3612C42.9143 35.3345 43.117 35.309 43.3233 35.286C43.7639 35.235 44.2167 35.1865 44.6803 35.1343C45.3928 35.0531 46.1345 34.9778 46.898 34.899C47.0302 34.8856 47.1625 34.8723 47.2961 34.8577C47.9406 34.7983 48.6033 34.7401 49.2794 34.6818C49.5404 34.6576 49.8038 34.6357 50.0696 34.6127C50.2213 34.5993 50.3718 34.5848 50.526 34.5726C50.8501 34.5447 51.1766 34.5217 51.5067 34.495C51.605 34.4877 51.7034 34.4817 51.8017 34.4744C52.1889 34.4465 52.5785 34.4222 52.973 34.3955C53.4573 34.3628 53.944 34.3325 54.4381 34.3009C54.9478 34.2694 55.4601 34.2354 55.982 34.2063C57.0028 34.1541 58.0418 34.1141 59.0905 34.0728C59.3867 34.0607 59.6828 34.0486 59.9803 34.0377C60.2084 34.0292 60.4391 34.0207 60.6709 34.0134C60.9161 34.0073 61.1601 34.0001 61.4052 33.994C61.6856 33.9879 61.966 33.9831 62.2488 33.9782C62.4406 33.9746 62.6324 33.9697 62.8242 33.9685C63.5949 33.9515 64.3669 33.943 65.1377 33.9333C65.9108 33.943 66.6828 33.9515 67.4524 33.9685C67.6454 33.9697 67.8383 33.9746 68.0289 33.9782C68.3106 33.9831 68.5923 33.9879 68.8726 33.994C69.1189 34.0001 69.364 34.0073 69.608 34.0134C69.8386 34.0207 70.0692 34.0292 70.2988 34.0377C70.5962 34.0486 70.891 34.0607 71.1871 34.0728C72.2359 34.1141 73.2761 34.1541 74.297 34.2063C74.8166 34.2354 75.3323 34.2694 75.841 34.3009C76.3336 34.3325 76.8218 34.3628 77.306 34.3955C77.6991 34.4222 78.089 34.4465 78.476 34.4744C78.5755 34.4817 78.6728 34.4877 78.7733 34.495C79.1012 34.5217 79.4278 34.5447 79.7518 34.5726C79.9047 34.5848 80.0576 34.5993 80.2082 34.6127C80.4741 34.6357 80.7374 34.6576 80.9995 34.6818C81.6758 34.7401 82.3373 34.7983 82.9828 34.8577C83.1151 34.8723 83.2487 34.8856 83.381 34.899C84.1434 34.9778 84.8862 35.0531 85.5975 35.1343C86.0622 35.1865 86.5163 35.235 86.9543 35.286C87.1608 35.309 87.3647 35.3345 87.5651 35.3612C87.8005 35.3903 88.0298 35.4182 88.2543 35.4461C88.6342 35.4946 89.0032 35.5444 89.359 35.5917C89.5909 35.6232 89.8179 35.6536 90.0398 35.6839C90.1468 36.2456 90.2595 36.8315 90.3799 37.443C90.3529 37.4405 90.3324 37.4381 90.3166 37.4344C89.9245 37.3677 86.8792 37.3192 86.3901 37.2513C86.2674 37.2367 85.4845 37.2197 85.357 37.204C85.2295 37.193 84.4019 37.1797 84.2696 37.1651C84.005 37.1372 82.1344 37.1081 81.8527 37.079C81.5688 37.0572 79.5662 37.0329 79.2688 37.0098C79.1205 36.9977 78.1824 36.9856 78.0305 36.9722C77.879 36.9613 76.9053 36.9541 76.7524 36.9443C76.4406 36.9274 74.3005 36.9092 73.9813 36.8898C73.6621 36.8788 71.436 36.8691 71.1106 36.857C70.9482 36.8509 69.8544 36.8461 69.6906 36.84C69.5268 36.8364 68.4173 36.8364 68.25 36.834C67.9221 36.8303 65.5856 36.8291 65.2542 36.8242C65.2275 36.8242 65.1874 36.8242 65.1377 36.8254C65.0916 36.8242 65.0503 36.8242 65.0248 36.8242C64.6922 36.8291 62.3568 36.8303 62.0279 36.834C61.8616 36.8364 60.751 36.8364 60.5871 36.84C60.4233 36.8461 59.3321 36.8509 59.1682 36.857C58.8417 36.8691 56.6156 36.8788 56.2952 36.8898C55.9771 36.9092 53.8384 36.9274 53.5277 36.9443C53.3723 36.9541 52.4001 36.9613 52.2471 36.9722C52.0966 36.9856 51.1584 36.9977 51.0091 37.0098C50.7105 37.0329 48.7089 37.0572 48.4261 37.079C48.1445 37.1081 46.274 37.1372 46.0082 37.1651C45.8759 37.1797 45.0505 37.193 44.9207 37.204C44.7932 37.2197 44.0115 37.2367 43.8877 37.2513C43.3998 37.3192 40.3519 37.3677 39.9623 37.4344Z" fill="white"/>
<path d="M64.207 55.9375H114.998V89.7796H64.207V55.9375Z" fill="#003399"/>
<path d="M88.5242 63.3103L89.5946 62.5278L90.6665 63.3103L90.2587 62.0473L91.3461 61.2661H90.005L89.5946 59.9863L89.1858 61.2661H87.8418L88.9295 62.0473L88.5242 63.3103Z" fill="#FFCC00"/>
<path d="M82.9757 64.7992L84.0487 64.018L85.118 64.7992L84.7115 63.5352L85.7979 62.7527H84.4565L84.0474 61.4727L83.6373 62.7563L82.2949 62.7527L83.3823 63.5352L82.9757 64.7992Z" fill="#FFCC00"/>
<path d="M79.9898 65.5381L79.5784 66.8191L78.2383 66.8182L79.3257 67.6006L78.9168 68.8646L79.9898 68.0834L81.0614 68.8646L80.6536 67.6006L81.74 66.8182H80.3999L79.9898 65.5381Z" fill="#FFCC00"/>
<path d="M78.5028 73.6182L79.5734 74.4007L79.1656 73.1355L80.2543 72.3543H78.9142L78.5028 71.0732L78.0927 72.3578L76.75 72.3543L77.8399 73.1355L77.4311 74.4007L78.5028 73.6182Z" fill="#FFCC00"/>
<path d="M80.4021 77.908L79.9917 76.627L79.5803 77.908H78.2402L79.3279 78.6879L78.9188 79.9522L79.9917 79.1697L81.0637 79.9522L80.6558 78.6879L81.7419 77.908H80.4021Z" fill="#FFCC00"/>
<path d="M84.4653 81.9731L84.0552 80.6934L83.6448 81.9744L82.3047 81.9731L83.3911 82.7543L82.9845 84.0186L84.0552 83.2361L85.1268 84.0186L84.7177 82.7543L85.8067 81.9731H84.4653Z" fill="#FFCC00"/>
<path d="M90.0037 83.4428L89.5946 82.1631L89.1832 83.4441L87.8418 83.4428L88.9305 84.2266L88.5226 85.4883L89.5946 84.7081L90.6652 85.4883L90.2574 84.2266L91.3473 83.4428H90.0037Z" fill="#FFCC00"/>
<path d="M95.5451 81.9731L95.135 80.6934L94.7236 81.9744L93.3848 81.9731L94.4699 82.7543L94.062 84.0186L95.135 83.2361L96.2066 84.0186L95.7978 82.7543L96.8877 81.9731H95.5451Z" fill="#FFCC00"/>
<path d="M99.6121 77.908L99.1994 76.627L98.788 77.908H97.4492L98.5366 78.6879L98.1287 79.9522L99.1994 79.1697L100.272 79.9522L99.8635 78.6879L100.952 77.908H99.6121Z" fill="#FFCC00"/>
<path d="M102.426 72.3396H101.085L100.673 71.0586L100.263 72.3396H98.9219L100.01 73.1195L99.603 74.3861L100.673 73.6013L101.745 74.3861L101.337 73.1195L102.426 72.3396Z" fill="#FFCC00"/>
<path d="M98.1291 68.8477L99.1997 68.0652L100.271 68.8477L99.8635 67.5834L100.952 66.8058H99.6124L99.1997 65.5234L98.7893 66.8058H97.4492L98.5369 67.5834L98.1291 68.8477Z" fill="#FFCC00"/>
<path d="M95.1499 61.4727L94.7408 62.7563L93.3984 62.7514L94.4845 63.5362L94.0793 64.8001L95.1509 64.0167L96.2229 64.8001L95.8137 63.5362L96.9014 62.7514H95.56L95.1499 61.4727Z" fill="#FFCC00"/>
</g>
</g>
<defs>
<clipPath id="clip0_3453_325">
<rect width="79" height="68" fill="white" transform="translate(36 22)"/>
</clipPath>
</defs>
</svg>