<svg width="150" height="108" viewBox="0 0 150 108" fill="none" xmlns="http://www.w3.org/2000/svg">
<path d="M0 10C0 4.47715 4.47715 0 10 0H140C145.523 0 150 4.47715 150 10V97.9365C150 103.459 145.523 107.937 140 107.937H10C4.47715 107.937 0 103.459 0 97.9365V10Z" fill="#E04E82"/>
<g clip-path="url(#clip0_3453_326)">
<mask id="mask0_3453_326" style="mask-type:luminance" maskUnits="userSpaceOnUse" x="16" y="22" width="115" height="56">
<path d="M130.649 22H16V78H130.649V22Z" fill="white"/>
</mask>
<g mask="url(#mask0_3453_326)">
<path d="M89.7132 71.0545H83.7809V77.6593H80.543V61.7295H83.7809V68.2439H89.7132V61.7295H92.9512V77.6593H89.7132V71.0545Z" fill="white"/>
<path d="M97.2655 61.7295H103.409L106.998 77.6593H103.761L103.128 74.7784H97.5471L96.9132 77.6593H93.6758L97.2655 61.7295ZM98.1602 71.9679H102.524L100.905 64.3995H99.7792L98.1602 71.9679Z" fill="white"/>
<path d="M117.625 77.398C116.096 77.7147 114.542 77.8961 112.98 77.9401C108.053 77.9401 106.887 75.2701 106.887 69.6891C106.887 63.6666 108.244 61.4482 112.98 61.4482C114.556 61.498 116.123 61.7099 117.656 62.0806L117.555 64.6603C116.196 64.4595 114.826 64.3422 113.453 64.309C110.989 64.309 110.215 65.1722 110.215 69.6891C110.215 73.9752 110.778 75.0794 113.543 75.0794C114.889 75.0454 116.232 74.9348 117.565 74.7481L117.625 77.398Z" fill="white"/>
<path d="M124.243 71.3054L122.091 71.5463V77.6593H118.854V61.7295H122.091V68.7559L124.243 68.515L126.878 61.7496H130.558L127.089 69.7797L130.628 77.6593H126.898L124.243 71.3054Z" fill="white"/>
<path d="M80.5723 38.6525V22.4316H86.0423C91.7031 22.4316 92.9401 24.8407 92.9401 30.2309C92.9401 35.6211 91.8641 38.6525 86.0423 38.6525H80.5723ZM86.0423 25.2924H83.8702V35.7817H86.0423C89.2399 35.7817 89.5518 33.8344 89.5518 30.2309C89.5518 26.6274 89.2399 25.2924 86.0423 25.2924Z" fill="white"/>
<path d="M94.8516 22.4316H98.1495V38.6525H94.8516V22.4316Z" fill="white"/>
<path d="M107.5 29.97H112.226V38.3816C110.389 38.6796 108.535 38.864 106.675 38.9336C101.376 38.9336 100.039 35.9223 100.039 30.5421C100.039 24.63 101.758 22.1406 106.565 22.1406C108.468 22.2002 110.362 22.4252 112.226 22.8131L112.125 25.3627C112.125 25.3627 109.259 25.0114 107.088 25.0114C104.272 25.0114 103.478 26.0152 103.478 30.5421C103.478 34.8583 104.081 36.0729 107.037 36.0729C108.043 36.0729 109.048 35.9725 109.048 35.9725V32.8307H107.5V29.97Z" fill="white"/>
<path d="M114.852 22.4316H118.15V38.6525H114.852V22.4316Z" fill="white"/>
<path d="M80.543 42.4062H90.8599V45.2168H83.8213V48.9408H89.4922V51.7011H83.7809V55.5154H90.8195V58.326H80.543V42.4062Z" fill="white"/>
<path d="M92.127 58.326V42.4062H97.4966C103.057 42.4062 104.284 44.7651 104.284 50.065C104.284 55.3649 103.278 58.326 97.4966 58.326H92.127ZM97.4966 45.2168H95.3649V55.5154H97.4966C100.644 55.5154 100.945 53.5982 100.945 50.065C100.945 46.5317 100.644 45.2168 97.4966 45.2168Z" fill="white"/>
<path d="M111.624 55.7965C113.524 55.7965 114.459 54.883 114.459 53.0161V42.4062H117.697V52.9458C117.697 56.9608 115.616 58.607 111.664 58.607C107.712 58.607 105.631 56.9207 105.631 52.9458V42.4062H108.868V53.0161C108.788 54.9132 109.723 55.7965 111.624 55.7965Z" fill="white"/>
<path d="M71.8553 66.5772V58.2359H64.133V54.7328H60.0305V41.8746L71.8553 41.7541V33.4229C73.1923 33.0043 74.3344 32.1217 75.0755 30.9349C75.8165 29.7481 76.1077 28.3356 75.895 26.9533C75.683 25.5709 74.9823 24.31 73.9193 23.3991C72.8562 22.4881 71.5017 21.9873 70.1007 21.9873C68.6998 21.9873 67.3452 22.4881 66.2822 23.3991C65.2193 24.31 64.5183 25.5709 64.3062 26.9533C64.0941 28.3356 64.3849 29.7481 65.126 30.9349C65.8671 32.1217 67.0094 33.0043 68.3461 33.4229V38.4417H64.133V36.5948L45.9734 29.2673L27.8742 36.4743V41.8746H31.9767V54.7328H27.824V58.2359H23.6108V54.2209C24.9476 53.8023 26.0899 52.9197 26.831 51.7329C27.5721 50.5461 27.8629 49.1336 27.6508 47.7512C27.4387 46.3689 26.7377 45.108 25.6747 44.1971C24.6118 43.2861 23.2572 42.7853 21.8562 42.7853C20.4553 42.7853 19.1007 43.2861 18.0377 44.1971C16.9748 45.108 16.2738 46.3689 16.0617 47.7512C15.8496 49.1336 16.1404 50.5461 16.8815 51.7329C17.6226 52.9197 18.7649 53.8023 20.1016 54.2209V61.7491H27.824V64.5396H34.8625V69.6889H27.4418C27.0225 68.3545 26.1384 67.2142 24.9495 66.4744C23.7607 65.7346 22.3457 65.4443 20.9609 65.656C19.5761 65.8677 18.3131 66.5675 17.4006 67.6286C16.488 68.6897 15.9863 70.042 15.9863 71.4405C15.9863 72.8389 16.488 74.1912 17.4006 75.2523C18.3131 76.3135 19.5761 77.0132 20.9609 77.225C22.3457 77.4367 23.7607 77.1464 24.9495 76.4066C26.1384 75.6668 27.0225 74.5264 27.4418 73.192H38.3617V64.5396H64.133V61.7491H68.3461V66.5772C67.0094 66.9958 65.8671 67.8785 65.126 69.0652C64.3849 70.252 64.0941 71.6645 64.3062 73.0469C64.5183 74.4293 65.2193 75.6901 66.2822 76.6011C67.3452 77.512 68.6998 78.013 70.1007 78.013C71.5017 78.013 72.8562 77.512 73.9193 76.6011C74.9823 75.6901 75.683 74.4293 75.895 73.0469C76.1077 71.6645 75.8165 70.252 75.0755 69.0652C74.3344 67.8785 73.1923 66.9958 71.8553 66.5772ZM67.7629 27.842C67.7629 27.3794 67.9004 26.9272 68.1578 26.5426C68.4152 26.158 68.7811 25.8583 69.2092 25.6812C69.6373 25.5042 70.1084 25.4579 70.5629 25.5482C71.0173 25.6384 71.4348 25.8611 71.7624 26.1882C72.0901 26.5153 72.3132 26.932 72.4035 27.3857C72.4938 27.8394 72.4478 28.3096 72.27 28.737C72.093 29.1643 71.7927 29.5296 71.4074 29.7866C71.0221 30.0436 70.5691 30.1808 70.1058 30.1808C69.4844 30.1808 68.8885 29.9343 68.4491 29.4957C68.0097 29.0571 67.7629 28.4622 67.7629 27.842ZM21.8512 50.9888C21.3878 50.9888 20.9349 50.8516 20.5496 50.5946C20.1643 50.3376 19.864 49.9724 19.6867 49.545C19.5094 49.1177 19.463 48.6474 19.5534 48.1937C19.6438 47.7401 19.8669 47.3233 20.1946 46.9962C20.5222 46.6692 20.9397 46.4464 21.3941 46.3562C21.8486 46.2659 22.3197 46.3122 22.7478 46.4893C23.1758 46.6663 23.5418 46.966 23.7992 47.3507C24.0566 47.7353 24.1941 48.1875 24.1941 48.65C24.1941 49.2703 23.9472 49.8652 23.5078 50.3038C23.0685 50.7424 22.4726 50.9888 21.8512 50.9888ZM21.8512 73.7742C21.3874 73.7742 20.934 73.6368 20.5486 73.3793C20.1631 73.1219 19.8628 72.7561 19.6858 72.3281C19.5087 71.9002 19.4629 71.4294 19.5541 70.9755C19.6454 70.5216 19.8695 70.1048 20.1982 69.7782C20.5268 69.4514 20.9452 69.2295 21.4003 69.1404C21.8555 69.0513 22.3269 69.099 22.7548 69.2776C23.1827 69.4562 23.5479 69.7575 23.8041 70.1434C24.0603 70.5293 24.196 70.9825 24.1941 71.4455C24.1914 72.064 23.9434 72.6563 23.5043 73.0928C23.0652 73.5292 22.4708 73.7743 21.8512 73.7742ZM31.3433 38.3614L45.9734 32.5898L60.6137 38.4719V38.3614H31.3433ZM56.4811 41.8746V54.7328H53.8265V41.8746H56.4811ZM50.267 41.8746V54.7328H41.6497V41.8746H50.267ZM38.1204 41.8746V54.7328H35.4357V41.8746H38.1204ZM60.6137 61.0364H31.3433V58.2359H60.6137V61.0364ZM70.1058 74.4869C69.6407 74.4869 69.1862 74.3486 68.8 74.0898C68.414 73.831 68.1138 73.4633 67.9377 73.0336C67.7616 72.6039 67.7176 72.1316 67.8113 71.6769C67.905 71.2222 68.1322 70.8055 68.4639 70.4801C68.7956 70.1547 69.2167 69.9352 69.6739 69.8495C70.131 69.7639 70.6032 69.816 71.0305 69.9991C71.4579 70.1823 71.821 70.4883 72.0735 70.8782C72.3261 71.268 72.4568 71.7241 72.4484 72.1883C72.4484 72.8085 72.2016 73.4034 71.7624 73.842C71.323 74.2807 70.7271 74.5271 70.1058 74.5271V74.4869Z" fill="white"/>
</g>
</g>
<defs>
<clipPath id="clip0_3453_326">
<rect width="115" height="56" fill="white" transform="translate(16 22)"/>
</clipPath>
</defs>
</svg>
