<svg width="150" height="108" viewBox="0 0 150 108" fill="none" xmlns="http://www.w3.org/2000/svg">
<path d="M0 10C0 4.47715 4.47715 0 10 0H140C145.523 0 150 4.47715 150 10V97.9365C150 103.459 145.523 107.937 140 107.937H10C4.47715 107.937 0 103.459 0 97.9365V10Z" fill="#00B3EC"/>
<mask id="mask0_3453_331" style="mask-type:luminance" maskUnits="userSpaceOnUse" x="15" y="39" width="114" height="23">
<path d="M128.907 39.127H15V61.7162H128.907V39.127Z" fill="white"/>
</mask>
<g mask="url(#mask0_3453_331)">
<path d="M49.4366 56.022C47.1623 57.1989 43.8834 58.167 42.3103 58.167C40.9647 58.167 40.2634 57.5975 40.2634 56.1928V40.741L36.7761 39.2793H36.6055V56.2308C36.6055 59.5148 37.8374 61.6598 41.23 61.6598C43.7697 61.6598 47.4276 60.5208 49.7967 59.3818L50.1379 61.2232H53.0945V40.7979L49.6072 39.3552H49.4177V56.022H49.4366Z" fill="white"/>
<path d="M18.7901 47.1762C18.7901 44.196 20.0221 42.5445 23.4715 42.5445C26.9209 42.5445 27.9255 44.2149 27.9255 47.1762V48.9226H18.7901V47.1762ZM31.4507 51.9978V47.5369C31.4507 43.114 29.7449 39.4883 23.4526 39.4883C17.1223 39.4883 15.1133 43.038 15.1133 47.461V53.8581C15.1133 58.6797 17.255 61.6979 23.5473 61.6979C25.5753 61.6979 27.698 61.4132 29.4796 60.9576L30.5978 57.6926L30.5789 57.5407C28.2666 58.1482 25.9544 58.5468 23.8506 58.5468C19.6999 58.5468 18.7901 57.18 18.7901 53.8201V52.0357H31.4507V51.9978Z" fill="white"/>
<path d="M70.2097 56.7619C68.5985 57.8059 66.5326 58.5083 64.6942 58.5083C62.0788 58.5083 61.6806 57.6351 61.6806 55.4521C61.6806 53.3071 62.5147 52.6047 64.789 52.6047H70.2097V56.7619ZM65.7936 39.4688C63.8413 39.4688 61.8323 39.6965 59.9751 40.1142L58.9134 43.2273L58.9327 43.3792C60.6005 43.0375 63.5382 42.6199 65.5849 42.6199C69.0344 42.6199 70.2097 43.531 70.2097 46.2076V49.5295H64.5236C60.2404 49.5295 58.0039 51.1051 58.0039 55.528C58.0039 59.2866 59.6717 61.6594 63.633 61.6594C66.2107 61.6594 68.6555 60.9571 70.5316 59.6473L70.7592 61.2228H73.8675V46.3784C73.8864 41.8416 71.8775 39.4688 65.7936 39.4688Z" fill="white"/>
<path d="M82.168 39.7725H85.2956V40.3989H82.8503V42.0694H85.125V42.6958H82.8503V44.4991H85.3144V45.1255H82.168V39.7725Z" fill="white"/>
<path d="M90.4313 39.7725V43.6259C90.4313 44.4991 89.9196 45.2015 88.536 45.2015C87.1524 45.2015 86.6406 44.4991 86.6406 43.6259V39.7725H87.323V43.569C87.323 44.2334 87.683 44.5751 88.5171 44.5751C89.3508 44.5751 89.7108 44.2334 89.7108 43.569V39.7725H90.4313Z" fill="white"/>
<path d="M93.9582 40.3989H92.6316V42.5819H93.9582C94.6217 42.5819 94.8492 42.3921 94.8492 41.8795V41.1012C94.8492 40.5697 94.6217 40.3989 93.9582 40.3989ZM93.9393 43.1893H92.6316V45.1255H91.9492V39.7725H93.9774C95.1146 39.7725 95.5316 40.266 95.5316 41.0823V41.8605C95.5316 42.487 95.304 42.9236 94.6787 43.1134L96.0622 45.1255H95.2663L93.9393 43.1893Z" fill="white"/>
<path d="M97.6524 43.5693C97.6524 44.2337 98.0506 44.5943 98.9035 44.5943C99.7372 44.5943 100.154 44.2337 100.154 43.5693V41.3293C100.154 40.665 99.7561 40.3043 98.9035 40.3043C98.0694 40.3043 97.6524 40.665 97.6524 41.3293V43.5693ZM100.818 43.5883C100.818 44.4804 100.268 45.2018 98.8843 45.2018C97.5007 45.2018 96.9512 44.4804 96.9512 43.5883V41.3293C96.9512 40.4372 97.5007 39.7158 98.8843 39.7158C100.268 39.7158 100.818 40.4372 100.818 41.3293V43.5883Z" fill="white"/>
<path d="M104.172 40.3989H102.959V42.6009H104.172C104.836 42.6009 105.044 42.411 105.044 41.8985V41.1202C105.044 40.5697 104.836 40.3989 104.172 40.3989ZM102.258 39.7725H104.191C105.328 39.7725 105.745 40.266 105.745 41.0823V41.8795C105.745 42.7148 105.347 43.2083 104.191 43.2083H102.94V45.1255H102.258V39.7725Z" fill="white"/>
<path d="M106.922 39.7725H110.068V40.3989H107.623V42.0694H109.897V42.6958H107.623V44.4991H110.068V45.1255H106.922V39.7725Z" fill="white"/>
<path d="M113.366 40.285L112.418 43.2463H114.314L113.366 40.285ZM115.621 45.1255H114.92L114.484 43.8347H112.21L111.774 45.1255H111.092L112.892 39.7725H113.821L115.621 45.1255Z" fill="white"/>
<path d="M117.383 40.5697V45.1255H116.738V39.7725H117.686L119.998 44.3473V39.7725H120.661V45.1255H119.714L117.383 40.5697Z" fill="white"/>
<path d="M85.902 47.8027V51.6562C85.902 52.5294 85.3903 53.2317 84.0067 53.2317C82.6231 53.2317 82.1113 52.5294 82.1113 51.6562V47.8027H82.7937V51.5992C82.7937 52.2636 83.1537 52.6053 83.9874 52.6053C84.8215 52.6053 85.1815 52.2636 85.1815 51.5992V47.8027H85.902Z" fill="white"/>
<path d="M88.0815 48.6V53.1368H87.418V47.8027H88.3656L90.6969 52.3775V47.8027H91.3604V53.1368H90.4127L88.0815 48.6Z" fill="white"/>
<path d="M93.6355 47.8027H92.9531V53.1558H93.6355V47.8027Z" fill="white"/>
<path d="M94.7148 47.8027H95.3783L96.9325 52.5484L98.5056 47.8027H99.169L97.4061 53.1368H96.4773L94.7148 47.8027Z" fill="white"/>
<path d="M100.193 47.8027H103.34V48.4101H100.876V50.0996H103.15V50.7071H100.876V52.5294H103.34V53.1368H100.193V47.8027Z" fill="white"/>
<path d="M106.732 48.4101H105.405V50.5932H106.732C107.395 50.5932 107.603 50.4033 107.603 49.8908V49.1125C107.603 48.6 107.376 48.4101 106.732 48.4101ZM106.713 51.2196H105.405V53.1558H104.723V47.8027H106.75C107.906 47.8027 108.305 48.2962 108.305 49.1125V49.8908C108.305 50.5172 108.077 50.9538 107.452 51.1436L108.835 53.1558H108.039L106.713 51.2196Z" fill="white"/>
<path d="M111.375 53.2314C110.863 53.2314 110.238 53.1365 109.783 52.9467L109.897 52.3772C110.39 52.5291 110.901 52.605 111.394 52.605C112.247 52.605 112.437 52.3772 112.437 51.7697C112.437 51.0484 112.437 50.9915 111.337 50.7257C110.049 50.441 109.897 50.1942 109.897 49.0742C109.897 48.1441 110.276 47.6885 111.603 47.6885C112.076 47.6885 112.626 47.7454 113.043 47.8593L112.986 48.4478C112.569 48.3529 112.057 48.2959 111.622 48.2959C110.75 48.2959 110.579 48.4668 110.579 49.0932C110.579 49.8335 110.579 49.8715 111.64 50.1372C113.062 50.4979 113.138 50.7067 113.138 51.7508C113.1 52.6999 112.835 53.2314 111.375 53.2314Z" fill="white"/>
<path d="M115.223 47.8027H114.541V53.1558H115.223V47.8027Z" fill="white"/>
<path d="M117.915 48.4101H116.322V47.8027H120.189V48.4101H118.597V53.1368H117.915V48.4101Z" fill="white"/>
<path d="M124.262 47.8027H124.982L123.22 51.5233V53.1368H122.519V51.5233L120.756 47.8027H121.476L122.879 50.783L124.262 47.8027Z" fill="white"/>
<path d="M83.9696 56.326L83.0219 59.2873H84.9361L83.9696 56.326ZM86.2442 61.1666H85.5426L85.1067 59.8758H82.8324L82.3965 61.1666H81.6953L83.4959 55.8135H84.4247L86.2442 61.1666Z" fill="white"/>
<path d="M88.7267 61.2421C88.2149 61.2421 87.5895 61.1472 87.1348 60.9574L87.2484 60.3879C87.7413 60.5398 88.253 60.6157 88.7455 60.6157C89.5985 60.6157 89.7879 60.3879 89.7879 59.7805C89.7879 59.0591 89.7879 59.0022 88.6889 58.7364C87.4001 58.4517 87.2484 58.2049 87.2484 57.085C87.2484 56.1548 87.6277 55.6992 88.9543 55.6992C89.4279 55.6992 89.9778 55.7562 90.3944 55.8701L90.3378 56.4585C89.9208 56.3636 89.409 56.3067 88.9731 56.3067C88.1013 56.3067 87.9307 56.4775 87.9307 57.1039C87.9307 57.8443 87.9307 57.8822 88.992 58.148C90.4137 58.5087 90.4896 58.7175 90.4896 59.7615C90.4703 60.7106 90.205 61.2421 88.7267 61.2421Z" fill="white"/>
<path d="M93.256 61.2421C92.7442 61.2421 92.1188 61.1472 91.6641 60.9574L91.7777 60.3879C92.2706 60.5398 92.7823 60.6157 93.2752 60.6157C94.1278 60.6157 94.3176 60.3879 94.3176 59.7805C94.3176 59.0591 94.3176 59.0022 93.2182 58.7364C91.9294 58.4517 91.7777 58.2049 91.7777 57.085C91.7777 56.1548 92.157 55.6992 93.4836 55.6992C93.9383 55.6992 94.5071 55.7562 94.9241 55.8701L94.8671 56.4585C94.4501 56.3636 93.9383 56.3067 93.5024 56.3067C92.6306 56.3067 92.46 56.4775 92.46 57.1039C92.46 57.8443 92.46 57.8822 93.5213 58.148C94.943 58.5087 95.0189 58.7175 95.0189 59.7615C94.9996 60.7106 94.7154 61.2421 93.256 61.2421Z" fill="white"/>
<path d="M96.9708 59.6097C96.9708 60.2741 97.3689 60.6348 98.2219 60.6348C99.0556 60.6348 99.4726 60.2741 99.4726 59.6097V57.3698C99.4726 56.7054 99.0744 56.3448 98.2219 56.3448C97.3878 56.3448 96.9708 56.7054 96.9708 57.3698V59.6097ZM100.136 59.6287C100.136 60.5209 99.5862 61.2422 98.2026 61.2422C96.819 61.2422 96.2695 60.5209 96.2695 59.6287V57.3508C96.2695 56.4586 96.819 55.7373 98.2026 55.7373C99.5862 55.7373 100.136 56.4586 100.136 57.3508V59.6287Z" fill="white"/>
<path d="M102.145 59.6287C102.145 60.3691 102.429 60.6158 103.301 60.6158C103.624 60.6158 104.135 60.5779 104.552 60.5019L104.628 61.0904C104.249 61.1853 103.681 61.2422 103.282 61.2422C101.975 61.2422 101.463 60.6728 101.463 59.6667V57.3128C101.463 56.3068 101.975 55.7373 103.282 55.7373C103.681 55.7373 104.249 55.7942 104.628 55.8891L104.552 56.4776C104.135 56.4017 103.624 56.3637 103.301 56.3637C102.429 56.3637 102.145 56.6105 102.145 57.3508V59.6287Z" fill="white"/>
<path d="M106.637 55.8135H105.955V61.1666H106.637V55.8135Z" fill="white"/>
<path d="M110.067 56.326L109.119 59.2873H111.033L110.067 56.326ZM112.322 61.1666H111.621L111.185 59.8758H108.911L108.475 61.1666H107.773L109.574 55.8135H110.502L112.322 61.1666Z" fill="white"/>
<path d="M114.067 56.4399H112.475V55.8135H116.341V56.4399H114.749V61.1666H114.067V56.4399Z" fill="white"/>
<path d="M118.104 55.8135H117.422V61.1666H118.104V55.8135Z" fill="white"/>
<path d="M120.284 59.6097C120.284 60.2741 120.682 60.6348 121.535 60.6348C122.369 60.6348 122.786 60.2741 122.786 59.6097V57.3698C122.786 56.7054 122.388 56.3448 121.535 56.3448C120.701 56.3448 120.284 56.7054 120.284 57.3698V59.6097ZM123.468 59.6287C123.468 60.5209 122.919 61.2422 121.535 61.2422C120.151 61.2422 119.602 60.5209 119.602 59.6287V57.3508C119.602 56.4586 120.151 55.7373 121.535 55.7373C122.919 55.7373 123.468 56.4586 123.468 57.3508V59.6287Z" fill="white"/>
<path d="M125.572 56.6108V61.1666H124.908V55.8135H125.856L128.168 60.3883V55.8135H128.831V61.1666H127.884L125.572 56.6108Z" fill="white"/>
</g>
</svg>
