<svg width="15" height="15" viewBox="0 0 15 15" fill="none" xmlns="http://www.w3.org/2000/svg">
<path d="M10.75 4.13253V2.56627C10.75 2.15087 10.5788 1.75248 10.274 1.45875C9.9693 1.16502 9.55598 1 9.125 1H2.625C2.19402 1 1.7807 1.16502 1.47595 1.45875C1.1712 1.75248 1 2.15087 1 2.56627V8.83133C1 9.24672 1.1712 9.64511 1.47595 9.93884C1.7807 10.2326 2.19402 10.3976 2.625 10.3976H4.25M4.25 5.6988C4.25 5.2834 4.42121 4.88501 4.72595 4.59128C5.0307 4.29755 5.44402 4.13253 5.875 4.13253H12.375C12.806 4.13253 13.2193 4.29755 13.524 4.59128C13.8288 4.88501 14 5.2834 14 5.6988V11.9639C14 12.3793 13.8288 12.7776 13.524 13.0714C13.2193 13.3651 12.806 13.5301 12.375 13.5301H5.875C5.44402 13.5301 5.0307 13.3651 4.72595 13.0714C4.42121 12.7776 4.25 12.3793 4.25 11.9639V5.6988Z" stroke="#A6A6A8" stroke-width="1.5" stroke-linecap="round" stroke-linejoin="round"/>
</svg>
