<svg width="370" height="77" viewBox="0 0 370 77" fill="none" xmlns="http://www.w3.org/2000/svg">
<rect width="370" height="77" rx="6" fill="#1DC202"/>
<path d="M36 54C44.2843 54 51 47.2843 51 39C51 30.7157 44.2843 24 36 24C27.7157 24 21 30.7157 21 39C21 47.2843 27.7157 54 36 54Z" fill="white"/>
<path d="M36 33V45" stroke="#1DC202" stroke-width="4" stroke-linecap="round" stroke-linejoin="round"/>
<path d="M30 39H42" stroke="#1DC202" stroke-width="4" stroke-linecap="round" stroke-linejoin="round"/>
<path d="M112.665 27.32L107.721 44H104.625L101.121 31.376L97.4005 44L94.3285 44.024L89.6005 27.32H92.5045L95.9605 40.904L99.7045 27.32H102.777L106.257 40.832L109.737 27.32H112.665ZM114.009 37.328C114.009 36 114.281 34.824 114.825 33.8C115.385 32.776 116.137 31.984 117.081 31.424C118.041 30.848 119.097 30.56 120.249 30.56C121.289 30.56 122.193 30.768 122.961 31.184C123.745 31.584 124.369 32.088 124.833 32.696V30.776H127.593V44H124.833V42.032C124.369 42.656 123.737 43.176 122.937 43.592C122.137 44.008 121.225 44.216 120.201 44.216C119.065 44.216 118.025 43.928 117.081 43.352C116.137 42.76 115.385 41.944 114.825 40.904C114.281 39.848 114.009 38.656 114.009 37.328ZM124.833 37.376C124.833 36.464 124.641 35.672 124.257 35C123.889 34.328 123.401 33.816 122.793 33.464C122.185 33.112 121.529 32.936 120.825 32.936C120.121 32.936 119.465 33.112 118.857 33.464C118.249 33.8 117.753 34.304 117.369 34.976C117.001 35.632 116.817 36.416 116.817 37.328C116.817 38.24 117.001 39.04 117.369 39.728C117.753 40.416 118.249 40.944 118.857 41.312C119.481 41.664 120.137 41.84 120.825 41.84C121.529 41.84 122.185 41.664 122.793 41.312C123.401 40.96 123.889 40.448 124.257 39.776C124.641 39.088 124.833 38.288 124.833 37.376ZM134.379 33.008V40.328C134.379 40.824 134.491 41.184 134.715 41.408C134.955 41.616 135.355 41.72 135.915 41.72H137.595V44H135.435C134.203 44 133.259 43.712 132.603 43.136C131.947 42.56 131.619 41.624 131.619 40.328V33.008H130.059V30.776H131.619V27.488H134.379V30.776H137.595V33.008H134.379ZM139.204 37.376C139.204 36.016 139.476 34.824 140.02 33.8C140.58 32.76 141.348 31.96 142.324 31.4C143.3 30.84 144.42 30.56 145.684 30.56C147.284 30.56 148.604 30.944 149.644 31.712C150.7 32.464 151.412 33.544 151.78 34.952H148.828C148.588 34.296 148.204 33.784 147.676 33.416C147.148 33.048 146.484 32.864 145.684 32.864C144.564 32.864 143.668 33.264 142.996 34.064C142.34 34.848 142.012 35.952 142.012 37.376C142.012 38.8 142.34 39.912 142.996 40.712C143.668 41.512 144.564 41.912 145.684 41.912C147.268 41.912 148.316 41.216 148.828 39.824H151.78C151.396 41.168 150.676 42.24 149.62 43.04C148.564 43.824 147.252 44.216 145.684 44.216C144.42 44.216 143.3 43.936 142.324 43.376C141.348 42.8 140.58 42 140.02 40.976C139.476 39.936 139.204 38.736 139.204 37.376ZM161.347 30.56C162.355 30.56 163.251 30.776 164.035 31.208C164.835 31.64 165.459 32.28 165.907 33.128C166.371 33.976 166.603 35 166.603 36.2V44H163.891V36.608C163.891 35.424 163.595 34.52 163.003 33.896C162.411 33.256 161.603 32.936 160.579 32.936C159.555 32.936 158.739 33.256 158.131 33.896C157.539 34.52 157.243 35.424 157.243 36.608V44H154.507V26.24H157.243V32.312C157.707 31.752 158.291 31.32 158.995 31.016C159.715 30.712 160.499 30.56 161.347 30.56ZM184.991 44L181.151 37.328H179.063V44H176.327V27.32H182.087C183.367 27.32 184.447 27.544 185.327 27.992C186.223 28.44 186.887 29.04 187.319 29.792C187.767 30.544 187.991 31.384 187.991 32.312C187.991 33.4 187.671 34.392 187.031 35.288C186.407 36.168 185.439 36.768 184.127 37.088L188.255 44H184.991ZM179.063 35.144H182.087C183.111 35.144 183.879 34.888 184.391 34.376C184.919 33.864 185.183 33.176 185.183 32.312C185.183 31.448 184.927 30.776 184.415 30.296C183.903 29.8 183.127 29.552 182.087 29.552H179.063V35.144ZM203.611 37.064C203.611 37.56 203.579 38.008 203.515 38.408H193.411C193.491 39.464 193.883 40.312 194.587 40.952C195.291 41.592 196.155 41.912 197.179 41.912C198.651 41.912 199.691 41.296 200.299 40.064H203.251C202.851 41.28 202.123 42.28 201.067 43.064C200.027 43.832 198.731 44.216 197.179 44.216C195.915 44.216 194.779 43.936 193.771 43.376C192.779 42.8 191.995 42 191.419 40.976C190.859 39.936 190.579 38.736 190.579 37.376C190.579 36.016 190.851 34.824 191.395 33.8C191.955 32.76 192.731 31.96 193.723 31.4C194.731 30.84 195.883 30.56 197.179 30.56C198.427 30.56 199.539 30.832 200.515 31.376C201.491 31.92 202.251 32.688 202.795 33.68C203.339 34.656 203.611 35.784 203.611 37.064ZM200.755 36.2C200.739 35.192 200.379 34.384 199.675 33.776C198.971 33.168 198.099 32.864 197.059 32.864C196.115 32.864 195.307 33.168 194.635 33.776C193.963 34.368 193.563 35.176 193.435 36.2H200.755ZM205.392 37.376C205.392 36.016 205.664 34.824 206.208 33.8C206.768 32.76 207.536 31.96 208.512 31.4C209.488 30.84 210.608 30.56 211.872 30.56C213.472 30.56 214.792 30.944 215.832 31.712C216.888 32.464 217.6 33.544 217.968 34.952H215.016C214.776 34.296 214.392 33.784 213.864 33.416C213.336 33.048 212.672 32.864 211.872 32.864C210.752 32.864 209.856 33.264 209.184 34.064C208.528 34.848 208.2 35.952 208.2 37.376C208.2 38.8 208.528 39.912 209.184 40.712C209.856 41.512 210.752 41.912 211.872 41.912C213.456 41.912 214.504 41.216 215.016 39.824H217.968C217.584 41.168 216.864 42.24 215.808 43.04C214.752 43.824 213.44 44.216 211.872 44.216C210.608 44.216 209.488 43.936 208.512 43.376C207.536 42.8 206.768 42 206.208 40.976C205.664 39.936 205.392 38.736 205.392 37.376ZM226.431 44.216C225.183 44.216 224.055 43.936 223.047 43.376C222.039 42.8 221.247 42 220.671 40.976C220.095 39.936 219.807 38.736 219.807 37.376C219.807 36.032 220.103 34.84 220.695 33.8C221.287 32.76 222.095 31.96 223.119 31.4C224.143 30.84 225.287 30.56 226.551 30.56C227.815 30.56 228.959 30.84 229.983 31.4C231.007 31.96 231.815 32.76 232.407 33.8C232.999 34.84 233.295 36.032 233.295 37.376C233.295 38.72 232.991 39.912 232.383 40.952C231.775 41.992 230.943 42.8 229.887 43.376C228.847 43.936 227.695 44.216 226.431 44.216ZM226.431 41.84C227.135 41.84 227.791 41.672 228.399 41.336C229.023 41 229.527 40.496 229.911 39.824C230.295 39.152 230.487 38.336 230.487 37.376C230.487 36.416 230.303 35.608 229.935 34.952C229.567 34.28 229.079 33.776 228.471 33.44C227.863 33.104 227.207 32.936 226.503 32.936C225.799 32.936 225.143 33.104 224.535 33.44C223.943 33.776 223.471 34.28 223.119 34.952C222.767 35.608 222.591 36.416 222.591 37.376C222.591 38.8 222.951 39.904 223.671 40.688C224.407 41.456 225.327 41.84 226.431 41.84ZM238.735 32.696C239.135 32.024 239.663 31.504 240.319 31.136C240.991 30.752 241.783 30.56 242.695 30.56V33.392H241.999C240.927 33.392 240.111 33.664 239.551 34.208C239.007 34.752 238.735 35.696 238.735 37.04V44H235.999V30.776H238.735V32.696ZM244.298 37.328C244.298 36 244.57 34.824 245.114 33.8C245.674 32.776 246.426 31.984 247.37 31.424C248.33 30.848 249.394 30.56 250.562 30.56C251.426 30.56 252.274 30.752 253.106 31.136C253.954 31.504 254.626 32 255.122 32.624V26.24H257.882V44H255.122V42.008C254.674 42.648 254.05 43.176 253.25 43.592C252.466 44.008 251.562 44.216 250.538 44.216C249.386 44.216 248.33 43.928 247.37 43.352C246.426 42.76 245.674 41.944 245.114 40.904C244.57 39.848 244.298 38.656 244.298 37.328ZM255.122 37.376C255.122 36.464 254.93 35.672 254.546 35C254.178 34.328 253.69 33.816 253.082 33.464C252.474 33.112 251.818 32.936 251.114 32.936C250.41 32.936 249.754 33.112 249.146 33.464C248.538 33.8 248.042 34.304 247.658 34.976C247.29 35.632 247.106 36.416 247.106 37.328C247.106 38.24 247.29 39.04 247.658 39.728C248.042 40.416 248.538 40.944 249.146 41.312C249.77 41.664 250.426 41.84 251.114 41.84C251.818 41.84 252.474 41.664 253.082 41.312C253.69 40.96 254.178 40.448 254.546 39.776C254.93 39.088 255.122 38.288 255.122 37.376ZM262.868 29.024C262.372 29.024 261.956 28.856 261.62 28.52C261.284 28.184 261.116 27.768 261.116 27.272C261.116 26.776 261.284 26.36 261.62 26.024C261.956 25.688 262.372 25.52 262.868 25.52C263.348 25.52 263.756 25.688 264.092 26.024C264.428 26.36 264.596 26.776 264.596 27.272C264.596 27.768 264.428 28.184 264.092 28.52C263.756 28.856 263.348 29.024 262.868 29.024ZM264.212 30.776V44H261.476V30.776H264.212ZM274.476 30.56C275.516 30.56 276.444 30.776 277.26 31.208C278.092 31.64 278.74 32.28 279.204 33.128C279.668 33.976 279.9 35 279.9 36.2V44H277.188V36.608C277.188 35.424 276.892 34.52 276.3 33.896C275.708 33.256 274.9 32.936 273.876 32.936C272.852 32.936 272.036 33.256 271.428 33.896C270.836 34.52 270.54 35.424 270.54 36.608V44H267.804V30.776H270.54V32.288C270.988 31.744 271.556 31.32 272.244 31.016C272.948 30.712 273.692 30.56 274.476 30.56ZM288.718 30.56C289.742 30.56 290.646 30.768 291.43 31.184C292.23 31.584 292.854 32.088 293.302 32.696V30.776H296.062V44.216C296.062 45.432 295.806 46.512 295.294 47.456C294.782 48.416 294.038 49.168 293.062 49.712C292.102 50.256 290.95 50.528 289.606 50.528C287.814 50.528 286.326 50.104 285.142 49.256C283.958 48.424 283.286 47.288 283.126 45.848H285.838C286.046 46.536 286.486 47.088 287.158 47.504C287.846 47.936 288.662 48.152 289.606 48.152C290.71 48.152 291.598 47.816 292.27 47.144C292.958 46.472 293.302 45.496 293.302 44.216V42.008C292.838 42.632 292.206 43.16 291.406 43.592C290.622 44.008 289.726 44.216 288.718 44.216C287.566 44.216 286.51 43.928 285.55 43.352C284.606 42.76 283.854 41.944 283.294 40.904C282.75 39.848 282.478 38.656 282.478 37.328C282.478 36 282.75 34.824 283.294 33.8C283.854 32.776 284.606 31.984 285.55 31.424C286.51 30.848 287.566 30.56 288.718 30.56ZM293.302 37.376C293.302 36.464 293.11 35.672 292.726 35C292.358 34.328 291.87 33.816 291.262 33.464C290.654 33.112 289.998 32.936 289.294 32.936C288.59 32.936 287.934 33.112 287.326 33.464C286.718 33.8 286.222 34.304 285.838 34.976C285.47 35.632 285.286 36.416 285.286 37.328C285.286 38.24 285.47 39.04 285.838 39.728C286.222 40.416 286.718 40.944 287.326 41.312C287.95 41.664 288.606 41.84 289.294 41.84C289.998 41.84 290.654 41.664 291.262 41.312C291.87 40.96 292.358 40.448 292.726 39.776C293.11 39.088 293.302 38.288 293.302 37.376Z" fill="white"/>
</svg>
