<svg width="800" height="800" viewBox="0 0 800 800" fill="none" xmlns="http://www.w3.org/2000/svg">
<rect x="132" y="164" width="536" height="473" rx="30" fill="#4E4E4E"/>
<path fill-rule="evenodd" clip-rule="evenodd" d="M80 144C80 108.654 108.654 80 144 80H272C307.346 80 336 108.654 336 144V186.667H464V144C464 108.654 492.655 80 528 80H656C691.345 80 720 108.654 720 144V272C720 307.346 691.345 336 656 336H613.333V464H656C691.345 464 720 492.655 720 528V656C720 691.345 691.345 720 656 720H528C492.655 720 464 691.345 464 656V613.333H336V656C336 691.345 307.346 720 272 720H144C108.654 720 80 691.345 80 656V528C80 492.655 108.654 464 144 464H186.667V336H144C108.654 336 80 307.346 80 272V144ZM570.667 336H528C492.655 336 464 307.346 464 272V229.333H336V272C336 307.346 307.346 336 272 336H229.333V464H272C307.346 464 336 492.655 336 528V570.667H464V528C464 492.655 492.655 464 528 464H570.667V336ZM144 122.667C132.218 122.667 122.667 132.218 122.667 144V272C122.667 283.782 132.218 293.333 144 293.333H272C283.782 293.333 293.333 283.782 293.333 272V144C293.333 132.218 283.782 122.667 272 122.667H144ZM122.667 528C122.667 516.22 132.218 506.667 144 506.667H272C283.782 506.667 293.333 516.22 293.333 528V656C293.333 667.78 283.782 677.333 272 677.333H144C132.218 677.333 122.667 667.78 122.667 656V528ZM506.667 528C506.667 516.22 516.22 506.667 528 506.667H656C667.78 506.667 677.333 516.22 677.333 528V656C677.333 667.78 667.78 677.333 656 677.333H528C516.22 677.333 506.667 667.78 506.667 656V528ZM506.667 144C506.667 132.218 516.22 122.667 528 122.667H656C667.78 122.667 677.333 132.218 677.333 144V272C677.333 283.782 667.78 293.333 656 293.333H528C516.22 293.333 506.667 283.782 506.667 272V144Z" fill="#D7DF23"/>
</svg>
