<svg width="800" height="800" viewBox="0 0 800 800" fill="none" xmlns="http://www.w3.org/2000/svg">
<rect x="298" y="156" width="341" height="479" rx="30" fill="#4E4E4E"/>
<path d="M194.333 403.999L100 499.999M366.667 566.665H566.667M500 433.332H566.667M266.667 233.332C246.889 233.332 227.555 239.197 211.11 250.185C194.665 261.173 181.847 276.791 174.279 295.064C166.71 313.336 164.73 333.443 168.588 352.841C172.447 372.239 181.971 390.057 195.956 404.043C209.941 418.028 227.76 427.552 247.158 431.411C266.556 435.269 286.662 433.289 304.935 425.72C323.208 418.151 338.825 405.334 349.814 388.889C360.802 372.444 366.667 353.11 366.667 333.332C366.667 306.81 356.131 281.375 337.377 262.621C318.624 243.868 293.188 233.332 266.667 233.332Z" stroke="#D7DF23" stroke-width="66.6667" stroke-linecap="round" stroke-linejoin="round"/>
<path d="M266.667 100H666.667C675.508 100 683.986 103.512 690.238 109.763C696.489 116.014 700.001 124.493 700.001 133.333V666.667C700.001 675.507 696.489 683.986 690.238 690.237C683.986 696.488 675.508 700 666.667 700H266.667C257.827 700 249.348 696.488 243.097 690.237C236.846 683.986 233.334 675.507 233.334 666.667V566.667" stroke="#D7DF23" stroke-width="66.6667" stroke-linecap="round" stroke-linejoin="round"/>
</svg>
