<svg width="800" height="800" viewBox="0 0 800 800" fill="none" xmlns="http://www.w3.org/2000/svg">
<g clip-path="url(#clip0_755_2380)">
<rect y="156" width="800" height="479" rx="30" fill="#4E4E4E"/>
<path d="M575 475H475C461.193 475 450 486.193 450 500C450 513.807 461.193 525 475 525H575C588.807 525 600 513.807 600 500C600 486.193 588.807 475 575 475Z" fill="#D7DF23"/>
<path d="M725 375H475C461.193 375 450 386.193 450 400C450 413.807 461.193 425 475 425H725C738.807 425 750 413.807 750 400C750 386.193 738.807 375 725 375Z" fill="#D7DF23"/>
<path d="M725 275H475C461.193 275 450 286.193 450 300C450 313.807 461.193 325 475 325H725C738.807 325 750 313.807 750 300C750 286.193 738.807 275 725 275Z" fill="#D7DF23"/>
<path d="M350 525V475H225V425H175V475H50V525H255.37C246.181 562.521 227.044 596.87 199.972 624.428C185.783 609.624 173.62 593.003 163.803 575H108.335C121.043 605.508 139.218 633.438 161.962 657.415C135.161 676.503 105.91 691.895 75 703.175L92.5525 750C131.021 735.99 167.177 716.303 199.82 691.595C232.588 716.313 268.864 735.999 307.448 750L325 703.175C294.106 691.917 264.867 676.555 238.07 657.5C273.357 621.012 297.089 574.919 306.29 525H350Z" fill="#D7DF23"/>
<path d="M279.165 325H333.325L218.75 50H164.58L50 325H104.16L125 275H258.337L279.165 325ZM145.827 225L191.663 115L237.5 225H145.827Z" fill="#D7DF23"/>
</g>
<defs>
<clipPath id="clip0_755_2380">
<rect width="800" height="800" fill="white"/>
</clipPath>
</defs>
</svg>
