<svg width="800" height="800" viewBox="0 0 800 800" fill="none" xmlns="http://www.w3.org/2000/svg">
<rect x="200" y="320" width="400" height="353" rx="30" fill="#4E4E4E"/>
<path d="M299.999 500C281.59 500 266.666 514.923 266.666 533.333C266.666 551.743 281.59 566.667 299.999 566.667C318.409 566.667 333.333 551.743 333.333 533.333C333.333 514.923 318.409 500 299.999 500Z" fill="#D7DF23"/>
<path d="M466.666 533.333C466.666 514.923 481.589 500 499.999 500C518.409 500 533.333 514.923 533.333 533.333C533.333 551.743 518.409 566.667 499.999 566.667C481.589 566.667 466.666 551.743 466.666 533.333Z" fill="#D7DF23"/>
<path fill-rule="evenodd" clip-rule="evenodd" d="M400 33.332C363.18 33.332 333.333 63.1797 333.333 99.9987C333.333 124.675 346.74 146.22 366.667 157.747V233.332H200C144.772 233.332 100 278.104 100 333.332V666.665C100 721.895 144.772 766.665 200 766.665H600C655.23 766.665 700 721.895 700 666.665V333.332C700 278.104 655.23 233.332 600 233.332H433.333V157.747C453.26 146.22 466.667 124.675 466.667 99.9987C466.667 63.1797 436.82 33.332 400 33.332ZM166.667 333.332C166.667 314.923 181.591 299.999 200 299.999H246.066L294.306 396.479C305.599 419.065 328.683 433.332 353.933 433.332H446.067C471.317 433.332 494.4 419.065 505.693 396.479L553.933 299.999H600C618.41 299.999 633.333 314.923 633.333 333.332V666.665C633.333 685.075 618.41 699.999 600 699.999H200C181.591 699.999 166.667 685.075 166.667 666.665V333.332ZM446.067 366.665L479.4 299.999H320.601L353.933 366.665H446.067Z" fill="#D7DF23"/>
<path d="M33.3333 466.668C14.9238 466.668 0 481.591 0 500.001V566.668C0 585.078 14.9238 600.001 33.3333 600.001C51.7427 600.001 66.6667 585.078 66.6667 566.668V500.001C66.6667 481.591 51.7427 466.668 33.3333 466.668Z" fill="#D7DF23"/>
<path d="M733.334 500.001C733.334 481.591 748.257 466.668 766.667 466.668C785.077 466.668 800.001 481.591 800.001 500.001V566.668C800.001 585.078 785.077 600.001 766.667 600.001C748.257 600.001 733.334 585.078 733.334 566.668V500.001Z" fill="#D7DF23"/>
</svg>
