<svg width="800" height="800" viewBox="0 0 800 800" fill="none" xmlns="http://www.w3.org/2000/svg">
<path d="M580.84 166.128C276.153 150.302 149.491 304.985 157.343 378.813C176.173 575.549 358.318 539.5 422.099 510.543C581.921 437.983 608.618 332.027 629.699 232.85C636.616 200.31 614.063 167.854 580.84 166.128Z" fill="#4E4E4E"/>
<path d="M148.298 566.968C-8.21246 261.255 244.684 22.8717 651.82 120.416C680.534 127.295 700.27 153.662 698.834 183.152C686.207 442.934 567.804 590.161 204.418 599.524C181.008 600.128 158.97 587.814 148.298 566.968Z" stroke="#D7DF23" stroke-width="66.6667" stroke-linecap="round" stroke-linejoin="round"/>
<path d="M133.332 700C183.334 516.666 199.999 416.666 399.999 333.332" stroke="#D7DF23" stroke-width="66.6667" stroke-linecap="round" stroke-linejoin="round"/>
</svg>
