<svg width="800" height="800" viewBox="0 0 800 800" fill="none" xmlns="http://www.w3.org/2000/svg">
<path d="M516.667 249.999C516.667 314.432 464.434 366.665 400.001 366.665C335.567 366.665 283.334 314.432 283.334 249.999C283.334 185.565 335.567 133.332 400.001 133.332C464.434 133.332 516.667 185.565 516.667 249.999Z" fill="#D7DF23"/>
<path d="M600 549.999C600 614.432 510.457 666.665 400 666.665C289.543 666.665 200 614.432 200 549.999C200 485.565 289.543 433.332 400 433.332C510.457 433.332 600 485.565 600 549.999Z" fill="#D7DF23"/>
<path d="M237.401 166.668C243.316 166.668 249.091 167.248 254.668 168.353C241.082 192.483 233.333 220.337 233.333 250.001C233.333 278.943 240.71 306.162 253.686 329.88C248.414 330.862 242.97 331.377 237.401 331.377C190.254 331.377 152.033 294.505 152.033 249.022C152.033 203.539 190.254 166.668 237.401 166.668Z" fill="#4E4E4E"/>
<path d="M181.577 632.866C162.647 610.236 149.999 582.466 149.999 549.999C149.999 518.526 161.885 491.466 179.859 469.223C116.369 474.149 66.666 508.873 66.666 550.979C66.666 593.479 117.243 628.459 181.577 632.866Z" fill="#4E4E4E"/>
<path d="M566.663 250.001C566.663 278.943 559.287 306.162 546.31 329.88C551.583 330.862 557.027 331.377 562.597 331.377C609.743 331.377 647.963 294.505 647.963 249.022C647.963 203.539 609.743 166.668 562.597 166.668C556.68 166.668 550.907 167.248 545.33 168.353C558.913 192.483 566.663 220.337 566.663 250.001Z" fill="#4E4E4E"/>
<path d="M618.42 632.866C682.753 628.459 733.33 593.479 733.33 550.979C733.33 508.873 683.627 474.149 620.137 469.223C638.11 491.466 649.997 518.526 649.997 549.999C649.997 582.466 637.35 610.236 618.42 632.866Z" fill="#4E4E4E"/>
</svg>
