<svg width="800" height="800" viewBox="0 0 800 800" fill="none" xmlns="http://www.w3.org/2000/svg">
<g clip-path="url(#clip0_761_988)">
<rect x="368.826" y="232.719" width="279.476" height="299.823" rx="30" transform="rotate(38.6278 368.826 232.719)" fill="#4E4E4E"/>
<path d="M698.222 202.002L409.333 68.6683C406.408 67.3145 403.223 66.6133 400 66.6133C396.777 66.6133 393.592 67.3145 390.667 68.6683L101.778 202.002C97.9203 203.787 94.6558 206.641 92.3713 210.225C90.0869 213.809 88.8782 217.973 88.8887 222.224V600.002C88.8782 604.252 90.0869 608.416 92.3713 612C94.6558 615.585 97.9203 618.439 101.778 620.224L390.667 753.557C393.592 754.911 396.777 755.612 400 755.612C403.223 755.612 406.408 754.911 409.333 753.557L698.222 620.224C702.079 618.439 705.344 615.585 707.628 612C709.913 608.416 711.121 604.252 711.111 600.002V222.224C711.121 217.973 709.913 213.809 707.628 210.225C705.344 206.641 702.079 203.787 698.222 202.002ZM400 331.113L164.222 222.224L400 113.335L635.778 222.224L400 331.113ZM666.667 585.779L422.222 698.668V369.779L666.667 256.891V585.779Z" fill="#D7DF23"/>
</g>
<defs>
<clipPath id="clip0_761_988">
<rect width="800" height="800" fill="white"/>
</clipPath>
</defs>
</svg>
