<svg width="800" height="800" viewBox="0 0 800 800" fill="none" xmlns="http://www.w3.org/2000/svg">
<path d="M409.751 325C575.001 325 700.001 260.5 700.001 175C700.001 89.5 575.001 25 409.751 25C260.751 25 100.001 82.25 100.001 175C100.001 267.75 260.751 325 409.751 325ZM409.751 75C551.251 75 650.001 127.75 650.001 175C650.001 222.25 551.251 275 409.751 275C268.251 275 150.001 220.25 150.001 175C150.001 129.75 266.001 75 409.751 75ZM142.751 607.25C141.521 606.119 140.181 605.114 138.751 604.25C137.477 603.256 136.039 602.495 134.501 602C133.04 601.073 131.435 600.397 129.751 600C125.734 599.196 121.582 599.391 117.659 600.568C113.735 601.745 110.161 603.868 107.251 606.75C105.042 609.18 103.267 611.97 102.001 615C100.654 618.161 99.9732 621.565 100.001 625C99.9068 628.28 100.592 631.536 102.001 634.5C103.271 637.527 105.046 640.317 107.251 642.75C109.681 644.958 112.471 646.734 115.501 648C118.493 649.323 121.729 650.006 125.001 650.006C128.272 650.006 131.508 649.323 134.501 648C137.528 646.73 140.318 644.954 142.751 642.75C144.955 640.317 146.73 637.527 148.001 634.5C149.323 631.507 150.007 628.272 150.007 625C150.007 621.728 149.323 618.493 148.001 615.5C146.735 612.47 144.959 609.68 142.751 607.25ZM304.751 715C267.312 708.383 231.13 695.985 197.501 678.25C191.732 674.935 184.883 674.047 178.46 675.782C172.037 677.516 166.566 681.732 163.251 687.5C159.935 693.268 159.048 700.118 160.782 706.541C162.517 712.964 166.732 718.435 172.501 721.75C210.813 742.087 252.056 756.341 294.751 764H299.501C306.131 764.63 312.74 762.6 317.874 758.357C323.008 754.114 326.246 748.005 326.876 741.375C327.506 734.745 325.476 728.136 321.233 723.002C316.99 717.868 310.881 714.63 304.251 714L304.751 715ZM659.751 577C653.699 579.637 648.936 584.56 646.5 590.695C644.065 596.831 644.155 603.681 646.751 609.75C648.883 614.552 649.99 619.746 650.001 625C650.001 672.25 551.251 725 409.751 725H400.001C393.37 725 387.011 727.634 382.323 732.322C377.635 737.011 375.001 743.37 375.001 750C375.001 756.63 377.635 762.989 382.323 767.678C387.011 772.366 393.37 775 400.001 775H410.251C575.001 775 700.001 710.5 700.001 625C699.97 613.044 697.503 601.221 692.751 590.25C691.469 587.201 689.596 584.436 687.239 582.116C684.881 579.796 682.087 577.967 679.017 576.734C675.948 575.502 672.665 574.891 669.357 574.936C666.05 574.982 662.785 575.683 659.751 577Z" fill="#D7DF23"/>
<path d="M659.75 276.999C653.698 279.635 648.935 284.559 646.5 290.694C644.064 296.83 644.154 303.679 646.75 309.749C648.883 314.55 649.99 319.744 650 324.999C650 372.249 551.25 424.999 409.75 424.999C268.25 424.999 150 370.249 150 324.999C150.04 320.12 151.239 315.322 153.5 310.999C155.082 308.048 156.056 304.81 156.363 301.476C156.67 298.142 156.304 294.781 155.287 291.591C154.27 288.401 152.623 285.448 150.444 282.907C148.264 280.366 145.596 278.288 142.598 276.798C139.601 275.307 136.334 274.434 132.992 274.23C129.651 274.026 126.302 274.495 123.145 275.61C119.988 276.724 117.087 278.462 114.614 280.719C112.142 282.976 110.147 285.706 108.75 288.749C103.054 299.987 100.058 312.399 100 324.999C100 417.749 260.75 474.999 409.75 474.999C575 474.999 700 410.499 700 324.999C699.969 313.043 697.502 301.219 692.75 290.249C691.469 287.199 689.595 284.434 687.238 282.114C684.881 279.794 682.086 277.965 679.017 276.733C675.947 275.5 672.664 274.889 669.357 274.935C666.05 274.98 662.784 275.682 659.75 276.999Z" fill="#D7DF23"/>
<path d="M659.75 426.999C653.698 429.635 648.935 434.559 646.5 440.694C644.064 446.83 644.154 453.679 646.75 459.749C648.883 464.55 649.99 469.744 650 474.999C650 522.249 551.25 574.999 409.75 574.999C268.25 574.999 150 520.249 150 474.999C150.04 470.12 151.239 465.322 153.5 460.999C155.082 458.048 156.056 454.81 156.363 451.476C156.67 448.142 156.304 444.781 155.287 441.591C154.27 438.401 152.623 435.448 150.444 432.907C148.264 430.366 145.596 428.288 142.598 426.798C139.601 425.307 136.334 424.434 132.992 424.23C129.651 424.026 126.302 424.495 123.145 425.61C119.988 426.724 117.087 428.462 114.614 430.719C112.142 432.976 110.147 435.706 108.75 438.749C103.054 449.987 100.058 462.399 100 474.999C100 567.749 260.75 624.999 409.75 624.999C575 624.999 700 560.499 700 474.999C699.969 463.043 697.502 451.219 692.75 440.249C691.469 437.199 689.595 434.434 687.238 432.114C684.881 429.794 682.086 427.965 679.017 426.733C675.947 425.5 672.664 424.889 669.357 424.935C666.05 424.98 662.784 425.682 659.75 426.999Z" fill="#D7DF23"/>
</svg>
