<svg width="800" height="800" viewBox="0 0 800 800" fill="none" xmlns="http://www.w3.org/2000/svg">
<path d="M466.667 333.333C466.667 314.924 451.744 300 433.334 300H416.667C315.415 300 233.334 382.08 233.334 483.333C233.334 584.587 315.415 666.667 416.667 666.667H583.334C684.587 666.667 766.667 584.587 766.667 483.333C766.667 400.303 711.471 330.163 635.767 307.608C616.994 302.014 600.001 317.629 600.001 337.22V338.943C600.001 355.53 612.484 369.117 627.817 375.447C670.184 392.933 700.001 434.65 700.001 483.333C700.001 547.767 647.767 600 583.334 600H416.667C352.234 600 300.001 547.767 300.001 483.333C300.001 418.9 352.234 366.667 416.667 366.667H433.334C451.744 366.667 466.667 351.743 466.667 333.333Z" fill="#4E4E4E"/>
<path d="M383.334 133.332C484.587 133.332 566.667 215.413 566.667 316.665C566.667 417.919 484.587 499.999 383.334 499.999H366.667C348.257 499.999 333.334 485.075 333.334 466.665C333.334 448.255 348.257 433.332 366.667 433.332H383.334C447.767 433.332 500.001 381.099 500.001 316.665C500.001 252.232 447.767 199.999 383.334 199.999H216.667C152.234 199.999 100.001 252.232 100.001 316.665C100.001 365.349 129.818 407.065 172.185 424.552C187.517 430.879 200.001 444.469 200.001 461.055V462.779C200.001 482.369 183.009 497.985 164.234 492.392C88.5313 469.835 33.334 399.695 33.334 316.665C33.334 215.413 115.415 133.332 216.667 133.332H383.334Z" fill="#D7DF23"/>
</svg>
