<svg width="800" height="800" viewBox="0 0 800 800" fill="none" xmlns="http://www.w3.org/2000/svg">
<path d="M450 233.332L566.667 349.999" stroke="#D7DF23" stroke-width="33.3333" stroke-linecap="round"/>
<path d="M233.334 450L350.001 566.667" stroke="#D7DF23" stroke-width="33.3333" stroke-linecap="round"/>
<path d="M350.001 233.332L233.334 349.999" stroke="#D7DF23" stroke-width="33.3333" stroke-linecap="round"/>
<path d="M566.667 450L450 566.667" stroke="#D7DF23" stroke-width="33.3333" stroke-linecap="round"/>
<path d="M400.001 250.001C436.82 250.001 466.667 220.154 466.667 183.335C466.667 146.516 436.82 116.668 400.001 116.668C363.182 116.668 333.334 146.516 333.334 183.335C333.334 220.154 363.182 250.001 400.001 250.001Z" stroke="#D7DF23" stroke-width="33.3333"/>
<path d="M400.001 683.333C436.82 683.333 466.667 653.486 466.667 616.667C466.667 579.848 436.82 550 400.001 550C363.182 550 333.334 579.848 333.334 616.667C333.334 653.486 363.182 683.333 400.001 683.333Z" stroke="#D7DF23" stroke-width="33.3333"/>
<path d="M183.333 466.665C220.152 466.665 249.999 436.818 249.999 399.999C249.999 363.18 220.152 333.332 183.333 333.332C146.514 333.332 116.666 363.18 116.666 399.999C116.666 436.818 146.514 466.665 183.333 466.665Z" stroke="#D7DF23" stroke-width="33.3333"/>
<path d="M616.667 466.665C653.486 466.665 683.333 436.818 683.333 399.999C683.333 363.18 653.486 333.332 616.667 333.332C579.848 333.332 550 363.18 550 399.999C550 436.818 579.848 466.665 616.667 466.665Z" stroke="#D7DF23" stroke-width="33.3333"/>
<path d="M183.333 416.665C192.537 416.665 199.999 409.203 199.999 399.999C199.999 390.794 192.537 383.332 183.333 383.332C174.128 383.332 166.666 390.794 166.666 399.999C166.666 409.203 174.128 416.665 183.333 416.665Z" stroke="#4E4E4E" stroke-width="33.3333"/>
<path d="M400.001 633.333C409.205 633.333 416.667 625.871 416.667 616.667C416.667 607.462 409.205 600 400.001 600C390.796 600 383.334 607.462 383.334 616.667C383.334 625.871 390.796 633.333 400.001 633.333Z" stroke="#4E4E4E" stroke-width="33.3333"/>
</svg>
