<svg width="800" height="800" viewBox="0 0 800 800" fill="none" xmlns="http://www.w3.org/2000/svg">
<path d="M675.001 543.752C655.126 543.852 636.551 549.476 620.776 559.151L621.226 558.902L553.876 497.677C571.976 470.052 582.726 436.202 582.726 399.852C582.726 360.552 570.151 324.177 548.776 294.552L549.151 295.077L625.701 218.527C639.951 226.427 656.926 231.102 674.976 231.227H675.026C733.701 231.227 781.276 183.652 781.276 124.977C781.276 66.3016 733.701 18.7266 675.026 18.7266C616.351 18.7266 568.776 66.3016 568.776 124.977C568.901 143.077 573.601 160.052 581.751 174.852L581.476 174.302L504.926 250.852C476.251 229.852 440.251 217.252 401.326 217.252C379.626 217.252 358.851 221.177 339.651 228.327L340.876 227.927L324.776 198.677C342.926 179.752 354.101 154.002 354.101 125.652C354.101 67.3516 306.826 20.0766 248.526 20.0766C190.226 20.0766 142.951 67.3516 142.951 125.652C142.951 183.952 190.226 231.227 248.526 231.227C256.176 231.227 263.651 230.402 270.851 228.852L270.151 228.977L286.201 258.127C244.076 291.002 217.251 341.752 217.251 398.802C217.251 413.927 219.151 428.627 222.701 442.652L222.426 441.427L205.751 448.502C186.251 425.902 157.576 411.652 125.576 411.652C67.2258 411.652 19.9258 458.951 19.9258 517.301C19.9258 575.651 67.2258 622.951 125.576 622.951C183.926 622.951 231.226 575.651 231.226 517.301C231.226 517.101 231.226 516.877 231.226 516.677C231.026 512.702 230.651 509.026 230.076 505.426L230.151 506.026L246.826 498.952C279.401 549.602 335.501 582.676 399.326 582.676C441.901 582.676 481.026 567.952 511.901 543.327L511.526 543.601L579.076 604.976C572.626 618.126 568.826 633.577 568.726 649.902C568.726 708.577 616.301 756.176 674.976 756.176C733.651 756.176 781.226 708.601 781.226 649.926C781.226 591.252 733.651 543.677 674.976 543.677L675.001 543.752ZM204.751 125.002C204.751 100.852 224.351 81.2516 248.501 81.2516C272.651 81.2516 292.251 100.852 292.251 125.002C292.251 149.152 272.651 168.752 248.501 168.752C224.351 168.727 204.776 149.152 204.751 125.002ZM125.001 560.502C100.851 560.477 81.3008 540.926 81.3008 516.776C81.3008 492.627 100.876 473.052 125.026 473.052C149.176 473.052 168.726 492.602 168.751 516.752C168.726 540.902 149.151 560.477 125.001 560.502ZM675.001 81.2516C699.151 81.2516 718.751 100.852 718.751 125.002C718.751 149.152 699.151 168.752 675.001 168.752C650.851 168.752 631.251 149.152 631.251 125.002C631.276 100.852 650.851 81.2766 675.001 81.2516ZM279.751 400.002C279.751 399.977 279.751 399.952 279.751 399.927C279.751 333.552 333.551 279.752 399.926 279.752C433.126 279.752 463.176 293.227 484.926 314.977L484.951 315.002L484.976 315.027C506.726 336.777 520.151 366.827 520.151 400.002C520.151 466.402 466.326 520.202 399.951 520.202C333.576 520.202 279.751 466.377 279.751 400.002ZM675.001 693.751C650.851 693.751 631.251 674.151 631.251 650.002C631.251 625.852 650.851 606.252 675.001 606.252C699.151 606.252 718.751 625.852 718.751 650.002C718.726 674.151 699.151 693.726 675.001 693.751Z" fill="#D7DF23"/>
</svg>
